<svg xmlns="http://www.w3.org/2000/svg" xmlns:xlink="http://www.w3.org/1999/xlink" version="1.1" x="0px" y="0px" width="150" height="35" viewBox="40 160 767 175" style="enable-background:new 0 0 841.89 595.28" xml:space="preserve"><script xmlns=""/>
<style type="text/css">
	.st0{display:none;fill:#42276C;}
	.st1{fill:#FFFFFF;}
	.st2{display:none;}
	.st3{display:inline;}
	.st4{fill:#F39001;}
</style>
<g id="BRANCO">
	<rect x="-17.86" y="-12.69" class="st0" width="873.62" height="621.27"/>
	<g>
		<path class="st1" d="M137.4,208.01c-5.23-3.04-11.04-3.8-17.81-3.8c-10.61,0-20.61,3.58-29.63,12.25l1.37-8.42    c0.33-2.01-1.22-3.83-3.26-3.83H66.16c-1.6,0-2.97,1.15-3.25,2.73L41.6,327.76c-0.36,2.02,1.2,3.87,3.25,3.87h21.88    c1.6,0,2.97-1.15,3.25-2.72l7.3-41.23c2.29,2.79,6.05,5.02,9.96,6.76c3.91,1.74,8.08,2.61,12.51,2.61    c9.06,0,17.26-1.95,24.58-5.86c7.32-3.91,13.4-9.29,18.23-16.14c4.83-6.85,8.19-14.63,10.08-23.34c0.9-4.18,1.34-8.17,1.34-11.95    c0-7.17-1.46-13.5-4.37-18.97C146.71,215.31,142.63,211.05,137.4,208.01z M127.25,250.37c-0.95,4.23-2.69,8.04-5.23,11.43    c-2.54,3.39-5.69,6.06-9.45,8.03c-3.76,1.97-7.83,2.95-12.21,2.95c-3.69,0-6.81-0.77-9.38-2.32c-2.57-1.54-4.49-3.62-5.79-6.24    c-1.3-2.61-1.94-5.52-1.94-8.7c0-1.84,0.17-3.56,0.52-5.15c0.8-3.78,2.5-7.43,5.12-10.94c2.61-3.51,5.8-6.36,9.56-8.55    c3.76-2.19,7.66-3.29,11.69-3.29c5.83,0,10.25,1.54,13.26,4.63c3.01,3.09,4.52,7.17,4.52,12.25    C127.92,246.36,127.69,248.33,127.25,250.37z"/>
		<path class="st1" d="M373.47,204.2h-21.94c-1.18,0-2.27,0.63-2.86,1.65l-31.93,55.3l-9.56-54.23c-0.28-1.58-1.65-2.73-3.25-2.73    h-19.6c-2.05,0-3.61,1.85-3.25,3.87l15.3,86.79c0.13,0.76,0,1.55-0.39,2.22L278.9,326.7c-1.27,2.2,0.32,4.95,2.86,4.95h21.94    c1.18,0,2.27-0.63,2.86-1.65l69.77-120.85C377.6,206.95,376.01,204.2,373.47,204.2z"/>
		<path class="st1" d="M269.33,204.34h-18.08c-1.17,0-2.26,0.62-2.85,1.64l-5.64,9.7c-5.18-8.06-13.05-11.38-23.5-11.38    c-9.4,0-17.96,1.24-25.8,5.15c-7.84,3.91-14.36,9.36-19.56,16.35c-5.2,6.99-8.7,14.94-10.49,23.85c-0.7,3.58-1.05,6.89-1.05,9.93    c0,7.42,1.7,14,5.11,19.74c3.41,5.75,8.05,10.21,13.92,13.4c5.87,3.19,12.34,4.78,19.41,4.78c4.63,0,12.17-1.05,16.31-2.71    c4.87-1.95,7.18-2.33,11.41-5.92l3.48,6.81c0.56,1.1,1.7,1.8,2.94,1.8h15.51c3.69,0,6.84-2.65,7.48-6.28l14.63-82.98    C272.93,206.19,271.38,204.34,269.33,204.34z M232.46,250.46c-0.85,4.03-2.6,7.78-5.26,11.23c-2.66,3.46-5.88,6.22-9.67,8.29    c-3.78,2.07-7.69,3.1-11.72,3.1c-3.43,0-6.46-0.73-9.07-2.2c-2.61-1.47-4.63-3.5-6.05-6.08c-1.42-2.59-2.13-5.57-2.13-8.96    c0-1.59,0.2-3.38,0.6-5.37c0.9-4.33,2.7-8.22,5.41-11.68c2.71-3.46,5.92-6.15,9.63-8.06c3.71-1.91,7.45-2.87,11.23-2.87    c3.48,0,6.56,0.78,9.22,2.35c2.66,1.57,4.71,3.69,6.16,6.38c1.44,2.69,2.16,5.7,2.16,9.03    C232.98,247.3,232.81,248.92,232.46,250.46z"/>
		<path class="st1" d="M703.38,204.25h-21.86c-1.61,0-2.98,1.15-3.26,2.74c0,0-5.95,33.72-8.26,46.83    c-1.88,10.66-9.69,17.17-18.32,17.24c-1.44,0.01-2.78-0.07-4.03-0.24c-6.88-0.93-11.53-6.43-10.32-13.27l8.37-47.48    c0.54-3.04-1.8-5.83-4.89-5.83h-18.49c-2.41,0-4.47,1.73-4.89,4.1l-10.62,60.25c-2.59,14.68,16.17,28.15,31.08,28.15    c20.98,0,26.21-9.44,26.21-9.44l-0.98,5.56c-0.36,2.03,1.2,3.89,3.26,3.89h21.86c1.61,0,2.98-1.15,3.26-2.74l15.14-85.88    C706.99,206.11,705.44,204.25,703.38,204.25z"/>
		<path class="st1" d="M708.93,296.75h21.86c1.61,0,2.98-1.15,3.26-2.74c0,0,5.95-33.72,8.26-46.83    c1.88-10.66,9.69-17.17,18.32-17.24c1.44-0.01,2.78,0.07,4.03,0.24c6.88,0.93,11.53,6.43,10.32,13.27l-8.37,47.48    c-0.54,3.04,1.8,5.83,4.89,5.83h18.49c2.41,0,4.47-1.73,4.89-4.1l10.62-60.25c2.59-14.68-16.17-28.15-31.08-28.15    c-20.98,0-26.21,9.44-26.21,9.44l0.98-5.56c0.36-2.03-1.2-3.89-3.26-3.89h-21.86c-1.61,0-2.98,1.15-3.26,2.74l-15.14,85.88    C705.31,294.89,706.87,296.75,708.93,296.75z"/>
		<path class="st1" d="M602.35,204.2H587c-17.35,0-32.2,12.46-35.21,29.55l-2.04,11.57h-15.44c-1.6,0-2.97,1.15-3.25,2.73    l-3.25,18.46c-0.36,2.02,1.2,3.87,3.25,3.87h14.28l-5.36,29.72c-0.7,3.94-4.12,6.82-8.13,6.82h-8.52c-1.6,0-2.97,1.15-3.25,2.73    l-3.21,18.13c-0.36,2.02,1.2,3.87,3.25,3.87l12.61,0.01c17.55,0.01,32.58-12.58,35.63-29.87l5.53-31.38l17.96-0.03    c1.6,0,2.97-1.15,3.24-2.73l3.25-18.46c0.36-2.02-1.2-3.88-3.26-3.87l-16.78,0.03l1.35-7.62c0.78-4.42,4.62-7.65,9.11-7.67    l10.17-0.02c1.6,0,2.97-1.15,3.24-2.72l3.41-19.24C605.96,206.05,604.4,204.2,602.35,204.2z"/>
		<g id="Logo_1_">
			<path class="st1" d="M495.83,280.94h-90.31v25.44h40.27c1.87,0,3.39,1.52,3.39,3.39v18.62c0,1.87,1.52,3.39,3.39,3.39h23.75     c1.87,0,3.39-1.52,3.39-3.39v-18.64c0-1.87,1.52-3.39,3.39-3.39h12.74c1.87,0,3.39-1.52,3.39-3.39v-18.64     C499.22,282.45,497.7,280.94,495.83,280.94z"/>
			<path class="st1" d="M490.2,190.88l-21.5-12.41c-3.24-1.87-7.39-0.76-9.26,2.48l-43.06,74.58c-2.61,4.52,0.65,10.17,5.87,10.17     h41.71c2.42,0,4.66-1.29,5.87-3.39l26.98-46.73C501.81,206.93,498.84,195.87,490.2,190.88z M473.06,202.03l4.47,2.58l-7.61,13.18     l-4.47-2.58L473.06,202.03z M462.55,199.88c0.94-1.62,3.01-2.18,4.63-1.24l1.47,0.85l-7.61,13.18l-4.4-2.54L462.55,199.88z      M475.25,228.76c-0.94,1.62-3.01,2.18-4.63,1.24l-16.16-9.33c-1.62-0.94-2.18-3.01-1.24-4.63l0.87-1.51l22.04,12.72     L475.25,228.76z M484.59,212.6l-5.92,10.25l-4.34-2.51l7.61-13.18l1.41,0.81C484.97,208.9,485.52,210.98,484.59,212.6z"/>
			<path class="st1" d="M372.26,259.51l52.43-90.81c3.74-6.49,12.04-8.71,18.52-4.96l3,1.73c1.62,0.94,2.18,3.01,1.24,4.63     l-62.6,108.42c-0.94,1.62-3.01,2.18-4.63,1.24l-3-1.73C370.74,274.29,368.52,266,372.26,259.51z"/>
		</g>
	</g>
</g>
</svg>