<svg version="1.2" xmlns="http://www.w3.org/2000/svg" viewBox="0 0 60 60" width="512" height="512">
	<title>compra-de-bonus-svg</title>
	<style>
		.s0 { fill: #747474 } 
	</style>
	<g id="Layer">
		<path id="Layer" class="s0" d="m53.5 57.9q0.1-0.1 0.1-0.1 0.1-0.1 0.2-0.1 0-0.1 0.1-0.2 0-0.1 0-0.2 0.1-0.1 0.1-0.2 0-0.1 0-0.2 0-0.1 0-0.2-0.1-0.1-0.1-0.1l-4.6-9.2q-0.2 0.2-0.4 0.4-0.1 0.2-0.3 0.4-0.2 0.1-0.4 0.3-0.2 0.2-0.4 0.4l4.3 8.6c0.2 0.4 0.8 0.6 1.4 0.4zm-7.2-7.6q-0.3 0.2-0.6 0.4-0.3 0.2-0.6 0.4-0.3 0.2-0.6 0.4-0.3 0.2-0.6 0.4l4.4 2.5zm-36.2-19.3h-3v4h3c1.1 0 2-0.9 2-2 0-1.1-0.9-2-2-2zm3.7 19.3l-2.1 4.1 4.4-2.5q-0.3-0.1-0.6-0.4-0.3-0.2-0.6-0.4-0.3-0.2-0.5-0.4-0.3-0.2-0.6-0.4zm16.3-0.3q2.4 0 4.8-0.6 2.5-0.6 4.6-1.8 2.2-1.2 4-2.8 1.9-1.7 3.2-3.8h-33.3c3.7 5.6 9.9 9 16.7 9zm-20-25h-3v4h3c1.1 0 2-0.9 2-2 0-1.1-0.9-2-2-2z"/>
		<path id="Layer" fill-rule="evenodd" class="s0" d="m11 41c3.9 6.8 11.1 11 19 11 7.9 0 15.1-4.2 19-11h2.3q-0.2 0.5-0.5 1.1-0.3 0.5-0.7 1-0.3 0.5-0.7 1-0.3 0.5-0.7 0.9-0.3 0.4-0.6 0.8-0.4 0.4-0.7 0.7-0.4 0.4-0.7 0.8-0.4 0.3-0.8 0.6c-4.3 4-10 6.1-15.9 6.1-5.9 0-11.6-2.2-15.9-6.1q-0.4-0.3-0.8-0.6-0.3-0.4-0.7-0.7-0.3-0.4-0.7-0.8-0.3-0.4-0.6-0.8-0.4-0.4-0.7-0.9-0.4-0.5-0.7-1-0.3-0.5-0.7-1-0.3-0.6-0.5-1.1zm11-14v6c0 1.1-0.9 2-2 2-1.1 0-2-0.9-2-2v-6c0-1.1 0.9-2 2-2 1.1 0 2 0.9 2 2zm8-25c1.7 0 3 1.3 3 3 0 2.6-1.9 5.7-3 7.3-1.1-1.6-3-4.7-3-7.3 0-1.7 1.3-3 3-3zm0.7 2.3q-0.3-0.3-0.7-0.3-0.4 0-0.7 0.3-0.3 0.3-0.3 0.7 0 0.4 0.3 0.7 0.3 0.3 0.7 0.3 0.4 0 0.7-0.3 0.3-0.3 0.3-0.7 0-0.4-0.3-0.7zm3.8 3.7q0-0.3 0.1-0.5 0.1-0.3 0.1-0.5 0.1-0.3 0.1-0.5 2.7 0.5 5.1 1.6 2.5 1.1 4.6 2.8 2.2 1.6 3.9 3.6 1.7 2.1 2.9 4.5h-2.3c-3.1-5.5-8.5-9.4-14.7-10.6q0.1-0.2 0.2-0.4z"/>
		<path id="Layer" fill-rule="evenodd" class="s0" d="m58 24v12c0 1.7-1.3 3-3 3h-50c-1.7 0-3-1.3-3-3v-12c0-1.7 1.3-3 3-3h50c1.7 0 3 1.3 3 3zm-44.1 8.2q-0.1-0.5-0.3-0.9-0.1-0.3-0.4-0.7-0.3-0.3-0.6-0.6 0.3-0.3 0.6-0.6 0.3-0.4 0.4-0.7 0.2-0.4 0.3-0.9 0.1-0.4 0.1-0.8c0-2.2-1.8-4-4-4h-4q-0.2 0-0.4 0.1-0.2 0.1-0.3 0.2-0.1 0.1-0.2 0.3-0.1 0.2-0.1 0.4v12q0 0.2 0.1 0.4 0.1 0.2 0.2 0.3 0.1 0.1 0.3 0.2 0.2 0.1 0.4 0.1h4c2.2 0 4-1.8 4-4q0-0.4-0.1-0.8zm10.1-5.2c0-2.2-1.8-4-4-4-2.2 0-4 1.8-4 4v6c0 2.2 1.8 4 4 4 2.2 0 4-1.8 4-4zm11-3q0-0.4-0.3-0.7-0.3-0.3-0.7-0.3-0.4 0-0.7 0.3-0.3 0.3-0.3 0.7v8.3l-5.1-8.8q-0.2-0.3-0.5-0.4-0.3-0.2-0.7-0.1-0.3 0.1-0.5 0.4-0.2 0.3-0.2 0.6v12q0 0.4 0.3 0.7 0.3 0.3 0.7 0.3 0.4 0 0.7-0.3 0.3-0.3 0.3-0.7v-8.3l5.1 8.8q0.2 0.3 0.5 0.4 0.3 0.2 0.7 0.1 0.3-0.1 0.5-0.4 0.2-0.3 0.2-0.6zm10 0q0-0.4-0.3-0.7-0.3-0.3-0.7-0.3-0.4 0-0.7 0.3-0.3 0.3-0.3 0.7v9c0 1.1-0.9 2-2 2-1.1 0-2-0.9-2-2v-9q0-0.4-0.3-0.7-0.3-0.3-0.7-0.3-0.4 0-0.7 0.3-0.3 0.3-0.3 0.7v9c0 2.2 1.8 4 4 4 2.2 0 4-1.8 4-4zm4 3c0-0.5 0.2-1 0.6-1.4 0.4-0.4 0.9-0.6 1.4-0.6h3q0.4 0 0.7-0.3 0.3-0.3 0.3-0.7 0-0.4-0.3-0.7-0.3-0.3-0.7-0.3h-3q-0.4 0-0.8 0.1-0.4 0.1-0.7 0.2-0.4 0.2-0.7 0.4-0.3 0.2-0.6 0.5-0.3 0.3-0.5 0.6-0.2 0.3-0.4 0.7-0.1 0.3-0.2 0.7-0.1 0.4-0.1 0.8c0 2.2 1.8 4 4 4 1.1 0 2 0.9 2 2 0 0.5-0.2 1-0.6 1.4-0.4 0.4-0.9 0.6-1.4 0.6h-3q-0.4 0-0.7 0.3-0.3 0.3-0.3 0.7 0 0.4 0.3 0.7 0.3 0.3 0.7 0.3h3q0.4 0 0.8-0.1 0.4-0.1 0.7-0.2 0.4-0.2 0.7-0.4 0.3-0.2 0.6-0.5 0.3-0.3 0.5-0.6 0.2-0.3 0.4-0.7 0.1-0.3 0.2-0.7 0.1-0.4 0.1-0.8c0-2.2-1.8-4-4-4-1.1 0-2-0.9-2-2zm-40.3-8q1.2-2.4 2.9-4.5 1.7-2 3.9-3.6 2.1-1.7 4.6-2.8 2.4-1.1 5.1-1.6 0 0.2 0.1 0.5 0 0.2 0.1 0.5 0 0.2 0.1 0.5 0.1 0.2 0.2 0.4c-6.2 1.3-11.6 5.1-14.7 10.6zm-2.6 37.6l4.6-9.2q0.2 0.2 0.4 0.4 0.1 0.2 0.3 0.4 0.2 0.1 0.4 0.3 0.2 0.2 0.4 0.4l-4.3 8.5c-0.2 0.5-0.9 0.7-1.3 0.5-0.5-0.3-0.7-0.9-0.5-1.3z"/>
		<path id="Layer" class="s0" d="m33.5 10.3q-0.3 0.6-0.6 1.1-0.3 0.6-0.7 1.1-0.3 0.6-0.7 1.1-0.3 0.5-0.7 1-0.2 0.2-0.4 0.3-0.2 0.1-0.4 0.1-0.2 0-0.4-0.1-0.2-0.1-0.4-0.3-0.4-0.5-0.7-1-0.4-0.5-0.7-1.1-0.4-0.5-0.7-1.1-0.3-0.5-0.6-1.1c-5.4 1-10.2 4.1-13.2 8.7h33.4c-3-4.6-7.8-7.7-13.2-8.7z"/>
	</g>
</svg>