<svg version="1.2" xmlns="http://www.w3.org/2000/svg" viewBox="0 0 448 448" width="448" height="448">
	<title>interativos-svg</title>
	<style>
		.s0 { fill: #747474 } 
	</style>
	<g id="Layer">
		<path id="Layer" class="s0" d="m394.7 213.3h-32v-85.3c0-23.6-19.1-42.7-42.7-42.7h-85.3v-32c0-29.4-23.9-53.3-53.4-53.3-29.4 0-53.3 23.9-53.3 53.3v32h-85.3c-23.6 0-42.5 19.1-42.5 42.7l-0.1 81.1h31.9c31.8 0 57.6 25.8 57.6 57.6 0 31.8-25.8 57.6-57.6 57.6h-31.9l-0.1 81c0 23.6 19.1 42.7 42.7 42.7h81v-32c0-31.8 25.8-57.6 57.6-57.6 31.8 0 57.6 25.8 57.6 57.6v32h81.1c23.6 0 42.7-19.1 42.7-42.7v-85.3h32c29.4 0 53.3-23.9 53.3-53.3 0-29.5-23.9-53.4-53.3-53.4z"/>
	</g>
</svg>