<svg version="1.2" xmlns="http://www.w3.org/2000/svg" viewBox="0 0 52 52" width="512" height="512">
	<title>jogos-de-mesa-svg</title>
	<style>
		.s0 { fill: #747474 } 
	</style>
	<g id="Layer">
		<path id="Layer" fill-rule="evenodd" class="s0" d="m50 24.3v20c0 3-2.5 5.5-5.5 5.5h-20.1c-3 0-5.5-2.5-5.5-5.5v-20c0-3.1 2.5-5.6 5.6-5.6h20c3 0 5.5 2.5 5.5 5.6zm-17.8 4.1c0-2-1.6-3.7-3.6-3.7q-0.8 0-1.4 0.3-0.7 0.3-1.2 0.8-0.5 0.5-0.8 1.2-0.3 0.7-0.3 1.4c0 2 1.7 3.6 3.7 3.6 2 0 3.6-1.6 3.6-3.6zm11.8 11.8c0-2-1.6-3.7-3.6-3.7-2 0-3.7 1.7-3.7 3.7 0 2 1.7 3.6 3.7 3.6 2 0 3.6-1.6 3.6-3.6z"/>
		<path id="Layer" fill-rule="evenodd" class="s0" d="m16.9 24.3v9h-9.4c-3 0-5.5-2.5-5.5-5.6v-20c0-3 2.5-5.5 5.5-5.5h20c3.1 0 5.6 2.5 5.6 5.5v9h-8.6c-4.2 0-7.6 3.4-7.6 7.6zm2.9-12.5c0 2 1.6 3.7 3.6 3.7 1 0 1.9-0.4 2.6-1.1 0.7-0.7 1.1-1.6 1.1-2.6 0-0.9-0.4-1.9-1.1-2.5-0.7-0.7-1.6-1.1-2.6-1.1-2 0-3.6 1.6-3.6 3.6zm-5.6 14.4c0.7-0.7 1.1-1.6 1.1-2.6 0-0.9-0.4-1.9-1.1-2.6-0.7-0.6-1.6-1-2.6-1-2 0-3.6 1.6-3.6 3.6 0 2 1.6 3.6 3.6 3.6 1 0 1.9-0.3 2.6-1zm0-11.8c0.7-0.7 1.1-1.6 1.1-2.6 0-0.9-0.4-1.9-1.1-2.5-0.7-0.7-1.6-1.1-2.6-1.1-2 0-3.6 1.6-3.6 3.6 0 2 1.6 3.7 3.6 3.7 1 0 1.9-0.4 2.6-1.1z"/>
	</g>
</svg>