<svg version="1.2" xmlns="http://www.w3.org/2000/svg" viewBox="0 0 512 512" width="512" height="512">
	<title>jogos-relampago-svg</title>
	<style>
		.s0 { fill: #747474 } 
	</style>
	<g id="Layer">
		<path id="Layer" class="s0" d="m71 256c0-77.9 47.9-143.6 114.3-171l21.3-38.3c-94 22-165.6 106.7-165.6 209.3 0 96.6 63.9 179 152.7 205.8l2.3-30.8c-73.9-25.2-125-95.1-125-175zm247.3-205.8l-2.3 30.8c73.9 25.2 125 95.1 125 175 0 77.8-47.8 143.6-114.3 171l-21.3 38.3c94-22 165.6-106.7 165.6-209.3 0-96.6-63.9-179-152.7-205.8z"/>
		<path id="Layer" class="s0" d="m398.9 220.5q-1-1.7-2.4-3.1-1.4-1.3-3.1-2.3-1.7-1-3.5-1.5-1.9-0.5-3.9-0.5h-109.8l14.5-197c0.1-1.7 0-3.4-0.5-5-0.4-1.7-1.1-3.2-2.1-4.6-1-1.4-2.2-2.6-3.5-3.6-1.4-1-2.9-1.8-4.6-2.3-1.6-0.5-3.3-0.7-5-0.6-1.7 0.1-3.3 0.5-4.9 1.1-1.6 0.6-3 1.5-4.3 2.7-1.3 1.1-2.3 2.4-3.2 3.9l-149.7 268.9c-1.3 2.3-1.9 4.9-1.9 7.5 0 2.6 0.7 5.1 2.1 7.4 1.3 2.2 3.2 4.1 5.5 5.4 2.2 1.3 4.8 2 7.4 2h109.8l-14.5 197c-0.1 1.7 0 3.4 0.5 5 0.4 1.7 1.1 3.2 2.1 4.6 1 1.4 2.2 2.6 3.5 3.6 1.4 1 2.9 1.8 4.6 2.3 6.8 2 14-1 17.4-7.1l149.7-268.9q1-1.7 1.4-3.6 0.5-1.9 0.5-3.9 0-1.9-0.6-3.8-0.5-1.9-1.5-3.6z"/>
	</g>
</svg>