<svg version="1.2" xmlns="http://www.w3.org/2000/svg" viewBox="0 0 512 512" width="512" height="512">
	<title>lendarios-svg</title>
	<style>
		.s0 { fill: #747474 } 
	</style>
	<g id="Layer">
		<path id="Layer" class="s0" d="m120.5 403.3v63.6c0 2.8 0.8 5.5 2.2 7.9 1.5 2.3 3.6 4.2 6.1 5.5 2.5 1.2 5.3 1.8 8 1.5 2.8-0.2 5.5-1.3 7.7-2.9l111.5-83.7 111.5 83.7q1.7 1.2 3.6 2 2 0.7 4.1 0.9 2 0.2 4.1-0.2 2-0.4 3.9-1.3 1.9-0.9 3.4-2.4 1.6-1.4 2.7-3.1 1.1-1.8 1.6-3.8 0.6-2 0.6-4.1v-63.6l-135.5-101.6z"/>
		<path id="Layer" class="s0" d="m265 270.9l126.5 94.9v-245.5h-271v245.5l126.5-94.9q1.9-1.4 4.3-2.2 2.3-0.8 4.7-0.8 2.4 0 4.7 0.8 2.4 0.8 4.3 2.2z"/>
		<path id="Layer" class="s0" d="m466.9 30.1c-19.6 0-36.4 12.6-42.6 30.1h-336.6c-6.2-17.5-22.9-30.1-42.6-30.1-24.9 0-45.1 20.3-45.1 45.1 0 24.9 20.2 45.2 45.1 45.2 19.6 0 36.4-12.6 42.6-30.2h336.6c6.2 17.6 23 30.2 42.6 30.2 24.9 0 45.1-20.3 45.1-45.2 0-24.8-20.2-45.1-45.1-45.1z"/>
	</g>
</svg>