<svg version="1.2" xmlns="http://www.w3.org/2000/svg" viewBox="0 0 32 32" width="512" height="512">
	<title>lobby-svg</title>
	<style>
		.s0 { fill: #747474 } 
	</style>
	<g id="Layer">
		<path id="Layer" class="s0" d="m27.5 14.8h1q0.5 0 0.9-0.3 0.4-0.3 0.5-0.8 0.2-0.4 0-0.9-0.1-0.5-0.5-0.7l-10.3-7.9q-0.7-0.5-1.5-0.7-0.8-0.3-1.6-0.3-0.8 0-1.6 0.3-0.8 0.2-1.5 0.7l-10.3 7.9q-0.4 0.2-0.5 0.7-0.2 0.5 0 0.9 0.1 0.5 0.5 0.8 0.4 0.3 0.9 0.3h1v8.9c0 2.8 2.3 5.1 5.1 5.1h12.8c2.8 0 5.1-2.3 5.1-5.1z"/>
	</g>
</svg>