<svg version="1.2" xmlns="http://www.w3.org/2000/svg" viewBox="0 0 64 64" width="512" height="512">
	<title>populares-svg</title>
	<style>
		.s0 { fill: #747474 } 
	</style>
	<g id="Layer">
		<path id="Layer" class="s0" d="m33.5 23.4l-1.5-3-1.5 3q-0.2 0.4-0.5 0.7-0.3 0.3-0.6 0.6-0.4 0.3-0.8 0.4-0.4 0.2-0.9 0.3l-3.3 0.5 2.4 2.3q0.3 0.3 0.6 0.7 0.2 0.4 0.4 0.8 0.1 0.4 0.1 0.9 0.1 0.4 0 0.9l-0.6 3.3 3-1.6q0.4-0.2 0.8-0.3 0.5-0.1 0.9-0.1 0.4 0 0.9 0.1 0.4 0.1 0.8 0.3l3 1.6-0.6-3.3q-0.1-0.5 0-0.9 0-0.5 0.1-0.9 0.2-0.4 0.4-0.8 0.3-0.4 0.6-0.7l2.4-2.3-3.3-0.5q-0.5-0.1-0.9-0.3-0.4-0.1-0.8-0.4-0.3-0.3-0.6-0.6-0.3-0.3-0.5-0.7z"/>
		<path id="Layer" fill-rule="evenodd" class="s0" d="m60.7 11.1v31.6c0 3.5-2.8 6.3-6.3 6.3h-10.7q-0.3 0-0.6 0.1-0.3 0.1-0.5 0.2-0.2 0.1-0.4 0.3-0.3 0.2-0.4 0.4l-4.7 6.5q-0.4 0.6-1 1.1-0.5 0.5-1.2 0.9-0.7 0.3-1.4 0.5-0.7 0.2-1.5 0.2-0.8 0-1.5-0.2-0.7-0.2-1.4-0.5-0.7-0.4-1.2-0.9-0.6-0.5-1-1.1l-4.7-6.5c-0.4-0.6-1.1-1-1.9-1h-10.7c-3.5 0-6.3-2.8-6.3-6.3v-31.6c0-3.5 2.8-6.3 6.3-6.3h44.8c3.5 0 6.3 2.8 6.3 6.3zm-20.6 19.8l2.7-2.6q0.4-0.4 0.6-0.8 0.3-0.5 0.4-1 0.1-0.5 0.1-1 0-0.5-0.2-1-0.1-0.5-0.4-0.9-0.3-0.4-0.7-0.8-0.4-0.3-0.9-0.5-0.4-0.2-1-0.3l-3.7-0.6-1.7-3.4c-0.6-1.2-1.9-2-3.3-2-1.4 0-2.7 0.8-3.3 2l-1.7 3.4-3.8 0.6c-1.4 0.2-2.5 1.2-2.9 2.5-0.5 1.4-0.1 2.8 0.9 3.8l2.7 2.6-0.6 3.8c-0.3 1.4 0.3 2.8 1.4 3.6 1.2 0.8 2.7 0.9 3.9 0.3l3.4-1.8 3.4 1.8q0.4 0.2 0.9 0.3 0.5 0.1 1 0.1 0.6 0 1-0.2 0.5-0.2 1-0.5 0.4-0.3 0.7-0.7 0.3-0.4 0.5-0.9 0.2-0.5 0.3-1 0-0.5-0.1-1z"/>
	</g>
</svg>