<svg version="1.2" xmlns="http://www.w3.org/2000/svg" viewBox="0 0 512 512" width="512" height="512">
	<title>primeira-pessoa-svg</title>
	<style>
		.s0 { fill: #747474 } 
	</style>
	<g id="Layer">
		<path id="Layer" class="s0" d="m441.9 91.7l-22.9-22.9v-68.8l-71.3 73.9-5.1 58.6-73.9 73.8h-12.7c-28 0-50.9 23-50.9 51 0 28 22.9 50.9 50.9 50.9 28 0 50.9-22.9 50.9-50.9 0-5.1 0-7.7-2.5-12.8l73.9-73.8 58.6-5.1 73.8-73.9z"/>
		<path id="Layer" class="s0" d="m393.6 193.6h-2.6l-35.7 38.2c2.6 7.6 2.6 17.8 2.6 25.5 0 56-45.9 101.9-101.9 101.9-56 0-101.9-45.9-101.9-101.9 0-56.1 45.9-101.9 101.9-101.9 10.2 0 17.8 2.5 25.5 2.5l38.2-38.2v-2.5c-20.4-7.7-40.8-12.8-63.7-12.8-84.1 0-152.8 68.8-152.8 152.9 0 84 68.7 152.8 152.8 152.8 84.1 0 152.8-68.8 152.8-152.8 0-23-5.1-43.3-15.2-63.7z"/>
		<path id="Layer" class="s0" d="m487.8 152.8l-38.2 35.7c5.1 20.4 10.2 43.3 10.2 68.8 0 112.1-91.7 203.8-203.8 203.8-112.1 0-203.8-91.7-203.8-203.8 0-112.1 91.7-203.8 203.8-203.8 22.9 0 45.9 5.1 68.8 12.7v-2.5l38.2-38.2q-49.7-23-107-23c-140.1 0-254.7 114.7-254.7 254.8 0 140.1 114.6 254.7 254.7 254.7 140.1 0 254.7-114.6 254.7-254.7 0-38.2-7.6-73.9-22.9-104.5z"/>
	</g>
</svg>