<svg version="1.2" xmlns="http://www.w3.org/2000/svg" viewBox="0 0 512 512" width="512" height="512">
	<title>raspadinha-svg</title>
	<style>
		.s0 { fill: #747474 } 
	</style>
	<g id="Layer">
		<path id="Layer" fill-rule="evenodd" class="s0" d="m239.6 95.7q-0.1-1.6-0.5-3.1-0.5-1.5-1.3-2.9-0.8-1.3-1.9-2.5l-11.2-11.3 15.1-2.3q1.6-0.2 3.1-0.9 1.4-0.6 2.7-1.5 1.3-1 2.3-2.3 1-1.2 1.7-2.7l6.4-13.5 6.4 13.5q0.7 1.5 1.7 2.7 1 1.3 2.3 2.2 1.2 1 2.7 1.6 1.5 0.7 3.1 0.9l15.1 2.3-11.1 11.3q-1.1 1.2-1.9 2.5-0.9 1.4-1.3 2.9-0.5 1.5-0.6 3.1-0.1 1.6 0.1 3.2l2.5 15.4-12.8-7.1q-1.5-0.8-3-1.2-1.6-0.4-3.2-0.4-1.6 0-3.2 0.4-1.5 0.4-3 1.2l-12.8 7.1 2.5-15.4q0.2-1.6 0.1-3.2zm230.2 87.9c1.1 0.4 2.1 1.1 3 1.9 0.8 0.9 1.5 1.9 1.9 3 0.5 1.1 0.7 2.3 0.7 3.5v274.3c0 1.2-0.2 2.4-0.7 3.5-0.4 1.1-1.1 2.1-1.9 3-0.9 0.8-1.9 1.5-3 1.9-1.1 0.5-2.3 0.7-3.5 0.7h-420.6c-1.2 0-2.4-0.2-3.5-0.7-1.1-0.4-2.1-1.1-3-1.9-0.8-0.9-1.5-1.9-1.9-3-0.5-1.1-0.7-2.3-0.7-3.5v-274.3c0-1.2 0.2-2.4 0.7-3.5 0.4-1.1 1.1-2.1 1.9-3 0.9-0.8 1.9-1.5 3-1.9 1.1-0.5 2.3-0.7 3.5-0.7h420.6c1.2 0 2.4 0.2 3.5 0.7zm-21.8 99.8c0-4.4-1.1-8.7-3.1-12.6-2-3.9-4.9-7.2-8.5-9.8-3.6-2.5-7.7-4.1-12.1-4.7-4.3-0.6-8.7-0.2-12.9 1.3v-10.7c0-13.7-10.2-25.3-23.8-27.1-13.5-1.8-26.3 6.7-30 19.8q-2.4-0.9-5-1.3-2.5-0.5-5.1-0.5-2.6 0-5.2 0.5-2.5 0.4-4.9 1.3-1-3.3-2.7-6.4-1.7-3-4.2-5.6-2.5-2.5-5.5-4.3-3-1.8-6.3-2.8-3.4-1-6.9-1.1-3.5-0.1-7 0.7-3.4 0.8-6.5 2.4-3.1 1.6-5.7 3.9c-6-5.3-14.1-7.8-22-6.7-8 1.1-15.1 5.6-19.4 12.4q-2.6-1.4-5.4-2.2-2.8-0.9-5.7-1.1-2.9-0.3-5.8 0.1-3 0.3-5.7 1.2v-1.5c0-13.8-10.2-25.4-23.8-27.2-13.6-1.9-26.5 6.7-30.1 20-3.6-1.5-7.5-2.1-11.3-1.9-3.9 0.1-7.6 1.1-11.1 2.8-3.5 1.8-6.5 4.2-8.9 7.2-2.5 3-4.3 6.4-5.3 10.1q-2.7-1-5.5-1.5-2.9-0.5-5.8-0.4-2.9 0.2-5.7 0.9-2.8 0.7-5.4 2-2.6 1.3-4.8 3.1-2.3 1.8-4.1 4.1-1.9 2.2-3.2 4.8-1.3 2.5-2.1 5.3c-4.1-1.6-8.6-2.2-13.1-1.7-4.4 0.5-8.7 2-12.4 4.5-3.7 2.6-6.7 5.9-8.8 9.9-2.1 3.9-3.2 8.4-3.2 12.8v91.5c0 4.4 1.1 8.8 3.2 12.8 2.1 3.9 5.1 7.3 8.8 9.8 3.7 2.6 8 4.1 12.4 4.6 4.5 0.5 9-0.1 13.1-1.7q0.8 2.7 2.1 5.3 1.3 2.6 3.2 4.8 1.8 2.3 4.1 4.1 2.2 1.8 4.8 3.1 2.6 1.3 5.4 2 2.8 0.7 5.7 0.8 2.9 0.2 5.8-0.3 2.8-0.5 5.5-1.6 0.8 2.8 2.1 5.4 1.3 2.6 3.2 4.8 1.8 2.3 4.1 4.1 2.2 1.8 4.8 3.1 2.6 1.3 5.4 2 2.8 0.7 5.7 0.8 2.9 0.2 5.7-0.3 2.9-0.5 5.6-1.6c3.6 13.3 16.5 21.8 30.1 20 13.6-1.8 23.8-13.4 23.8-27.2v-1.5q2.7 0.9 5.7 1.2 2.9 0.4 5.8 0.1 2.9-0.2 5.7-1.1 2.8-0.8 5.4-2.2c2.1 3.3 5 6.2 8.3 8.3 3.3 2.2 7.1 3.5 11.1 4.1 3.9 0.5 7.9 0.2 11.7-1 3.8-1.1 7.3-3.1 10.3-5.7q2.6 2.3 5.7 3.9 3.1 1.6 6.5 2.3 3.4 0.8 6.9 0.7 3.5-0.1 6.9-1.1 3.4-1 6.4-2.8 3-1.8 5.4-4.3 2.5-2.5 4.2-5.5 1.8-3.1 2.7-6.5 2.4 1 4.9 1.4 2.6 0.5 5.2 0.5 2.6 0 5.1-0.5 2.6-0.4 5-1.4c3.5 13.4 16.4 22 30.1 20.2 13.7-1.8 23.9-13.6 23.8-27.4v-10.7q3.1 1.1 6.4 1.5 3.3 0.3 6.5-0.2 3.3-0.4 6.4-1.6 3-1.2 5.7-3.1c7.3-5.2 11.6-13.5 11.6-22.4z"/>
		<path id="Layer" fill-rule="evenodd" class="s0" d="m512 36.6v438.8c0 20.2-16.4 36.6-36.6 36.6h-438.8c-20.2 0-36.6-16.4-36.6-36.6v-438.8c0-20.2 16.4-36.6 36.6-36.6h438.8c20.2 0 36.6 16.4 36.6 36.6zm-137.1 35.2q-0.1 1.9 0.3 3.7 0.4 1.8 1.3 3.4 0.9 1.7 2.2 3l16.1 16.4-3.9 23.3q-0.3 1.9-0.1 3.8 0.2 1.8 1 3.6 0.7 1.7 1.9 3.2 1.1 1.5 2.7 2.6 1.4 1 3.1 1.6 1.7 0.6 3.5 0.7 1.8 0.1 3.6-0.3 1.8-0.4 3.3-1.2l19.8-10.9 19.9 10.8q1.5 0.9 3.3 1.3 1.8 0.4 3.6 0.3 1.8-0.1 3.5-0.7 1.7-0.6 3.1-1.6 1.6-1.1 2.7-2.6 1.2-1.5 1.9-3.2 0.8-1.8 1-3.7 0.2-1.8-0.1-3.7l-3.9-23.3 16.1-16.4q1.3-1.3 2.2-3 0.9-1.6 1.3-3.4 0.4-1.8 0.3-3.7-0.1-1.9-0.7-3.6-0.5-1.7-1.5-3.3-1-1.5-2.4-2.6-1.4-1.2-3-2-1.7-0.7-3.5-1l-22-3.4-10-21.1q-0.8-1.7-2-3.1-1.2-1.4-2.8-2.4-1.6-1-3.3-1.5-1.8-0.6-3.7-0.6-1.8 0-3.6 0.6-1.8 0.5-3.3 1.5-1.6 1-2.8 2.4-1.2 1.4-2 3.1l-10 21.1-22 3.4q-1.8 0.3-3.5 1-1.6 0.8-3 2-1.4 1.1-2.4 2.6-1 1.6-1.5 3.3-0.6 1.7-0.7 3.6zm-173.8 0q-0.1 1.9 0.3 3.7 0.5 1.8 1.3 3.4 0.9 1.7 2.2 3l16.1 16.4-3.8 23.3q-0.3 1.9-0.1 3.8 0.2 1.8 0.9 3.6 0.7 1.7 1.9 3.2 1.2 1.5 2.8 2.6 1.4 1 3.1 1.6 1.7 0.6 3.5 0.7 1.8 0.1 3.6-0.3 1.7-0.4 3.3-1.2l19.8-10.9 19.8 10.8q1.6 0.9 3.4 1.3 1.7 0.4 3.5 0.3 1.8-0.1 3.5-0.7 1.7-0.6 3.2-1.6 1.5-1.1 2.7-2.6 1.2-1.5 1.9-3.2 0.7-1.8 1-3.7 0.2-1.8-0.2-3.7l-3.8-23.3 16.1-16.4q1.3-1.3 2.2-3 0.9-1.6 1.3-3.4 0.4-1.8 0.3-3.7-0.1-1.9-0.7-3.6-0.5-1.7-1.5-3.3-1-1.5-2.4-2.6-1.4-1.2-3-2-1.7-0.7-3.5-1l-22-3.4-10.1-21.1c-1-2.3-2.6-4.2-4.7-5.5-2.1-1.4-4.5-2.1-7-2.1-2.4 0-4.9 0.7-6.9 2.1-2.1 1.3-3.8 3.2-4.8 5.5l-10 21.1-22.1 3.4q-1.7 0.3-3.4 1-1.6 0.8-3 2-1.4 1.1-2.4 2.6-1 1.6-1.6 3.3-0.6 1.7-0.7 3.6zm-164.5 0q-0.1 1.9 0.3 3.7 0.4 1.8 1.3 3.4 0.9 1.6 2.2 3l16.1 16.3-3.9 23.4q-0.3 1.9-0.1 3.7 0.2 1.9 1 3.7 0.7 1.7 1.9 3.2 1.1 1.5 2.7 2.6 1.5 1 3.2 1.6 1.7 0.6 3.5 0.7 1.8 0.1 3.5-0.3 1.8-0.4 3.3-1.2l19.8-10.9 19.9 10.8q1.6 0.9 3.3 1.3 1.8 0.4 3.6 0.3 1.8-0.1 3.5-0.7 1.7-0.6 3.1-1.6 1.6-1.1 2.8-2.6 1.1-1.5 1.9-3.2 0.7-1.8 0.9-3.7 0.2-1.8-0.1-3.7l-3.9-23.3 16.1-16.4q1.3-1.3 2.2-3 0.9-1.6 1.3-3.4 0.4-1.8 0.3-3.7 0-1.9-0.6-3.6-0.6-1.7-1.6-3.3-1-1.5-2.4-2.6-1.4-1.2-3-2-1.7-0.7-3.5-1l-22-3.4-10-21.1c-1.1-2.3-2.7-4.2-4.8-5.5-2.1-1.4-4.5-2.1-6.9-2.1-2.5 0-4.9 0.7-7 2.1-2.1 1.3-3.7 3.2-4.8 5.5l-10 21.1-22 3.4q-1.8 0.3-3.5 1-1.6 0.8-3 2-1.4 1.1-2.4 2.6-1 1.6-1.5 3.3-0.6 1.7-0.7 3.6zm457.1 120.2c0-15.1-12.3-27.4-27.4-27.4h-420.6c-15.1 0-27.4 12.3-27.4 27.4v274.3c0 15.1 12.3 27.4 27.4 27.4h420.6c15.1 0 27.4-12.3 27.4-27.4z"/>
		<path id="Layer" class="s0" d="m74.9 98.9l-2.5 15.4 12.9-7.1q1.4-0.8 2.9-1.2 1.6-0.4 3.2-0.4 1.6 0 3.2 0.4 1.6 0.4 3 1.2l12.9 7.1-2.6-15.4q-0.2-1.6-0.1-3.2 0.1-1.6 0.6-3.1 0.5-1.5 1.3-2.9 0.8-1.3 1.9-2.5l11.1-11.3-15.1-2.3q-1.6-0.2-3-0.9-1.5-0.6-2.8-1.6-1.3-0.9-2.3-2.2-1-1.2-1.7-2.7l-6.4-13.5-6.4 13.5q-0.7 1.5-1.7 2.7-1 1.3-2.3 2.3-1.2 0.9-2.7 1.5-1.5 0.7-3.1 0.9l-15.1 2.3 11.2 11.3q1.1 1.1 1.9 2.5 0.8 1.4 1.3 2.9 0.5 1.5 0.6 3.1 0.1 1.6-0.2 3.2zm172 212c-5.1 0-9.2 4-9.2 9.1v18.3c0 5 4.1 9.1 9.2 9.1 1.2 0 2.3-0.2 3.5-0.7 1.1-0.4 2.1-1.1 2.9-1.9 0.9-0.9 1.5-1.9 2-3 0.5-1.1 0.7-2.3 0.7-3.5v-18.3c0-1.2-0.2-2.4-0.7-3.5-0.5-1.1-1.1-2.1-2-3-0.8-0.8-1.8-1.5-2.9-1.9-1.2-0.5-2.3-0.7-3.5-0.7z"/>
		<path id="Layer" fill-rule="evenodd" class="s0" d="m424.1 275c1.1 0.4 2.1 1.1 2.9 2 0.9 0.8 1.6 1.8 2 2.9 0.5 1.1 0.7 2.3 0.7 3.5v91.5c0 1.2-0.2 2.3-0.7 3.5-0.4 1.1-1.1 2.1-2 2.9-0.8 0.9-1.8 1.5-2.9 2-1.1 0.5-2.3 0.7-3.5 0.7-5.1 0-9.2-4.1-9.2-9.1 0-5.1-4.1-9.2-9.1-9.2-1.2 0-2.4 0.3-3.5 0.7-1.1 0.5-2.1 1.1-3 2-0.8 0.8-1.5 1.8-2 3-0.4 1.1-0.7 2.3-0.7 3.5v36.5c0 5.1-4 9.2-9.1 9.2-5.1 0-9.1-4.1-9.1-9.2v-18.3c0-5-4.1-9.1-9.2-9.1-1.2 0-2.4 0.2-3.5 0.7-1.1 0.5-2.1 1.1-3 2-0.8 0.8-1.5 1.8-1.9 2.9-0.5 1.2-0.7 2.3-0.7 3.5 0 5.1-4.1 9.2-9.2 9.2-5 0-9.1-4.1-9.1-9.2 0-5-4.1-9.1-9.2-9.1-1.2 0-2.3 0.2-3.5 0.7-1.1 0.5-2.1 1.1-2.9 2-0.9 0.8-1.5 1.8-2 2.9-0.5 1.2-0.7 2.3-0.7 3.5v18.3c0 5.1-4.1 9.2-9.1 9.2-5.1 0-9.2-4.1-9.2-9.2 0-1.2-0.2-2.4-0.7-3.5-0.4-1.1-1.1-2.1-2-2.9-0.8-0.9-1.8-1.6-2.9-2-1.1-0.5-2.3-0.7-3.5-0.7-5.1 0-9.2 4.1-9.2 9.1 0 5.1-4.1 9.2-9.1 9.2-1.2 0-2.4-0.3-3.5-0.7-1.1-0.5-2.1-1.2-3-2-0.8-0.9-1.5-1.9-2-3-0.4-1.1-0.7-2.3-0.7-3.5v-9.1c0-5.1-4-9.2-9.1-9.2-5.1 0-9.1 4.1-9.1 9.2 0 5-4.1 9.1-9.2 9.1-1.2 0-2.4-0.2-3.5-0.7-1.1-0.4-2.1-1.1-3-1.9-0.8-0.9-1.5-1.9-1.9-3-0.5-1.1-0.7-2.3-0.7-3.5 0-1.2-0.3-2.4-0.7-3.5-0.5-1.1-1.2-2.1-2-3-0.9-0.8-1.9-1.5-3-2-1.1-0.4-2.3-0.7-3.5-0.7-5 0-9.1 4.1-9.1 9.2v27.4c0 1.2-0.3 2.4-0.7 3.5-0.5 1.1-1.1 2.1-2 3-0.8 0.8-1.8 1.5-3 2-1.1 0.4-2.3 0.7-3.5 0.7-5 0-9.1-4.1-9.1-9.2v-18.3c0-1.2-0.2-2.4-0.7-3.5-0.5-1.1-1.1-2.1-2-2.9-0.8-0.9-1.8-1.6-2.9-2-1.2-0.5-2.3-0.7-3.5-0.7-5.1 0-9.2 4.1-9.2 9.1 0 5.1-4.1 9.2-9.1 9.2-5.1 0-9.2-4.1-9.2-9.2v-18.3c0-1.2-0.2-2.3-0.7-3.5-0.4-1.1-1.1-2.1-1.9-2.9-0.9-0.9-1.9-1.5-3-2-1.1-0.5-2.3-0.7-3.5-0.7-5.1 0-9.2 4.1-9.2 9.1 0 5.1-4 9.2-9.1 9.2-5.1 0-9.1-4.1-9.1-9.2v-18.2c0-1.2-0.3-2.4-0.7-3.5-0.5-1.2-1.2-2.2-2-3-0.9-0.9-1.9-1.5-3-2-1.1-0.4-2.3-0.7-3.5-0.7-5 0-9.1 4.1-9.1 9.2 0 5-4.1 9.1-9.2 9.1-1.2 0-2.4-0.2-3.5-0.7-1.1-0.5-2.1-1.1-2.9-2-0.9-0.8-1.6-1.8-2-2.9-0.5-1.2-0.7-2.3-0.7-3.5v-91.5c0-1.2 0.2-2.4 0.7-3.5 0.4-1.1 1.1-2.1 2-2.9 0.8-0.9 1.8-1.6 2.9-2 1.1-0.5 2.3-0.7 3.5-0.7 5.1 0 9.2 4.1 9.2 9.1 0 5.1 4.1 9.2 9.1 9.2 1.2 0 2.4-0.3 3.5-0.7 1.1-0.5 2.1-1.2 3-2 0.8-0.9 1.5-1.9 2-3 0.4-1.1 0.7-2.3 0.7-3.5v-18.3c0-5 4-9.1 9.1-9.1 5.1 0 9.1 4.1 9.1 9.1 0 1.2 0.3 2.4 0.7 3.5 0.5 1.2 1.2 2.2 2 3 0.9 0.9 1.9 1.5 3 2 1.1 0.4 2.3 0.7 3.5 0.7 5 0 9.1-4.1 9.1-9.2v-18.2c0-5.1 4.1-9.2 9.2-9.2 5 0 9.1 4.1 9.1 9.2 0 5 4.1 9.1 9.2 9.1 1.2 0 2.3-0.2 3.5-0.7 1.1-0.5 2.1-1.1 2.9-2 0.9-0.8 1.5-1.8 2-2.9 0.5-1.2 0.7-2.3 0.7-3.5v-18.3c0-5.1 4.1-9.2 9.1-9.2 5.1 0 9.2 4.1 9.2 9.2v27.4c0 1.2 0.2 2.4 0.7 3.5 0.4 1.1 1.1 2.1 2 3 0.8 0.8 1.8 1.5 2.9 1.9 1.1 0.5 2.3 0.7 3.5 0.7 5.1 0 9.2-4 9.2-9.1 0-5.1 4.1-9.1 9.1-9.1 5.1 0 9.2 4 9.2 9.1 0 5.1 4 9.1 9.1 9.1 5.1 0 9.1-4 9.1-9.1v-9.1c0-1.2 0.3-2.4 0.7-3.5 0.5-1.2 1.2-2.2 2-3 0.9-0.9 1.9-1.5 3-2 1.1-0.4 2.3-0.7 3.5-0.7 5 0 9.1 4.1 9.1 9.2 0 5 4.1 9.1 9.2 9.1 1.2 0 2.4-0.2 3.5-0.7 1.1-0.5 2.1-1.1 2.9-2 0.9-0.8 1.6-1.8 2-2.9 0.5-1.2 0.7-2.3 0.7-3.5 0-5.1 4.1-9.2 9.2-9.2 5 0 9.1 4.1 9.1 9.2v18.2c0 5.1 4.1 9.2 9.1 9.2 5.1 0 9.2-4.1 9.2-9.2 0-1.2 0.2-2.3 0.7-3.5 0.4-1.1 1.1-2.1 2-2.9 0.8-0.9 1.8-1.5 2.9-2 1.1-0.5 2.3-0.7 3.5-0.7 5.1 0 9.2 4.1 9.2 9.1 0 5.1 4.1 9.2 9.1 9.2 1.2 0 2.4-0.3 3.5-0.7 1.1-0.5 2.1-1.1 3-2 0.8-0.8 1.5-1.8 2-3 0.4-1.1 0.7-2.3 0.7-3.5v-18.2c0-5.1 4-9.2 9.1-9.2 5.1 0 9.1 4.1 9.1 9.2v36.5c0 1.2 0.3 2.4 0.7 3.5 0.5 1.1 1.2 2.1 2 3 0.9 0.8 1.9 1.5 3 2 1.1 0.4 2.3 0.7 3.5 0.7 5 0 9.1-4.1 9.1-9.2 0-5 4.1-9.1 9.2-9.1 1.2 0 2.4 0.2 3.5 0.7zm-228.6 90c1.1-0.4 2.1-1.1 3-2 0.8-0.8 1.5-1.8 1.9-2.9 0.5-1.1 0.7-2.3 0.7-3.5 0-5.1-4.1-9.2-9.1-9.2v-45.7c0-1.8-0.5-3.6-1.5-5.1-1-1.5-2.5-2.6-4.1-3.3-1.7-0.7-3.6-0.9-5.3-0.5-1.8 0.3-3.4 1.2-4.7 2.5l-9.2 9.1c-1.2 1.3-2.1 2.9-2.4 4.7-0.4 1.7-0.2 3.6 0.5 5.3 0.7 1.6 1.8 3.1 3.3 4.1 1.5 1 3.3 1.5 5.1 1.5v27.4c-5 0-9.1 4.1-9.1 9.2 0 1.2 0.2 2.4 0.7 3.5 0.4 1.1 1.1 2.1 1.9 2.9 0.9 0.9 1.9 1.6 3 2 1.1 0.5 2.3 0.7 3.5 0.7h18.3c1.2 0 2.4-0.2 3.5-0.7zm78.8-45c0-15.1-12.3-27.4-27.4-27.4-15.2 0-27.5 12.3-27.5 27.4v18.3c0 15.1 12.3 27.4 27.5 27.4 15.1 0 27.4-12.3 27.4-27.4zm73.1 0c0-15.2-12.3-27.4-27.4-27.4-15.1 0-27.4 12.2-27.4 27.4v18.3c0 15.1 12.3 27.4 27.4 27.4 15.1 0 27.4-12.3 27.4-27.4z"/>
		<path id="Layer" class="s0" d="m320 310.9c-1.2 0-2.4 0.2-3.5 0.7-1.1 0.4-2.1 1.1-3 1.9-0.8 0.9-1.5 1.9-1.9 3-0.5 1.1-0.7 2.3-0.7 3.5v18.3c0 5 4 9.1 9.1 9.1 5.1 0 9.1-4.1 9.1-9.1v-18.3c0-1.2-0.2-2.4-0.7-3.5-0.4-1.1-1.1-2.1-1.9-3-0.9-0.8-1.9-1.5-3-1.9-1.1-0.5-2.3-0.7-3.5-0.7zm93.2-212l-2.5 15.4 12.9-7.1q1.4-0.8 2.9-1.2 1.6-0.4 3.2-0.4 1.6 0 3.2 0.4 1.6 0.4 3 1.2l12.9 7.1-2.6-15.4q-0.2-1.6-0.1-3.2 0.1-1.6 0.6-3.1 0.4-1.5 1.3-2.9 0.8-1.3 1.9-2.5l11.1-11.3-15.1-2.3q-1.6-0.2-3.1-0.9-1.4-0.6-2.7-1.6-1.3-0.9-2.3-2.2-1-1.2-1.7-2.7l-6.4-13.5-6.4 13.5q-0.7 1.5-1.7 2.7-1 1.3-2.3 2.3-1.3 0.9-2.7 1.5-1.5 0.7-3.1 0.9l-15.1 2.3 11.2 11.3q1.1 1.2 1.9 2.5 0.8 1.4 1.3 2.9 0.5 1.5 0.6 3.1 0.1 1.6-0.2 3.2z"/>
	</g>
</svg>