<svg version="1.2" xmlns="http://www.w3.org/2000/svg" viewBox="0 0 68 68" width="512" height="512">
	<title>roleta-svg</title>
	<style>
		.s0 { fill: #747474 } 
	</style>
	<g id="Layer">
		<path id="Layer" fill-rule="evenodd" class="s0" d="m32 26c-13.5 0.3-24 3.6-24 9 0 5.6 11.6 9 26 9 14.4 0 26-3.4 26-9 0-5.4-10.5-8.7-24-9v-5c17.8 0.4 32 6 32 14 0 8.3-15.3 14-34 14-18.7 0-34-5.7-34-14 0-8 14.2-13.6 32-14zm36 23c0 8.3-15.3 14-34 14-18.7 0-34-5.7-34-14v-6.8c5.6 6.2 18.6 9.8 34 9.8 15.4 0 28.4-3.6 34-9.8zm-36-15c0 0.6 0.2 1.1 0.6 1.4 0.4 0.4 0.9 0.6 1.4 0.6 0.5 0 1-0.2 1.4-0.6 0.4-0.3 0.6-0.8 0.6-1.4v-4c5.5 0.2 10.6 0.9 14.4 2 3.7 1.1 5.6 2.4 5.6 3 0 0.7-1.9 2-5.6 3.1-4.3 1.2-10.1 1.9-16.4 1.9-6.3 0-12.1-0.7-16.4-1.9-3.7-1.1-5.6-2.4-5.6-3.1 0-0.6 1.9-1.9 5.6-3 3.8-1.1 8.9-1.8 14.4-2zm2-13q-1 0-2 0.1v-4.4c-2.8-1-4.4-3.8-3.9-6.7 0.5-2.8 3-4.9 5.9-4.9 2.9 0 5.4 2.1 5.9 4.9 0.5 2.9-1.1 5.7-3.9 6.7v4.4q-0.2 0-0.5 0-0.2 0-0.5 0-0.2 0-0.5 0-0.2-0.1-0.5-0.1z"/>
	</g>
</svg>