<svg version="1.2" xmlns="http://www.w3.org/2000/svg" viewBox="0 0 303 302" width="303" height="302">
	<title>neon-shapes-svg</title>
	<style>
		.s0 { fill: #b203eb } 
	</style>
	<path id="Retângulo_1_copiar_2" fill-rule="evenodd" class="s0" d="m224.2 1h68.5c1.3 0 2.6 0.3 3.8 0.8 1.2 0.5 2.3 1.2 3.3 2.1 0.9 1 1.6 2.1 2.1 3.3 0.5 1.2 0.8 2.5 0.8 3.8v69.1c0 1.3-0.3 2.6-0.8 3.9-0.5 1.2-1.2 2.3-2.1 3.2-1 0.9-2.1 1.7-3.3 2.2-1.2 0.5-2.5 0.7-3.8 0.7h-68.5c-1.3 0-2.6-0.2-3.8-0.7-1.2-0.5-2.3-1.3-3.3-2.2-0.9-0.9-1.6-2-2.1-3.2-0.5-1.3-0.8-2.6-0.8-3.9v-69.1c0-1.3 0.3-2.6 0.8-3.8 0.5-1.2 1.2-2.3 2.1-3.3 1-0.9 2.1-1.6 3.3-2.1 1.2-0.5 2.5-0.8 3.8-0.8z"/>
	<path id="Retângulo_1_copiar_3" class="s0" d="m107.1 117c0-5.5 4.5-10 10-10h68.5c5.5 0 10 4.5 10 10v69.1c0 5.5-4.5 10-10 10h-68.5c-5.5 0-10-4.5-10-10z"/>
	<path id="Retângulo_1_copiar_3-2" fill-rule="evenodd" class="s0" d="m224.2 107h68.5c1.3 0 2.6 0.3 3.8 0.8 1.2 0.5 2.3 1.2 3.3 2.1 0.9 1 1.6 2.1 2.1 3.3 0.5 1.2 0.8 2.5 0.8 3.8v69.1c0 1.3-0.3 2.6-0.8 3.9-0.5 1.2-1.2 2.3-2.1 3.2-1 0.9-2.1 1.7-3.3 2.2-1.2 0.5-2.5 0.7-3.8 0.7h-68.5c-1.3 0-2.6-0.2-3.8-0.7-1.2-0.5-2.3-1.3-3.3-2.2-0.9-0.9-1.6-2-2.1-3.2-0.5-1.3-0.8-2.6-0.8-3.9v-69.1c0-1.3 0.3-2.6 0.8-3.8 0.5-1.2 1.2-2.3 2.1-3.3 1-0.9 2.1-1.6 3.3-2.1 1.2-0.5 2.5-0.8 3.8-0.8z"/>
	<path id="Retângulo_1_copiar_4" fill-rule="evenodd" class="s0" d="m10 213h68.5c1.3 0 2.6 0.3 3.8 0.8 1.2 0.5 2.3 1.2 3.3 2.1 0.9 1 1.6 2.1 2.1 3.3 0.5 1.2 0.8 2.5 0.8 3.8v69.1c0 1.3-0.3 2.6-0.8 3.9-0.5 1.2-1.2 2.3-2.1 3.2-1 0.9-2.1 1.7-3.3 2.2-1.2 0.5-2.5 0.7-3.8 0.7h-68.5c-1.3 0-2.6-0.2-3.8-0.7-1.3-0.5-2.4-1.3-3.3-2.2-0.9-0.9-1.7-2-2.2-3.2-0.5-1.3-0.7-2.6-0.7-3.9v-69.1c0-1.3 0.2-2.6 0.7-3.8 0.5-1.2 1.3-2.3 2.2-3.3 0.9-0.9 2-1.6 3.3-2.1 1.2-0.5 2.5-0.8 3.8-0.8z"/>
	<path id="Retângulo_1_copiar_4-2" class="s0" d="m107.1 223c0-5.5 4.5-10 10-10h68.5c5.5 0 10 4.5 10 10v69.1c0 5.5-4.5 10-10 10h-68.5c-5.5 0-10-4.5-10-10z"/>
	<path id="Retângulo_1_copiar_4-3" fill-rule="evenodd" class="s0" d="m224.2 213h68.5c1.3 0 2.6 0.3 3.8 0.8 1.2 0.5 2.3 1.2 3.3 2.1 0.9 1 1.6 2.1 2.1 3.3 0.5 1.2 0.8 2.5 0.8 3.8v69.1c0 1.3-0.3 2.6-0.8 3.9-0.5 1.2-1.2 2.3-2.1 3.2-1 0.9-2.1 1.7-3.3 2.2-1.2 0.5-2.5 0.7-3.8 0.7h-68.5c-1.3 0-2.6-0.2-3.8-0.7-1.2-0.5-2.3-1.3-3.3-2.2-0.9-0.9-1.6-2-2.1-3.2-0.5-1.3-0.8-2.6-0.8-3.9v-69.1c0-1.3 0.3-2.6 0.8-3.8 0.5-1.2 1.2-2.3 2.1-3.3 1-0.9 2.1-1.6 3.3-2.1 1.2-0.5 2.5-0.8 3.8-0.8z"/>
</svg>