<svg id="SvgjsSvg1349" width="288" height="288" xmlns="http://www.w3.org/2000/svg" version="1.1" xmlns:xlink="http://www.w3.org/1999/xlink" xmlns:svgjs="http://svgjs.com/svgjs"><defs id="SvgjsDefs1350"></defs><g id="SvgjsG1351"><svg xmlns="http://www.w3.org/2000/svg" viewBox="0 0 32 32" width="288" height="288"><g transform="translate(0 -1020.362)" fill="#000000" class="color000 svgShape"><circle cx="16" cy="1036.362" r="16" fill="#17a246" fill-rule="evenodd" class="colore64c65 svgShape"></circle><path fill="#0d5c28" style="line-height:normal;text-indent:0;text-align:start;text-decoration-line:none;text-decoration-style:solid;text-decoration-color:#000;text-transform:none;block-progression:tb;isolation:auto;mix-blend-mode:normal" d="M16.977 31.965a16 16 0 0 0 .154-.006 16 16 0 0 0 1.588-.191 16 16 0 0 0 1.56-.352 16 16 0 0 0 1.518-.504 16 16 0 0 0 1.46-.652 16 16 0 0 0 1.388-.797 16 16 0 0 0 1.3-.93 16 16 0 0 0 1.201-1.054 16 16 0 0 0 1.092-1.172 16 16 0 0 0 .967-1.272 16 16 0 0 0 .836-1.365 16 16 0 0 0 .695-1.44 16 16 0 0 0 .55-1.501 16 16 0 0 0 .396-1.551 16 16 0 0 0 .238-1.58 16 16 0 0 0 .03-.588l-8.485-8.485c-.038-.037-.08-.07-.12-.107-.088-.087-.185-.165-.277-.248a10.67 10.67 0 0 0-1.086-.865 10.618 10.618 0 0 0-.736-.463c-.126-.073-.25-.151-.379-.219-.36-.189-.732-.36-1.115-.508-.022-.008-.043-.019-.064-.027h-.002a.446.446 0 0 1-.11.119l-.254.19-.627-.627c-.87-.232-1.78-.368-2.72-.368-1.107 0-2.17.172-3.172.489l3.445 3.445.016.389-.916-.916-3.46-2.49c-.013-.01-.024-.023-.036-.034l-.03-.027a10.605 10.605 0 0 0-4.394 3.54l-.008.022.025.09.948 2.387-1.569-1.568a10.585 10.585 0 0 0-1.422 5.294c0 .097.013.191.016.288l.623.623-.516.427c-.009.01-.018.015-.027.022a10.517 10.517 0 0 0 1.465 4.166l.877.877-.272-.004c.278.364.582.707.903 1.031.013.014.023.03.037.043l.056.057 8.413 8.412z" color="#000" font-family="sans-serif" font-weight="400" transform="translate(0 1020.362)" class="colorcd244a svgShape"></path><path fill="#ffffff" style="line-height:normal;text-indent:0;text-align:start;text-decoration-line:none;text-decoration-style:solid;text-decoration-color:#000;text-transform:none;block-progression:tb;isolation:auto;mix-blend-mode:normal" d="M15.975 1025.764c-1.106 0-2.171.173-3.173.49l2.921 2.107 2.972-2.23c-.87-.231-1.779-.367-2.72-.367zm3.71.684a.442.442 0 0 1-.11.12l-3.35 2.515.145 3.697 3.299 2.342 3.014-1.159 1.485-4.05c.015-.032.017-.04.064-.172a10.671 10.671 0 0 0-4.548-3.293zm-7.862.172a10.606 10.606 0 0 0-4.395 3.54l-.007.023.024.089 1.508 3.797h.001l3.387.998 3.152-2.271-.145-3.624-3.459-2.49a.42.42 0 0 1-.067-.062zm13.03 3.973-1.28 3.489 2.98 2.393.041-.03c0-.02.003-.038.003-.058a.43.43 0 0 0-.008-.08v-.001a10.545 10.545 0 0 0-1.736-5.712zm-18.03.497a10.588 10.588 0 0 0-1.42 5.296c0 .097.012.191.014.288l2.728-2.266zm9.12 2.464-3.069 2.212 1.174 3.61 3.79.045 1.217-3.655zm7.086 1.215-3.115 1.198-1.284 3.857 1.294 2.407 4.276.408c.09.01.177.045.246.105a10.474 10.474 0 0 0 2.086-5.187c-.132-.077-.184-.131-.275-.196zm-14.17.188-3.333 2.767c-.009.01-.018.014-.027.02a10.514 10.514 0 0 0 1.463 4.167l.185-.01 4.253.05 1.824-2.268-1.236-3.806zm5.037 5.294-1.826 2.27 1.285 3.95c.016.05.023.103.02.155.834.211 1.7.334 2.6.334.54 0 1.068-.052 1.587-.13a.441.441 0 0 1 .029-.236l1.62-3.831-1.322-2.463zm-6.327 2.533a10.566 10.566 0 0 0 4.814 3.539l-1.135-3.494zm12.443.339-1.487 3.518a10.628 10.628 0 0 0 5.282-3.133l-.005-.024-3.79-.361z" color="#000" font-family="sans-serif" font-weight="400" overflow="visible" class="colorfff svgShape"></path></g></svg></g></svg>