<svg width="68" height="68" viewBox="0 0 68 68" fill="none" xmlns="http://www.w3.org/2000/svg">
<path d="M43.0665 23.2998L28.7665 37.6332L23.2665 32.1332C22.9677 31.7842 22.6 31.5008 22.1864 31.3007C21.7729 31.1007 21.3224 30.9882 20.8634 30.9705C20.4043 30.9528 19.9465 31.0301 19.5188 31.1977C19.091 31.3653 18.7025 31.6195 18.3777 31.9443C18.0528 32.2692 17.7986 32.6577 17.6311 33.0854C17.4635 33.5132 17.3861 33.9709 17.4039 34.43C17.4216 34.8891 17.534 35.3395 17.7341 35.7531C17.9342 36.1666 18.2176 36.5343 18.5665 36.8332L26.3999 44.6998C26.7113 45.0088 27.0807 45.2532 27.4868 45.4191C27.893 45.5849 28.3278 45.669 28.7665 45.6665C29.641 45.6628 30.479 45.3156 31.0999 44.6998L47.7665 28.0332C48.0789 27.7233 48.3269 27.3546 48.4962 26.9484C48.6654 26.5422 48.7525 26.1065 48.7525 25.6665C48.7525 25.2265 48.6654 24.7908 48.4962 24.3846C48.3269 23.9784 48.0789 23.6097 47.7665 23.2998C47.142 22.679 46.2971 22.3305 45.4165 22.3305C44.5359 22.3305 43.6911 22.679 43.0665 23.2998ZM33.9999 0.666504C27.4071 0.666504 20.9625 2.62147 15.4808 6.28418C9.99921 9.9469 5.72679 15.1529 3.20387 21.2437C0.680947 27.3346 0.0208356 34.0368 1.30701 40.5028C2.59318 46.9689 5.76788 52.9083 10.4296 57.5701C15.0914 62.2318 21.0308 65.4065 27.4968 66.6927C33.9629 67.9789 40.6651 67.3187 46.756 64.7958C52.8468 62.2729 58.0528 58.0005 61.7155 52.5188C65.3782 47.0372 67.3332 40.5925 67.3332 33.9998C67.3332 29.6224 66.471 25.2879 64.7958 21.2437C63.1207 17.1995 60.6654 13.5249 57.5701 10.4296C54.4748 7.33432 50.8002 4.87901 46.756 3.20385C42.7118 1.5287 38.3772 0.666504 33.9999 0.666504ZM33.9999 60.6665C28.7257 60.6665 23.57 59.1025 19.1846 56.1724C14.7993 53.2422 11.3814 49.0774 9.36307 44.2047C7.34473 39.332 6.81664 33.9703 7.84558 28.7974C8.87452 23.6246 11.4143 18.8731 15.1437 15.1437C18.8731 11.4143 23.6246 8.8745 28.7974 7.84556C33.9703 6.81662 39.332 7.34471 44.2047 9.36305C49.0774 11.3814 53.2422 14.7993 56.1724 19.1846C59.1025 23.5699 60.6665 28.7257 60.6665 33.9998C60.6665 41.0723 57.857 47.855 52.856 52.856C47.8551 57.857 41.0723 60.6665 33.9999 60.6665Z" fill="#1EC355"/>
</svg>
