<svg width="26" height="32" viewBox="0 0 26 32" fill="none" xmlns="http://www.w3.org/2000/svg">
<path d="M17.8226 11.7037L23.2805 3.83269L21.4739 0H0V28.1834C0 30.2842 1.70072 31.9886 3.80173 31.9886H16.4544C16.7191 31.9886 18.9281 31.9504 21.1774 30.7188C23.3759 29.5147 25.9979 26.9836 26 21.756C26 20.694 25.7988 17.9615 23.9286 15.4961C22.8548 14.0822 20.9889 12.4711 17.8247 11.7037H17.8226ZM4.73786 4.74423H16.8822L4.73786 22.2606V4.74423ZM16.4523 27.2465H7.05066L14.8257 16.0303C17.3143 16.1999 19.1039 16.9843 20.1566 18.3685C21.1838 19.721 21.2621 21.3024 21.2621 21.756C21.26 26.7737 17.5684 27.2274 16.4544 27.2486L16.4523 27.2465Z" fill="#1AC353"/>
</svg>
