<svg id="SvgjsSvg1563" width="288" height="288" xmlns="http://www.w3.org/2000/svg" version="1.1" xmlns:xlink="http://www.w3.org/1999/xlink" xmlns:svgjs="http://svgjs.com/svgjs"><defs id="SvgjsDefs1564"></defs><g id="SvgjsG1565"><svg xmlns="http://www.w3.org/2000/svg" viewBox="0 0 32 32" width="288" height="288"><g transform="translate(0 -1020.362)" fill="#000000" class="color000 svgShape"><circle cx="16" cy="1036.362" r="16" fill="#17a246" class="color3a6c87 svgShape"></circle><path style="line-height:normal;text-indent:0;text-align:start;text-decoration-line:none;text-decoration-style:solid;text-decoration-color:#000;text-transform:none;block-progression:tb;isolation:auto;mix-blend-mode:normal" fill="#0d5c28" d="M17.252 31.943a16 16 0 0 0 1.467-.175 16 16 0 0 0 1.56-.352 16 16 0 0 0 1.518-.504 16 16 0 0 0 1.46-.652 16 16 0 0 0 1.388-.797 16 16 0 0 0 1.3-.93 16 16 0 0 0 1.201-1.054 16 16 0 0 0 1.092-1.172 16 16 0 0 0 .967-1.272 16 16 0 0 0 .836-1.365 16 16 0 0 0 .695-1.44 16 16 0 0 0 .55-1.501 16 16 0 0 0 .35-1.374L25.67 13.39c-.016-.017-.04-.027-.057-.043a2.383 2.383 0 0 0-.431-.332h-.004l-4.235-2.399h-.004a2.208 2.208 0 0 0-.978-.297c-.11-.01-.223-.01-.332 0a2.248 2.248 0 0 0-1.512.773c-.094.111-.179.232-.25.362h-.002l-1.875 3.248-1.625-1.625a2.313 2.313 0 0 0-.334-.275 2.211 2.211 0 0 0-1.244-.387H7.91a2.257 2.257 0 0 0-2.236 2.236v4.8c0 .609.253 1.169.66 1.575l10.918 10.918z" color="#000" font-family="sans-serif" font-weight="400" transform="translate(0 1020.362)" class="color2f536e svgShape"></path><path style="line-height:normal;text-indent:0;text-align:start;text-decoration-line:none;text-decoration-style:solid;text-decoration-color:#000;text-transform:none;block-progression:tb;isolation:auto;mix-blend-mode:normal" fill="#ffffff" d="M19.96 1030.68a1.83 1.83 0 0 0-.33 0 2.317 2.317 0 0 0-.432.081 2.22 2.22 0 0 0-1.332 1.054h-.001l-2.394 4.15c-.004.01-.007.012-.01.018a2.354 2.354 0 0 0 .834 3.05c.005 0 .01.01.014.01l4.237 2.398-.014-.01c1.037.66 2.442.277 3.086-.827l2.398-4.156c.64-1.098.257-2.436-.835-3.073h-.003l-4.234-2.397h-.004a2.212 2.212 0 0 0-.98-.298zm.057 1.27c.155.017.31.066.45.151.556.333.77 1.07.43 1.637-.333.555-1.07.769-1.636.429-.555-.333-.77-1.07-.43-1.636.25-.416.721-.633 1.186-.581zm-12.106.826a2.26 2.26 0 0 0-2.238 2.237v4.798a2.26 2.26 0 0 0 2.238 2.237h4.877a2.26 2.26 0 0 0 2.238-2.237v-4.798a2.26 2.26 0 0 0-2.238-2.237H7.91zm.16 1.199c.656 0 1.197.541 1.197 1.198 0 .656-.541 1.198-1.198 1.198a1.204 1.204 0 0 1-1.197-1.198c0-.657.54-1.198 1.197-1.198zm15.864.214c.155.017.31.066.451.151.555.334.767 1.071.428 1.637-.333.555-1.071.767-1.637.428-.555-.333-.767-1.071-.428-1.637.25-.416.722-.63 1.186-.58zm-3.119.8c.155.016.31.065.451.15l.036.026c.49.39.724 1.062.394 1.612-.333.555-1.071.767-1.637.427-.555-.333-.769-1.07-.43-1.636.25-.416.723-.631 1.186-.58zm-3.037.879c.155.017.309.067.45.151.555.333.769 1.07.429 1.637a.333.333 0 0 1-.025.036c-.391.489-1.062.723-1.612.393-.555-.333-.769-1.07-.429-1.636.25-.417.722-.633 1.187-.581zm-7.39.345c.658 0 1.198.542 1.198 1.199s-.541 1.198-1.198 1.198a1.204 1.204 0 0 1-1.197-1.198c0-.657.54-1.2 1.197-1.2zm11.308 1.894c.152.017.307.064.45.15.555.333.769 1.07.43 1.636-.334.556-1.071.77-1.637.43-.529-.317-.746-1.008-.442-1.615.003-.01.008-.015.012-.022.25-.417.723-.63 1.187-.58zm-9.068.345c.656 0 1.197.541 1.197 1.198 0 .657-.54 1.198-1.197 1.198s-1.2-.54-1.2-1.198c0-.657.543-1.198 1.2-1.198z" color="#000" font-family="sans-serif" font-weight="400" overflow="visible" class="colorfff svgShape"></path></g></svg></g></svg>