<svg width="21" height="21" viewBox="0 0 21 21" fill="none" xmlns="http://www.w3.org/2000/svg">
<g clip-path="url(#clip0_1912_69870)">
<path d="M10.5636 20.5005C7.91226 20.5005 5.42432 19.4726 3.55802 17.6063C1.67844 15.7268 0.650765 13.2203 0.664192 10.549C0.67762 7.87825 1.73032 5.36224 3.62806 3.4645C5.52579 1.56677 8.04181 0.514069 10.7125 0.500641L10.7644 0.500488C13.4158 0.500488 15.9037 1.52832 17.7699 3.39462C19.6496 5.27419 20.6773 7.7806 20.6639 10.4521C20.6504 13.1227 19.5979 15.6387 17.7 17.5364C15.8023 19.4343 13.2862 20.4869 10.6157 20.5003L10.5636 20.5005Z" fill="#FF8F1F"/>
<path d="M20.6638 10.452C20.6774 7.78069 19.6497 5.27459 17.7705 3.39502L3.55859 17.6069C5.42474 19.4727 7.91253 20.5004 10.5636 20.5004L10.6156 20.5002C13.2862 20.4868 15.8022 19.4343 17.7 17.5364C19.5978 15.6387 20.6504 13.1226 20.6638 10.452Z" fill="#FF7136"/>
<path d="M20.0561 9.28206C17.4571 9.31166 15.0063 10.3276 13.1385 12.1452L11.4927 10.4996L18.1715 3.82125C18.0422 3.67584 17.9087 3.53332 17.7699 3.39462C17.631 3.25576 17.4883 3.1221 17.3428 2.9927L10.664 9.67101L9.00736 8.01436C9.80631 7.11974 10.4322 6.10503 10.8705 4.99008C11.3616 3.74038 11.5954 2.42553 11.565 1.08231V0.532532C11.3001 0.511627 11.0333 0.500488 10.7644 0.500488L10.7125 0.500641C10.6057 0.501251 10.4994 0.503998 10.3932 0.507812V1.08917C10.3932 1.0936 10.3932 1.09817 10.3933 1.10275C10.4209 2.29172 10.2145 3.45535 9.77976 4.56146C9.40073 5.52566 8.8624 6.40533 8.17698 7.18413L4.05467 3.06213C3.90941 3.19183 3.76689 3.32565 3.62804 3.4645C3.48934 3.60321 3.35567 3.74557 3.22612 3.89083L7.34843 8.01268C5.72978 9.43633 3.68129 10.2202 1.52019 10.231H0.671346C0.667531 10.3367 0.664632 10.4426 0.664174 10.5488C0.662801 10.8357 0.674093 11.1204 0.69637 11.4029H1.52309C3.9976 11.3904 6.33891 10.4852 8.17851 8.84276L9.8353 10.4994L3.15563 17.1788C3.28517 17.3243 3.41899 17.4673 3.55815 17.6063C3.69655 17.7449 3.83891 17.8782 3.98418 18.0075L10.664 11.3281L12.3461 13.0101C10.7656 14.9508 9.95127 17.4199 10.0903 19.931V20.4893C10.2474 20.4965 10.4052 20.5005 10.5636 20.5005L10.6156 20.5003C10.8323 20.4992 11.0478 20.4905 11.2622 20.4759V19.9145C11.2622 19.9034 11.2618 19.8922 11.2612 19.8811C11.1367 17.6976 11.829 15.5487 13.18 13.8438L17.2744 17.9379C17.4194 17.8085 17.5616 17.675 17.7001 17.5364C17.8391 17.3974 17.9731 17.2548 18.103 17.1092L13.9672 12.9738C15.6164 11.3748 17.7763 10.4808 20.066 10.4539H20.6638C20.6638 10.4533 20.6638 10.4527 20.6638 10.4521C20.6658 10.058 20.6446 9.6675 20.6019 9.28206H20.0628C20.0605 9.28206 20.0584 9.28206 20.0561 9.28206Z" fill="#AA403A"/>
<path d="M10.0907 19.9309V20.4892C10.2479 20.4964 10.4057 20.5004 10.564 20.5004L10.6161 20.5002C10.8328 20.4992 11.0482 20.4905 11.2626 20.4758V19.9144C11.2626 19.9033 11.2623 19.8922 11.2617 19.881C11.1372 17.6975 11.8295 15.5486 13.1803 13.8437L17.2749 17.9378C17.4197 17.8084 17.562 17.6749 17.7004 17.5364C17.8396 17.3973 17.9734 17.2547 18.1034 17.1091L13.9677 12.9737C15.6168 11.3747 17.7767 10.4807 20.0664 10.4538H20.6643C20.6643 10.4532 20.6643 10.4526 20.6643 10.452C20.6663 10.0579 20.6451 9.66741 20.6023 9.28197H20.0632C20.061 9.28197 20.0588 9.28197 20.0565 9.28197C17.4575 9.31142 15.0069 10.3275 13.139 12.1451L11.4932 10.4995L18.1719 3.82117C18.0427 3.67575 17.9092 3.53323 17.7703 3.39453L3.55859 17.6064C3.69699 17.7448 3.83936 17.8782 3.98462 18.0074L10.6644 11.328L12.3466 13.01C10.7661 14.9508 9.95171 17.4198 10.0907 19.9309Z" fill="#4E1B1C"/>
</g>
<defs>
<clipPath id="clip0_1912_69870">
<rect width="20" height="20" fill="white" transform="translate(0.664062 0.500488)"/>
</clipPath>
</defs>
</svg>
