<svg width="20" height="20" viewBox="0 0 20 20" fill="none" xmlns="http://www.w3.org/2000/svg">
<path d="M9.21737 0.35021C8.57433 -0.0600245 7.73702 -0.128423 7.0087 0.244155L1.79257 2.91205C0.700029 3.47083 0.267294 4.80982 0.826474 5.90236L2.90526 9.96642C5.28206 12.863 12.8649 5.30373 9.21737 0.35021Z" fill="#D9D9FB"/>
<path d="M9.98301 1.17871C9.7973 0.829219 9.53059 0.549805 9.21832 0.350586L7.77328 0.775781C6.61863 1.11574 5.77957 2.04277 5.52992 3.16957C5.43551 3.5957 5.15406 3.96078 4.75961 4.14758C3.66508 4.66598 2.90625 5.78141 2.90625 7.07078V9.96676L3.91633 11.9416C5.99715 15.7258 13.4584 7.03719 9.98301 1.17871Z" fill="#B8C6FB"/>
<path d="M19.46 11.867L16.4374 1.59552C16.0911 0.418142 14.8555 -0.255374 13.6782 0.0908764C13.678 0.0909155 13.6779 0.0909546 13.6778 0.0909936C12.9056 0.31822 9.01113 1.46416 8.05801 1.74463C7.1025 2.02595 6.47895 2.89248 6.46289 3.83838C8.65801 10.6087 11.34 15.9529 15.2289 15.4285L17.9554 14.6263C19.1327 14.28 19.8063 13.0444 19.46 11.867Z" fill="#FB7A6E"/>
<path d="M11.9969 3.83838H6.46321C6.4595 4.05803 6.48844 4.28193 6.55368 4.50385L6.65508 4.8485L10.1698 14.9549C10.5543 16.0608 11.7725 16.6346 12.87 16.2269L14.2191 15.7256L15.2293 15.4285V7.07072C15.2293 5.28838 13.7792 3.83838 11.9969 3.83838Z" fill="#FA5C5C"/>
<path d="M14.2185 17.7779C14.2185 17.5947 14.2185 7.45496 14.2185 7.07086C14.2185 5.8434 13.2238 4.84863 11.9963 4.84863C11.6006 4.84863 10.9597 4.84863 10.2422 4.84863C5.09588 5.10738 4.31951 19.5961 9.39244 20.0002H11.9963C13.2238 20.0002 14.2185 19.0054 14.2185 17.7779Z" fill="#F2F2FB"/>
<path d="M10.2427 4.84863C8.61059 4.84863 6.58168 4.84863 6.13824 4.84863C4.91078 4.84863 3.91602 5.8434 3.91602 7.07086V17.7779C3.91602 19.0054 4.91078 20.0002 6.13824 20.0002H9.39297C7.6352 15.8712 8.02504 8.96859 10.2427 4.84863Z" fill="#D9D9FB"/>
<path d="M9.06672 14.8484C8.89937 14.8484 8.76367 14.7127 8.76367 14.5453V13.3138C8.76367 13.1464 8.89934 13.0107 9.06672 13.0107C9.23406 13.0107 9.36977 13.1464 9.36977 13.3138V14.5453C9.36977 14.7127 9.23406 14.8484 9.06672 14.8484Z" fill="#FA5C5C"/>
<path d="M8.93831 13.503C9.00503 13.423 9.13065 13.423 9.19737 13.503C9.43413 13.787 9.79796 13.9611 10.2018 13.9373C10.8124 13.9014 11.3075 13.4022 11.3389 12.7914C11.3687 12.2133 10.9929 11.7181 10.471 11.5647C10.3628 11.5329 10.282 11.4425 10.2649 11.331C10.1392 10.5118 9.25471 10.0674 8.52659 10.4308C7.66085 11.2526 7.24967 13.8485 8.2919 13.9057C8.54905 13.8437 8.77424 13.6999 8.93831 13.503Z" fill="#FB7A6E"/>
<path d="M8.52638 10.4307C8.18653 10.6003 7.93267 10.9262 7.8706 11.3309C7.85349 11.4423 7.77267 11.5328 7.6645 11.5646C7.14259 11.718 6.76681 12.2132 6.79657 12.7913C6.82802 13.4021 7.32314 13.9013 7.93372 13.9372C8.05767 13.9445 8.17782 13.933 8.29169 13.9056C8.2813 12.7551 8.36021 11.5796 8.52638 10.4307Z" fill="#FA5C5C"/>
<path d="M7.26767 7.76094C7.26763 7.76082 7.26759 7.76074 7.26756 7.76063L6.61767 6.24422C6.56994 6.13277 6.46037 6.06055 6.33916 6.06055C6.21791 6.06055 6.10838 6.13281 6.06064 6.24422C5.67748 7.1382 5.79455 6.86508 5.4106 7.7609L5.15154 8.36539C5.0856 8.51922 5.15685 8.69734 5.31068 8.76332C5.46451 8.82922 5.64263 8.75801 5.70861 8.60418L5.88967 8.18176H6.78869L6.96974 8.60418C7.019 8.71906 7.13084 8.78789 7.24842 8.78789C7.28826 8.78789 7.32877 8.77996 7.36767 8.76332C7.5215 8.69738 7.59275 8.51922 7.52681 8.36539L7.26767 7.76094ZM6.14935 7.57574L6.33912 7.13297L6.52888 7.57574H6.14935Z" fill="#4B455B"/>
<path d="M12.8228 16.0851C12.669 16.0192 12.4908 16.0904 12.4248 16.2443L12.2438 16.6667H11.3447L11.1637 16.2443C11.0978 16.0905 10.9196 16.0192 10.7658 16.0851C10.6119 16.1511 10.5407 16.3292 10.6066 16.4831L10.8657 17.0875C11.2544 17.9946 11.1276 17.6987 11.5157 18.6043C11.5635 18.7157 11.673 18.788 11.7942 18.788C11.9154 18.788 12.025 18.7157 12.0728 18.6043C12.4556 17.7111 12.3392 17.9827 12.7228 17.0875L12.9819 16.4831C13.0478 16.3292 12.9765 16.1511 12.8228 16.0851ZM11.6045 17.2728H11.984L11.7942 17.7155L11.6045 17.2728Z" fill="#5E566F"/>
</svg>
