<svg id="SvgjsSvg1539" width="288" height="288" xmlns="http://www.w3.org/2000/svg" version="1.1" xmlns:xlink="http://www.w3.org/1999/xlink" xmlns:svgjs="http://svgjs.com/svgjs"><defs id="SvgjsDefs1540"></defs><g id="SvgjsG1541"><svg xmlns="http://www.w3.org/2000/svg" viewBox="0 0 32 32" width="288" height="288"><g transform="translate(0 -1020.362)" fill="#000000" class="color000 svgShape"><circle cx="16" cy="1036.362" r="16" fill="#17a246" fill-rule="evenodd" class="color24c4bc svgShape"></circle><path fill="#0d5c28" style="line-height:normal;text-indent:0;text-align:start;text-decoration-line:none;text-decoration-style:solid;text-decoration-color:#000;text-transform:none;block-progression:tb;isolation:auto;mix-blend-mode:normal" d="M16.957 31.965a16 16 0 0 0 .174-.006 16 16 0 0 0 1.588-.191 16 16 0 0 0 1.56-.352 16 16 0 0 0 1.518-.504 16 16 0 0 0 1.46-.652 16 16 0 0 0 1.388-.797 16 16 0 0 0 1.3-.93 16 16 0 0 0 1.201-1.054 16 16 0 0 0 1.092-1.172 16 16 0 0 0 .967-1.272 16 16 0 0 0 .836-1.365 16 16 0 0 0 .695-1.44 16 16 0 0 0 .55-1.501 16 16 0 0 0 .396-1.551 16 16 0 0 0 .238-1.58 16 16 0 0 0 .033-.649l-8.5-8.5-.017-.017a10.623 10.623 0 0 0-.729-.664l-.002-.002c-.147-.123-.305-.232-.459-.346-.121-.09-.238-.185-.363-.27l-.002-.002c-.275-.185-.559-.36-.852-.52l-.013-.007c-.091-.05-.19-.088-.282-.135-.21-.106-.42-.214-.638-.306a10.417 10.417 0 0 0-.965-.354c-.182-.056-.37-.096-.557-.142-.15-.038-.298-.086-.451-.118A10.595 10.595 0 0 0 16 5.354C10.128 5.354 5.436 10.132 5.436 16a10.88 10.88 0 0 0 .212 2.143c.029.14.07.274.104.412.051.21.098.423.162.629.102.33.22.654.354.97.045.108.1.21.148.315.096.21.192.42.3.623.088.16.187.313.282.469.08.13.153.267.238.394.125.186.263.361.399.54.072.094.137.194.213.286.111.137.235.262.353.393.113.124.22.252.338.37.006.007.011.014.018.02l8.4 8.4z" color="#000" font-family="sans-serif" font-weight="400" transform="translate(0 1020.362)" class="color249eb2 svgShape"></path><path fill="#ffffff" style="line-height:normal;text-indent:0;text-align:start;text-decoration-line:none;text-decoration-style:solid;text-decoration-color:#000;text-transform:none;block-progression:tb;isolation:auto;mix-blend-mode:normal" d="M16 1025.716c-5.872 0-10.565 4.778-10.565 10.646 0 5.869 4.693 10.647 10.565 10.647 5.794 0 10.565-4.774 10.565-10.647a.41.41 0 0 0-.008-.082c-.045-5.83-4.713-10.565-10.557-10.565zm-2.047 1.036v2.367a7.488 7.488 0 0 0-1.592.651l-1.662-1.661a9.616 9.616 0 0 1 3.254-1.357zm4.094 0a9.616 9.616 0 0 1 3.254 1.357l-1.644 1.644a7.177 7.177 0 0 0-1.61-.662v-2.339zM16 1029.647a.41.41 0 0 0 .008 0c3.699-.077 6.707 3.006 6.707 6.715a6.714 6.714 0 0 1-6.715 6.715 6.714 6.714 0 0 1-6.715-6.715 6.714 6.714 0 0 1 6.715-6.715zm-8.202 1.398 1.61 1.678a7.483 7.483 0 0 0-.65 1.592H6.466a9.817 9.817 0 0 1 1.33-3.27zm16.403 0a9.815 9.815 0 0 1 1.332 3.27h-2.32a7.638 7.638 0 0 0-.633-1.58l1.62-1.69zm-8.692.731v.573c-.9.164-1.393.901-1.393 1.966 0 2.293 2.54 2.457 2.54 4.095 0 .573-.247.819-.656.819-.41 0-.656-.246-.656-.82v-.655h-1.228v.574c0 1.147.492 1.802 1.393 1.966v.572h1.064v-.572c.9-.164 1.393-.901 1.393-1.966 0-2.293-2.539-2.375-2.539-4.095 0-.573.245-.819.655-.819.409 0 .655.246.655.82v.327h1.229v-.246c0-1.065-.493-1.802-1.393-1.966v-.573h-1.064zm-9.042 6.634h2.289a7.48 7.48 0 0 0 .652 1.591L7.8 1041.68a9.817 9.817 0 0 1-1.332-3.27zm16.777 0h2.284a9.794 9.794 0 0 1-1.34 3.255L22.592 1040a7.481 7.481 0 0 0 .652-1.591zm-10.883 4.544a7.48 7.48 0 0 0 1.592.653v2.365a9.616 9.616 0 0 1-3.254-1.356l1.662-1.662zm7.278 0h.003l1.643 1.644a9.654 9.654 0 0 1-3.238 1.365v-2.36a7.48 7.48 0 0 0 1.592-.652z" color="#000" font-family="sans-serif" font-weight="400" overflow="visible" class="colorfff svgShape"></path></g></svg></g></svg>