<svg width="54" height="34" viewBox="0 0 54 34" fill="none" xmlns="http://www.w3.org/2000/svg">
<path d="M3.47322 14.5388C2.41798 14.5388 1.66424 14.3156 1.21199 13.8691C0.765548 13.4227 0.533627 12.6834 0.516233 11.6514C0.504637 11.002 0.49594 10.3207 0.490142 9.60759C0.484344 8.89443 0.481445 8.16968 0.481445 7.43334C0.481445 6.69699 0.484344 5.97224 0.490142 5.25908C0.49594 4.54013 0.504637 3.85307 0.516233 3.19789C0.527829 2.2934 0.765548 1.59185 1.22939 1.09322C1.69323 0.588791 2.43827 0.336578 3.46452 0.336578C4.48497 0.336578 5.22421 0.559802 5.68226 1.00625C6.1403 1.4469 6.38671 2.18324 6.4215 3.21529C6.4273 3.41822 6.4302 3.66173 6.4302 3.94584C6.4302 4.22414 6.4273 4.50245 6.4215 4.78075C6.4157 5.05326 6.40991 5.29387 6.40411 5.5026H4.52555C4.53135 5.24749 4.53425 4.96629 4.53425 4.65899C4.54005 4.3517 4.54295 4.0444 4.54295 3.73711C4.54295 3.42402 4.54005 3.13991 4.53425 2.8848C4.52845 2.54272 4.43568 2.29051 4.25595 2.12816C4.08201 1.96582 3.8182 1.88465 3.46452 1.88465C3.11084 1.88465 2.84703 1.96582 2.67309 2.12816C2.49915 2.29051 2.40638 2.54272 2.39479 2.8848C2.3716 3.62115 2.3542 4.37199 2.34261 5.13733C2.33681 5.89686 2.33391 6.6622 2.33391 7.43334C2.33391 8.20447 2.33681 8.97271 2.34261 9.73804C2.3542 10.5034 2.3716 11.2513 2.39479 11.9819C2.40638 12.324 2.49915 12.5791 2.67309 12.7472C2.85283 12.9096 3.11954 12.9907 3.47322 12.9907C3.85009 12.9907 4.13129 12.9096 4.31683 12.7472C4.50236 12.5791 4.59803 12.324 4.60383 11.9819C4.60963 11.721 4.61252 11.4311 4.61252 11.1122C4.61832 10.7875 4.61832 10.4657 4.61252 10.1468C4.60673 9.82791 4.60093 9.53801 4.59513 9.2771H6.48238C6.49398 9.65977 6.49977 10.0569 6.49977 10.4686C6.50557 10.8745 6.50267 11.2687 6.49108 11.6514C6.45629 12.6834 6.20408 13.4227 5.73444 13.8691C5.2706 14.3156 4.51686 14.5388 3.47322 14.5388Z" fill="white"/>
<path d="M10.8034 14.5388C9.75979 14.5388 9.00605 14.3185 8.54221 13.8778C8.08417 13.4314 7.84645 12.6921 7.82906 11.6601C7.81166 10.9643 7.80007 10.2628 7.79427 9.55541C7.78847 8.84805 7.78557 8.14069 7.78557 7.43334C7.78557 6.72018 7.78847 6.01283 7.79427 5.31127C7.80007 4.60391 7.81166 3.89945 7.82906 3.19789C7.84645 2.17165 8.08417 1.4382 8.54221 0.997551C9.00605 0.551104 9.75979 0.327881 10.8034 0.327881C11.8471 0.327881 12.595 0.551104 13.0473 0.997551C13.5053 1.4382 13.7459 2.17165 13.7691 3.19789C13.7923 3.90525 13.8068 4.61261 13.8126 5.31996C13.8242 6.02732 13.83 6.73468 13.83 7.44203C13.83 8.14939 13.8242 8.85675 13.8126 9.5641C13.8068 10.2657 13.7923 10.9643 13.7691 11.6601C13.7459 12.6921 13.5053 13.4314 13.0473 13.8778C12.595 14.3185 11.8471 14.5388 10.8034 14.5388ZM10.8034 12.982C11.1745 12.982 11.447 12.9038 11.621 12.7472C11.7949 12.5849 11.8848 12.3327 11.8906 11.9906C11.9195 11.2716 11.9369 10.5266 11.9427 9.75544C11.9543 8.9785 11.9601 8.19577 11.9601 7.40725C11.9601 6.61872 11.9543 5.84178 11.9427 5.07645C11.9311 4.31111 11.9138 3.57476 11.8906 2.86741C11.8848 2.52533 11.792 2.27601 11.6123 2.11947C11.4383 1.95712 11.1687 1.87595 10.8034 1.87595C10.4382 1.87595 10.1657 1.95712 9.98592 2.11947C9.81197 2.27601 9.71921 2.52533 9.70761 2.86741C9.68442 3.57476 9.66413 4.31111 9.64673 5.07645C9.63514 5.84178 9.62934 6.61872 9.62934 7.40725C9.63514 8.19577 9.64383 8.9785 9.65543 9.75544C9.66702 10.5266 9.68442 11.2716 9.70761 11.9906C9.71921 12.3327 9.81197 12.5849 9.98592 12.7472C10.1657 12.9038 10.4382 12.982 10.8034 12.982Z" fill="white"/>
<path d="M15.33 14.3909V0.475731H18.2L19.1045 4.89381L20.1742 12.7211H20.6003L20.2525 5.92006L20.1133 0.475731H21.9397V14.3909H18.9392L17.9825 9.61629L17.1302 2.13686H16.678L16.9998 9.12056L17.1476 14.3909H15.33Z" fill="white"/>
<path d="M24.8385 14.3909V2.14556H22.8382V0.475731H28.7261V2.14556H26.7258V14.3909H24.8385Z" fill="white"/>
<path d="M28.4565 14.3909L30.1611 0.475731H33.292L34.9966 14.3909H33.0746L32.7441 10.9208H30.709L30.3872 14.3909H28.4565ZM30.8916 9.25101H32.5701L32.2744 6.18966L31.97 2.14556H31.483L31.1873 6.18966L30.8916 9.25101Z" fill="white"/>
<path d="M0.585809 33.5244V19.6091H3.2297C4.27334 19.6091 5.03288 19.8266 5.50832 20.2614C5.98955 20.6963 6.23307 21.4181 6.23886 22.427C6.24466 22.798 6.24756 23.1314 6.24756 23.4271C6.24756 23.717 6.24176 24.0011 6.23017 24.2794C6.20118 24.836 6.08522 25.2767 5.88229 25.6014C5.67936 25.9261 5.36047 26.1638 4.92562 26.3145V26.6798C5.37206 26.8306 5.69965 27.0712 5.90838 27.4017C6.11711 27.7264 6.23017 28.1728 6.24756 28.741C6.25916 29.0947 6.26496 29.4223 6.26496 29.7238C6.26496 30.0195 6.25916 30.3471 6.24756 30.7065C6.20698 31.7096 5.95476 32.4314 5.49092 32.8721C5.02708 33.3069 4.27334 33.5244 3.2297 33.5244H0.585809ZM2.46436 31.8545H3.2297C3.60657 31.8545 3.88777 31.7589 4.07331 31.5675C4.26464 31.3704 4.36321 31.0747 4.36901 30.6804C4.37481 30.3557 4.37771 30.0485 4.37771 29.7586C4.37771 29.4629 4.37481 29.1527 4.36901 28.828C4.36321 28.283 4.26754 27.8945 4.08201 27.6626C3.90227 27.4307 3.60657 27.3147 3.19491 27.3147H2.46436V31.8545ZM2.46436 25.6449H3.221C3.59787 25.6449 3.87908 25.526 4.06461 25.2883C4.25595 25.0506 4.35451 24.6998 4.36031 24.236C4.37191 23.8997 4.37771 23.5808 4.37771 23.2793C4.37771 22.9778 4.37191 22.6618 4.36031 22.3313C4.35451 21.9776 4.25595 21.7138 4.06461 21.5399C3.87908 21.3659 3.60077 21.279 3.2297 21.279H2.46436V25.6449Z" fill="white"/>
<path d="M6.98572 33.5244L8.69033 19.6091H11.8213L13.5259 33.5244H11.6038L11.2733 30.0543H9.23824L8.91646 33.5244H6.98572ZM9.42088 28.3844H11.0994L10.8037 25.3231L10.4993 21.279H10.0123L9.71658 25.3231L9.42088 28.3844Z" fill="white"/>
<path d="M14.6165 33.5244V19.6091H17.4865L18.391 24.0272L19.4608 31.8545H19.8869L19.539 25.0535L19.3999 19.6091H21.2263V33.5244H18.2258L17.2691 28.7497L16.4168 21.2703H15.9646L16.2864 28.254L16.4342 33.5244H14.6165Z" fill="white"/>
<path d="M25.7253 33.6722C24.6701 33.6722 23.9163 33.449 23.4641 33.0025C23.0177 32.5561 22.7857 31.8168 22.7683 30.7848C22.7567 30.1354 22.748 29.4542 22.7423 28.741C22.7365 28.0279 22.7336 27.3031 22.7336 26.5668C22.7336 25.8304 22.7365 25.1057 22.7423 24.3925C22.748 23.6735 22.7567 22.9865 22.7683 22.3313C22.7799 21.4268 23.0177 20.7253 23.4815 20.2266C23.9453 19.7222 24.6904 19.47 25.7166 19.47C26.7371 19.47 27.4763 19.6932 27.9344 20.1397C28.3924 20.5803 28.6388 21.3167 28.6736 22.3487C28.6794 22.5516 28.6823 22.7952 28.6823 23.0793C28.6823 23.3576 28.6794 23.6359 28.6736 23.9142C28.6678 24.1867 28.662 24.4273 28.6562 24.636H26.7777C26.7835 24.3809 26.7864 24.0997 26.7864 23.7924C26.7922 23.4851 26.7951 23.1778 26.7951 22.8705C26.7951 22.5574 26.7922 22.2733 26.7864 22.0182C26.7806 21.6761 26.6878 21.4239 26.5081 21.2616C26.3341 21.0992 26.0703 21.0181 25.7166 21.0181C25.3629 21.0181 25.0991 21.0992 24.9252 21.2616C24.7513 21.4239 24.6585 21.6761 24.6469 22.0182C24.6237 22.7546 24.6063 23.5054 24.5947 24.2707C24.5889 25.0303 24.586 25.7956 24.586 26.5668C24.586 27.3379 24.5889 28.1061 24.5947 28.8715C24.6063 29.6368 24.6237 30.3847 24.6469 31.1153C24.6585 31.4574 24.7513 31.7125 24.9252 31.8806C25.1049 32.043 25.3716 32.1241 25.7253 32.1241C26.1022 32.1241 26.3834 32.043 26.5689 31.8806C26.7545 31.7125 26.8501 31.4574 26.8559 31.1153C26.8617 30.8544 26.8646 30.5645 26.8646 30.2456C26.8704 29.9209 26.8704 29.5991 26.8646 29.2802C26.8588 28.9613 26.853 28.6714 26.8472 28.4105H28.7345C28.7461 28.7932 28.7519 29.1903 28.7519 29.602C28.7577 30.0079 28.7548 30.4021 28.7432 30.7848C28.7084 31.8168 28.4562 32.5561 27.9865 33.0025C27.5227 33.449 26.769 33.6722 25.7253 33.6722Z" fill="white"/>
<path d="M29.5436 33.5244L31.2482 19.6091H34.3791L36.0837 33.5244H34.1617L33.8312 30.0543H31.7961L31.4743 33.5244H29.5436ZM31.9787 28.3844H33.6573L33.3616 25.3231L33.0572 21.279H32.5701L32.2744 25.3231L31.9787 28.3844ZM32.2657 18.9134L33.7181 16.7217H34.9879L33.4746 18.9134H32.2657Z" fill="white"/>
<path d="M37.1744 33.5244V19.6091H39.9139C40.9518 19.6091 41.7026 19.8266 42.1665 20.2614C42.6361 20.6963 42.8883 21.4181 42.9231 22.427C42.9405 22.8502 42.9492 23.2387 42.9492 23.5924C42.955 23.9403 42.955 24.2852 42.9492 24.6273C42.9492 24.9636 42.9405 25.3202 42.9231 25.6971C42.9057 26.3522 42.7927 26.8856 42.5839 27.2973C42.381 27.7032 42.065 28.0047 41.636 28.2018L43.1579 33.5244H41.1576L39.8618 28.5149H39.0529V33.5244H37.1744ZM39.0529 26.8538H39.9053C40.2821 26.8538 40.5604 26.7668 40.7402 26.5928C40.9257 26.4131 41.0272 26.1464 41.0446 25.7927C41.062 25.4216 41.0736 25.0419 41.0793 24.6534C41.0851 24.2591 41.0851 23.8678 41.0793 23.4793C41.0736 23.085 41.062 22.7024 41.0446 22.3313C41.0272 21.9776 40.9286 21.7138 40.7489 21.5399C40.5691 21.3659 40.2908 21.279 39.9139 21.279H39.0529V26.8538Z" fill="white"/>
<path d="M44.3426 33.5244V19.6091H46.2212V33.5244H44.3426Z" fill="white"/>
<path d="M47.3113 33.5244L49.0159 19.6091H52.1468L53.8514 33.5244H51.9294L51.5989 30.0543H49.5638L49.242 33.5244H47.3113ZM49.7465 28.3844H51.425L51.1293 25.3231L50.8249 21.279H50.3379L50.0422 25.3231L49.7465 28.3844Z" fill="white"/>
</svg>
