<svg width="14" height="19" viewBox="0 0 14 19" fill="none" xmlns="http://www.w3.org/2000/svg">
<g clip-path="url(#clip0_434_1804)">
<path d="M1.22618 13.9079C1.08906 15.1913 3.79711 16.5815 7.27438 17.0142C10.7516 17.4469 13.6805 16.7563 13.8162 15.4744C13.9533 14.191 11.2453 12.8009 7.768 12.3681C4.29073 11.9354 1.36192 12.626 1.22618 13.9079Z" fill="#F7F7F7"/>
<path d="M4.7749 14.5007L4.86403 13.6545C4.87911 13.5137 5.15883 13.4337 5.49065 13.4752L9.9291 14.025L9.77691 15.4611L9.16125 15.507L7.96011 14.9883C7.81751 15.1854 7.55014 15.2788 7.31978 15.3218C6.91803 15.3988 6.48611 15.3588 6.31883 15.3381C5.49613 15.2358 5.11495 15.0105 4.94218 14.8401C4.76393 14.6652 4.77353 14.517 4.77627 14.4992L4.7749 14.5007ZM5.588 13.9642L5.52081 14.5926C5.51533 14.6682 5.56195 14.9231 6.35174 15.0209C6.42304 15.0298 6.67259 15.055 6.89335 15.0135C7.11822 14.9705 7.25534 14.8653 7.29921 14.7023L5.588 13.9642ZM9.14754 14.2488L6.38876 13.9064L9.06116 15.0594L9.14754 14.2473V14.2488Z" fill="#17A246"/>
<path d="M3.02666 12.1458C3.29403 13.0869 5.57702 13.1639 8.12601 12.3192C10.675 11.4745 12.5261 10.0266 12.2587 9.08697C11.9913 8.1459 9.70833 8.06883 7.15934 8.91357C4.61035 9.75831 2.75928 11.2062 3.02666 12.1458Z" fill="#F7F7F7"/>
<path d="M5.89628 11.2344L5.78385 10.7542C5.76465 10.6742 5.91822 10.5645 6.12527 10.5082L8.9005 9.75092L9.09109 10.5645L8.72911 10.7364L7.90504 10.7409C7.85705 10.8817 7.71582 10.9958 7.58556 11.0743C7.35931 11.2122 7.09194 11.2922 6.98773 11.3204C6.47217 11.4611 6.20068 11.43 6.06219 11.3781C5.92096 11.3263 5.89765 11.2433 5.89491 11.2329L5.89628 11.2344ZM6.28021 10.7513L6.36385 11.1069C6.37619 11.1484 6.45298 11.2759 6.94659 11.141C6.99184 11.1292 7.14678 11.0832 7.27019 11.0077C7.39771 10.9306 7.45804 10.8417 7.45392 10.7424L6.28021 10.7483V10.7513ZM8.47544 10.0592L6.75052 10.529L8.58376 10.5186L8.47681 10.0577L8.47544 10.0592Z" fill="#17A246"/>
<path d="M8.92915 9.2315C9.57574 8.54137 8.58371 6.32243 6.71339 4.27536C4.84306 2.22829 2.8027 1.12827 2.15611 1.8184C1.50952 2.50853 2.50155 4.72747 4.37187 6.77454C6.24219 8.82161 8.28256 9.92163 8.92915 9.2315Z" fill="#F7F7F7"/>
<path d="M6.92736 6.575L6.62844 6.92475C6.57908 6.98255 6.41043 6.90252 6.25137 6.74395L4.12744 4.62617L4.63477 4.03189L4.96659 4.27049L5.43142 5.01297C5.56442 4.98333 5.72896 5.05299 5.86196 5.12857C6.09232 5.26195 6.30211 5.46202 6.38301 5.54205C6.77653 5.93478 6.90542 6.19709 6.94381 6.34974C6.98357 6.50386 6.93421 6.56907 6.92736 6.57648V6.575ZM6.34736 6.47867L6.56948 6.21784C6.59416 6.18523 6.64764 6.04889 6.2692 5.67246C6.23492 5.63838 6.11426 5.5213 5.98811 5.44868C5.85922 5.3731 5.75775 5.36421 5.68645 5.42052L6.34736 6.47867ZM4.59775 4.85144L5.91818 6.16745L4.88569 4.51502L4.59912 4.85144H4.59775Z" fill="#17A246"/>
</g>
<defs>
<clipPath id="clip0_434_1804">
<rect width="13.0001" height="17.9312" fill="white" transform="translate(0.95459 0.568817)"/>
</clipPath>
</defs>
</svg>
