<svg width="68" height="68" viewBox="0 0 68 68" fill="none" xmlns="http://www.w3.org/2000/svg">
<path d="M46.3664 21.6331C46.0566 21.3207 45.6879 21.0727 45.2817 20.9035C44.8755 20.7342 44.4398 20.6471 43.9998 20.6471C43.5597 20.6471 43.1241 20.7342 42.7179 20.9035C42.3117 21.0727 41.943 21.3207 41.6331 21.6331L33.9998 29.2998L26.3664 21.6331C25.7388 21.0054 24.8874 20.6528 23.9998 20.6528C23.1121 20.6528 22.2608 21.0054 21.6331 21.6331C21.0054 22.2608 20.6528 23.1121 20.6528 23.9998C20.6528 24.8874 21.0054 25.7388 21.6331 26.3664L29.2998 33.9998L21.6331 41.6331C21.3207 41.943 21.0727 42.3117 20.9035 42.7179C20.7342 43.1241 20.6471 43.5597 20.6471 43.9998C20.6471 44.4398 20.7342 44.8755 20.9035 45.2817C21.0727 45.6879 21.3207 46.0566 21.6331 46.3664C21.943 46.6789 22.3117 46.9268 22.7179 47.0961C23.1241 47.2653 23.5597 47.3524 23.9998 47.3524C24.4398 47.3524 24.8755 47.2653 25.2817 47.0961C25.6879 46.9268 26.0566 46.6789 26.3664 46.3664L33.9998 38.6998L41.6331 46.3664C41.943 46.6789 42.3117 46.9268 42.7179 47.0961C43.1241 47.2653 43.5597 47.3524 43.9998 47.3524C44.4398 47.3524 44.8755 47.2653 45.2817 47.0961C45.6879 46.9268 46.0566 46.6789 46.3664 46.3664C46.6789 46.0566 46.9268 45.6879 47.0961 45.2817C47.2653 44.8755 47.3524 44.4398 47.3524 43.9998C47.3524 43.5597 47.2653 43.1241 47.0961 42.7179C46.9268 42.3117 46.6789 41.943 46.3664 41.6331L38.6998 33.9998L46.3664 26.3664C46.6789 26.0566 46.9268 25.6879 47.0961 25.2817C47.2653 24.8755 47.3524 24.4398 47.3524 23.9998C47.3524 23.5597 47.2653 23.1241 47.0961 22.7179C46.9268 22.3117 46.6789 21.943 46.3664 21.6331ZM57.5664 10.4331C54.4916 7.24944 50.8134 4.71003 46.7466 2.96306C42.6798 1.2161 38.3058 0.296555 33.8798 0.258094C29.4538 0.219634 25.0645 1.06302 20.968 2.73905C16.8714 4.41508 13.1497 6.89019 10.0199 10.0199C6.89019 13.1497 4.41508 16.8714 2.73905 20.968C1.06302 25.0645 0.219634 29.4538 0.258094 33.8798C0.296555 38.3058 1.2161 42.6798 2.96306 46.7466C4.71003 50.8134 7.24944 54.4916 10.4331 57.5664C13.508 60.7501 17.1862 63.2895 21.253 65.0365C25.3198 66.7835 29.6938 67.703 34.1197 67.7415C38.5457 67.7799 42.935 66.9365 47.0316 65.2605C51.1281 63.5845 54.8499 61.1094 57.9796 57.9796C61.1094 54.8499 63.5845 51.1281 65.2605 47.0316C66.9365 42.935 67.7799 38.5457 67.7415 34.1197C67.703 29.6938 66.7835 25.3198 65.0365 21.253C63.2895 17.1862 60.7501 13.508 57.5664 10.4331ZM52.8664 52.8664C48.5066 57.2312 42.7682 59.9492 36.6291 60.5575C30.4899 61.1657 24.3298 59.6266 19.1982 56.2024C14.0666 52.7781 10.281 47.6805 8.48635 41.7781C6.69173 35.8756 6.99913 29.5336 9.35615 23.8324C11.7132 18.1312 15.974 13.4236 21.4127 10.5116C26.8515 7.5997 33.1316 6.66354 39.1831 7.86269C45.2347 9.06183 50.6833 12.3221 54.6006 17.088C58.5179 21.8539 60.6616 27.8306 60.6664 33.9998C60.6783 37.5041 59.9951 40.9759 58.6562 44.2144C57.3173 47.4529 55.3494 50.3936 52.8664 52.8664Z" fill="#FF3D3D"/>
</svg>
