<svg width="49" height="47" viewBox="0 0 49 47" fill="none" xmlns="http://www.w3.org/2000/svg">
<g filter="url(#filter0_d_981_5983)">
<path d="M22.477 10.098C22.9579 8.634 25.0519 8.634 25.5328 10.098L27.9725 17.5249C28.1875 18.1796 28.8044 18.6229 29.5003 18.6229H37.3953C38.9516 18.6229 39.5986 20.5927 38.3396 21.4975L31.9524 26.0876C31.3894 26.4922 31.1538 27.2095 31.3688 27.8642L33.8085 35.2911C34.2894 36.7551 32.5954 37.9725 31.3363 37.0677L24.9492 32.4776C24.3861 32.073 23.6237 32.073 23.0606 32.4776L16.6735 37.0677C15.4144 37.9725 13.7203 36.7551 14.2013 35.2911L16.6409 27.8642C16.856 27.2095 16.6204 26.4922 16.0573 26.0876L9.6702 21.4975C8.41114 20.5927 9.05821 18.6229 10.6145 18.6229H18.5094C19.2054 18.6229 19.8222 18.1796 20.0373 17.5249L22.477 10.098Z" stroke="#F7F7F7" stroke-width="2" shape-rendering="crispEdges"/>
</g>
<defs>
<filter id="filter0_d_981_5983" x="0" y="0" width="48.0098" height="46.3781" filterUnits="userSpaceOnUse" color-interpolation-filters="sRGB">
<feFlood flood-opacity="0" result="BackgroundImageFix"/>
<feColorMatrix in="SourceAlpha" type="matrix" values="0 0 0 0 0 0 0 0 0 0 0 0 0 0 0 0 0 0 127 0" result="hardAlpha"/>
<feOffset/>
<feGaussianBlur stdDeviation="4"/>
<feComposite in2="hardAlpha" operator="out"/>
<feColorMatrix type="matrix" values="0 0 0 0 0 0 0 0 0 0 0 0 0 0 0 0 0 0 0.5 0"/>
<feBlend mode="normal" in2="BackgroundImageFix" result="effect1_dropShadow_981_5983"/>
<feBlend mode="normal" in="SourceGraphic" in2="effect1_dropShadow_981_5983" result="shape"/>
</filter>
</defs>
</svg>
