<svg width="15" height="17" viewBox="0 0 15 17" fill="none" xmlns="http://www.w3.org/2000/svg">
<path d="M13.5729 0.47622H13.5244C13.4467 0.47622 13.369 0.495643 13.2962 0.529633L12.3105 1.03948L11.3247 0.529633C11.1839 0.456797 11.014 0.456797 10.8683 0.529633L9.8826 1.03948L8.8969 0.529633C8.75608 0.456797 8.58614 0.456797 8.44046 0.529633L7.45476 1.03948L6.46905 0.529633C6.32824 0.456797 6.15829 0.456797 6.01262 0.529633L5.02691 1.03948L4.04121 0.529633C3.90039 0.456797 3.72559 0.456797 3.58477 0.529633L2.59907 1.03948L1.61336 0.529633C1.54053 0.495643 1.46284 0.47622 1.38515 0.47622H1.33659C1.05981 0.47622 0.841309 0.699582 0.841309 0.971501V16.0047C0.841309 16.2815 1.06467 16.5 1.33659 16.5H13.5729C13.8497 16.5 14.0682 16.2766 14.0682 16.0047V0.971501C14.0731 0.699582 13.8497 0.47622 13.5729 0.47622ZM13.0776 15.5094H1.83187V1.76298L2.37085 2.03975C2.51167 2.11259 2.68647 2.11259 2.82729 2.03975L3.81299 1.5299L4.7987 2.03975C4.93951 2.11259 5.10946 2.11259 5.25513 2.03975L6.24084 1.5299L7.22654 2.03975C7.36736 2.11259 7.53731 2.11259 7.68298 2.03975L8.66868 1.5299L9.65439 2.03975C9.7952 2.11259 9.96515 2.11259 10.1108 2.03975L11.0965 1.5299L12.0822 2.03975C12.223 2.11259 12.393 2.11259 12.5387 2.03975L13.0776 1.76298V15.5094Z" fill="#F7F7F7"/>
<path d="M8.93091 11.8677C8.83865 11.7123 8.72212 11.5812 8.57159 11.4744C8.42592 11.3724 8.26083 11.285 8.07631 11.217C7.92093 11.1587 7.76069 11.1053 7.60045 11.0519V9.57579C7.68785 9.59035 7.77526 9.60978 7.85295 9.64377C7.98405 9.69718 8.09573 9.77001 8.17828 9.85742C8.20256 9.88169 8.22198 9.90597 8.2414 9.93025C8.32881 10.0468 8.47933 10.0905 8.61529 10.0419C8.82409 9.96424 8.89692 9.70203 8.75611 9.52723C8.72212 9.48838 8.68813 9.44954 8.64928 9.41069C8.50847 9.26988 8.32881 9.16305 8.12001 9.09022C7.95977 9.03195 7.78497 8.99796 7.5956 8.98339V8.71147C7.5956 8.60465 7.50819 8.51239 7.39651 8.51239C7.28969 8.51239 7.19743 8.59979 7.19743 8.71147V8.98825C6.96921 9.00767 6.76527 9.05623 6.58076 9.13877C6.34283 9.2456 6.15831 9.40098 6.02721 9.60006C5.8961 9.79915 5.82812 10.0371 5.82812 10.3139C5.82812 10.5372 5.86697 10.7217 5.94952 10.8674C6.03206 11.0131 6.14375 11.1345 6.28456 11.2267C6.42538 11.319 6.58076 11.3967 6.75556 11.4598C6.90123 11.5084 7.0469 11.5569 7.19257 11.6006V13.2467C7.08089 13.2321 6.97892 13.203 6.89152 13.1641C6.74585 13.0962 6.62931 13.0088 6.54677 12.8971C6.52249 12.8631 6.49821 12.834 6.47879 12.8C6.39624 12.6591 6.22629 12.6009 6.07577 12.6543C5.88154 12.7271 5.79899 12.9602 5.90582 13.135C5.94952 13.203 6.00293 13.271 6.0612 13.3341C6.21172 13.4943 6.40595 13.6206 6.64388 13.7128C6.80897 13.776 6.99349 13.8148 7.18772 13.8342V14.111C7.18772 14.2178 7.27512 14.3101 7.3868 14.3101C7.49363 14.3101 7.58588 14.2227 7.58588 14.111V13.8391C7.88208 13.8245 8.13458 13.7662 8.33852 13.6546C8.57645 13.5283 8.75611 13.3584 8.87264 13.1496C8.98918 12.9408 9.04745 12.7077 9.04745 12.4552C9.06687 12.2221 9.02317 12.0279 8.93091 11.8677ZM7.02263 10.8577C6.8721 10.7994 6.75071 10.7217 6.65845 10.6343C6.56619 10.5421 6.52249 10.4207 6.52249 10.2604C6.52249 10.1148 6.56133 9.98852 6.64388 9.88655C6.72157 9.77973 6.8284 9.70203 6.96436 9.64377C7.04205 9.60978 7.12459 9.59035 7.212 9.57579V10.9257C7.14402 10.9014 7.08089 10.882 7.02263 10.8577ZM8.154 13.0427C8.02775 13.1641 7.84324 13.237 7.60531 13.2564V11.7366C7.69757 11.7706 7.78011 11.8045 7.86266 11.8434C8.0229 11.9162 8.14915 12.0085 8.24626 12.1153C8.33852 12.2221 8.38707 12.3581 8.38707 12.5183C8.38222 12.7174 8.30453 12.8922 8.154 13.0427Z" fill="#F7F7F7"/>
<path d="M11.5192 4.09857H3.39079C3.11401 4.09857 2.89551 4.32193 2.89551 4.59385C2.89551 4.86577 3.11887 5.08913 3.39079 5.08913H11.5192C11.796 5.08913 12.0145 4.86577 12.0145 4.59385C12.0145 4.32193 11.7911 4.09857 11.5192 4.09857Z" fill="#F7F7F7"/>
<path d="M11.5192 6.27875H3.39079C3.11401 6.27875 2.89551 6.50211 2.89551 6.77403C2.89551 7.0508 3.11887 7.26931 3.39079 7.26931H11.5192C11.796 7.26931 12.0145 7.04595 12.0145 6.77403C12.0145 6.50211 11.7911 6.27875 11.5192 6.27875Z" fill="#F7F7F7"/>
</svg>
