<?xml version="1.0" encoding="UTF-8"?><svg id="Camada_1" xmlns="http://www.w3.org/2000/svg" viewBox="0 0 1079.71 141.14"><defs><style>.cls-1{fill:#1ec355;}</style></defs><g id="logo"><g id="L"><path class="cls-1" d="m22.6,2.64H0v119.44c0,8.97,7.24,16.24,16.16,16.24h66.07v-21.29H22.6V2.64Z"/></g><g id="E"><path class="cls-1" d="m120.77,108.45v-29.77h53.19v-21.29h-53.19v-24.87c0-4.74,3.82-8.58,8.54-8.58h55.91V2.64h-61.89c-13.89,0-25.16,11.32-25.16,25.28v85.12c0,13.96,11.26,25.28,25.16,25.28h67.68v-21.29h-61.7c-4.71,0-8.54-3.84-8.54-8.58Z"/></g><g id="N"><polygon class="cls-1" points="293.39 98.27 230.76 2.64 207.88 2.64 207.88 138.32 230.76 138.32 230.76 42.68 293.39 138.32 316.27 138.32 316.27 2.64 293.39 2.64 293.39 98.27"/></g><g id="D"><path class="cls-1" d="m421.52,14.84c-7.41-6.25-16.46-10.07-27.15-11.45-3.13-.38-6.36-.6-9.71-.66-3.34-.06-5.58-.1-6.71-.1h-43.04v135.68h43.04c1.13,0,3.38-.03,6.75-.09,3.38-.06,6.59-.28,9.66-.66,10.69-1.38,19.74-5.2,27.15-11.45,7.41-6.25,13.02-14.21,16.83-23.88,3.81-9.67,5.72-20.26,5.72-31.75s-1.91-22.08-5.72-31.75c-3.81-9.67-9.42-17.63-16.83-23.88Zm-4.22,75.99c-1.91,6.47-4.86,11.97-8.86,16.49-4,4.52-9.19,7.38-15.56,8.57-2.25.44-4.83.72-7.74.85-2.91.13-5.3.19-7.17.19h-20.07V24.03h20.07c1.88,0,4.27.05,7.17.14,2.91.1,5.49.39,7.74.9,6.25,1.2,11.39,3.99,15.42,8.39,4.03,4.4,7.02,9.83,8.95,16.3,1.94,6.47,2.91,13.38,2.91,20.73s-.95,13.88-2.86,20.35Z"/></g><g id="A"><path class="cls-1" d="m488.98,2.64l-42.57,135.68h23.25l9.22-29.4h53.19l9.33,29.4h23.25L522.07,2.64h-33.1Zm-3.45,85.08l19.78-63.11,20.03,63.11h-39.81Z"/></g><g id="S"><path class="cls-1" d="m667.6,71.42c-3.81-2.7-7.78-4.81-11.91-6.31-4.13-1.51-7.85-2.7-11.16-3.58l-24.19-6.78c-3.06-.82-6.08-1.84-9.05-3.06-2.97-1.22-5.45-2.89-7.45-4.99-2-2.1-3-4.82-3-8.15,0-3.52,1.17-6.6,3.52-9.23,2.34-2.64,5.44-4.66,9.28-6.08,3.84-1.41,8.02-2.09,12.52-2.03,4.62.13,8.98,1.07,13.08,2.83,4.09,1.76,7.56,4.32,10.41,7.68,2.84,3.36,4.77,7.43,5.76,12.2l24.28-4.24c-2-8.35-5.44-15.48-10.31-21.39-4.88-5.9-10.94-10.41-18.19-13.52C643.94,1.65,635.69.07,626.44,0c-9.13-.06-17.42,1.38-24.9,4.33-7.47,2.95-13.41,7.4-17.81,13.33-4.41,5.94-6.61,13.27-6.61,22,0,5.97.99,10.98,2.95,15.03,1.97,4.05,4.5,7.38,7.59,9.99,3.1,2.61,6.38,4.65,9.85,6.13,3.47,1.48,6.7,2.65,9.7,3.53l34.88,10.36c2.5.75,4.7,1.65,6.61,2.68,1.9,1.04,3.47,2.18,4.69,3.44,1.22,1.26,2.14,2.68,2.77,4.29.62,1.6.94,3.34.94,5.23,0,4.21-1.33,7.76-3.99,10.65-2.66,2.89-6.11,5.09-10.36,6.6-4.25,1.51-8.78,2.26-13.6,2.26-8.13,0-15.3-2.2-21.52-6.6-6.22-4.4-10.33-10.61-12.33-18.66l-23.44,3.58c1.38,8.86,4.61,16.5,9.71,22.94,5.1,6.44,11.59,11.39,19.5,14.84,7.91,3.45,16.8,5.18,26.68,5.18,6.94,0,13.58-.88,19.92-2.64,6.34-1.76,11.99-4.4,16.93-7.91,4.94-3.52,8.86-7.93,11.77-13.24,2.91-5.31,4.36-11.48,4.36-18.52s-1.24-12.37-3.71-16.77c-2.47-4.4-5.61-7.95-9.42-10.65Z"/></g><g id="B"><path class="cls-1" d="m820.62,51.73l23.2-33.6-7.68-16.36h-91.31v120.3c0,8.97,7.24,16.24,16.16,16.24h53.8c1.12,0,10.52-.16,20.08-5.42,9.35-5.14,20.5-15.94,20.51-38.26,0-4.53-.85-16.2-8.81-26.72-4.57-6.03-12.5-12.92-25.95-16.19Zm-55.64-29.71h51.63l-51.63,74.77V22.02Zm49.81,96.05h-39.98l33.06-47.88c10.58.72,18.19,4.07,22.66,9.98,4.36,5.77,4.7,12.52,4.7,14.46-.01,21.42-15.71,23.36-20.44,23.44Z"/></g><g id="E-2"><path class="cls-1" d="m888.16,108.45v-29.77h53.19v-21.29h-53.19v-24.87c0-4.74,3.82-8.58,8.54-8.58h55.91V2.64h-61.89c-13.89,0-25.16,11.32-25.16,25.28v85.12c0,13.96,11.26,25.28,25.16,25.28h67.68v-21.29h-61.7c-4.72,0-8.54-3.84-8.54-8.58Z"/></g><g id="T"><polygon class="cls-1" points="1079.71 2.64 969.72 2.64 969.72 23.93 1013.42 23.93 1013.42 138.32 1036.02 138.32 1036.02 23.93 1079.71 23.93 1079.71 2.64"/></g></g></svg>