<svg width="52" height="30" viewBox="0 0 52 30" fill="none" xmlns="http://www.w3.org/2000/svg">
<path fill-rule="evenodd" clip-rule="evenodd" d="M0.424805 0.440498V29.4405H2.4248L2.4248 0.440498H0.424805ZM3.4248 0.440498L3.4248 29.4405H4.4248L4.4248 0.440498H3.4248ZM5.4248 29.4405L5.42481 0.440498H6.4248L6.4248 29.4405H5.4248ZM9.4248 0.440498L9.4248 17.4405H10.4248L10.4248 0.440498H9.4248ZM7.4248 17.4405L7.4248 0.440498H8.4248L8.4248 17.4405H7.4248ZM11.4248 0.440498L11.4248 17.4405H13.4248L13.4248 0.440498H11.4248ZM14.4248 17.4405L14.4248 0.440498H14.9248L14.9248 17.4405H14.4248ZM15.9248 0.440498L15.9248 17.4405H16.4248L16.4248 0.440498H15.9248ZM17.4248 17.4405V0.440498H18.4248V17.4405H17.4248ZM19.4248 0.440498V17.4405H19.9248V0.440498H19.4248ZM20.9248 17.4405V0.440498H21.4248V17.4405H20.9248ZM22.4248 0.440498V17.4405H22.9248V0.440498H22.4248ZM23.9248 17.4405V0.440498H26.9248V17.4405H23.9248ZM27.9248 0.440498V17.4405H29.9248V0.440498H27.9248ZM30.9248 17.4405V0.440498H31.9248V17.4405H30.9248ZM32.9248 0.440498V17.4405H33.4248V0.440498H32.9248ZM34.4248 17.4405V0.440498H34.9248V17.4405H34.4248ZM35.9248 0.440498V17.4405H36.4248V0.440498H35.9248ZM37.4248 17.4405V0.440498H38.4248V17.4405H37.4248ZM39.4248 0.440498V17.4405H39.9248V0.440498H39.4248ZM40.9246 17.4405V0.440498H41.2246V17.4405H40.9246ZM42.2244 0.440498V17.4405H42.5244V0.440498H42.2244ZM43.5252 17.4405V0.440498H43.8252V17.4405H43.5252ZM44.8252 0.440498V17.4405H45.3252V0.440498H44.8252ZM46.3252 29.4405V0.440498H46.8252V29.4405H46.3252ZM47.8252 0.440498V29.4405H48.8252V0.440498H47.8252ZM49.8252 29.4405V0.440498H51.8252V29.4405H49.8252ZM15.0783 29.0275C15.4517 29.3822 16.0583 29.5595 16.8983 29.5595C17.7383 29.5595 18.3403 29.3822 18.7043 29.0275C19.073 28.6682 19.2667 28.0732 19.2853 27.2425C19.304 26.6825 19.3157 26.1202 19.3203 25.5555C19.3297 24.9862 19.3343 24.4168 19.3343 23.8475C19.3343 23.2782 19.3297 22.7088 19.3203 22.1395C19.3157 21.5702 19.304 21.0008 19.2853 20.4315C19.2667 19.6055 19.073 19.0152 18.7043 18.6605C18.3403 18.3012 17.7383 18.1215 16.8983 18.1215C16.0583 18.1215 15.4517 18.3012 15.0783 18.6605C14.7097 19.0152 14.5183 19.6055 14.5043 20.4315C14.4903 20.9962 14.481 21.5632 14.4763 22.1325C14.4717 22.6972 14.4693 23.2665 14.4693 23.8405C14.4693 24.4098 14.4717 24.9792 14.4763 25.5485C14.481 26.1178 14.4903 26.6825 14.5043 27.2425C14.5183 28.0732 14.7097 28.6682 15.0783 29.0275ZM17.5563 28.1175C17.4163 28.2435 17.197 28.3065 16.8983 28.3065C16.6043 28.3065 16.385 28.2435 16.2403 28.1175C16.1003 27.9868 16.0257 27.7838 16.0163 27.5085C15.9977 26.9298 15.9837 26.3302 15.9743 25.7095C15.965 25.0842 15.958 24.4542 15.9533 23.8195C15.9533 23.1848 15.958 22.5595 15.9673 21.9435C15.9813 21.3275 15.9977 20.7348 16.0163 20.1655C16.0257 19.8902 16.1003 19.6895 16.2403 19.5635C16.385 19.4328 16.6043 19.3675 16.8983 19.3675C17.1923 19.3675 17.4093 19.4328 17.5493 19.5635C17.694 19.6895 17.7687 19.8902 17.7733 20.1655C17.792 20.7348 17.806 21.3275 17.8153 21.9435C17.8247 22.5595 17.8293 23.1848 17.8293 23.8195C17.8293 24.4542 17.8247 25.0842 17.8153 25.7095C17.8107 26.3302 17.7967 26.9298 17.7733 27.5085C17.7687 27.7838 17.6963 27.9868 17.5563 28.1175ZM7.4248 18.2405V29.4405H9.5528C10.3928 29.4405 10.9995 29.2655 11.3728 28.9155C11.7461 28.5608 11.9491 27.9798 11.9818 27.1725C11.9911 26.8832 11.9958 26.6195 11.9958 26.3815C11.9958 26.1388 11.9911 25.8752 11.9818 25.5905C11.9678 25.1332 11.8768 24.7738 11.7088 24.5125C11.5408 24.2465 11.2771 24.0528 10.9178 23.9315V23.6375C11.2678 23.5162 11.5245 23.3248 11.6878 23.0635C11.8511 22.8022 11.9445 22.4475 11.9678 21.9995C11.9771 21.7755 11.9818 21.5468 11.9818 21.3135C11.9818 21.0755 11.9795 20.8072 11.9748 20.5085C11.9701 19.6965 11.7741 19.1155 11.3868 18.7655C11.0041 18.4155 10.3928 18.2405 9.5528 18.2405H7.4248ZM9.5528 28.0965H8.9368V24.4425H9.52481C9.85614 24.4425 10.0941 24.5358 10.2388 24.7225C10.3881 24.9092 10.4651 25.2218 10.4698 25.6605C10.4745 25.9218 10.4768 26.1715 10.4768 26.4095C10.4768 26.6428 10.4745 26.8902 10.4698 27.1515C10.4651 27.4688 10.3858 27.7068 10.2318 27.8655C10.0825 28.0195 9.85614 28.0965 9.5528 28.0965ZM9.5458 23.0985H8.9368V19.5845H9.5528C9.85147 19.5845 10.0755 19.6545 10.2248 19.7945C10.3788 19.9345 10.4581 20.1468 10.4628 20.4315C10.4721 20.6975 10.4768 20.9518 10.4768 21.1945C10.4768 21.4372 10.4721 21.6938 10.4628 21.9645C10.4581 22.3378 10.3788 22.6202 10.2248 22.8115C10.0755 23.0028 9.84914 23.0985 9.5458 23.0985ZM21.9416 18.2405H23.4536V28.0965H25.9526V29.4405H21.9416V18.2405ZM32.1784 18.2405H28.1814V29.4405H32.1784V28.0965H29.6934V24.4425H32.0384V23.0985H29.6934V19.5845H32.1784V18.2405ZM35.5803 29.4405V19.5845H33.9703V18.2405H38.7093V19.5845H37.0993V29.4405H35.5803ZM41.2271 29.0275C41.6005 29.3822 42.2071 29.5595 43.0471 29.5595C43.8871 29.5595 44.4892 29.3822 44.8531 29.0275C45.2218 28.6682 45.4155 28.0732 45.4341 27.2425C45.4528 26.6825 45.4645 26.1202 45.4691 25.5555C45.4785 24.9862 45.4831 24.4168 45.4831 23.8475C45.4831 23.2782 45.4785 22.7088 45.4691 22.1395C45.4645 21.5702 45.4528 21.0008 45.4341 20.4315C45.4155 19.6055 45.2218 19.0152 44.8531 18.6605C44.4892 18.3012 43.8871 18.1215 43.0471 18.1215C42.2071 18.1215 41.6005 18.3012 41.2271 18.6605C40.8585 19.0152 40.6671 19.6055 40.6531 20.4315C40.6391 20.9962 40.6298 21.5632 40.6251 22.1325C40.6205 22.6972 40.6181 23.2665 40.6181 23.8405C40.6181 24.4098 40.6205 24.9792 40.6251 25.5485C40.6298 26.1178 40.6391 26.6825 40.6531 27.2425C40.6671 28.0732 40.8585 28.6682 41.2271 29.0275ZM43.7051 28.1175C43.5651 28.2435 43.3458 28.3065 43.0471 28.3065C42.7531 28.3065 42.5338 28.2435 42.3891 28.1175C42.2491 27.9868 42.1745 27.7838 42.1651 27.5085C42.1465 26.9298 42.1325 26.3302 42.1231 25.7095C42.1138 25.0842 42.1068 24.4542 42.1021 23.8195C42.1021 23.1848 42.1068 22.5595 42.1161 21.9435C42.1301 21.3275 42.1465 20.7348 42.1651 20.1655C42.1745 19.8902 42.2491 19.6895 42.3891 19.5635C42.5338 19.4328 42.7531 19.3675 43.0471 19.3675C43.3411 19.3675 43.5581 19.4328 43.6981 19.5635C43.8428 19.6895 43.9175 19.8902 43.9221 20.1655C43.9408 20.7348 43.9548 21.3275 43.9641 21.9435C43.9735 22.5595 43.9781 23.1848 43.9781 23.8195C43.9781 24.4542 43.9735 25.0842 43.9641 25.7095C43.9595 26.3302 43.9455 26.9298 43.9221 27.5085C43.9175 27.7838 43.8451 27.9868 43.7051 28.1175Z" fill="#F7F7F7"/>
</svg>
