<svg width="45" height="24" viewBox="0 0 45 24" fill="none" xmlns="http://www.w3.org/2000/svg">
<g clip-path="url(#clip0_960_21150)">
<path d="M0.751432 9.89837C0.693278 10.9652 0.751432 12.0488 0.751432 13.1053C0.751432 15.2517 0.751432 17.3981 0.751432 19.5445C0.751432 20.8039 0.751432 22.0832 0.751432 23.3425C0.751432 23.3431 0.751432 23.3425 0.751432 23.3425H6.50099C6.50099 23.3425 6.50494 18.2996 6.50099 13.9639C6.49829 11.0455 6.47949 8.44454 6.50099 7.91082C6.60283 5.38072 7.29739 3.72769 8.59371 2.37568C8.49416 2.37175 8.39433 2.3692 8.29399 2.3692C5.49295 2.3692 2.86624 3.97036 1.58402 6.45603C1.02369 7.54218 0.816201 8.70986 0.751432 9.89837Z" fill="#F7F7F7"/>
<path d="M13.9356 0.106478C11.7851 0.106478 9.95618 0.945805 8.57812 2.38306C12.8622 2.38306 15.6361 5.29508 15.791 9.93253C15.8265 10.9966 15.8376 16.6901 15.8376 16.6901V23.3425H21.5868C21.5868 23.3425 21.5868 18.7346 21.5868 14.3492C21.5868 11.6308 21.6086 9.27721 21.4188 7.6568C20.8888 3.12852 18.1162 0.106478 13.9356 0.106478Z" fill="#F7F7F7"/>
<path d="M44.2495 14.1013C44.3077 13.0347 44.2495 11.9511 44.2495 10.8946C44.2495 8.7481 44.2495 6.60173 44.2495 4.45526C44.2495 3.19596 44.2495 1.91666 44.2495 0.657248C44.2495 0.656715 44.2495 0.657248 44.2495 0.657248H38.5C38.5 0.657248 38.496 5.70033 38.5 10.0359C38.5027 12.9543 38.5215 15.5553 38.5 16.0891C38.3982 18.619 37.7035 20.2722 36.4072 21.6241C36.5068 21.6281 36.6066 21.6306 36.707 21.6306C39.508 21.6306 42.1347 20.0295 43.417 17.5438C43.9773 16.4577 44.1848 15.29 44.2495 14.1013Z" fill="#F7F7F7"/>
<path d="M31.0651 23.8936C33.2157 23.8936 35.0446 23.0541 36.4226 21.6169C32.1384 21.6169 29.3647 18.7048 29.2098 14.0674C29.1743 13.0033 29.1592 10.363 29.1592 7.3043C29.1592 3.9607 29.1592 0.651871 29.1592 0.651871L23.4138 0.657291C23.4138 0.657291 23.4138 5.2653 23.4138 9.65071C23.4138 12.3692 23.3922 14.7226 23.5819 16.343C24.1119 20.8714 26.8846 23.8936 31.0651 23.8936Z" fill="#F7F7F7"/>
</g>
<defs>
<clipPath id="clip0_960_21150">
<rect width="44" height="23.8766" fill="white" transform="translate(0.5 0.0617676)"/>
</clipPath>
</defs>
</svg>
