<svg width="200" height="28" viewBox="0 0 200 28" fill="none" xmlns="http://www.w3.org/2000/svg">
<path d="M22.3729 20.9905V15.503H32.2266V11.572H22.3729V6.97276C22.3729 6.55331 22.5393 6.15104 22.8355 5.85445C23.1317 5.55786 23.5334 5.39125 23.9523 5.39125H34.3159V1.4603H22.8455C21.6097 1.4603 20.4246 1.95185 19.5508 2.82684C18.6769 3.70182 18.186 4.88855 18.186 6.12596V21.8373C18.186 23.0747 18.6769 24.2614 19.5508 25.1364C20.4246 26.0114 21.6097 26.503 22.8455 26.503H35.3812V22.5596H23.9523C23.5338 22.5585 23.1327 22.3915 22.8367 22.0951C22.5408 21.7988 22.374 21.3972 22.3729 20.9781" fill="#17A246"/>
<path d="M4.18686 1.4603H0V23.506C0 24.3008 0.315331 25.0631 0.876626 25.6252C1.43792 26.1872 2.1992 26.503 2.99299 26.503H15.2344V22.5596H4.18686V1.4603Z" fill="#17A246"/>
<path d="M54.3464 19.1101L42.7434 1.4603H38.5068V26.503H42.7434V8.84898L54.3464 26.503H58.5872V1.4603H54.3464V19.1101Z" fill="#17A246"/>
<path d="M78.079 3.71011C76.644 2.53065 74.8964 1.79634 73.0506 1.59728C72.4547 1.52686 71.8556 1.48668 71.2556 1.4769H70.012H62.0403V26.503H70.012C70.2193 26.503 70.6379 26.503 71.2556 26.503C71.8733 26.503 72.4744 26.449 73.0423 26.3826C74.8881 26.1835 76.6357 25.4492 78.0707 24.2698C79.4651 23.086 80.5376 21.5681 81.188 19.8573C82.603 16.0783 82.603 11.914 81.188 8.13503C80.5365 6.42604 79.4642 4.90965 78.0707 3.72672M77.2913 17.7528C76.9692 18.8782 76.403 19.9185 75.6332 20.7996C74.8741 21.6424 73.8503 22.2003 72.7314 22.3811C72.2589 22.4669 71.781 22.5196 71.3012 22.5388C70.7623 22.5388 70.3188 22.572 69.9705 22.572H66.2397V5.40785H69.9705C70.3188 5.40785 70.7623 5.41615 71.3012 5.43275C71.782 5.4441 72.2607 5.49969 72.7314 5.5988C73.8292 5.78497 74.8349 6.3293 75.5917 7.1471C76.3668 8.01021 76.9341 9.03971 77.2499 10.1565C77.9574 12.6334 77.9574 15.2593 77.2499 17.7362" fill="#17A246"/>
<path d="M90.5775 1.4603L82.7012 26.503H87.0083L88.7162 21.0777H98.5699L100.298 26.503H104.606L96.7293 1.4603H90.5775ZM89.9349 17.1633L93.5995 5.51577L97.3096 17.1633H89.9349Z" fill="#17A246"/>
<path d="M123.662 14.1539C122.982 13.6701 122.24 13.2792 121.457 12.9917C120.694 12.7135 120.006 12.4894 119.384 12.3275L114.903 11.0822C114.339 10.9276 113.785 10.7376 113.245 10.5135C112.724 10.3086 112.253 9.99436 111.864 9.59202C111.677 9.39091 111.531 9.1545 111.436 8.89654C111.34 8.63858 111.297 8.36421 111.309 8.08938C111.302 7.4587 111.535 6.84898 111.96 6.38333C112.432 5.87301 113.023 5.48792 113.68 5.26257C114.423 4.99608 115.208 4.86942 115.997 4.88899C116.831 4.90906 117.654 5.08651 118.422 5.41201C119.167 5.72601 119.827 6.21089 120.35 6.82749C120.889 7.47724 121.257 8.25228 121.419 9.08145L125.913 8.29693C125.591 6.8512 124.938 5.49998 124.006 4.34937C123.099 3.2598 121.943 2.40544 120.636 1.8588C119.178 1.26042 117.615 0.959812 116.039 0.974646C114.464 0.945108 112.898 1.21702 111.425 1.77578C110.108 2.26404 108.958 3.11789 108.109 4.23729C107.258 5.41623 106.821 6.84344 106.865 8.29693C106.834 9.25084 107.022 10.1992 107.412 11.0698C107.745 11.7781 108.224 12.4078 108.817 12.9169C109.366 13.3812 109.981 13.7616 110.641 14.046C111.228 14.2987 111.828 14.5163 112.44 14.6977L118.899 16.6113C119.331 16.7311 119.748 16.8982 120.143 17.1094C120.461 17.2756 120.753 17.4882 121.009 17.7403C121.232 17.9671 121.407 18.2368 121.523 18.5332C121.641 18.8403 121.7 19.1671 121.697 19.4962C121.718 20.2234 121.453 20.9298 120.959 21.4637C120.429 22.0203 119.769 22.4379 119.04 22.68C118.23 22.961 117.377 23.1014 116.52 23.0951C115.097 23.1195 113.703 22.6939 112.536 21.8788C111.374 21.0538 110.56 19.8259 110.252 18.4335L105.949 19.0935C106.166 20.6388 106.787 22.0993 107.748 23.3275C108.704 24.528 109.946 25.4698 111.358 26.0671C112.923 26.7259 114.607 27.0524 116.304 27.026C117.55 27.031 118.791 26.8676 119.993 26.5403C121.114 26.2376 122.175 25.7433 123.127 25.0792C124.031 24.4415 124.777 23.6051 125.308 22.6343C125.872 21.5838 126.157 20.4063 126.137 19.2139C126.179 18.1408 125.942 17.0752 125.449 16.1215C125.023 15.3416 124.427 14.6688 123.704 14.1539" fill="#17A246"/>
<path d="M164.519 20.9905V15.503H174.373V11.572H164.519V6.97276C164.519 6.76492 164.559 6.55901 164.638 6.36689C164.718 6.17476 164.834 6.0002 164.981 5.85324C165.127 5.70627 165.302 5.5898 165.494 5.51051C165.685 5.43123 165.891 5.3907 166.099 5.39125H176.462V1.4603H164.992C163.756 1.4603 162.571 1.95185 161.697 2.82684C160.823 3.70182 160.332 4.88855 160.332 6.12596V21.8373C160.332 23.0747 160.823 24.2614 161.697 25.1364C162.571 26.0114 163.756 26.503 164.992 26.503H177.528V22.5596H166.099C165.68 22.5596 165.278 22.3929 164.982 22.0963C164.686 21.7998 164.519 21.3975 164.519 20.9781" fill="#17A246"/>
<path d="M200 1.4603H179.625V5.39125H187.717V26.503H191.904V5.39125H200V1.4603Z" fill="#17A246"/>
<path d="M152.004 10.5218L156.303 4.32029L154.865 1.2984H137.951V23.506C137.951 23.8996 138.029 24.2893 138.179 24.6529C138.33 25.0165 138.55 25.3469 138.828 25.6252C139.106 25.9035 139.436 26.1242 139.799 26.2748C140.162 26.4254 140.551 26.503 140.944 26.503H150.893C152.198 26.4667 153.476 26.124 154.624 25.5026C156.357 24.5562 158.421 22.5596 158.426 18.446C158.449 16.5818 157.82 14.7683 156.647 13.3207C155.473 11.873 153.831 10.8827 152.004 10.5218ZM141.699 5.03841H151.262L141.699 18.8237V5.03841ZM150.926 22.7671H143.523L149.646 13.9297C151.602 14.0626 153.016 14.6811 153.841 15.7686C154.401 16.5462 154.705 17.4791 154.711 18.4377C154.711 22.3935 151.809 22.7505 150.926 22.7671Z" fill="#17A246"/>
</svg>
