<svg width="73" height="20" viewBox="0 0 73 20" fill="none" xmlns="http://www.w3.org/2000/svg">
<g clip-path="url(#clip0_940_6179)">
<path d="M13.7573 0.947559C6.64071 0.947559 0.870117 4.6379 0.870117 9.19125C0.870117 13.7446 6.64071 17.7923 13.7573 17.7923C20.8739 17.7923 26.6445 13.7446 26.6445 9.19125C26.6445 4.64111 20.8772 0.947559 13.7573 0.947559Z" fill="#C5C5C5"/>
<path d="M9.56371 6.64407C9.55729 6.65695 9.43168 6.78575 9.51221 6.89202C9.71185 7.14642 10.3269 7.29132 10.9485 7.15286C11.3188 7.06913 11.7953 6.69237 12.2526 6.32526C12.7517 5.92919 13.2477 5.5331 13.7435 5.37531C14.2716 5.20786 14.6066 5.27871 14.832 5.34633C15.0767 5.4204 15.3633 5.5814 15.8238 5.92596C16.6868 6.57644 20.1614 9.60666 20.7635 10.1316C21.2466 9.91258 23.549 8.9819 26.4698 8.33788C26.2153 6.78253 25.2782 5.29803 23.8421 4.13232C21.8391 4.97278 19.2308 5.47513 16.8381 4.30943C16.8253 4.30621 15.5308 3.69115 14.2555 3.72335C12.3589 3.76844 11.5345 4.58958 10.6651 5.45903L9.56371 6.64407Z" fill="#F7F7F7"/>
<path d="M20.6222 10.4631C20.5803 10.4278 16.539 6.88875 15.6213 6.19963C15.0899 5.80355 14.7969 5.7005 14.4877 5.66186C14.3267 5.64254 14.1046 5.67152 13.9467 5.71338C13.5217 5.82931 12.9645 6.20286 12.4687 6.59572C11.9566 7.00468 11.4736 7.38788 11.026 7.48771C10.4528 7.61652 9.75404 7.46517 9.43521 7.24941C9.30647 7.16247 9.21623 7.06264 9.17116 6.9596C9.05204 6.68588 9.27102 6.46691 9.30639 6.43149L10.4239 5.22392C10.5526 5.09511 10.6846 4.9663 10.8167 4.8375C10.456 4.8858 10.1244 4.97596 9.79912 5.06613C9.39342 5.17883 9.00697 5.28832 8.61089 5.28832C8.44664 5.28832 7.56753 5.14341 7.40008 5.09833C6.38894 4.82139 5.24578 4.55411 3.92228 3.93584C2.33472 5.11765 1.30103 6.56674 0.995117 8.19293C1.22375 8.25412 1.81949 8.38936 1.97407 8.42478C5.56458 9.22342 6.68199 10.0445 6.88485 10.2184C7.10383 9.9737 7.42262 9.81914 7.77361 9.81914C8.1697 9.81914 8.53036 10.0188 8.74612 10.3279C8.95218 10.1669 9.23557 10.0252 9.60269 10.0252C9.77016 10.0252 9.94077 10.0574 10.1147 10.1154C10.5205 10.2539 10.7297 10.5243 10.836 10.7691C10.9712 10.7079 11.1387 10.6628 11.3351 10.6628C11.5284 10.6628 11.7312 10.7079 11.9309 10.7948C12.5943 11.0782 12.6973 11.7287 12.6361 12.2181C12.6844 12.2117 12.7295 12.2117 12.7778 12.2117C13.5635 12.2117 14.2011 12.8493 14.2011 13.6351C14.2011 13.8766 14.1399 14.1052 14.0304 14.3081C14.243 14.4272 14.7872 14.701 15.267 14.6398C15.647 14.5915 15.7951 14.4627 15.8466 14.3886C15.882 14.3371 15.9207 14.2791 15.8853 14.2372L14.8709 13.1134C14.8709 13.1134 14.7035 12.9556 14.7582 12.8944C14.8162 12.8332 14.9193 12.9201 14.9901 12.9813C15.5053 13.4129 16.1332 14.0601 16.1332 14.0601C16.1429 14.0666 16.1847 14.1502 16.4198 14.1921C16.6195 14.2276 16.9737 14.2082 17.2217 14.0054C17.2828 13.9538 17.344 13.8895 17.3988 13.8251C17.3956 13.8283 17.3923 13.8315 17.3859 13.8347C17.6467 13.503 17.3569 13.1682 17.3569 13.1682L16.1751 11.8414C16.1751 11.8414 16.0044 11.6836 16.0624 11.6224C16.1139 11.5677 16.2234 11.6514 16.2975 11.7126C16.671 12.0249 17.2024 12.5563 17.7079 13.0522C17.8077 13.1263 18.2521 13.4 18.8414 13.0136C19.1989 12.7785 19.2729 12.4887 19.2601 12.2729C19.2343 11.9863 19.0089 11.7802 19.0089 11.7802L17.3924 10.1572C17.3924 10.1572 17.2217 10.0124 17.2828 9.93825C17.3312 9.87705 17.4439 9.964 17.5147 10.0252C18.0299 10.4567 19.421 11.7319 19.421 11.7319C19.4404 11.7448 19.9234 12.0893 20.5159 11.7094C20.7285 11.5741 20.8637 11.3681 20.8765 11.1298C20.9152 10.7079 20.6222 10.4631 20.6222 10.4631Z" fill="#F7F7F7"/>
<path d="M12.7875 12.5209C12.5363 12.5177 12.2626 12.6659 12.2272 12.6465C12.2079 12.6336 12.2432 12.5338 12.2658 12.4759C12.2916 12.4179 12.6201 11.4261 11.815 11.0815C11.1999 10.8174 10.8232 11.1137 10.6944 11.249C10.6621 11.2844 10.6461 11.2811 10.6429 11.236C10.63 11.0557 10.5494 10.5727 10.0181 10.4117C9.25812 10.1798 8.77189 10.7079 8.64628 10.9012C8.59158 10.4696 8.22446 10.1316 7.77686 10.1316C7.29061 10.1316 6.89453 10.5244 6.89453 11.0107C6.89453 11.4969 7.28739 11.893 7.77686 11.893C8.01193 11.893 8.22769 11.7996 8.38548 11.6482C8.39192 11.6515 8.39192 11.6612 8.3887 11.6772C8.35006 11.8962 8.28244 12.6884 9.11326 13.0104C9.44493 13.1392 9.72832 13.0426 9.96341 12.8784C10.0342 12.8301 10.0439 12.8494 10.0342 12.917C10.0052 13.1199 10.0439 13.5578 10.6525 13.8025C11.1162 13.9925 11.3932 13.7993 11.5735 13.6319C11.6508 13.561 11.6733 13.5707 11.6765 13.6834C11.6991 14.2727 12.1885 14.7396 12.781 14.7428C13.3929 14.7428 13.8887 14.247 13.892 13.6351C13.8952 13.0169 13.3993 12.5274 12.7875 12.5209Z" fill="#F7F7F7"/>
<path d="M13.7569 0.610519C6.50505 0.610519 0.625 4.46831 0.625 9.19876C0.625 9.32116 0.625 9.65925 0.625 9.70112C0.625 14.7214 5.76441 18.7852 13.7569 18.7852C21.7978 18.7852 26.8888 14.7214 26.8888 9.70112C26.8888 9.52723 26.8888 9.42416 26.8888 9.19876C26.8888 4.46509 21.0088 0.610519 13.7569 0.610519ZM26.2963 8.24559C23.4433 8.87993 21.3147 9.8009 20.7801 10.0392C19.534 8.95083 16.6551 6.44873 15.8758 5.86265C15.4314 5.52775 15.1255 5.35064 14.8582 5.27014C14.7391 5.23471 14.5716 5.19285 14.3591 5.19285C14.1594 5.19285 13.9469 5.22827 13.7248 5.29912C13.2192 5.46012 12.7168 5.85621 12.2338 6.24263L12.208 6.26195C11.7572 6.62262 11.287 6.99294 10.9328 7.07344C10.7782 7.10887 10.6205 7.12496 10.4627 7.12496C10.0666 7.12496 9.70912 7.00904 9.5771 6.83836C9.55456 6.80938 9.57068 6.7643 9.62217 6.6999L9.62867 6.69024L10.7235 5.50843C11.5833 4.64864 12.3916 3.84037 14.2593 3.79529C14.2914 3.79529 14.3205 3.79529 14.3526 3.79529C15.5151 3.79529 16.6744 4.31696 16.8064 4.37492C17.8949 4.90625 19.0187 5.17675 20.149 5.17675C21.3244 5.17675 22.5384 4.88693 23.8104 4.30086C25.1436 5.42793 26.0259 6.77718 26.2963 8.24559ZM13.7569 1.11609C17.6051 1.11609 21.0507 2.22061 23.3659 3.95629C22.2453 4.43933 21.1795 4.68406 20.149 4.68406C19.096 4.68406 18.043 4.42966 17.019 3.93054C16.9642 3.90477 15.6826 3.29938 14.3494 3.29938C14.3141 3.29938 14.2786 3.29938 14.2432 3.29938C12.675 3.3348 11.7926 3.89189 11.2001 4.38136C10.6237 4.39424 10.1245 4.53593 9.68016 4.6583C9.28409 4.76779 8.94271 4.86439 8.61104 4.86439C8.4726 4.86439 8.22786 4.85151 8.20532 4.85151C7.82212 4.83863 5.90289 4.36848 4.37008 3.78885C6.68218 2.14977 10.0312 1.11609 13.7569 1.11609ZM3.91602 4.13341C5.51646 4.7871 7.46145 5.2959 8.07651 5.33454C8.24718 5.34742 8.43074 5.36674 8.61425 5.36674C9.02324 5.36674 9.42903 5.25403 9.82189 5.14133C10.0537 5.07693 10.3113 5.00608 10.5818 4.95456C10.511 5.0254 10.4369 5.09624 10.366 5.17031L9.25184 6.37466C9.16497 6.4616 8.97496 6.6999 9.10056 6.98971C9.14885 7.10564 9.25192 7.21835 9.39357 7.31496C9.65763 7.49206 10.1342 7.61443 10.5754 7.61443C10.7428 7.61443 10.9006 7.59833 11.0455 7.56613C11.5125 7.46308 12.0019 7.07022 12.5204 6.65804C12.9326 6.32958 13.5218 5.91418 13.9695 5.79181C14.0951 5.75639 14.2496 5.73706 14.3752 5.73706C14.4138 5.73706 14.446 5.73706 14.4783 5.7435C14.7745 5.78214 15.0611 5.88197 15.5763 6.26517C16.4909 6.95108 20.5354 10.4901 20.5741 10.5255C20.5773 10.5287 20.8349 10.7509 20.8156 11.1212C20.806 11.3273 20.69 11.5108 20.4935 11.6364C20.3196 11.7459 20.1425 11.8007 19.9622 11.8007C19.6918 11.8007 19.5049 11.6751 19.4921 11.6655C19.476 11.6526 18.0913 10.3838 17.5825 9.95555C17.502 9.88785 17.4215 9.82673 17.3442 9.82673C17.3024 9.82673 17.2637 9.84606 17.238 9.87502C17.1574 9.9748 17.2476 10.1101 17.3539 10.2003L18.9736 11.8264C18.9768 11.8297 19.1765 12.0165 19.199 12.2644C19.2119 12.5349 19.0831 12.7603 18.8159 12.9342C18.6258 13.0598 18.4326 13.1242 18.2427 13.1242C17.9947 13.1242 17.8208 13.0115 17.7822 12.9825L17.5503 12.7538C17.1253 12.3352 16.6873 11.9037 16.3653 11.6364C16.288 11.572 16.2043 11.5108 16.1238 11.5108C16.0851 11.5108 16.0497 11.5237 16.0207 11.556C15.9853 11.5978 15.9595 11.6687 16.0497 11.791C16.0851 11.8393 16.1302 11.8812 16.1302 11.8812L17.312 13.2079C17.3217 13.2208 17.5567 13.4977 17.3377 13.7747L17.2959 13.8262C17.2605 13.8648 17.2218 13.9003 17.1865 13.9324C16.9835 14.0966 16.7163 14.116 16.61 14.116C16.552 14.116 16.4973 14.1128 16.449 14.1031C16.333 14.0838 16.2526 14.0484 16.2171 14.0065L16.2011 13.9904C16.1367 13.9228 15.5409 13.3174 15.0482 12.9052C14.9838 12.8505 14.9033 12.7829 14.8196 12.7829C14.7778 12.7829 14.7423 12.7989 14.7134 12.8312C14.6167 12.9374 14.7616 13.0984 14.826 13.1564L15.834 14.2673C15.834 14.277 15.8211 14.2996 15.7953 14.3349C15.7599 14.3833 15.6375 14.5056 15.2704 14.5539C15.2253 14.5604 15.1803 14.5636 15.1352 14.5636C14.7584 14.5636 14.3559 14.38 14.1498 14.2705C14.2432 14.0709 14.2947 13.8519 14.2947 13.6329C14.2947 12.8021 13.6217 12.1292 12.7941 12.1292C12.778 12.1292 12.7587 12.1292 12.7394 12.1292C12.7651 11.7491 12.7136 11.0343 11.9762 10.7187C11.7636 10.6285 11.5544 10.5802 11.3482 10.5802C11.1872 10.5802 11.0327 10.6092 10.8877 10.664C10.7364 10.3677 10.482 10.152 10.1536 10.0392C9.96996 9.9748 9.78965 9.94584 9.61255 9.94584C9.30663 9.94584 9.02324 10.036 8.7721 10.2163C8.53059 9.91689 8.16668 9.73978 7.78347 9.73978C7.44857 9.73978 7.12656 9.87502 6.88505 10.1101C6.57269 9.87181 5.32646 9.07965 1.99679 8.32288C1.839 8.28745 1.47835 8.1844 1.24972 8.11679C1.55885 6.61939 2.5088 5.25403 3.91602 4.13341ZM10.0924 12.8021L10.0569 12.77H10.0215C9.9925 12.77 9.96034 12.7829 9.91847 12.8118C9.74778 12.9309 9.5868 12.9889 9.41932 12.9889C9.32916 12.9889 9.2358 12.9696 9.14236 12.9342C8.36954 12.6347 8.43074 11.9037 8.46939 11.6847C8.47581 11.6396 8.4629 11.6043 8.43716 11.5817L8.38243 11.5366L8.33091 11.5849C8.17956 11.7299 7.98312 11.8103 7.77703 11.8103C7.33586 11.8103 6.9752 11.4497 6.9752 11.0085C6.9752 10.5673 7.33586 10.2067 7.77703 10.2067C8.17634 10.2067 8.51768 10.5062 8.56597 10.9055L8.595 11.1212L8.71411 10.9376C8.72703 10.9151 9.0522 10.4257 9.64792 10.4257C9.76069 10.4257 9.8766 10.445 9.99571 10.4804C10.4691 10.6253 10.5496 11.0568 10.5625 11.2339C10.5722 11.337 10.6462 11.3434 10.6591 11.3434C10.701 11.3434 10.73 11.3177 10.7525 11.2951C10.8426 11.2017 11.0359 11.0471 11.3418 11.0471C11.4802 11.0471 11.6316 11.0794 11.783 11.147C12.5364 11.4722 12.1952 12.4286 12.1919 12.4383C12.1275 12.5961 12.1242 12.6669 12.1854 12.7088L12.2145 12.7217H12.237C12.2692 12.7217 12.3143 12.7088 12.3819 12.683C12.485 12.6476 12.6395 12.5929 12.7845 12.5929C13.3511 12.5993 13.8149 13.063 13.8149 13.6233C13.8149 14.1901 13.3511 14.6506 12.7845 14.6506C12.2305 14.6506 11.7765 14.219 11.7572 13.6684C11.7572 13.6201 11.7507 13.4945 11.6445 13.4945C11.6026 13.4945 11.564 13.5202 11.5189 13.5589C11.3965 13.6716 11.2419 13.7875 11.0133 13.7875C10.9103 13.7875 10.7976 13.765 10.6817 13.7167C10.0956 13.4784 10.0892 13.0759 10.1117 12.9149C10.1213 12.8827 10.1245 12.8376 10.0924 12.8021ZM13.7569 17.2718C6.78199 17.2718 1.13057 13.6555 1.13057 9.19235C1.13057 9.01196 1.14344 8.83485 1.15954 8.65775C1.21429 8.67066 1.76816 8.80269 1.88408 8.82843C5.28461 9.58522 6.40846 10.3709 6.59845 10.519C6.53404 10.6736 6.50184 10.8411 6.50184 11.0085C6.50184 11.7105 7.07181 12.2837 7.77703 12.2837C7.85432 12.2837 7.93483 12.2772 8.01211 12.2612C8.11838 12.7796 8.45648 13.1692 8.97496 13.3721C9.12631 13.4301 9.27767 13.459 9.42903 13.459C9.5256 13.459 9.62217 13.4462 9.71882 13.4237C9.8154 13.6652 10.028 13.9679 10.511 14.1643C10.6784 14.232 10.8491 14.2673 11.0101 14.2673C11.1422 14.2673 11.2742 14.2448 11.3997 14.1965C11.6284 14.7568 12.179 15.1304 12.7877 15.1304C13.1934 15.1304 13.5798 14.9661 13.8632 14.6731C14.1047 14.8083 14.6167 15.0531 15.1352 15.0531C15.2028 15.0531 15.264 15.0499 15.3284 15.0402C15.8404 14.9758 16.0819 14.7729 16.1914 14.6183C16.2107 14.5926 16.23 14.5636 16.2461 14.5314C16.3685 14.5668 16.5005 14.5958 16.6551 14.5958C16.9353 14.5958 17.2057 14.4992 17.4763 14.3028C17.7435 14.1095 17.9335 13.8326 17.9625 13.5976C17.9625 13.5944 17.9625 13.5911 17.9625 13.5879C18.0527 13.6072 18.146 13.6169 18.2362 13.6169C18.5261 13.6169 18.8094 13.5267 19.0799 13.3496C19.6048 13.0051 19.695 12.5574 19.6853 12.2644C19.7787 12.2837 19.8721 12.2934 19.9654 12.2934C20.236 12.2934 20.5032 12.2129 20.7576 12.0486C21.0828 11.8426 21.2793 11.5237 21.3083 11.1534C21.3276 10.9023 21.2664 10.6478 21.1344 10.4289C22.0103 10.0521 24.0132 9.32116 26.3704 8.78977C26.3801 8.9218 26.3865 9.05711 26.3865 9.19235C26.3865 13.6555 20.7318 17.2718 13.7569 17.2718Z" fill="#F7F7F7"/>
<path d="M71.9102 3.24997C71.4336 2.65102 70.7091 2.35476 69.7398 2.35476C68.7705 2.35476 68.0459 2.65424 67.5693 3.24997C67.0928 3.84571 66.8545 4.55415 66.8545 5.36886C66.8545 6.19645 67.0928 6.90489 67.5693 7.49419C68.0459 8.08348 68.7705 8.37652 69.7398 8.37652C70.7123 8.37652 71.4336 8.08026 71.9102 7.49419C72.3867 6.90489 72.625 6.19645 72.625 5.36886C72.625 4.55415 72.3867 3.84893 71.9102 3.24997ZM70.7283 6.67948C70.4965 6.9854 70.1648 7.13996 69.7333 7.13996C69.3019 7.13996 68.9701 6.9854 68.7351 6.67948C68.5032 6.37356 68.3873 5.93562 68.3873 5.36886C68.3873 4.8021 68.5032 4.36738 68.7351 4.06147C68.9669 3.75555 69.3019 3.6042 69.7333 3.6042C70.1681 3.6042 70.4965 3.75876 70.7283 4.06147C70.9602 4.36738 71.0761 4.8021 71.0761 5.36886C71.0761 5.93562 70.957 6.37356 70.7283 6.67948Z" fill="#F7F7F7"/>
<path d="M59.7217 2.75081C59.2386 2.50607 58.6848 2.38371 58.0632 2.38371C57.1069 2.38371 56.4306 2.63488 56.0378 3.13079C55.7898 3.44959 55.6513 3.85855 55.6191 4.35447H57.0489C57.0843 4.13549 57.1552 3.96161 57.2582 3.8328C57.4063 3.6589 57.6575 3.57196 58.0117 3.57196C58.3273 3.57196 58.5688 3.61704 58.7331 3.70399C58.894 3.79094 58.9778 3.95194 58.9778 4.1838C58.9778 4.37379 58.8715 4.51547 58.659 4.60564C58.5398 4.65717 58.3434 4.70224 58.0665 4.73445L57.5577 4.79563C56.9813 4.8697 56.5433 4.98884 56.2471 5.15951C55.7061 5.47188 55.4355 5.97422 55.4355 6.67301C55.4355 7.21078 55.603 7.62618 55.9412 7.91922C56.2761 8.21226 56.7043 8.33462 57.2196 8.36038C60.4559 8.5053 60.4172 6.6569 60.4462 6.27048V4.14194C60.4462 3.46248 60.2047 2.99876 59.7217 2.75081ZM58.9682 5.98067C58.9585 6.47657 58.8168 6.81791 58.5431 7.00468C58.2694 7.19145 57.9731 7.28484 57.6478 7.28484C57.4418 7.28484 57.2711 7.22687 57.1262 7.11417C56.9845 7.00146 56.9137 6.81791 56.9137 6.56352C56.9137 6.28014 57.0296 6.07083 57.2647 5.93558C57.4031 5.85507 57.6285 5.78745 57.9473 5.7327L58.2855 5.67153C58.4529 5.63932 58.5849 5.6039 58.6816 5.56848C58.7781 5.53305 58.8747 5.48475 58.9682 5.42679V5.98067Z" fill="#F7F7F7"/>
<path d="M52.3439 3.64929C52.7143 3.64929 52.9847 3.76521 53.1618 3.99062C53.281 4.15808 53.3583 4.35129 53.3872 4.5606H54.9813C54.8943 3.75555 54.6109 3.19202 54.1376 2.87644C53.661 2.56086 53.0492 2.39986 52.3021 2.39986C51.423 2.39986 50.7338 2.67035 50.2347 3.20812C49.7356 3.74911 49.4844 4.50264 49.4844 5.47191C49.4844 6.33171 49.7098 7.03048 50.1638 7.56826C50.6147 8.10603 51.3231 8.37652 52.2795 8.37652C53.2392 8.37652 53.9637 8.0545 54.4531 7.40725C54.7591 7.00795 54.9298 6.58288 54.9683 6.13205H53.3776C53.3454 6.42831 53.252 6.67304 53.0974 6.85981C52.9429 7.04659 52.6852 7.13997 52.3214 7.13997C51.8061 7.13997 51.4551 6.9049 51.2684 6.43475C51.1653 6.18358 51.1138 5.8519 51.1138 5.43649C51.1138 5.00177 51.1653 4.65399 51.2684 4.38993C51.4583 3.89724 51.8191 3.64929 52.3439 3.64929Z" fill="#F7F7F7"/>
<path d="M49.0568 2.40311C45.7786 2.40311 45.9719 5.30449 45.9719 5.30449V8.25097H47.4596V5.48483C47.4596 5.03078 47.5176 4.69588 47.6303 4.47691C47.8331 4.09049 48.2324 3.89727 48.8282 3.89727C48.8733 3.89727 48.9312 3.90049 49.0053 3.90371C49.0794 3.90693 49.1599 3.91338 49.2565 3.92626V2.41276C49.1921 2.40632 49.147 2.40632 49.1277 2.40311C49.1083 2.40311 49.0858 2.40311 49.0568 2.40311Z" fill="#F7F7F7"/>
<path d="M44.7798 3.50116C44.5222 3.12118 44.197 2.84102 43.8041 2.66391C43.4112 2.49002 42.9668 2.39986 42.4774 2.39986C41.6498 2.39986 40.9768 2.66069 40.4551 3.18236C39.9366 3.70403 39.6758 4.45434 39.6758 5.43327C39.6758 6.47983 39.9624 7.23336 40.5388 7.69706C41.112 8.16077 41.7786 8.39263 42.5289 8.39263C43.4402 8.39263 44.1486 8.11891 44.6542 7.56826C44.9279 7.27844 45.0986 6.99185 45.1695 6.71169H43.5916C43.5304 6.80185 43.4627 6.87592 43.3887 6.9371C43.1794 7.11099 42.8928 7.16252 42.5579 7.16252C42.2391 7.16252 41.9911 7.11421 41.7657 6.97253C41.3954 6.74389 41.1861 6.35747 41.1635 5.79072H45.2789C45.2854 5.30124 45.2692 4.9277 45.2307 4.67008C45.1597 4.2257 45.0117 3.83606 44.7798 3.50116ZM41.199 4.81499C41.2505 4.44789 41.3857 4.15485 41.5918 3.93911C41.8011 3.72335 42.0942 3.61709 42.4742 3.61709C42.8219 3.61709 43.1149 3.71691 43.35 3.92301C43.5851 4.12587 43.7172 4.42536 43.7429 4.81499H41.199Z" fill="#F7F7F7"/>
<path d="M36.7205 2.38371C36.0313 2.38371 35.4324 2.68641 35.0331 3.17266C34.6531 2.68641 34.0638 2.38371 33.3425 2.38371C31.8901 2.38371 30.9531 3.44959 30.9531 4.86326V8.25089H32.312V4.83105C32.312 4.20634 32.7339 3.77483 33.3425 3.77483C34.2377 3.77483 34.3311 4.5187 34.3311 4.83105V8.25089H35.69V4.83105C35.69 4.20634 36.1215 3.77483 36.7205 3.77483C37.6157 3.77483 37.7219 4.5187 37.7219 4.83105V8.25089H39.0809V4.86326C39.0776 3.40451 38.2049 2.38371 36.7205 2.38371Z" fill="#F7F7F7"/>
<path d="M64.8949 1.65921L64.8916 3.25321C64.7274 2.98593 64.5116 2.77661 64.2444 2.62849C63.9803 2.47714 63.6744 2.40307 63.333 2.40307C62.5892 2.40307 61.9967 2.68001 61.5523 3.23067C61.1079 3.78453 60.8857 4.57992 60.8857 5.54598C60.8857 6.38323 61.1111 7.06913 61.5619 7.60368C62.0128 8.13501 62.8983 8.37008 63.684 8.37008C66.4244 8.37008 66.3923 6.02257 66.3923 6.02257V0.61587C66.3923 0.61587 64.8949 0.454861 64.8949 1.65921ZM64.6082 6.69237C64.3925 7.00472 64.0705 7.1593 63.6551 7.1593C63.2365 7.1593 62.9241 7.00151 62.718 6.68915C62.5119 6.37679 62.4089 5.91952 62.4089 5.39785C62.4089 4.91482 62.5087 4.50908 62.7116 4.18062C62.9144 3.85538 63.23 3.69115 63.6615 3.69115C63.9449 3.69115 64.1929 3.78132 64.4086 3.96165C64.7564 4.2579 64.9335 4.79245 64.9335 5.4848C64.9367 5.97749 64.8272 6.38001 64.6082 6.69237Z" fill="#F7F7F7"/>
<path d="M34.096 10.5244C32.8724 10.4664 32.2508 10.7594 31.8483 11.0654C31.2912 11.4905 30.9531 12.1184 30.9531 13.1231V18.2947H31.6745C31.8677 18.2947 32.0609 18.2271 32.2026 18.0983C32.3603 17.9502 32.4409 17.773 32.4409 17.5637V15.6316C32.6148 15.9344 32.8466 16.1565 33.1397 16.3014C33.4165 16.4302 33.7354 16.4946 34.1025 16.4946C34.7884 16.4946 35.3487 16.2209 35.7867 15.6735C36.2246 15.11 36.4435 14.379 36.4435 13.4741C36.4435 12.595 36.2375 11.922 35.7415 11.3198C35.3358 10.8303 34.7272 10.5534 34.096 10.5244ZM34.6016 14.7654C34.3826 15.0681 34.0832 15.2194 33.7064 15.2194C33.2974 15.2194 32.9851 15.0681 32.7661 14.7654C32.5471 14.4917 32.4377 14.0827 32.4377 13.5353C32.4377 12.946 32.5406 12.5145 32.7436 12.2408C32.9625 11.938 33.2684 11.7867 33.6613 11.7867C34.0703 11.7867 34.3826 11.938 34.6016 12.2408C34.8205 12.5435 34.93 12.975 34.93 13.5353C34.93 14.057 34.8205 14.466 34.6016 14.7654Z" fill="#F7F7F7"/>
<path d="M46.8705 11.0589C46.3649 10.6757 45.8497 10.4761 44.9609 10.4986C44.0592 10.5243 43.4023 10.7755 42.9966 11.3294C42.5876 11.8833 42.3848 12.6046 42.3848 13.4933C42.3848 14.2565 42.5393 14.8684 42.8453 15.3386C43.1544 15.8055 43.5215 16.1243 43.953 16.2949C44.3813 16.4688 44.8128 16.5043 45.2508 16.4044C45.6887 16.3046 46.0332 16.0534 46.2908 15.6509V16.0148C46.2619 16.4753 46.1524 16.8198 45.9592 17.0517C45.7659 17.2803 45.5502 17.422 45.3152 17.4703C45.0801 17.5186 44.8418 17.4928 44.6067 17.3834C44.3684 17.2771 44.1945 17.1225 44.0818 16.9197H42.5136C42.9193 18.1401 43.6471 18.6779 44.9609 18.7744C47.0798 18.9258 47.7528 17.1321 47.7528 16.1661V13.1263C47.7528 12.1216 47.4244 11.4776 46.8705 11.0589ZM46.249 14.044C46.1911 14.3821 46.0976 14.6301 45.9688 14.7879C45.6983 15.1615 45.2733 15.2935 44.7033 15.1872C44.1301 15.0777 43.8435 14.5303 43.8435 13.5385C43.8435 13.078 43.9272 12.669 44.1011 12.3083C44.2718 11.9509 44.6003 11.7706 45.0897 11.7706C45.4471 11.7706 45.7209 11.8994 45.9044 12.157C46.0912 12.4146 46.2103 12.7109 46.2587 13.0425C46.3102 13.371 46.307 13.7059 46.249 14.044Z" fill="#F7F7F7"/>
<path d="M41.1119 10.9076C40.6289 10.6629 40.075 10.5405 39.4535 10.5405C38.4972 10.5405 37.8209 10.7885 37.428 11.2876C37.1801 11.6064 37.0416 12.0154 37.0094 12.5081H38.4392C38.4746 12.2891 38.5454 12.1152 38.6485 11.9896C38.7966 11.8157 39.0478 11.7288 39.402 11.7288C39.7208 11.7288 39.9591 11.7739 40.1233 11.8608C40.2843 11.9478 40.3681 12.1087 40.3681 12.3406C40.3681 12.5306 40.2618 12.6723 40.0493 12.7624C39.9301 12.8139 39.7337 12.8558 39.4567 12.8913L38.9511 12.9525C38.3747 13.0265 37.9368 13.1489 37.6406 13.3163C37.0996 13.6287 36.8291 14.1311 36.8291 14.8298C36.8291 15.3676 36.9965 15.783 37.3347 16.076C37.6695 16.3691 38.0978 16.4914 38.6131 16.5172C41.8461 16.6621 41.8107 14.8137 41.8397 14.4273V12.2988C41.8365 11.6193 41.5949 11.1556 41.1119 10.9076ZM40.3584 14.1375C40.3487 14.6334 40.2071 14.9747 39.9333 15.1615C39.6596 15.3483 39.3633 15.4416 39.0381 15.4416C38.832 15.4416 38.6613 15.3837 38.5165 15.271C38.3715 15.1582 38.3039 14.9747 38.3039 14.7203C38.3039 14.437 38.4198 14.2276 38.6549 14.0924C38.7934 14.0119 39.0188 13.9443 39.3344 13.8896L39.6725 13.8284C39.84 13.7961 39.972 13.764 40.0685 13.7253C40.1652 13.6898 40.2618 13.6416 40.3552 13.5836V14.1375H40.3584Z" fill="#F7F7F7"/>
<path d="M53.3783 11.3778C52.9017 10.7788 52.1772 10.4826 51.2047 10.4826C50.2354 10.4826 49.5109 10.782 49.0342 11.3778C48.5576 11.9735 48.3193 12.6787 48.3193 13.4934C48.3193 14.321 48.5576 15.0294 49.0342 15.6187C49.5109 16.2048 50.2354 16.501 51.2047 16.501C52.1772 16.501 52.8985 16.2048 53.3783 15.6187C53.8549 15.0294 54.0932 14.321 54.0932 13.4934C54.09 12.6787 53.8549 11.9735 53.3783 11.3778ZM52.1965 14.804C51.9646 15.11 51.633 15.2645 51.2014 15.2645C50.7699 15.2645 50.435 15.11 50.2032 14.804C49.9681 14.4981 49.8522 14.0602 49.8522 13.4966C49.8522 12.9298 49.9681 12.4952 50.2032 12.1893C50.435 11.8833 50.7699 11.732 51.2014 11.732C51.633 11.732 51.9646 11.8833 52.1965 12.1893C52.4283 12.4952 52.5442 12.9298 52.5442 13.4966C52.541 14.0602 52.4251 14.4981 52.1965 14.804Z" fill="#F7F7F7"/>
</g>
<defs>
<clipPath id="clip0_940_6179">
<rect width="72" height="18.7826" fill="white" transform="translate(0.625 0.608704)"/>
</clipPath>
</defs>
</svg>
