<svg width="88" height="32" viewBox="0 0 88 32" fill="none" xmlns="http://www.w3.org/2000/svg">
<path d="M35.9863 29.251V11.4728C35.9863 8.20157 38.6381 5.5498 41.9092 5.5498L47.1583 5.55771C50.4199 5.56419 53.0607 8.21013 53.0607 11.4719V15.256C53.0607 18.5272 50.4088 21.179 47.1377 21.179H39.7204" stroke="#9FABA1" stroke-miterlimit="10" stroke-linecap="round" stroke-linejoin="round"/>
<path d="M54.5276 5.54745H56.8045C58.147 5.54745 59.2351 6.6357 59.2351 7.97819V21.2586" stroke="#9FABA1" stroke-miterlimit="10" stroke-linecap="round" stroke-linejoin="round"/>
<path d="M58.7473 3.48995L57.7147 2.45725C57.4584 2.20106 57.4584 1.78561 57.7147 1.52942L58.7466 0.49737C59.0033 0.240786 59.4193 0.240786 59.6758 0.49737L60.7077 1.52942C60.964 1.78561 60.964 2.20106 60.7077 2.45725L59.6751 3.48995C59.4189 3.74614 59.0036 3.74614 58.7473 3.48995Z" fill="#32BCAD"/>
<path d="M63.604 5.53558H65.8621C67.0238 5.53558 68.1379 5.9971 68.9592 6.81838L74.2409 12.1001C74.925 12.7843 76.0343 12.7843 76.7185 12.1001L81.9809 6.83771C82.8023 6.01644 83.9162 5.55492 85.0779 5.55492H86.9139" stroke="#9FABA1" stroke-miterlimit="10" stroke-linecap="round" stroke-linejoin="round"/>
<path d="M63.604 21.1422H65.8621C67.0238 21.1422 68.1379 20.6807 68.9592 19.8594L74.2409 14.5777C74.925 13.8935 76.0343 13.8935 76.7185 14.5777L81.9809 19.8401C82.8023 20.6614 83.9162 21.1229 85.0779 21.1229H86.9139" stroke="#9FABA1" stroke-miterlimit="10" stroke-linecap="round" stroke-linejoin="round"/>
<path d="M22.524 24.5165C21.3907 24.5165 20.3248 24.0753 19.5233 23.2742L15.1907 18.9415C14.8865 18.6365 14.3564 18.6374 14.0523 18.9415L9.70383 23.2901C8.90241 24.0911 7.83648 24.5324 6.7032 24.5324H5.84937L11.3368 30.0197C13.0505 31.7334 15.829 31.7334 17.5428 30.0197L23.0458 24.5165H22.524Z" fill="#32BCAD"/>
<path d="M6.70295 9.19118C7.83623 9.19118 8.90216 9.63244 9.70358 10.4335L14.052 14.7827C14.3652 15.096 14.8765 15.0972 15.1905 14.7823L19.5231 10.4493C20.3245 9.6483 21.3904 9.20703 22.5237 9.20703H23.0456L17.5427 3.70403C15.8288 1.99022 13.0502 1.99022 11.3365 3.70403L5.84937 9.1912L6.70295 9.19118Z" fill="#32BCAD"/>
<path d="M27.5976 13.7587L24.2721 10.4333C24.1989 10.4626 24.1196 10.4809 24.0359 10.4809H22.5239C21.7422 10.4809 20.977 10.7979 20.4247 11.3507L16.0922 15.6833C15.6867 16.0888 15.154 16.2916 14.6217 16.2916C14.089 16.2916 13.5566 16.0888 13.1513 15.6837L8.80243 11.3349C8.25007 10.782 7.48486 10.4651 6.70316 10.4651H4.844C4.7647 10.4651 4.6906 10.4464 4.62065 10.42L1.28194 13.7587C-0.43187 15.4725 -0.43187 18.251 1.28194 19.9648L4.62051 23.3034C4.6906 23.277 4.7647 23.2583 4.844 23.2583H6.70316C7.48486 23.2583 8.25007 22.9414 8.80243 22.3886L13.1509 18.0402C13.9369 17.2549 15.307 17.2546 16.0922 18.0406L20.4247 22.3728C20.977 22.9255 21.7422 23.2426 22.5239 23.2426H24.0359C24.1196 23.2426 24.1989 23.2609 24.2721 23.2902L27.5976 19.9648C29.3113 18.251 29.3113 15.4725 27.5976 13.7587Z" fill="#32BCAD"/>
<path d="M40.5008 27.7398C40.2554 27.7398 39.9697 27.7988 39.6872 27.864V28.9473C39.8829 29.0188 40.1064 29.0532 40.3206 29.0532C40.8639 29.0532 41.1215 28.8699 41.1215 28.3914C41.1215 27.9416 40.9105 27.7398 40.5008 27.7398ZM39.5039 29.7517V27.6092H39.653L39.6686 27.7025C39.92 27.6435 40.2677 27.5659 40.5161 27.5659C40.7182 27.5659 40.9105 27.5966 41.0718 27.7272C41.2583 27.8795 41.3173 28.1246 41.3173 28.3914C41.3173 28.6714 41.2239 28.9351 40.9694 29.0808C40.7925 29.1802 40.5535 29.2206 40.3392 29.2206C40.1187 29.2206 39.9077 29.1864 39.6872 29.1213V29.7517H39.5039Z" fill="#9FABA1"/>
<path d="M42.681 27.7333C42.1376 27.7333 41.8954 27.9042 41.8954 28.3823C41.8954 28.8449 42.1345 29.0531 42.681 29.0531C43.2212 29.0531 43.4634 28.8853 43.4634 28.4071C43.4634 27.9446 43.2244 27.7333 42.681 27.7333ZM43.3795 29.0531C43.1994 29.1832 42.9573 29.2206 42.681 29.2206C42.3985 29.2206 42.1562 29.1803 41.9793 29.0531C41.7806 28.9134 41.6997 28.6834 41.6997 28.3949C41.6997 28.109 41.7806 27.8764 41.9793 27.7333C42.1562 27.6062 42.3985 27.5657 42.681 27.5657C42.9603 27.5657 43.1994 27.6062 43.3795 27.7333C43.5815 27.8764 43.6589 28.109 43.6589 28.3914C43.6589 28.6805 43.5782 28.9134 43.3795 29.0531Z" fill="#9FABA1"/>
<path d="M45.9514 29.1773L45.3459 27.8765H45.3333L44.7374 29.1773H44.5728L43.927 27.6092H44.1288L44.666 28.9256H44.6785L45.262 27.6092H45.4297L46.029 28.9256H46.0415L46.5662 27.6092H46.7617L46.116 29.1773H45.9514Z" fill="#9FABA1"/>
<path d="M47.9331 27.7302C47.4302 27.7302 47.2594 27.9537 47.2282 28.2768H48.638C48.6225 27.9198 48.4391 27.7302 47.9331 27.7302ZM47.927 29.2205C47.6256 29.2205 47.4302 29.1771 47.275 29.0466C47.0917 28.8882 47.0295 28.6587 47.0295 28.3948C47.0295 28.1433 47.1135 27.8763 47.3216 27.7241C47.4953 27.6031 47.7096 27.5657 47.9331 27.5657C48.1351 27.5657 48.3679 27.5874 48.5602 27.718C48.7869 27.87 48.8306 28.1372 48.8306 28.4413H47.2221C47.2282 28.764 47.3339 29.05 47.9423 29.05C48.2312 29.05 48.5013 29.0032 48.7528 28.9598V29.1242C48.4919 29.171 48.2032 29.2205 47.927 29.2205Z" fill="#9FABA1"/>
<path d="M49.356 29.1771V27.6091H49.5049L49.5207 27.7024C49.8528 27.6187 50.008 27.5657 50.2999 27.5657H50.3217V27.7396H50.2781C50.0329 27.7396 49.8839 27.7736 49.5394 27.8639V29.1771H49.356Z" fill="#9FABA1"/>
<path d="M51.386 27.7302C50.8831 27.7302 50.7123 27.9537 50.6811 28.2768H52.0909C52.0754 27.9198 51.892 27.7302 51.386 27.7302ZM51.3799 29.2205C51.0785 29.2205 50.8831 29.1771 50.7278 29.0466C50.5445 28.8882 50.4824 28.6587 50.4824 28.3948C50.4824 28.1433 50.5664 27.8763 50.7744 27.7241C50.9482 27.6031 51.1625 27.5657 51.386 27.5657C51.5879 27.5657 51.8208 27.5874 52.0131 27.718C52.2398 27.87 52.2834 28.1372 52.2834 28.4413H50.675C50.6811 28.764 50.7868 29.05 51.3952 29.05C51.684 29.05 51.9541 29.0032 52.2057 28.9598V29.1242C51.9448 29.171 51.6561 29.2205 51.3799 29.2205Z" fill="#9FABA1"/>
<path d="M54.2898 27.8391C54.0942 27.7676 53.8707 27.7333 53.6564 27.7333C53.1131 27.7333 52.8552 27.9168 52.8552 28.3948C52.8552 28.8479 53.0664 29.0466 53.4761 29.0466C53.7216 29.0466 54.0072 28.9876 54.2898 28.9255V27.8391ZM54.324 29.1772L54.3085 29.0839C54.0569 29.1429 53.7091 29.2207 53.4607 29.2207C53.2592 29.2207 53.0664 29.1927 52.905 29.0592C52.7187 28.907 52.6597 28.6617 52.6597 28.3948C52.6597 28.1154 52.7528 27.8513 53.0074 27.7085C53.1844 27.6061 53.4234 27.5658 53.6408 27.5658C53.8582 27.5658 54.0694 27.6032 54.2898 27.6652V26.948H54.473V29.1772H54.324Z" fill="#9FABA1"/>
<path d="M57.1592 27.7397C56.9138 27.7397 56.6282 27.7987 56.3456 27.8639V28.9442C56.5445 29.0187 56.7648 29.0531 56.9791 29.0531C57.5224 29.0531 57.78 28.8699 57.78 28.3913C57.78 27.9415 57.569 27.7397 57.1592 27.7397ZM57.628 29.0808C57.451 29.1802 57.2119 29.2205 56.9977 29.2205C56.7648 29.2205 56.532 29.1802 56.296 29.1026L56.2867 29.1772H56.1624V26.9479H56.3456V27.696C56.5971 27.6404 56.9355 27.5658 57.1746 27.5658C57.3766 27.5658 57.569 27.5965 57.7303 27.7271C57.9168 27.8795 57.9757 28.1245 57.9757 28.3913C57.9757 28.6713 57.8824 28.935 57.628 29.0808Z" fill="#9FABA1"/>
<path d="M58.219 29.7795V29.6089C58.309 29.618 58.393 29.6245 58.452 29.6245C58.6787 29.6245 58.8151 29.5591 58.9424 29.3013L59.0015 29.1773L58.1819 27.6092H58.393L59.0948 28.9628H59.1071L59.7746 27.6092H59.9827L59.1009 29.3699C58.9394 29.6896 58.7655 29.795 58.4457 29.795C58.3742 29.795 58.2968 29.7889 58.219 29.7795Z" fill="#9FABA1"/>
<path d="M62.5071 28.2829H61.8987V28.8327H62.5101C62.9293 28.8327 63.0878 28.7858 63.0878 28.5562C63.0878 28.3107 62.8705 28.2829 62.5071 28.2829ZM62.3955 27.3918H61.8987V27.9505H62.3985C62.8115 27.9505 62.9759 27.9011 62.9759 27.6681C62.9759 27.42 62.768 27.3918 62.3955 27.3918ZM63.3393 29.0283C63.1156 29.171 62.8455 29.1771 62.3519 29.1771H61.4236V27.0504H62.3303C62.7556 27.0504 63.0163 27.0565 63.2337 27.187C63.389 27.2802 63.451 27.423 63.451 27.6092C63.451 27.8326 63.358 27.9818 63.1156 28.0812V28.0934C63.389 28.1559 63.5659 28.2955 63.5659 28.5966C63.5659 28.8014 63.4914 28.935 63.3393 29.0283Z" fill="#9FABA1"/>
<path d="M65.4235 28.519C65.2401 28.5033 65.054 28.4942 64.8584 28.4942C64.5386 28.4942 64.4266 28.5594 64.4266 28.7051C64.4266 28.8418 64.5199 28.9164 64.7651 28.9164C64.97 28.9164 65.2153 28.8699 65.4235 28.8231V28.519ZM65.5165 29.1772L65.5041 29.084C65.237 29.1494 64.9267 29.2206 64.6533 29.2206C64.4855 29.2206 64.3056 29.1988 64.1782 29.1056C64.0605 29.0219 64.0044 28.8853 64.0044 28.7269C64.0044 28.5498 64.0821 28.3853 64.2682 28.3016C64.4328 28.224 64.6533 28.2179 64.8553 28.2179C65.0197 28.2179 65.2401 28.227 65.4234 28.2396V28.2114C65.4234 27.9663 65.2619 27.8856 64.821 27.8856C64.6502 27.8856 64.4421 27.8946 64.2434 27.9133V27.5966C64.4638 27.5784 64.7124 27.5657 64.9173 27.5657C65.1904 27.5657 65.4732 27.5875 65.6469 27.7116C65.8268 27.8391 65.8612 28.0161 65.8612 28.2487V29.1771L65.5165 29.1772Z" fill="#9FABA1"/>
<path d="M67.9084 29.1771V28.3107C67.9084 28.0253 67.7627 27.9228 67.5017 27.9228C67.3093 27.9228 67.0671 27.9724 66.8621 28.0222V29.1771H66.4243V27.6091H66.7814L66.7969 27.7085C67.0731 27.6372 67.3807 27.5657 67.6353 27.5657C67.8277 27.5657 68.0234 27.5935 68.1724 27.7272C68.2964 27.8391 68.3432 27.994 68.3432 28.2178V29.1771H67.9084Z" fill="#9FABA1"/>
<path d="M69.58 29.2206C69.3782 29.2206 69.1575 29.1928 68.9962 29.0562C68.8037 28.9008 68.7478 28.6557 68.7478 28.3914C68.7478 28.1433 68.8285 27.8731 69.0676 27.7211C69.2633 27.5936 69.5054 27.5659 69.7569 27.5659C69.937 27.5659 70.1141 27.5783 70.3095 27.5966V27.932C70.151 27.9168 69.9617 27.9042 69.8097 27.9042C69.3935 27.9042 69.198 28.0348 69.198 28.3949C69.198 28.7334 69.3439 28.8791 69.6854 28.8791C69.8841 28.8791 70.1172 28.8419 70.3438 28.7984V29.1212C70.0984 29.1712 69.8314 29.2206 69.58 29.2206Z" fill="#9FABA1"/>
<path d="M71.637 27.8947C71.2209 27.8947 71.0376 28.0253 71.0376 28.3823C71.0376 28.7395 71.2178 28.8917 71.637 28.8917C72.0498 28.8917 72.2298 28.7642 72.2298 28.4071C72.2298 28.0501 72.0531 27.8947 71.637 27.8947ZM72.3883 29.0562C72.1958 29.1863 71.9443 29.2206 71.637 29.2206C71.3233 29.2206 71.0719 29.1834 70.8825 29.0562C70.6652 28.9134 70.5874 28.6775 70.5874 28.3949C70.5874 28.1121 70.6652 27.8731 70.8825 27.7303C71.0719 27.6031 71.3233 27.5659 71.637 27.5659C71.9476 27.5659 72.1958 27.6031 72.3883 27.7303C72.6057 27.8731 72.6802 28.1121 72.6802 28.3915C72.6802 28.6744 72.6026 28.9134 72.3883 29.0562Z" fill="#9FABA1"/>
<path d="M75.2075 29.2206C74.9437 29.2206 74.6581 29.1773 74.4437 29.0003C74.1892 28.789 74.1116 28.4631 74.1116 28.112C74.1116 27.7987 74.2108 27.4261 74.5431 27.2088C74.8007 27.0413 75.1205 27.007 75.4434 27.007C75.6796 27.007 75.9217 27.0226 76.1857 27.0443V27.4261C75.9589 27.4074 75.6796 27.3918 75.4622 27.3918C74.8567 27.3918 74.599 27.6218 74.599 28.112C74.599 28.6123 74.838 28.8358 75.2852 28.8358C75.577 28.8358 75.903 28.7768 76.2321 28.7083V29.087C75.903 29.1525 75.5583 29.2206 75.2075 29.2206Z" fill="#9FABA1"/>
<path d="M77.5187 27.8452C77.1553 27.8452 77.0155 27.9757 76.9876 28.2148H78.0434C78.0308 27.9601 77.8818 27.8452 77.5187 27.8452ZM77.4532 29.2206C77.1956 29.2206 76.9628 29.1897 76.7889 29.0466C76.6026 28.8916 76.5374 28.6587 76.5374 28.3914C76.5374 28.1524 76.6151 27.8855 76.8325 27.7302C77.0248 27.5936 77.2702 27.5657 77.5187 27.5657C77.7421 27.5657 78.0061 27.5905 78.1985 27.7241C78.4501 27.9011 78.4718 28.1744 78.4748 28.4972H76.9846C76.9938 28.7364 77.1211 28.8916 77.562 28.8916C77.8352 28.8916 78.1394 28.8513 78.3973 28.8109V29.1182C78.0961 29.1681 77.7669 29.2206 77.4532 29.2206Z" fill="#9FABA1"/>
<path d="M80.4226 29.1771V28.3107C80.4226 28.0253 80.2768 27.9228 80.0158 27.9228C79.8233 27.9228 79.5813 27.9724 79.3762 28.0222V29.1771H78.9385V27.6091H79.2955L79.3111 27.7085C79.5873 27.6372 79.8949 27.5657 80.1495 27.5657C80.3418 27.5657 80.5375 27.5935 80.6865 27.7272C80.8106 27.8391 80.8573 27.994 80.8573 28.2178V29.1771H80.4226Z" fill="#9FABA1"/>
<path d="M82.1037 29.2206C81.8926 29.2206 81.7 29.1615 81.5945 28.9971C81.5169 28.8852 81.4795 28.7334 81.4795 28.5221V27.9351H81.1628V27.6092H81.4795L81.5262 27.134H81.9143V27.6092H82.5321V27.9351H81.9143V28.4382C81.9143 28.5593 81.9235 28.6617 81.9577 28.7364C82.0043 28.8419 82.1066 28.8821 82.2433 28.8821C82.3457 28.8821 82.4701 28.8665 82.5569 28.8514V29.1646C82.4141 29.1928 82.2494 29.2206 82.1037 29.2206Z" fill="#9FABA1"/>
<path d="M82.959 29.1771V27.6091H83.3161L83.3317 27.7085C83.6205 27.6278 83.8346 27.5657 84.108 27.5657C84.1203 27.5657 84.139 27.5657 84.1636 27.5687V27.9414C84.1139 27.9385 84.055 27.9385 84.0115 27.9385C83.7973 27.9385 83.6359 27.9631 83.3967 28.0192V29.1771L82.959 29.1771Z" fill="#9FABA1"/>
<path d="M85.7555 28.519C85.5722 28.5033 85.386 28.4942 85.1904 28.4942C84.8706 28.4942 84.7586 28.5594 84.7586 28.7051C84.7586 28.8418 84.8519 28.9164 85.0971 28.9164C85.3022 28.9164 85.5473 28.8699 85.7555 28.8231V28.519ZM85.8486 29.1772L85.8362 29.084C85.5691 29.1494 85.2587 29.2206 84.9854 29.2206C84.8177 29.2206 84.6377 29.1988 84.5102 29.1056C84.3925 29.0219 84.3364 28.8853 84.3364 28.7269C84.3364 28.5498 84.4142 28.3853 84.6004 28.3016C84.765 28.224 84.9853 28.2179 85.1873 28.2179C85.3519 28.2179 85.5722 28.227 85.7555 28.2396V28.2114C85.7555 27.9663 85.5939 27.8856 85.153 27.8856C84.9824 27.8856 84.7742 27.8946 84.5755 27.9133V27.5966C84.7959 27.5784 85.0444 27.5657 85.2495 27.5657C85.5225 27.5657 85.8052 27.5875 85.979 27.7116C86.159 27.8391 86.1933 28.0161 86.1933 28.2487V29.1771L85.8486 29.1772Z" fill="#9FABA1"/>
<path d="M86.7563 26.948H87.1941V29.1772H86.7563V26.948Z" fill="#9FABA1"/>
</svg>
