<svg width="73" height="18" viewBox="0 0 73 18" fill="none" xmlns="http://www.w3.org/2000/svg">
<g clip-path="url(#clip0_940_6198)">
<path fill-rule="evenodd" clip-rule="evenodd" d="M56.1832 7.96758C55.9673 9.4032 54.8838 9.4032 53.836 9.4032H53.2397L53.658 6.72285C53.6832 6.5609 53.8212 6.44155 53.9834 6.44155H54.2567C54.9698 6.44155 55.6437 6.44155 55.9911 6.8528C56.1989 7.09887 56.2617 7.46357 56.1832 7.96758ZM55.7271 4.22224H51.7752C51.505 4.22224 51.275 4.42122 51.2329 4.69138L49.635 14.9463C49.6034 15.1485 49.7579 15.3315 49.9604 15.3315H51.9879C52.1771 15.3315 52.3382 15.1922 52.3675 15.0031L52.8207 12.0959C52.8628 11.8258 53.0928 11.6268 53.363 11.6268H54.6135C57.2166 11.6268 58.7188 10.3519 59.1115 7.82522C59.2882 6.72015 59.1186 5.85181 58.6072 5.24391C58.0453 4.57562 57.0492 4.22224 55.7271 4.22224Z" fill="#C5C5C5"/>
<path fill-rule="evenodd" clip-rule="evenodd" d="M27.9967 7.96758C27.7807 9.4032 26.6973 9.4032 25.6496 9.4032H25.0533L25.4714 6.72285C25.4968 6.5609 25.6348 6.44155 25.7968 6.44155H26.0701C26.7834 6.44155 27.4573 6.44155 27.8045 6.8528C28.0125 7.09887 28.0753 7.46357 27.9967 7.96758ZM27.5407 4.22224H23.5888C23.3186 4.22224 23.0886 4.42122 23.0465 4.69138L21.4484 14.9463C21.417 15.1485 21.5715 15.3315 21.7738 15.3315H23.6607C23.9308 15.3315 24.161 15.1325 24.2031 14.8626L24.6344 12.0959C24.6763 11.8258 24.9064 11.6268 25.1766 11.6268H26.4271C29.03 11.6268 30.5324 10.3519 30.9251 7.82522C31.1018 6.72015 30.9322 5.85181 30.4208 5.24391C29.8587 4.57562 28.8627 4.22224 27.5407 4.22224Z" fill="#F7F7F7"/>
<path fill-rule="evenodd" clip-rule="evenodd" d="M36.7152 11.6491C36.5325 12.7434 35.6741 13.478 34.5793 13.478C34.0305 13.478 33.5911 13.2993 33.3087 12.9611C33.0288 12.6256 32.9235 12.1479 33.0121 11.6158C33.1826 10.5314 34.0546 9.77311 35.1327 9.77311C35.6702 9.77311 36.1064 9.95357 36.3945 10.2949C36.6843 10.6388 36.7982 11.1198 36.7152 11.6491ZM39.3524 7.92174H37.4601C37.298 7.92174 37.16 8.04091 37.1347 8.20322L37.0514 8.73868L36.9191 8.54455C36.5094 7.94259 35.5961 7.74146 34.6841 7.74146C32.5935 7.74146 30.8076 9.34477 30.46 11.5936C30.279 12.7153 30.5359 13.7873 31.1644 14.5356C31.7418 15.2231 32.5659 15.5093 33.5478 15.5093C35.2329 15.5093 36.1675 14.4137 36.1675 14.4137L36.0829 14.946C36.0513 15.1484 36.2058 15.3315 36.4083 15.3315H38.1125C38.3826 15.3315 38.6126 15.1327 38.6547 14.8626L39.6777 8.30693C39.7094 8.10454 39.5548 7.92174 39.3524 7.92174Z" fill="#F7F7F7"/>
<path fill-rule="evenodd" clip-rule="evenodd" d="M64.9007 11.6491C64.7179 12.7434 63.8597 13.478 62.7649 13.478C62.216 13.478 61.7767 13.2993 61.4942 12.9611C61.2142 12.6256 61.1089 12.1479 61.1977 11.6158C61.368 10.5314 62.2401 9.77311 63.3184 9.77311C63.8556 9.77311 64.292 9.95357 64.5799 10.2949C64.8698 10.6388 64.9836 11.1198 64.9007 11.6491ZM67.5378 7.92174H65.6456C65.4834 7.92174 65.3454 8.04091 65.3202 8.20322L65.2369 8.73868L65.1048 8.54455C64.6948 7.94259 63.7816 7.74146 62.8696 7.74146C60.7791 7.74146 58.9931 9.34477 58.6455 11.5936C58.4647 12.7153 58.7215 13.7873 59.3499 14.5356C59.9275 15.2231 60.7514 15.5093 61.7332 15.5093C63.4184 15.5093 64.3529 14.4137 64.3529 14.4137L64.2686 14.946C64.2368 15.1484 64.3913 15.3315 64.594 15.3315H66.2979C66.5681 15.3315 66.7981 15.1327 66.8403 14.8626L67.8632 8.30693C67.8948 8.10454 67.7403 7.92174 67.5378 7.92174Z" fill="#C5C5C5"/>
<mask id="mask0_940_6198" style="mask-type:alpha" maskUnits="userSpaceOnUse" x="0" y="0" width="73" height="18">
<path d="M0.389648 17.9231H72.249V0.275955H0.389648V17.9231Z" fill="white"/>
</mask>
<g mask="url(#mask0_940_6198)">
<path fill-rule="evenodd" clip-rule="evenodd" d="M49.4314 7.92174H47.5294C47.3475 7.92174 47.1773 8.01305 47.0752 8.16529L44.4516 12.076L43.3396 8.31807C43.2701 8.08297 43.0563 7.92174 42.8137 7.92174H40.944C40.7183 7.92174 40.5593 8.14642 40.6321 8.36265L42.7265 14.584L40.7566 17.397C40.6019 17.6177 40.758 17.9231 41.0253 17.9231H42.9256C43.1057 17.9231 43.2742 17.8337 43.3769 17.6838L49.7022 8.44515C49.8535 8.22407 49.6973 7.92174 49.4314 7.92174Z" fill="#F7F7F7"/>
<path fill-rule="evenodd" clip-rule="evenodd" d="M69.7686 4.5039L68.1467 14.9463C68.1152 15.1487 68.2697 15.3315 68.472 15.3315H70.1034C70.3735 15.3315 70.6035 15.1325 70.6456 14.8626L72.2448 4.60762C72.2764 4.40522 72.1219 4.22224 71.9194 4.22224H70.0939C69.9318 4.22224 69.7938 4.34177 69.7686 4.5039Z" fill="#C5C5C5"/>
<path fill-rule="evenodd" clip-rule="evenodd" d="M7.86531 17.196L8.39654 13.787L8.43082 13.5981C8.45639 13.4338 8.53951 13.2835 8.66473 13.1753C8.78994 13.0671 8.94961 13.0074 9.11425 13.0074H9.53607C10.2392 13.0074 10.8852 12.9314 11.4562 12.7815C12.0654 12.6217 12.6073 12.3727 13.0666 12.0422C13.5536 11.6917 13.9626 11.2386 14.2825 10.6957C14.6199 10.1231 14.8677 9.43357 15.019 8.64665C15.1528 7.95176 15.1778 7.32966 15.0938 6.79744C15.0048 6.2352 14.7908 5.75546 14.4578 5.37117C14.2558 5.1384 13.9974 4.93673 13.6898 4.77172L13.6825 4.76777L13.6823 4.75878C13.7898 4.06515 13.7857 3.48655 13.6701 2.98848C13.5539 2.48933 13.3188 2.04015 12.9506 1.61559C12.1878 0.73592 10.8003 0.289795 8.82688 0.289795H3.40716C3.226 0.289795 3.05016 0.355402 2.91234 0.474572C2.77452 0.593743 2.68323 0.759287 2.65481 0.940469L0.398114 15.423C0.377512 15.5551 0.414987 15.6894 0.50095 15.7908C0.586912 15.8927 0.711949 15.9511 0.844089 15.9511H4.2064L4.20338 15.9673L3.97249 17.4491C3.95473 17.5643 3.98741 17.6811 4.06218 17.7696C4.13695 17.8582 4.24583 17.9092 4.36092 17.9092H7.18098C7.33923 17.9092 7.49251 17.8519 7.61275 17.7478C7.73299 17.6438 7.81292 17.4994 7.8376 17.3414L7.86531 17.196Z" fill="#F7F7F7"/>
<path fill-rule="evenodd" clip-rule="evenodd" d="M5.93337 4.77765C5.96907 4.54812 6.11453 4.36029 6.31043 4.2652C6.39959 4.22206 6.49905 4.19798 6.60331 4.19798H10.8515C11.3549 4.19798 11.8241 4.23141 12.2532 4.30133C12.3758 4.32128 12.4949 4.34429 12.6109 4.37035C12.7269 4.39641 12.8393 4.42535 12.9482 4.45771C13.0027 4.47371 13.0562 4.4906 13.1089 4.5084C13.3196 4.57922 13.5157 4.66262 13.6961 4.75932C13.9089 3.38661 13.6947 2.45248 12.961 1.60642C12.1532 0.674988 10.694 0.275955 8.82697 0.275955H3.40724C3.02574 0.275955 2.7009 0.556896 2.6414 0.938313L0.384702 15.4209C0.340122 15.7066 0.558403 15.9649 0.844175 15.9649H4.18997L5.93337 4.77765Z" fill="#F7F7F7"/>
</g>
<path fill-rule="evenodd" clip-rule="evenodd" d="M13.6962 4.75932C13.68 4.86411 13.6621 4.9707 13.6408 5.08052C12.9262 8.79422 10.4809 10.0781 7.35786 10.0781H5.76756C5.38605 10.0781 5.06387 10.3593 5.00437 10.7407L3.95915 17.4471C3.92025 17.697 4.11118 17.9231 4.36108 17.9231H7.18132C7.51505 17.9231 7.79922 17.6774 7.85126 17.3436L7.87897 17.1985L8.4102 13.7891L8.44447 13.6008C8.49651 13.267 8.78069 13.0213 9.11441 13.0213H9.53623C12.2684 13.0213 14.4077 11.8979 15.0329 8.64917C15.2939 7.29174 15.159 6.15863 14.4682 5.362C14.2594 5.12114 13.9994 4.92181 13.6962 4.75932Z" fill="#C5C5C5"/>
<path fill-rule="evenodd" clip-rule="evenodd" d="M12.9488 4.45771C12.8399 4.42536 12.7275 4.39642 12.6115 4.37035C12.4955 4.34429 12.3763 4.32128 12.2538 4.30133C11.8247 4.23141 11.3555 4.19798 10.8521 4.19798H6.60389C6.49964 4.19798 6.40018 4.22206 6.31102 4.2652C6.11511 4.36029 5.96965 4.54812 5.93395 4.77765L5.03099 10.5715L5.00488 10.7407C5.06438 10.3593 5.38656 10.0781 5.76807 10.0781H7.35837C10.4814 10.0781 12.9268 8.79422 13.6413 5.08052C13.6626 4.9707 13.6805 4.86411 13.6967 4.75932C13.5162 4.66262 13.3202 4.57922 13.1095 4.5084C13.0568 4.4906 13.0033 4.47371 12.9488 4.45771Z" fill="#747474"/>
</g>
<defs>
<clipPath id="clip0_940_6198">
<rect width="72" height="17.8462" fill="white" transform="translate(0.375 0.0769234)"/>
</clipPath>
</defs>
</svg>
