<svg width="20" height="20" viewBox="0 0 20 20" fill="none" xmlns="http://www.w3.org/2000/svg">
<path d="M7.13257 12.5801V6.96654C7.13257 6.49155 7.6441 6.18209 8.06196 6.41238L13.1989 9.21195C13.6383 9.44945 13.6383 10.0756 13.1989 10.3131L8.06917 13.1342C7.6513 13.3645 7.13257 13.0623 7.13257 12.5801Z" fill="#17A246"/>
<path d="M9.66143 19.3955C4.66143 19.3955 0.59082 15.3293 0.59082 10.3347C0.59082 8.22598 1.3329 6.17489 2.67295 4.5628C2.93952 4.23894 3.22771 3.93667 3.5303 3.66319C3.85451 3.36812 4.20754 3.08745 4.56777 2.83556L4.63261 2.92192C2.55768 4.61317 1.37612 7.11047 1.37612 9.76611C1.37612 14.6384 5.34586 18.6038 10.2234 18.6038C12.8963 18.6038 15.3963 17.4163 17.0822 15.3365L17.1686 15.4012C16.9237 15.7683 16.6427 16.1209 16.3473 16.4448C16.0663 16.747 15.7637 17.0349 15.4467 17.3012C13.8257 18.6542 11.7724 19.3955 9.66143 19.3955Z" fill="#E0E0E0"/>
<path d="M4.60368 2.88593C2.6008 4.51961 1.32559 7.00252 1.32559 9.7733C1.32559 14.6743 5.31694 18.6614 10.2233 18.6614C13.0043 18.6614 15.4971 17.3804 17.1253 15.3724C16.8803 15.7395 16.6066 16.0849 16.304 16.4088C16.023 16.711 15.7276 16.9989 15.4106 17.258C13.8472 18.5534 11.8443 19.3307 9.66132 19.3307C4.68293 19.3379 0.648352 15.3077 0.648352 10.3347C0.648352 8.15401 1.42645 6.1533 2.71608 4.59878C2.97544 4.28212 3.26363 3.97985 3.56622 3.70637C3.89043 3.4041 4.23625 3.13062 4.60368 2.88593ZM4.53884 2.79237C4.17141 3.04426 3.81838 3.32494 3.49417 3.62001C3.19158 3.89349 2.9034 4.19576 2.63682 4.52681C1.28236 6.1533 0.540283 8.21879 0.540283 10.3347C0.540283 15.358 4.6325 19.453 9.66132 19.453C11.7867 19.453 13.8544 18.7046 15.4826 17.3588C15.8069 17.0925 16.1094 16.8046 16.3904 16.4951C16.693 16.1713 16.9668 15.8186 17.219 15.4444L17.0388 15.3077C15.3602 17.3732 12.8746 18.5534 10.2233 18.5534C5.37458 18.5534 1.43365 14.6168 1.43365 9.7733C1.43365 7.13206 2.61521 4.64916 4.67573 2.97229L4.53884 2.79237Z" fill="#E0E0E0"/>
<path d="M13.2061 10.3131L8.06917 13.1342C7.6513 13.3645 7.13257 13.0623 7.13257 12.5801V6.96654C7.13257 6.49155 7.6441 6.18209 8.06196 6.41238L13.1989 9.21195C13.6455 9.44945 13.6455 10.0756 13.2061 10.3131Z" fill="#17A246"/>
<path d="M10.2234 18.9421C5.15851 18.9421 1.04468 14.8255 1.04468 9.7733C1.04468 7.90213 1.60664 6.09572 2.67292 4.5628C4.39482 2.07989 7.21182 0.604538 10.2234 0.604538C15.2882 0.604538 19.402 4.72113 19.402 9.7733C19.402 12.7744 17.9251 15.5955 15.4395 17.3084C13.9049 18.3807 12.1038 18.9421 10.2234 18.9421ZM10.2234 0.942789C8.19165 0.942789 6.21038 1.64808 4.63978 2.92912C2.56485 4.62037 1.38329 7.11767 1.38329 9.7733C1.38329 14.6456 5.35304 18.611 10.2306 18.611C12.9035 18.611 15.4035 17.4235 17.0893 15.3437C18.3718 13.7675 19.0706 11.7956 19.0706 9.7733C19.0706 4.90105 15.1009 0.942789 10.2234 0.942789Z" fill="#E0E0E0"/>
<path d="M10.2234 0.662116C15.2522 0.662116 19.3444 4.74992 19.3444 9.7805C19.3444 12.8823 17.7882 15.6243 15.4107 17.2724C13.9337 18.2944 12.147 18.8989 10.2234 18.8989C5.19455 18.8989 1.09513 14.8111 1.09513 9.7805C1.09513 7.85895 1.69311 6.07413 2.71617 4.59878C4.36602 2.21663 7.11818 0.662116 10.2234 0.662116ZM10.2234 18.6614C13.0043 18.6614 15.4971 17.3804 17.1254 15.3724L17.1326 15.3652C18.379 13.8395 19.1211 11.8892 19.1211 9.77331C19.1211 4.87226 15.1297 0.885218 10.2234 0.885218C8.09081 0.885218 6.13836 1.63369 4.60377 2.88594C2.60089 4.51962 1.32568 7.00253 1.32568 9.77331C1.32568 14.6743 5.31703 18.6614 10.2234 18.6614ZM10.2234 0.546967C7.19743 0.546967 4.35882 2.03671 2.62971 4.53401C1.55622 6.08133 0.987061 7.89493 0.987061 9.77331C0.987061 14.8615 5.12971 18.9996 10.2234 18.9996C12.111 18.9996 13.9265 18.4311 15.4755 17.3588C17.9683 15.6315 19.4597 12.796 19.4597 9.77331C19.4597 4.68515 15.317 0.546967 10.2234 0.546967ZM10.2234 18.5534C5.37467 18.5534 1.43375 14.6168 1.43375 9.77331C1.43375 7.13207 2.6153 4.64916 4.67582 2.9723C6.23922 1.69846 8.20608 1.00037 10.2234 1.00037C15.0721 1.00037 19.013 4.93703 19.013 9.7805C19.013 11.7884 18.3141 13.746 17.0461 15.3077L17.0317 15.3221C15.3531 17.3732 12.8747 18.5534 10.2234 18.5534Z" fill="#E0E0E0"/>
<path d="M13.2061 10.3131L8.06917 13.1342C7.6513 13.3645 7.13257 13.0623 7.13257 12.5801V6.96654C7.13257 6.49155 7.6441 6.18209 8.06196 6.41238L13.1989 9.21195C13.6455 9.44945 13.6455 10.0756 13.2061 10.3131Z" fill="#17A246"/>
</svg>
