<svg id="SvgjsSvg1421" width="288" height="288" xmlns="http://www.w3.org/2000/svg" version="1.1" xmlns:xlink="http://www.w3.org/1999/xlink" xmlns:svgjs="http://svgjs.com/svgjs"><defs id="SvgjsDefs1422"></defs><g id="SvgjsG1423"><svg xmlns="http://www.w3.org/2000/svg" viewBox="0 0 32 32" width="288" height="288"><g transform="translate(0 -1020.362)" fill="#000000" class="color000 svgShape"><circle cx="657.054" cy="437.094" r="15.268" fill="#17a246" fill-rule="evenodd" transform="translate(-672.561 578.308) scale(1.04795)" class="colorf37a5d svgShape"></circle><path fill="#0d5c28" d="M16.68 1052.329a16 16 0 0 0 .918-.047 16 16 0 0 0 1.58-.238 16 16 0 0 0 1.55-.397 16 16 0 0 0 1.502-.549 16 16 0 0 0 1.44-.695 16 16 0 0 0 1.365-.836 16 16 0 0 0 1.272-.967 16 16 0 0 0 1.172-1.092 16 16 0 0 0 1.054-1.2 16 16 0 0 0 .93-1.301 16 16 0 0 0 .797-1.387 16 16 0 0 0 .652-1.461 16 16 0 0 0 .504-1.518 16 16 0 0 0 .352-1.56 16 16 0 0 0 .043-.362L20.6 1027.51c-.352-.352-.747-.22-1.153-.264-.021-.002-.043-.009-.064-.012l-1.074-1.074-.004-.006-.01-.008-.04-.039c-.006-.006-.02-.008-.026-.014a.706.706 0 0 0-.282-.144c-.702-.156-.86.469-1.562.469-.615 0-.871-.48-1.344-.494-.067 0-.14 0-.219.025-.624.156-.545.858-1.092 1.17-.624.312-1.094-.078-1.562.39-.468.469-.077 1.015-.389 1.561s-1.015.391-1.172 1.094c-.156.702.47.858.47 1.56 0 .703-.626.936-.47 1.56a.76.76 0 0 0 .08.2c.013.021.03.037.043.057.023.031.044.065.07.092l.012.01 1.083 1.083c.065.428-.096.844.273 1.213l.908.908c-.02-.003-.041-.015-.06-.017-.132-.015-.256-.01-.38-.01l-2.83 8.637 6.874 6.873z" class="colorf35c4b svgShape"></path><path fill="#ffffff" d="M15.04 1025.923c-.067 0-.139 0-.217.025-.624.156-.545.858-1.092 1.17-.624.313-1.094-.078-1.562.39-.469.469-.078 1.015-.39 1.561-.312.547-1.015.392-1.171 1.094-.156.703.469.858.469 1.56 0 .703-.625.937-.47 1.562.157.624.86.547 1.172 1.093.312.547-.079 1.093.39 1.561.468.469.938.078 1.562.39.547.312.39 1.015 1.092 1.171.703.156.858-.467 1.561-.467s.938.623 1.562.467c.625-.234.468-.859 1.093-1.171.546-.312 1.092.079 1.56-.39.469-.468.08-1.014.392-1.56.312-.547 1.015-.47 1.17-1.094.157-.703-.468-.859-.468-1.561 0-.703.625-.936.469-1.561-.156-.625-.859-.547-1.171-1.094-.312-.546.077-1.092-.392-1.56-.468-.469-1.014-.078-1.56-.39-.547-.313-.468-1.015-1.093-1.171-.702-.156-.86.468-1.562.468-.615 0-.871-.478-1.344-.493zm1.344 2.577c.429 0 .841.09 1.217.253a3.248 3.248 0 0 1 1.003 5.251 3.188 3.188 0 0 1-1.003.69 3.059 3.059 0 0 1-2.432 0 3.188 3.188 0 0 1-1.004-.69 3.255 3.255 0 0 1-.936-2.28 3.242 3.242 0 0 1 1.94-2.97 3.05 3.05 0 0 1 1.215-.254zm-3.748 8.319-2.83 8.636c1.011.337 1.601-1.178 2.443-.926.674.253.505 1.852 1.431 2.19l2.13-6.499-.673-2.125c-.157.065-.287.17-.523.118-.379-.083-.526-.316-.653-.568-.126-.253-.231-.526-.526-.695-.298-.148-.553-.133-.8-.131zm6.893.069c-.123.02-.243-.01-.367.062-.337.168-.464.42-.59.663-.127.242-.252.474-.59.6-.336.084-.568-.043-.81-.19-.242-.148-.495-.317-.873-.317-.31 0-.496.137-.69.259l2.795 8.837c.926-.253.757-1.937 1.43-2.106.843-.252 1.433 1.263 2.36.926-.297-1.406-2.158-7.157-2.665-8.735z" class="colorfff svgShape"></path></g></svg></g></svg>