<svg width="25" height="26" viewBox="0 0 25 26" fill="none" xmlns="http://www.w3.org/2000/svg">
<g clip-path="url(#clip0_1987_172523)">
<path d="M20.2895 13.1758L17.9165 12.3115C17.8432 12.2822 17.7553 12.2676 17.6675 12.2676H2.4624C2.0522 12.2676 1.72998 12.5898 1.72998 13V23.3027C1.72998 24.5185 2.71138 25.5 3.92725 25.5H18.5757C19.7916 25.5 20.7729 24.5185 20.7729 23.3027V13.8642C20.7729 13.5566 20.5825 13.2783 20.2895 13.1758Z" fill="#1EC355"/>
<path d="M20.7729 13.8642V23.3027C20.7729 24.5185 19.7916 25.5 18.5757 25.5H11.2515V12.2676H17.6675C17.7554 12.2676 17.8433 12.2822 17.9165 12.3115L20.2895 13.1758C20.5825 13.2783 20.7729 13.5566 20.7729 13.8642Z" fill="#1AB14C"/>
<path d="M20.5095 5.2748C20.2605 4.26406 19.5134 3.47309 18.5027 3.15077C17.5066 2.84311 16.4372 3.06288 15.6609 3.76596L13.9616 5.26015L13.6247 3.01899C13.4636 1.9936 12.8044 1.12929 11.823 0.719181C11.6326 0.64589 11.4422 0.587296 11.2517 0.557999C10.4461 0.396866 9.61111 0.572647 8.93724 1.07074C8.04368 1.71527 7.58963 2.79926 7.73607 3.8832C7.89725 4.96718 8.62967 5.89003 9.66966 6.25624L11.2517 6.82753L13.2 7.54531H13.2146L16.5984 8.79038C16.9353 8.90761 17.2868 8.96626 17.6238 8.96626C18.3416 8.96626 19.0447 8.70249 19.6013 8.20449C20.4216 7.47206 20.7732 6.34409 20.5095 5.2748Z" fill="#FE9923"/>
<path d="M19.6011 8.20464C19.0444 8.70264 18.3413 8.96641 17.6235 8.96641C17.2866 8.96641 16.9351 8.90777 16.5981 8.79053L13.2144 7.54546H13.1997L11.2515 6.82769V0.558105C11.4419 0.587451 11.6323 0.645996 11.8228 0.719287C12.8042 1.12939 13.4634 1.9937 13.6245 3.01909L13.9613 5.26026L15.6606 3.76607C16.4369 3.06299 17.5063 2.84321 18.5024 3.15088C19.5131 3.4732 20.2602 4.26416 20.5092 5.27491C20.773 6.34424 20.4214 7.47222 19.6011 8.20464Z" fill="#FE8821"/>
<path d="M23.278 11.9307L22.2819 14.6846C22.1646 14.9776 21.8863 15.1534 21.5933 15.1534C21.5055 15.1534 21.4176 15.1387 21.3444 15.1095L13.7711 12.3555L13.0827 10.085L11.2516 10.4951L9.64032 10.8614L2.06703 8.10745C1.68617 7.96102 1.49579 7.53616 1.62757 7.16995L2.63832 4.41614C2.82875 3.8595 3.23895 3.41995 3.76629 3.17098C4.29364 2.922 4.89418 2.89265 5.45082 3.09773L11.2516 5.20711L11.6472 5.35354C11.6472 5.35354 13.2292 8.22469 13.2732 8.22469C13.3025 8.22469 13.9324 7.87313 14.5476 7.53616C15.1627 7.19925 15.778 6.84773 15.778 6.84773L21.9596 9.10355C22.5162 9.30862 22.9557 9.71883 23.2046 10.2462C23.4537 10.7735 23.483 11.3741 23.278 11.9307Z" fill="#39ED75"/>
<path d="M23.2778 11.9306L22.2817 14.6845C22.1645 14.9775 21.8862 15.1533 21.5932 15.1533C21.5053 15.1533 21.4174 15.1386 21.3442 15.1094L13.7709 12.3555L13.0825 10.085L11.2515 10.4951V5.20703L11.647 5.35347C11.647 5.35347 13.229 8.22461 13.273 8.22461C13.3023 8.22461 13.9322 7.87304 14.5474 7.53608C15.1625 7.19917 15.7778 6.84765 15.7778 6.84765L21.9594 9.10346C22.5161 9.30854 22.9555 9.71874 23.2045 10.2461C23.4536 10.7734 23.4829 11.374 23.2778 11.9306Z" fill="#1EC355"/>
<path d="M9.0542 12.2676V25.5H13.4487V12.2676H9.0542ZM11.647 5.35352L11.2514 6.4375L9.64014 10.8614L11.2514 11.4474L13.0825 12.1065L13.7709 12.3555L15.7778 6.8477L11.647 5.35352Z" fill="#FCBF29"/>
<path d="M11.2517 12.2676H13.4489V25.5H11.2517V12.2676ZM15.7778 6.8477L13.7709 12.3555L13.0825 12.1065L11.2515 11.4473V6.4375L11.647 5.35352L15.7778 6.8477Z" fill="#FE9923"/>
</g>
<defs>
<clipPath id="clip0_1987_172523">
<rect width="25" height="25" fill="white" transform="translate(0 0.5)"/>
</clipPath>
</defs>
</svg>
