<svg width="18" height="19" viewBox="0 0 18 19" fill="none" xmlns="http://www.w3.org/2000/svg">
<g clip-path="url(#clip0_434_1830)">
<path d="M16.66 10.7413H13.8475V1.93822C13.8475 1.66052 13.6361 1.43835 13.3717 1.43835H5.54229C5.27796 1.43835 5.06649 1.66052 5.06649 1.93822V10.7413H2.24874C1.98441 10.7413 1.77295 10.9635 1.77295 11.2412V17.0618C1.77295 17.3395 1.98441 17.5617 2.24874 17.5617H16.66C16.9243 17.5617 17.1358 17.3395 17.1358 17.0618V11.2412C17.1358 10.969 16.919 10.7413 16.66 10.7413ZM12.8906 2.43808V13.6572H6.01808V2.43808H12.8906ZM16.1842 16.5619H2.72454V11.741H5.06121V13.6516H4.17835C3.91402 13.6516 3.70255 13.8738 3.70255 14.1515C3.70255 14.4292 3.91402 14.6514 4.17835 14.6514H14.7304C14.9947 14.6514 15.2062 14.4292 15.2062 14.1515C15.2062 13.8738 14.9947 13.6516 14.7304 13.6516H13.8475V11.741H16.1842V16.5619Z" fill="#F7F7F7"/>
<path d="M8.05861 7.97542C8.21192 8.08095 8.3811 8.16981 8.57141 8.24201C8.73001 8.29755 8.88861 8.35309 9.04721 8.40308V10.2748C8.92561 10.2581 8.8146 10.2248 8.71944 10.1804C8.56084 10.1026 8.43396 10.0026 8.34409 9.87489C8.31766 9.83601 8.29122 9.80269 8.27008 9.76381C8.1802 9.60275 7.99517 9.5361 7.83129 9.59719C7.61983 9.6805 7.52995 9.94709 7.64626 10.147C7.69384 10.2248 7.75199 10.3026 7.81543 10.3748C7.97931 10.558 8.19078 10.7024 8.44982 10.808C8.62956 10.8802 8.83045 10.9246 9.04192 10.9468V11.2634C9.04192 11.3856 9.13708 11.4911 9.25867 11.4911C9.37497 11.4911 9.47542 11.3911 9.47542 11.2634V10.9524C9.7979 10.9357 10.0728 10.8691 10.2948 10.7413C10.5539 10.5969 10.7495 10.4025 10.8764 10.1637C11.0032 9.92488 11.0667 9.65829 11.0667 9.36948C11.0667 9.09733 11.0191 8.87517 10.9187 8.69744C10.8182 8.51971 10.6913 8.36976 10.5275 8.24757C10.3689 8.13093 10.1891 8.03096 9.98822 7.9532C9.81905 7.88656 9.64459 7.82546 9.47013 7.76437V6.07595C9.56529 6.09261 9.66045 6.11483 9.74503 6.1537C9.88777 6.2148 10.0094 6.29811 10.0992 6.39808C10.1257 6.42585 10.1468 6.45362 10.168 6.48139C10.2631 6.61469 10.427 6.66467 10.575 6.60913C10.8024 6.52027 10.8817 6.22035 10.7283 6.02041C10.6913 5.97598 10.6543 5.93154 10.612 5.88711C10.4587 5.72605 10.2631 5.60386 10.0358 5.52055C9.86134 5.4539 9.67102 5.41502 9.46485 5.39836V5.08733C9.46485 4.96515 9.36969 4.85962 9.2481 4.85962C9.13179 4.85962 9.03135 4.95959 9.03135 5.08733V5.40391C8.78288 5.42613 8.56084 5.48167 8.35995 5.57609C8.10091 5.69828 7.90002 5.876 7.75728 6.10372C7.61454 6.33143 7.54053 6.60358 7.54053 6.92016C7.54053 7.17564 7.58282 7.38669 7.67269 7.55332C7.78371 7.73104 7.9053 7.86434 8.05861 7.97542ZM9.48071 8.54748C9.58115 8.58636 9.67102 8.62524 9.76089 8.66967C9.93535 8.75298 10.0728 8.85851 10.1785 8.9807C10.279 9.10288 10.3318 9.2584 10.3318 9.44168C10.3318 9.66939 10.2473 9.86934 10.0834 10.036C9.94593 10.1748 9.74504 10.2581 9.48599 10.2803V8.54748H9.48071ZM8.43396 6.42585C8.51855 6.30366 8.63485 6.2148 8.78288 6.14815C8.86746 6.10927 8.95733 6.08706 9.05249 6.07039V7.61441C8.98377 7.58664 8.91504 7.56442 8.84631 7.53665C8.68243 7.47 8.55027 7.38114 8.44982 7.28117C8.34938 7.17564 8.3018 7.03679 8.3018 6.85351C8.3018 6.68689 8.34409 6.54804 8.43396 6.42585Z" fill="#F7F7F7"/>
</g>
<defs>
<clipPath id="clip0_434_1830">
<rect width="17" height="18" fill="white" transform="translate(0.95459 0.5)"/>
</clipPath>
</defs>
</svg>
