<svg width="34" height="18" viewBox="0 0 34 18" fill="none" xmlns="http://www.w3.org/2000/svg">
<path d="M7.44236 13.1384C8.26959 13.1384 8.9402 11.8199 8.9402 10.1934C8.9402 8.56697 8.26959 7.24847 7.44236 7.24847C6.61512 7.24847 5.94452 8.56697 5.94452 10.1934C5.94452 11.8199 6.61512 13.1384 7.44236 13.1384Z" fill="#1EC355"/>
<path d="M31.7406 0.634216C31.6931 0.634216 31.6455 0.646091 31.6099 0.669841L6.76475 6.96347C4.411 6.97535 2.22368 7.9847 0.916046 9.67092C0.678294 9.97967 0.678294 10.4072 0.916046 10.7159C2.22368 12.4021 4.42289 13.4234 6.77664 13.4234L31.491 17.2827L31.5861 17.2945C31.6455 17.3302 31.6931 17.342 31.7525 17.342C32.5965 17.342 33.286 13.6015 33.286 8.98218C33.2741 4.37477 32.5846 0.634216 31.7406 0.634216ZM1.26079 10.4428C1.14191 10.3003 1.14191 10.0984 1.26079 9.94404C2.4971 8.35282 4.56554 7.40284 6.78852 7.40284C9.01151 7.40284 11.08 8.35282 12.3163 9.94404C12.4351 10.0865 12.4351 10.2884 12.3163 10.4428C11.08 12.034 9.01151 12.984 6.78852 12.984C4.56554 12.984 2.4971 12.034 1.26079 10.4428ZM8.51223 13.2452C10.1884 12.8771 11.6743 11.9865 12.661 10.7159C12.8988 10.4072 12.8988 9.97967 12.661 9.67092C11.603 8.30532 9.96252 7.37909 8.13182 7.07034L31.17 1.2517C30.6113 2.48668 30.2071 5.491 30.2071 9.00593C30.2071 12.5565 30.6113 15.5846 31.1819 16.7958L8.51223 13.2452Z" fill="#E0E0E0"/>
</svg>
