<svg width="18" height="18" viewBox="0 0 18 18" fill="none" xmlns="http://www.w3.org/2000/svg">
<path d="M17.9009 17.3152L14.0903 13.5052C16.9614 10.3303 16.8669 5.42886 13.8069 2.36939C10.6471 -0.789796 5.52958 -0.789796 2.36982 2.36939C-0.789939 5.52857 -0.789939 10.6452 2.36982 13.8044C5.42985 16.8638 10.3322 16.9583 13.5077 14.0878L17.3183 17.8977C17.4548 18.0341 17.67 18.0341 17.8064 17.8977L17.9062 17.798C18.0321 17.6668 18.0321 17.4464 17.9009 17.3152ZM8.08573 15.3525C6.14893 15.3525 4.32236 14.5968 2.94718 13.2219C1.57201 11.8469 0.816183 10.0207 0.816183 8.08426C0.816183 6.13732 1.57201 4.31633 2.94193 2.94665C4.31186 1.57697 6.13843 0.821283 8.08048 0.821283C10.0173 0.821283 11.8438 1.57697 13.219 2.9519C14.5942 4.32682 15.3448 6.14781 15.35 8.0895C15.35 10.0259 14.5942 11.8522 13.219 13.2271C11.8438 14.602 10.0278 15.3472 8.08573 15.3525Z" fill="#17A246"/>
</svg>
