<svg width="16" height="20" viewBox="0 0 16 20" fill="none" xmlns="http://www.w3.org/2000/svg">
<path d="M10.1149 0V5H15.1724L10.1149 0ZM8.85057 5V0H1.89655C0.849102 0 0 0.839453 0 1.875V18.125C0 19.1602 0.849102 20 1.89655 20H13.2759C14.3233 20 15.1724 19.1605 15.1724 18.125V6.25H10.1505C9.41559 6.25 8.85057 5.69141 8.85057 5ZM11.3833 13.4414C11.2331 13.6602 10.9921 13.75 10.7471 13.75C10.5022 13.75 10.2619 13.6584 10.0766 13.4754L8.53448 11.9492V15.9375C8.53448 16.4551 8.10973 16.875 7.58621 16.875C7.06268 16.875 6.63793 16.4551 6.63793 15.9375V11.9492L5.0958 13.4738C4.72538 13.84 4.12539 13.84 3.75478 13.4738C3.38416 13.1076 3.38436 12.5145 3.75478 12.148L6.9157 9.02305C7.28612 8.65684 7.8861 8.65684 8.25672 9.02305L11.4176 12.148C11.7863 12.5156 11.7863 13.1094 11.3833 13.4414Z" fill="#C5C5C5"/>
</svg>
