<svg id="magicoon-Filled" height="512" viewBox="0 0 512 512" width="512" xmlns="http://www.w3.org/2000/svg"><g id="copy-Filled"><path id="copy-Filled-2" d="m234.667 416h121.6a84.861 84.861 0 0 1 -78.934 53.333h-149.333a85.309 85.309 0 0 1 -85.333-85.333v-170.667a85.483 85.483 0 0 1 74.666-84.692v170.026c0 64.64 52.693 117.333 117.334 117.333zm181.333-282.667h45.227a34.9 34.9 0 0 0 -4.481-5.333l-72.746-72.75a24.606 24.606 0 0 0 -5.333-4.26v45.01a37.512 37.512 0 0 0 37.333 37.333zm0 32a69.467 69.467 0 0 1 -69.333-69.333v-53.333h-112a85.31 85.31 0 0 0 -85.334 85.333v170.667a85.311 85.311 0 0 0 85.334 85.333h149.333a85.31 85.31 0 0 0 85.333-85.333v-133.334z" data-name="copy-Filled"/></g></svg>