<svg enable-background="new 0 0 512 512" height="512" viewBox="0 0 512 512" width="512" xmlns="http://www.w3.org/2000/svg"><g id="_x31_9_Mail"><g><path d="m478.746 199.445c0-.078 0-.078-.078-.156l-59.123-51.938v-56.624c0-17.495-14.215-31.787-31.709-31.787h-68.729l-57.953-50.922c-2.967-2.577-7.342-2.577-10.309 0l-57.951 50.922h-68.729c-17.495 0-31.709 14.292-31.709 31.787v56.624l-59.123 51.938c-.078.078-.078.078-.078.156-1.64 1.406-2.655 3.436-2.655 5.701v247.894c0 29.132 23.743 52.875 52.874 52.875h345.053c29.132 0 52.874-23.743 52.874-52.875v-247.894c0-2.265-1.015-4.295-2.655-5.701zm-370.67-108.718c0-8.903 7.185-16.167 16.089-16.167h263.671c8.904 0 16.089 7.263 16.089 16.167v165.185l-147.925 130.117-147.924-130.117zm357.705 362.313c0 20.541-16.714 37.255-37.254 37.255h-345.054c-20.54 0-37.254-16.714-37.254-37.255v-230.633c41.785 36.707 199.081 175.025 204.627 179.945 1.484 1.249 3.28 1.953 5.154 1.953s3.671-.703 5.154-1.953c9.45-8.357 161.592-142.145 204.626-179.946v230.634z"/><path d="m158.831 140.105h194.339c4.317 0 7.81-3.493 7.81-7.81s-3.493-7.81-7.81-7.81h-194.339c-4.317 0-7.81 3.493-7.81 7.81s3.493 7.81 7.81 7.81z"/><path d="m158.831 194.517h194.339c4.317 0 7.81-3.493 7.81-7.81s-3.493-7.81-7.81-7.81h-194.339c-4.317 0-7.81 3.493-7.81 7.81s3.493 7.81 7.81 7.81z"/><path d="m310.282 241.118c0-4.317-3.493-7.81-7.81-7.81h-143.641c-4.317 0-7.81 3.493-7.81 7.81s3.493 7.81 7.81 7.81h143.641c4.317.001 7.81-3.493 7.81-7.81z"/></g></g></svg>