<svg id="Capa_1" enable-background="new 0 0 512 512" height="512" viewBox="0 0 512 512" width="512" xmlns="http://www.w3.org/2000/svg"><path d="m339.586 231.839c-7.658 0-14.49 3.585-18.92 9.161h-26.845c-4.136-10.391-12.43-18.685-22.821-22.821v-26.845c5.576-4.43 9.161-11.262 9.161-18.92 0-13.322-10.839-24.161-24.161-24.161s-24.161 10.839-24.161 24.161c0 7.658 3.586 14.49 9.161 18.92v26.845c-10.391 4.136-18.685 12.43-22.821 22.821h-26.845c-4.43-5.576-11.262-9.161-18.92-9.161-13.322 0-24.161 10.839-24.161 24.161s10.839 24.161 24.161 24.161c7.658 0 14.49-3.585 18.92-9.161h26.845c4.136 10.391 12.43 18.685 22.821 22.821v26.845c-5.576 4.43-9.161 11.262-9.161 18.92 0 13.322 10.839 24.161 24.161 24.161s24.161-10.839 24.161-24.161c0-7.658-3.586-14.49-9.161-18.92v-26.845c10.391-4.136 18.685-12.43 22.821-22.821h26.845c4.43 5.576 11.262 9.161 18.92 9.161 13.322 0 24.161-10.839 24.161-24.161s-10.839-24.161-24.161-24.161zm-83.586 34.859c-5.899 0-10.698-4.799-10.698-10.698s4.799-10.698 10.698-10.698 10.698 4.799 10.698 10.698-4.799 10.698-10.698 10.698z"/><path d="m437.02 74.98c-48.353-48.351-112.64-74.98-181.02-74.98s-132.667 26.629-181.02 74.98c-48.351 48.353-74.98 112.64-74.98 181.02s26.629 132.667 74.98 181.02c48.353 48.351 112.64 74.98 181.02 74.98s132.667-26.629 181.02-74.98c48.351-48.353 74.98-112.64 74.98-181.02s-26.629-132.667-74.98-181.02zm-300.529 321.742c11.008 9.363 23.119 17.463 36.116 24.067l-15.678 38.45c-17.833-8.711-34.558-19.826-49.774-33.181zm63.883 35.428c12.985 4.11 26.586 6.82 40.626 7.953v41.395c-19.355-1.26-38.24-4.941-56.295-10.92zm70.626 7.953c14.742-1.19 28.998-4.123 42.568-8.585l16.091 38.247c-18.77 6.45-38.456 10.417-58.659 11.733zm70.206-20.252c12.311-6.428 23.809-14.203 34.303-23.128l29.336 29.335c-14.577 12.795-30.534 23.546-47.529 32.085zm-85.206-9.136c-85.31 0-154.714-69.404-154.714-154.715 0-85.31 69.405-154.714 154.714-154.714s154.714 69.404 154.714 154.714c0 85.311-69.404 154.715-154.714 154.715zm-184.103-169.715h-41.395c1.26-19.355 4.941-38.24 10.92-56.295l38.428 15.669c-4.109 12.985-6.819 26.586-7.953 40.626zm0 30c1.19 14.742 4.123 28.998 8.585 42.568l-38.248 16.091c-6.45-18.77-10.418-38.456-11.733-58.659zm303.612-155.721c-11.008-9.363-23.12-17.463-36.117-24.067l15.678-38.452c17.833 8.712 34.559 19.826 49.775 33.182zm-63.882-35.428c-12.986-4.11-26.586-6.82-40.627-7.953v-41.396c19.355 1.26 38.24 4.941 56.296 10.92zm-70.627-7.953c-14.742 1.19-28.998 4.123-42.568 8.585l-16.091-38.248c18.77-6.45 38.456-10.418 58.659-11.733zm-70.206 20.253c-12.311 6.428-23.809 14.203-34.303 23.128l-29.336-29.336c14.577-12.795 30.534-23.546 47.529-32.085zm269.309 178.849h41.395c-1.26 19.355-4.941 38.24-10.921 56.296l-38.428-15.67c4.11-12.985 6.82-26.586 7.954-40.626zm0-30c-1.19-14.742-4.123-28.998-8.585-42.568l38.248-16.09c6.45 18.77 10.417 38.456 11.733 58.658zm18.04-86.315-38.293 16.11c-6.428-12.311-14.203-23.81-23.128-34.303l29.336-29.336c12.795 14.577 23.546 30.534 32.085 47.529zm-372.201-47.529 29.336 29.336c-9.363 11.008-17.463 23.119-24.067 36.117l-38.451-15.679c8.712-17.834 19.827-34.559 33.182-49.774zm-32.085 250.16 38.293-16.11c6.428 12.311 14.203 23.81 23.129 34.304l-29.336 29.335c-12.795-14.577-23.547-30.534-32.086-47.529zm372.2 47.529-29.336-29.335c9.363-11.008 17.463-23.12 24.067-36.117l38.45 15.679c-8.71 17.832-19.825 34.558-33.181 49.773z"/></svg>