<svg fill="none" height="512" viewBox="0 0 14 14" width="512" xmlns="http://www.w3.org/2000/svg" xmlns:xlink="http://www.w3.org/1999/xlink"><clipPath id="clip0_901_186"><path d="m0 0h14v14h-14z"/></clipPath><g clip-path="url(#clip0_901_186)"><path clip-rule="evenodd" d="m5.91741 1.60859c1.26646-.25488 2.62546-.06745 3.83207.62918 2.63012 1.5185 3.53122 4.88161 2.01272 7.51172s-4.88157 3.53121-7.51168 2.01271c-2.61245-1.5083-3.519074-4.83648-2.04301-7.4586l.92886.55732c.26012.15607.58864.14009.83237-.04051.24373-.18059.35468-.49022.28111-.78451l-.55445-2.21779c-.10046-.40185-.50766-.64617-.90951-.54571l-2.217793.55445c-.294289.07357-.5152818.31718-.55992962.61722-.04464768.30004.09584262.59744.35595962.75351l.556749.33405c-1.907742 3.34291-.757548 7.60287 2.579644 9.52967 3.34755 1.9327 7.62808.7857 9.56078-2.5618 1.9327-3.34756.7857-7.62806-2.5618-9.560768-1.53475-.8860743-3.26745-1.124795-4.87803-.800659-.40607.081724-.66901.47716-.58729.883237.08173.40607.47716.66901.88323.58728zm1.08259 1.14142c.41421 0 .75.33579.75.75v3.57536l2.13587 1.28152c.35523.21311.47033.67381.25723 1.02899-.21309.35519-.67379.47036-1.02897.25725l-2.5-1.5c-.22591-.13554-.36413-.37967-.36413-.64312v-4c0-.41421.33579-.75.75-.75z" fill="#000" fill-rule="evenodd"/></g></svg>