<svg width="32" height="32" viewBox="0 0 32 32" fill="none" xmlns="http://www.w3.org/2000/svg">
<circle cx="16.0001" cy="16" r="13.3333" fill="#FF6600"/>
<circle cx="16.0001" cy="16" r="13.3333" fill="#0066CC"/>
<path d="M16 27.1111C22.1365 27.1111 27.1111 22.1365 27.1111 16C27.1111 9.86353 22.1365 4.88892 16 4.88892C9.86353 4.88892 4.88892 9.86353 4.88892 16C4.88892 22.1365 9.86353 27.1111 16 27.1111Z" fill="white"/>
<path fill-rule="evenodd" clip-rule="evenodd" d="M16.0001 4.88892C15.9919 4.88892 15.9837 4.8892 15.9753 4.8892V27.1108C15.9836 27.1108 15.9918 27.1111 16.0001 27.1111C22.1366 27.1111 27.1112 22.1365 27.1112 16C27.1112 9.86346 22.1366 4.88892 16.0001 4.88892Z" fill="#F0F0F0"/>
<path fill-rule="evenodd" clip-rule="evenodd" d="M16 11.4229L11.7095 14.5401L13.3483 19.5839H18.6517L20.2905 14.5401L16 11.4229Z" fill="#555A66"/>
<path fill-rule="evenodd" clip-rule="evenodd" d="M20.2906 14.5401L16.0001 11.4229L15.9753 11.4408V19.5839H18.6518L20.2906 14.5401Z" fill="#414952"/>
<path fill-rule="evenodd" clip-rule="evenodd" d="M11.9661 5.64436L16.0001 8.57532L20.0342 5.64441C18.7836 5.15685 17.4232 4.88892 16.0001 4.88892C14.577 4.88892 13.2166 5.15685 11.9661 5.64436Z" fill="#555A66"/>
<path fill-rule="evenodd" clip-rule="evenodd" d="M20.0342 5.64436C18.7836 5.15685 17.4232 4.88892 16.0001 4.88892C15.9918 4.88892 15.9837 4.8892 15.9753 4.8892V8.55731L16.0001 8.57526L20.0342 5.64436Z" fill="#414952"/>
<path fill-rule="evenodd" clip-rule="evenodd" d="M23.0227 13.6191L27.0963 16.5788C27.1061 16.3871 27.1112 16.1941 27.1112 16C27.1112 13.3039 26.1506 10.8322 24.5534 8.90802L23.0227 13.6191Z" fill="#414952"/>
<path fill-rule="evenodd" clip-rule="evenodd" d="M18.8176 26.7503C21.5588 26.0339 23.8872 24.297 25.3727 21.9697H20.371L18.8176 26.7503Z" fill="#414952"/>
<path fill-rule="evenodd" clip-rule="evenodd" d="M7.44667 8.90802C5.84949 10.8322 4.88892 13.3039 4.88892 16C4.88892 16.1941 4.894 16.3871 4.90381 16.5788L8.9774 13.6191L7.44667 8.90802Z" fill="#555A66"/>
<path fill-rule="evenodd" clip-rule="evenodd" d="M11.6291 21.9697H6.62744C8.11287 24.297 10.4414 26.0338 13.1825 26.7503L11.6291 21.9697Z" fill="#555A66"/>
</svg>
