<?xml version="1.0" standalone="no"?>
<!DOCTYPE svg PUBLIC "-//W3C//DTD SVG 20010904//EN"
 "http://www.w3.org/TR/2001/REC-SVG-20010904/DTD/svg10.dtd">
<svg version="1.0" xmlns="http://www.w3.org/2000/svg"
 width="260.000000pt" height="260.000000pt" viewBox="0 0 260.000000 260.000000"
 preserveAspectRatio="xMidYMid meet">
<metadata>
Created by potrace 1.14, written by Peter Selinger 2001-2017
</metadata>
<g transform="translate(0.000000,260.000000) scale(0.100000,-0.100000)"
fill="#000000" stroke="none">
<path d="M251 1423 c0 -1132 1 -1170 20 -1219 27 -70 76 -124 151 -164 l63
-34 590 0 c570 1 593 2 674 22 286 74 482 255 560 517 25 86 30 115 38 237 26
411 -246 772 -650 861 -4 1 63 103 149 227 87 124 186 267 221 317 l64 93 -34
72 c-18 40 -51 110 -73 156 l-39 82 -867 0 -868 0 1 -1167z m1359 780 c0 -2
-40 -62 -89 -131 -78 -112 -308 -443 -469 -677 -31 -44 -70 -100 -87 -125 -79
-113 -244 -351 -280 -403 -22 -32 -42 -60 -45 -62 -5 -3 -6 1397 -1 1401 4 4
971 1 971 -3z m-25 -927 c150 -32 278 -121 330 -231 60 -125 69 -259 26 -396
-45 -142 -156 -234 -306 -255 -38 -5 -631 -9 -783 -5 l-32 1 48 68 c27 37 145
206 262 377 118 171 217 312 220 315 3 3 25 36 50 73 l45 69 60 -6 c33 -3 69
-7 80 -10z"/>
</g>
</svg>
