<svg class="S" xmlns="http://www.w3.org/2000/svg" viewBox="0 0 126 126"><defs/><path d="M19.7 54.3l.1.5-.1-.5zm-4.1-21.8c-.9.2-1.5 1.2-1.2 2.1l5.3 19.7c-.2-.8.3-1.5 1-1.8l5.1-1.4c.8-.2 1.5.3 1.8 1l.1.5c.2.8-.3 1.5-1 1.8l-5.1 1.4c-.8.2-1.5-.3-1.8-1l8.5 31.9v-54c-.8-.9-1.4-1.9-1.7-3.1l-11 2.9zm69.1 10H91V106a2 2 0 01-2 2H71.8c0-4.9-3.9-8.8-8.8-8.8s-8.8 3.9-8.8 8.8H36.9a2 2 0 01-2-2V42.5h6.3c1.2 0 2.2-1 2.2-2.2v-.8c0-1.2-1-2.2-2.2-2.2H35V20c0-1.1.9-2 2-2h17.3c0 4.8 3.9 8.8 8.8 8.8s8.8-3.9 8.8-8.8h17.3a2 2 0 012 2v17.3h-6.3c-1.2 0-2.2 1-2.2 2.2v.8c-.2 1.2.8 2.2 2 2.2zm-36.5-2.2c0 1.2 1 2.2 2.2 2.2h8c1.2 0 2.2-1 2.2-2.2v-.8c0-1.2-1-2.2-2.2-2.2h-8c-1.2 0-2.2 1-2.2 2.2v.8zm11.2 22.2c0-1.1.3-2 1-2.6.7-.6 1.6-.9 2.8-.9 1.4 0 2.4.4 3.2 1.3.7.8 1.1 2.1 1.1 3.6h9.4c0-2.9-1-5.3-2.9-7.1-1.9-1.9-4.6-3-8-3.4l1.4-7.3h-7.2l1.4 7.2c-3.5.3-6.3 1.2-8.5 2.9a7.32 7.32 0 00-3.1 6.2c0 1.5.3 2.8.9 3.9.6 1.1 1.4 2 2.6 2.8 1.1.8 2.4 1.5 4 2.2 1.5.6 3.2 1.2 5 1.8 1.8.6 3.1 1.3 3.8 1.9.7.7 1.1 1.6 1.1 2.8 0 1.1-.4 1.9-1.1 2.5-.7.6-1.7.9-3 .9-1.7 0-3.1-.5-4-1.4s-1.4-2.2-1.4-3.9h-9.4c0 3.1 1.1 5.7 3.2 7.6 2.2 1.9 5.3 3.1 9.3 3.4l-1.4 7h7.2l-1.4-7c3.5-.3 6.2-1.2 8.2-2.9 2-1.6 3-3.8 3-6.3 0-1.5-.3-2.8-.9-3.9-.6-1.1-1.5-2-2.6-2.9-1.1-.8-2.4-1.5-4-2.2-1.5-.6-3.2-1.3-4.9-1.9-1.7-.6-3-1.2-3.8-1.9-.6-.4-1-1.3-1-2.4zm18.4-23.1c0-1.2-1-2.2-2.2-2.2h-8c-1.2 0-2.2 1-2.2 2.2v.8c0 1.2 1 2.2 2.2 2.2h8c1.2 0 2.2-1 2.2-2.2v-.8zM106.3 75l-.1-.5.1.5zm5.3 19.7L106.3 75c.2.8-.3 1.5-1 1.8l-5.1 1.4c-.8.2-1.5-.3-1.8-1l-.1-.5c-.2-.8.3-1.5 1-1.8l5.1-1.4c.8-.2 1.5.3 1.8 1l-8.5-31.9v54c.8.9 1.4 1.9 1.7 3.1l11-3c.9-.2 1.5-1.1 1.2-2z"/></svg>