<svg class="S" xmlns="http://www.w3.org/2000/svg" viewBox="0 0 126 126"><path d="M113 24.9v51.7c0 .8-.7 1.5-1.5 1.5H99.9c-.7-.2-1.2-.8-1.2-1.5V72c0-.8.5-1.4 1.2-1.5h2.1c.7 0 1.3-.6 1.3-1.4V34.5c0-.8-.7-1.5-1.5-1.5H36.3c-.8 0-1.5.6-1.5 1.3v7c-.1.7-.7 1.1-1.5 1.1h-6.6c-.7 0-1.3-.5-1.5-1.1V24.9c0-.8.7-1.5 1.5-1.5h84.8c.8 0 1.5.7 1.5 1.5zm-19.2 21H14.5c-.8 0-1.5.7-1.5 1.5v53.7c0 .8.7 1.5 1.5 1.5h79.2c.8 0 1.5-.7 1.5-1.5V47.4c.1-.8-.6-1.5-1.4-1.5zm-8.1 39.8c-.2 0-.5 0-.7.1-.3 0-.6.1-.9.2-2.9.9-5.1 3.3-5.7 6.4 0 .2-.1.4-.1.7H29.9c0-.2 0-.5-.1-.7-.6-3.3-3.2-5.9-6.5-6.5-.2-.1-.5-.1-.7-.1V62.9c.2 0 .5 0 .7-.1 3.1-.5 5.6-2.8 6.4-5.8.1-.3.2-.5.2-.8 0-.2.1-.4.1-.7h48.4c0 .2 0 .4.1.6 0 .3.1.6.2.9.8 2.7 2.9 4.8 5.5 5.5.3.1.6.2.9.2.2 0 .4.1.6.1v22.9zM68 74.2c0 4-6.2 7.3-13.8 7.3s-13.8-3.3-13.8-7.3S46.5 67 54.1 67 68 70.2 68 74.2z"/></svg>
