<svg class="S" xmlns="http://www.w3.org/2000/svg" viewBox="0 0 126 126"><path d="M72.7 50.5c-.6 0-1.2-.2-1.8-.5L63 44.6 55.1 50c-1.1.7-2.5.7-3.5 0a2.9 2.9 0 01-1.2-3.3l2.5-9.8-7.5-6.4c-1-.8-1.3-2.2-.9-3.4a3 3 0 012.8-2.1l9.4-.5 3.4-9.4c.4-1.2 1.6-2.1 2.9-2.1a3 3 0 012.9 2.1l3.4 9.4 9.4.5c1.3.1 2.4.9 2.8 2.1.4 1.2 0 2.5-.9 3.4l-7.5 6.4 2.5 9.8c.3 1.3-.2 2.6-1.2 3.3-.5.3-1.1.5-1.7.5zm37.2 41.7H90.1v17.7c0 1.1-.2 2.2-.5 3.1h20.3c1.7 0 3.1-1.4 3.1-3.1V95.3c0-1.7-1.4-3.1-3.1-3.1zm-74-8.4H16.1c-1.7 0-3.1 1.4-3.1 3.1v22.9c0 1.7 1.4 3.1 3.1 3.1h20.3c-.3-1-.5-2-.5-3.1v-26zm44.8-25H45.3c-1.7 0-3.1 1.4-3.1 3.1v47.9c0 1.7 1.4 3.1 3.1 3.1h35.4c1.7 0 3.1-1.4 3.1-3.1V62c0-1.8-1.4-3.2-3.1-3.2zM66.1 93.2c0 1.7-1.4 3.1-3.1 3.1s-3.1-1.4-3.1-3.1V81c-.6-.6-1-1.4-1-2.3 0-1.7 1.4-3.1 3.1-3.1h1c1.7 0 3.1 1.4 3.1 3.1v14.5z"/></svg>