<svg width="15" height="15" viewBox="0 0 15 15" fill="none" xmlns="http://www.w3.org/2000/svg">
<g clip-path="url(#clip0_41_28296)">
<path d="M7.5 15C11.6421 15 15 11.6421 15 7.5C15 3.35786 11.6421 0 7.5 0C3.35786 0 0 3.35786 0 7.5C0 11.6421 3.35786 15 7.5 15Z" fill="#6DA544"/>
<path d="M7.50009 2.93479L13.6957 7.5L7.50009 12.0652L1.30444 7.5L7.50009 2.93479Z" fill="#FFDA44"/>
<path d="M7.50004 10.1087C8.94077 10.1087 10.1087 8.94073 10.1087 7.5C10.1087 6.05926 8.94077 4.89132 7.50004 4.89132C6.0593 4.89132 4.89136 6.05926 4.89136 7.5C4.89136 8.94073 6.0593 10.1087 7.50004 10.1087Z" fill="#F0F0F0"/>
<path d="M6.1956 7.33696C5.74196 7.33696 5.30418 7.40596 4.89209 7.53398C4.91034 8.95898 6.07062 10.1087 7.49995 10.1087C8.38378 10.1087 9.16437 9.66876 9.63625 8.99637C8.82892 7.98571 7.5867 7.33696 6.1956 7.33696Z" fill="#0052B4"/>
<path d="M10.0603 7.9998C10.0917 7.83797 10.1087 7.67101 10.1087 7.5C10.1087 6.05924 8.94076 4.89132 7.50003 4.89132C6.42501 4.89132 5.50216 5.54174 5.10278 6.47039C5.45581 6.39724 5.82132 6.35871 6.1957 6.35871C7.71085 6.35868 9.08153 6.98851 10.0603 7.9998Z" fill="#0052B4"/>
</g>
<defs>
<clipPath id="clip0_41_28296">
<rect width="15" height="15" fill="white"/>
</clipPath>
</defs>
</svg>
