<svg class="S" xmlns="http://www.w3.org/2000/svg" xmlns:xlink="http://www.w3.org/1999/xlink" viewBox="0 0 126 126"><defs><radialGradient id="radial-gradient" cx="74.6" cy="100.1" r="47.42" gradientUnits="userSpaceOnUse"><stop offset="0" stop-color="#fff"/><stop offset="0.36" stop-color="#f1ece8"/><stop offset="0.99" stop-color="#d2c3b7"/></radialGradient><radialGradient id="radial-gradient-2" cx="68.32" cy="92.58" r="38.79" gradientUnits="userSpaceOnUse"><stop offset="0" stop-color="#fff"/><stop offset="0.32" stop-color="#fdfdfc"/><stop offset="0.53" stop-color="#f8f5f4"/><stop offset="0.7" stop-color="#eee9e5"/><stop offset="0.86" stop-color="#e1d8d0"/><stop offset="0.99" stop-color="#d2c3b7"/></radialGradient><radialGradient id="radial-gradient-3" cx="46.63" cy="84.68" r="10.67" gradientUnits="userSpaceOnUse"><stop offset="0" stop-color="#fff"/><stop offset="0.27" stop-color="#fdfcfc"/><stop offset="0.45" stop-color="#f5f4f4"/><stop offset="0.6" stop-color="#e9e6e5"/><stop offset="0.73" stop-color="#d7d3cf"/><stop offset="0.86" stop-color="#c0b9b4"/><stop offset="0.97" stop-color="#a49a93"/><stop offset="0.99" stop-color="#9e948c"/></radialGradient><radialGradient id="radial-gradient-4" cx="52.48" cy="80.34" r="10.67" xlink:href="#radial-gradient-3"/><radialGradient id="radial-gradient-5" cx="60.03" cy="78.65" r="10.67" xlink:href="#radial-gradient-3"/><radialGradient id="radial-gradient-6" cx="67.19" cy="80.72" r="10.67" xlink:href="#radial-gradient-3"/><radialGradient id="radial-gradient-7" cx="72.85" cy="85.81" r="10.67" xlink:href="#radial-gradient-3"/><radialGradient id="radial-gradient-8" cx="55.31" cy="86.95" r="10.67" xlink:href="#radial-gradient-3"/><radialGradient id="radial-gradient-9" cx="64.08" cy="86.95" r="10.67" xlink:href="#radial-gradient-3"/><radialGradient id="radial-gradient-10" cx="1497.55" cy="246.66" r="10.67" gradientTransform="translate(1577.67 362) rotate(180)" xlink:href="#radial-gradient-3"/><radialGradient id="radial-gradient-11" cx="1493.97" cy="255.62" r="10.67" gradientTransform="translate(1577.67 362) rotate(180)" xlink:href="#radial-gradient-3"/><radialGradient id="radial-gradient-12" cx="1518.58" cy="257.13" r="10.67" gradientTransform="translate(1577.67 362) rotate(180)" xlink:href="#radial-gradient-3"/><radialGradient id="radial-gradient-13" cx="1526.22" cy="258.55" r="10.67" gradientTransform="translate(1577.67 362) rotate(180)" xlink:href="#radial-gradient-3"/><radialGradient id="radial-gradient-14" cx="1503.4" cy="242.33" r="10.67" gradientTransform="translate(73.88 1641.98) rotate(-99.48)" xlink:href="#radial-gradient-3"/><radialGradient id="radial-gradient-15" cx="1510.94" cy="240.63" r="10.67" gradientTransform="translate(1577.67 362) rotate(180)" xlink:href="#radial-gradient-3"/><radialGradient id="radial-gradient-16" cx="1518.11" cy="242.7" r="10.67" gradientTransform="translate(1577.67 362) rotate(180)" xlink:href="#radial-gradient-3"/><radialGradient id="radial-gradient-17" cx="1523.77" cy="247.8" r="10.67" gradientTransform="translate(1577.67 362) rotate(180)" xlink:href="#radial-gradient-3"/><radialGradient id="radial-gradient-18" cx="1506.23" cy="248.93" r="10.67" gradientTransform="translate(1577.67 362) rotate(180)" xlink:href="#radial-gradient-3"/><radialGradient id="radial-gradient-19" cx="1509.48" cy="256.99" r="10.67" gradientTransform="translate(1577.67 362) rotate(180)" xlink:href="#radial-gradient-3"/><radialGradient id="radial-gradient-20" cx="1501.04" cy="257.04" r="10.67" gradientTransform="translate(1577.67 362) rotate(180)" xlink:href="#radial-gradient-3"/><radialGradient id="radial-gradient-21" cx="1515" cy="248.93" r="10.67" gradientTransform="translate(1577.67 362) rotate(180)" xlink:href="#radial-gradient-3"/></defs><g style="isolation:isolate"><g id="design"><path d="M85.52,10.25c.27-.46-.27-1.27-1.19-1.81s-1.89-.59-2.16-.13l-.54.94L85,11.19l.55-.94Z" style="fill:#305694;fill-rule:evenodd"/><path d="M81.63,9.25c-.27.46.26,1.27,1.19,1.81s1.89.59,2.15.13-.26-1.27-1.18-1.81-1.89-.59-2.16-.13Z" style="fill:#1d335d;fill-rule:evenodd"/><path d="M21.82,108.27c-1.36,2.1-2.14,2-3,1.46s.44-2-.09-4.2-4.42-5.45-7.15-.27a8.35,8.35,0,0,0,3.13,11.56c4.56,2.65,8.81.39,11.26-2.31,3.83-4.24,14.76-23.8,17.32-28.45l40-72.62L80.66,12,21.82,108.27Z" style="fill:#be5e00;fill-rule:evenodd"/><path d="M82.36,10.65l1.16.67-41,74.34c-2.69,4.87-5.45,9.72-8.27,14.51-1.66,2.81-3.34,5.62-5.11,8.37-.7,1.1-1.42,2.19-2.18,3.26a22.68,22.68,0,0,1-1.66,2.14,9.91,9.91,0,0,1-4.45,2.92,7.08,7.08,0,0,1-5.76-.77A7.85,7.85,0,0,1,11.66,112a7.73,7.73,0,0,1,.65-6.33c.63-1.19,1.75-2.67,3.29-2.26a3.58,3.58,0,0,1,2.31,2.33,4.44,4.44,0,0,1-.05,2,3.07,3.07,0,0,0-.06,2.07,1.47,1.47,0,0,0,.59.62c1.92,1.11,3.13-.09,4.14-1.75L82.36,10.65Z" style="fill:#ef7600;fill-rule:evenodd"/><path d="M79,17.73,41.81,85.25q-4,7.31-8.25,14.49c-1.66,2.81-3.34,5.61-5.1,8.34-.69,1.09-1.41,2.18-2.15,3.23a23.25,23.25,0,0,1-1.6,2.07c-2.44,2.69-5.84,3.92-9.17,2a7.09,7.09,0,0,1-3.09-3.67,7,7,0,0,1,.6-5.66c.42-.78,1.26-2.12,2.34-1.84a2.79,2.79,0,0,1,1.7,1.72c.36,1.51-.78,2.83-.05,4.29a2.35,2.35,0,0,0,.93,1c2.34,1.36,4,0,5.28-2L79,17.73Z" style="fill:#f80;fill-rule:evenodd"/><path d="M14.22,106.56a.76.76,0,1,0,1-.28.77.77,0,0,0-1,.28Z" style="fill:#ffb158;fill-rule:evenodd"/><path d="M15.75,113.72c.77-.66-.13-1.17-.62-2.16s-.37-2.15-1.2-1.94c-1.09.28-.52,1.85-.07,2.55s1.26,2.09,1.89,1.55Z" style="fill:#ffb158;fill-rule:evenodd"/><path d="M61.41,53.17l23-41.76c.48-.86-2.06-2.34-2.58-1.49L57,50.61h0a2.56,2.56,0,0,0,4.42,2.56Z" style="fill:#305694;fill-rule:evenodd"/><path d="M83.37,13.32l.47-.84a5.14,5.14,0,0,0-1.34-1.1,4.08,4.08,0,0,0-1.29-.46l-.52.86a2.67,2.67,0,0,1,1.38.38,4.08,4.08,0,0,1,1.3,1.16Zm-3.2,5.82.46-.84a5.47,5.47,0,0,0-1.48-1.21,4,4,0,0,0-1.4-.5l-.51.84a3.08,3.08,0,0,1,1.48.43,4.62,4.62,0,0,1,1.45,1.28ZM82,15.91l.3-.55A5.05,5.05,0,0,0,80.68,14a3.86,3.86,0,0,0-1.08-.41l-.5.82a2.63,2.63,0,0,1,1.15.37,4.08,4.08,0,0,1,1.42,1.33l.28-.17Zm-3.62,6.55.47-.84a6,6,0,0,0-1.53-1.25,4.43,4.43,0,0,0-1.5-.53l-.52.85a3.15,3.15,0,0,1,1.58.45,4.82,4.82,0,0,1,1.5,1.32Zm-2.07,3.76.47-.84a6,6,0,0,0-1.62-1.33,4.84,4.84,0,0,0-1.57-.55l-.52.85a3.4,3.4,0,0,1,1.66.48,5.09,5.09,0,0,1,1.58,1.39ZM74.19,30l.47-.83A6.27,6.27,0,0,0,73,27.74a4.8,4.8,0,0,0-1.65-.58l-.51.84a3.68,3.68,0,0,1,1.73.51A5.5,5.5,0,0,1,74.19,30Zm-2.47,4.49.46-.84a6.47,6.47,0,0,0-1.8-1.48,5,5,0,0,0-1.74-.61l-.52.84a4,4,0,0,1,1.83.54,5.78,5.78,0,0,1,1.77,1.55Zm-2.47,4.48.46-.84a7,7,0,0,0-1.89-1.56A5.17,5.17,0,0,0,66,35.9l-.52.85a4.08,4.08,0,0,1,1.94.56,6.12,6.12,0,0,1,1.86,1.63Zm-2,3.62.46-.84a7.19,7.19,0,0,0-2-1.62,5.24,5.24,0,0,0-1.93-.67l-.52.85a4.23,4.23,0,0,1,2,.59,6.33,6.33,0,0,1,1.94,1.69Zm-2.13,3.86.46-.84a7.5,7.5,0,0,0-2.05-1.7,5.91,5.91,0,0,0-2-.69L61,44a4.43,4.43,0,0,1,2.1.62,6.52,6.52,0,0,1,2,1.76Zm-1.9,3.44L63.7,49a8.07,8.07,0,0,0-2.13-1.76,5.92,5.92,0,0,0-2.09-.72l-.52.85a4.7,4.7,0,0,1,2.18.65,6.8,6.8,0,0,1,2.09,1.82ZM61.52,53l.46-.84a8.07,8.07,0,0,0-2.2-1.82,6.28,6.28,0,0,0-2.15-.75l-.52.85a5,5,0,0,1,2.24.67A7.31,7.31,0,0,1,61.52,53Z" style="fill:#1d335d;fill-rule:evenodd"/><path d="M40.48,10.25c-.27-.46.27-1.27,1.19-1.81s1.89-.59,2.16-.13l.54.94L41,11.19l-.55-.94Z" style="fill:#305694;fill-rule:evenodd"/><path d="M44.37,9.25c.27.46-.26,1.27-1.19,1.81s-1.89.59-2.15.13.26-1.27,1.18-1.81,1.89-.59,2.16-.13Z" style="fill:#1d335d;fill-rule:evenodd"/><path d="M104.18,108.27c1.36,2.1,2.14,2,3,1.46s-.44-2,.09-4.2,4.42-5.45,7.15-.27a8.35,8.35,0,0,1-3.13,11.56c-4.56,2.65-8.81.39-11.26-2.31-3.83-4.24-14.76-23.8-17.32-28.45L42.77,13.44,45.34,12l58.84,96.32Z" style="fill:#be5e00;fill-rule:evenodd"/><path d="M43.64,10.65l-1.16.67,41,74.34c2.69,4.87,5.45,9.72,8.27,14.51,1.66,2.81,3.34,5.62,5.11,8.37.7,1.1,1.42,2.19,2.18,3.26a22.68,22.68,0,0,0,1.66,2.14,9.91,9.91,0,0,0,4.45,2.92,7.08,7.08,0,0,0,5.76-.77,7.85,7.85,0,0,0,3.46-4.11,7.73,7.73,0,0,0-.65-6.33c-.63-1.19-1.75-2.67-3.29-2.26a3.58,3.58,0,0,0-2.31,2.33,4.44,4.44,0,0,0,0,2,3.07,3.07,0,0,1,.06,2.07,1.47,1.47,0,0,1-.59.62c-1.92,1.11-3.13-.09-4.14-1.75L43.64,10.65Z" style="fill:#ef7600;fill-rule:evenodd"/><path d="M47,17.73,84.19,85.25q4,7.31,8.25,14.49c1.66,2.81,3.34,5.61,5.1,8.34.69,1.09,1.41,2.18,2.15,3.23a23.25,23.25,0,0,0,1.6,2.07c2.44,2.69,5.84,3.92,9.17,2a7.09,7.09,0,0,0,3.09-3.67A7,7,0,0,0,113,106c-.42-.78-1.26-2.12-2.34-1.84a2.79,2.79,0,0,0-1.7,1.72c-.36,1.51.78,2.83,0,4.29a2.35,2.35,0,0,1-.93,1c-2.34,1.36-4,0-5.28-2L47,17.73Z" style="fill:#f80;fill-rule:evenodd"/><path d="M111.78,106.56a.76.76,0,1,1-1-.28.77.77,0,0,1,1,.28Z" style="fill:#ffb158;fill-rule:evenodd"/><path d="M110.25,113.72c-.77-.66.13-1.17.62-2.16s.37-2.15,1.2-1.94c1.09.28.52,1.85.07,2.55s-1.26,2.09-1.89,1.55Z" style="fill:#ffb158;fill-rule:evenodd"/><path d="M64.59,53.17l-23-41.76c-.48-.86,2.06-2.34,2.58-1.49L69,50.61h0a2.56,2.56,0,0,1-4.42,2.56Z" style="fill:#305694;fill-rule:evenodd"/><path d="M42.63,13.32a4.08,4.08,0,0,1,1.3-1.16,2.67,2.67,0,0,1,1.38-.38l-.52-.86a4.08,4.08,0,0,0-1.29.46,5.14,5.14,0,0,0-1.34,1.1l.47.84Zm3.2,5.82a4.62,4.62,0,0,1,1.45-1.28,3.08,3.08,0,0,1,1.48-.43l-.51-.84a4,4,0,0,0-1.4.5,5.47,5.47,0,0,0-1.48,1.21l.46.84Zm-1.78-3.23.28.17a4.08,4.08,0,0,1,1.42-1.33,2.63,2.63,0,0,1,1.15-.37l-.5-.82a3.86,3.86,0,0,0-1.08.41,5.05,5.05,0,0,0-1.57,1.39l.3.55Zm3.62,6.55a4.82,4.82,0,0,1,1.5-1.32,3.15,3.15,0,0,1,1.58-.45l-.52-.85a4.43,4.43,0,0,0-1.5.53,6,6,0,0,0-1.53,1.25l.47.84Zm2.07,3.76a5.09,5.09,0,0,1,1.58-1.39A3.4,3.4,0,0,1,53,24.35l-.52-.85a4.84,4.84,0,0,0-1.57.55,6,6,0,0,0-1.62,1.33l.47.84ZM51.81,30a5.5,5.5,0,0,1,1.67-1.46A3.68,3.68,0,0,1,55.21,28l-.51-.84a4.8,4.8,0,0,0-1.65.58,6.27,6.27,0,0,0-1.71,1.4l.47.83Zm2.47,4.49a5.78,5.78,0,0,1,1.77-1.55,4,4,0,0,1,1.83-.54l-.52-.84a5,5,0,0,0-1.74.61,6.47,6.47,0,0,0-1.8,1.48l.46.84Zm2.47,4.48a6.12,6.12,0,0,1,1.86-1.63,4.08,4.08,0,0,1,1.94-.56L60,35.9a5.17,5.17,0,0,0-1.85.64,7,7,0,0,0-1.89,1.56l.46.84Zm2,3.62a6.33,6.33,0,0,1,1.94-1.69,4.23,4.23,0,0,1,2-.59l-.52-.85a5.24,5.24,0,0,0-1.93.67,7.19,7.19,0,0,0-2,1.62l.46.84Zm2.13,3.86a6.52,6.52,0,0,1,2-1.76A4.43,4.43,0,0,1,65,44l-.52-.85a5.91,5.91,0,0,0-2,.69,7.5,7.5,0,0,0-2.05,1.7l.46.84Zm1.9,3.44A6.8,6.8,0,0,1,64.86,48,4.7,4.7,0,0,1,67,47.39l-.52-.85a5.92,5.92,0,0,0-2.09.72A8.07,8.07,0,0,0,62.3,49l.47.84ZM64.48,53a7.31,7.31,0,0,1,2.17-1.89,5,5,0,0,1,2.24-.67l-.52-.85a6.28,6.28,0,0,0-2.15.75A8.07,8.07,0,0,0,64,52.14l.46.84Z" style="fill:#1d335d;fill-rule:evenodd"/><circle cx="63" cy="100.02" r="20" style="fill:url(#radial-gradient)"/><path d="M81,91.22a20.06,20.06,0,0,0-5-6.46,23.07,23.07,0,0,1,4.55,6.75,22.46,22.46,0,0,1,1.19,11c-1.65,12.68-18.4,17.78-28.62,11.69-3.93-2.33-6.44-6.38-7.92-10.61-2.52-7.19.52-14.38,5.66-19.43a20,20,0,1,0,30.17,7Z" style="mix-blend-mode:multiply;fill:url(#radial-gradient-2)"/><circle cx="50.78" cy="90.15" r="1.89" style="fill:url(#radial-gradient-3)"/><circle cx="56.63" cy="85.81" r="1.89" style="fill:url(#radial-gradient-4)"/><circle cx="64.18" cy="84.12" r="1.89" style="fill:url(#radial-gradient-5)"/><circle cx="71.34" cy="86.19" r="1.89" style="fill:url(#radial-gradient-6)"/><circle cx="77" cy="91.28" r="1.89" style="fill:url(#radial-gradient-7)"/><circle cx="59.46" cy="92.42" r="1.89" style="fill:url(#radial-gradient-8)"/><circle cx="68.23" cy="92.42" r="1.89" style="fill:url(#radial-gradient-9)"/><circle cx="75.97" cy="109.87" r="1.89" style="fill:url(#radial-gradient-10)"/><circle cx="79.55" cy="100.91" r="1.89" style="fill:url(#radial-gradient-11)"/><circle cx="54.93" cy="99.4" r="1.89" style="fill:url(#radial-gradient-12)"/><circle cx="47.29" cy="97.98" r="1.89" style="fill:url(#radial-gradient-13)"/><circle cx="70.12" cy="114.2" r="1.89" transform="translate(-54.07 164.57) rotate(-80.52)" style="fill:url(#radial-gradient-14)"/><circle cx="62.57" cy="115.9" r="1.89" style="fill:url(#radial-gradient-15)"/><circle cx="55.4" cy="113.83" r="1.89" style="fill:url(#radial-gradient-16)"/><circle cx="49.75" cy="108.73" r="1.89" style="fill:url(#radial-gradient-17)"/><circle cx="67.29" cy="107.6" r="1.89" style="fill:url(#radial-gradient-18)"/><circle cx="64.03" cy="99.54" r="1.89" style="fill:url(#radial-gradient-19)"/><circle cx="72.48" cy="99.49" r="1.89" style="fill:url(#radial-gradient-20)"/><circle cx="58.52" cy="107.6" r="1.89" style="fill:url(#radial-gradient-21)"/></g></g></svg>
