<svg class="S" xmlns="http://www.w3.org/2000/svg" xmlns:xlink="http://www.w3.org/1999/xlink" viewBox="0 0 126 126"><defs><linearGradient id="a" x1="-2937.75" x2="-2936.96" y1="-271.46" y2="-269.93" gradientTransform="translate(154657.89 14303.14) scale(52.63)" gradientUnits="userSpaceOnUse"><stop offset="0" stop-color="#5b779d"/><stop offset=".4" stop-color="#2d3b50"/><stop offset="1" stop-color="#0f1115"/></linearGradient><linearGradient id="c" x1="-2908.68" x2="-2906.78" y1="-322.4" y2="-323.19" gradientTransform="translate(153102.89 17051.35) scale(52.63)" gradientUnits="userSpaceOnUse"><stop offset="0" stop-color="#502a13"/><stop offset=".35" stop-color="#ce8d2a"/><stop offset=".42" stop-color="#e0cf2b"/><stop offset=".5" stop-color="#f5e47f"/><stop offset=".54" stop-color="#f5e47f"/><stop offset=".6" stop-color="#e0cf2b"/><stop offset=".69" stop-color="#ce8d2a"/><stop offset="1" stop-color="#452b17"/></linearGradient><linearGradient id="d" x1="-2906.74" x2="-2907.72" y1="-321.13" y2="-322.52" gradientTransform="translate(153073.04 16998.19) scale(52.63)" gradientUnits="userSpaceOnUse"><stop offset="0" stop-color="#fde027"/><stop offset=".14" stop-color="#fff6c6" stop-opacity="0"/><stop offset=".82" stop-color="#fff6c6" stop-opacity="0"/><stop offset="1" stop-color="#fde027"/></linearGradient><linearGradient id="e" x1="28.5" x2="99.6" y1="63" y2="63" xlink:href="#a"/><linearGradient id="f" x1="40.07" x2="49.52" y1="16.62" y2="23.07" gradientUnits="userSpaceOnUse"><stop offset="0" stop-color="#fdd30e"/><stop offset="1" stop-color="#fbf7dc"/></linearGradient><linearGradient id="g" x1="47.85" x2="47.85" y1="18.15" y2="94.43" gradientUnits="userSpaceOnUse"><stop offset="0" stop-color="#a32322"/><stop offset=".29" stop-color="#c47329"/><stop offset=".64" stop-color="#c47329"/><stop offset="1" stop-color="#c05827"/></linearGradient><linearGradient id="h" x1="85.02" x2="97.27" y1="102.38" y2="102.38" gradientUnits="userSpaceOnUse"><stop offset="0" stop-color="#d9312b"/><stop offset="1" stop-color="#c47329"/></linearGradient><linearGradient id="i" x1="49.92" x2="98.65" y1="99.53" y2="99.17" gradientUnits="userSpaceOnUse"><stop offset=".16" stop-color="#c15928"/><stop offset=".41" stop-color="#c9852a"/><stop offset=".63" stop-color="#c07029"/><stop offset="1" stop-color="#ba3826"/></linearGradient><linearGradient id="b" x1="23.99" x2="90.1" y1="105.89" y2="105.39" gradientUnits="userSpaceOnUse"><stop offset="0" stop-color="#ba3826"/><stop offset=".19" stop-color="#ba3826"/><stop offset=".41" stop-color="#c9852a"/><stop offset="1" stop-color="#c07029"/></linearGradient><linearGradient id="j" x1="28.64" x2="50.42" y1="102.2" y2="102.03" xlink:href="#b"/><linearGradient id="k" x1="37.65" x2="37.65" y1="18.28" y2="107.02" gradientUnits="userSpaceOnUse"><stop offset="0" stop-color="#ca7d29"/><stop offset=".31" stop-color="#edd614"/><stop offset=".77" stop-color="#edd614"/><stop offset="1" stop-color="#ca7d29"/></linearGradient></defs><path fill="url(#a)" d="M102.45 62.86c0 21.87-17.23 39.6-38.51 39.61S25.42 84.75 25.41 62.88c0-21.87 17.23-39.61 38.51-39.61S102.44 41 102.45 62.83z"/><path fill-opacity=".263" d="M63 23.86A39.14 39.14 0 10102.08 63 39.12 39.12 0 0063 23.86zm-.16 6.75a32.15 32.15 0 11-32.07 32.12 32 32 0 0132.07-32.12z"/><path fill="url(#c)" d="M63 19.63A43.37 43.37 0 10106.31 63 43.34 43.34 0 0063 19.63zm-.18 6.26A36.84 36.84 0 1126.07 62.7a36.74 36.74 0 0136.75-36.81z"/><path fill="url(#d)" d="M61.91 19.91A41.15 41.15 0 10103 61.06a41.09 41.09 0 00-41.09-41.15zm-.18 1.81a39.07 39.07 0 11-39 39 39 39 0 0139-39z"/><path fill="url(#e)" d="M28.91 109.81l5.88-10.13V24.05l-6.29-7.86h24.08v78.77H99.6l-10.71 14.85H28.91z"/><path fill="url(#f)" d="M44.31 24.53l7.08-7.15H30.98l13.33 7.15z"/><path fill="url(#g)" d="M51.39 17.38l-7.08 7.15v71.28h7.08V17.38z"/><path fill="url(#h)" d="M85.02 102.62l12.26-6.47-9 12.47-3.26-6z"/><path fill="url(#i)" d="M55.07 102.45l29.95.17 12.26-6.47H55.07v6.3z"/><path fill="url(#b)" d="M30.98 108.62l18.47-6.14 35.57.14 3.26 6h-57.3z"/><path fill="url(#j)" d="M30.98 108.62l13.66-12.98 5.18 6.98-18.84 6z"/><path fill="#c15928" d="M49.12 102.45h6.2v-6.3a11.19 11.19 0 01-3.2-.31c-.8-.51-.73-2-.73-2h-7.08v3.48a5.09 5.09 0 004.81 5.13z"/><path fill="url(#k)" d="M31 17.38l13.33 7.15v71.53L31 108.62l5-9.56V24.54a2.85 2.85 0 00-.08-.83 3.57 3.57 0 00-.37-.63z"/></svg>
