<svg class="S" xmlns="http://www.w3.org/2000/svg" xmlns:xlink="http://www.w3.org/1999/xlink" viewBox="0 0 126 126"><defs><radialGradient id="radial-gradient" cx="63.39" cy="50.78" fy="13.843826049124203" r="65.31" gradientUnits="userSpaceOnUse"><stop offset="0.01" stop-color="#6b6b6b"/><stop offset="0.09" stop-color="#5f5f5f"/><stop offset="0.29" stop-color="#424242"/><stop offset="0.47" stop-color="#313131"/><stop offset="0.61" stop-color="#2b2b2b"/><stop offset="0.82" stop-color="#111"/><stop offset="1"/></radialGradient><radialGradient id="radial-gradient-2" cx="63" cy="67.45" r="46.13" gradientUnits="userSpaceOnUse"><stop offset="0.7" stop-color="#2b2b2b"/><stop offset="0.92" stop-color="#9a9a9a"/><stop offset="0.93" stop-color="#767676"/><stop offset="0.96" stop-color="#444"/><stop offset="0.98" stop-color="#1f1f1f"/><stop offset="0.99" stop-color="#080808"/><stop offset="1"/></radialGradient><linearGradient id="linear-gradient" x1="-954.1" y1="-396.97" x2="-954.1" y2="-352.18" gradientTransform="translate(-891 -280.83) rotate(180)" gradientUnits="userSpaceOnUse"><stop offset="0.1" stop-color="#fff"/><stop offset="0.18" stop-color="#f5f5f5"/><stop offset="0.31" stop-color="#d9d9d9"/><stop offset="0.48" stop-color="#acacac"/><stop offset="0.68" stop-color="#6e6e6e"/><stop offset="0.91" stop-color="#202020"/><stop offset="1"/></linearGradient><radialGradient id="radial-gradient-3" cx="63" cy="63" fy="47.128999449172916" r="48.01" gradientUnits="userSpaceOnUse"><stop offset="0.08" stop-color="#2c2c2c"/><stop offset="0.34" stop-color="#272727"/><stop offset="0.66" stop-color="#181818"/><stop offset="1"/></radialGradient><clipPath id="clip-path"><path d="M74.13,20.62a43.82,43.82,0,1,0,31.25,53.51A43.83,43.83,0,0,0,74.13,20.62ZM54.87,94A32,32,0,1,1,94,71.13,32,32,0,0,1,54.87,94Z" style="fill:none"/></clipPath></defs><g style="isolation:isolate"><g id="design"><path d="M113,63A50,50,0,1,1,63,13,50,50,0,0,1,113,63Z" style="fill:url(#radial-gradient)"/><path d="M63,108A50,50,0,0,1,13.06,60.32Q13,61.49,13,62.66a50,50,0,0,0,100,0q0-1.17-.06-2.34A50,50,0,0,1,63,108Z" style="opacity:0.5;mix-blend-mode:screen;fill:url(#radial-gradient-2)"/><path d="M108.48,63.32s0,.57,0,1.62c0,.27,0,.56,0,.89s0,.68-.06,1.06,0,.79-.08,1.23-.1.9-.16,1.4c0,.24-.06.49-.08.75s-.09.52-.13.79c-.09.54-.18,1.11-.29,1.69s-.25,1.19-.39,1.82-.33,1.27-.5,1.94a45.16,45.16,0,0,1-3.4,8.59A45.71,45.71,0,0,1,93,98.38c-.74.69-1.56,1.32-2.37,2-.41.32-.84.62-1.26.93l-.64.46-.67.43a45.1,45.1,0,0,1-11.73,5.57,47.43,47.43,0,0,1-6.52,1.49,50.29,50.29,0,0,1-6.72.51c-1.14,0-2.22,0-3.36-.14-.56,0-1.13-.07-1.69-.15l-1.66-.22a47.1,47.1,0,0,1-6.52-1.49,45.32,45.32,0,0,1-11.74-5.57l-.66-.43-.64-.46c-.42-.31-.85-.61-1.26-.93-.81-.65-1.63-1.27-2.38-2A46.6,46.6,0,0,1,29,94.14a47.26,47.26,0,0,1-6.15-9,45.41,45.41,0,0,1-3.39-8.6c-.18-.67-.37-1.31-.51-1.94s-.26-1.24-.39-1.82-.19-1.15-.28-1.69c-.05-.27-.09-.53-.13-.79s-.06-.51-.08-.75c-.06-.5-.11-1-.16-1.4s-.06-.85-.08-1.23,0-.74-.06-1.06,0-.62,0-.89c0-1,0-1.62,0-1.62s0,.56.07,1.62c0,.26,0,.56,0,.88s.06.68.1,1.06.06.79.11,1.23.13.89.19,1.38c0,.24.07.49.11.75s.09.52.14.78c.11.54.2,1.1.33,1.68s.28,1.17.43,1.79.36,1.25.55,1.91a47.71,47.71,0,0,0,3.53,8.44,45.57,45.57,0,0,0,6.19,8.82,46.74,46.74,0,0,0,4.2,4.11c.74.67,1.55,1.27,2.35,1.91.4.31.83.6,1.24.9l.63.45.65.43a45,45,0,0,0,11.54,5.4,45.78,45.78,0,0,0,6.39,1.42,49.72,49.72,0,0,0,6.58.48,49.72,49.72,0,0,0,6.58-.48,45.92,45.92,0,0,0,6.4-1.42,44.82,44.82,0,0,0,11.53-5.4l.66-.43.62-.45c.42-.3.84-.59,1.25-.9.8-.64,1.61-1.24,2.35-1.91a46.74,46.74,0,0,0,4.2-4.11,46,46,0,0,0,6.19-8.82,47.71,47.71,0,0,0,3.53-8.44c.19-.66.4-1.29.55-1.91s.29-1.22.43-1.79.22-1.14.33-1.68c0-.26.09-.52.14-.78s.07-.51.1-.75c.07-.49.13-.95.2-1.38s.07-.85.11-1.23.07-.73.1-1.06,0-.61,0-.88C108.46,63.89,108.48,63.32,108.48,63.32Z" style="opacity:0.5;mix-blend-mode:screen;fill:url(#linear-gradient)"/><path d="M111,63A48,48,0,1,1,63,15,48,48,0,0,1,111,63Z" style="fill:url(#radial-gradient-3)"/><g style="clip-path:url(#clip-path)"><polygon points="64.17 11.28 87.39 17.38 63 63 64.17 11.28" style="fill:#ff9d00"/><polygon points="38.15 17.62 61.31 11.29 63 63 38.15 17.62" style="fill:#ffce00"/><polygon points="107.21 89.87 90.32 106.94 63 63 107.21 89.87" style="fill:#870000"/><polygon points="18.79 36.13 35.68 19.06 63 63 18.79 36.13" style="fill:#fff200"/><polygon points="114.72 64.17 108.63 87.39 63 63 114.72 64.17" style="fill:#af0000"/><polygon points="11.28 61.83 17.38 38.61 63 63 11.28 61.83" style="fill:#b3b700"/><polygon points="108.38 38.15 114.71 61.31 63 63 108.38 38.15" style="fill:#ff4800"/><polygon points="17.62 87.85 11.29 64.69 63 63 17.62 87.85" style="fill:#72ad00"/><polygon points="89.87 18.79 106.94 35.68 63 63 89.87 18.79" style="fill:#ff6d00"/><polygon points="36.13 107.21 19.06 90.32 63 63 36.13 107.21" style="fill:#128937"/></g><path d="M58.85,96.9V88.79a30.89,30.89,0,0,1-7.41-1.9,22.2,22.2,0,0,1-7-4.26l6-9.4a28.08,28.08,0,0,0,6,3.48,13.88,13.88,0,0,0,5.23,1.06c2,0,3.51-.37,4.37-1.1a4.23,4.23,0,0,0,1.3-3.44,3.66,3.66,0,0,0-1.54-2.88,22.43,22.43,0,0,0-3.89-2.47q-2.35-1.22-5-2.55a28.79,28.79,0,0,1-5-3.21,16.68,16.68,0,0,1-3.89-4.37,11.4,11.4,0,0,1-1.54-6.08A14.9,14.9,0,0,1,58.85,36.11V27.68h9.08v8.26a19.42,19.42,0,0,1,6.85,2.44,25.2,25.2,0,0,1,5.39,4.37l-6.89,8a19.09,19.09,0,0,0-4.17-2.92,9.57,9.57,0,0,0-4.26-1A6.84,6.84,0,0,0,61,47.7c-.87.59-1.3,1.7-1.3,3.32A3.3,3.3,0,0,0,61.2,53.7,26.05,26.05,0,0,0,65.09,56q2.35,1.13,5,2.43a26.31,26.31,0,0,1,5,3.16A16,16,0,0,1,79,66a11.93,11.93,0,0,1,1.54,6.24,16.92,16.92,0,0,1-3.12,10.21q-3.12,4.29-9.52,5.83v8.6Z" style="fill:#fff200"/></g></g></svg>
