<svg class="S" xmlns="http://www.w3.org/2000/svg" viewBox="0 0 126 126"><defs/><linearGradient id="a" gradientUnits="userSpaceOnUse" x1="63.632" y1="64.908" x2="116.002" y2="78.338" gradientTransform="matrix(1 0 0 -1 0 128)"><stop offset="0" stop-color="#a7a9ac"/><stop offset=".12" stop-color="#bbbdbf"/><stop offset=".31" stop-color="#d3d4d6"/><stop offset=".5" stop-color="#e4e5e6"/><stop offset=".72" stop-color="#eeefef"/><stop offset=".99" stop-color="#f1f2f2"/></linearGradient><path d="M98.8 61.3c-8.9-22.9-7.5-24.8-5-40.2 1.5-9.3-6.3-9.5-7.6-9.5s-9.6.2-8 9.5c1.7 10 4.3 16.4-5 40.2-7.2 18.4 7.3 40.5 7.3 40.5h12.2c0-.1 12.7-23.6 6.1-40.5z" fill="url(#a)"/><linearGradient id="b" gradientUnits="userSpaceOnUse" x1="79.506" y1="94.174" x2="91.386" y2="92.024" gradientTransform="matrix(1 0 0 -1 0 128)"><stop offset="0" stop-color="#991a14"/><stop offset=".08" stop-color="#ab1e13"/><stop offset=".23" stop-color="#c92412"/><stop offset=".39" stop-color="#e12a11"/><stop offset=".56" stop-color="#f22d11"/><stop offset=".75" stop-color="#fc2f10"/><stop offset=".99" stop-color="#ff3010"/></linearGradient><path d="M79.8 32.5c.1 1.6 0 3.3-.1 4.9H92c-.1-1.6-.1-3.3.1-4.9H79.8z" fill="url(#b)"/><linearGradient id="c" gradientUnits="userSpaceOnUse" x1="78.531" y1="85.245" x2="91.121" y2="84.115" gradientTransform="matrix(1 0 0 -1 0 128)"><stop offset="0" stop-color="#991a14"/><stop offset=".08" stop-color="#ab1e13"/><stop offset=".23" stop-color="#c92412"/><stop offset=".39" stop-color="#e12a11"/><stop offset=".56" stop-color="#f22d11"/><stop offset=".75" stop-color="#fc2f10"/><stop offset=".99" stop-color="#ff3010"/></linearGradient><path d="M93.5 45.8c-.4-1.6-.8-3.3-1.1-4.9H79.3c-.3 1.5-.6 3.1-1 4.9h15.2z" fill="url(#c)"/><linearGradient id="d" gradientUnits="userSpaceOnUse" x1="80.911" y1="62.829" x2="133.271" y2="76.259" gradientTransform="matrix(1 0 0 -1 0 128)"><stop offset="0" stop-color="#a7a9ac"/><stop offset=".12" stop-color="#bbbdbf"/><stop offset=".31" stop-color="#d3d4d6"/><stop offset=".5" stop-color="#e4e5e6"/><stop offset=".72" stop-color="#eeefef"/><stop offset=".99" stop-color="#f1f2f2"/></linearGradient><path d="M116.1 63.3c-8.9-22.9-7.5-24.8-5-40.2 1.5-9.3-6.3-9.5-7.6-9.5s-9.6.2-8 9.5c1.7 10 4.3 16.4-5 40.2-7.2 18.4 7.3 40.5 7.3 40.5H110s12.7-23.5 6.1-40.5z" fill="url(#d)"/><linearGradient id="e" gradientUnits="userSpaceOnUse" x1="96.787" y1="92.095" x2="108.656" y2="89.945" gradientTransform="matrix(1 0 0 -1 0 128)"><stop offset="0" stop-color="#991a14"/><stop offset=".08" stop-color="#ab1e13"/><stop offset=".23" stop-color="#c92412"/><stop offset=".39" stop-color="#e12a11"/><stop offset=".56" stop-color="#f22d11"/><stop offset=".75" stop-color="#fc2f10"/><stop offset=".99" stop-color="#ff3010"/></linearGradient><path d="M97.1 34.6c.1 1.6 0 3.3-.1 4.9h12.3c-.1-1.6-.1-3.3.1-4.9H97.1z" fill="url(#e)"/><linearGradient id="f" gradientUnits="userSpaceOnUse" x1="95.795" y1="83.156" x2="108.385" y2="82.026" gradientTransform="matrix(1 0 0 -1 0 128)"><stop offset="0" stop-color="#991a14"/><stop offset=".08" stop-color="#ab1e13"/><stop offset=".23" stop-color="#c92412"/><stop offset=".39" stop-color="#e12a11"/><stop offset=".56" stop-color="#f22d11"/><stop offset=".75" stop-color="#fc2f10"/><stop offset=".99" stop-color="#ff3010"/></linearGradient><path d="M110.7 47.9c-.5-1.6-.8-3.2-1.1-4.9H96.5c-.3 1.5-.6 3.1-1 4.9h15.2z" fill="url(#f)"/><linearGradient id="g" gradientUnits="userSpaceOnUse" x1="43.59" y1="62.834" x2="95.96" y2="76.264" gradientTransform="matrix(1 0 0 -1 0 128)"><stop offset="0" stop-color="#a7a9ac"/><stop offset=".12" stop-color="#bbbdbf"/><stop offset=".31" stop-color="#d3d4d6"/><stop offset=".5" stop-color="#e4e5e6"/><stop offset=".72" stop-color="#eeefef"/><stop offset=".99" stop-color="#f1f2f2"/></linearGradient><path d="M78.8 63.3c-8.9-22.9-7.5-24.8-5.1-40.2 1.5-9.3-6.3-9.5-7.6-9.5s-9.6.2-8 9.5c1.7 10 4.3 16.4-5 40.2-7.2 18.4 7.3 40.5 7.3 40.5h12.3s12.7-23.5 6.1-40.5z" fill="url(#g)"/><linearGradient id="h" gradientUnits="userSpaceOnUse" x1="59.465" y1="92.089" x2="71.335" y2="89.939" gradientTransform="matrix(1 0 0 -1 0 128)"><stop offset="0" stop-color="#991a14"/><stop offset=".08" stop-color="#ab1e13"/><stop offset=".23" stop-color="#c92412"/><stop offset=".39" stop-color="#e12a11"/><stop offset=".56" stop-color="#f22d11"/><stop offset=".75" stop-color="#fc2f10"/><stop offset=".99" stop-color="#ff3010"/></linearGradient><path d="M59.8 34.6c.1 1.6 0 3.3-.1 4.9H72c-.1-1.6-.1-3.3.1-4.9H59.8z" fill="url(#h)"/><radialGradient id="i" cx="32.166" cy="68.511" r="61.07" gradientTransform="matrix(1 0 0 -1 0 128)" gradientUnits="userSpaceOnUse"><stop offset="0" stop-color="#d4ebfa"/><stop offset=".33" stop-color="#70c9f1"/><stop offset="1" stop-color="#134192"/></radialGradient><path d="M86.1 96.1c-13.6 19.4-40.4 24.1-59.8 10.5S2.2 66.3 15.8 46.9s40.4-24.1 59.8-10.5C95 49.9 99.7 76.7 86.1 96.1z" fill="url(#i)"/><linearGradient id="j" gradientUnits="userSpaceOnUse" x1="26.973" y1="87.177" x2="37.573" y2="80.117" gradientTransform="matrix(1 0 0 -1 0 128)"><stop offset="0" stop-color="#70c9f1"/><stop offset=".21" stop-color="#6ec6ef"/><stop offset=".38" stop-color="#67bce8"/><stop offset=".54" stop-color="#5cabdc"/><stop offset=".68" stop-color="#4b93cc"/><stop offset=".82" stop-color="#3675b6"/><stop offset=".95" stop-color="#1d509c"/><stop offset="1" stop-color="#134192"/></linearGradient><path d="M39.5 50.5c-2.5 2.4-6.2 2.7-8.3.6s-1.6-5.8.9-8.2 6.3-2.7 8.3-.6 1.6 5.8-.9 8.2z" fill="url(#j)"/><path d="M41.2 43.5c-1.7.1-3.2.8-4.4 2-2 1.7-2.7 4.5-1.8 7 1.7-.1 3.2-.8 4.4-2 2-1.8 2.7-4.6 1.8-7z" fill="#1f3255"/><linearGradient id="k" gradientUnits="userSpaceOnUse" x1="46.234" y1="82.269" x2="56.834" y2="75.209" gradientTransform="matrix(1 0 0 -1 0 128)"><stop offset="0" stop-color="#70c9f1"/><stop offset=".21" stop-color="#6ec6ef"/><stop offset=".38" stop-color="#67bce8"/><stop offset=".54" stop-color="#5cabdc"/><stop offset=".68" stop-color="#4b93cc"/><stop offset=".82" stop-color="#3675b6"/><stop offset=".95" stop-color="#1d509c"/><stop offset="1" stop-color="#134192"/></linearGradient><path d="M58.7 55.4c-2.5 2.4-6.3 2.7-8.3.6s-1.6-5.8.9-8.2 6.3-2.7 8.3-.6 1.7 5.8-.9 8.2z" fill="url(#k)"/><path d="M60.5 48.4c-1.7.1-3.2.8-4.4 2-2 1.7-2.7 4.5-1.7 7 1.7-.1 3.2-.8 4.4-2 1.9-1.8 2.6-4.5 1.7-7z" fill="#1f3255"/><linearGradient id="l" gradientUnits="userSpaceOnUse" x1="18.133" y1="54.173" x2="32.453" y2="49.403" gradientTransform="matrix(1 0 0 -1 0 128)"><stop offset="0" stop-color="#70c9f1"/><stop offset=".21" stop-color="#6ec6ef"/><stop offset=".38" stop-color="#67bce8"/><stop offset=".54" stop-color="#5cabdc"/><stop offset=".68" stop-color="#4b93cc"/><stop offset=".82" stop-color="#3675b6"/><stop offset=".95" stop-color="#1d509c"/><stop offset="1" stop-color="#134192"/></linearGradient><path d="M35.5 79.2c-1.2 4.8-4.7 8.1-7.8 7.3s-4.6-5.3-3.4-10.1S29 68.3 32 69s4.7 5.3 3.5 10.2z" fill="url(#l)"/><path d="M35.5 79.2c.6-2.3.5-4.8-.3-7.1-2.6 0-5.3 2.8-6.3 6.8-.8 2.5-.5 5.3.8 7.6 2.5-.7 4.8-3.6 5.8-7.3z" fill="#1f3255"/></svg>
