<svg class="S" xmlns="http://www.w3.org/2000/svg" xmlns:xlink="http://www.w3.org/1999/xlink" viewBox="0 0 126 126"><defs><linearGradient id="linear-gradient" x1="49.2" y1="16.41" x2="76.8" y2="16.41" gradientUnits="userSpaceOnUse"><stop offset="0" stop-color="#bf7f00"/><stop offset="1" stop-color="#edcd00"/></linearGradient><linearGradient id="linear-gradient-2" x1="49.2" y1="16.41" x2="63" y2="16.41" gradientUnits="userSpaceOnUse"><stop offset="0" stop-color="#eda400"/><stop offset="1" stop-color="#bf7f00"/></linearGradient><linearGradient id="linear-gradient-3" x1="49.2" y1="-79.32" x2="76.8" y2="-79.32" gradientTransform="translate(126 30.27) rotate(180)" xlink:href="#linear-gradient"/><linearGradient id="linear-gradient-4" x1="49.2" y1="-79.32" y2="-79.32" gradientTransform="translate(126 30.27) rotate(180)" xlink:href="#linear-gradient-2"/><linearGradient id="linear-gradient-5" x1="49.2" y1="16.41" x2="76.8" y2="16.41" gradientTransform="translate(126) rotate(90)" xlink:href="#linear-gradient"/><linearGradient id="linear-gradient-6" x1="49.2" y1="16.41" y2="16.41" gradientTransform="translate(126) rotate(90)" xlink:href="#linear-gradient-2"/><linearGradient id="linear-gradient-7" x1="49.2" y1="-79.32" x2="76.8" y2="-79.32" gradientTransform="translate(95.73 126) rotate(-90)" xlink:href="#linear-gradient"/><linearGradient id="linear-gradient-8" x1="49.2" y1="-79.32" y2="-79.32" gradientTransform="translate(95.73 126) rotate(-90)" xlink:href="#linear-gradient-2"/><linearGradient id="linear-gradient-9" x1="63" y1="95.33" x2="63" y2="30.67" gradientUnits="userSpaceOnUse"><stop offset="0" stop-color="#ba8100"/><stop offset="1" stop-color="#805400"/></linearGradient><linearGradient id="linear-gradient-10" x1="63" y1="101.39" y2="24.61" xlink:href="#linear-gradient-2"/><linearGradient id="linear-gradient-11" x1="28.84" y1="63" x2="97.16" y2="63" xlink:href="#linear-gradient-2"/><linearGradient id="linear-gradient-12" x1="187.11" y1="1228.61" x2="198.49" y2="1228.61" gradientTransform="translate(-972.26 -699.5) rotate(-45)" xlink:href="#linear-gradient"/><linearGradient id="linear-gradient-13" x1="187.11" y1="1228.61" x2="192.87" y2="1228.61" gradientTransform="translate(-972.26 -699.5) rotate(-45)" xlink:href="#linear-gradient-2"/><linearGradient id="linear-gradient-14" x1="187.11" y1="1140.59" x2="198.49" y2="1140.59" gradientTransform="translate(1036.02 763.26) rotate(135)" xlink:href="#linear-gradient"/><linearGradient id="linear-gradient-15" x1="187.11" y1="1140.59" x2="192.87" y2="1140.59" gradientTransform="translate(1036.02 763.26) rotate(135)" xlink:href="#linear-gradient-2"/><linearGradient id="linear-gradient-16" x1="187.11" y1="1228.61" x2="198.49" y2="1228.61" gradientTransform="translate(825.5 -972.26) rotate(45)" xlink:href="#linear-gradient"/><linearGradient id="linear-gradient-17" x1="187.11" y1="1228.61" x2="192.87" y2="1228.61" gradientTransform="translate(825.5 -972.26) rotate(45)" xlink:href="#linear-gradient-2"/><linearGradient id="linear-gradient-18" x1="187.11" y1="1140.59" x2="198.49" y2="1140.59" gradientTransform="translate(-637.26 1036.02) rotate(-135)" xlink:href="#linear-gradient"/><linearGradient id="linear-gradient-19" x1="187.11" y1="1140.59" x2="192.87" y2="1140.59" gradientTransform="translate(-637.26 1036.02) rotate(-135)" xlink:href="#linear-gradient-2"/></defs><polygon points="77.78 27.13 63 3 48.22 27.13 63 28.84 77.78 27.13" style="fill:#8e5b00"/><polygon points="76.8 27.13 63 3.98 49.2 27.13 63 28.84 76.8 27.13" style="fill:url(#linear-gradient)"/><polygon points="63 28.84 63 3.98 49.2 27.13 63 28.84" style="fill:url(#linear-gradient-2)"/><polygon points="48.22 98.87 63 123 77.78 98.87 63 97.16 48.22 98.87" style="fill:#8e5b00"/><polygon points="49.2 98.87 63 122.02 76.8 98.87 63 97.16 49.2 98.87" style="fill:url(#linear-gradient-3)"/><polygon points="63 97.16 63 122.02 76.8 98.87 63 97.16" style="fill:url(#linear-gradient-4)"/><polygon points="98.87 77.78 123 63 98.87 48.22 97.16 63 98.87 77.78" style="fill:#8e5b00"/><polygon points="98.87 76.8 122.02 63 98.87 49.2 97.16 63 98.87 76.8" style="fill:url(#linear-gradient-5)"/><polygon points="97.16 63 122.02 63 98.87 49.2 97.16 63" style="fill:url(#linear-gradient-6)"/><polygon points="27.13 48.22 3 63 27.13 77.78 28.84 63 27.13 48.22" style="fill:#8e5b00"/><polygon points="27.13 49.2 3.98 63 27.13 76.8 28.84 63 27.13 49.2" style="fill:url(#linear-gradient-7)"/><polygon points="28.84 63 3.98 63 27.13 76.8 28.84 63" style="fill:url(#linear-gradient-8)"/><circle cx="63" cy="63" r="39.04" style="fill:#8e5b00"/><circle cx="63" cy="63" r="32.33" style="opacity:0.6000000000000001;fill:url(#linear-gradient-9)"/><path d="M63,24.61A38.39,38.39,0,1,0,101.39,63,38.39,38.39,0,0,0,63,24.61Zm0,69.27A30.88,30.88,0,1,1,93.88,63,30.87,30.87,0,0,1,63,93.88Z" style="fill:url(#linear-gradient-10)"/><path d="M63,28.84A34.16,34.16,0,1,0,97.16,63,34.15,34.15,0,0,0,63,28.84Zm0,65A30.88,30.88,0,1,1,93.88,63,30.87,30.87,0,0,1,63,93.88Z" style="fill:url(#linear-gradient-11)"/><path d="M56.67,87.86a2.22,2.22,0,0,1-.37,0,7.15,7.15,0,0,1-1.53-.41,5,5,0,0,0-1.6-.37,11.94,11.94,0,0,1-3.4-.84,18.75,18.75,0,0,0-3.06-.75,4.08,4.08,0,0,1-2.94-2.21l-.39-.77h.67c.46-.75,1.76-1,3-1.32a7.64,7.64,0,0,0,1.39-.38A11.14,11.14,0,0,1,51,80.06a7.85,7.85,0,0,0,2.57-.84,2.65,2.65,0,0,0,.76-.65A3.49,3.49,0,0,1,55,78a8.66,8.66,0,0,1,1.91-.68L58,77a29.54,29.54,0,0,0,3-.87,32,32,0,0,0,3.29-1.72c.15-.13.39-.31.63-.49a16.94,16.94,0,0,0,1.8-1.49l0,0,0,0a11.27,11.27,0,0,0,2.39-2.26,29.16,29.16,0,0,1,1.76-2.88l0-.06.06,0a4.91,4.91,0,0,1,.86-.57c.64-.38.77-.46.56-1.09a10.88,10.88,0,0,1-.33-4.08l0-.44c.15-2.28.31-4.86-1-6.5-.41-.49-.77-1-1.14-1.46s-.71-.95-1.1-1.42a3.23,3.23,0,0,1-.77-1.78,4,4,0,0,1,0-.53v-.06H68a2.74,2.74,0,0,0-.72.13,3.88,3.88,0,0,1-1,.18,8.4,8.4,0,0,1-1-.09,6.54,6.54,0,0,0-.89-.08,19.67,19.67,0,0,0-4.18.3A11.25,11.25,0,0,0,57,51a11.42,11.42,0,0,0-1.29,1.07,13.29,13.29,0,0,1-1.42,1.16l-.06,0-.06,0A2.58,2.58,0,0,0,53,54l-.07.3a4.72,4.72,0,0,0-.2,1.23v.06l0,.06a8.15,8.15,0,0,0,0,3.74c.43,1.41,1.42,3.82,3.14,3.82a2.47,2.47,0,0,0,.92-.2c.28-.14.33-.28.35-.33.13-.39-.26-1.15-.6-1.82-.6-1.15-1.41-2.73,0-3.7l0,0,.06,0a7,7,0,0,1,2.44-.49,5.08,5.08,0,0,1,1.69.28,10.25,10.25,0,0,1,3.95,1,2.41,2.41,0,0,1,1.17,2,3.46,3.46,0,0,0,.35,1.21,5.73,5.73,0,0,1,1.2,3.77,8,8,0,0,1-3.76,6.36,5.39,5.39,0,0,1-2.21.39,6.47,6.47,0,0,0-1.43.15,4.75,4.75,0,0,0-1.13.56,3.92,3.92,0,0,1-2,.73h-.07L56,72.85l-1-.27a1.94,1.94,0,0,0-.68-.11,2.92,2.92,0,0,0-.81.11h-.13a2.36,2.36,0,0,1-1.73-1,2.29,2.29,0,0,0-1.11-.8l-.4-.1v-.42c0-.38-.74-1-1.23-1.38a5.36,5.36,0,0,1-.9-.85l-.14-.2c-.78-1.07-1.51-2.08-2.24-3A14,14,0,0,1,44,62.72c-.16-.25-.32-.5-.48-.73a4.69,4.69,0,0,1-.4-2.11,6.35,6.35,0,0,0-.15-1.41l-.2-.72-.28-1,0-.06v-2a5,5,0,0,0-.29-1.43,6.5,6.5,0,0,1-.36-1.93c0-.93.2-1.19.83-1.51l.39-.22a2.65,2.65,0,0,0,.76-.65,3.49,3.49,0,0,1,.66-.61,8.31,8.31,0,0,0,2.4-2.09,3.3,3.3,0,0,1,.83-1,3.65,3.65,0,0,0,.44-.45,7.8,7.8,0,0,1,1-1.36,20.78,20.78,0,0,1,2.11-1.51l1.15-.78.29-.2c1.66-1.19,3.38-2.42,5.48-2.42a5.94,5.94,0,0,1,1.88.32,3.2,3.2,0,0,0,.48,0,3.34,3.34,0,0,0,1.26-.31,5.37,5.37,0,0,1,1.38-.4l.36,0a4,4,0,0,1,2.16.81,6.9,6.9,0,0,0,.95.53l1.09.34a22.77,22.77,0,0,1,2.27.79,20.86,20.86,0,0,1,2.2,1c.44.22.87.43,1.31.62a7.69,7.69,0,0,1,3.66,3.06,16.61,16.61,0,0,0,1.28,1.52c.24.26.48.52.75.79,1.3,1.35,3,3.16,2.56,4.94l0,.1c.06.27.11.55.15.85a5.82,5.82,0,0,0,.31,1.33,6.93,6.93,0,0,1,.68,2.59,6.72,6.72,0,0,0,.62,1.87,5.24,5.24,0,0,1,.65,2.66V62l0,0a4.52,4.52,0,0,1-1.31,2c0,.19,0,.31.19.59a2.32,2.32,0,0,1,.34.74l0,.06v.07a9.1,9.1,0,0,1-.5,3.65,14.25,14.25,0,0,1-1.11,3.32l-.07.17,0,.06A16.17,16.17,0,0,0,80,75.2a8.13,8.13,0,0,1-1.34,3.33l0,0,0,0A16.68,16.68,0,0,1,76,80.74a3.14,3.14,0,0,0-.86,1,4.38,4.38,0,0,1-1.21,1.37,19.27,19.27,0,0,1-3.11,1.63,9.06,9.06,0,0,1-1.78.51,8.87,8.87,0,0,0-1.58.45l-.72.19a28.18,28.18,0,0,1-3.09.64c-.62.07-1.22.11-1.82.14s-1.35.09-2,.17a4.65,4.65,0,0,0-1.17.43,4.72,4.72,0,0,1-2,.56Z" style="fill:#66c4fe"/><path d="M63.53,38.67c1.1,0,1.86.85,2.9,1.29s2.23.65,3.36,1.13,2.37,1.11,3.5,1.59c2.38.79,3.19,2.88,4.78,4.46,1.27,1.44,4,3.68,3,5.6h.17A16.44,16.44,0,0,0,81.74,55a6.49,6.49,0,0,1,.65,2.4c.14,1.58,1.44,3,1.27,4.47a4,4,0,0,1-1.27,1.87c-.31.79.31,1.1.48,1.75A8.55,8.55,0,0,1,82.39,69a14.46,14.46,0,0,1-1.13,3.36A16.57,16.57,0,0,0,79.51,75a7.42,7.42,0,0,1-1.27,3.19,16.12,16.12,0,0,1-2.55,2.07c-.93.65-1.1,1.75-2.06,2.4a19.23,19.23,0,0,1-3,1.58c-1.13.48-2.23.48-3.36,1a32.12,32.12,0,0,1-3.67.8c-1.3.14-2.57.14-3.84.31-1,.15-1.94,1-3.06,1l-.3,0c-1.13-.15-2.07-.79-3.2-.79a11.32,11.32,0,0,1-3.19-.8,20.38,20.38,0,0,0-3.19-.79A3.55,3.55,0,0,1,44.24,83h.17c.14-1.1,3.34-1.27,4.3-1.75,1.75-.79,3.53-.63,5.11-1.59.65-.31,1-1,1.44-1.27a8.53,8.53,0,0,1,1.92-.65,39,39,0,0,0,4-1.13,31.75,31.75,0,0,0,3.36-1.75,27,27,0,0,0,2.54-2.06,12,12,0,0,0,2.55-2.4,26.07,26.07,0,0,1,1.75-2.88c.94-.8,2.07-.8,1.59-2.24a10.47,10.47,0,0,1-.32-3.84c.15-2.4.46-5.42-1.12-7.34-.8-1-1.45-1.93-2.24-2.89a2.81,2.81,0,0,1-.65-1.44c0-.81.32-1.12-.64-1.12-.63,0-1.11.31-1.76.31S65,48.8,64.31,48.8a20.14,20.14,0,0,0-4.29.31,11.87,11.87,0,0,0-3.37,1.44c-1,.65-1.75,1.59-2.71,2.23a2.9,2.9,0,0,0-1.44,1,7.56,7.56,0,0,0-.31,1.76,8.63,8.63,0,0,0,0,4c.53,1.76,1.65,4.23,3.65,4.23A2.91,2.91,0,0,0,57,63.47c2.37-1.13-2.24-4.47-.17-5.91a6.53,6.53,0,0,1,2.25-.45,4.45,4.45,0,0,1,1.59.28,9.75,9.75,0,0,1,3.84,1c1.11.63.63,1.9,1.27,3a5.31,5.31,0,0,1,1.13,3.5,7.46,7.46,0,0,1-3.5,5.91c-1.11.48-2.38.17-3.51.48s-1.9,1.27-3,1.27l-1.76-.48a2.55,2.55,0,0,0-.81-.12,4,4,0,0,0-.94.12c-1.13,0-1.44-1.44-2.71-1.75,0-1-1.75-1.9-2.23-2.54-.82-1.13-1.61-2.24-2.4-3.2a20.07,20.07,0,0,1-2.07-2.88c-.48-1-.17-2.23-.48-3.36-.17-.62-.31-1.1-.48-1.75V54.66c0-1.13-.65-2.09-.65-3.36,0-1,.17-.8,1-1.28.65-.31,1-1,1.44-1.27a8.83,8.83,0,0,0,2.55-2.23c.31-.65,1-1,1.27-1.44a8.23,8.23,0,0,1,1-1.27c1-.8,2.06-1.44,3.19-2.24,1.77-1.25,3.43-2.52,5.47-2.52a5.38,5.38,0,0,1,1.71.29,3,3,0,0,0,.64.07c1,0,1.66-.58,2.72-.72l.3,0m0-1.06v0l-.44,0a6.27,6.27,0,0,0-1.5.43,3,3,0,0,1-1.08.28,1.59,1.59,0,0,1-.36,0,6.62,6.62,0,0,0-2-.32c-2.27,0-4.06,1.28-5.79,2.51l-.29.21c-.38.27-.76.52-1.14.77A23.55,23.55,0,0,0,48.83,43l0,0,0,0a8.3,8.3,0,0,0-1.1,1.44,2.27,2.27,0,0,1-.35.35A4,4,0,0,0,46.35,46a7.85,7.85,0,0,1-2.18,1.86l0,0a3.9,3.9,0,0,0-.75.7,2.08,2.08,0,0,1-.56.5l0,0-.05,0-.36.2a1.82,1.82,0,0,0-1.11,2,6.88,6.88,0,0,0,.39,2.08,4.77,4.77,0,0,1,.26,1.28v2.05l0,.13c.1.39.2.72.29,1s.13.46.2.72a5.69,5.69,0,0,1,.13,1.29A5.33,5.33,0,0,0,43,62.17l0,.06,0,.05.47.72a15.06,15.06,0,0,0,1.68,2.28c.72.87,1.43,1.86,2.19,2.9l.15.21a6.12,6.12,0,0,0,1,1,5,5,0,0,1,1,1v.79l.81.2a1.9,1.9,0,0,1,.85.65,2.83,2.83,0,0,0,2.11,1.13h.14l.13,0a2.69,2.69,0,0,1,.67-.09,1.51,1.51,0,0,1,.46.06l0,0h0l1,.27.73.21.14,0h.14a4.37,4.37,0,0,0,2.3-.81,4.3,4.3,0,0,1,1-.5,5.63,5.63,0,0,1,1.29-.13,6.09,6.09,0,0,0,2.35-.4l.07,0,.06,0a8.49,8.49,0,0,0,4-6.74v-.07a6.45,6.45,0,0,0-1.3-4.1,3.21,3.21,0,0,1-.25-1A2.94,2.94,0,0,0,65,57.43l0,0,0,0a10.91,10.91,0,0,0-4.07-1,5.36,5.36,0,0,0-1.78-.29,7.52,7.52,0,0,0-2.62.52l-.13,0-.11.07c-1.78,1.24-.76,3.21-.16,4.38a5.3,5.3,0,0,1,.58,1.39l-.08,0a1.87,1.87,0,0,1-.69.15c-1.46,0-2.37-2.6-2.63-3.45a7.59,7.59,0,0,1,0-3.45l0-.12V55.5a4.58,4.58,0,0,1,.18-1.1c0-.06,0-.11,0-.18a2.34,2.34,0,0,1,.81-.43l.13,0,.11-.08A11.8,11.8,0,0,0,56,52.45a11.13,11.13,0,0,1,1.24-1,10.86,10.86,0,0,1,3-1.29,19.24,19.24,0,0,1,4-.28c.26,0,.53,0,.82.07a7.62,7.62,0,0,0,1.1.1,4.06,4.06,0,0,0,1.18-.2l.16,0a3.64,3.64,0,0,0,.84,2l0,0,0,0c.39.46.73.92,1.09,1.4s.74,1,1.15,1.48c1.21,1.47,1,3.94.92,6.12l0,.45a11.6,11.6,0,0,0,.33,4.19l0,0v0c0,.1,0,.17.06.22l-.39.24a5.66,5.66,0,0,0-.93.63l-.12.09-.08.12a28.82,28.82,0,0,0-1.76,2.89,10.83,10.83,0,0,1-2.25,2.11L66.4,72l-.08.07a16.22,16.22,0,0,1-1.74,1.44l-.65.49a28.75,28.75,0,0,1-3.18,1.66,26.73,26.73,0,0,1-2.89.83l-1,.25-.16,0a8.85,8.85,0,0,0-2,.69l0,0,0,0a4.44,4.44,0,0,0-.77.71,1.92,1.92,0,0,1-.55.5l0,0,0,0a7.13,7.13,0,0,1-2.4.77,11.58,11.58,0,0,0-2.6.75,7.54,7.54,0,0,1-1.3.35A6.24,6.24,0,0,0,43.78,82H42.53l.76,1.53A4.6,4.6,0,0,0,46.63,86a18.64,18.64,0,0,1,3,.74,12.41,12.41,0,0,0,3.43.85h.13a4.24,4.24,0,0,1,1.42.34,8,8,0,0,0,1.64.44,3.25,3.25,0,0,0,.44,0,5.16,5.16,0,0,0,2.18-.61,4.11,4.11,0,0,1,1-.38c.64-.09,1.29-.13,2-.17s1.2-.07,1.83-.14a27.92,27.92,0,0,0,3.18-.66l.62-.16.09,0,.08,0a7.78,7.78,0,0,1,1.49-.42A10.13,10.13,0,0,0,71,85.26a20.67,20.67,0,0,0,3.19-1.67,4.74,4.74,0,0,0,1.36-1.54,3,3,0,0,1,.73-.88A17.38,17.38,0,0,0,79,79l.07-.07.06-.08a8.64,8.64,0,0,0,1.41-3.47A15.71,15.71,0,0,1,82.1,73l.08-.11.06-.13,0-.1a15.55,15.55,0,0,0,1.14-3.39,9.71,9.71,0,0,0,.51-3.79v-.13l0-.14a3.15,3.15,0,0,0-.41-.88l-.08-.13a4.84,4.84,0,0,0,1.25-2l0-.12,0-.11A5.74,5.74,0,0,0,84,59a6.36,6.36,0,0,1-.57-1.71,7.47,7.47,0,0,0-.73-2.74,5.54,5.54,0,0,1-.26-1.2c0-.29-.09-.58-.16-.87.43-2-1.44-4-2.73-5.31l-.71-.75,0,0,0,0a13.93,13.93,0,0,1-1.24-1.47,8.24,8.24,0,0,0-3.91-3.23c-.41-.18-.82-.38-1.25-.59a20.31,20.31,0,0,0-2.25-1,21.79,21.79,0,0,0-2.3-.8c-.37-.11-.74-.22-1.06-.33A8.23,8.23,0,0,1,66,38.5a4.42,4.42,0,0,0-2.43-.89Z" style="fill:#1f50aa"/><path d="M63,32.12A30.88,30.88,0,1,0,93.88,63,30.87,30.87,0,0,0,63,32.12ZM63,93.2A30.2,30.2,0,1,1,93.2,63,30.2,30.2,0,0,1,63,93.2Z" style="fill:#8e5b00"/><polygon points="40.79 31.67 25.94 25.94 31.69 40.81 38.84 38.84 40.79 31.67" style="fill:#8e5b00"/><polygon points="40.13 32.18 26.91 26.91 32.08 40.23 38.84 38.84 40.13 32.18" style="fill:url(#linear-gradient-12)"/><polygon points="38.84 38.84 26.91 26.91 32.08 40.23 38.84 38.84" style="fill:url(#linear-gradient-13)"/><polygon points="85.21 94.33 100.06 100.06 94.31 85.19 87.16 87.16 85.21 94.33" style="fill:#8e5b00"/><polygon points="85.88 93.82 99.09 99.09 93.92 85.77 87.16 87.16 85.88 93.82" style="fill:url(#linear-gradient-14)"/><polygon points="87.16 87.16 99.09 99.09 93.92 85.77 87.16 87.16" style="fill:url(#linear-gradient-15)"/><polygon points="94.33 40.79 100.06 25.94 85.19 31.69 87.16 38.84 94.33 40.79" style="fill:#8e5b00"/><polygon points="93.82 40.13 99.09 26.91 85.77 32.08 87.16 38.84 93.82 40.13" style="fill:url(#linear-gradient-16)"/><polygon points="87.16 38.84 99.09 26.91 85.77 32.08 87.16 38.84" style="fill:url(#linear-gradient-17)"/><polygon points="31.67 85.21 25.94 100.06 40.81 94.31 38.84 87.16 31.67 85.21" style="fill:#8e5b00"/><polygon points="32.18 85.88 26.91 99.09 40.23 93.92 38.84 87.16 32.18 85.88" style="fill:url(#linear-gradient-18)"/><polygon points="38.84 87.16 26.91 99.09 40.23 93.92 38.84 87.16" style="fill:url(#linear-gradient-19)"/></svg>
