<svg class="S" xmlns="http://www.w3.org/2000/svg" viewBox="0 0 126 126"><defs><linearGradient id="a" x1="63" x2="63" y1="108.96" y2="17.04" gradientUnits="userSpaceOnUse"><stop offset="0" stop-color="#debc62"/><stop offset="1" stop-color="#f9dfa5"/></linearGradient></defs><path fill="url(#a)" d="M56.17 62.94a6.77 6.77 0 005.17 6.56v18.76s-2.08-4.93-5.17-6.26a20.17 20.17 0 015.16-39.12v13.49a6.78 6.78 0 00-5.16 6.57zm-16.75 19.6A30.63 30.63 0 0182.56 39.4L93 28.94a45.37 45.37 0 00-55.23-3.77h.06a1.85 1.85 0 010 2.6l-10 10a1.83 1.83 0 01-2.6 0h-.06a45.21 45.21 0 00-7 32.4C22.57 94.72 13 109 13 109l16-16zm68.36-26.74C103 31.67 113 17 113 17L86.59 43.45a30.63 30.63 0 01-43.12 43.13L33 97a45.36 45.36 0 0055.11 3.67l-.05-.06a1.83 1.83 0 010-2.6l10-10a1.85 1.85 0 012.6 0v.06a45.3 45.3 0 007-32.31zM69.72 43.94c-3.09-1.37-5.16-6.31-5.16-6.31v18.74a6.76 6.76 0 010 13.13v13.55a20.17 20.17 0 005.15-39.11z"/></svg>
