<svg class="S" xmlns="http://www.w3.org/2000/svg" viewBox="0 0 126 126"><circle cx="63" cy="63" r="50" fill="#00506e"/><path fill="#ffba0d" d="M63.53 16.91h-1.06a44.7 44.7 0 00-26.73 9l9 10a31.13 31.13 0 0117.93-5.69 32.34 32.34 0 0118.83 5.69l9-10a43.54 43.54 0 00-26.97-9z"/><path fill="#fff" d="M43.16 89.3l16.92-16.76V42.88l-8.39 19.47-17.38 16.92-1.77 11zm48.66-10.03L74.16 62.35l-8.39-19.47v29.66L83 89.17h9.86z"/><path fill="#fff" d="M86.52 39.89a33 33 0 11-47 0l-9.33-9.29a46.11 46.11 0 1065.62 0z"/></svg>
