<svg class="S" xmlns="http://www.w3.org/2000/svg" viewBox="0 0 126 126"><path fill="#fff" d="M59.7 48s2.5.2 4.7 2.9l-1.2.2-.6-.2s-1.7-2.1-2.9-2.9zm-3.9 12.1l-1.2-2.9h-.4l-1.9 2.3c1.4 1.2 3.5.6 3.5.6zM73.7 43l-1 .4 1.2 2.1 3.9 1.4c-1.5-3.3-4.1-3.9-4.1-3.9zm-11.1 4.1c1.2 1.4 2.3 3.3 2.3 3.3 1.9-1.9 6-2.7 11.3-2.5-7.3-1.6-13.6-.8-13.6-.8zm-7.1-3s2.1 0 5.1.6c-1.9-1.4-5.1-2.1-5.1-2.1v1.5zm17.8 10.7L70 57.7l2.5.8 2.5-2.7-1.4-.6-.3-.4zM51.4 39.5s1.4.8 1.6.8 2.9 1 4.1 1.4c1 .4 1.6 0 1.8 0s3.5-1.9 3.5-1.9c-2.9-1.2-5.6-1.9-5.6-1.9-.4-.2-5.4 1.6-5.4 1.6zm19.8 1.7c-.2-.4-.6-.4-2.9-.8-2.1-.2-4.1-.4-4.5-.4-.4 0-.6.2-.6.2l-2.1 1.4c-1 .6-1.2.8-1.4 1.2-.2.2.4 1 .4 1l1.6 1.9c.2 0 .8.4.8.4s3.1-.2 5.1-.4h5.1c.2 0 0-.8-.4-1.8-.5-.7-1.1-2.7-1.1-2.7zm-18.5 2.2s.2 0 .6.2c.4 0 .6-.4.6-.8 0-.6-.6-.8-.6-.8h-.4l-.6.2-.2 1.4h.2l.4-.2c-.2-.4-.2-.6-.2-1 0-.2.4-.6.6-.6 0 0 .4 0 .2.8 0 .8-.6.8-.6.8zm32.9 15.3L84 60.9v.2h2.1c.5-1.4-.5-2.4-.5-2.4zM46.7 48.6h-.4l-1-.2c-1-.2-.6-1.9-.6-1.9l-1.2.4c-.4-.8-2.1-2.9-2.1-2.9l-.4 1.6c.2.2 1.2 1.8 1.4 2.1l-.6.6s-.2.4-.2.6-.2.4-.2.4l-.8.4h-.2l-2.7-2.1V49h.2c.2.4.6 1.2 1.6 1.6.8.4 1.8.4 2.1.2.4.2.6.2.8.4.8.4 1 .2 1 .2l1.2-.4h.2l.2-.2.4-.8s1.9.2 2.7.2c.8-1.2 3.3-2.9 5.1-3.1 1.8 0 4.7.4 7 2.7 2.1 2.3 1.6 5.4 1.6 5.4l4.3 1.4-2.1-1.4c-1.6-3.9-5.3-7.4-5.3-7.4s-1-.2-1.6-.2c-.6-.2-1-.6-1-.6s-.2-.2-.6-.8l-.4-.8s-.4-.4-1-.8-2.7-.6-3.9-.8c-1.2-.2-1.2 0-1.2 0 3.3.8 4.3 1 4.5 1.2 0 0 .2.4.4.6-2.7-.6-5.3-.2-5.8 0 .4.6.4 1.4 0 1.9-.2.5-1.4 1.1-1.4 1.1zm37 14l.6 2.5s.6-.6 1.2-1.4c.6-.8.8-1.6.8-1.6l-2.3.2c-.2.1-.3.3-.3.3zM36.8 44.9l-.2 2.1h1.2l.2-1.4v.8h.2v-1.2H38v-.8l1.8 1 .2.4.4.4h.4l.2-.2v-.2c-1.2 0-1.2-.6-1.2-.6s.2-1.4.4-1.8c.2-.4 1-.2 1-.2L41 43h-.4c-.4-.2-1.6-1-1.9-1.2v-.2l.2-.2v-.8h.2c0-.2.2-.2.2-.4.4 0 3.3-.6 3.3-.6l-2.7-.6v-.2c-.8-.2-1.4-.4-1.8-.6-1 1.2-1.4 2.7-1.4 2.7s-.2 2.7-.2 3.1c-.3.7.3.9.3.9zm45.7 15.4l.4.6.2-.2 1.6-1.9v-.2c-.9-.1-2.2 1.7-2.2 1.7zm-4.7-3.5l-1.2-.4-2.7 3.1 1.9.6c.5-1.6 2-3.3 2-3.3zm4.1 4.4c-1 1.9-.8 3.3-.8 3.3l1-2.1V62c.2 0 0-.4-.2-.8zm-1-12.6s-.4.8-.6 1c-.2.2-1.6.4-2.3.6-.8.4-2.1 1-2.5 1.4-.2.2-.2.8-.2 1 0 0 .4.2.6.2l-1.8 1.6.4.4 4.3 1.4c1-.8 2.3-1 2.3-1-.8-.4-4.1-1.8-5.1-2.1 0 0-.6-.2-.6-.4v-.6s2.5-1.9 6.4-1.9l.6-1.2c.1-.2-1.5-.4-1.5-.4zm2.6 17.1l-.8-2.3h-.2l-1.2 2.1.2.2c1 .4 2 0 2 0zM54.1 43.6l.6.2s.4 0 .4-.4v-.8l-.6-.4-.8-.2c.2.2.2.4.2.4h.2c0-.2.2-.2.2 0 0 0 .4.2.2.8.2.2-.2.4-.4.4zm-1.8 10.6c-1.3 2.6-.3 4.3-.3 4.3l1.8-2.5v-.4c-.1 0-1.5-1.4-1.5-1.4zM39.7 39.3l2.3.6c.2 0 1.6-.2 1.6-.2l-3.7-1-.2.6zm1.4-.6c3.1.4 3.7 1 3.7 1s1.2-.2 1.8-.2c-1-.8-5.3-2.1-5.3-2.1s-.2.5-.2 1.3zm4.6 6c-.6.4-1.2 1.6-1 2.5.2 1 .4 1 1 1-1-.4-.8-1.9 0-2.9.6-.8 1.2-.2 1.2-.2s-.6-.8-1.2-.4zM31.9 73.5c-2.5 0-5.4 1-3.7 3.7 14.4 24.7 29.6 30.5 36 33.6 2.9-1.4 7.6-3.5 13.2-7.4 3.3-2.1 2.9-5.4 2.1-7.6-4-10-26.4-21.5-47.6-22.3zM113 27.4c-5.8-4.1-20.2-11.5-48.8-11.5-9.9 0-18.3 1-24.9 2.3 1.6 2.5 2.3 5.4 2.3 8.6 0 4.3-1.6 8.2-4.1 11.1.6.2 1.4.4 2.3.6l.4-1s.4 0 .6.2c0-1 .6-1 .6-1s0-.2.2-.2c1 .2 3.7 1.6 4.9 2.1 1.2.6 1.2.8 1.2.8s2.7 0 3.5-.2c.8 0 2.1-.6 4.1-1.2 1.9-.6 2.3-.8 2.7-.8s3.9.2 7 .6c3.1.4 6 1.6 6.6 1.9l1 .2.2-.6-1.6-.6s.2-1 .2-1.2.2-.4.4-.4 1.9.4 2.5.6 2.5 1.6 2.7 1.6c.2 0 .2.2.2.2 0 .4-.4 1.2-.4 1.2l-.6-.2.6.2s.6.2.8.4c.2.2.8.6 1.4 1.2.6.4.4 1 .4 1l1.4 1.4v.6l3.3 3.3v.2l-1.6 1s2.1-.2 3.7.6S88 51.6 88 52c-.4.2-1 .4-1 .4-1.2.4-4.1 2.3-4.1 2.3v.2l1.6.4c1.8-1.6 4.9-2.1 7.2-1.8 8 1.6 13.4 6.8 14.6 11.3 0 .2.2.6.2.8 7.9-18.7 7.1-32.2 6.5-38.2zM85 55.8c.2.2.4.2.6.4 1.2.8 1.8 1.2 1.9 2.9.2 1.4-.2 3.3-1.2 5.1 5.4 3.7 13 .8 15.9 3.7-.5-7.4-11.4-14.8-17.2-12.1zm-44.7-9.5l-.4.2V48l.4-.2v-1.5zm56.2 24.1c-4.1 0-8.2-1.4-11.1-4.9v.2C83.6 68 81.7 68 80.9 68s-3.3-1.2-4.3-2.3c-1-1.2-1-3.3-1-3.3L71.7 61l-4.9-2.7-.8-.2c-1.6.8-3.5.2-5.3-1.2-.2.8-1.2 2.7-2.3 3.7S55.1 63 53.3 63c-1.8 0-5.6-1.9-6.8-4.7-1.2-2.7 0-5.6 0-5.6l-1.9-.4-.8-1s-2.3 1.9-4.9 1.2c-2.5-.8-4.7-2.9-5.3-4.9-.4-1.9.2-3.7.4-3.9-.4-1.4-.4-2.1-.4-2.1h-.2V41c-2.5 1.8-5.4 2.5-8.6 2.5-3.5 0-6.8-1.2-9.5-2.9.4 4.3 1.6 9.3 3.1 15 2.1 7.8 9.1 10.3 19.6 12.1 23.1 3.7 45.3 21.4 43.8 32.3 5.8-4.9 12.1-12.1 18.3-22.8 2.6-4.1.3-6.8-3.6-6.8zM34.6 43.6l-.2 2.1h1.4v-.2h-.2v-.2h-.2l.2-.4.2-1-.2-.2v-.4l.2-.2.2-2.3-1-.6c.4-1.6 1.4-2.9 1.4-2.9h-.6c-1 1.2-1.4 2.7-1.4 2.7s-.2 2.5-.2 2.9c.1.7.4.7.4.7zm21.4 13l1 3.1c1.9-1.4 2.3-3.5 2.3-3.5l-3.1.2-.2.2zm1.8-4.9l-1.6 2.7.2.2 3.1.2c0-2.1-1.7-3.1-1.7-3.1zm-19.5-6l-.2 1.2h.2v-1.2zm14.8 7.4l1.6 1.2.4-.2 1.8-2.7c-2.2-.3-3.8 1.7-3.8 1.7zm-14.4-7.2l-.2-.2v1.4h.2v-1.2zm.6.4l-.2 1.4h.2v-1.4zm.4.2l-.2 1.4h.2v-1.4zm-.8-.4l-.2 1.4h.2v-1.4z"/><path fill="#fff" d="M117.7 27l-.2-2.1-1.9-1.4c-8.2-5.6-23.7-12.3-51.5-12.3-10.5 0-20 1-28.4 2.9-2.9-2.5-6.8-4.1-10.9-4.1C15.6 10.1 8 17.5 8 26.8c0 2.9.8 5.6 2.1 8.2.4 14.4 4.9 29.4 13.6 44.5 14.4 24.3 29.8 31.5 37.1 34.8.6.2 1 .4 1.4.6l1.9 1 1.9-1c.4-.2 1-.4 1.4-.6 7.6-3.3 22.8-10.5 36.8-34.8 15.4-26.6 14.1-46.1 13.5-52.5z"/><radialGradient id="path22_2_" cx="24.583" cy="922.712" r="92.915" gradientTransform="translate(0 -896.2)" gradientUnits="userSpaceOnUse"><stop offset="0" stop-color="#00aeff"/><stop offset=".131" stop-color="#00a5f7"/><stop offset=".345" stop-color="#008de0"/><stop offset=".616" stop-color="#0065ba"/><stop offset=".928" stop-color="#002f87"/><stop offset="1" stop-color="#00217a"/></radialGradient><path fill="url(#path22_2_)" d="M59.7 48s2.5.2 4.7 2.9l-1.2.2-.6-.2s-1.7-2.1-2.9-2.9zm-3.9 12.1l-1.2-2.9h-.4l-1.9 2.3c1.4 1.2 3.5.6 3.5.6zM73.7 43l-1 .4 1.2 2.1 3.9 1.4c-1.5-3.3-4.1-3.9-4.1-3.9zm-11.1 4.1c1.2 1.4 2.3 3.3 2.3 3.3 1.9-1.9 6-2.7 11.3-2.5-7.3-1.6-13.6-.8-13.6-.8zm-7.1-3s2.1 0 5.1.6c-1.9-1.4-5.1-2.1-5.1-2.1v1.5zm17.8 10.7L70 57.7l2.5.8 2.5-2.7-1.4-.6-.3-.4zM51.4 39.5s1.4.8 1.6.8 2.9 1 4.1 1.4c1 .4 1.6 0 1.8 0s3.5-1.9 3.5-1.9c-2.9-1.2-5.6-1.9-5.6-1.9-.4-.2-5.4 1.6-5.4 1.6zm19.8 1.7c-.2-.4-.6-.4-2.9-.8-2.1-.2-4.1-.4-4.5-.4-.4 0-.6.2-.6.2l-2.1 1.4c-1 .6-1.2.8-1.4 1.2-.2.2.4 1 .4 1l1.6 1.9c.2 0 .8.4.8.4s3.1-.2 5.1-.4h5.1c.2 0 0-.8-.4-1.8-.5-.7-1.1-2.7-1.1-2.7zm-18.5 2.2s.2 0 .6.2c.4 0 .6-.4.6-.8 0-.6-.6-.8-.6-.8h-.4l-.6.2-.2 1.4h.2l.4-.2c-.2-.4-.2-.6-.2-1 0-.2.4-.6.6-.6 0 0 .4 0 .2.8 0 .8-.6.8-.6.8zm32.9 15.3L84 60.9v.2h2.1c.5-1.4-.5-2.4-.5-2.4zM46.7 48.6h-.4l-1-.2c-1-.2-.6-1.9-.6-1.9l-1.2.4c-.4-.8-2.1-2.9-2.1-2.9l-.4 1.6c.2.2 1.2 1.8 1.4 2.1l-.6.6s-.2.4-.2.6-.2.4-.2.4l-.8.4h-.2l-2.7-2.1V49h.2c.2.4.6 1.2 1.6 1.6.8.4 1.8.4 2.1.2.4.2.6.2.8.4.8.4 1 .2 1 .2l1.2-.4h.2l.2-.2.4-.8s1.9.2 2.7.2c.8-1.2 3.3-2.9 5.1-3.1 1.8 0 4.7.4 7 2.7 2.1 2.3 1.6 5.4 1.6 5.4l4.3 1.4-2.1-1.4c-1.6-3.9-5.3-7.4-5.3-7.4s-1-.2-1.6-.2c-.6-.2-1-.6-1-.6s-.2-.2-.6-.8l-.4-.8s-.4-.4-1-.8-2.7-.6-3.9-.8c-1.2-.2-1.2 0-1.2 0 3.3.8 4.3 1 4.5 1.2 0 0 .2.4.4.6-2.7-.6-5.3-.2-5.8 0 .4.6.4 1.4 0 1.9-.2.5-1.4 1.1-1.4 1.1zm37 14l.6 2.5s.6-.6 1.2-1.4c.6-.8.8-1.6.8-1.6l-2.3.2c-.2.1-.3.3-.3.3zM36.8 44.9l-.2 2.1h1.2l.2-1.4v.8h.2v-1.2H38v-.8l1.8 1 .2.4.4.4h.4l.2-.2v-.2c-1.2 0-1.2-.6-1.2-.6s.2-1.4.4-1.8c.2-.4 1-.2 1-.2L41 43h-.4c-.4-.2-1.6-1-1.9-1.2v-.2l.2-.2v-.8h.2c0-.2.2-.2.2-.4.4 0 3.3-.6 3.3-.6l-2.7-.6v-.2c-.8-.2-1.4-.4-1.8-.6-1 1.2-1.4 2.7-1.4 2.7s-.2 2.7-.2 3.1c-.3.7.3.9.3.9zm45.7 15.4l.4.6.2-.2 1.6-1.9v-.2c-.9-.1-2.2 1.7-2.2 1.7zm-4.7-3.5l-1.2-.4-2.7 3.1 1.9.6c.5-1.6 2-3.3 2-3.3zm4.1 4.4c-1 1.9-.8 3.3-.8 3.3l1-2.1V62c.2 0 0-.4-.2-.8zm-1-12.6s-.4.8-.6 1c-.2.2-1.6.4-2.3.6-.8.4-2.1 1-2.5 1.4-.2.2-.2.8-.2 1 0 0 .4.2.6.2l-1.8 1.6.4.4 4.3 1.4c1-.8 2.3-1 2.3-1-.8-.4-4.1-1.8-5.1-2.1 0 0-.6-.2-.6-.4v-.6s2.5-1.9 6.4-1.9l.6-1.2c.1-.2-1.5-.4-1.5-.4zm2.6 17.1l-.8-2.3h-.2l-1.2 2.1.2.2c1 .4 2 0 2 0zM54.1 43.6l.6.2s.4 0 .4-.4v-.8l-.6-.4-.8-.2c.2.2.2.4.2.4h.2c0-.2.2-.2.2 0 0 0 .4.2.2.8.2.2-.2.4-.4.4zm-1.8 10.6c-1.3 2.6-.3 4.3-.3 4.3l1.8-2.5v-.4c-.1 0-1.5-1.4-1.5-1.4zM39.7 39.3l2.3.6c.2 0 1.6-.2 1.6-.2l-3.7-1-.2.6zm1.4-.6c3.1.4 3.7 1 3.7 1s1.2-.2 1.8-.2c-1-.8-5.3-2.1-5.3-2.1s-.2.5-.2 1.3zm4.6 6c-.6.4-1.2 1.6-1 2.5.2 1 .4 1 1 1-1-.4-.8-1.9 0-2.9.6-.8 1.2-.2 1.2-.2s-.6-.8-1.2-.4zM31.9 73.5c-2.5 0-5.4 1-3.7 3.7 14.4 24.7 29.6 30.5 36 33.6 2.9-1.4 7.6-3.5 13.2-7.4 3.3-2.1 2.9-5.4 2.1-7.6-4-10-26.4-21.5-47.6-22.3zM113 27.4c-5.8-4.1-20.2-11.5-48.8-11.5-9.9 0-18.3 1-24.9 2.3 1.6 2.5 2.3 5.4 2.3 8.6 0 4.3-1.6 8.2-4.1 11.1.6.2 1.4.4 2.3.6l.4-1s.4 0 .6.2c0-1 .6-1 .6-1s0-.2.2-.2c1 .2 3.7 1.6 4.9 2.1 1.2.6 1.2.8 1.2.8s2.7 0 3.5-.2c.8 0 2.1-.6 4.1-1.2 1.9-.6 2.3-.8 2.7-.8s3.9.2 7 .6c3.1.4 6 1.6 6.6 1.9l1 .2.2-.6-1.6-.6s.2-1 .2-1.2.2-.4.4-.4 1.9.4 2.5.6 2.5 1.6 2.7 1.6c.2 0 .2.2.2.2 0 .4-.4 1.2-.4 1.2l-.6-.2.6.2s.6.2.8.4c.2.2.8.6 1.4 1.2.6.4.4 1 .4 1l1.4 1.4v.6l3.3 3.3v.2l-1.6 1s2.1-.2 3.7.6S88 51.6 88 52c-.4.2-1 .4-1 .4-1.2.4-4.1 2.3-4.1 2.3v.2l1.6.4c1.8-1.6 4.9-2.1 7.2-1.8 8 1.6 13.4 6.8 14.6 11.3 0 .2.2.6.2.8 7.9-18.7 7.1-32.2 6.5-38.2zM85 55.8c.2.2.4.2.6.4 1.2.8 1.8 1.2 1.9 2.9.2 1.4-.2 3.3-1.2 5.1 5.4 3.7 13 .8 15.9 3.7-.5-7.4-11.4-14.8-17.2-12.1zm-44.7-9.5l-.4.2V48l.4-.2v-1.5zm56.2 24.1c-4.1 0-8.2-1.4-11.1-4.9v.2C83.6 68 81.7 68 80.9 68s-3.3-1.2-4.3-2.3c-1-1.2-1-3.3-1-3.3L71.7 61l-4.9-2.7-.8-.2c-1.6.8-3.5.2-5.3-1.2-.2.8-1.2 2.7-2.3 3.7S55.1 63 53.3 63c-1.8 0-5.6-1.9-6.8-4.7-1.2-2.7 0-5.6 0-5.6l-1.9-.4-.8-1s-2.3 1.9-4.9 1.2c-2.5-.8-4.7-2.9-5.3-4.9-.4-1.9.2-3.7.4-3.9-.4-1.4-.4-2.1-.4-2.1h-.2V41c-2.5 1.8-5.4 2.5-8.6 2.5-3.5 0-6.8-1.2-9.5-2.9.4 4.3 1.6 9.3 3.1 15 2.1 7.8 9.1 10.3 19.6 12.1 23.1 3.7 45.3 21.4 43.8 32.3 5.8-4.9 12.1-12.1 18.3-22.8 2.6-4.1.3-6.8-3.6-6.8zM34.6 43.6l-.2 2.1h1.4v-.2h-.2v-.2h-.2l.2-.4.2-1-.2-.2v-.4l.2-.2.2-2.3-1-.6c.4-1.6 1.4-2.9 1.4-2.9h-.6c-1 1.2-1.4 2.7-1.4 2.7s-.2 2.5-.2 2.9c.1.7.4.7.4.7zm21.4 13l1 3.1c1.9-1.4 2.3-3.5 2.3-3.5l-3.1.2-.2.2zm1.8-4.9l-1.6 2.7.2.2 3.1.2c0-2.1-1.7-3.1-1.7-3.1zm-19.5-6l-.2 1.2h.2v-1.2zm14.8 7.4l1.6 1.2.4-.2 1.8-2.7c-2.2-.3-3.8 1.7-3.8 1.7zm-14.4-7.2l-.2-.2v1.4h.2v-1.2zm.6.4l-.2 1.4h.2v-1.4zm.4.2l-.2 1.4h.2v-1.4zm-.8-.4l-.2 1.4h.2v-1.4z"/><circle cx="24.9" cy="26.8" r="12.1" fill="#606060"/></svg>
