<svg class="S" xmlns="http://www.w3.org/2000/svg" viewBox="0 0 126 126"><path fill="#cce1ff" stroke="#3390ff" stroke-miterlimit="10" d="M16.37 45.28h30.45l4 3.7c.16.16.16.16.33.16h0c.16 0 .33 0 .33-.16L62.27 37.2c.17-.16.17-.33.17-.68-.17-.17-.33-.33-.5-.33H22.42a7.1 7.1 0 00-4.55 1.18c-1.17 1-2.19 2.68-2.19 5.72v1.34c0 .52.36.85.69.85zm101.11-8.57H74.07l-.33.16-7.91 7.4a.77.77 0 000 .85.51.51 0 00.33.16H101l1.86 2.52a.75.75 0 00.85.17l14.13-10.11a.57.57 0 000-.85.35.35 0 00-.33-.3zM103 83a26.16 26.16 0 01-3.53.32 20.17 20.17 0 01-19.53-18.54 29.33 29.33 0 01-.17-3.86 52.36 52.36 0 01.85-10.27A.59.59 0 0080 50H64.49c-.17 0-.5.17-.5.33a37.72 37.72 0 00-2 12.27c0 3.37.49 5 1.67 9.09 3 9.26 14.13 18.16 23.06 18.16 13.44 0 16.81-4.71 17-6.22A.61.61 0 00103 83zM37.73 50.51l-.49-.17h-17.5a.53.53 0 00-.5.5c0 .16 0 .33.17.33 0 0 23.71 27.41 24.23 28.1a.16.16 0 00.17.16l-.17.17h-14A10.18 10.18 0 0124 77.74a8 8 0 01-1.67-1.86h-.5a.61.61 0 00-.49.16L8.12 88.17a.81.81 0 000 .85c.17.16.17.16.33.16h49c2.85 0 4.71-3 4.87-5.89a5.18 5.18 0 00-1-3.2c-2.06-2.49-23.59-29.58-23.59-29.58z"/></svg>
