<svg class="S" xmlns="http://www.w3.org/2000/svg" id="design" x="0" y="0" version="1.1" viewBox="0 0 126 126" xml:space="preserve"><defs/><style>.st0{fill:#e3eeff}.st1{fill:#1772ff}</style><path d="M59.5 20.8v92c-.2.3-1.2.2-1.5 0-17.9-12.2-18.1-19.9-18.1-19.9l-.2-60.8c0-1-.2-2-.7-2.9-1.4-2.4-7.8-6.4-11.3-8.3-2.2-1.2-4.4-2.2-6.6-3.2-.2-.2-.5-.9.2-1.2L40.2 13h.3c.1.1 18.7 7.7 19 7.8zm7.1 0v92c.2.3 1.2.2 1.5 0C86 100.6 86.2 92.9 86.2 92.9l.2-60.8c0-1 .2-2.1.7-3 1.4-2.4 7.8-6.4 11.3-8.3 2.2-1.2 4.4-2.2 6.6-3.2.3-.2.3-1.1-.2-1.2l-19-3.4h-.3S67 20.7 66.6 20.8z" class="st0"/><path d="M100.8 77.3c-5.3 0-11.8-5.1-13.6-10.7-.7-2.2-1-3.3-1-5.3 0-2.3.4-4.7 1.1-7 .1-.3.4-.9 1.2-.9h8.7l.2.1c.6.2 1 .7 1 1.3V55.1c-.3 1.9-.5 3.7-.4 5.4 0 .7.1 1.4.1 2.1.5 5.1 4.7 9.1 9.8 9.2.5 0 1.4-.1 1.8-.2h.2c.9 0 1.4.6 1.4 1.3v.2c-.4 1.5-2.8 4.2-10.5 4.2zm9.2-22.8c-.4 0-.8-.2-1-.4l-.8-1H89.5c-.5 0-.9-.3-1.2-.7-.2-.5-.1-1 .2-1.5v-.1l4.4-4.2.5-.3 24.1.1c.6 0 1.1.3 1.3.9.2.5 0 1.2-.5 1.5l-7.9 5.6h-.1c.1.1-.1.1-.3.1z" class="st0"/><path d="M93.8 47.3l23.8.1c.4 0 .4.4.2.6l-7.8 5.5h-.1c-.1 0-.3-.1-.3-.1l-1-1.4H89.5c-.3 0-.4-.3-.2-.5l4.3-4.1.2-.1m3.3 7.2c.2.1.3.2.3.4-.3 1.9-.5 3.8-.4 5.6 0 .7.1 1.5.1 2.2.5 5.6 5.1 10 10.7 10.1.7 0 1.9-.2 1.9-.2.3 0 .4.1.4.3-.1.8-1.9 3.4-9.3 3.4-4.9 0-11-4.9-12.7-10-.7-2.2-.9-3.1-.9-5 0-2.3.4-4.5 1.1-6.7.1-.2.2-.2.3-.2h8.5v.1m-3.9-9.2l-.5.3-.2.1-.1.1-.1.2-4.4 4-.1.1-.1.1c-.6.7-.7 1.7-.3 2.5-.5.3-.9.8-1 1.3-.8 2.5-1.2 4.9-1.2 7.4 0 2.2.4 3.4 1 5.6 1.9 6 8.9 11.4 14.6 11.4 10.3 0 11.2-4.6 11.3-5.1V73c0-1.3-1-2.3-2.4-2.3h-.2c-.4.1-1.2.1-1.6.1-4.6-.2-8.4-3.7-8.8-8.3-.1-.7-.1-1.4-.1-2 0-1.7.1-3.4.4-5.2v-.4c0-.3-.1-.6-.2-.8h8.4l.4.6.1.1.1.1c.4.4 1.1.7 1.7.7.4 0 .7-.1 1-.2l.1-.1.1-.1 7.8-5.5c.8-.6 1.1-1.7.8-2.6-.3-1-1.2-1.6-2.2-1.6l-23.8-.1-.5-.1z" class="st1"/><g><path d="M8.2 77.3c-.5 0-.7-.3-.9-.4-.5-.5-.5-1.1-.1-1.7l.1-.1 7.3-6.8c.2-.2.5-.5 1-.5s.7.3.9.4l.1.1v.1c.2.3.5.6.7.8.8.6 1.7.9 2.5.9h5.6c-2.6-3-8.5-9.9-12-13.9-.3-.5-.4-1-.2-1.4.2-.4.6-.7 1.1-.7h9.8l.7.3.2.2c3.3 4.2 12 15.1 12.9 16.1l.1.1c.5.6.8 1.5.8 2.4-.1 2.1-1.5 4.2-3.7 4.2H8.2zm23.4-21.8c-.5 0-.7-.3-.9-.4l-1.9-1.7H12.1l-.1-.1c-.8-.3-.8-1.1-.8-2.2 0-1.7.5-3 1.6-3.9h.1c.8-.5 1.8-.8 2.8-.8H37.6c.9 0 1.2.6 1.2.7.2.6 0 1.2-.4 1.5l-5.8 6.3c-.1.3-.5.6-1 .6z" class="st0"/><path d="M15.6 47.4H37.5c.5 0 .3.4.2.5l-5.9 6.5c0 .1-.1.1-.2.1s-.1 0-.2-.1l-2.2-2H12.3c-.2-.1-.2-1.2-.2-1.2 0-1.6.5-2.6 1.2-3.1s1.5-.7 2.3-.7M24 55l.3.1s11.8 15 13 16.2c.4.5.5 1.2.5 1.8-.1 1.6-1.1 3.2-2.7 3.2H8.2c-.1 0-.1 0-.2-.1s-.1-.3 0-.4l7.3-6.8c.1-.1.2-.1.3-.1.1 0 .1 0 .2.1.3.4.5.8.9 1 .9.7 2 1 3.1 1h7.7v-.2c-.3-.3-13.3-15.4-13.3-15.4-.2-.2 0-.4.2-.4H24m-8.4-9.6c-1.2 0-2.3.3-3.3 1l-.1.1-.1.1c-.9.7-1.9 2.1-1.9 4.7 0 .9 0 2.6 1.5 3.1l.3.1h.4c-.3.8-.2 1.6.3 2.3v.2c2.9 3.4 7.6 8.8 10.6 12.3h-3.4c-.7 0-1.3-.2-2-.7-.1-.1-.3-.3-.5-.6l-.1-.1-.1-.1c-.2-.2-.7-.7-1.6-.7-.9 0-1.4.4-1.8.8l-7.2 6.7-.2.2-.1.2c-.6 1-.5 2.2.2 3 .2.2.7.7 1.6.7H35c2.5 0 4.5-2.2 4.7-5.1v-.2c0-1.1-.3-2.2-1-3l.1-.4-.1-.1c-.8-.8-7.9-9.8-12.5-15.6h2.3l1.6 1.5c.2.2.7.7 1.5.7.9 0 1.5-.4 1.8-1l5.7-6.2c.5-.6 1-1.5.5-2.6-.3-.7-1-1.4-2.2-1.4H15.9c-.1.1-.2.1-.3.1z" class="st1"/></g></svg>
