<svg class="S" xmlns="http://www.w3.org/2000/svg" viewBox="0 0 126 126"><circle cx="63" cy="63" r="50" fill="#36a9e0"/><path fill="#fff" stroke="#000" stroke-miterlimit="10" stroke-width=".033" d="M81.49 47.39v-9.64s0-12.89-18.26-12.17c0 0-17.33-1.46-18.72 12.17V88.6s-.82 12.16 18 11.75c0 0 16.9 2 19-11.34V56.69s-1.31-6.61-12.82-6.61c0 0-7.91-.17-8.32 2.37l-.08-12.74s2.53-2.86 5.8.08l-.09 7.6zM61.65 65.17c1.05 3 6 .33 6 .33 4.34-3 6.2-.3 6.2-.3V71a18.23 18.23 0 00-7.72 1.39v6.35a4.81 4.81 0 00-4.46 1.37v12.14h-.5v.51h-3.73v-.45H56.2v-1.26h.48V67.71h0v-.33h-.45v-.94h.44v-.86h.92v-.41zm.4 9.48v3.58h3.65v-5l-.51-.9h-.85v.85s.86.15 1 .69l-.33.31s-.92-1.41-3 .42z"/></svg>
