<svg class="S" xmlns="http://www.w3.org/2000/svg" id="Layer_1" x="0" y="0" version="1.1" viewBox="0 0 126 126" xml:space="preserve"><defs/><style>.st1{fill:#2f303d}.st2{fill:#d7d8dd}.st3{fill:#97989c}</style><path fill="#959599" d="M114 86.2c-.7-5.1-1.4-12.5-2.4-20.3-.8-7-1.8-14.3-3-20.7l-3.4 2.8c-2.4 2-4.9 4-7.3 6-2.7 2.2-5.3 4.4-8 6.6-1.6 1.3-10.8 2.6-18.2 3.9H53.2C45.8 63 36.6 61.7 35 60.4c-2.7-2.2-5.3-4.4-8-6.6-2.4-2-4.9-4-7.3-6L16.3 45c-1.2 6.4-2.1 13.8-3 20.7-.9 7.9-1.7 15.2-2.4 20.3-.2 1.7-.2 3.2.2 4.6.8 3 2 6.4 4.5 7.8 2.8 1.6 6.9 1.3 9.9.4 3.3-.9 6.5-3.8 7.7-6 4.5-9.8 9.3-15.1 12.4-17.5h33.6c3 2.4 7.8 7.7 12.4 17.5 1.2 2.2 4.4 5 7.7 6 3 .9 7.1 1.2 9.9-.4 2.5-1.5 3.8-4.8 4.5-7.8.5-1.2.6-2.8.3-4.4z"/><path d="M87.7 28.4h15.1c-.4-.7-.8-1.4-1.3-2.1-.1-.1-.2-.3-.4-.4-.3-.3-.6-.5-1-.7-1.1-.6-2.7-.9-4.9-.9-1.5 0-2.8.2-3.7.5-1 .3-1.7.7-2.2 1.2l-.4.4c-.4.6-.8 1.3-1.2 2z" class="st1"/><path id="path3234_4_" d="M22.8 28.4h15.1l-1.2-1.9c-.8-1.3-2.8-2.2-6.4-2.2-3.6 0-5.6.9-6.4 2.2l-1.1 1.9z" class="st1"/><path d="M20.8 38.5h19c-.6-3.6-.9-5.9-1.2-7.6-.1-.7-.2-1.2-.3-1.7-.1-.4-.2-.7-.5-1-1.1-1.1-3.6-1.8-7-1.8h-.6c-3.6 0-6.4.6-7.5 1.8-.3.3-.4.6-.5 1-.1.5-.2 1.1-.3 1.7-.2 1.7-.5 4-1.1 7.6zm64.9 0h19c-.5-3.4-.9-5.7-1.1-7.4-.1-.8-.2-1.4-.4-2-.1-.4-.2-.7-.5-1-.9-1-2.8-1.6-5.4-1.8-.7-.1-1.4-.1-2.1-.1-3.6 0-6.4.6-7.5 1.8-.3.3-.4.6-.5 1-.1.6-.2 1.2-.4 2-.2 1.8-.6 4-1.1 7.5z" class="st2"/><path d="M117.9 86.1c-.7-5.1-1.4-12.5-2.4-20.3-.8-7-1.8-14.3-3-20.7-.7.6-1.5 1.2-2.2 1.8-3.2-5.2-8.3-12.8-8.3-14.3H24.1c0 1.7-6.5 9.3-9.3 13.6-.4-.3-.8-.7-1.2-1-1.2 6.4-2.1 13.8-3 20.7-.9 7.9-1.7 15.2-2.4 20.3-.2 1.7-.2 3.2.2 4.6.8 3 2.8 5.4 5.3 6.9 2.8 1.6 6.1 2.3 9.1 1.4 3.3-.9 6.5-3.8 7.7-6 4.5-9.8 6.2-14.3 8.4-17.5 1.1-1.7 3-3.4 4.9-4.9h38.6c1.9 1.4 3.7 3.1 4.9 4.8 2.1 3.2 3.8 7.7 8.4 17.5 1.2 2.2 4.4 5 7.7 6 3 .9 6.4.2 9.1-1.4 2.5-1.5 4.5-3.8 5.3-6.9.2-1.4.3-2.9.1-4.6z" class="st2"/><path id="path3221_4_" d="M74.4 47.4a19.1 19.1 0 1038.2 0 19.1 19.1 0 00-38.2 0z" class="st3"/><path id="path3244_4_" d="M98.2 37.5c0 2.6-2.1 4.6-4.6 4.6-2.6 0-4.6-2.1-4.6-4.6 0-2.6 2.1-4.6 4.6-4.6 2.5-.1 4.6 2 4.6 4.6z" class="st1"/><path id="path3246_4_" d="M98.2 57.5c0 2.6-2.1 4.6-4.6 4.6-2.6 0-4.6-2.1-4.6-4.6 0-2.6 2.1-4.6 4.6-4.6 2.5-.1 4.6 2 4.6 4.6z" class="st1"/><path id="path3248_4_" d="M98.9 47.5c0-2.6 2.1-4.6 4.6-4.6 2.6 0 4.6 2.1 4.6 4.6 0 2.6-2.1 4.6-4.6 4.6-2.5 0-4.6-2-4.6-4.6z" class="st1"/><path id="path3250_4_" d="M78.9 47.5c0-2.6 2.1-4.6 4.6-4.6 2.6 0 4.6 2.1 4.6 4.6 0 2.6-2.1 4.6-4.6 4.6-2.5 0-4.6-2-4.6-4.6z" class="st1"/><path id="path2416_4_" d="M51.6 47.4c0 10.6-8.6 19.1-19.1 19.1-10.5.1-19.1-8.5-19.1-19.1a19.1 19.1 0 1138.2 0z" class="st3"/><g id="g3289_4_"><path id="path3273_4_" d="M32.4 32.4l-2.2 2.1h4.5l-2.3-2.1z" class="st1"/><path id="path3295_4_" d="M32.4 62l-2.2-2.1h4.5L32.4 62z" class="st1"/><path id="path3303_4_" d="M47.2 47.2L45.1 45v4.5l2.1-2.3z" class="st1"/><path id="path3305_4_" d="M17.6 47.2l2.1-2.2v4.5l-2.1-2.3z" class="st1"/></g><path id="path3324_16_" d="M26.9 43.8c.2 0 .4.1.5.3l2.1 2.6c.2.3.2.6 0 .8l-2.1 2.6c-.1.2-.3.3-.6.3H22c-.2 0-.4-.1-.5-.2-.1-.1-.2-.3-.2-.5v-5.2c0-.4.3-.8.7-.8h4.9v.1z" class="st1"/><path id="path3324_15_" d="M35.8 41.7c0 .2-.1.4-.3.5l-2.6 2.1c-.3.2-.6.2-.8 0l-2.6-2.1c-.2-.1-.3-.3-.3-.6v-4.8c0-.2.1-.4.2-.5.1-.1.3-.2.5-.2H35c.4 0 .8.3.8.7v4.9z" class="st1"/><path id="path3324_14_" d="M37.9 50.6c-.2 0-.4-.1-.5-.3l-2.1-2.6c-.2-.3-.2-.6 0-.8l2.1-2.6c.1-.2.3-.3.6-.3h4.8c.2 0 .4.1.5.2.1.1.2.3.2.5v5.2c0 .4-.3.8-.7.8h-4.9c.1-.1.1-.1 0-.1z" class="st1"/><path id="path3324_13_" d="M29.1 52.7c0-.2.1-.4.3-.5l2.6-2.1c.3-.2.6-.2.8 0l2.6 2.1c.2.1.3.3.3.6v4.8c0 .2-.1.4-.2.5-.1.1-.3.2-.5.2h-5.2c-.4 0-.8-.3-.8-.7v-4.9c.1.1.1 0 .1 0z" class="st1"/><path d="M46.4 75.5c-5.1 0-9.2-4.1-9.2-9.2s4.1-9.2 9.2-9.2 9.2 4.1 9.2 9.2-4.1 9.2-9.2 9.2z" class="st2"/><path d="M46.4 71.5c-2.9 0-5.2-2.3-5.2-5.2 0-2.9 2.3-5.2 5.2-5.2 2.9 0 5.2 2.3 5.2 5.2 0 2.9-2.3 5.2-5.2 5.2z" class="st1"/><path d="M79.6 75.5c-5.1 0-9.2-4.1-9.2-9.2s4.1-9.2 9.2-9.2 9.2 4.1 9.2 9.2-4.2 9.2-9.2 9.2z" class="st2"/><path d="M79.6 71.5c-2.9 0-5.2-2.3-5.2-5.2 0-2.9 2.3-5.2 5.2-5.2 2.9 0 5.2 2.3 5.2 5.2 0 2.9-2.4 5.2-5.2 5.2z" class="st1"/><path d="M50.3 121.7h-42c-2.2 0-4-1.8-4-4v-42c0-2.2 1.8-4 4-4h42c2.2 0 4 1.8 4 4v42c0 2.2-1.8 4-4 4z" opacity=".3"/><path fill="#273445" d="M46 126H4c-2.2 0-4-1.8-4-4V80c0-2.2 1.8-4 4-4h42c2.2 0 4 1.8 4 4v42c0 2.2-1.8 4-4 4z"/><linearGradient id="SVGID_1_" x1="25" x2="25" y1="115.56" y2="86.44" gradientUnits="userSpaceOnUse"><stop offset="0" stop-color="#e6a500"/><stop offset="1" stop-color="#d4ff47"/></linearGradient><path fill="url(#SVGID_1_)" d="M16.7 86.4l12.5 21.7-4.3 7.4L8.2 86.4h8.5zm14.6 18.3l10.5-18.2H27v10.8l4.3 7.4z"/></svg>
