<svg class="S" xmlns="http://www.w3.org/2000/svg" xmlns:xlink="http://www.w3.org/1999/xlink" viewBox="0 0 126 126"><defs><linearGradient id="c" x1="-3186.99" x2="-3186.08" y1="-668.8" y2="-667.04" gradientTransform="translate(167772.31 35208.64) scale(52.63)" gradientUnits="userSpaceOnUse"><stop offset="0" stop-color="#5b779e"/><stop offset=".4" stop-color="#2d3b50"/><stop offset="1" stop-color="#0c0e14"/></linearGradient><linearGradient id="d" x1="-3156.3" x2="-3156.03" y1="-720.72" y2="-720.48" gradientTransform="translate(166217.31 37956.85) scale(52.63)" gradientUnits="userSpaceOnUse"><stop offset="0" stop-color="#fdec97"/><stop offset=".35" stop-color="#fdec97"/><stop offset=".51" stop-color="#fdec97"/><stop offset=".63" stop-color="#db990f"/><stop offset="1" stop-color="#db990f"/></linearGradient><linearGradient id="a" x1="-3156.32" x2="-3156.04" y1="-719.18" y2="-719.46" gradientTransform="translate(166217.31 37956.85) scale(52.63)" gradientUnits="userSpaceOnUse"><stop offset="0" stop-color="#ffdc76"/><stop offset=".33" stop-color="#e4903b"/><stop offset=".45" stop-color="#ca4400"/><stop offset=".58" stop-color="#fdec97"/><stop offset=".7" stop-color="#db990f"/><stop offset="1" stop-color="#db990f"/></linearGradient><linearGradient id="e" x1="-3157.61" x2="-3157.8" y1="-719.23" y2="-719.43" xlink:href="#a"/><linearGradient id="f" x1="-3157.83" x2="-3157.58" y1="-720.47" y2="-720.72" gradientTransform="translate(166217.31 37956.85) scale(52.63)" gradientUnits="userSpaceOnUse"><stop offset="0" stop-color="#ca4400"/><stop offset=".35" stop-color="#ca4400"/><stop offset=".51" stop-color="#fdec97"/><stop offset=".63" stop-color="#db990f"/><stop offset="1" stop-color="#db990f"/></linearGradient><linearGradient id="g" x1="-3157.44" x2="-3157.21" y1="-720.52" y2="-719.49" gradientTransform="translate(166217.31 37956.85) scale(52.63)" gradientUnits="userSpaceOnUse"><stop offset="0" stop-color="#da940f"/><stop offset=".23" stop-color="#efd11a"/><stop offset=".75" stop-color="#efd11a"/><stop offset=".91" stop-color="#efd11a"/><stop offset="1" stop-color="#d3900e"/></linearGradient><linearGradient id="h" x1="-3157.29" x2="-3157.09" y1="-720.52" y2="-719.55" gradientTransform="translate(166217.31 37956.85) scale(52.63)" gradientUnits="userSpaceOnUse"><stop offset="0" stop-color="#c63000"/><stop offset=".49" stop-color="#db9000"/><stop offset=".8" stop-color="#db9000"/><stop offset="1" stop-color="#c43b00"/></linearGradient><linearGradient id="i" x1="-3156.89" x2="-3157.04" y1="-720.06" y2="-719.44" gradientTransform="translate(166217.31 37956.85) scale(52.63)" gradientUnits="userSpaceOnUse"><stop offset="0" stop-color="#ad2f00"/><stop offset="1" stop-color="#cb7500"/></linearGradient><linearGradient id="j" x1="-3156.9" x2="-3157.11" y1="-720.36" y2="-719.7" gradientTransform="translate(166217.31 37956.85) scale(52.63)" gradientUnits="userSpaceOnUse"><stop offset="0" stop-color="#ecd500"/><stop offset=".87" stop-color="#ecd500"/><stop offset="1" stop-color="#ffef57"/></linearGradient><linearGradient id="b" x1="-3157.36" x2="-3157.31" y1="-720.53" y2="-720.42" gradientTransform="translate(166217.31 37956.85) scale(52.63)" gradientUnits="userSpaceOnUse"><stop offset="0" stop-color="#ffd511"/><stop offset="1" stop-color="#fdf8dc"/></linearGradient><linearGradient id="k" x1="-3156.97" x2="-3156.73" y1="-720.38" y2="-719.53" gradientTransform="translate(166217.31 37956.85) scale(52.63)" gradientUnits="userSpaceOnUse"><stop offset="0" stop-color="#bd3300"/><stop offset=".19" stop-color="#bd3300"/><stop offset=".41" stop-color="#cb8500"/><stop offset="1" stop-color="#c26f00"/></linearGradient><linearGradient id="l" x1="-3156.98" x2="-3156.82" y1="-720.05" y2="-719.48" gradientTransform="translate(166217.31 37956.85) scale(52.63)" gradientUnits="userSpaceOnUse"><stop offset="0" stop-color="#ffd303"/><stop offset=".9" stop-color="#ffd303"/><stop offset="1" stop-color="#d27e00"/></linearGradient><linearGradient id="m" x1="-3156.45" x2="-3156.63" y1="-720.54" y2="-719.43" gradientTransform="translate(166217.31 37956.85) scale(52.63)" gradientUnits="userSpaceOnUse"><stop offset="0" stop-color="#a51f00"/><stop offset=".29" stop-color="#c67200"/><stop offset=".64" stop-color="#c67200"/><stop offset="1" stop-color="#c25500"/></linearGradient><linearGradient id="n" x1="-3156.59" x2="-3156.77" y1="-720.52" y2="-719.54" gradientTransform="translate(166217.31 37956.85) scale(52.63)" gradientUnits="userSpaceOnUse"><stop offset="0" stop-color="#cd7c00"/><stop offset=".31" stop-color="#eed700"/><stop offset="1" stop-color="#eed700"/></linearGradient><linearGradient id="o" x1="-3156.53" x2="-3156.48" y1="-720.53" y2="-720.43" xlink:href="#b"/><linearGradient id="p" x1="-3157.99" x2="-3155.8" y1="-719.54" y2="-720.45" gradientTransform="translate(166217.31 37956.85) scale(52.63)" gradientUnits="userSpaceOnUse"><stop offset="0" stop-color="#51290e"/><stop offset=".35" stop-color="#d08e29"/><stop offset=".42" stop-color="#e1d02d"/><stop offset=".5" stop-color="#f6e57f"/><stop offset=".54" stop-color="#f6e57f"/><stop offset=".6" stop-color="#e1d02d"/><stop offset=".69" stop-color="#d08e29"/><stop offset="1" stop-color="#452a15"/></linearGradient><linearGradient id="q" x1="-3155.84" x2="-3156.97" y1="-718.24" y2="-719.84" gradientTransform="translate(166187.46 37903.69) scale(52.63)" gradientUnits="userSpaceOnUse"><stop offset="0" stop-color="#ffe12b"/><stop offset=".14" stop-color="#fff7c7" stop-opacity="0"/><stop offset=".82" stop-color="#fff7c7" stop-opacity="0"/><stop offset="1" stop-color="#ffe12b"/></linearGradient></defs><path fill="url(#c)" d="M108.54 62.83c0 25.22-19.89 45.66-44.45 45.67S19.61 88.07 19.61 62.86 39.5 17.2 64.06 17.19s44.47 20.43 44.48 45.64z"/><path fill="url(#d)" d="M94.35 27h13.19l-.12 14.15L94.35 27z"/><path fill="url(#a)" d="M107.5 85.18v15.76H92.4l15.1-15.77z"/><path fill="url(#e)" d="M32.75 100.91H18.49V85.39z"/><path fill="url(#f)" d="M18.49 41.15l.09-14.07L34 27 18.49 41.15z"/><path fill="url(#g)" d="M34.07 34.6l7.52 5.54 10.07 46.75-6.47 5.5L46.24 87 35.67 39.94z"/><path fill="#792100" d="M51.66 86.89l-6.47 5.5H60.6l-5.94-5.46h-3z"/><path fill="url(#h)" d="M47.39 34.65l-5.79 5.51 10.06 46.73h3L54 72.38l-7.13-32.44.52-5.29z"/><path fill="url(#i)" d="M60.59 92.39l-5.93-5.46L63 55v19l-3.5 13.25 1.07 5.15z"/><path fill="url(#j)" d="M62.72 38L63 54.88 54.65 87l-.55-14.49z"/><path fill="url(#b)" d="M34.05 34.6l7.55 5.55 5.82-5.53z"/><path fill="url(#k)" d="M62.7 38l.3 17 7.66 32h4.77L62.7 38z"/><path fill="url(#l)" d="M63 55v19l4.24 13.4-1.5 5 4.94-5.4L63 55z"/><path fill="#792100" d="M75.39 87H70.7l-5 5.42h17.34L75.39 87z"/><path fill="url(#m)" d="M88.88 41.08L92 34.64l-8.35 4.71L75.36 87l7.71 5.48-2.14-5.66 7.95-45.7z"/><path fill="url(#n)" d="M77.78 39.88l-.9-5.23 6.76 4.67-8.28 47.6-3.47-13.51z"/><path fill="url(#o)" d="M76.87 34.63l6.73 4.74L92 34.6z"/><path fill="url(#p)" d="M63 13a50 50 0 1050 50 50 50 0 00-50-50zm-.21 7.22a42.47 42.47 0 11-42.42 42.43 42.37 42.37 0 0142.42-42.43z"/><path fill="url(#q)" d="M61.74 13.33a47.43 47.43 0 1047.43 47.43 47.39 47.39 0 00-47.43-47.43zm-.21 2.08a45 45 0 11-45 45 45 45 0 0145-45z"/></svg>
