<svg class="S" xmlns="http://www.w3.org/2000/svg" enable-background="new 0 0 126 126" viewBox="0 0 126 126"><defs/><linearGradient id="a" x1="472.872" x2="472.872" y1="53.546" y2="61.832" gradientTransform="matrix(-1 0 0 1 535.872 6.347)" gradientUnits="userSpaceOnUse"><stop offset="0" stop-color="#929497"/><stop offset=".07" stop-color="#cfd0d2"/><stop offset=".115" stop-color="#eaebec"/><stop offset=".309" stop-color="#bdbfc1"/><stop offset=".326" stop-color="#afb1b3"/><stop offset=".371" stop-color="#8f9193"/><stop offset=".418" stop-color="#757779"/><stop offset=".467" stop-color="#636466"/><stop offset=".518" stop-color="#595a5c"/><stop offset=".575" stop-color="#555658"/><stop offset=".823" stop-color="#7a7e81"/><stop offset=".952" stop-color="#6b6c6f"/></linearGradient><path fill="url(#a)" d="M121.9 66.1H4.1v-6.2h117.8z"/><linearGradient id="b" x1="435.046" x2="435.046" y1="37.923" y2="74.136" gradientTransform="matrix(-1 0 0 1 535.872 6.347)" gradientUnits="userSpaceOnUse"><stop offset="0" stop-color="#929497"/><stop offset=".07" stop-color="#cfd0d2"/><stop offset=".115" stop-color="#eaebec"/><stop offset=".309" stop-color="#bdbfc1"/><stop offset=".326" stop-color="#afb1b3"/><stop offset=".371" stop-color="#8f9193"/><stop offset=".418" stop-color="#757779"/><stop offset=".467" stop-color="#636466"/><stop offset=".518" stop-color="#595a5c"/><stop offset=".575" stop-color="#555658"/><stop offset=".823" stop-color="#7a7e81"/><stop offset=".952" stop-color="#6b6c6f"/></linearGradient><path fill="url(#b)" d="M103.2 83.5h-4.7c-1.3 0-2.4-1.1-2.4-2.4V44.9c0-1.3 1.1-2.4 2.4-2.4h4.7c1.3 0 2.4 1.1 2.4 2.4v36.3c0 1.3-1.1 2.3-2.4 2.3z"/><linearGradient id="c" x1="429.615" x2="429.615" y1="51.567" y2="61.582" gradientTransform="matrix(-1 0 0 1 535.872 6.347)" gradientUnits="userSpaceOnUse"><stop offset=".059" stop-color="#2c292a"/><stop offset=".132" stop-color="#2e2b2c"/><stop offset=".15" stop-color="#312f30"/><stop offset=".151" stop-color="#323031"/><stop offset=".168" stop-color="#3c3b3c"/><stop offset=".192" stop-color="#414143"/><stop offset=".258" stop-color="#434345"/><stop offset=".328" stop-color="#3e3e3f"/><stop offset=".346" stop-color="#323031"/><stop offset=".369" stop-color="#272324"/><stop offset=".393" stop-color="#231f20"/><stop offset=".481" stop-color="#231f20"/><stop offset="1" stop-color="#231f20"/></linearGradient><path fill="url(#c)" d="M105.6 68.8h1.4V57.4h-1.4z"/><g><linearGradient id="d" x1="424.183" x2="424.183" y1="41.352" y2="70.936" gradientTransform="matrix(-1 0 0 1 535.872 6.347)" gradientUnits="userSpaceOnUse"><stop offset="0" stop-color="#929497"/><stop offset=".07" stop-color="#cfd0d2"/><stop offset=".115" stop-color="#eaebec"/><stop offset=".309" stop-color="#bdbfc1"/><stop offset=".326" stop-color="#afb1b3"/><stop offset=".371" stop-color="#8f9193"/><stop offset=".418" stop-color="#757779"/><stop offset=".467" stop-color="#636466"/><stop offset=".518" stop-color="#595a5c"/><stop offset=".575" stop-color="#555658"/><stop offset=".823" stop-color="#7a7e81"/><stop offset=".952" stop-color="#6b6c6f"/></linearGradient><path fill="url(#d)" d="M114 79.8h-4.7c-1.3 0-2.4-1.1-2.4-2.4V48.6c0-1.3 1.1-2.4 2.4-2.4h4.7c1.3 0 2.4 1.1 2.4 2.4v28.8c0 1.3-1.1 2.4-2.4 2.4z"/><linearGradient id="e" x1="418.752" x2="418.752" y1="51.566" y2="61.55" gradientTransform="matrix(-1 0 0 1 535.872 6.347)" gradientUnits="userSpaceOnUse"><stop offset=".059" stop-color="#2c292a"/><stop offset=".132" stop-color="#2e2b2c"/><stop offset=".15" stop-color="#312f30"/><stop offset=".151" stop-color="#323031"/><stop offset=".168" stop-color="#3c3b3c"/><stop offset=".192" stop-color="#414143"/><stop offset=".258" stop-color="#434345"/><stop offset=".328" stop-color="#3e3e3f"/><stop offset=".346" stop-color="#323031"/><stop offset=".369" stop-color="#272324"/><stop offset=".393" stop-color="#231f20"/><stop offset=".481" stop-color="#231f20"/><stop offset="1" stop-color="#231f20"/></linearGradient><path fill="url(#e)" d="M116.4 68.7h1.4V57.4h-1.4z"/></g><g><linearGradient id="f" x1="416.84" x2="416.84" y1="52.476" y2="63.614" gradientTransform="matrix(-1 0 0 1 535.872 6.347)" gradientUnits="userSpaceOnUse"><stop offset="0" stop-color="#929497"/><stop offset=".07" stop-color="#cfd0d2"/><stop offset=".115" stop-color="#eaebec"/><stop offset=".309" stop-color="#bdbfc1"/><stop offset=".326" stop-color="#afb1b3"/><stop offset=".371" stop-color="#8f9193"/><stop offset=".418" stop-color="#757779"/><stop offset=".467" stop-color="#636466"/><stop offset=".518" stop-color="#595a5c"/><stop offset=".575" stop-color="#555658"/><stop offset=".823" stop-color="#7a7e81"/><stop offset=".952" stop-color="#6b6c6f"/></linearGradient><path fill="url(#f)" d="M120.3 67.2h-2.5v-8.4h2.5z"/></g><g><linearGradient id="g" x1="441.001" x2="441.001" y1="50.761" y2="66.473" gradientTransform="matrix(-1 0 0 1 535.872 6.347)" gradientUnits="userSpaceOnUse"><stop offset="0" stop-color="#929497"/><stop offset=".07" stop-color="#cfd0d2"/><stop offset=".115" stop-color="#eaebec"/><stop offset=".309" stop-color="#bdbfc1"/><stop offset=".326" stop-color="#afb1b3"/><stop offset=".371" stop-color="#8f9193"/><stop offset=".418" stop-color="#757779"/><stop offset=".467" stop-color="#636466"/><stop offset=".518" stop-color="#595a5c"/><stop offset=".575" stop-color="#555658"/><stop offset=".823" stop-color="#7a7e81"/><stop offset=".952" stop-color="#6b6c6f"/></linearGradient><path fill="url(#g)" d="M96.1 68.9h-2.4V57.1h2.4z"/></g><g><linearGradient id="h" x1="-262.567" x2="-262.567" y1="37.923" y2="74.136" gradientTransform="translate(287.838 6.347)" gradientUnits="userSpaceOnUse"><stop offset="0" stop-color="#929497"/><stop offset=".07" stop-color="#cfd0d2"/><stop offset=".115" stop-color="#eaebec"/><stop offset=".309" stop-color="#bdbfc1"/><stop offset=".326" stop-color="#afb1b3"/><stop offset=".371" stop-color="#8f9193"/><stop offset=".418" stop-color="#757779"/><stop offset=".467" stop-color="#636466"/><stop offset=".518" stop-color="#595a5c"/><stop offset=".575" stop-color="#555658"/><stop offset=".823" stop-color="#7a7e81"/><stop offset=".952" stop-color="#6b6c6f"/></linearGradient><path fill="url(#h)" d="M22.9 83.5h4.7c1.3 0 2.4-1.1 2.4-2.4V44.9c0-1.3-1.1-2.4-2.4-2.4h-4.7c-1.3 0-2.4 1.1-2.4 2.4v36.3c0 1.3 1.1 2.3 2.4 2.3z"/><linearGradient id="i" x1="-267.998" x2="-267.998" y1="51.567" y2="61.582" gradientTransform="translate(287.838 6.347)" gradientUnits="userSpaceOnUse"><stop offset=".059" stop-color="#2c292a"/><stop offset=".132" stop-color="#2e2b2c"/><stop offset=".15" stop-color="#312f30"/><stop offset=".151" stop-color="#323031"/><stop offset=".168" stop-color="#3c3b3c"/><stop offset=".192" stop-color="#414143"/><stop offset=".258" stop-color="#434345"/><stop offset=".328" stop-color="#3e3e3f"/><stop offset=".346" stop-color="#323031"/><stop offset=".369" stop-color="#272324"/><stop offset=".393" stop-color="#231f20"/><stop offset=".481" stop-color="#231f20"/><stop offset="1" stop-color="#231f20"/></linearGradient><path fill="url(#i)" d="M19.1 57.4h1.4v11.4h-1.4z"/><g><linearGradient id="j" x1="-273.43" x2="-273.43" y1="41.352" y2="70.936" gradientTransform="translate(287.838 6.347)" gradientUnits="userSpaceOnUse"><stop offset="0" stop-color="#929497"/><stop offset=".07" stop-color="#cfd0d2"/><stop offset=".115" stop-color="#eaebec"/><stop offset=".309" stop-color="#bdbfc1"/><stop offset=".326" stop-color="#afb1b3"/><stop offset=".371" stop-color="#8f9193"/><stop offset=".418" stop-color="#757779"/><stop offset=".467" stop-color="#636466"/><stop offset=".518" stop-color="#595a5c"/><stop offset=".575" stop-color="#555658"/><stop offset=".823" stop-color="#7a7e81"/><stop offset=".952" stop-color="#6b6c6f"/></linearGradient><path fill="url(#j)" d="M12.1 79.8h4.7c1.3 0 2.4-1.1 2.4-2.4V48.6c0-1.3-1.1-2.4-2.4-2.4h-4.7c-1.3 0-2.4 1.1-2.4 2.4v28.8c0 1.3 1 2.4 2.4 2.4z"/><linearGradient id="k" x1="-278.861" x2="-278.861" y1="51.566" y2="61.55" gradientTransform="translate(287.838 6.347)" gradientUnits="userSpaceOnUse"><stop offset=".059" stop-color="#2c292a"/><stop offset=".132" stop-color="#2e2b2c"/><stop offset=".15" stop-color="#312f30"/><stop offset=".151" stop-color="#323031"/><stop offset=".168" stop-color="#3c3b3c"/><stop offset=".192" stop-color="#414143"/><stop offset=".258" stop-color="#434345"/><stop offset=".328" stop-color="#3e3e3f"/><stop offset=".346" stop-color="#323031"/><stop offset=".369" stop-color="#272324"/><stop offset=".393" stop-color="#231f20"/><stop offset=".481" stop-color="#231f20"/><stop offset="1" stop-color="#231f20"/></linearGradient><path fill="url(#k)" d="M8.3 57.4h1.4v11.3H8.3z"/></g><g><linearGradient id="l" x1="-280.773" x2="-280.773" y1="52.476" y2="63.614" gradientTransform="translate(287.838 6.347)" gradientUnits="userSpaceOnUse"><stop offset="0" stop-color="#929497"/><stop offset=".07" stop-color="#cfd0d2"/><stop offset=".115" stop-color="#eaebec"/><stop offset=".309" stop-color="#bdbfc1"/><stop offset=".326" stop-color="#afb1b3"/><stop offset=".371" stop-color="#8f9193"/><stop offset=".418" stop-color="#757779"/><stop offset=".467" stop-color="#636466"/><stop offset=".518" stop-color="#595a5c"/><stop offset=".575" stop-color="#555658"/><stop offset=".823" stop-color="#7a7e81"/><stop offset=".952" stop-color="#6b6c6f"/></linearGradient><path fill="url(#l)" d="M5.8 58.8h2.4v8.4H5.8z"/></g><g><linearGradient id="m" x1="-256.612" x2="-256.612" y1="50.761" y2="66.473" gradientTransform="translate(287.838 6.347)" gradientUnits="userSpaceOnUse"><stop offset="0" stop-color="#929497"/><stop offset=".07" stop-color="#cfd0d2"/><stop offset=".115" stop-color="#eaebec"/><stop offset=".309" stop-color="#bdbfc1"/><stop offset=".326" stop-color="#afb1b3"/><stop offset=".371" stop-color="#8f9193"/><stop offset=".418" stop-color="#757779"/><stop offset=".467" stop-color="#636466"/><stop offset=".518" stop-color="#595a5c"/><stop offset=".575" stop-color="#555658"/><stop offset=".823" stop-color="#7a7e81"/><stop offset=".952" stop-color="#6b6c6f"/></linearGradient><path fill="url(#m)" d="M30 57.1h2.4v11.8H30z"/></g></g><g><linearGradient id="n" x1="-244.787" x2="-244.787" y1="19.23" y2="50.164" gradientTransform="matrix(-1 0 0 1 -181.787 0)" gradientUnits="userSpaceOnUse"><stop offset="0" stop-color="#2b2b2b"/><stop offset="1"/></linearGradient><path fill="url(#n)" d="M77.6 61.5l-4.5-6.7c6.7-4.5 10-10.5 11.7-14.7 1.2-3.1.2-6.6-2.6-8.5-4-2.8-10.6-6.1-19.2-6.1s-15.2 3.3-19.2 6.1C41 33.5 40 37 41.2 40.1c1.7 4.2 5 10.2 11.7 14.7l-4.5 6.7C40 55.9 35.7 48.4 33.6 43.1c-2.6-6.7-.3-14.1 5.6-18.2 5-3.4 13.1-7.5 23.8-7.5 10.7 0 18.9 4.1 23.8 7.5 5.9 4 8.1 11.5 5.5 18.2-2 5.3-6.3 12.8-14.7 18.4z"/><linearGradient id="o" x1="-266.662" x2="-266.662" y1="19.23" y2="50.164" gradientTransform="matrix(-1 0 0 1 -181.787 0)" gradientUnits="userSpaceOnUse"><stop offset="0" stop-color="#2b2b2b"/><stop offset="1"/></linearGradient><path fill="url(#o)" d="M85.3 38.3c-.1.6-.2 1.2-.5 1.8-.1.3-.2.5-.3.8.1-.3.2-.5.3-.8.2-.6.4-1.2.5-1.8z"/><linearGradient id="p" x1="-242.84" x2="-242.84" y1="19.231" y2="50.166" gradientTransform="matrix(-1 0 0 1 -181.787 0)" gradientUnits="userSpaceOnUse"><stop offset="0" stop-color="#2b2b2b"/><stop offset="1"/></linearGradient><path fill="url(#p)" d="M63 17.4c-1.3 0-2.6.1-3.9.2 1.3-.2 2.6-.2 3.9-.2z"/><linearGradient id="q" x1="-214.535" x2="-214.535" y1="19.23" y2="50.164" gradientTransform="matrix(-1 0 0 1 -181.787 0)" gradientUnits="userSpaceOnUse"><stop offset="0" stop-color="#2b2b2b"/><stop offset="1"/></linearGradient><path fill="url(#q)" d="M32.6 36.7z"/><linearGradient id="r" x1="-267.079" x2="-267.079" y1="19.23" y2="50.165" gradientTransform="matrix(-1 0 0 1 -181.787 0)" gradientUnits="userSpaceOnUse"><stop offset="0" stop-color="#2b2b2b"/><stop offset="1"/></linearGradient><path fill="url(#r)" d="M85.3 37.7c0-.4 0-.8-.1-1.2.1.4.1.8.1 1.2z"/><linearGradient id="s" x1="-261.058" x2="-261.058" y1="19.231" y2="50.164" gradientTransform="matrix(-1 0 0 1 -181.787 0)" gradientUnits="userSpaceOnUse"><stop offset="0" stop-color="#2b2b2b"/><stop offset="1"/></linearGradient><path fill="url(#s)" d="M78.4 50.2c.6-.6 1.1-1.3 1.7-1.9-.5.7-1.1 1.3-1.7 1.9z"/><linearGradient id="t" x1="-266.348" x2="-266.348" y1="19.231" y2="50.164" gradientTransform="matrix(-1 0 0 1 -181.787 0)" gradientUnits="userSpaceOnUse"><stop offset="0" stop-color="#2b2b2b"/><stop offset="1"/></linearGradient><path fill="url(#t)" d="M84.8 34.8c-.1-.4-.3-.7-.5-1.1.2.4.4.7.5 1.1z"/><linearGradient id="u" x1="-248.621" x2="-248.621" y1="19.231" y2="50.164" gradientTransform="matrix(-1 0 0 1 -181.787 0)" gradientUnits="userSpaceOnUse"><stop offset="0" stop-color="#2b2b2b"/><stop offset="1"/></linearGradient><path fill="url(#u)" d="M69.1 26c-1.4-.3-2.9-.4-4.5-.5 1.6.1 3.1.3 4.5.5z"/><linearGradient id="v" x1="-236.441" x2="-236.441" y1="19.23" y2="50.164" gradientTransform="matrix(-1 0 0 1 -181.787 0)" gradientUnits="userSpaceOnUse"><stop offset="0" stop-color="#2b2b2b"/><stop offset="1"/></linearGradient><path fill="url(#v)" d="M52.1 18.8c1.6-.5 3.4-.8 5.2-1.1-1.9.3-3.6.7-5.2 1.1z"/><linearGradient id="w" x1="-225.895" x2="-225.895" y1="19.231" y2="50.165" gradientTransform="matrix(-1 0 0 1 -181.787 0)" gradientUnits="userSpaceOnUse"><stop offset="0" stop-color="#2b2b2b"/><stop offset="1"/></linearGradient><path fill="url(#w)" d="M45.4 59.3c-.9-.8-1.8-1.5-2.6-2.3.8.8 1.7 1.6 2.6 2.3z"/><linearGradient id="x" x1="48.169" x2="39.145" y1="63.619" y2="35.752" gradientUnits="userSpaceOnUse"><stop offset="0" stop-color="#2b2b2b"/><stop offset="1"/></linearGradient><path fill="url(#x)" d="M37.9 48.1c2.2 3.7 5.4 7.7 10.1 11.2l2.8-4.1c-6.1-4.6-9.4-10.4-11-14.5-1.5-3.7-.3-7.8 2.8-10.2-5.9 3.8-6.4 11-4.7 17.6z"/><linearGradient id="y" x1="63" x2="63" y1="19.23" y2="50.164" gradientUnits="userSpaceOnUse"><stop offset="0" stop-color="#2b2b2b"/><stop offset="1"/></linearGradient><path fill="url(#y)" d="M85.9 26.2C81.2 22.9 73.3 19 63 19c-10.3 0-18.2 3.9-22.9 7.3-5.2 3.6-7.3 10.3-4.9 16.3.7 1.7 1.6 3.6 2.8 5.6-1.7-6.6-1.2-13.8 4.7-17.6.1-.1.2-.2.3-.2 4.2-2.9 11.1-6.4 20.1-6.4 9 0 15.9 3.5 20.1 6.4 3.4 2.3 4.7 6.6 3.2 10.4-1.6 4.2-4.8 9.9-11 14.5l2.8 4.1c7.2-5.3 10.9-12 12.8-16.8 2.2-6.1.2-12.8-5.1-16.4z"/><linearGradient id="z" x1="-245.583" x2="-245.583" y1="19.229" y2="50.171" gradientTransform="matrix(-1 0 0 1 -181.787 0)" gradientUnits="userSpaceOnUse"><stop offset="0" stop-color="#2b2b2b"/><stop offset="1"/></linearGradient><path fill="url(#z)" d="M63 25.5h1.6H63z"/><linearGradient id="A" x1="37.821" x2="37.821" y1="19.23" y2="50.164" gradientUnits="userSpaceOnUse"><stop offset="0" stop-color="#2b2b2b"/><stop offset="1"/></linearGradient><path fill="url(#A)" d="M38.6 52.1c-.6-.8-1.1-1.6-1.6-2.4.5.8 1 1.6 1.6 2.4z"/><linearGradient id="B" x1="-262.594" x2="-262.594" y1="19.23" y2="50.164" gradientTransform="matrix(-1 0 0 1 -181.787 0)" gradientUnits="userSpaceOnUse"><stop offset="0" stop-color="#2b2b2b"/><stop offset="1"/></linearGradient><path fill="url(#B)" d="M80.1 48.3z"/><linearGradient id="C" x1="-265.872" x2="-265.872" y1="19.23" y2="50.164" gradientTransform="matrix(-1 0 0 1 -181.787 0)" gradientUnits="userSpaceOnUse"><stop offset="0" stop-color="#2b2b2b"/><stop offset="1"/></linearGradient><path fill="url(#C)" d="M83.7 42.6c.3-.6.6-1.2.8-1.7-.3.6-.5 1.1-.8 1.7z"/><linearGradient id="D" x1="56.949" x2="56.949" y1="17.368" y2="61.511" gradientUnits="userSpaceOnUse"><stop offset="0" stop-color="#2b2b2b"/><stop offset="1"/></linearGradient><path fill="url(#D)" d="M58.4 25.8c-1 .1-1.9.3-2.8.5.8-.2 1.8-.4 2.8-.5z"/><linearGradient id="E" x1="42.407" x2="42.407" y1="17.368" y2="61.511" gradientUnits="userSpaceOnUse"><stop offset="0" stop-color="#2b2b2b"/><stop offset="1"/></linearGradient><path fill="url(#E)" d="M41.5 40.9z"/><linearGradient id="F" x1="40.706" x2="40.706" y1="17.368" y2="61.511" gradientUnits="userSpaceOnUse"><stop offset="0" stop-color="#2b2b2b"/><stop offset="1"/></linearGradient><path fill="url(#F)" d="M40.7 38.3c0-.4-.1-.8 0-1.2v1.2z"/><linearGradient id="G" x1="60.685" x2="60.685" y1="17.368" y2="61.511" gradientUnits="userSpaceOnUse"><stop offset="0" stop-color="#2b2b2b"/><stop offset="1"/></linearGradient><path fill="url(#G)" d="M58.4 25.8c1.5-.2 3-.3 4.6-.3-1.6 0-3.2.1-4.6.3z"/><linearGradient id="H" x1="65.876" x2="65.876" y1="17.368" y2="61.512" gradientUnits="userSpaceOnUse"><stop offset="0" stop-color="#2b2b2b"/><stop offset="1"/></linearGradient><path fill="url(#H)" d="M63 17.4c2 0 3.9.1 5.8.4-1.9-.3-3.8-.4-5.8-.4z"/><linearGradient id="I" x1="44.23" x2="44.23" y1="17.368" y2="61.511" gradientUnits="userSpaceOnUse"><stop offset="0" stop-color="#2b2b2b"/><stop offset="1"/></linearGradient><path fill="url(#I)" d="M43.3 44.5c.5.9 1.2 1.9 1.9 2.9-.7-1-1.4-2-1.9-2.9z"/><linearGradient id="J" x1="33.477" x2="33.477" y1="17.368" y2="61.511" gradientUnits="userSpaceOnUse"><stop offset="0" stop-color="#2b2b2b"/><stop offset="1"/></linearGradient><path fill="url(#J)" d="M32.9 40.5c.2.8.4 1.7.8 2.5.1.3.3.7.4 1-.1-.3-.3-.7-.4-1-.4-.8-.6-1.6-.8-2.5z"/><linearGradient id="K" x1="81.237" x2="81.237" y1="17.368" y2="61.51" gradientUnits="userSpaceOnUse"><stop offset="0" stop-color="#2b2b2b"/><stop offset="1"/></linearGradient><path fill="url(#K)" d="M79.9 21c.9.4 1.8.8 2.6 1.3-.8-.5-1.6-.9-2.6-1.3z"/><linearGradient id="L" x1="41.251" x2="41.251" y1="24.386" y2="55.366" gradientUnits="userSpaceOnUse"><stop offset="0" stop-color="#2b2b2b"/><stop offset="1"/></linearGradient><path fill="url(#L)" d="M41 39.5c.1.2.1.4.2.6.1.3.2.5.3.8-.1-.3-.2-.5-.3-.8-.1-.2-.2-.4-.2-.6z"/><linearGradient id="M" x1="63" x2="63" y1="11.091" y2="42.025" gradientUnits="userSpaceOnUse"><stop offset="0" stop-color="#929497"/><stop offset=".07" stop-color="#cfd0d2"/><stop offset=".115" stop-color="#eaebec"/><stop offset=".309" stop-color="#bdbfc1"/><stop offset=".326" stop-color="#afb1b3"/><stop offset=".371" stop-color="#8f9193"/><stop offset=".418" stop-color="#757779"/><stop offset=".467" stop-color="#636466"/><stop offset=".518" stop-color="#595a5c"/><stop offset=".575" stop-color="#555658"/><stop offset=".823" stop-color="#7a7e81"/><stop offset=".952" stop-color="#6b6c6f"/></linearGradient><path fill="url(#M)" d="M86.8 24.9c-1.2-.9-2.7-1.8-4.3-2.6-.8-.4-1.7-.9-2.6-1.3-3.2-1.4-6.9-2.6-11.2-3.2-1.8-.3-3.7-.4-5.8-.4-1.3 0-2.6.1-3.9.2-.6.1-1.2.1-1.9.2-1.8.3-3.6.6-5.2 1.1-5.4 1.5-9.8 3.9-12.9 6.1-3.3 2.3-5.5 5.6-6.2 9.3-.2.8-.3 1.7-.3 2.5-.1 1.3 0 2.5.3 3.8.2.8.4 1.7.8 2.5.1.3.3.7.4 1 .7 1.7 1.7 3.7 2.9 5.7.5.8 1 1.6 1.6 2.4.5.6 1 1.3 1.5 1.9-.9-1.8-1.7-3.8-2.2-5.9-1.2-2-2.1-3.9-2.8-5.6-2.3-5.9-.3-12.6 4.9-16.3C44.8 22.9 52.7 19 63 19s18.2 3.9 22.9 7.3c5.2 3.6 7.3 10.3 4.9 16.3C89 47.3 85.2 54 78.1 59.3l-2.8-4.1c6.1-4.6 9.4-10.4 11-14.5 1.5-3.8.2-8.1-3.2-10.4-4.2-3-11.1-6.4-20.1-6.4-9 0-15.9 3.5-20.1 6.4-.1.1-.2.2-.3.2.6-.4 1.2-.7 1.8-1-.7.3-1.3.6-1.8 1-3.1 2.4-4.3 6.5-2.8 10.2 1.6 4.2 4.8 9.9 11 14.5L48 59.3c-4.7-3.4-7.9-7.5-10.1-11.2.5 2.1 1.3 4.1 2.2 5.9.8 1 1.7 2 2.7 3 .8.8 1.7 1.6 2.6 2.3.9.8 1.9 1.5 3 2.2l4.5-6.7c-3.3-2.2-5.8-4.9-7.7-7.5-.7-1-1.3-1.9-1.9-2.9-.7-1.3-1.3-2.5-1.8-3.6-.1-.3-.2-.5-.3-.8-.2-.4-.3-.8-.4-1.2 0-.2-.1-.4-.1-.6 0-.4-.1-.8 0-1.2.1-2.2 1.2-4.2 3.1-5.5 2.8-1.9 6.7-4.1 11.8-5.2.9-.2 1.9-.4 2.8-.5 1.5-.2 3-.3 4.6-.3h1.6c1.6.1 3.1.3 4.5.5 5.7 1.1 10.1 3.4 13.2 5.5.9.6 1.6 1.3 2.1 2.2.2.3.4.7.5 1.1.2.5.4 1.1.4 1.7.1.4.1.8.1 1.2v.6c-.1.6-.2 1.2-.5 1.8-.1.3-.2.5-.3.8-.2.6-.5 1.1-.8 1.7-.6 1.2-1.3 2.5-2.2 3.7-.4.6-.9 1.3-1.4 1.9-.5.6-1.1 1.3-1.7 1.9-1.5 1.6-3.2 3.1-5.3 4.6l4.5 6.7c8.4-5.7 12.6-13.2 14.7-18.5 2.6-6.5.3-13.9-5.6-18z"/><linearGradient id="N" x1="78.788" x2="87.679" y1="55.879" y2="38.495" gradientUnits="userSpaceOnUse"><stop offset="0" stop-color="#2b2b2b"/><stop offset="1"/></linearGradient><path fill="url(#N)" d="M86.3 40.7c-1.6 4.2-4.8 9.9-11 14.5l2.8 4.1c7.2-5.3 10.9-12 12.8-16.8.1-.2.1-.4.2-.6-1.2-3.5-3.2-6.8-5.7-9.4 1.6 2.3 2 5.4.9 8.2z"/><linearGradient id="O" x1="62.995" x2="62.995" y1="18.96" y2="36.4" gradientUnits="userSpaceOnUse"><stop offset="0" stop-color="#f3f4f4"/><stop offset="1"/></linearGradient><path fill="url(#O)" d="M85.9 26.2C81.2 22.9 73.3 19 63 19c-10.3 0-18.2 3.9-22.9 7.3-5.2 3.6-7.3 10.3-4.9 16.3.7 1.7 1.6 3.6 2.8 5.6-1.7-6.6-1.2-13.8 4.7-17.6.1-.1.2-.2.3-.2 4.2-2.9 11.1-6.4 20.1-6.4 9 0 15.9 3.5 20.1 6.4.9.6 1.6 1.3 2.2 2.2 2.6 2.7 4.5 5.9 5.7 9.4 2-5.9-.1-12.3-5.2-15.8z" opacity=".19"/><linearGradient id="P" x1="63" x2="63" y1="31.083" y2="102.869" gradientUnits="userSpaceOnUse"><stop offset="0" stop-color="#929497"/><stop offset=".07" stop-color="#cfd0d2"/><stop offset=".115" stop-color="#eaebec"/><stop offset=".309" stop-color="#bdbfc1"/><stop offset=".326" stop-color="#afb1b3"/><stop offset=".371" stop-color="#8f9193"/><stop offset=".418" stop-color="#757779"/><stop offset=".467" stop-color="#636466"/><stop offset=".518" stop-color="#595a5c"/><stop offset=".575" stop-color="#555658"/><stop offset=".823" stop-color="#7a7e81"/><stop offset=".952" stop-color="#6b6c6f"/></linearGradient><path fill="url(#P)" d="M94.9 81.3c0 19.5-13.2 27.3-30.8 27.3s-33-7.7-33-27.3C31.1 61.8 45.4 46 63 46s31.9 15.8 31.9 35.3z"/><linearGradient id="Q" x1="61.636" x2="61.636" y1="50.506" y2="87.516" gradientUnits="userSpaceOnUse"><stop offset="0" stop-color="#f3f4f4"/><stop offset="1"/></linearGradient><path fill="url(#Q)" d="M88.4 67.4C83.9 56.9 74.2 49.7 63 49.7c-15.5 0-28.1 14-28.1 31.2 0 .7 0 1.3.1 2 19.1.1 38.3-3.1 53.4-15.5z" opacity=".19"/><linearGradient id="R" x1="62.965" x2="62.965" y1="154.232" y2="45.789" gradientUnits="userSpaceOnUse"><stop offset="0" stop-color="#2b2b2b"/><stop offset="1"/></linearGradient><circle cx="63" cy="77.3" r="11.9" fill="url(#R)"/><linearGradient id="S" x1="62.965" x2="62.965" y1="34.799" y2="101.773" gradientUnits="userSpaceOnUse"><stop offset="0" stop-color="#2b2b2b"/><stop offset="1"/></linearGradient><circle cx="63" cy="78.5" r="10.7" fill="url(#S)"/><g><defs><filter id="T" width="1.1" height="1.1" x="42" y="39.4" filterUnits="userSpaceOnUse"><feFlood flood-color="#fff" flood-opacity="1" result="back"/><feBlend in="SourceGraphic" in2="back"/></filter></defs><mask id="V" width="1.1" height="1.1" x="42" y="39.4" maskUnits="userSpaceOnUse"><g filter="url(#T)"><defs><filter id="U" width="1.1" height="1.1" x="42" y="39.4" filterUnits="userSpaceOnUse"><feFlood flood-color="#fff" flood-opacity="1" result="back"/><feBlend in="SourceGraphic" in2="back"/></filter></defs><linearGradient id="W" x1="42.503" x2="42.503" y1="39.391" y2="40.516" gradientUnits="userSpaceOnUse"><stop offset="0" stop-color="#fff"/><stop offset="1"/></linearGradient><path fill="url(#W)" d="M42.5 40.5c.7 0 .7-1.1 0-1.1s-.7 1.1 0 1.1z" mask="url(#V)"/></g></mask><linearGradient id="X" x1="42.503" x2="42.503" y1="39.391" y2="40.516" gradientUnits="userSpaceOnUse"><stop offset="0" stop-color="#f3f4f4"/><stop offset="1" stop-color="#f3f4f4"/></linearGradient><path fill="url(#X)" d="M42.5 40.5c.7 0 .7-1.1 0-1.1s-.7 1.1 0 1.1z"/></g><g><defs><filter id="Y" width="1.1" height="1.1" x="42" y="39.4" filterUnits="userSpaceOnUse"><feFlood flood-color="#fff" flood-opacity="1" result="back"/><feBlend in="SourceGraphic" in2="back"/></filter></defs><mask id="aa" width="1.1" height="1.1" x="42" y="39.4" maskUnits="userSpaceOnUse"><g filter="url(#Y)"><defs><filter id="Z" width="1.1" height="1.1" x="42" y="39.4" filterUnits="userSpaceOnUse"><feFlood flood-color="#fff" flood-opacity="1" result="back"/><feBlend in="SourceGraphic" in2="back"/></filter></defs><linearGradient id="ab" x1="42.503" x2="42.503" y1="39.391" y2="40.516" gradientUnits="userSpaceOnUse"><stop offset="0" stop-color="#fff"/><stop offset="1"/></linearGradient><path fill="url(#ab)" d="M42.5 40.5c.7 0 .7-1.1 0-1.1s-.7 1.1 0 1.1z" mask="url(#aa)"/></g></mask><linearGradient id="ac" x1="42.503" x2="42.503" y1="39.391" y2="40.516" gradientUnits="userSpaceOnUse"><stop offset="0" stop-color="#f3f4f4"/><stop offset="1" stop-color="#f3f4f4"/></linearGradient><path fill="url(#ac)" d="M42.5 40.5c.7 0 .7-1.1 0-1.1s-.7 1.1 0 1.1z"/></g></g></svg>
