<svg class="S" xmlns="http://www.w3.org/2000/svg" viewBox="0 0 126 126"><circle cx="63" cy="63" r="52" fill="#fff"/><path fill="#e10d05" d="M54.47 13.68a50.14 50.14 0 0158.1 56.22c-19.4.1-38.75 0-58.1 0 0-18.72-.05-37.45 0-56.22zM14.5 50.74a50.32 50.32 0 0116.15-25.9c.14 15 0 30.07.05 45.11-5.77 0-11.55.1-17.32 0a53 53 0 011.12-19.21zM16 79.65h14.7c0 7.13.05 14.26 0 21.44A47.47 47.47 0 0116 79.65zm38.47 0c18.57 0 37.15-.05 55.68 0A50.49 50.49 0 0184.73 108a49.6 49.6 0 01-30.26 4.22c-.05-10.84 0-21.71 0-32.57z"/></svg>
