<svg class="S" xmlns="http://www.w3.org/2000/svg" xmlns:xlink="http://www.w3.org/1999/xlink" viewBox="0 0 126 126"><defs><linearGradient id="linear-gradient" x1="53.85" y1="106.22" x2="53.85" y2="23.09" gradientUnits="userSpaceOnUse"><stop offset="0" stop-color="#f0b325"/><stop offset="1" stop-color="#a73c1a"/></linearGradient><linearGradient id="linear-gradient-2" x1="34.13" y1="98.06" x2="34.13" y2="23.09" xlink:href="#linear-gradient"/><linearGradient id="linear-gradient-3" x1="72.15" y1="106.22" x2="72.15" y2="23.09" xlink:href="#linear-gradient"/><linearGradient id="linear-gradient-4" x1="91.89" y1="98.19" x2="91.89" y2="23.08" xlink:href="#linear-gradient"/></defs><path d="M113,13.07q0,49.68,0,99.34c0,.48-.11.59-.6.59H13.07a1.5,1.5,0,0,1-.06-.7V13.8c0-.88-.1-.79.8-.79h98.47A1.55,1.55,0,0,1,113,13.07Z"/><polygon points="61.7 23.09 46.01 23.09 46.01 99.24 61.69 106.22 61.7 23.09" style="fill:url(#linear-gradient)"/><path d="M43.34,23.09H24.93s0,8.43,0,12.35a2.13,2.13,0,0,0,.17.86c.79,1.84,1.56,3.69,2.35,5.53a2.23,2.23,0,0,1,.2.91q0,10.63,0,21.27a2.32,2.32,0,0,1-.19.91c-.79,1.83-1.55,3.66-2.33,5.49a2.28,2.28,0,0,0-.2,1c0,5.9,0,18.49,0,18.49l18.41,8.19Z" style="fill:url(#linear-gradient-2)"/><polygon points="64.32 106.22 80 99.24 79.99 23.09 64.31 23.09 64.32 106.22" style="fill:url(#linear-gradient-3)"/><path d="M83,98.07l17.68-8,.38-.69s0-12.05,0-18.08a2.39,2.39,0,0,0-.19-.91c-.77-1.79-1.52-3.58-2.29-5.37a2.68,2.68,0,0,1-.21-1.09V42.83a2.67,2.67,0,0,1,.21-1.08c.77-1.79,1.52-3.59,2.29-5.38a2.18,2.18,0,0,0,.19-.91c0-3.92,0-11.76,0-11.76l-.62-.61H83.39l-.69.72V98.19Z" style="fill:url(#linear-gradient-4)"/></svg>
