<svg class="S" xmlns="http://www.w3.org/2000/svg" viewBox="0 0 126 126"><path d="M29.9 28.9h66.3L89.3 62h9.6l-9.6 23.9h9.6l-3.2 9.6H30.3l-3.2-9.6h9.6L27.1 62h9.6l-6.8-33.1z"/><linearGradient id="a" x1="62.995" x2="62.995" y1="95.91" y2="18.24" gradientTransform="matrix(1 0 0 -1 0 128)" gradientUnits="userSpaceOnUse"><stop offset="0" stop-color="#5b779e"/><stop offset=".4" stop-color="#2d3b50"/><stop offset="1" stop-color="#0c0e14"/></linearGradient><path fill="url(#a)" d="M31.6 93.7l-2-5.9h9.7l-9.6-23.9H39l-6.8-33.1h61.4l-6.8 33.1h9.3l-9.6 23.9h9.7l-2 5.9H31.6z"/><path d="M44.4 83.2V69.9h23.9v-1.1H44.4V41.3h37.2v13.2H57.7v1.1h23.9v27.6H44.4z"/><linearGradient id="b" x1="62.995" x2="62.995" y1="80.383" y2="45.298" gradientUnits="userSpaceOnUse"><stop offset="0" stop-color="#da940f"/><stop offset=".75" stop-color="#efd11a"/><stop offset="1" stop-color="#efd11a"/></linearGradient><path fill="url(#b)" d="M46.4 81.2V72h23.9v-5.2H46.4V43.3h33.2v9.2h-24v5.1h24v23.6z"/><linearGradient id="c" x1="19.47" x2="40.55" y1="70.35" y2="65.69" gradientTransform="matrix(1 0 0 -1 0 128)" gradientUnits="userSpaceOnUse"><stop offset="0" stop-color="#d42800"/><stop offset=".52" stop-color="#c67200"/><stop offset="1" stop-color="#a51f00"/></linearGradient><path fill="url(#c)" d="M36.7 62h-9.6l-11-5.7 13.5.9 7.1 4.8z"/><linearGradient id="d" x1="10.6" x2="32.28" y1="70.55" y2="70.55" gradientTransform="matrix(1 0 0 -1 -2.6 125.39)" gradientUnits="userSpaceOnUse"><stop offset="0" stop-color="#c63000"/><stop offset=".49" stop-color="#db9000"/><stop offset=".8" stop-color="#db9000"/><stop offset="1" stop-color="#c43b00"/></linearGradient><path fill="url(#d)" d="M29.7 57.2l-13.5-.9L8 52.5h9.6l12.1 4.7z"/><linearGradient id="e" x1="17.83" x2="36.7" y1="44.235" y2="44.235" gradientTransform="matrix(1 0 0 -1 0 128)" gradientUnits="userSpaceOnUse"><stop offset="0" stop-color="#d42800"/><stop offset=".52" stop-color="#c67200"/><stop offset="1" stop-color="#a51f00"/></linearGradient><path fill="url(#e)" d="M36.7 85.9h-9.6l-9.3-4.3 11.3.2 7.6 4.1z"/><linearGradient id="f" x1="10.6" x2="31.75" y1="46.315" y2="46.315" gradientTransform="matrix(1 0 0 -1 -2.6 125.39)" gradientUnits="userSpaceOnUse"><stop offset="0" stop-color="#c63000"/><stop offset=".49" stop-color="#db9000"/><stop offset=".8" stop-color="#db9000"/><stop offset="1" stop-color="#c43b00"/></linearGradient><path fill="url(#f)" d="M29.1 81.8l-11.3-.2L8 76.4h9.6l11.5 5.4z"/><linearGradient id="g" x1="-580.71" x2="-542.85" y1="-34.795" y2="-34.795" gradientTransform="matrix(0 -1 -1 0 -6.97 -518.69)" gradientUnits="userSpaceOnUse"><stop offset="0" stop-color="#b39c00"/><stop offset=".53" stop-color="#c67200"/><stop offset="1" stop-color="#a51f00"/></linearGradient><path fill="url(#g)" d="M29.9 28.9L36.7 62l-7-4.8-10.7-33 10.9 4.7z"/><linearGradient id="h" x1="-600.47" x2="-571.14" y1="-25.545" y2="-25.545" gradientTransform="matrix(0 -1 -1 0 -6.97 -518.69)" gradientUnits="userSpaceOnUse"><stop offset="0" stop-color="#da940f"/><stop offset=".23" stop-color="#efd11a"/><stop offset=".75" stop-color="#efd11a"/><stop offset=".91" stop-color="#efd11a"/><stop offset="1" stop-color="#d3900e"/></linearGradient><path fill="url(#h)" d="M16.1 56.3l13 25.5-11.6-5.4L8 52.5l8.1 3.8z"/><linearGradient id="i" x1="-604.62" x2="-574.99" y1="-33.39" y2="-33.39" gradientTransform="matrix(0 -1 -1 0 -6.97 -518.69)" gradientUnits="userSpaceOnUse"><stop offset="0" stop-color="#dbbf00"/><stop offset=".45" stop-color="#c67200"/><stop offset="1" stop-color="#a51f00"/></linearGradient><path fill="url(#i)" d="M27.1 62l9.6 23.9-7.5-4.2-13-25.5L27.1 62z"/><linearGradient id="j" x1="-633.32" x2="-595.05" y1="-29.32" y2="-29.32" gradientTransform="matrix(0 -1 -1 0 -6.97 -518.69)" gradientUnits="userSpaceOnUse"><stop offset="0" stop-color="#da940f"/><stop offset=".23" stop-color="#efd11a"/><stop offset=".75" stop-color="#efd11a"/><stop offset=".91" stop-color="#efd11a"/><stop offset="1" stop-color="#d3900e"/></linearGradient><path fill="url(#j)" d="M17.8 81.6l18.9 33L8 76.4l9.8 5.2z"/><linearGradient id="k" x1="-618.73" x2="-600.29" y1="-31.04" y2="-31.04" gradientTransform="matrix(0 -1 -1 0 -6.97 -518.69)" gradientUnits="userSpaceOnUse"><stop offset="0" stop-color="#dbbf00"/><stop offset=".45" stop-color="#c67200"/><stop offset="1" stop-color="#a51f00"/></linearGradient><path fill="url(#k)" d="M27.1 85.9l3.2 9.6-2 4.6-10.5-18.5 9.3 4.3z"/><linearGradient id="l" x1="-633.32" x2="-618.73" y1="-39.5" y2="-39.5" gradientTransform="matrix(0 -1 -1 0 -6.97 -518.69)" gradientUnits="userSpaceOnUse"><stop offset="0" stop-color="#dbbf00"/><stop offset=".45" stop-color="#c67200"/><stop offset="1" stop-color="#a51f00"/></linearGradient><path fill="url(#l)" d="M33.5 105.1l3.2 9.6-8.3-14.7 5.1 5.1z"/><linearGradient id="m" x1="-677.23" x2="-656.15" y1="70.35" y2="65.69" gradientTransform="rotate(180 -285.35 64)" gradientUnits="userSpaceOnUse"><stop offset="0" stop-color="#d42800"/><stop offset=".52" stop-color="#c67200"/><stop offset="1" stop-color="#a51f00"/></linearGradient><path fill="url(#m)" d="M89.3 62h9.6l11-5.7-13.5.9-7.1 4.8z"/><linearGradient id="n" x1="-686.1" x2="-664.42" y1="70.55" y2="70.55" gradientTransform="rotate(180 -284.05 62.695)" gradientUnits="userSpaceOnUse"><stop offset="0" stop-color="#c63000"/><stop offset=".49" stop-color="#db9000"/><stop offset=".8" stop-color="#db9000"/><stop offset="1" stop-color="#c43b00"/></linearGradient><path fill="url(#n)" d="M96.3 57.2l13.5-.9 8.1-3.8h-9.6l-12 4.7z"/><linearGradient id="o" x1="-678.87" x2="-660" y1="44.235" y2="44.235" gradientTransform="rotate(180 -285.35 64)" gradientUnits="userSpaceOnUse"><stop offset="0" stop-color="#d42800"/><stop offset=".52" stop-color="#c67200"/><stop offset="1" stop-color="#a51f00"/></linearGradient><path fill="url(#o)" d="M89.3 85.9h9.6l9.3-4.3-11.3.2-7.6 4.1z"/><linearGradient id="p" x1="-686.1" x2="-664.95" y1="46.315" y2="46.315" gradientTransform="rotate(180 -284.05 62.695)" gradientUnits="userSpaceOnUse"><stop offset="0" stop-color="#c63000"/><stop offset=".49" stop-color="#db9000"/><stop offset=".8" stop-color="#db9000"/><stop offset="1" stop-color="#c43b00"/></linearGradient><path fill="url(#p)" d="M96.8 81.8l11.3-.2 9.8-5.2h-9.6c.1 0-11.4 5.4-11.5 5.4z"/><linearGradient id="q" x1="-575.92" x2="-538.07" y1="670.88" y2="670.88" gradientTransform="rotate(-90 -541.205 22.515)" gradientUnits="userSpaceOnUse"><stop offset="0" stop-color="#da940f"/><stop offset=".23" stop-color="#efd11a"/><stop offset=".75" stop-color="#efd11a"/><stop offset=".91" stop-color="#efd11a"/><stop offset="1" stop-color="#d3900e"/></linearGradient><path fill="url(#q)" d="M107.1 24.2l-10.8 33 12.1-4.8 9.6-33.1-10.9 4.9z"/><linearGradient id="r" x1="-580.71" x2="-542.85" y1="661.895" y2="661.895" gradientTransform="rotate(-90 -541.205 22.515)" gradientUnits="userSpaceOnUse"><stop offset="0" stop-color="#b39c00"/><stop offset=".53" stop-color="#c67200"/><stop offset="1" stop-color="#a51f00"/></linearGradient><path fill="url(#r)" d="M96.1 28.9L89.3 62l7-4.8L107 24.1l-10.9 4.8z"/><linearGradient id="s" x1="-600.47" x2="-571.14" y1="671.145" y2="671.145" gradientTransform="rotate(-90 -541.205 22.515)" gradientUnits="userSpaceOnUse"><stop offset="0" stop-color="#da940f"/><stop offset=".23" stop-color="#efd11a"/><stop offset=".75" stop-color="#efd11a"/><stop offset=".91" stop-color="#efd11a"/><stop offset="1" stop-color="#d3900e"/></linearGradient><path fill="url(#s)" d="M109.9 56.3l-13 25.5 11.6-5.4 9.6-23.9-8.2 3.8z"/><linearGradient id="t" x1="-604.62" x2="-574.99" y1="663.3" y2="663.3" gradientTransform="rotate(-90 -541.205 22.515)" gradientUnits="userSpaceOnUse"><stop offset="0" stop-color="#dbbf00"/><stop offset=".45" stop-color="#c67200"/><stop offset="1" stop-color="#a51f00"/></linearGradient><path fill="url(#t)" d="M98.9 62l-9.6 23.9 7.6-4.2 13-25.5c0 .1-11 5.8-11 5.8z"/><linearGradient id="u" x1="-633.32" x2="-595.05" y1="667.37" y2="667.37" gradientTransform="rotate(-90 -541.205 22.515)" gradientUnits="userSpaceOnUse"><stop offset="0" stop-color="#da940f"/><stop offset=".23" stop-color="#efd11a"/><stop offset=".75" stop-color="#efd11a"/><stop offset=".91" stop-color="#efd11a"/><stop offset="1" stop-color="#d3900e"/></linearGradient><path fill="url(#u)" d="M108.2 81.6l-18.9 33L118 76.4l-9.8 5.2z"/><linearGradient id="v" x1="-618.73" x2="-600.29" y1="665.65" y2="665.65" gradientTransform="rotate(-90 -541.205 22.515)" gradientUnits="userSpaceOnUse"><stop offset="0" stop-color="#dbbf00"/><stop offset=".45" stop-color="#c67200"/><stop offset="1" stop-color="#a51f00"/></linearGradient><path fill="url(#v)" d="M98.9 85.9l-3.2 9.6 1.9 4.6 10.5-18.4c.1-.1-9.2 4.2-9.2 4.2z"/><linearGradient id="w" x1="-633.32" x2="-618.73" y1="657.195" y2="657.195" gradientTransform="rotate(-90 -541.205 22.515)" gradientUnits="userSpaceOnUse"><stop offset="0" stop-color="#dbbf00"/><stop offset=".45" stop-color="#c67200"/><stop offset="1" stop-color="#a51f00"/></linearGradient><path fill="url(#w)" d="M92.5 105.1l-3.2 9.6 8.3-14.6c0-.1-5.1 5-5.1 5z"/><linearGradient id="x" x1="61.42" x2="171.42" y1="108.045" y2="108.045" gradientTransform="matrix(1 0 0 -1 -53.42 129.82)" gradientUnits="userSpaceOnUse"><stop offset="0" stop-color="#da940f"/><stop offset=".23" stop-color="#efd11a"/><stop offset=".75" stop-color="#efd11a"/><stop offset=".91" stop-color="#efd11a"/><stop offset="1" stop-color="#d3900e"/></linearGradient><path fill="url(#x)" d="M107 24.2H19L8 19.4h110l-11 4.8z"/><linearGradient id="y" x1="72.37" x2="160.46" y1="103.27" y2="103.27" gradientTransform="matrix(1 0 0 -1 -53.42 129.82)" gradientUnits="userSpaceOnUse"><stop offset="0" stop-color="#d42800"/><stop offset=".3" stop-color="#dbbf00"/><stop offset=".75" stop-color="#c67200"/><stop offset="1" stop-color="#a51f00"/></linearGradient><path fill="url(#y)" d="M96.1 28.9H29.9L19 24.2h88l-10.9 4.7z"/><linearGradient id="z" x1="81.78" x2="151.06" y1="32.055" y2="32.055" gradientTransform="matrix(1 0 0 -1 -53.42 129.82)" gradientUnits="userSpaceOnUse"><stop offset="0" stop-color="#da940f"/><stop offset=".23" stop-color="#efd11a"/><stop offset=".75" stop-color="#efd11a"/><stop offset=".91" stop-color="#efd11a"/><stop offset="1" stop-color="#d3900e"/></linearGradient><path fill="url(#z)" d="M97.6 100H28.4l2-4.6h65.4l1.8 4.6z"/><linearGradient id="A" x1="81.78" x2="151.06" y1="27.27" y2="27.27" gradientTransform="matrix(1 0 0 -1 -53.42 129.82)" gradientUnits="userSpaceOnUse"><stop offset="0" stop-color="#d42800"/><stop offset=".3" stop-color="#dbbf00"/><stop offset=".75" stop-color="#c67200"/><stop offset="1" stop-color="#a51f00"/></linearGradient><path fill="url(#A)" d="M92.5 105.1h-59l-5.2-5h69.3l-5.1 5z"/><linearGradient id="B" x1="-575.92" x2="-538.07" y1="-25.81" y2="-25.81" gradientTransform="matrix(0 -1 -1 0 -6.97 -518.69)" gradientUnits="userSpaceOnUse"><stop offset="0" stop-color="#da940f"/><stop offset=".23" stop-color="#efd11a"/><stop offset=".75" stop-color="#efd11a"/><stop offset=".91" stop-color="#efd11a"/><stop offset="1" stop-color="#d3900e"/></linearGradient><path fill="url(#B)" d="M19 24.2l10.7 33.1-12.1-4.8L8 19.4l11 4.8z"/></svg>
