<svg class="S" xmlns="http://www.w3.org/2000/svg" viewBox="0 0 126 126"><circle cx="63" cy="63" r="54" fill="#fff"/><path fill="#c8371b" d="M63 13a50 50 0 11-50 50 50 50 0 0150-50zm-.11 5a11.65 11.65 0 00-.34 1.93c-.32 2.91-.45 5.83-.64 8.75-.37 6.6-.74 13.19-1.32 19.77-.35 3.86-.76 7.71-1.33 11.55a66.5 66.5 0 01-2.19 10.15c-1.4.09-2.81.22-4.21.34a28.68 28.68 0 01-1.07-4.39c-.63-3.51-1.06-7-1.47-10.59-.85-7.45-1.47-14.92-2.18-22.38-.11-1.11-.2-2.22-.38-3.32a9.32 9.32 0 00-.28 1.49c-.21 1.58-.36 3.16-.53 4.74-.88 8.79-1.68 17.59-3.05 26.32-.33 2.11-.71 4.22-1.18 6.31a33.61 33.61 0 01-1.15 4A40.25 40.25 0 0037.71 74a29.9 29.9 0 01-1.36-4.24 97.46 97.46 0 01-1.83-10c-.61-4.2-1-8.42-1.6-12.63a23.6 23.6 0 00-.62-3.23h-.09a11.9 11.9 0 00-.3 1.58c-.4 2.9-.67 5.82-1 8.74-.83 9-1.55 18-2.24 27a44.84 44.84 0 0113.52 8.14c7.19 6.29 15.61 14 20.53 22.2.09 0 .12.26.22.07A46.27 46.27 0 0173.48 98a128.71 128.71 0 0112.37-10.33 54.24 54.24 0 0111.24-6.48q-.72-9.7-1.56-19.39c0-.37-.07-.75-.07-1.12v.12c-.2-2.68-.47-5.36-.72-8-.24-2.46-.48-4.93-.83-7.38a8.57 8.57 0 00-.33-1.6 23.24 23.24 0 00-.71 3.7c-.71 5.43-1.25 10.89-2.17 16.29a67.85 67.85 0 01-1.61 7.46 22.87 22.87 0 01-1 2.78 35.24 35.24 0 00-3.85-1.37 40.78 40.78 0 01-1.67-6.43c-.63-3.32-1.11-6.67-1.55-10-.94-7.31-1.6-14.65-2.36-22-.11-1.1-.23-2.2-.39-3.3a5.75 5.75 0 00-.22-1.08c-.26 1.6-.37 3.23-.54 4.84-.72 7.84-1.38 15.69-2.34 23.51-.25 2-.51 4-.83 6A41.57 41.57 0 0173 70.49c-1.41-.16-2.81-.26-4.22-.37a68.05 68.05 0 01-2.21-10.29c-1.08-7.36-1.62-14.78-2.1-22.2-.29-4.53-.52-9.07-.81-13.6-.13-1.71-.23-3.41-.48-5.1a3.4 3.4 0 00-.24-.95z"/></svg>
