<svg class="S" xmlns="http://www.w3.org/2000/svg" viewBox="0 0 126 126"><path fill="#7b1fa1" d="M102.39 13H23.61A10.65 10.65 0 0013 23.61v78.78A10.65 10.65 0 0023.61 113h78.78A10.65 10.65 0 00113 102.39V23.61A10.65 10.65 0 00102.39 13zM99 33l-2.58 15.41a9 9 0 000 2.2c.26 3.83.54 7.66.81 11.49.23 3.42.45 6.84.69 10.25.2 3 .43 6 .64 9.05.14 2.07.29 4.15.43 6.22 0 .57 0 .57-.55.53l-10-.67-9.42-.64-8.02-.52c-.65 0-1.3-.09-2-.16-.34 0-.47 0-.47.43v11c0 .34-.06.49-.45.57-4.12.8-8.24 1.64-12.36 2.46l-11.39 2.28c-.81.17-.81.18-.81-.63V88.98c0-.4-.09-.47-.45-.36-2.89.88-5.77 1.75-8.66 2.61-2.4.72-4.8 1.43-7.19 2.17-.35.11-.37 0-.35-.29.1-1.42.19-2.85.29-4.27s.2-2.94.29-4.4l.39-5.69c.09-1.43.19-2.87.28-4.31.13-1.9.26-3.79.38-5.69.1-1.43.19-2.87.29-4.31q.18-2.85.38-5.68c.1-1.44.19-2.88.28-4.32.05-.65.08-1.3.14-1.95a10.66 10.66 0 00-.26-2.64c-.38-2.86-.8-5.71-1.21-8.56s-.8-5.62-1.22-8.43c-.06-.39 0-.47.41-.47h15.7c.4 0 .51-.09.51-.5v-7.37c0-.4.12-.48.49-.48h39.11c.56 0 .56 0 .43.59-.49 2.44-1 4.88-1.48 7.32-.07.34 0 .43.35.43h16.12c.55.06.56.06.46.62zM49.11 63V30.26c0-.59 0-.59.6-.59h26.66c.53 0 .52 0 .42.51l-2 10.2c-.2 1-.4 1.94-.58 2.92-.06.33-.27.26-.46.26h-9.5c-.4 0-.94-.13-1.16.07s-.09.79-.09 1.2v9.41c0 .34.08.44.43.44h10.21c.35 0 .49.06.48.46v13c0 .37-.08.49-.47.49H63.48c-.36 0-.48.08-.48.47v24.08c0 .4-.14.5-.48.57q-6.42 1.26-12.84 2.56h-.08c-.5.1-.5.1-.5-.42z"/></svg>
