<svg class="S" xmlns="http://www.w3.org/2000/svg" viewBox="0 0 126 126"><defs/><linearGradient id="a" x1="63" x2="63" y1="15" y2="115" gradientTransform="matrix(1 0 0 -1 0 128)" gradientUnits="userSpaceOnUse"><stop offset="0" stop-color="red"/><stop offset="1" stop-color="#ffd201"/></linearGradient><circle cx="63" cy="63" r="50" fill="url(#a)" fill-rule="evenodd" clip-rule="evenodd"/><path fill="#231f20" fill-rule="evenodd" d="M63 17.5c25.1 0 45.5 20.4 45.5 45.5 0 11.9-4.6 22.7-12.1 30.8.8-1.8 1.3-3.3 1.5-4.1 1-3.7.8-7.4-1.4-11.9s-7.7-9-10.9-10.5c-3.2-1.6-8.4-2.2-13.7-1.7-5.3.5-12 1.5-17 .8s-8.6-4.5-9.1-7.7.6-5.5 1.1-6.1.1-.8-.4-1.2-1.2-1.2-1.3-2.7c-.1-1.4.4-3.8.6-3.9.2-.1.2.2.1.5s-.4 1.9.8 5 5.5 3 8.2 2.4 6-2.8 7.4-3.1c1.4-.2 4.2.8 7.8 2.8 3.5 2 5 4.4 7 6.3 2.1 1.9 3.5 1.6 4.4 1.7.9 0 2.3.4 3.4.6 1.1.2 3 .4 3.8.2s2.1-1.8 2.7-2c.6-.1.9 2.6 1.3 5.1s1.3 5.9 3.6 8.9 4.2 3.9 6.4 3.7c2.1-.1 3.8-2.6 4-3 .2-.5-.6-.1-1.4.3s-2.8.9-4.2.5c-1.4-.4-2.1-2-2-2.2.1-.3 1 0 1.8.2.7.2 2.5.3 4.2-.5 1.7-.9 2.7-2.9 2.8-4.9.1-1.9-1.3-3.5-2.5-4s-1.4.2-1.2.5c.2.2 1.4.8 1.7 1.9.2 1.1 0 3.3-.8 4.3-.9 1-3.6 1.4-5.6.3-2-1.1-3.3-4.6-3.7-6.7-.4-2.1-1.8-5.3-2.7-6.6-.9-1.3-2.7-2.3-2.6-2.6s.7-.4 1.9-.1c1.2.2 1.6 1.5 1.6 2s.3.5.9.3.9-1.1.9-2 .4-1.3.6-1.7c.3-.4-.1-1.3.1-1.6.1-.3.7-1.1.8-1.6.1-.5-.9-1.4-.8-1.6.1-.2.7 0 1.2-.1s-.1-1.4-.8-2.3c-.7-.9-1.6-1.9-2.9-2.1-1.3-.2-1.4.8-2.5.9-1 .1-2.1-.3-3.3-1.2-1.2-.9-2.1-1.5-3.8-1.4-1.7 0-2.7-.5-3.8-1.7-1.1-1.1-2.3-1.9-2.2-2.7.1-.8 1.7-1.1 2.7-1.1.9-.1.7-.8.1-2.2-.6-1.4-2.6-3.1-4.1-3.7s-3 0-3.7-.3-.7-1.7-1.5-2.6c-.7-.9-3.3-.8-5.9-.8s-3.8 0-4.4-.5 0-1.1.3-1.7c.3-.5-.1-.6-.6-.4-.6.2-1.6 1-2 1.7-.4.7-.8.9-1.2 1-.4.1-.2-.5-.7-.9-.5-.5-1.2-.3-2.3-.5-1.1-.2-3.7-.8-4-2.9-.3-2.1 1.4-3.7 3.6-3.9s3.1 2 3.5 2c.3 0 .2-1.3-.4-2.6 1.6-.5 3.4-.6 5.2-.6zM31.7 95.9C23 87.6 17.5 75.9 17.5 63c0-16.4 8.7-30.8 21.8-38.8.1.5.1 1.1.4 1.7.4 1.2 2.3 1.6 3.5 2 1.2.4 2.8.3 2.8.3s-.1.3-.8.6c-.7.3-3.1.4-6.1.6s-5.8 2.4-7.7 4.7-3 4.8-4 5.1c-.9.3-1.5-1.7-1.8-1.6s-.7 1-.6 2.3c.2 1.3 1.6 1.7 1.8 2.3.2.6-.8 1.4-1.8 2.4-.9 1-2.5 3.4-2.2 10.8s-.8 10.4-1.6 11.8c-.8 1.4-1.8 1.1-2.5 1.3-.6.2-.1.9.6 1.6.7.7 2.6 1 4.1.6s2.3-2.6 2.6-2.4c.3.2.4 1.4 1.5 3.8s3.1 5.1 4.1 6.4c1.1 1.3.9 1.3.5 1.9s-.3 1.7-.2 3.4c.1 1.7.7 3.9-.2 4.7-.9.8-3.3-.2-3.7-.2-.4.1-.6.4.4 1.5.9 1.1 2.4 1.8 4.2 1.5s2.7-2.7 2.8-3.9c.1-1.2.6-3.2 2.1-3 1.5.3 2.1 2.5 2.1 4 .1 1.5.7 2.1.9 3.1.2 1.1-1 1.1-.9 1.7.1.7 1.1.4 1.8-.3s.9-2.4 1.2-3.2c.3-.8.9-.6 1.8-.1.9.4 2.6.5 4.7.9 2.2.4 5.3 1.3 5.4 4.1.1 2.8-2.1 4.2-6.6 4.6s-11.2-.8-15.5-3c-.1.1-.4-.1-.7-.3zm13.7-74.8c.7-.3 1.4-.6 2.2-.8-.1 1 .2 2.1.6 3.3.7 1.8 3.5 2.6 3.5 3s-.9.4-1.8.2c-.9-.3-2.2-.7-4-.9-1.8-.2-3.6-.6-3.7-1.3-.2-.7.9-1.7 2-2.1 1.1-.4 2 .7 2.3.7.3-.1.3-.5-.2-1.3-.3-.4-.6-.6-.9-.8zm16 15.1c-.5-.5.7-2.2 3.1-2.1 2.4.1 3.3 1.2 4.8 2 1.5.9 2.2 1.2 1.8 1.4-.3.1-2.4-.1-4.2-.5-1.8-.5-2.4-.9-3.4-.8-1 0-1.6.5-2.1 0zm21.8 11c-.4-1 .6-2 1.8-1.8 1.2.2 2 .6 1.9 1s-1 .4-1.7.7c-.7.4-1.5 1.1-2 .1zm-20.4-1.4c-.1-.4 2.8-3.6 6-3.1s6.5 3.4 9.4 5.9 4.6 3.6 6 4 1.9.2 2 .4.2 4.5 0 4.7c-.2.1-3.9-.2-7.8-2.8s-8.4-6.1-10.9-7.1c-2.7-1-4.6-1.6-4.7-2zm25.3 10c.6-.9 3.1.4 2.4 1.7-.8 1.2-3-.8-2.4-1.7zM63 13c27.5 0 50 22.5 50 50s-22.5 50-50 50-50-22.5-50-50 22.5-50 50-50z" clip-rule="evenodd"/><g><path d="M50.3 121.7h-42c-2.2 0-4-1.8-4-4v-42c0-2.2 1.8-4 4-4h42c2.2 0 4 1.8 4 4v42c0 2.2-1.8 4-4 4z" opacity=".3"/><path fill="#273445" d="M46 126H4c-2.2 0-4-1.8-4-4V80c0-2.2 1.8-4 4-4h42c2.2 0 4 1.8 4 4v42c0 2.2-1.8 4-4 4z"/><linearGradient id="b" x1="25" x2="25" y1="12.441" y2="41.541" gradientTransform="matrix(1 0 0 -1 0 128)" gradientUnits="userSpaceOnUse"><stop offset="0" stop-color="#e6a500"/><stop offset="1" stop-color="#d4ff47"/></linearGradient><path fill="url(#b)" d="M16.7 86.4l12.5 21.7-4.3 7.4L8.2 86.4h8.5zm14.6 18.3l10.5-18.2H27v10.8l4.3 7.4z"/></g></svg>
