<svg class="S" xmlns="http://www.w3.org/2000/svg" viewBox="0 0 126 126"><defs/><path fill="#73000b" d="M107 113H19.1c-3.4 0-6.1-2.8-6.1-6.1V19.1c0-3.3 2.8-6.1 6.1-6.1h87.8c3.4 0 6.1 2.8 6.1 6.1v87.7c.1 3.4-2.7 6.2-6 6.2z"/><linearGradient id="a" x1="63.049" x2="63.049" y1="31.418" y2="98.518" gradientTransform="matrix(1 0 0 -1 0 128)" gradientUnits="userSpaceOnUse"><stop offset="0" stop-color="red"/><stop offset="1" stop-color="#ffd201"/></linearGradient><path fill="url(#a)" d="M68.4 50.6S65 53 65 53.9c-.3 9.5.4 16.1.4 16.1-.9 2.2-3.1 3.3-5 5.3l7.1.9c1.3 7.9 4 13.7 7.6 18.5-.8-2.4-2.5-5.9-1.7-6.9.3-.4 4.9 6.9 4.9 6.9-.3-1.5-.7-2.9-1.5-4.4 1.7 1.9 3.1 4 4.4 6.2-1.4-8.8-3.3-17.9-1.9-25.4 4.5-1 8.7-1.5 12.9-2.1.6-7.8 6.5-11.4 12.3-15.1-7.2 1.3-14.4 2.7-22.3 5.9 1.2-3.9 2.8-7.2 4-10.1 9.1-4.3 17.9-6.2 26.7-8.2-11.9.2-16.6 0-18.5-1.4-1-.8 1.4-3.4 1.4-3.4-1.2.1-2.3.6-3.4 1.6 1.1-1.8 2.7-2.7 4.3-3.6-8.5 1.9-32.2 10-42 17l13.7-1.1zM13.2 87.3c6.7-2.5 28.4-10.3 28.4-19.1 0-5.3-12.4-6-12.4-15.5 0-14 28.1-21.2 38.1-23.3-2.4 1-4.7 2.4-7.1 3.8 2.9-1 5.6-1.8 7.7-2.1-.7.3-1.3.7-1.9 1.1 4.6-1.1 7.4-1.1 10.3-1.1-7.3 1.6-31.7 10.1-31.7 18.8s13.5 5.2 13.5 19.4c0 16.5-27.7 26.5-27.7 26.5s3.8-3.8 3.3-5c-.7-1.6-8-.7-11.6-.4 4.6-1.4 9.2-2.8 12.7-5.4-7.6 2.3-14.8 2.8-21.6 2.3z"/><g><path d="M50.3 121.7h-42c-2.2 0-4-1.8-4-4v-42c0-2.2 1.8-4 4-4h42c2.2 0 4 1.8 4 4v42c0 2.2-1.8 4-4 4z" opacity=".3"/><path fill="#273445" d="M46 126H4c-2.2 0-4-1.8-4-4V80c0-2.2 1.8-4 4-4h42c2.2 0 4 1.8 4 4v42c0 2.2-1.8 4-4 4z"/><linearGradient id="b" x1="25" x2="25" y1="587.559" y2="558.459" gradientTransform="translate(0 -472)" gradientUnits="userSpaceOnUse"><stop offset="0" stop-color="#e6a500"/><stop offset="1" stop-color="#d4ff47"/></linearGradient><path fill="url(#b)" d="M16.7 86.4l12.5 21.7-4.3 7.4L8.2 86.4h8.5zm14.6 18.3l10.5-18.2H27v10.8l4.3 7.4z"/></g></svg>
