<svg class="S" xmlns="http://www.w3.org/2000/svg" viewBox="0 0 126 126"><defs/><path fill="#fffffe" fill-rule="evenodd" d="M103.9 18.3L94.9 8H31.1l-9 10.3v89.4l9 10.3h63.8l9-10.3V18.3" clip-rule="evenodd"/><path fill="#253b72" fill-rule="evenodd" d="M34.1 112.3l-7-8v-5l17.5-33.6h15.9v46.6H34.1zm4.7-52H27.1V38l11.7 22.3zm-11.7 5.3h12l-12 23.8V65.6zm7-51.9h26.4v46.7H44.4L27.1 28.5v-6.8l7-8z" clip-rule="evenodd"/><path fill="#bb2531" fill-rule="evenodd" d="M65.6 112.3V65.6h15.9L99 99.2v5l-7 8H65.6zM98.9 38v22.4H87.2L98.9 38zm0 51.5L87 65.6h12v23.9zm0-67.8v6.8L81.6 60.4h-16V13.7H92l6.9 8z" clip-rule="evenodd"/><g><path d="M50.3 121.7h-42c-2.2 0-4-1.8-4-4v-42c0-2.2 1.8-4 4-4h42c2.2 0 4 1.8 4 4v42c0 2.2-1.8 4-4 4z" opacity=".3"/><path fill="#273445" d="M46 126H4c-2.2 0-4-1.8-4-4V80c0-2.2 1.8-4 4-4h42c2.2 0 4 1.8 4 4v42c0 2.2-1.8 4-4 4z"/><linearGradient id="a" x1="25" x2="25" y1="587.559" y2="558.459" gradientTransform="translate(0 -472)" gradientUnits="userSpaceOnUse"><stop offset="0" stop-color="#e6a500"/><stop offset="1" stop-color="#d4ff47"/></linearGradient><path fill="url(#a)" d="M16.7 86.4l12.5 21.7-4.3 7.4L8.2 86.4h8.5zm14.6 18.3l10.5-18.2H27v10.8l4.3 7.4z"/></g></svg>
