<svg class="S" id="design" xmlns="http://www.w3.org/2000/svg" xmlns:xlink="http://www.w3.org/1999/xlink" viewBox="0 0 126 126"><defs><linearGradient id="linear-gradient" x1="-475.83" y1="999.08" x2="-530.62" y2="946.28" gradientTransform="matrix(0, -1, -1, 0, 1041.1, -440.42)" gradientUnits="userSpaceOnUse"><stop offset="0" stop-color="#fff"/><stop offset="0.38" stop-color="#d6d6e0"/><stop offset="0.44" stop-color="#c9c9d1"/><stop offset="0.56" stop-color="#a7a7ab"/><stop offset="0.68" stop-color="gray"/></linearGradient><radialGradient id="radial-gradient" cx="-537.9" cy="1014.98" r="34.19" gradientTransform="matrix(0, -1, -1, 0, 1041.1, -440.42)" gradientUnits="userSpaceOnUse"><stop offset="0.09" stop-color="#f25e21"/><stop offset="0.11" stop-color="#f05b20"/><stop offset="0.35" stop-color="#cf2909"/><stop offset="0.46" stop-color="#c21500"/><stop offset="0.65" stop-color="#9c0000"/><stop offset="0.88" stop-color="#c73300"/></radialGradient><linearGradient id="linear-gradient-2" x1="-544.42" y1="981.03" x2="-503.82" y2="1018.62" gradientTransform="matrix(0, -1, -1, 0, 1041.1, -440.42)" gradientUnits="userSpaceOnUse"><stop offset="0.02" stop-color="#bf1f00"/><stop offset="0.1" stop-color="#a91a00"/><stop offset="0.19" stop-color="#991600"/><stop offset="0.25" stop-color="#941500"/><stop offset="0.65" stop-color="#850000"/><stop offset="0.98" stop-color="#bf1f00"/></linearGradient></defs><g id="Layer_2" data-name="Layer 2"><path d="M30.35,69.93l-2.2-2.2s14-24.6,21-52.18c2,7.4,30.84,54,62.56,67-9,2-39.16,8-55.76,16.78C46.74,95.52,30.35,69.93,30.35,69.93Z" style="fill:#666"/><path d="M86.37,26.59a86.13,86.13,0,0,0-6.8-5.49l1.54-2.28C79,17.31,77,16,75,14.75L73.6,17.18A55.37,55.37,0,0,0,67.38,14l1.2-2.55a37.82,37.82,0,0,0-5.29-1.89l-1,2.64a21.31,21.31,0,0,0-5-.75c.34-1,.65-1.9.91-2.72A14,14,0,0,0,54.27,9c-.24.85-.51,1.82-.84,2.88a8,8,0,0,0-3.22,1.89c.27-1,.56-2.26.78-3.2a4.64,4.64,0,0,0-1.54,2.55C47.61,21.5,36.68,56.81,23.94,72.34l.23.9c2.53-3.09,9.64-.58,16.75,6.11,7.74,7.29,12.55,16.82,10.74,21.27a7.22,7.22,0,0,1-1.52,2.5c16.73-11.1,53.91-18.92,62.51-20A4,4,0,0,0,115.17,82c-.92.12-2.39.32-3.4.49a7.76,7.76,0,0,0,2.41-2.92l3-.52h0a13.14,13.14,0,0,0,.84-3.86l-2.76.61a20.11,20.11,0,0,0-.15-5.14l2.67-.75a36.33,36.33,0,0,0-1.32-5.47l-2.61.9a54,54,0,0,0-2.53-6.46l2.52-1.13c-1-2.08-2.07-4.21-3.32-6.37l-2.42,1.3c-1.35-2.33-2.87-4.68-4.54-7.05l2.27-1.52q-2.32-3.3-5-6.57l-2.15,1.72c-1.93-2.33-3.94-4.6-6.21-6.86l2-1.94c-1.19-1.22-2.42-2.43-3.67-3.63C89.9,26,89,25.26,88.14,24.49ZM61,15.2c-.55,1.31-1.13,2.73-1.8,4.22a19.82,19.82,0,0,0-4.59-.68c.56-1.5,1.14-2.93,1.55-4.26A20.82,20.82,0,0,1,61,15.2ZM49.39,16.78A7.63,7.63,0,0,1,52.51,15L51.15,19.2a7.24,7.24,0,0,0-3,1.72C48.63,19.46,49,18.07,49.39,16.78Zm16.55.15a52.29,52.29,0,0,1,6,3.09l-2.36,4a49,49,0,0,0-5.67-2.93c.73-1.47,1.41-2.86,2-4.15ZM57.5,23.27c-.71,1.61-1.47,3.29-2.26,5a17.22,17.22,0,0,0-4.09-.61c.69-1.73,1.36-3.4,2-5a18.55,18.55,0,0,1,4.38.65ZM47,24.69a6.89,6.89,0,0,1,2.81-1.64c-.55,1.61-1.13,3.28-1.77,5a6.55,6.55,0,0,0-2.62,1.53c.55-1.69,1.09-3.3,1.59-4.89ZM62,24.85a46.15,46.15,0,0,1,5.41,2.8c-.93,1.52-1.89,3.1-2.9,4.72a45.7,45.7,0,0,0-5.06-2.62c.9-1.68,1.75-3.33,2.56-4.9Zm-1.75,39c1.24,1.26,2.4,2.58,3.5,3.9L59.11,71.6c-1-1.21-2.08-2.42-3.23-3.59ZM52.69,65q-1.8-1.59-3.56-2.88c1.23-1.51,2.49-3.07,3.75-4.67q1.9,1.39,3.86,3.13L52.69,65Zm13.8,6.42c1,1.34,1.81,2.68,2.58,4-1.71,1.13-3.4,2.17-5,3.24-.71-1.21-1.51-2.45-2.38-3.68,1.58-1.21,3.19-2.4,4.84-3.59Zm-11,3.29-4.13,3.5Q50,76.58,48.49,75l3.95-3.73c1.07,1.08,2.08,2.21,3,3.35Zm2.4,3c.82,1.14,1.57,2.27,2.27,3.4-1.54,1.05-3,2.08-4.43,3.08-.62-1.06-1.33-2.14-2.08-3.22C54.94,80,56.37,78.87,57.86,77.73Zm13.06,1.14a31.44,31.44,0,0,1,1.45,3.67c-1.82.88-3.58,1.76-5.3,2.66a27.53,27.53,0,0,0-1.33-3.4C67.41,80.85,69.15,79.86,70.92,78.87Zm-9.24,5.38A26.38,26.38,0,0,1,63,87.42c-1.6.9-3.16,1.79-4.61,2.69a23.59,23.59,0,0,0-1.13-3c1.35-.94,2.87-1.91,4.44-2.88Zm6.05,3.68c1.74-.82,3.53-1.63,5.35-2.42a11.29,11.29,0,0,1,.1,3c-1.83.71-3.62,1.45-5.36,2.2A10.49,10.49,0,0,0,67.73,87.93Zm10-4.32c1.88-.77,3.79-1.53,5.67-2.26a13.33,13.33,0,0,1,.11,3.4c-1.9.64-3.82,1.3-5.66,2A12.64,12.64,0,0,0,77.71,83.61Zm10.41-4q2.86-1.05,5.67-2a15.29,15.29,0,0,1,.12,3.94c-1.85.56-3.75,1.13-5.66,1.75a14.38,14.38,0,0,0-.16-3.65Zm-5.56-1.75L76.9,80.36a34.85,34.85,0,0,0-1.55-3.93c1.81-1,3.64-2,5.48-2.9a36.79,36.79,0,0,1,1.7,4.29Zm2.86-6.61q2.74-1.4,5.43-2.72a39.74,39.74,0,0,1,2,5c-1.83.76-3.7,1.54-5.57,2.34a39.86,39.86,0,0,0-1.84-4.56Zm-6.7-1.76c-1.78,1.07-3.56,2.15-5.31,3.24-.83-1.42-1.76-2.85-2.77-4.29l5.07-3.62q1.64,2.37,3,4.67Zm1.13-7.61,5-3.48c1.28,1.81,2.45,3.62,3.48,5.4l-5.25,3.07a56.13,56.13,0,0,0-3.21-4.95Zm-7.42-1.27-4.8,4a55.72,55.72,0,0,0-3.76-4.19L68.4,56c1.38,1.5,2.78,3,4.06,4.57Zm-12.27-3.8c-1.39-1.23-2.78-2.35-4.14-3.4,1.27-1.63,2.52-3.28,3.78-4.93a55.55,55.55,0,0,1,4.53,3.64Zm11.89-4.32,4.36-4.24c1.65,1.72,3.24,3.48,4.7,5.27l-4.7,3.87C75,55.65,73.58,54,72.05,52.44ZM67.7,48.28c-1.62-1.44-3.24-2.74-4.83-3.91,1.24-1.64,2.44-3.29,3.62-4.9,1.71,1.29,3.45,2.69,5.22,4.28Zm1.63-12.69,3.23-4.53c2,1.42,3.93,3,5.92,4.78L74.87,40C73,38.42,71.15,37,69.33,35.59Zm-16.11-3Q51.94,35.28,50.6,38A15.25,15.25,0,0,0,47,37.47c.81-1.82,1.58-3.65,2.33-5.44A16.23,16.23,0,0,1,53.22,32.61ZM44,33.84a6.1,6.1,0,0,1,2.48-1.42c-.68,1.78-1.39,3.59-2.11,5.41a5.64,5.64,0,0,0-2.27,1.34Q43.07,36.47,44,33.84Zm10.25,5.45q1.5-2.67,2.91-5.3a43.06,43.06,0,0,1,4.77,2.47c-1.07,1.68-2.15,3.4-3.27,5.12a40.8,40.8,0,0,0-4.4-2.29Zm-5.92,3.22c-.92,1.81-1.88,3.63-2.84,5.42a13.18,13.18,0,0,0-3.06-.47Q43.76,44.76,45,42a14.5,14.5,0,0,1,3.33.5Zm-7.93,1.05a5.28,5.28,0,0,1,2.15-1.24C41.77,44.14,41,46,40.17,47.75a4.69,4.69,0,0,0-2,1.13c.71-1.74,1.45-3.53,2.13-5.3ZM48.64,49q1.59-2.64,3.13-5.33a36.52,36.52,0,0,1,4.12,2.14c-1.13,1.73-2.26,3.4-3.45,5.15a32.89,32.89,0,0,0-3.83-2ZM43.1,52.3c-1,1.73-2,3.4-3,5.06a11,11,0,0,0-2.61-.4c.93-1.65,1.84-3.4,2.74-5.1a11.67,11.67,0,0,1,2.81.44Zm-6.8.89a4.54,4.54,0,0,1,1.76-1.06c-.84,1.73-1.7,3.4-2.57,5.08a4,4,0,0,0-1.69,1c.86-1.61,1.65-3.29,2.45-5Zm6.54,5.13c1.07-1.61,2.14-3.29,3.21-5a31,31,0,0,1,3.52,1.84Q47.76,57.65,46,60a27.18,27.18,0,0,0-3.21-1.68Zm-5.14,3q-1.5,2.3-3,4.37a9.61,9.61,0,0,0-2.31-.38c1-1.37,1.89-2.84,2.83-4.38a10.31,10.31,0,0,1,2.4.41Zm-5.89.77a3.82,3.82,0,0,1,1.57-.91c-1,1.54-1.86,3-2.77,4.37a3.58,3.58,0,0,0-1.49.85q1.34-2,2.62-4.31Zm5.26,4.43c1-1.34,2.09-2.79,3.15-4.3a26.67,26.67,0,0,1,3.05,1.58Q41.58,66,39.87,68A23.51,23.51,0,0,0,37,66.5ZM27,69.52a3.45,3.45,0,0,1,1.34-.85l-1,1.24a3.37,3.37,0,0,0-1.41.8,13.43,13.43,0,0,0,1-1.19Zm3.08-1a9.69,9.69,0,0,1,2.21.34c-.35.43-.69.84-1,1.23a9.43,9.43,0,0,0-2.17-.34c.28-.38.58-.79.92-1.22Zm3.4,2.38c.36-.39.71-.8,1.07-1.23a25.29,25.29,0,0,1,2.73,1.43l-1.13,1.21a25.37,25.37,0,0,0-2.75-1.4Zm9.11-1.07q1.72-1.93,3.54-4.08a37.6,37.6,0,0,1,3.34,2.7c-1.28,1.36-2.54,2.66-3.75,3.91C44.64,71.39,43.6,70.55,42.59,69.8ZM38.69,74l1.14-1.13c1,.72,2,1.52,3,2.42l-1.13,1.13a32.77,32.77,0,0,0-3-2.43ZM44.36,79l1.21-1.14c1,1,1.87,2,2.72,3L47,82c-.9-1.06-1.8-2.06-2.75-3Zm4.8,5.75,1.27-1q1.11,1.56,2,3.09l-1.31,1c-.61-1-1.31-2.09-2-3.06Zm3.4,5.73,1.32-1A25.83,25.83,0,0,1,55,92.31l-1.34.93a23.1,23.1,0,0,0-1.19-2.82ZM59,92.56c1.46-.83,3-1.67,4.64-2.51a9.73,9.73,0,0,1,.09,2.53q-2.44,1.15-4.65,2.35a9.54,9.54,0,0,0-.16-2.38Zm-4.85,3,1.33-.89a9,9,0,0,1,.1,2.26l-1.34.88A9.41,9.41,0,0,0,54.15,95.53Zm-.07,4.32-1.29.83a3.53,3.53,0,0,0,1-1.27l1.34-.84A3.43,3.43,0,0,1,54.08,99.85Zm7.93-4q-2.38,1-4.53,2.14a3.5,3.5,0,0,0,1.13-1.34c1.46-.76,3-1.5,4.62-2.26A3.7,3.7,0,0,1,62,95.86Zm9.26-3.56c-1.78.61-3.52,1.24-5.2,1.89a3.92,3.92,0,0,0,1.24-1.52c1.72-.69,3.5-1.37,5.32-2a4.38,4.38,0,0,1-1.39,1.66Zm10-3.08q-2.78.78-5.51,1.63a4.71,4.71,0,0,0,1.45-1.77c1.86-.62,3.75-1.21,5.66-1.79a5,5,0,0,1-1.63,1.94Zm10-2.6q-2.68.66-5.45,1.36a5.46,5.46,0,0,0,1.71-2.07q2.82-.8,5.6-1.53a6.06,6.06,0,0,1-1.88,2.26Zm4.34-.94h0a6.27,6.27,0,0,0,2-2.37c1.78-.45,3.5-.85,5.15-1.23a6.75,6.75,0,0,1-2.09,2.47C99,84.88,97.31,85.23,95.58,85.66Zm13.1-2.58c-1.32.23-2.73.48-4.23.76a7.06,7.06,0,0,0,2.22-2.71c1.54-.33,3-.63,4.34-.9A7.61,7.61,0,0,1,108.69,83ZM98.39,80.2A16.35,16.35,0,0,0,98.25,76c1.79-.61,3.54-1.13,5.21-1.73a17.62,17.62,0,0,1,.14,4.53c-1.66.35-3.41.83-5.2,1.34ZM112,76.62c-1.37.33-2.84.69-4.39,1.14a18.58,18.58,0,0,0-.15-4.71l4.4-1.34A19.52,19.52,0,0,1,112,76.6Zm-14.75-5a42.69,42.69,0,0,0-2.06-5.23l5-2.39a48.21,48.21,0,0,1,2.21,5.67C100.72,70.25,99,70.94,97.23,71.63Zm13.44-5.15-4.34,1.61a48.64,48.64,0,0,0-2.27-5.91l4.22-1.93A52.25,52.25,0,0,1,110.67,66.48ZM92.54,61.34c-1.13-1.89-2.33-3.82-3.69-5.73l4.53-3.13c1.45,2.05,2.78,4.11,4,6.13Zm12.59-7-4.06,2.27c-1.23-2.12-2.61-4.28-4.14-6.43l3.83-2.59C102.37,49.8,103.77,52.06,105.13,54.3ZM89.18,46.94l-4.31,3.49c-1.56-1.9-3.25-3.78-5-5.61l4-3.87C85.71,42.9,87.5,44.88,89.18,46.94Zm6.89-5.55-3.63,2.89C90.69,42.15,88.79,40,86.78,38l3.4-3.24c2,2.2,4,4.39,5.89,6.63ZM84.23,29.13l-3,3.51q-3.15-2.76-6.23-5l2.69-3.78C79.83,25.42,82,27.18,84.23,29.13Z" style="fill:url(#linear-gradient)"/><path d="M14,107.61c-3.54-4-9.46-16.41-3.4-28.32,2.53-4.73,10.46-11.46,12.19-11.83s9.74-3.54,22.55,9.47c12,12.13,12,22.88,11.15,25.59s-5.12,7.34-9.63,10.75S26.73,121.92,14,107.61Z" style="fill:url(#radial-gradient)"/><path d="M22.8,67.46a12.62,12.62,0,0,0-4.26,2.89c2.65-1.42,14.25-2.59,25.81,11.77,11.92,14.79,9.76,23.95,9.3,24.92v.07a10.6,10.6,0,0,0,2.88-4.53c.79-2.77.79-13.52-11.18-25.65C32.54,63.93,24.58,67.08,22.8,67.46Z" style="fill:url(#linear-gradient-2)"/><path d="M115.2,75.82a20.11,20.11,0,0,0-.15-5.14l2.68-.75a36.36,36.36,0,0,0-1.33-5.47l-2.6.9a55.79,55.79,0,0,0-2.53-6.46l2.52-1.13c-1-2.08-2.07-4.21-3.32-6.37L108,52.7q-2-3.5-4.53-7.05l2.27-1.52c-1.56-2.2-3.22-4.39-5-6.57l-2.15,1.72a88.36,88.36,0,0,0-6.18-6.86l2-1.94c-1.19-1.22-2.42-2.43-3.67-3.63C89.9,26,89,25.26,88.14,24.49L86.37,26.6a86.13,86.13,0,0,0-6.8-5.49l1.54-2.29C79,17.31,77,16,75,14.75L73.6,17.18A55.37,55.37,0,0,0,67.38,14l1.2-2.55a37.82,37.82,0,0,0-5.29-1.89l-1,2.64a21.31,21.31,0,0,0-5-.75c.34-1,.65-1.9.91-2.72A14,14,0,0,0,54.27,9c-.24.85-.51,1.82-.84,2.88a8,8,0,0,0-3.22,1.89c.27-1,.56-2.26.78-3.2a4.64,4.64,0,0,0-1.54,2.55c-1.65,7.45-10.6,36.58-21.59,53.73a14.87,14.87,0,0,0-5.05.57c-1.74.37-9.67,7.1-12.2,11.83-6.06,11.91-.14,24.34,3.4,28.32,12.7,14.3,28.32,9.06,32.85,5.66s8.87-8,9.63-10.75a11.11,11.11,0,0,0,.28-3.15c18.41-9.06,48.28-15.29,55.88-16.22A4,4,0,0,0,115.17,82c-.92.12-2.39.32-3.4.49a7.76,7.76,0,0,0,2.41-2.92l3-.52h0a13.14,13.14,0,0,0,.84-3.86Z" style="fill:none;stroke:#4d4d4d;stroke-miterlimit:10"/></g></svg>
