<svg class="S" xmlns="http://www.w3.org/2000/svg" viewBox="0 0 126 126"><path d="M113 13.1v99.3c0 .5-.1.6-.6.6H13.1c-.1-.2-.1-.5-.1-.7V13.8c0-.9-.1-.8.8-.8h98.5c.2 0 .5 0 .7.1z"/><linearGradient id="a" x1="53.854" x2="53.854" y1="106.221" y2="23.088" gradientUnits="userSpaceOnUse"><stop offset="0" stop-color="#f0b325"/><stop offset="1" stop-color="#a73c1a"/></linearGradient><path fill="url(#a)" d="M61.7 23.1H46v76.1l15.7 7z"/><linearGradient id="b" x1="34.129" x2="34.129" y1="98.063" y2="23.088" gradientUnits="userSpaceOnUse"><stop offset="0" stop-color="#f0b325"/><stop offset="1" stop-color="#a73c1a"/></linearGradient><path fill="url(#b)" d="M43.3 23.1H24.9v12.4c0 .3.1.6.2.9.8 1.8 1.6 3.7 2.4 5.5.1.3.2.6.2.9v21.3c0 .3-.1.6-.2.9-.8 1.8-1.5 3.7-2.3 5.5-.1.3-.2.6-.2 1V90l18.4 8.2-.1-75.1z"/><linearGradient id="c" x1="72.152" x2="72.152" y1="106.221" y2="23.088" gradientUnits="userSpaceOnUse"><stop offset="0" stop-color="#f0b325"/><stop offset="1" stop-color="#a73c1a"/></linearGradient><path fill="url(#c)" d="M64.3 106.2l15.7-7V23.1H64.3z"/><linearGradient id="d" x1="91.892" x2="91.892" y1="98.189" y2="23.084" gradientUnits="userSpaceOnUse"><stop offset="0" stop-color="#f0b325"/><stop offset="1" stop-color="#a73c1a"/></linearGradient><path fill="url(#d)" d="M83 98.1l17.7-8 .4-.7V71.3c0-.3-.1-.6-.2-.9-.8-1.8-1.5-3.6-2.3-5.4-.2-.4-.2-.7-.2-1.1V42.8c0-.4.1-.7.2-1.1.8-1.8 1.5-3.6 2.3-5.4.1-.3.2-.6.2-.9V23.6l-.6-.6H83.4l-.7.7v74.4h.3z"/><g><path d="M50.3 121.7h-42c-2.2 0-4-1.8-4-4v-42c0-2.2 1.8-4 4-4h42c2.2 0 4 1.8 4 4v42c0 2.2-1.8 4-4 4z" opacity=".3"/><path fill="#273445" d="M46 126H4c-2.2 0-4-1.8-4-4V80c0-2.2 1.8-4 4-4h42c2.2 0 4 1.8 4 4v42c0 2.2-1.8 4-4 4z"/><linearGradient id="e" x1="25" x2="25" y1="115.559" y2="86.441" gradientUnits="userSpaceOnUse"><stop offset="0" stop-color="#e6a500"/><stop offset="1" stop-color="#d4ff47"/></linearGradient><path fill="url(#e)" d="M16.7 86.4l12.5 21.7-4.3 7.4L8.2 86.4h8.5zm14.6 18.3l10.5-18.2H27v10.8l4.3 7.4z"/></g></svg>
