<svg class="S" version="1.1" id="Layer_1" xmlns="http://www.w3.org/2000/svg" x="0" y="0" viewBox="0 0 126 126" xml:space="preserve"><style>.st2{opacity:.3;enable-background:new}.st3{fill:#273445}</style><path fill="#d20a0a" d="M8 8h110v110H8z"/><path d="M37.1 83.5H22.3c-1.5-.1-3-.5-4.3-1.6-.8-.7-1.6-1.6-1.9-2.8-.2-.5-.2-1-.2-1.5 0-.6.1-1.2.2-1.8 1.7-11.1 3.5-22.2 5.2-33.3h-.1 11.5c-1.6 10-3.1 20.1-4.7 30.1-.1.4 0 .8.2 1.1.3.5.9.7 1.4.8h1.8c.6 0 1.3 0 1.9-.3.4-.2.6-.7.7-1.2 1.6-10.2 3.2-20.3 4.7-30.5h11.4c-1.7 10.7-3.3 21.3-5 32-.2 1.1-.3 2.3-.5 3.4-.3 1.4-.7 2.7-1.6 3.6-.6.7-1.5 1.1-2.3 1.4-1.2.4-2.4.5-3.6.6zm23.6 0H49.2c1.3-8.6 2.7-17.2 4-25.8h24.7c-.5 3-.9 6-1.4 9H63.2l-2.5 16.8zm44 0H85.9c-1.4-.1-2.9-.5-4.1-1.4-.8-.6-1.5-1.5-1.9-2.6-.4-.9-.4-2-.3-2.9 1.5-9.3 2.9-18.7 4.4-28 .2-1.4.6-2.7 1.4-3.8.5-.7 1.2-1.2 1.9-1.5 1.3-.6 2.8-.7 4.2-.8h18.7c-.2 1.4-.4 2.7-.6 4.1-.3 1.6-.5 3.3-.8 4.9H96.6c-.6 0-1.2 0-1.7.3-.4.2-.6.8-.7 1.4l-3 19.5c-.1.4 0 .9.3 1.2.4.5.9.6 1.4.6h13.2c-.5 3-.9 6-1.4 9zm-49.1-41h24.7c-.5 3-.9 6-1.4 9H54.2c.4-3 .9-6 1.4-9z" fill="#fff"/><path class="st2" d="M50.3 121.7h-42c-2.2 0-4-1.8-4-4v-42c0-2.2 1.8-4 4-4h42c2.2 0 4 1.8 4 4v42c0 2.2-1.8 4-4 4z"/><path class="st3" d="M46 126H4c-2.2 0-4-1.8-4-4V80c0-2.2 1.8-4 4-4h42c2.2 0 4 1.8 4 4v42c0 2.2-1.8 4-4 4z"/><linearGradient id="SVGID_1_" gradientUnits="userSpaceOnUse" x1="25" y1="-459.559" x2="25" y2="-430.459" gradientTransform="matrix(1 0 0 -1 0 -344)"><stop offset="0" stop-color="#e6a500"/><stop offset="1" stop-color="#d4ff47"/></linearGradient><path d="M16.7 86.4l12.5 21.7-4.3 7.4L8.2 86.4h8.5zm14.6 18.3l10.5-18.2H27v10.8l4.3 7.4z" fill="url(#SVGID_1_)"/><g><path class="st2" d="M50.3 121.7h-42c-2.2 0-4-1.8-4-4v-42c0-2.2 1.8-4 4-4h42c2.2 0 4 1.8 4 4v42c0 2.2-1.8 4-4 4z"/><path class="st3" d="M46 126H4c-2.2 0-4-1.8-4-4V80c0-2.2 1.8-4 4-4h42c2.2 0 4 1.8 4 4v42c0 2.2-1.8 4-4 4z"/><linearGradient id="SVGID_2_" gradientUnits="userSpaceOnUse" x1="25" y1="-459.559" x2="25" y2="-430.459" gradientTransform="matrix(1 0 0 -1 0 -344)"><stop offset="0" stop-color="#e6a500"/><stop offset="1" stop-color="#d4ff47"/></linearGradient><path d="M16.7 86.4l12.5 21.7-4.3 7.4L8.2 86.4h8.5zm14.6 18.3l10.5-18.2H27v10.8l4.3 7.4z" fill="url(#SVGID_2_)"/></g></svg>
