<svg class="S" xmlns="http://www.w3.org/2000/svg" viewBox="0 0 126 126"><path d="M7.8 24.5c-.8.3-1.5.6-1.9 1.2-.7.8-.7.9-.6 3.3v5.5c0 3 0 3-.6 2.8-1.1-.4-3.7-.2-4.2.3-.4.4-.4.4.1.3.3-.1.4-.1.3.1-.1.2-.3.3-.4.3-.2 0-.3.4-.3 1.2 0 .7-.1 1.7-.1 2.2-.1.7 0 1 .5 1.6.6.6.8.7 2.6.7 1.7 0 2 .1 2.1.4.1.6 0 37.1-.2 37.5-.1.2-.6.3-1.7.3s-1.9.1-2.4.4c-.8.5-.8.5-.8 2.5-.1 4 .1 4.1 3.2 4.1h2.1L5.4 94c-.1 6.8.1 7.1 5 7.3 7.2.4 31.3.5 34.8.2 1.2-.1 2.3-.1 3.4-.1 1.6 0 2 0 2.3-.3.3-.2.3-.2.3 0 0 .1.1.3.3.3.1 0 .3-.2.3-.5s-.1-.4-.3-.3c-.1.1-.3 0-.3-.1 0-.5.6-.1.9.5.3.6.3.6 5.9.6 3.1 0 7.4.1 9.5.1 5.7.2 14.6-.1 14.6-.6 0-.2.1-.3.3-.3.1 0 .2.2.1.4-.1.3.2.4 1.8.4 1 0 6.8.1 12.9.1 6 0 13.9 0 13.8-.1-.1-.1.1-.2.3-.2.3 0 .3.1.2.3-.3.5 6.3.1 7.4-.5 1.8-.9 1.9-1.3 1.9-6.7 0-2.7.1-5 .2-5.3.1-.3.3-.3.7-.2.7.3 3.4.1 4-.1.3-.2.3-.2-.1-.3-.3 0-.4-.1-.3-.3.1-.1.2-.3.3-.3.3.1.6-3.9.3-4.4-.6-1.1-.7-1.1-3-1.2l-2.3-.1-.1-19.3-.1-19.1h2.2c2.1 0 2.2-.1 2.8-.7.5-.6.6-.8.5-1.6-.1-.5-.1-1.5-.1-2.2 0-.8-.1-1.3-.3-1.2-.1 0-.3-.1-.4-.3-.1-.2 0-.3.3-.1.4.1.4.1.1-.2-.4-.4-2.9-.6-4-.3s-1.2 0-1.4-4.5c-.3-7-.8-8-4.2-7.9-1 0-1.9 0-2.1-.1-.3-.2-7.5-.5-9.7-.5h-3.2c-1 0-5.9.1-11 .1s-10.2.1-11.4.1c-1.2 0-2.6.1-3.2.1-9.7-.1-17.8-.2-18.2-.1-.3.1-.6.2-.5.3 0 .1-.1.2-.2.2-.1.1-.3-.1-.3-.3 0-.2-1.2-.3-5.1-.3-4 0-5.1.1-5.1.3.1.2-.1.3-.3.3-.2 0-.3-.1-.3-.2.3-.5-1.3-.5-12.7-.5-6.3 0-16.5-.1-19-.1-3.3 0-4.9.1-5.8.3zm53.9 6.8c34.3.1 48.6 0 48.6-.2s.1-.2.2 0 .8.3 1.4.4l1.2.1v1.2c.1 2 .4 26.2.3 26.7-.1 2.1 0 22.2.1 27.8.1 5.6.1 7.2-.1 7.4-.2.1-1.1.1-2.1.1-1.9-.1-11.6-.1-37.5-.1-13.4 0-15.2.1-15.1.4.1.3 0 .4-.3.4s-.5-.1-.3-.4c.1-.3-1.4-.3-12.6-.3-7 0-14.8.1-17.3.2s-4.5.1-4.5 0c0-.3-.9-.2-1.2.1-.2.2-.4.3-.5.1-.1-.2-1.3-.3-3.3-.3-1.7 0-6.2-.1-6.3-.2-.1-.1-.2-1-.2-2.1 0-1.7-.1-2-.4-1.9-.3.1-.4 0-.4-.3s.1-.5.4-.3c.3.1.4-1 .4-8.9.1-29.9.1-37.6-.3-37.7-.2-.1-.3-.2-.1-.3.4-.2.4-3.2.1-4.4-.2-.5-.2-1-.1-1.2.1-.2.2-1.6.3-3.1 0-1.5.1-2.9.1-3.1 0-.2.2-.3.5-.1.1-.2 23.9-.1 49 0zm32.9 10.3l-5.3.1-1 1c-.8.8-1 1.1-1.1 2.3-.3 2.4-.3 5.7-.1 11 .1 2.8.2 5.6.1 6.1-.1.6-.1 5.2-.1 10.3v9.3l.6 1c.3.5 1 1.1 1.4 1.3 1 .4 11.1.5 12.4.1 1.2-.4 2.2-1.6 2.3-3 .3-2.4.1-20.9-.1-21.6l-.3-.7H100c-2.3 0-3.5.1-3.7.3-.2.2-.3 1.2-.3 2.7v2.4l.8.4.8.5V73.5c0 1.7.1 3 .3 3.2.2.3.2.6 0 1.1-.3.7-.3.7-2.1.6-2.1-.1-2.5-.3-2.1-.8.3-.3.4-17.8.2-26.1l-.1-4 1.8-.1c2.7-.1 2.7-.1 2.7 1.7 0 .9.1 1.7.3 1.9.2.2.2.3 0 .3-.6 0-.3.7.3.8.9.2 4.4 0 4.7-.2.1-.1.3-2.1.3-4.3l.1-4.1-.7-.7c-.6-.6-1.1-.8-2.8-1.1-.5-.2-3-.2-5.9-.1zm-71.5.5c-.2.2-.3 1.7-.2 5.1.1 5.6.1 5.2.3 4.7.2-.3.3-.2.3.3 0 .3-.1.7-.3.8-.2.1-.3 1.2-.3 3.7 0 3.1-.1 3.7-.5 4.1-.4.3-.5.9-.5 3.2 0 1.5.1 2.7.2 2.6.2-.2 1.1.6 1.1 1 0 .2-.1.3-.2.3s-.2 3.4-.3 7.6c0 4.2.1 7.6.1 7.6.1 0 .3.3.5.6.3.6.4.6 2.8.6 3.7 0 3.5.5 3.4-8.7-.1-4-.1-7.4-.1-7.5-.3-1.1-.1-1.1 3.4-1.1 3.9 0 5.3-.3 6.2-1.2l.6-.6.1-10.9c.1-7.3 0-11-.2-11.4-.6-1.2-1.3-1.2-8.9-1.3-5.4.2-7.3.2-7.5.5zm9.8 6c0 .3 0 2.9.1 6 0 3 .1 5.3.1 5.1.2-.8.6-.5.6.5 0 .7-.1.9-.4.8-.3-.1-.3 0-.3.3.1.4 0 .4-1.5.3-1-.1-1.8-.3-2-.4-.4-.4-.4-1.1-.1-1.1.2 0 .2-1.8.1-5.7-.1-3.2-.1-5.8 0-5.9.1-.1.9-.1 1.8-.1 1.4-.3 1.6-.2 1.6.2zM44.5 42c-.4.5-.3 6.1.2 6 .1 0 .3.1.3.3 0 .2-.1.3-.3.3-.2 0-.3.4-.4 1.3-.1 1 0 1.3.3 1.2.3-.1.3-.1.1.2-.4.5-.7 28.9-.3 30.6.2.9.5 1.4 1.1 1.8l.8.6 6.6-.1c7.3-.1 7.8-.2 8.6-1.8.6-1.1.8-9.5.6-24.2-.1-6.1-.1-12-.1-13.3 0-1.4-.1-2.4-.3-2.5-.2-.1-.3 0-.4.1-.1.4-.6.4-.6-.1 0-.3-.4-.4-2.1-.4-3.4 0-3.2-.8-3.2 10.7 0 5.3.1 11.2.2 13 .1 2.4.1 3.3-.1 3.3-.5 0-.3 1 .2 1.2.3.2.3.3.1.5-.2.1-.3 1.4-.4 3.6-.1 2.9-.1 3.5-.5 3.9-.4.4-.5.4-.8 0-.4-.5-1.4-.6-2.2-.1-.8.4-1.5-.3-1.3-1.2.2-.8.3-21.5.2-29.1l-.1-5.2-1.1-.6c-.7-.4-1.2-.6-1.6-.4-.5.2-2.1.2-2.9 0-.1.1-.4.2-.6.4zm22.3 0c-.3.4-.4 9.5-.1 10.7.1.5.1 1.7.1 2.6-.1 1-.1 1.9.1 2.1.3.4 0 1.3-.5 1.3-.2 0-.3.1-.2.3.1.1 0 .4-.2.6-.5.5-.6 4-.1 4.2.1.1.3.4.3.6 0 .3.1.5.3.6.2.1.3 2.3.3 8.2 0 4.7.1 8.3.2 8.4.1.1.1.3 0 .4-.1.1-.2.6-.1 1.2l.1 1 6.7-.1c10-.1 9.4.6 9.4-11.7 0-8.3 0-8.7-.5-9.2-1.5-1.6-1.7-1.9-1.3-2.1 1-.6 1.2-1.7 1.3-5.5 0-2 .1-5.6.1-8.1.1-4.2.1-4.5-.5-5-.8-.8-1.9-.9-8.7-1-4.9.2-6.5.2-6.7.5zm9.4 5.7c.1.3.1 2.1 0 9.5 0 1.8-.1 1.9-2 1.6l-1.1-.1-.1-2.2c-.1-1.2-.1-2.3-.2-2.5 0-.2.1-1.8.2-3.4l.2-3.1h1.4c.7-.1 1.5 0 1.6.2zm-.1 17.6c.1.1.2 2.1.2 4.3v6.3c0 1.2 0 2.4-.1 2.5-.2.3-2.8.2-3.2-.2-.3-.2-.3-.5-.2-1.2.1-.5.2-3.3.2-6.3 0-4.7.1-5.4.4-5.7.5-.3 2.4-.2 2.7.3z" fill="#fe6a01"/><path d="M50.3 121.7h-42c-2.2 0-4-1.8-4-4v-42c0-2.2 1.8-4 4-4h42c2.2 0 4 1.8 4 4v42c0 2.2-1.8 4-4 4z" opacity=".3"/><path d="M46 126H4c-2.2 0-4-1.8-4-4V80c0-2.2 1.8-4 4-4h42c2.2 0 4 1.8 4 4v42c0 2.2-1.8 4-4 4z" fill="#273445"/><linearGradient id="a" gradientUnits="userSpaceOnUse" x1="25" y1="12.441" x2="25" y2="41.541" gradientTransform="matrix(1 0 0 -1 0 128)"><stop offset="0" stop-color="#e6a500"/><stop offset="1" stop-color="#d4ff47"/></linearGradient><path d="M16.7 86.4l12.5 21.7-4.3 7.4L8.2 86.4h8.5zm14.6 18.3l10.5-18.2H27v10.8l4.3 7.4z" fill="url(#a)"/></svg>
