<svg class="S" xmlns="http://www.w3.org/2000/svg" viewBox="0 0 126 126"><linearGradient id="a" gradientUnits="userSpaceOnUse" x1="63" y1="112.543" x2="63" y2="15.214"><stop offset="0" stop-color="#e6a500"/><stop offset="1" stop-color="#d4ff47"/></linearGradient><circle cx="63" cy="63" r="50" fill="url(#a)"/><path d="M83.2 24L67.4 70l37.5 6.2c1.3-4.2 2-8.6 2-13.3C107 46 97.3 31.3 83.2 24zM32.3 94.5l25.8-75.2C36.2 21.7 19 40.3 19 63c0 12.4 5.1 23.5 13.3 31.5z"/><path d="M57.2 76.7l18.4-55.9c-2.8-.8-5.7-1.4-8.6-1.7L39.2 100c6.9 4.4 15 7 23.8 7 16.6 0 31.1-9.2 38.6-22.9l-44.4-7.4z"/><g><path d="M50.3 121.7h-42c-2.2 0-4-1.8-4-4v-42c0-2.2 1.8-4 4-4h42c2.2 0 4 1.8 4 4v42c0 2.2-1.8 4-4 4z" opacity=".3"/><path d="M46 126H4c-2.2 0-4-1.8-4-4V80c0-2.2 1.8-4 4-4h42c2.2 0 4 1.8 4 4v42c0 2.2-1.8 4-4 4z" fill="#273445"/><linearGradient id="b" gradientUnits="userSpaceOnUse" x1="25" y1="12.441" x2="25" y2="41.541" gradientTransform="matrix(1 0 0 -1 0 128)"><stop offset="0" stop-color="#e6a500"/><stop offset="1" stop-color="#d4ff47"/></linearGradient><path d="M16.7 86.4l12.5 21.7-4.3 7.4L8.2 86.4h8.5zm14.6 18.3l10.5-18.2H27v10.8l4.3 7.4z" fill="url(#b)"/></g></svg>
