<svg class="S" xmlns="http://www.w3.org/2000/svg" id="design" viewBox="0 0 126 126"><defs><style>.cls-8{fill:#fff}.cls-5{fill:#fcc332}.cls-7{fill:#e8a615}.cls-9{fill:#0071bc}</style></defs><text fill="#fff" font-family="MyriadPro-Regular,Myriad Pro" font-size="12"><tspan x="34.57" y="138.55">bo</tspan><tspan x="47.98" y="138.55" letter-spacing="0">a</tspan><tspan x="53.72" y="138.55">t </tspan><tspan x="60.23" y="138.55" letter-spacing="0">r</tspan><tspan x="64.1" y="138.55" letter-spacing="0">acing</tspan><tspan x="53.77" y="152.95">146</tspan></text><path d="M42.9 25.86l.85 3.4 2.96-.95-2.08-3.07-1.73.62zM40.15 30.16l-1.77-5.04.98-.44 2.4 5.33-1.61.15z" class="cls-5"/><path fill="#d39009" d="M25.16 37.69s6.84-2.83 11.36-1.07A25.62 25.62 0 0139.8 38l37.57-6.77-4.64-3.95a7.23 7.23 0 00-5.13-1.78 154.52 154.52 0 00-24.92 3.27c-12.63 3-17.7 7.35-17.7 7.35z"/><path d="M80.43 40.64l12-2.1a142.38 142.38 0 00-10.66-9.47c-2.15-.47-6-.43-10.86.09a31.7 31.7 0 019.52 11.48z" class="cls-5"/><path d="M26.28 50.08l54.15-9.44a31.7 31.7 0 00-9.5-11.48 137.85 137.85 0 00-30.21 7.07C31 39.73 26.28 50.08 26.28 50.08z" class="cls-7"/><path d="M51.13 37.53c-13.48 4.21-12.34 9.27-12.34 9.27l36-5.54-6.49-7.95a149.2 149.2 0 00-17.17 4.22zM92.45 38.54s-6.6-6.12-7.16-6.57a44.82 44.82 0 00-10.74.36 73.26 73.26 0 016.12 8z"/><path d="M74.55 32.33c-2 .25-4.08.58-6.25 1l6.51 7.95 5.86-.91a73.26 73.26 0 00-6.12-8.04z" class="cls-8"/><path d="M113.71 62.71s11.45-15.91 9.07-28.52c-2.76.26-6.51.64-6.51.64L97.77 64z" class="cls-7"/><path d="M116.27 34.83C98.91 36.47 92.51 36.91 79 38.42s-48 5.73-58.91 15a27.75 27.75 0 00-7.52 10.27 84.91 84.91 0 0115.25-10c17.41-8.52 76.78-13.58 76.78-13.58a95.21 95.21 0 01-3.47 16.08 66 66 0 01-3.33 8l9.76-.92a72.18 72.18 0 008.71-28.44z" class="cls-5"/><path d="M104.62 40.08s-59.37 5.06-76.78 13.58a84.91 84.91 0 00-15.25 10 24.46 24.46 0 00-2 8.71l87.21-8.26a66 66 0 003.33-8 95.21 95.21 0 003.49-16.03z" class="cls-7"/><path d="M5.49 67.89l.06.61 17.29-1.62 16.42-1.54s-7.19-2.17-31.73 0a2.32 2.32 0 00-2.04 2.55z"/><path d="M113.84 48s-13.62 12.46-29.39 14.8c-14.08 2.09-63.74 6-74.18 6.78a2 2 0 00-1.74 2.2l.08.8s20.11 13.18 52.2 10.77c33.7-2.54 52.9-20.62 52.9-20.62l3.12-5s.77-3.38-2.99-9.73z"/><path d="M101 44.49c.08.8-1 1.56-2.38 1.69S96.07 45.76 96 45s1-1.56 2.39-1.69 2.61.38 2.61 1.18zM91.12 45.42c.08.8-1 1.56-2.38 1.69s-2.58-.42-2.65-1.22 1-1.56 2.38-1.69 2.58.41 2.65 1.22zM64.89 48.5c.07.8-1 1.56-2.39 1.69s-2.58-.42-2.65-1.22 1-1.56 2.38-1.69 2.58.41 2.66 1.22zM73.67 47.67c.08.81-1 1.56-2.38 1.69s-2.58-.41-2.66-1.21 1-1.56 2.38-1.69 2.59.41 2.66 1.21z" class="cls-8"/><path d="M45.77 51.13a15.56 15.56 0 00-3.86.82l.07.67v.07l.07.67a15.08 15.08 0 003.93.09 17.79 17.79 0 003.92-.77l-.06-.68v-.08l-.07-.72a18.2 18.2 0 00-4-.07zM46.19 55.63a15.16 15.16 0 00-3.85.81l.06.67v.08l.06.67a15.65 15.65 0 003.94.14 18.73 18.73 0 003.93-.77l-.07-.73v-.07l-.07-.73a18.42 18.42 0 00-4-.07zM34.23 31.3s.84 1.6 7.05 0 11.77-2.73 16.66-3.94c4.34-1.08 8.69-1.79 8.69-1.79S65.18 24.23 61 24.2s-26.77 7.1-26.77 7.1z"/><path d="M12.47 63.76a87.86 87.86 0 0119.69-11.08 130.17 130.17 0 0121.64-5.83c7.59-1.48 15.8-2.77 22.73-3.59 15.51-1.85 39.39-4.43 39.39-4.43l7.15.84.06-1.52-7.22-.75s-27.72 2.9-40.39 4.73c-5.69.82-18.92 2.67-30.7 5.62a108 108 0 00-17.38 5.63A51.61 51.61 0 0013.38 62z"/><path d="M83.52 74.27c6-.4 5.71-13.17 22.27-13.12 11.64 0 12.47 6.13 12.76 6.13-7.28-4.43-17.61-1.67-15 2.76a11.4 11.4 0 004 3.71" class="cls-9"/><path d="M74.35 81.46c5.24-3-.59-14.34 14.35-21.51 10.49-5 13.89.1 14.16 0-8.49-.82-16.59 6.16-12.27 9 2.67 1.76 7.44 2.24 11.84.74" class="cls-9"/><path d="M2.87 75.55c5.9-14.48 22.77-1.76 36.87-2C75.33 73 97.09 65 97.09 65S65.56 135.13 2.87 75.55z" class="cls-9"/><path d="M5.48 78c5.91-14.49 42-4.19 56.11-4.43C97.17 73 87.33 56.78 116.89 69c-13.47.58-19.12 32.84-52 32.84C39.26 101.8 26.56 98 5.48 78z" class="cls-9"/><path d="M77.72 66.43a1.62 1.62 0 11-1.61-1.61 1.61 1.61 0 011.61 1.61z" class="cls-9"/></svg>
