<svg class="S" xmlns="http://www.w3.org/2000/svg" id="design" viewBox="0 0 126 126"><style>.cls-11{fill:#fff}.cls-5{fill:#04a4a2}.cls-6{fill:#01657f}.cls-7{fill:#45568a}.cls-8{fill:#1a2033}.cls-9{fill:#637bc7}.cls-10{fill:#4d5f99;opacity:.5}.cls-14{fill:#f1f2f2}</style><path d="M44.34 101.77a.82.82 0 01.34.23.81.81 0 010 1.15 15.87 15.87 0 01-26.25-8.61.82.82 0 111.6-.32 14.24 14.24 0 0023.55 7.72.84.84 0 01.76-.17z" class="cls-5"/><path d="M39.37 99.68a.78.78 0 01.45.37.81.81 0 01-.3 1.11 11.21 11.21 0 01-15.61-4.69.81.81 0 01.36-1.09.82.82 0 011.1.36 9.59 9.59 0 0013.34 4 .81.81 0 01.66-.06z" class="cls-5"/><path d="M34 117.16a25.75 25.75 0 1125.77-25.75A25.78 25.78 0 0134 117.16zm0-46a20.31 20.31 0 1020.31 20.3A20.33 20.33 0 0034 71.11z" class="cls-6"/><path d="M34 113.26a21.85 21.85 0 1121.88-21.85A21.87 21.87 0 0134 113.26zm0-41a19.13 19.13 0 1019.16 19.15A19.15 19.15 0 0034 72.29z" class="cls-5"/><path d="M23.28 81.29a.83.83 0 01-.36-.21.82.82 0 010-1.15 15.86 15.86 0 0126.54 7.65.82.82 0 01-1.59.38 14.24 14.24 0 00-23.81-6.87.8.8 0 01-.78.2z" class="cls-5"/><path d="M28.31 83.2a.79.79 0 01-.46-.35.81.81 0 01.26-1.12 11.26 11.26 0 019.07-1.26 11.14 11.14 0 016.7 5.38.81.81 0 01-1.43.78A9.59 9.59 0 0029 83.11a.81.81 0 01-.69.09zM44.05 44.1a.82.82 0 01.34.23.81.81 0 010 1.15 15.87 15.87 0 01-26.25-8.61.82.82 0 011.6-.32 14.24 14.24 0 0023.55 7.72.83.83 0 01.76-.17z" class="cls-5"/><path d="M39.08 42a.78.78 0 01.45.37.81.81 0 01-.3 1.11 11.23 11.23 0 01-15.61-4.68.82.82 0 011.46-.73 9.61 9.61 0 0013.34 4 .81.81 0 01.66-.07z" class="cls-5"/><path d="M33.74 59.48a25.74 25.74 0 1125.74-25.74 25.77 25.77 0 01-25.74 25.74zm0-46a20.31 20.31 0 1020.31 20.3 20.33 20.33 0 00-20.31-20.34z" class="cls-6"/><path d="M33.74 55.59a21.85 21.85 0 1121.85-21.85 21.87 21.87 0 01-21.85 21.85zm0-41a19.13 19.13 0 1019.13 19.15 19.15 19.15 0 00-19.13-19.12z" class="cls-5"/><path d="M23 23.62a1 1 0 01-.36-.21.82.82 0 010-1.16 15.87 15.87 0 0126.55 7.65.82.82 0 11-1.59.38 14.24 14.24 0 00-23.81-6.86.83.83 0 01-.79.2z" class="cls-5"/><path d="M28 25.53a.79.79 0 01-.46-.35.82.82 0 01.26-1.13 11.3 11.3 0 019.07-1.25 11.16 11.16 0 016.7 5.37.82.82 0 01-1.43.79 9.49 9.49 0 00-5.73-4.59 9.61 9.61 0 00-7.75 1.07.81.81 0 01-.66.09zM101.64 44.47a.71.71 0 01.34.23.81.81 0 010 1.15 15.87 15.87 0 01-26.25-8.61.82.82 0 011.6-.32 14.24 14.24 0 0023.55 7.72.84.84 0 01.76-.17z" class="cls-5"/><path d="M96.67 42.38a.84.84 0 01.46.37.82.82 0 01-.31 1.11 11.23 11.23 0 01-15.61-4.69.82.82 0 011.46-.73 9.59 9.59 0 0013.34 4 .81.81 0 01.66-.06z" class="cls-5"/><path d="M91.33 59.86a25.75 25.75 0 1125.75-25.75 25.78 25.78 0 01-25.75 25.75zm0-46a20.31 20.31 0 1020.31 20.3 20.33 20.33 0 00-20.31-20.35z" class="cls-6"/><path d="M91.33 56a21.85 21.85 0 1121.85-21.85A21.87 21.87 0 0191.33 56zm0-41a19.13 19.13 0 1019.13 19.12A19.15 19.15 0 0091.33 15z" class="cls-5"/><path d="M80.58 24a.84.84 0 01-.35-.21.81.81 0 010-1.15 15.87 15.87 0 0126.54 7.64.82.82 0 11-1.59.38 14.24 14.24 0 00-23.81-6.86.8.8 0 01-.79.2z" class="cls-5"/><path d="M85.62 25.9a.78.78 0 01-.47-.35.81.81 0 01.26-1.12 11.21 11.21 0 0115.77 4.11.82.82 0 01-1.43.79 9.59 9.59 0 00-13.48-3.52.79.79 0 01-.65.09zM102.56 102.62a.77.77 0 01.35.22.81.81 0 01-.06 1.15 15.86 15.86 0 01-26.24-8.6.8.8 0 01.64-1 .81.81 0 011 .63 14.24 14.24 0 0023.55 7.73.79.79 0 01.76-.13z" class="cls-5"/><path d="M97.6 100.53a.8.8 0 01.45.36.83.83 0 01-.3 1.12 11.22 11.22 0 01-15.61-4.69.82.82 0 111.46-.73 9.59 9.59 0 0013.34 4 .81.81 0 01.66-.06z" class="cls-5"/><path d="M92.26 118A25.74 25.74 0 11118 92.26 25.77 25.77 0 0192.26 118zm0-46a20.31 20.31 0 1020.3 20.31A20.33 20.33 0 0092.26 72z" class="cls-6"/><path d="M92.26 114.1a21.85 21.85 0 1121.84-21.84 21.87 21.87 0 01-21.84 21.84zm0-41a19.13 19.13 0 1019.12 19.13 19.15 19.15 0 00-19.12-19.1z" class="cls-5"/><path d="M81.51 82.14a.8.8 0 01-.36-.22.82.82 0 010-1.15 15.86 15.86 0 0126.54 7.65.81.81 0 11-1.58.38 14.24 14.24 0 00-23.81-6.86.8.8 0 01-.79.2z" class="cls-5"/><path d="M86.54 84.05a.82.82 0 01-.46-.36.8.8 0 01.26-1.12 11.23 11.23 0 0115.77 4.12.82.82 0 11-1.43.79A9.59 9.59 0 0087.2 84a.86.86 0 01-.66.05z" class="cls-5"/><path d="M94.85 91.76h2.45v6h-2.45a3 3 0 01-3-3 3 3 0 013-3z" class="cls-7" transform="rotate(-135 94.567 94.775)"/><path d="M96.07 97.14l-.2.2a2.12 2.12 0 01-3 0l-2-2a.52.52 0 010-.73l1.34-1.34a.52.52 0 01.73 0l3.13 3.13a.51.51 0 010 .74z" class="cls-8"/><path d="M31 27.87h2.45v6H31a3 3 0 01-3-3 3 3 0 013-3z" class="cls-7" transform="rotate(45 30.755 30.89)"/><path d="M28.39 29.38l-.2.21a2.12 2.12 0 000 3l2 2a.52.52 0 00.73 0l1.34-1.34a.52.52 0 000-.73l-3.13-3.14a.53.53 0 00-.74 0z" class="cls-8"/><path d="M94.42 28.08h2.45v6h-2.45a3 3 0 01-3-3 3 3 0 013-3z" class="cls-7" transform="rotate(135 94.139 31.091)"/><path d="M96.5 29.59l.21.2a2.14 2.14 0 010 3l-2 2a.53.53 0 01-.74 0l-1.34-1.34a.52.52 0 010-.73l3.13-3.13a.51.51 0 01.74 0z" class="cls-8"/><path d="M31.3 91.19h2.45v6H31.3a3 3 0 01-3-3 3 3 0 013-3z" class="cls-7" transform="rotate(-45 31.023 94.21)"/><path d="M28.66 95.72l-.21-.21a2.14 2.14 0 010-3l2-2a.53.53 0 01.74 0l1.34 1.34a.52.52 0 010 .73l-3.13 3.14a.53.53 0 01-.74 0z" class="cls-8"/><path d="M83.06 57.43l12.81-15.64a8.94 8.94 0 00-1.05-11.39 9 9 0 00-11.5-1l-15.56 13a9.69 9.69 0 01-11.07.08L41.06 29.65a9 9 0 00-11.4 1.05 9 9 0 00-1 11.5l13 15.57a9.68 9.68 0 01.08 11.06l-12.09 14.9a9 9 0 001.05 11.39 8.94 8.94 0 0011.49 1L57 83.88a9.69 9.69 0 0111.1-.08l15.63 12.81a8.94 8.94 0 0011.39-1 9 9 0 001-11.5l-13-15.57a9.67 9.67 0 01-.06-11.11z" class="cls-9"/><path d="M62.39 63.12l-8.81 23.61L57 83.88a9.69 9.69 0 0111.1-.08l2.42 2zM41.64 57.77a9.68 9.68 0 01.08 11.06l-1.62 2 22.29-7.71-24-9.28z" class="cls-10"/><path d="M67.76 42.38a9.69 9.69 0 01-11.07.08l-3.32-2.72 9 23.38 7.94-22.88zM83.14 68.49a9.67 9.67 0 01-.08-11.06l2.36-2.88-23 8.57 23.22 8.38z" class="cls-10"/><path d="M80.9 58l12.17-14.67a8 8 0 00-.94-10.2 8 8 0 00-10.3-.88L67.2 44.55a8.7 8.7 0 01-9.92.07L42.59 32.45a8 8 0 00-10.2.95 8 8 0 00-.88 10.29l12.3 14.64a8.67 8.67 0 01.07 9.91l-11.43 14a8 8 0 00.95 10.2 8 8 0 0010.29.87l13.9-11.56a8.68 8.68 0 019.91-.07l14.69 12.13a8 8 0 0010.21-1 8 8 0 00.87-10.29L81 67.93a8.67 8.67 0 01-.1-9.93z" class="cls-11"/><path fill="#3e4c7a" d="M93.27 82.57L81 67.93a8.67 8.67 0 01-.1-9.93l12.17-14.67a8 8 0 00-.94-10.19l-59 59c.08.09.16.19.25.28a8 8 0 0010.29.87l13.9-11.56a8.68 8.68 0 019.91-.07l14.71 12.15a8 8 0 0010.21-1 8 8 0 00.87-10.24z" opacity=".2"/><circle cx="62.39" cy="63.13" r="11.97" class="cls-9"/><path fill="#4d5f99" d="M74.36 63H50.43a12 12 0 1023.93 0z" opacity=".3"/><circle cx="91.23" cy="34.04" r="3.06" class="cls-7"/><path d="M92.31 35.12A1.53 1.53 0 1190.14 33a1.53 1.53 0 012.17 2.16z" class="cls-8"/><path d="M80.49 18.69c-1.91-2.71-5.31-3.84-6.86-2.28-1.56 1.55-.43 4.95 2.28 6.86L91 34l.08-.08.08-.08z" class="cls-11"/><path d="M75.91 23.27L91 34l.08-.08-17.45-17.51c-1.56 1.59-.43 4.95 2.28 6.86z" class="cls-14"/><path d="M106.76 45c2.7 1.92 3.83 5.31 2.28 6.87-1.56 1.55-5 .42-6.87-2.28L91.5 34.43l.08-.07.07-.08z" class="cls-11"/><path d="M102.17 49.54L91.5 34.43l.08-.07L109 51.82c-1.52 1.55-4.91.42-6.83-2.28z" class="cls-14"/><circle cx="91.28" cy="34.06" r=".61" class="cls-14"/><circle cx="91.23" cy="91.65" r="3.06" class="cls-7"/><path d="M92.31 92.73a1.53 1.53 0 11-2.17-2.16 1.53 1.53 0 012.17 2.16z" class="cls-8"/><path d="M80.49 76.29c-1.91-2.71-5.31-3.83-6.86-2.28-1.56 1.56-.43 4.95 2.28 6.87L91 91.55l.08-.08.08-.07z" class="cls-11"/><path d="M75.91 80.88L91 91.55l.08-.08L73.63 74c-1.56 1.57-.43 5 2.28 6.88z" class="cls-14"/><path d="M106.76 102.56c2.7 1.91 3.83 5.31 2.28 6.86-1.56 1.56-5 .43-6.87-2.28L91.5 92l.08-.07.07-.08z" class="cls-11"/><path d="M102.17 107.14L91.5 92l.08-.07L109 109.42c-1.52 1.58-4.91.43-6.83-2.28z" class="cls-14"/><circle cx="91.28" cy="91.66" r=".61" class="cls-14"/><circle cx="33.92" cy="91.34" r="3.06" class="cls-7"/><circle cx="33.92" cy="91.34" r="1.53" class="cls-8"/><path d="M23.19 76c-1.91-2.71-5.31-3.84-6.86-2.28-1.56 1.55-.43 5 2.28 6.86l15.1 10.68.08-.08.08-.08z" class="cls-11"/><path d="M18.61 80.57l15.1 10.68.08-.08-17.46-17.46c-1.56 1.55-.43 4.95 2.28 6.86z" class="cls-14"/><path d="M49.46 102.25c2.7 1.92 3.83 5.31 2.28 6.87-1.56 1.55-5 .43-6.87-2.28L34.2 91.73l.08-.07.07-.08z" class="cls-11"/><path d="M44.87 106.84L34.2 91.73l.08-.07 17.46 17.46c-1.56 1.55-4.95.43-6.87-2.28z" class="cls-14"/><circle cx="33.98" cy="91.36" r=".61" class="cls-14"/><path d="M35.83 31.69a3.05 3.05 0 11-4.32 0 3 3 0 014.32 0z" class="cls-7"/><circle cx="33.67" cy="33.85" r="1.53" class="cls-8"/><path d="M18.32 44.58c-2.71 1.92-3.84 5.31-2.28 6.87 1.55 1.55 4.95.42 6.86-2.28l10.67-15.11-.07-.06-.08-.08z" class="cls-11"/><path d="M22.9 49.17l10.67-15.11-.07-.06L16 51.45c1.59 1.55 5 .42 6.9-2.28z" class="cls-14"/><path d="M44.58 18.32c1.92-2.71 5.31-3.84 6.87-2.28 1.55 1.55.42 4.95-2.28 6.86L34.06 33.57 34 33.5l-.08-.08z" class="cls-11"/><path d="M49.17 22.9L34.06 33.57 34 33.5 51.45 16c1.55 1.59.42 5-2.28 6.9z" class="cls-14"/><path d="M34.13 33.36a.62.62 0 11-.87 0 .62.62 0 01.87 0z" class="cls-14"/><path d="M94.35 90.21a3.05 3.05 0 11-4.32 0 3.06 3.06 0 014.32 0z" class="cls-7"/><path d="M93.27 91.29a1.52 1.52 0 010 2.16 1.54 1.54 0 01-2.16 0 1.53 1.53 0 012.16-2.16z" class="cls-8"/><path d="M76.83 103.1c-2.7 1.9-3.83 5.31-2.28 6.9 1.56 1.56 5 .43 6.87-2.28l10.67-15.1-.09-.12-.07-.07z" class="cls-11"/><path d="M81.42 107.68l10.67-15.1-.09-.08L74.55 110c1.56 1.52 4.95.39 6.87-2.32z" class="cls-14"/><path d="M103.1 76.83c1.91-2.7 5.31-3.83 6.86-2.28 1.56 1.56.43 5-2.28 6.87l-15.1 10.67-.08-.09-.07-.07z" class="cls-11"/><path d="M107.68 81.42l-15.1 10.67-.08-.09L110 74.55c1.52 1.56.39 4.95-2.32 6.87z" class="cls-14"/><circle cx="92.21" cy="92.31" r=".61" class="cls-14"/></svg>
