<svg class="S" xmlns="http://www.w3.org/2000/svg" viewBox="0 0 126 126"><g style="isolation:isolate"><g id="design"><path d="M101.52,108.64l-90.71,6v5.14l91.18-6S104.47,111.4,101.52,108.64Z" style="fill:#8b5531"/><path d="M10.81,117v2.78l91.18-6a3.51,3.51,0,0,0,1-2.33C103,110.63,10.81,117,10.81,117Z" style="fill:#8b5531;opacity:0.5;mix-blend-mode:multiply"/><path d="M112.39,6.56a2.55,2.55,0,0,1,2.48,1c.74,1.3.1,7.61-1,10.25s.6,7.83-2.25,9.18-2.62,1.78-3.26,2.41-5.58,2-6.18-1.89S108.67,8.23,112.39,6.56Z" style="fill:#f6a714"/><path d="M111.6,27a17.15,17.15,0,0,0-.07-2.58c-.41-2.86-.8-5.66-.07-8.55a29.06,29.06,0,0,1,2.42-5.58c0-.12.08-.25.11-.38a26.86,26.86,0,0,0,.07-3.11,3.06,3.06,0,0,0-1.67-.26c-3.72,1.67-10.81,17.06-10.21,21s5.54,2.52,6.18,1.89S108.77,28.37,111.6,27Z" style="fill:#e6e6e6;opacity:0.5;mix-blend-mode:multiply"/><path d="M57,86.55s10.64.46,14.46-3,5.58-9.2,8.16-11.37S90.4,54.79,93,53.55s10.32-11.07,15.38-24.12a10.59,10.59,0,0,1-4.54-1.89L73.88,51.7Z" style="fill:#822f20"/><path d="M88,55.64a35.44,35.44,0,0,0,2.36-3.39c.82-1.39,1.46-2.88,2.16-4.35a29.87,29.87,0,0,1,6.19-9.08A25.87,25.87,0,0,1,101,36.9a25.75,25.75,0,0,1,4.88-5.66c.8-.64,1.61-1.25,2.45-1.81h0a10.59,10.59,0,0,1-4.54-1.89L73.88,51.7,57,86.55s10.64.46,14.46-3a16.88,16.88,0,0,0,2-2.28,25.49,25.49,0,0,1,.7-2.7c.49-1.36,1-2.72,1.58-4.06a38.24,38.24,0,0,1,4.89-8.74Q82,64,83.44,62.24A49.07,49.07,0,0,1,88,55.64Z" style="fill:#219157;opacity:0.5;mix-blend-mode:multiply"/><path d="M99.89,22.37s2.88-7.58,5.77-11.43,5.57-5.62,6.9-4.23-3,6.8-3.42,9.74,2.84,7.55,0,10.28-4.29,2.56-4.29,2.56S98.3,31,99.89,22.37Z" style="fill:#f6a714"/><path d="M109.14,16.45c.43-2.94,4.76-8.35,3.42-9.74a1.54,1.54,0,0,0-.58-.38,9,9,0,0,1-.48,1c-1.26,2.2-2.62,4.35-3.71,6.64a15.36,15.36,0,0,0-.63,2.13c0,.33,0,.66,0,1s.17.65.28,1a7.87,7.87,0,0,1,.78,3.43c-.09.7-.19,1.4-.28,2.1a8,8,0,0,1-3.63,4.72,7.83,7.83,0,0,1-2.22.87,5.36,5.36,0,0,0,2.77.1s1.45.17,4.29-2.56S108.71,19.4,109.14,16.45Z" style="fill:#f2f2f2;opacity:0.5;mix-blend-mode:multiply"/><path d="M50.41,69.12s6.22-5,9.32-9.58S71.6,49.73,74.39,45.19s20.55-20.55,25.5-22.82c0,0,1.14,7.23,5,6.92a22.23,22.23,0,0,0-8.36,8.78c-3.1,6-16.73,26.42-23.34,33.44S72.48,82.67,61.61,86c-3.9,1.12-5.23.41-5.23.41S46.52,85,45,76.78,50.11,69.36,50.41,69.12Z" style="fill:#822f20"/><path d="M94.41,38.1c-1.19,1-2.28,2.14-3.38,3.26s-2.18,2.28-3.19,3.5c-1.52,2.07-2.92,4.21-4.65,6.14-1.35,1.5-2.76,2.93-4,4.47-.61.87-1.17,1.76-1.71,2.68a39.7,39.7,0,0,1-3.4,5c-1.39,1.71-3.22,3-4.71,4.63a13.51,13.51,0,0,0-.79,1.51,22.61,22.61,0,0,1-2.66,5.4,13.36,13.36,0,0,1-4.37,4.19c-.53.28-1.06.53-1.61.77a27.4,27.4,0,0,1-6.36,2.27,16.35,16.35,0,0,1-5.91.12c3.44,3.65,8.76,4.37,8.76,4.37s1.33.71,5.23-.41c10.87-3.3,4.94-7.43,11.54-14.46S93.39,44.05,96.49,38.07a20,20,0,0,1,1.57-2.57C96.85,36.38,95.62,37.22,94.41,38.1Z" style="fill:#63b577;opacity:0.5;mix-blend-mode:multiply"/><path d="M42.21,86a15.92,15.92,0,0,1,1.49,4.1c0,1.26,2.48,15,5.36,18.31A2.78,2.78,0,0,0,50.29,112l1.28-.1s2.14.9,1.87,2.08-.59,2.84.36,2.84,1.08-2.71,1.67-3.34a5.4,5.4,0,0,0,.92-1.77l2.75-.28a7.47,7.47,0,0,0-4.44-3.18,12.81,12.81,0,0,1-1.49-3.92c-.13-1.58-2.16-3.16-1.44-9.88S49.69,86,49.69,86Z" style="fill:#ffd5ad"/><path d="M54.7,108.27a12.81,12.81,0,0,1-1.49-3.92c-.13-1.58-2.16-3.16-1.44-9.88S49.69,86,49.69,86H42.21a18.71,18.71,0,0,1,1.45,3.75,5,5,0,0,1,4.11.59,5.66,5.66,0,0,1,2,4.51,42.27,42.27,0,0,0,1,6.7,56.37,56.37,0,0,1,1.3,7.07.82.82,0,0,1-1,.78,2.93,2.93,0,0,1-2-1.55,1,1,0,0,1-.2.22,2.34,2.34,0,0,0,.26.34A2.78,2.78,0,0,0,50.29,112l1.28-.1s2.14.9,1.87,2.08-.59,2.84.36,2.84,1.08-2.71,1.67-3.34a5.4,5.4,0,0,0,.92-1.77l2.75-.28A7.47,7.47,0,0,0,54.7,108.27Z" style="fill:#ffd5ad;opacity:0.5;mix-blend-mode:multiply"/><path d="M23.66,56.07s8.23-.19,11.22,2.28c0,0,9.88,3.57,11.51,6.28s.77,2.94.77,2.94,1.94,1.62,3.25,1.55c0,0-5.34,1.93-3.09,8.59s9.06,8.67,9.06,8.67-19.52,3.57-28.19-7Z" style="fill:#f6a714"/><path d="M49.55,81.72a24.77,24.77,0,0,1-5.77-.2,11.73,11.73,0,0,1-5.6-2.47A20.31,20.31,0,0,1,34,74.24a15.22,15.22,0,0,1-2.52-5.58c-.29-1.83-.15-4-1.11-5.63-1.38-2.34-4-3.26-6.23-4.56l4.07,21c8.67,10.53,28.19,7,28.19,7A15.5,15.5,0,0,1,49.55,81.72Z" style="fill:#bbe673;opacity:0.5;mix-blend-mode:multiply"/><path d="M39.87,40.93s1.05-.07,1.83,1.68c0,0,.66-2.08-1.83-2,0,0,2.11-.49,1.66-3.43,0,0,0,2.41-1.66,2.7,0,0,.64-1-.58-2.7S28.06,30.93,24.14,38c0,0-3.59,1.43-1.71,7.06s1.3,7.68,1.06,8.17l.6-.17,1.15,1.07,7.09-4Z" style="fill:#231f20"/><path d="M39.87,40.65s2.11-.49,1.66-3.43c0,0,0,2.41-1.66,2.7,0,0,.56-.86-.36-2.37a1.37,1.37,0,0,1-.25,1.3.11.11,0,0,1-.13,0l-.1,0c0,.26-.05.58-.35.61s-.63-.24-.89-.47c-.1.42-.23.86-.74.83-.67,0-1-.67-1.5-1.09a3.61,3.61,0,0,1-.17.46.11.11,0,0,1-.15,0,4.78,4.78,0,0,1-.45-.45c-.17.27-.41.66-.72.67a1.33,1.33,0,0,1-.88-.45c-.29.43-.48.93-1,1.18-.19.1-.95,0-.91.33a6.31,6.31,0,0,1,.09.76.12.12,0,0,1-.11.11c-.25,0-.25,2.24-.41,2.58,0,0-.1.06-.15,0s-.3-.35-.47-.5A12.82,12.82,0,0,1,30,45.2c0,.07-.13.12-.18,0l-.14-.18a2.29,2.29,0,0,0-.14.7.11.11,0,0,1-.22,0,2.09,2.09,0,0,0-.16-.44,7.35,7.35,0,0,1-.4,1.2.12.12,0,0,1-.18,0A14.53,14.53,0,0,1,27,45.11c-.57-.64-.89.25-1.1.68a5.32,5.32,0,0,0-.58,2.38,7.68,7.68,0,0,1,0,1.66.12.12,0,0,1-.19.05L25,49.79a2.86,2.86,0,0,1-.11,1.27.11.11,0,0,1-.2,0c-.13-.18-.24-.36-.36-.54-.07.17-.13.34-.22.51a.12.12,0,0,1-.19,0v0c0,.07-.07.14-.1.22a.07.07,0,0,1-.06,0,4.49,4.49,0,0,1-.27,2l.6-.17,1.15,1.07,7.09-4,7.54-9.24s1.05-.07,1.83,1.68C41.7,42.61,42.36,40.53,39.87,40.65Z" style="fill:#8c6239;opacity:0.5;mix-blend-mode:multiply"/><path d="M39.37,40.61c1-.34.45,2.49,1,3.59A2.58,2.58,0,0,1,40,47.1,5.38,5.38,0,0,0,40.84,49c.57.7-.41,1.31-.9,1.47A6.7,6.7,0,0,0,39.78,52c0,.74,0,1.23-.41,1.35,0,0,.28,1.18-.37,1.31a12.92,12.92,0,0,0-.16,1.47c0,.49-.53,1.43-2.37,1.3s-1.59,0-1.59,0a1.78,1.78,0,0,0,.19,1.3s-.27.57-1.13.12a34.89,34.89,0,0,0-10.29-2.81A5.8,5.8,0,0,0,24,52.82s.49.12.57.41c0,0,.28-.7.08-1.06,0,0,.49-.37.69.08a2.81,2.81,0,0,0,.78-2.66,5.62,5.62,0,0,1-.9-3.34c.29-1.51,1.84-2.33,3.15-.9a5.42,5.42,0,0,1,1.43,2.86v1.63h1.3s-.69-4,.21-5.1,1.67-2.94.16-4.13a2.68,2.68,0,0,1,3-1.22C36.51,40,37,41.47,39.37,40.61Z" style="fill:#ffd5ad"/><path d="M34.85,57.69a3.69,3.69,0,0,1-.58-.23c-.43-.23-.86-.44-1.3-.63a8.19,8.19,0,0,1-2.25-1.36,5.45,5.45,0,0,1-1.32-2A6.23,6.23,0,0,1,29,52.08c-.05-.34-.05-.68-.08-1a1.11,1.11,0,0,1-1.54.28,6.29,6.29,0,0,1-1.13-1.28,3,3,0,0,1-.87,2.19c-.2-.45-.69-.08-.69-.08.2.36-.08,1.06-.08,1.06-.08-.29-.57-.41-.57-.41a5.8,5.8,0,0,1-.37,3.27A34.89,34.89,0,0,1,33.94,58.9c.86.45,1.13-.12,1.13-.12A1.59,1.59,0,0,1,34.85,57.69Z" style="fill:#ffd5ad;opacity:0.5;mix-blend-mode:multiply"/><path d="M100.19,102l-89.38,5.88V113l89.85-5.9S103.14,104.72,100.19,102Z" style="fill:#8b5531"/><path d="M10.81,110.78V113l89.85-5.9a3.43,3.43,0,0,0,1-2.36C101.62,103.93,10.81,110.78,10.81,110.78Z" style="fill:#8b5531;opacity:0.5;mix-blend-mode:multiply"/><path d="M29.12,68.5s2.2-1.8,1.67-5.76S26,55.8,23,56.09s-7.88,4-7.11,9.39S20.71,77,22.63,78.67a11.74,11.74,0,0,0,1,3.43c.61.81,0,7.63,1.26,12.37s2.25,7,2.25,8.94a1.82,1.82,0,0,0-.9,2c.21,1.51.45,8,3.19,6.74,0,0,1.3.32,1.43-.21s1,.74,1.71.17c0,0,.9.57,1.47-.78s0-5.14,0-5.14h1.06s-.37-3.06-2.33-3.35a9.47,9.47,0,0,0-.53-3.68c-.65-1.47-.61-6.81-.32-8.61s-1.8-7.15-1.8-7.15S31.61,78.91,29.12,68.5Z" style="fill:#ffd5ad"/><path d="M35.12,106.19s-.37-3.06-2.33-3.35a9.47,9.47,0,0,0-.53-3.68c-.65-1.47-.61-6.81-.32-8.61s-1.8-7.15-1.8-7.15,1.47-4.49-1-14.9c0,0,2.2-1.8,1.67-5.76a7.13,7.13,0,0,0-1.39-3.3,9.66,9.66,0,0,1,.37,2.63,9.39,9.39,0,0,1-1.84,5.53l.27-.35c-.12.17-.23.34-.34.51s-.09.37-.13.55a32.29,32.29,0,0,0,0,4.4,25.87,25.87,0,0,1,1.16,5.66,10.3,10.3,0,0,1-.65,4.23c0,.71-.06,1.42-.05,2.13.45,1.69,1.21,3.28,1.67,5a43.18,43.18,0,0,1,1,6.92c.13.72.29,1.44.44,2.16a11,11,0,0,1,0,4.94,15.17,15.17,0,0,1,1,1.86,3.75,3.75,0,0,1,0,3.48,2.51,2.51,0,0,1-2.51,1.06c-.58-.06-1.21-.28-1.83-.35a3.43,3.43,0,0,1-1.07.07c.42,1.65,1.17,3,2.54,2.31,0,0,1.3.32,1.43-.21s1,.74,1.71.17c0,0,.9.57,1.47-.78s0-5.14,0-5.14Z" style="fill:#ffd5ad;opacity:0.5;mix-blend-mode:multiply"/></g></g></svg>
