<svg class="S" xmlns="http://www.w3.org/2000/svg" xml:space="preserve" viewBox="0 0 126 126"><path fill="red" d="M13 103V23h100v80H13z"/><path fill="#fff" d="M17 27h92v72H17z"/><path fill="red" d="M17 39.7v46.6c12.9 0 23.3-10.4 23.3-23.3S29.9 39.7 17 39.7z"/><linearGradient id="a" x1="30.607" x2="38.074" y1="40.417" y2="26.467" gradientUnits="userSpaceOnUse"><stop offset="0" stop-color="red"/><stop offset=".676" stop-color="#fff"/></linearGradient><path fill="url(#a)" fill-rule="evenodd" d="m33 27-6.2 11.8 6.1 3.6L42.6 27z" clip-rule="evenodd"/><linearGradient id="b" x1="39.129" x2="85.828" y1="49.727" y2="23.779" gradientUnits="userSpaceOnUse"><stop offset="0" stop-color="red"/><stop offset=".635" stop-color="#fff"/></linearGradient><path fill="url(#b)" fill-rule="evenodd" d="M69.1 27 37.5 47l3.5 6.1L91 27z" clip-rule="evenodd"/><linearGradient id="c" x1="42.75" x2="66.574" y1="63" y2="63" gradientUnits="userSpaceOnUse"><stop offset="0" stop-color="red"/><stop offset=".48" stop-color="#fff"/></linearGradient><path fill="url(#c)" fill-rule="evenodd" d="m109 56.7-66.3 2.8v7l66.3 2.8z" clip-rule="evenodd"/><linearGradient id="d" x1="38.338" x2="85.565" y1="76.953" y2="101.927" gradientUnits="userSpaceOnUse"><stop offset="0" stop-color="red"/><stop offset=".658" stop-color="#fff"/></linearGradient><path fill="url(#d)" fill-rule="evenodd" d="M41 72.9 37.5 79l31.6 20H91z" clip-rule="evenodd"/><path fill="red" d="m32.9 83.6-6.1 3.6L33 99h9.6zm47.3-23.7V66H64.4v-6.1h15.8zm12.1-8.4h-.1L84.7 55l-1.5-6.9 10.4-4.8h7.6v39.3h-8.9V51.5z"/></svg>
