<svg class="S" xmlns="http://www.w3.org/2000/svg" viewBox="0 0 126 126"><text fill="#fff" font-family="MyriadPro-Regular,Myriad Pro" font-size="12"><tspan x="40.05" y="138.55">Shooting</tspan><tspan x="53.77" y="152.95">152</tspan></text><path fill="#77bf43" d="M112.18 61.7a49.26 49.26 0 00-47.89-47.88V3h-2.58v10.82A49.26 49.26 0 0013.82 61.7H3v2.59h10.82a49.26 49.26 0 0047.89 47.89V123h2.58v-10.82a49.26 49.26 0 0047.89-47.89H123V61.7zm-50.47 7v23.19a29 29 0 01-27.6-27.6h23.22v4.38zm-1.79-2.59v-1.82h1.79v1.79zm0-4.38v-1.81h1.79v1.78zm-2.59-4.37v4.34H34.11a29 29 0 0127.6-27.59v23.22zM31.52 61.7H26A37.06 37.06 0 0161.71 26v5.51A31.56 31.56 0 0031.52 61.7zm0 2.59a31.56 31.56 0 0030.19 30.19V100A37.06 37.06 0 0126 64.29zm32.77-7V34.11a29 29 0 0127.6 27.59H68.66v-4.37zm1.78 2.59v1.82h-1.78v-1.78zm0 4.37v1.79h-1.78v-1.75zm2.59 4.38v-4.34h23.23a29 29 0 01-27.6 27.6V68.67zm25.82-4.38H100A37.06 37.06 0 0164.29 100v-5.52a31.56 31.56 0 0030.19-30.19zm0-2.59a31.56 31.56 0 00-30.19-30.14V26A37.06 37.06 0 01100 61.7zM61.71 19v4.36A39.71 39.71 0 0023.36 61.7H19A44.08 44.08 0 0161.71 19zM19 64.29h4.36a39.71 39.71 0 0038.35 38.35V107A44.08 44.08 0 0119 64.29zM64.29 107v-4.36a39.71 39.71 0 0038.35-38.35H107A44.08 44.08 0 0164.29 107zm38.35-45.3a39.71 39.71 0 00-38.35-38.34V19A44.08 44.08 0 01107 61.7z"/><path fill="#518a2e" d="M112.18 61.7a49.26 49.26 0 00-47.89-47.88V3H63v120h1.29v-10.82a49.26 49.26 0 0047.89-47.89H123V61.7zM64.29 26A37.06 37.06 0 01100 61.7h-5.52a31.56 31.56 0 00-30.19-30.18zm0 8.1a29 29 0 0127.6 27.6H68.66v-4.37h-4.37zm0 25.81h1.78v1.79h-1.78zm0 4.37h1.78v1.79h-1.78zm0 4.38h4.37v-4.37h23.23a29 29 0 01-27.6 27.6zm0 25.81a31.56 31.56 0 0030.19-30.18H100A37.06 37.06 0 0164.29 100zm0 12.52v-4.36a39.71 39.71 0 0038.35-38.35H107A44.08 44.08 0 0164.29 107zm38.35-45.3a39.71 39.71 0 00-38.35-38.33V19A44.08 44.08 0 01107 61.7z"/></svg>
