<svg class="S" xmlns="http://www.w3.org/2000/svg" id="design" x="0" y="0" version="1.1" viewBox="0 0 126 126" xml:space="preserve">
<style type="text/css">
	.st0{fill:#DE7740;}
	.st1{opacity:0.1;}
	.st2{fill:#F6A714;}
	.st3{opacity:0.1;}
	.st4{fill:#1A0510;}
	.st5{fill:#822F20;}
	.st6{opacity:0.43;fill:none;}
	.st7{fill:#7F58A5;}
	.st8{fill:#6D3984;}
	.st9{opacity:0.5;}
	.st10{fill:#B298C8;}
	.st11{fill:#3A6799;}
	.st12{fill:#40416C;}
	.st13{fill:#353D5C;}
	.st14{fill:#1E1D30;}
	.st15{fill:#594B9F;}
	.st16{fill:#474643;}
	.st17{fill:#745EA8;}
</style>
<path class="st0" d="M84.5,7c0-1.1-0.5-2.2-1.3-3c-1.3-1.2-3-2.6-4.3-2.3s-3.7,0.2-4.6,0.7s-2.5,1.8-2.6,3s-0.4,3.6-0.9,4
	c-0.6,0.4-1.1,0.8-1.6,1.3c-0.3,0.3-0.6,0.6-1,0.9c0,0-1.3,0,1.1,2.5s4,2.4,4,2.4c0.9-1.7,1.9-3.3,3-4.9c0.5-0.4,2.2-0.6,2.1-1.6
	c0-0.8,0.1-1.6,0.4-2.3c0,0,2-1.1,2.9-0.3S84.4,8.9,84.5,7z"/>
<path class="st0" d="M9.4,80.7L8,82.4c-0.8,1.1-1,2.4-0.5,3.7l0.9,2.5c0.2,0.6,0.7,1.1,1.4,1.3l0,0c0.6,0.2,1.3-0.1,1.7-0.6l1.6-2.7
	c0.1-0.1,0.1-0.1,0.3-0.2l0,0c0.2,0,0.4,0.1,0.4,0.3c0,0.1,0,0.2-0.1,0.3L13,87.6c-0.4,0.4-0.6,0.9-0.5,1.4v0.1
	c0,0.5,0.5,0.8,0.9,0.8c0.1,0,0.1,0,0.2,0l0.2-0.1c0.9-0.3,1.5-1,1.8-1.9l0.9-3.4l0.8-2.1l-2.9-2.7L12,79.5L9.4,80.7z"/>
<g class="st1">
	<path d="M11.4,89.3l0.1-0.2c-0.1,0-0.2,0-0.3-0.1l-0.9-0.4c-0.1-0.1-0.2-0.2-0.3-0.3l-1-2.9c0-0.1,0-0.3,0-0.4l1-2.9
		c0-0.1,0.1-0.2,0.1-0.2l1.3-1.3l0.1-0.1c0.3-0.2,0.4-0.5,0.2-0.8c0,0,0,0,0-0.1l-2.4,1.1L8,82.4c-0.8,1.1-1,2.4-0.5,3.7l0.9,2.5
		c0.2,0.6,0.7,1.1,1.4,1.3C10.4,90.1,11.1,89.8,11.4,89.3z"/>
	<path d="M14.2,86.1c-0.2-0.2-0.5-0.3-0.7-0.1h-0.1c-0.2,0.1-0.3,0.3-0.3,0.5v0.1c0.1-0.1,0.1-0.1,0.3-0.2c0.2,0,0.4,0.1,0.4,0.3
		c0,0.1,0,0.2-0.1,0.3L13,87.6c-0.4,0.4-0.6,0.9-0.5,1.4v0.1v0.1v-0.1c0-0.1,0.1-0.2,0.2-0.3l1.4-1.1c0.1-0.1,0.1-0.1,0.2-0.2
		l0.3-0.6c0.1-0.2,0.1-0.5-0.1-0.6L14.2,86.1z"/>
</g>
<path class="st2" d="M13.9,74.5l-4.7,6.3c0,0,6-1.8,7.3,4.1l2-2c2.3-2.3,2.5-6.1,0.3-8.5l0,0c-1.2-1.3-3.2-1.4-4.5-0.3
	C14.1,74.2,14,74.4,13.9,74.5z"/>
<path class="st3" d="M16.8,77.1l-1.5-0.9l-0.6-1.6l1.3-1.3c-0.8,0.1-1.6,0.6-2.1,1.2l-4.7,6.3c0.7-0.2,1.5-0.3,2.3-0.2l1-1L12,78.9
	l1.3-2.5l1.4,0.6L16.8,77.1z"/>
<path class="st2" d="M68.1,11.6c0,0-4.8,2.6-5.7,4.1s-0.8,1.8-2.7,2.6s-6.5,2.4-8.9,4.4s-6,2.7-7.1,3.4c-1.4,1-2.6,2-3.8,3.2
	c0,0-5,2.3-10,4.4s-10.7,8.6-13,12s-2.7,9.2-2.1,12.8c0.3,2.2,0.8,4.5,1.4,6.6c0.2,0.5,9.2,1.1,11.8,2.4s8.3,3.7,10.1,2.9
	s2.9-0.3,6.4-2.4c2.4-1.3,3.3-4.2,2.1-6.7c-0.7-1.2,2.8-13,3.1-13.6s-0.4-5.2-0.2-6.6s-0.1-3,0.5-3.2c3-1.2,5.8-3,8.2-5.2
	c3.3-3.3,8.4-6.1,10.9-9.9c1.4-2.1,2.9-4.1,4.6-6.1L68.1,11.6z"/>
<path class="st3" d="M23.7,43.8c-2.8,1.5-4.4,4.7-3.9,7.8c0.6,5.8,0.5,7.1,1.4,8.3l0.9,1.2l1.9,2.5c0,0,4.4,1.4,5.4,1.3
	s1.1-4.1,0.9-6.7s-2.8,3.5,0.9-4.1s5.9-6.5,6.3-7.6s-0.1-1.9-1.8-3s-5.6-1.8-5.6-1.8L23.7,43.8z"/>
<path class="st0" d="M36.3,40.5c0,0,1.5,2.4,0.5,2.7l-1,0.3c0,0,1,2.5-0.4,3c-1.3,0.5-2.7,0.6-4.1,0.4c-4.8-0.9-8.6-4.5-9.9-9.2
	c3.3,0.3,11.5-1.4,11.5-1.4l5.9-0.5C38.6,37.7,37.7,39.3,36.3,40.5z"/>
<path class="st3" d="M44.5,52.4c-1.4,1.5-3.3,1.7-3.4,5.4S37.9,60,37,60.9s-2.3,0.5-2.7,1.9s-2.8,1.1-4.2,0.7
	c-2-0.3-4.1-0.3-6.1,0.1c-1,0.4,1.3,2,2.4,2.4s7.9,4.2,9.7,4c2.1-0.3,4.2-0.7,6.2-1.2c2.1-0.5,3.7,0.1,4.3-1.8s-0.1-3.4-0.2-5.6
	C46,58.3,45.3,55.3,44.5,52.4z"/>
<path class="st3" d="M70.4,10.4c0,0,4.6-2.2,4.6-3.1S76.3,5,76.3,5s2.3-1.1-0.9-2c-0.9-0.3-2.9,0.8-3,1.5c-0.2,1.5-0.8,4.1-0.8,4.1
	L70.4,10.4z"/>
<path class="st2" d="M71.6,70.3c0.5,1.7,1.5,3.3,2.8,4.6c1.6,1.5,3,3.1,4.3,4.8l0.2,1.7c0,0,1.4,0-4.4,2.7s-7.2,2.7-7.2,2.7
	s0.4-5.6-1.1-7s-2.7-6-0.5-7.6C67.5,71.1,69.5,70.4,71.6,70.3z"/>
<path class="st2" d="M37,91.8c0.8,1.8,1.8,3.6,2.8,5.3l1.5,2.3c0,0-15,7.5-15.5,7.8s0.2-2.6,1.4-3.6s2.6-5.3,1.4-8S27.1,92,26.1,91
	S37,91.8,37,91.8z"/>
<path class="st4" d="M38.8,35.9c0.4-0.5-0.4,4.4-3.1,5.5s-8.2,2-9.2-2.1C28.3,39.8,37.6,37.4,38.8,35.9z"/>
<path class="st5" d="M72.7,71.9c0,0,3.2-0.8,0-4.7C70,64,69.2,64.4,68.8,64c-1.8-2.3-3.4-4.8-4.9-7.3c-1.3-2-5.3-7-5.7-8
	s-3.9-1.8-5.5-2.1s-3-2.1-5.6-0.1s-4.9,3.1-4,9.7s1,9.6-0.3,10.6S38,67.5,38,67.5c-4-2.2-8.2-3.8-12.7-4.7c-6.7-1.2-9.1,0.8-11,2.9
	s-2.6,6.9,0.1,11.1s4.6,5.9,4.8,7.5s3.3,8.3,3.1,8.1s2.8,3.6,5.9,3.6s4.6-3,6.3-2.3s3.1-1.6,3.1-1.6c0-1.8-0.6-3.6-1.8-5
	c-1.8-1.9-4.6-7.2-4.6-7.2s4,4.4,9.7,4.1s15.2-9.3,17.2-11.9c1.1,2.1,2.4,4.1,3.8,5.9c0.9,1,2.2,1.6,3.5,1.5c0,0-1.3-2.3-0.8-3.9
	c0.3-1.4,1.3-2.5,2.6-3.1C68.9,71.6,71.8,72,72.7,71.9z"/>
<path class="st3" d="M66.8,72.4c0,0-3-2.1-3-3.9s-1.8-4-3.7-4.9s-1.3,2.5-1.9-0.8s-0.5-6.6-2.6-6.9s-4.2-2.5-4.2-2.5
	c1.6-2.3,1.8-0.5,1.6-2.3s1-0.4-0.2-1.8c-0.9-1-2-1.9-3.2-2.6c0,0,5.5-0.8,8,2.8s6.6,10,7.8,10.9s3.2,5,5.1,5.5s4.9,5.4,1.9,5.4
	C70.2,71.4,66.8,72.4,66.8,72.4z"/>
<path class="st3" d="M58.2,72.1c0,0-2.7-4.2-3.4-5.5s-0.5-2.1-1.9-2.7C52,63.5,51,63.5,50,63.7c0,0,1-0.1,1.5,2
	c0.5,2.1-0.5,2.4-1.3,3c-2.1,1.1-4.3,2.2-6.6,3.1c-0.8,0.3-2.2-0.6-5.7-1.4s-7-1-5.8,0.2s0.9,3.1-0.6,1.9c-1.1-0.8-2-1.6-2.9-2.6
	c-0.7-0.6-1.6-0.9-2.5-1.1c-0.3,1.4-0.3,2.9,0.2,4.2c0.8,2,0.5,2.6,2.6,4.8l2.1,2.1c0,0,4.9,4.3,9.9,4s11-6.5,12.4-7.7
	C55,74.6,56.9,74,58.2,72.1z"/>
<path class="st3" d="M17,65.1c0,0-3.1,2.7-0.2,5.3s2.5,0.8,2.9,2.6s-0.1,1.6,0.1,3.7s1.4,5.9,2,5.9s4.5,2.4,7.1,4s1.7,1.4,2.2,3.2
	s-1,0.4,0.5,1.8c1.5,1.4-0.9,1.2,1.5,1.4s3.9-0.6,4-1.3c0.2-0.7,0.1-1.4-0.1-2c-1.4-2.4-3-4.7-4.7-6.9c-1.2-1.5-2.3-1.4-3.2-2.3
	s-2.2-0.9-1.8-1.9c0.9-1.9,1.1-2.2-0.8-2.8s-1.4,1.5-1.9-0.6S24.1,67.3,17,65.1z"/>
<path class="st3" d="M71.5,15c-1.6,1.2-3,2.6-4.3,4.2c-1.9,2.3-5.5,3-7.1,5.5s-3,4.3-3.4,5.7s-2.5,1.6-2.9,2.5s-2,0.8-3,1.6
	c-0.8,0.7-1.6,1.3-2.5,1.9l-1.1,2.2l2.6-0.9c1.2-0.3,2.4-0.9,3.5-1.6c3-1.8,6.1-4.7,8.1-6.2c5.2-3.7,12-13.1,12-13.1L71.5,15z"/>
<path class="st6" d="M67.3,72.5c0.5-0.3,1.4,0.1,1.9,2s-0.2,2.4,1.2,3s1.6-1.8,1.8,1.3s1.2,4.1,1.2,4.1l-4.1,1.9
	c0,0,0.7-4.3,0.1-5.1s-1-0.3-2-1.3s-1.3-1.3-1.3-1.9c-0.1-0.8-0.2-1.5-0.5-2.2C65.6,74.4,65.3,73.7,67.3,72.5z"/>
<path class="st6" d="M32.5,94.6c0.4,0.7,0.7,1.5,0.9,2.3c0.2,0.9-2,0.7-1.3,1.6s1.7,1,2,1.5s-0.2,2.2-0.2,2.2l-8.1,4
	c0.5-1.2,1.4-2.2,2.4-2.9c1.4-0.9,1.5-2.5,1.6-3.9c0.1-1.1-0.1-2.2-0.3-3.2C29.4,96,31.9,95.4,32.5,94.6z"/>
<path class="st3" d="M21.5,36.8v1.4l0.5,1.1l0.6,1.2c0.3,0.6,0.4,0.8,0.6,0.7s0.6-0.2,0.4-0.5s-0.7-0.1-0.2-0.3s0.4-0.5,0.6-0.3
	s-0.6-0.4,0,0s0.3,0.7,0.6,0.4s0.7-0.4,0.7-0.6c0-0.2-0.1-0.3-0.1-0.5L21.5,36.8z"/>
<path class="st5" d="M38.8,35.9c0,0,0.6-13.9-12.5-12.6c-9,0.5-7.1,12.1-7.1,12.1s2.7,5,9.6,4.3C32.5,39.3,35.9,38,38.8,35.9z"/>
<path class="st3" d="M25,24.1c0,0-1.8,10.9,6.3,14.3c-7.3,1.2-10.5-1.6-10.5-1.6S17,28.7,25,24.1z"/>
<path class="st5" d="M29.1,39.6c0,0,6.9,4.9,10.7,2.1s-1-5.9-1-5.9L29.1,39.6z"/>
<path class="st3" d="M28.7,39.2c0,0,5.9-0.2,10.1-3.5c0.2,0.8-1.7,2.3-2.5,2.7C34.5,39.1,29.6,39.5,28.7,39.2z"/>
<g>
	<path class="st7" d="M15.5,109.3c13.6-8.6,37.9-25.9,49.4-42.8S90.1,23,106.2,25.3c7.1,1,19.5,19.5-20.4,57.3
		C61.7,105.4,26.9,118.8,20,120S5.2,115.8,15.5,109.3z"/>
	<path class="st8" d="M20.5,120.2l-0.5,0.1c-4.2,0.8-8.4-0.8-9.5-3.6c-0.5-1.4-0.6-4.2,4.8-7.6c17.1-10.7,39-27.6,49.3-42.7
		c1.8-2.7,3.6-5.5,5.6-8.5c9-14.1,19.3-30.1,30.9-32.6c1.7-0.4,3.4-0.4,5.1-0.2c2.4,0.4,5.5,2.7,7,7.2c1.1,3.6,1.6,9.8-2.6,19.1
		c-4.4,9.5-12.6,20-24.6,31.4C61.9,105.6,28,118.6,20.5,120.2z M101.2,25.8c-11.4,2.5-21.6,18.4-30.6,32.4c-2,3-3.8,5.9-5.6,8.6
		C54.7,82,32.7,98.9,15.6,109.6c-3.8,2.4-5.5,4.9-4.6,7c0.9,2.5,5.1,3.9,9,3.3l0.5-0.1c7.4-1.6,41.2-14.5,65.2-37.3
		c9.9-9.4,32.5-33.1,27.1-50c-1.4-4.3-4.3-6.5-6.6-6.9C104.6,25.3,102.9,25.4,101.2,25.8z"/>
	<g class="st9">
		<path class="st7" d="M15.5,109.3c13.6-8.6,37.9-25.9,49.4-42.8S90.1,23,106.2,25.3c7.1,1,19.5,19.5-20.4,57.3
			C61.7,105.4,26.9,118.8,20,120S5.2,115.8,15.5,109.3z"/>
		<path class="st8" d="M20.5,120.2l-0.5,0.1c-4.2,0.8-8.4-0.8-9.5-3.6c-0.5-1.4-0.6-4.2,4.8-7.6c17.1-10.7,39-27.6,49.3-42.7
			c1.8-2.7,3.6-5.5,5.6-8.5c9-14.1,19.3-30.1,30.9-32.6c1.7-0.4,3.4-0.4,5.1-0.2c2.4,0.4,5.5,2.7,7,7.2c1.1,3.6,1.6,9.8-2.6,19.1
			c-4.4,9.5-12.6,20-24.6,31.4C61.9,105.6,28,118.6,20.5,120.2z M101.2,25.8c-11.4,2.5-21.6,18.4-30.6,32.4c-2,3-3.8,5.9-5.6,8.6
			C54.7,82,32.7,98.9,15.6,109.6c-3.8,2.4-5.5,4.9-4.6,7c0.9,2.5,5.1,3.9,9,3.3l0.5-0.1c7.4-1.6,41.2-14.5,65.2-37.3
			c9.9-9.4,32.5-33.1,27.1-50c-1.4-4.3-4.3-6.5-6.6-6.9C104.6,25.3,102.9,25.4,101.2,25.8z"/>
	</g>
	<path class="st10" d="M16.4,111.3c13.6-8.6,37.9-25.9,49.4-42.8S91.1,25,107.2,27.2c7.1,1,19.5,19.5-20.4,57.3
		c-24.1,22.8-58.9,36.2-65.9,37.4S6.1,117.7,16.4,111.3z"/>
	<path class="st8" d="M21.5,122.1l-0.5,0.1c-4.2,0.7-8.4-0.8-9.5-3.6c-0.5-1.4-0.6-4.2,4.8-7.6c17.1-10.7,39-27.6,49.3-42.7
		c1.8-2.7,3.6-5.5,5.6-8.5c9-14.1,19.3-30.1,30.9-32.6c1.7-0.4,3.4-0.4,5.1-0.2c2.4,0.4,5.5,2.7,7,7.2c1.1,3.6,1.6,9.8-2.6,19.1
		c-4.4,9.5-12.6,20-24.6,31.4C62.9,107.5,29,120.5,21.5,122.1z M102.2,27.7c-11.4,2.5-21.6,18.4-30.6,32.4c-1.9,3-3.8,5.9-5.6,8.6
		c-10.3,15.2-32.3,32.1-49.4,42.8c-3.8,2.4-5.5,4.9-4.6,7c0.9,2.4,5,3.9,9,3.3l0.5-0.1c7.4-1.6,41.2-14.5,65.2-37.3
		c9.9-9.4,32.5-33.1,27.1-50c-1.4-4.3-4.3-6.6-6.6-6.9C105.5,27.2,103.8,27.3,102.2,27.7z"/>
</g>
<g>
	<path class="st3" d="M56.9,104.5c-0.5-0.9-1.6-1.5-2.6-1.4l-6,0.4c-0.1,0-0.3,0-0.4,0c-1.7,0.3-2.7,2.9-2.7,6.2
		c-0.3-1-0.9-1.8-1.6-1.7l0,0l-4.6,0.4h-0.2c-0.7,0.1-1.3,1.3-1.3,2.6H37c-0.6-3.4-2.3-5.7-4.1-5.4l-6,0.2c-0.1,0-0.3,0-0.4,0
		c-2.1,0.3-3.5,4-3,8.4c0.1,1.9,0.6,3.8,1.7,5.4c4.2-1,8.2-2.5,12.2-4.3c0.1-0.8,0.1-1.6,0-2.4h0.4c0.1,0.6,0.4,1.3,0.9,1.8
		C45,111.8,51,108.3,56.9,104.5z"/>
	<path class="st11" d="M60.6,110.6c-0.5-4.2-2.6-7.2-4.6-6.9l-6.4,0.5l2.2,15.5l6.3-0.7C60,118.4,61.2,114.6,60.6,110.6z"/>
	<path class="st12" d="M58.1,119L58.1,119l-6.3,0.7c-0.1,0-0.2-0.1-0.3-0.2l-2.1-15.4c0-0.1,0-0.1,0-0.2c0,0,0.1-0.1,0.2-0.1
		l6.4-0.5c0.6-0.1,1.4,0.1,1.9,0.5c1.5,1,2.6,3.6,3,6.6C61.4,114.8,60.3,118.6,58.1,119L58.1,119z M51.9,119.4l6.1-0.7
		c1.9-0.4,2.9-4,2.3-8.1c-0.4-2.8-1.5-5.2-2.8-6.3c-0.4-0.3-0.9-0.5-1.5-0.4l-6.2,0.5L51.9,119.4z"/>
	<path class="st13" d="M54.3,111.2c0.6,4.3-0.5,8.1-2.6,8.5s-4.2-2.7-4.7-7c-0.5-4.3,0.5-8.1,2.6-8.5
		C51.7,103.7,53.6,106.9,54.3,111.2z"/>
	<path class="st14" d="M51.8,119.9L51.8,119.9c-0.6,0.1-1.4-0.1-1.9-0.5c-1.6-1-2.7-3.7-3.1-6.7c-0.6-4.4,0.6-8.3,2.8-8.8
		c0.6-0.1,1.4,0.1,1.9,0.5c1.6,1,2.7,3.7,3.1,6.7C55.1,115.6,54,119.5,51.8,119.9z M49.6,104.4c-1.9,0.4-2.9,4.1-2.4,8.2
		c0.4,2.9,1.6,5.4,2.9,6.4c0.4,0.3,0.9,0.5,1.5,0.4l0.1,0.2v-0.2c1.9-0.4,2.9-4.1,2.4-8.2c-0.4-2.9-1.6-5.4-2.9-6.4
		C50.7,104.5,50.1,104.3,49.6,104.4z"/>
	<path class="st15" d="M51.6,111.6c0.2,1.7-0.2,3.2-1,3.4c-0.8,0.1-1.7-1-1.9-2.7c-0.2-1.7,0.2-3.1,1-3.4
		C50.5,108.7,51.2,109.9,51.6,111.6z"/>
	<path class="st8" d="M50.5,115.3L50.5,115.3c-0.3,0-0.6,0-0.8-0.2c-0.7-0.7-1.3-1.7-1.4-2.7c-0.2-1.9,0.3-3.5,1.3-3.7
		c0.3-0.1,0.6,0,0.8,0.2c0.7,0.7,1.3,1.7,1.3,2.7C52,113.4,51.4,115.1,50.5,115.3z M49.7,109.1c-0.6,0.1-1,1.5-0.8,3
		c0,0.9,0.4,1.8,1,2.4c0.1,0.1,0.3,0.1,0.5,0.1l0.1,0.2v-0.2c0.5-0.1,1-1.4,0.8-3c0-0.9-0.4-1.8-1-2.4
		C50.1,109.1,49.9,109.1,49.7,109.1z"/>
	<path class="st13" d="M49.9,111.2L49.9,111.2l-5.8,0.5l0.2,1.9l5.8-0.5l0,0c0.2,0,0.4-0.5,0.3-1C50.3,111.5,50.1,111.2,49.9,111.2z
		"/>
	<path class="st14" d="M50.1,113.4L50.1,113.4l-5.8,0.5c-0.1,0-0.1,0-0.2-0.1c-0.1,0-0.1-0.1-0.1-0.2l-0.2-1.9
		c0-0.1,0.1-0.2,0.2-0.3l0,0l5.8-0.5c0.4,0,0.7,0.4,0.8,1C50.7,112.5,50.5,113.2,50.1,113.4L50.1,113.4L50.1,113.4z M50,112.9
		L50,112.9c0.1-0.2,0.2-0.5,0.1-0.7c0-0.4-0.2-0.6-0.2-0.6l-5.6,0.4l0.1,1.4L50,112.9L50,112.9z"/>
	<path class="st10" d="M43.9,112.2c0,0.5-0.1,0.9-0.3,1c-0.2,0.1-0.5-0.3-0.5-0.8c0-0.5,0.1-0.9,0.3-1
		C43.6,111.3,43.8,111.7,43.9,112.2z"/>
	<path class="st16" d="M43.6,113.5L43.6,113.5c-0.1,0-0.3,0-0.4-0.1c-0.3-0.2-0.4-0.6-0.4-0.9c0-0.5,0.1-1.2,0.5-1.3
		c0.1,0,0.3,0,0.4,0.1c0.3,0.2,0.4,0.6,0.4,0.9C44.2,112.8,44,113.4,43.6,113.5z M43.4,111.6c-0.1,0.2-0.2,0.5-0.1,0.7
		c0,0.2,0.1,0.4,0.2,0.6c0.1-0.2,0.2-0.5,0.1-0.7C43.6,111.8,43.5,111.6,43.4,111.6z"/>
	<path class="st17" d="M44.3,109.1L44.3,109.1l-4.7,0.4l0.6,6.6l4.7-0.4l0,0c0.8-0.1,1.4-1.8,1.3-3.6S45.2,109,44.3,109.1z"/>
	<path class="st8" d="M45.1,115.9L45.1,115.9l-4.7,0.4c-0.1,0-0.2-0.1-0.3-0.2l0,0l-0.6-6.6c0-0.1,0-0.1,0-0.2s0.1-0.1,0.2-0.1
		l4.7-0.4l0,0c0.3,0,0.6,0.1,0.8,0.3c0.7,0.8,1.3,1.9,1.3,2.9C46.6,114,46,115.7,45.1,115.9L45.1,115.9L45.1,115.9z M45,115.4
		L45,115.4c0.7-0.1,1.3-1.5,1-3.2c0-0.9-0.4-1.9-1-2.6c-0.1-0.1-0.3-0.2-0.5-0.2l0,0l-4.4,0.4l0.5,6.1L45,115.4L45,115.4z"/>
	<path class="st10" d="M41.5,112.5c0.2,1.8-0.3,3.5-1.3,3.6c-0.9,0.1-1.8-1.2-1.9-3c-0.1-1.9,0.3-3.5,1.3-3.6
		C40.6,109.4,41.4,110.7,41.5,112.5z"/>
	<path class="st8" d="M40.4,116.3L40.4,116.3c-0.4,0-0.7,0-0.9-0.3c-0.8-0.8-1.3-1.9-1.3-3c-0.2-2,0.4-3.6,1.4-3.9h0.1
		c0.3,0,0.6,0,0.9,0.2c0.8,0.8,1.3,1.9,1.3,3C42,114.4,41.4,116.1,40.4,116.3z M39.6,109.7c-0.6,0.1-1.3,1.5-1,3.2
		c0,0.9,0.4,1.9,1,2.6c0.1,0.1,0.3,0.2,0.5,0.2l0.1,0.2v-0.2c0.6-0.1,1.2-1.5,0.9-3.2c0-0.9-0.4-1.9-1-2.6
		C40,109.7,39.8,109.7,39.6,109.7L39.6,109.7z"/>
	<path class="st10" d="M40.1,112.6c0.1,0.7-0.2,1.3-0.5,1.4c-0.3,0.1-0.7-0.4-0.8-1.2c-0.1-0.7,0.2-1.3,0.5-1.4
		C39.6,111.4,40,112,40.1,112.6z"/>
	<path class="st16" d="M39.9,114.3L39.9,114.3c-0.2,0-0.4,0-0.5-0.1c-0.3-0.3-0.5-0.7-0.5-1.3c-0.1-0.8,0.2-1.5,0.7-1.7
		c0.2,0,0.4,0,0.5,0.1c0.3,0.3,0.5,0.7,0.5,1.3C40.8,113.5,40.4,114.2,39.9,114.3z M39.6,111.8c-0.2,0-0.4,0.5-0.3,1
		c0,0.3,0.1,0.6,0.4,0.8h0.1l0.1,0.2l-0.1-0.2c0.2,0,0.4-0.4,0.3-1c0-0.3-0.1-0.6-0.3-0.8C39.7,111.8,39.7,111.8,39.6,111.8
		L39.6,111.8z"/>
	<path class="st13" d="M39.6,111.9L39.6,111.9l-5.8,0.5l0.2,1.9l5.8-0.5l0,0c0.2,0,0.4-0.5,0.3-1C40,112.2,39.8,111.9,39.6,111.9z"
		/>
	<path class="st14" d="M39.8,114L39.8,114l-5.8,0.5c-0.1,0-0.1,0-0.2-0.1c0,0-0.1-0.1-0.1-0.2l-0.2-1.9c0-0.1,0.1-0.2,0.2-0.3l0,0
		l5.8-0.5c0.1,0,0.3,0,0.4,0.1c0.2,0.2,0.4,0.6,0.4,0.9C40.4,113.3,40.2,113.9,39.8,114L39.8,114z M39.7,113.6L39.7,113.6
		c0.1-0.2,0.2-0.5,0.1-0.7c0-0.2-0.1-0.4-0.2-0.6l-5.6,0.5l0.1,1.4L39.7,113.6L39.7,113.6z"/>
	<path class="st10" d="M34.4,113.3c0,0.5-0.1,0.9-0.3,1c-0.2,0.1-0.5-0.3-0.5-0.8c0-0.5,0.1-0.9,0.3-1S34.4,112.8,34.4,113.3z"/>
	<path class="st16" d="M34.1,114.5L34.1,114.5c-0.1,0-0.3,0-0.4-0.1c-0.3-0.3-0.4-0.6-0.4-0.9c0-0.5,0.1-1.2,0.5-1.3
		c0.1,0,0.3,0,0.4,0.1c0.3,0.2,0.4,0.6,0.4,0.9C34.7,113.8,34.5,114.4,34.1,114.5z M33.8,112.6c-0.1,0.2-0.2,0.5-0.1,0.7
		c0,0.2,0.1,0.4,0.2,0.6c0.1-0.2,0.2-0.5,0.1-0.7C34.1,112.9,34,112.6,33.8,112.6L33.8,112.6z"/>
	<path class="st11" d="M37.8,113.8c-0.3-4.2-2.3-7.3-4.3-7.1l-6.4,0.2l1.4,15.5l6.4-0.4C36.8,121.7,38.1,118,37.8,113.8z"/>
	<path class="st12" d="M35,122.2L35,122.2L35,122.2l-6.5,0.4c-0.1,0-0.2-0.1-0.3-0.2l-1.4-15.5c0-0.1,0-0.1,0.1-0.2
		c0,0,0.1-0.1,0.2-0.1l6.4-0.2c0.6-0.1,1.4,0.2,1.8,0.6c1.5,1.2,2.5,3.8,2.7,6.7C38.5,118,37.1,121.8,35,122.2z M28.7,122.2l6.1-0.4
		l0,0c1.8-0.4,3-4,2.7-7.9c-0.2-2.8-1.3-5.3-2.5-6.4c-0.4-0.4-0.9-0.5-1.5-0.5l-6.2,0.2L28.7,122.2z"/>
	<path class="st13" d="M31.4,114.1c0.3,4.3-1,8.1-3,8.4s-4-2.9-4.4-7.2c-0.4-4.3,1-8.1,3-8.4S31.1,109.7,31.4,114.1z"/>
	<path class="st14" d="M28.6,122.6h-0.1c-0.6,0.1-1.4-0.1-1.9-0.6c-1.5-1.2-2.5-3.8-2.8-6.9c-0.4-4.4,1-8.2,3.1-8.6H27
		c0.6-0.1,1.4,0.1,1.9,0.6c1.5,1.2,2.5,3.8,2.8,6.9C32.1,118.4,30.7,122.2,28.6,122.6z M27,107.1c-1.9,0.4-3,4-2.7,8.1
		c0.2,2.9,1.3,5.4,2.6,6.6c0.4,0.3,0.9,0.5,1.5,0.4h0.1c1.9-0.4,3-4,2.7-8.1c-0.2-2.9-1.3-5.4-2.6-6.6C28.2,107.2,27.7,107,27,107.1
		L27,107.1z"/>
	<path class="st15" d="M28.8,114.4c0.2,1.9-0.4,3.5-1.3,3.6c-0.8,0.1-1.7-1.3-1.9-3.1c-0.2-1.9,0.4-3.5,1.3-3.6
		S28.6,112.5,28.8,114.4z"/>
	<path class="st8" d="M27.7,118.2L27.7,118.2c-0.4,0-0.7-0.1-0.9-0.3c-0.8-0.8-1.3-1.9-1.3-3c-0.2-2,0.5-3.7,1.6-3.9
		c0.3,0,0.6,0.1,0.9,0.3c0.7,0.8,1.3,1.9,1.3,3C29.2,116.3,28.6,118,27.7,118.2z M26.9,111.5c-0.6,0.1-1.3,1.5-1,3.4
		c0,1,0.4,2,1,2.7c0.1,0.1,0.3,0.2,0.5,0.2l0,0c0.6-0.1,1.3-1.5,1-3.2c0-1-0.4-2-1-2.7C27.4,111.6,27.1,111.5,26.9,111.5L26.9,111.5
		z"/>
</g>
<g>
	<path class="st3" d="M115.4,49.9c-0.6-1.2-1.9-1.8-3.2-1.8l-7.5,0.6c-0.2,0-0.3,0-0.5,0c-2.1,0.4-3.5,3.7-3.5,7.8
		c-0.4-1.4-1.2-2.2-2-2.2l0,0l-5.8,0.5h-0.1c-0.9,0.2-1.5,1.6-1.6,3.2h-0.6c-0.8-4.2-2.9-7.1-5-6.8L78,51.5c-0.2,0-0.3,0-0.5,0
		c-2.6,0.4-4.3,5-3.9,10.5c0.1,2.4,0.8,4.7,2.1,6.9c5.2-1.4,10.3-3.1,15.2-5.3c0.1-0.9,0.1-2,0-2.9h0.5c0.2,0.8,0.5,1.7,1.2,2.3
		C100.5,59,108.1,54.7,115.4,49.9z"/>
	<path class="st11" d="M120.1,57.4c-0.7-5.2-3.4-9.1-5.9-8.6l-8.1,0.6l2.7,19.4l7.9-0.9C119.3,67.3,120.8,62.7,120.1,57.4z"/>
	<path class="st12" d="M116.9,68.2L116.9,68.2l-7.9,0.9c-0.2,0-0.3-0.1-0.3-0.3L106,49.5c0-0.1,0-0.2,0-0.2c0.1-0.1,0.1-0.1,0.2-0.1
		l8.1-0.6c0.8-0.1,1.7,0.1,2.3,0.6c1.9,1.4,3.4,4.5,3.9,8.3C121.1,62.9,119.7,67.6,116.9,68.2L116.9,68.2z M109.2,68.4l7.6-0.9
		c2.3-0.5,3.7-5,2.9-10.1c-0.5-3.6-1.9-6.6-3.6-7.9c-0.5-0.4-1.2-0.6-1.9-0.5l-7.8,0.6L109.2,68.4z"/>
	<path class="st13" d="M112.1,58.3c0.7,5.3-0.7,10.2-3.2,10.7c-2.5,0.5-5.2-3.5-6-8.8s0.7-10.2,3.2-10.7
		C108.8,48.9,111.4,52.9,112.1,58.3z"/>
	<path class="st14" d="M109,69.2L109,69.2c-0.8,0.1-1.7-0.1-2.4-0.6c-1.9-1.4-3.5-4.6-4-8.5c-0.7-5.6,0.7-10.4,3.5-11
		c0.8-0.1,1.7,0.1,2.4,0.6c1.9,1.4,3.5,4.6,4,8.5C113.2,63.7,111.7,68.5,109,69.2z M106.2,49.8c-2.4,0.5-3.8,5.1-3,10.3
		c0.5,3.7,2,6.8,3.7,8.1c0.5,0.4,1.2,0.6,1.9,0.5l0.1,0.3v-0.4c2.3-0.5,3.7-5.1,2.9-10.3c-0.5-3.7-2-6.8-3.7-8.1
		C107.7,49.8,107,49.7,106.2,49.8z"/>
	<path class="st15" d="M108.7,58.8c0.3,2.1-0.3,4-1.4,4.2s-2.1-1.4-2.3-3.5c-0.3-2.2,0.3-4,1.4-4.2C107.4,55,108.4,56.7,108.7,58.8z
		"/>
	<path class="st8" d="M107.5,63.3L107.5,63.3c-0.4,0.1-0.7,0-1-0.3c-0.9-0.9-1.6-2.1-1.7-3.5c-0.3-2.3,0.3-4.3,1.6-4.5
		c0.4-0.1,0.8,0,1.2,0.3c0.9,0.9,1.6,2.1,1.7,3.5C109.3,61.1,108.7,63.1,107.5,63.3z M106.5,55.7c-0.7,0.2-1.4,1.8-1,3.9
		c0.1,1.2,0.5,2.2,1.4,3c0.2,0.1,0.4,0.2,0.6,0.2l0.1,0.3l-0.1-0.3c0.7-0.2,1.4-1.8,1-3.9c-0.1-1.2-0.5-2.2-1.4-3
		C106.9,55.7,106.7,55.7,106.5,55.7z"/>
	<path class="st13" d="M106.6,58.3L106.6,58.3l-7.2,0.6l0.2,2.3l7.2-0.6l0,0c0.3,0,0.5-0.6,0.4-1.4
		C107.2,58.7,106.9,58.3,106.6,58.3z"/>
	<path class="st14" d="M106.9,61L106.9,61l-7.2,0.6c-0.1,0-0.2,0-0.2-0.1c-0.1-0.1-0.1-0.1-0.1-0.2L99.1,59c0-0.2,0.1-0.3,0.3-0.3
		l0,0l7.2-0.6c0.5,0,0.9,0.5,0.9,1.4C107.6,60.1,107.4,60.8,106.9,61L106.9,61L106.9,61z M106.8,60.4L106.8,60.4
		c0.2-0.3,0.2-0.6,0.2-0.9c0-0.5-0.2-0.8-0.3-0.8l-6.9,0.6l0.1,1.7L106.8,60.4L106.8,60.4z"/>
	<path class="st10" d="M99.1,59.5c0,0.6-0.1,1.3-0.4,1.4s-0.6-0.4-0.6-1s0.1-1.3,0.4-1.4C98.8,58.4,99.1,58.9,99.1,59.5z"/>
	<path class="st16" d="M98.8,61.1L98.8,61.1c-0.2,0-0.3,0-0.5-0.1c-0.3-0.3-0.5-0.7-0.5-1.3c0-0.7,0.1-1.5,0.7-1.6
		c0.2,0,0.4,0,0.5,0.1c0.3,0.3,0.5,0.7,0.5,1.3C99.5,60.3,99.3,61,98.8,61.1z M98.5,58.8c-0.1,0.3-0.2,0.6-0.2,0.9s0.1,0.6,0.3,0.8
		c0.2-0.3,0.2-0.6,0.2-0.9C98.8,59.1,98.6,58.8,98.5,58.8z"/>
	<path class="st17" d="M99.7,55.7L99.7,55.7l-6,0.5l0.8,8.3l5.9-0.5l0,0c1-0.2,1.8-2.2,1.6-4.4C101.8,57.1,100.8,55.5,99.7,55.7z"/>
	<path class="st8" d="M100.6,64.2L100.6,64.2l-5.9,0.5c-0.2,0-0.3-0.1-0.3-0.3l0,0l-0.8-8.3c0-0.1,0-0.2,0-0.2
		c0.1-0.1,0.1-0.1,0.2-0.1l6-0.5l0,0c0.4,0,0.7,0.1,1,0.4c0.9,1,1.6,2.3,1.6,3.7C102.6,61.8,101.8,63.9,100.6,64.2L100.6,64.2
		L100.6,64.2z M100.5,63.6L100.5,63.6c0.8-0.2,1.6-1.9,1.3-4.1c0-1.3-0.5-2.4-1.4-3.2c-0.2-0.2-0.4-0.2-0.6-0.2l0,0l-5.6,0.5
		l0.7,7.6L100.5,63.6L100.5,63.6z"/>
	<path class="st10" d="M96.2,59.9c0.2,2.3-0.4,4.3-1.6,4.5c-1,0.2-2.2-1.5-2.4-3.8c-0.2-2.3,0.4-4.3,1.6-4.5
		C94.8,56,96,57.6,96.2,59.9z"/>
	<path class="st8" d="M94.7,64.7L94.7,64.7c-0.5,0.1-0.8-0.1-1.2-0.3c-1-1-1.6-2.3-1.7-3.8c-0.3-2.4,0.5-4.5,1.7-4.8h0.2
		c0.4-0.1,0.8,0.1,1.2,0.3c1,1,1.6,2.3,1.7,3.8C96.7,62.4,96,64.5,94.7,64.7z M93.8,56.4c-0.8,0.2-1.5,1.9-1.4,4.1
		c0,1.3,0.5,2.4,1.4,3.4c0.2,0.1,0.4,0.2,0.6,0.2l0.1,0.3V64c0.8-0.2,1.5-1.9,1.3-4.1c0-1.3-0.5-2.4-1.4-3.4
		C94.3,56.5,94.1,56.4,93.8,56.4L93.8,56.4z"/>
	<path class="st10" d="M94.4,60.2c0.1,0.8-0.2,1.6-0.6,1.7c-0.4,0.1-0.9-0.5-1-1.5c-0.1-0.8,0.2-1.6,0.7-1.7
		C93.9,58.6,94.3,59.3,94.4,60.2z"/>
	<path class="st16" d="M94.2,62.1L94.2,62.1c-0.2,0-0.4,0-0.6-0.2c-0.4-0.4-0.6-0.9-0.7-1.6c-0.1-1,0.3-1.9,0.9-2
		c0.2,0,0.5,0,0.7,0.2c0.4,0.4,0.6,0.9,0.7,1.5C95.2,61.1,94.8,62,94.2,62.1z M93.8,59c-0.2,0-0.5,0.6-0.4,1.4c0,0.4,0.2,0.8,0.5,1
		c0.1,0,0.1,0,0.2,0l0.1,0.3l-0.1-0.3c0.2,0,0.5-0.6,0.4-1.4c0-0.4-0.2-0.8-0.4-1C93.9,59,93.9,59,93.8,59L93.8,59z"/>
	<path class="st13" d="M93.8,59.2L93.8,59.2l-7.2,0.6l0.2,2.3l7.2-0.6l0,0c0.3,0,0.5-0.6,0.4-1.4C94.3,59.4,94.1,59.2,93.8,59.2z"/>
	<path class="st14" d="M94,61.8L94,61.8l-7.2,0.6c-0.1,0-0.2,0-0.2-0.1l-0.1-0.1l-0.2-2.3c0-0.2,0.1-0.3,0.3-0.3l0,0l7.2-0.6
		c0.2,0,0.3,0,0.5,0.2c0.3,0.3,0.5,0.7,0.5,1.3C94.7,61,94.6,61.7,94,61.8L94,61.8z M93.9,61.2L93.9,61.2c0.2-0.3,0.2-0.6,0.2-0.9
		c0-0.3-0.1-0.6-0.3-0.8l-6.9,0.7l0.1,1.7L93.9,61.2L93.9,61.2z"/>
	<path class="st10" d="M87.2,60.9c0.1,0.6-0.1,1.3-0.4,1.4s-0.6-0.4-0.6-1c-0.1-0.6,0.1-1.3,0.4-1.4C86.9,59.7,87.2,60.3,87.2,60.9z
		"/>
	<path class="st16" d="M86.8,62.5L86.8,62.5c-0.2,0-0.3,0-0.5-0.1c-0.3-0.3-0.5-0.7-0.5-1.3c-0.1-0.7,0.1-1.5,0.7-1.6
		c0.2,0,0.4,0,0.5,0.1c0.3,0.3,0.5,0.7,0.5,1.3C87.6,61.6,87.4,62.4,86.8,62.5z M86.5,60.2c-0.2,0.3-0.2,0.6-0.2,0.9
		s0.1,0.6,0.3,0.8c0.2-0.3,0.2-0.6,0.2-0.9C86.8,60.5,86.7,60.2,86.5,60.2L86.5,60.2z"/>
	<path class="st11" d="M91.5,61.6c-0.4-5.2-2.8-9.2-5.3-8.9l-8.1,0.1l1.7,19.5l8-0.5C90.3,71.4,91.9,66.9,91.5,61.6z"/>
	<path class="st12" d="M87.9,72.1L87.9,72.1h-0.1l-8,0.5c-0.2,0-0.3-0.1-0.3-0.3l-1.8-19.5c0-0.1,0-0.2,0.1-0.2
		c0.1-0.1,0.1-0.1,0.2-0.1l8.1-0.2c0.8-0.1,1.7,0.2,2.3,0.7c1.8,1.5,3.1,4.7,3.5,8.5C92.2,66.9,90.5,71.5,87.9,72.1z M80.1,72
		l7.6-0.5l0,0c2.3-0.5,3.8-4.9,3.4-9.8c-0.3-3.6-1.6-6.7-3.1-8c-0.5-0.4-1.2-0.7-1.9-0.6l-7.8,0.2L80.1,72z"/>
	<path class="st13" d="M83.5,61.9c0.4,5.4-1.4,10.1-3.8,10.5c-2.5,0.4-5-3.7-5.4-9.1s1.3-10.1,3.8-10.5
		C80.7,52.4,83.1,56.5,83.5,61.9z"/>
	<path class="st14" d="M79.9,72.6h-0.2c-0.8,0.1-1.7-0.2-2.3-0.7c-1.8-1.5-3.1-4.7-3.5-8.7c-0.4-5.4,1.4-10.2,4-10.8h0.1
		c0.8-0.1,1.7,0.2,2.3,0.7c1.8,1.5,3.1,4.8,3.5,8.7C84.3,67.3,82.6,72.1,79.9,72.6z M78,53.1c-2.3,0.5-3.9,5-3.5,10.1
		c0.3,3.7,1.6,6.9,3.2,8.2c0.5,0.4,1.2,0.6,1.9,0.6h0.1c2.3-0.5,3.9-5,3.5-10.1c-0.3-3.7-1.6-6.9-3.2-8.2c-0.5-0.4-1.2-0.6-1.9-0.6
		C78.1,53.1,78,53.1,78,53.1z"/>
	<path class="st15" d="M80.3,62.3c0.2,2.3-0.5,4.3-1.7,4.5c-1.2,0.2-2.2-1.6-2.3-4c-0.2-2.4,0.5-4.3,1.7-4.5
		C79.1,58.1,80.1,59.9,80.3,62.3z"/>
	<path class="st8" d="M78.7,67.1L78.7,67.1c-0.5,0-0.9-0.1-1.3-0.3c-0.9-1-1.6-2.4-1.6-3.8c-0.2-2.5,0.6-4.6,1.9-4.8
		c0.4,0,0.8,0.1,1.2,0.3c0.9,1,1.6,2.4,1.6,3.8C80.8,64.7,79.9,66.9,78.7,67.1z M78,58.7c-0.8,0.2-1.6,1.9-1.4,4.1
		c0,1.3,0.5,2.4,1.4,3.4c0.2,0.2,0.4,0.2,0.6,0.2l0,0c0.8-0.2,1.5-1.9,1.4-4.1c0-1.3-0.5-2.4-1.4-3.4C78.4,58.8,78.2,58.7,78,58.7
		L78,58.7z"/>
</g>
</svg>
