<svg class="S" xmlns="http://www.w3.org/2000/svg" viewBox="0 0 126 126"><style>.cls-13{fill:#fff}.cls-8{fill:#ffbf9d}.cls-9{fill:#1a2e35}.cls-10{fill:#ff9a6c}.cls-11{fill:#ff735d}.cls-12{opacity:.6}.cls-14{fill:#822f20}.cls-15{fill:#375a64}.cls-16{fill:#e1e1e1}.cls-17{opacity:.3}</style><clipPath id="clip-path"><circle cx="63" cy="63" r="60" fill="none"/></clipPath><g clip-path="url(#clip-path)"><path fill="#d7d8dd" d="M-.22 0h124.94v124.6H-.22z"/><path fill="#ececec" d="M93.79-69.13C87.08-64.83 82.41-57.69 75.32-54 68-50.25 59.22-50.82 51-50.21S33.51-47 29.66-39.64c-4.18 8-16.38 6.67-21.3 14.2-5.68 8.68-3.52 20.2-10 28.28C-6.06 8.31-5.85 16-5.89 23c-.18 31.09-7.55 61 1.71 90.64l24.36-30-12.8-26.53L20 35.8l31.2-14.92 7.8-10.1 6.54-6.42L82.9-18.89 104-40.43l11.45-25.24c.54 0 19.42-5.69 19.42-5.69C120.69-74.71 106-77 93.79-69.13z"/><path d="M77.63 31.31s-1-2.62-7-3.34l-3.22-7.18L62.62 7.3 59 10.78l.69 2c.75 2.15-.16 10.37 2 13.68S65 31.31 65 31.31l9.48 8.85 3.12-5.27z" class="cls-8"/><path d="M92 14.81a5.83 5.83 0 00-2.39-3.7A8.91 8.91 0 0084.1 9c-2.1 0-3.31 0-4.93 1.28a7.3 7.3 0 00-2 2.81c-1.08 2.43-.92 5.2-.59 7.84s.89 5.13 3.05 6.68l9.08-1.4c2-.75 2.67-3 3.24-5.09a14.6 14.6 0 00.05-6.31z" class="cls-9"/><path d="M77 16.51c.14-2 3.9-5 6.39-4.81l1.51.49a6.4 6.4 0 015.29 6l.11 2.15.37 13.28a65.46 65.46 0 01-9 1.42l-.32-5.65a5.38 5.38 0 01-4.25-4.65 40.14 40.14 0 01-.1-8.23z" class="cls-8"/><path d="M81.34 29.39A11 11 0 0087 27.82s-1.32 2.94-5.63 2.61z" class="cls-10"/><path d="M89.34 21.85a1.24 1.24 0 011.84-1 1.72 1.72 0 01.68 1.73 1.92 1.92 0 01-2.69 1.79s.09-1.46.17-2.52z" class="cls-8"/><path d="M90 23.43l.12.07a.44.44 0 00.33 0 1.08 1.08 0 00.58-1 1.51 1.51 0 00-.08-.65.51.51 0 00-.32-.36.23.23 0 00-.27.1v.13a.16.16 0 010-.16.29.29 0 01.11-.15.4.4 0 01.25 0 .63.63 0 01.44.43 1.54 1.54 0 01.11.72 1.17 1.17 0 01-.73 1.07.47.47 0 01-.4-.1.27.27 0 01-.14-.1z" class="cls-10"/><path d="M79.15 113s17.31 10.78 17.43 10.48 1.42-7.12 1.42-7.12l-11.43-11S78.72 110 79.15 113z" class="cls-8"/><path d="M93.82 122.54l.42.26s-1.39 8.8-.08 9.68l8.34-14.14-4.82-2.59a9.34 9.34 0 01-3.86 6.79z" class="cls-11"/><g class="cls-12"><path d="M98.34 118.07a.67.67 0 01.9 0 .65.65 0 010 .89.71.71 0 01-1 0 .67.67 0 01.08-.92" class="cls-13"/></g><g class="cls-12"><path d="M102.5 118.34l-1.16-.63-7.57 13.79s-.1.79.39 1z" class="cls-13"/></g><path d="M94.25 122.87c.07 0 .31-.29.73-.5s.82-.22.83-.3-.45-.21-1 .05-.63.73-.56.75zM94 124.71c.06.06.35-.17.78-.23s.78 0 .82 0-.33-.35-.86-.26-.81.45-.74.49z" class="cls-9"/><path d="M16.75 67s18.14-7.76 20.18-8.78c0 0 3.64 3.06 3.35 6.55v2.63l-21.66 5.67z" class="cls-8"/><path d="M17.82 66.09l-.44.21s-6.62-6-8.07-5.35l7.3 14.71 4.8-2.66a9.39 9.39 0 01-3.59-6.91z" class="cls-11"/><g class="cls-12"><path d="M19.1 72.32a.66.66 0 01-.48.75.64.64 0 01-.75-.46.7.7 0 01.51-.8.66.66 0 01.73.57" class="cls-13"/></g><g class="cls-12"><path d="M16.61 75.66l1.15-.66-7.41-13.84s-.61-.52-1-.21z" class="cls-13"/></g><path d="M17.31 66.27c-.07 0 .08.42 0 .89s-.26.8-.2.85.42-.26.48-.83-.22-.95-.28-.91zM15.91 65.05c-.08 0 0 .39-.23.78s-.47.63-.43.7.47-.09.69-.59.06-.94-.03-.89zM13.63 65.09c0 .07.42 0 .73-.39s.29-.79.21-.79-.18.31-.43.62-.54.47-.51.56z" class="cls-9"/><path d="M79.53 112.64a.73.73 0 01-1 0 24.28 24.28 0 01-5.08-5.88C71.8 103.71 71.69 96 72 90.78c.18-2.92 2.12-10.28 2.12-10.28l.81-1.76 5.63-15 10.84 3.72s-.08 6.33.37 8.21a11.52 11.52 0 01-.94 6.9 9 9 0 01-3.2 3.1l-1.53 5A19.14 19.14 0 0085 94c-.5 2.07-.93 3.42-.93 3.42s-.87 3-.87 3.25l4.09 4.49-7.79 7.52" class="cls-14"/><path d="M74.91 55.57l1.48-2.48v-2.18l16.09.37-1.65 11.42-15.92-7.13z" class="cls-8"/><path d="M46.27 68.68c1.25.39 11.82 4.55 13.23 5.13 1 .39 2.92 1.31 2.92 1.31s5.36 2.76 8.12 4 3.11 2.16 5.87 1.9 4.58 0 7-2.93a15.43 15.43 0 003.19-9.84v-2.42l-15.11-5.12s-1.73.61-1.64 1.65l-2.41-1.11a1.25 1.25 0 00-.78-1.25l-14.83-5.72A16.31 16.31 0 0040 54.23a4.64 4.64 0 00-2.22 1.38 4.46 4.46 0 00-.87 2.62l3.36 9.17a3 3 0 002.56.36l.92-.41z" class="cls-14"/><path d="M69.88 62.29a58.14 58.14 0 01-3.3 14.93l-3.89-2c-.48-4.65 1.72-10.44 4.75-14z" class="cls-15"/><path d="M86.33 58.39a15 15 0 015 3.14L91.25 71l-16.12-6-3.64-4.3 3.09-5.07a32.16 32.16 0 0111.75 2.76z" class="cls-9"/><path d="M74.58 55.64l-1.71 2.81a30.36 30.36 0 0118.45 7.14l.05-4.06S85.83 56 74.58 55.64z" class="cls-15"/><path d="M82.72 61a5 5 0 00-1.81-.88 33.28 33.28 0 00-4.5-1.12 11.49 11.49 0 00-4.6.14 1.77 1.77 0 00-1 .6.88.88 0 00.36 1.17l.37-.17a2.09 2.09 0 011.29-.86 9 9 0 011.64.07c1.3.1 2 .31 3.23.47a14.47 14.47 0 012.59.66c.74.25 1.75.29 2.22.92z" class="cls-11"/><path d="M82.23 62.54s.2-.46.33-1 .08-1.1.13-1.1a1.68 1.68 0 010 1.14 1.74 1.74 0 01-.46.96zM84.13 63.69s.2-.47.33-1.06.08-1.09.13-1.1a1.71 1.71 0 010 1.14 1.73 1.73 0 01-.46 1.02z" class="cls-15"/><path d="M84.62 62.29s6 3.46 6.89 4.43l-.1 1.54-7-4.79a4.56 4.56 0 00.24-.93" class="cls-11"/><path d="M87.28 87.3a.36.36 0 110-.72c.68 0 2.49-2.44 2.89-4.16a15.33 15.33 0 00.16-5.13 12.62 12.62 0 00-.88-3.72c-.15-.46-.34-1-.56-1.66-.14-.42-.31-1-.48-1.61s-.41-1.45-.58-1.92a9 9 0 01-.39-2.3 18.82 18.82 0 01-7.83 6.32 17.47 17.47 0 01-11.14 0 .35.35 0 01-.23-.45.36.36 0 01.46-.23 16.76 16.76 0 0010.66 0c3.36-1.23 6.57-4.49 8.33-7.27a1.34 1.34 0 01.18-.28.37.37 0 01.49-.06.38.38 0 01.1.49 1.64 1.64 0 00-.14.22 6.19 6.19 0 00.2 3.32c.17.5.38 1.24.59 2s.33 1.18.47 1.58c.22.67.4 1.2.56 1.65a13.25 13.25 0 01.91 3.88 16 16 0 01-.17 5.38c-.4 1.69-2.34 4.67-3.6 4.67z" class="cls-16"/><path d="M44.32 56.82a1.72 1.72 0 01.07.41c0 .27.07.65.1 1.13a33.67 33.67 0 01.06 3.75 26.24 26.24 0 01-.42 3.73c-.09.47-.17.85-.24 1.11a2.61 2.61 0 01-.12.4 1.65 1.65 0 010-.42l.23-1.12a35.32 35.32 0 00.36-3.71c.07-1.45 0-2.78 0-3.73v-1.13a2.26 2.26 0 01-.04-.42zM86.1 90.67a13.59 13.59 0 01-13.24-4.87l.9-3.92a13.73 13.73 0 0013.72 4.4zM83.27 100.69a21.47 21.47 0 00-2.77.22 23.77 23.77 0 00-2.68.75 2.85 2.85 0 01.74-.38 9.23 9.23 0 011.91-.56 10 10 0 012-.14 2.89 2.89 0 01.8.11z" class="cls-15"/><path d="M83.23 100.63s-.42-.16-1.11-.4a11.11 11.11 0 00-2.77-.54 12.38 12.38 0 00-2.81.16c-.72.13-1.15.25-1.16.22s.1-.06.29-.12a7.62 7.62 0 01.84-.23 10.46 10.46 0 012.86-.22 9.35 9.35 0 012.79.61 7.9 7.9 0 01.8.35 1.34 1.34 0 01.27.17z" class="cls-15"/><path d="M89.23 65.11l2.22 9.19a4.7 4.7 0 001.06 2.34c1 1 2.66.84 4.06.63.82-.13 1.82-.4 2-1.21a2.09 2.09 0 00-.08-1l-1.63-7A2.8 2.8 0 0094.27 66a24.81 24.81 0 01-5-.88" class="cls-11"/><path d="M86.58 70.13v.76c-.05.49-.13 1.2-.3 2.07a14.25 14.25 0 01-.91 3 10.21 10.21 0 01-2.13 3.15 7.12 7.12 0 01-1.57 1.2 8.56 8.56 0 01-1.71.7 9.81 9.81 0 01-3.08.38 8.56 8.56 0 01-2.07-.29 3.71 3.71 0 01-.54-.18.61.61 0 01-.19-.08s.27.08.75.19a10.4 10.4 0 002 .23 10.19 10.19 0 003-.42A7.3 7.3 0 0083.07 79a10.21 10.21 0 002.1-3.09 15.33 15.33 0 00.94-2.93c.19-.85.29-1.56.36-2.05l.07-.56c.02-.18.03-.24.04-.24zM81.15 65.16s-.43-.44-1.17-1.1A13.73 13.73 0 0078.61 63a13.15 13.15 0 00-1.83-1.06 12.85 12.85 0 00-3.69-1.07c-1-.12-1.6-.11-1.6-.15h.43a11.13 11.13 0 011.18 0 11.56 11.56 0 013.76 1 12.88 12.88 0 011.85 1.08 12.34 12.34 0 011.36 1.2 9.28 9.28 0 01.81.86 2 2 0 01.27.3z" class="cls-15"/><path d="M82.78 64.6s-.51-.3-1.32-.77a24.15 24.15 0 00-3.31-1.59 24.58 24.58 0 00-3.5-1.09c-.92-.22-1.49-.32-1.49-.35a2.08 2.08 0 01.41 0c.26 0 .64.09 1.11.19a20.93 20.93 0 016.85 2.69c.4.26.72.47.93.63a2.77 2.77 0 01.32.29z" class="cls-15"/><path d="M69 70.49a.39.39 0 01-.35-.25 3 3 0 00-2.06-1.79 6.15 6.15 0 00-3 0 .37.37 0 01-.43-.28.36.36 0 01.29-.43 6.79 6.79 0 013.33 0A3.74 3.74 0 0169.33 70a.36.36 0 01-.23.46z" class="cls-16"/><path d="M95.62 67a2.11 2.11 0 00-.74-.18 24 24 0 01-5.52-1.5l.08.1a7.24 7.24 0 005.37 2.88 1.72 1.72 0 00.78-.1.71.71 0 00.44-.6.72.72 0 00-.41-.6zM43.91 67.31a7.32 7.32 0 00.51-8.91 46.64 46.64 0 01-.61 8.91M72.55 87.25s4-3.27 5.78-4.59 5-2.25 6-5.16c0 0-1.59 3.53-6.79 3.8a7.19 7.19 0 01-3.54-.49zM74.8 103c-.15.19-.31.43-.21.66a.46.46 0 00.57.19 1.46 1.46 0 00.53-.37 10.46 10.46 0 017.41-2.77 8.33 8.33 0 00-8.3 2.29z"/><path fill="#f6a714" d="M92.64 50.41s1.44-15.89 0-18.4c-.78-1.37-14.31 1.64-14.31 1.64a16.54 16.54 0 00-3.93 6.93c-.51 2.13 2 8.18 2 8.18v2.15l16 .89z"/><path d="M87.46 38.73a8.73 8.73 0 01-4.85-1.67A15.9 15.9 0 0078 34.74l.29.9a7.78 7.78 0 006.87 4.89c3 .08 6.24-2.9 6.8-5.79-1.27 1.43-2.61 3.9-4.5 3.99z"/><path d="M65.58 4.36l4.18 16.47 10.71 5.71A18.85 18.85 0 0192.64 32l-.17 1.28a8.49 8.49 0 01-7.41 6.28h-.41s-19.19-10.3-20.94-12.91-2.4-18-2.4-18z" class="cls-8"/><path d="M92.64 32l-.15-.13-.55-.5a9.25 9.25 0 00-.92-.77 14.82 14.82 0 00-1.3-.94 19.84 19.84 0 00-3.86-1.89c-.38-.15-.79-.26-1.2-.4s-.86-.23-1.3-.32a17.05 17.05 0 00-2.84-.39L73.6 23l-3.88-2.07c-1.18-4.69-2.21-8.81-3-11.77-.36-1.46-.65-2.63-.85-3.46l-.22-.93v-.24-.09a.73.73 0 010 .08l.07.24.26.93c.21.82.52 2 .9 3.45.76 2.95 1.81 7.06 3 11.75v-.06l3.88 2.07 6.83 3.65a17 17 0 012.87.41c.45.09.89.22 1.31.33s.83.25 1.21.41a19 19 0 013.86 1.94c.5.35 1 .65 1.31 1a11.93 11.93 0 01.9.79l.53.53.14.14z" class="cls-10"/><path d="M76.38 48.76v1.17a28.19 28.19 0 008.35-2 23.79 23.79 0 01-8.35.83z"/><path d="M61.31 8.67v.44c0 .3 0 .71.09 1.25.07 1.08.17 2.64.34 4.58s.37 4.23.75 6.77a25.09 25.09 0 00.83 3.91 4.47 4.47 0 00.41.95 4.62 4.62 0 00.72.75c.54.47 1.13.9 1.73 1.33 2.43 1.68 4.86 3.13 7.06 4.44s4.22 2.45 5.9 3.41l4 2.25 1.09.62.28.16.09.06h-.1l-.29-.15-1.11-.58c-1-.51-2.34-1.26-4-2.2s-3.71-2.08-5.93-3.38-4.63-2.75-7.07-4.44a19.27 19.27 0 01-1.75-1.34 4 4 0 01-.75-.79 4.83 4.83 0 01-.44-1 16.7 16.7 0 01-.5-2c-.13-.66-.23-1.31-.32-1.95-.37-2.54-.57-4.85-.72-6.78s-.23-3.51-.28-4.59V8.67z" class="cls-10"/></g></svg>
