<svg class="S" xmlns="http://www.w3.org/2000/svg" xml:space="preserve" viewBox="0 0 126 126"><path fill="#9B399C" d="M8 103V23h110v80H8z"/><path fill="#DD9E00" d="M11.7 26.7h102.5v12.1H11.7zm0 60.5h102.5v12.1H11.7z"/><path fill="#FFF" d="M11.7 26.7v72.5h102.5V26.7H11.7zM112.1 37h-48v-8.4h48V37zm-78.8 1.8h28.6v48.3H33.3V38.8zm-2.1 48.4h-5.9V38.8h5.9v48.4zm32.9-48.4h28.6v48.3H64.1V38.8zm30.7 0h5.9v48.3h-5.9V38.8zm8.1 0h9.2v48.3h-9.2V38.8zm-89-10.2h48V37H13.8v-8.4zm0 10.2h9.2v48.3h-9.2V38.8zm0 50.2H62v8.4H14V89zm50.2 8.4V89h48.1v8.4H64.1z"/></svg>
