<svg class="S" xmlns="http://www.w3.org/2000/svg" xml:space="preserve" id="Layer_1" x="0" y="0" enable-background="new 0 0 126 126" version="1.1" viewBox="0 0 126 126"><style>.st3{opacity:.2;fill:#878787}</style><radialGradient id="SVGID_1_" cx="49.847" cy="34.714" r="79.461" gradientTransform="matrix(1 0 0 1.0037 0 -.064)" gradientUnits="userSpaceOnUse"><stop offset="0" stop-color="#ffb854"/><stop offset=".434" stop-color="#ff5900"/><stop offset=".819" stop-color="#a33800"/><stop offset="1" stop-color="#421200"/></radialGradient><path fill="url(#SVGID_1_)" d="M109.8 79c0-.7.4-1.2 1.1-1.4 1.4-4.6 2.2-9.5 2.2-14.5 0-5.6-.9-11-2.7-16.1-.6-.2-1.1-.8-1.1-1.4 0-.3.1-.6.3-.8-4.8-12.1-14.2-22-26.1-27.3-.2.1-.4.2-.7.2-.7 0-1.2-.5-1.4-1.1C75.7 14.2 69.5 13 63 13c-7.9 0-15.3 1.8-22 5.1-.1.8-.7 1.4-1.5 1.4-.3 0-.5-.1-.8-.2-11.1 6.1-19.5 16.3-23.4 28.6.4.3.7.7.7 1.3 0 .8-.7 1.5-1.5 1.5-1 4-1.5 8.1-1.5 12.4 0 8.9 2.4 17.3 6.5 24.6.8 0 1.5.7 1.5 1.5 0 .2-.1.4-.2.6 7.2 11.4 18.9 19.6 32.5 22.3.3-.3.7-.4 1.1-.4.6 0 1.1.4 1.4.9 2.4.3 4.8.5 7.3.5 10.1 0 19.5-3 27.4-8.2 0-.8.7-1.5 1.5-1.5.2 0 .3 0 .5.1 8.1-5.9 14.3-14.1 17.8-23.6-.4-.3-.5-.6-.5-.9z"/><path d="M109.8 79v-.3c-2.2 0-4.3-.4-6.3-1.3C99.9 75 97.8 71 96 66.9c1-.9 2.1-1.8 3-2.7 5.5-5.4 9.2-11.3 11.4-16.9 0-.1-.1-.3-.1-.4-.3-.1-.5-.3-.7-.5-3.2 7.5-8.2 14.1-14.2 19.1-.4-1-.8-2-1.1-2.9-3.8-11.1-3.5-22.4-4.6-32-1.3-5.5-3.4-9.7-5.8-13-.1-.1-.3-.1-.4-.2-.2.1-.4.2-.7.2h-.2c4 5.5 6.2 12.2 5.9 18.7.4 11.1 1.6 21.9 5.6 30.4-.7.5-1.4 1.1-2.1 1.6-2.2 1.5-4.5 2.9-6.8 4.3-6-13.1-13.8-24.3-21-33.6-7.8-10-16-17.3-23-21 0 0-.1 0-.1.1 0 .2-.1.4-.2.6C52.2 25 60.6 36.5 67.8 46.1c6.4 9.1 11.9 18.3 16.1 27.2-3.6 2.1-7.2 4-10.8 5.8-2.9-5.3-8.1-9.2-12.8-11.9-6.5-3.9-13.1-6.3-19.3-8.2-10.4-2.6-18.7-6.3-24.9-9.6 0 .3-.2.5-.3.7C26 55.9 37.3 59.6 47.5 63c9.7 3.5 19.4 9.4 24 17-7.3 3.5-14.5 6.3-21.2 8.3-11.9 3.5-21.8 2.9-29.3 1.2 0 .1-.1.2-.1.3.1.2.2.4.4.5 12.3 3.1 25.8 1.5 37-2.9 4.8-1.9 9.6-3.8 14.1-5.9 1.7 3.3 2.3 7 1.5 10.9-2.2 11.4-11.5 17.2-18 20.1.5.1 1 .1 1.5.2 3.1-1.3 6.1-3 8.8-5.2 6.7-5.1 11.1-14.1 9.2-22.4-.3-1.5-.7-2.9-1.3-4.3 3.8-1.8 7.4-3.7 10.8-5.7 1.9 4.2 3.4 8.3 4.5 12.3 1.8 5.8 2.6 11.2 2.7 16 .2 0 .3 0 .5.1.2-.1.4-.3.6-.5-.1-8.3-1.9-16.5-4.7-23.7-.7-1.8-1.4-3.5-2.2-5.2 3.1-1.9 6-4 8.7-6.1 0 .1.1.1.1.2 2.1 4.2 4.5 8.4 8.3 10.2 2.4 1 4.7 1.2 6.7 1.1-.3-.1-.3-.3-.3-.5z"/><path d="M76.6 77.3c-1.2.6-2.4 1.3-3.6 1.8-2.9-5.3-8.1-9.2-12.8-11.9-6.4-3.9-13-6.3-19.2-8.2-10.4-2.6-18.7-6.3-24.9-9.6 0 .3-.2.5-.3.7C26 55.9 37.3 59.6 47.5 63c9.7 3.5 19.4 9.4 24 17-7.3 3.5-14.5 6.3-21.2 8.3-11.9 3.5-21.8 2.9-29.3 1.2 0 .1-.1.2-.1.3.1.2.2.4.4.5 12.3 3.1 25.8 1.5 37-2.9 4.8-1.9 9.6-3.8 14.1-5.9 1.7 3.3 2.3 7 1.5 10.9-2.2 11.4-11.5 17.2-18 20.1.5.1 1 .1 1.5.2 3.1-1.3 6.1-3 8.8-5.2 6.7-5.1 11.1-14.1 9.2-22.4-.3-1.5-.7-2.9-1.3-4.3 1.2-.6 2.5-1.2 3.7-1.8l-1.2-1.7zm33.9-30c0-.1-.1-.3-.1-.4-.3-.1-.5-.3-.7-.5-3.2 7.5-8.2 14.1-14.2 19.1-.4-1-.8-2-1.1-2.9-3.8-11.1-3.5-22.4-4.6-32-1.3-5.5-3.4-9.7-5.8-13-.1-.1-.3-.1-.4-.2-.1.1-.2.1-.3.1l.1.9C87 23.7 89 30 88.7 36.2c.4 11.1 1.6 21.9 5.6 30.4-.6.5-1.3 1-2 1.5l.4 1.7c.7-.6 1.5-1.1 2.2-1.7 0 .1.1.1.1.2 2.1 4.2 4.5 8.4 8.3 10.2 2.4 1 4.7 1.2 6.7 1.1-.1-.2-.1-.3-.1-.5v-.3c-2.2 0-4.3-.4-6.3-1.3C99.9 75 97.8 71 96 66.9c1-.9 2.1-1.8 3-2.7 5.6-5.3 9.2-11.3 11.5-16.9z"/><defs><filter id="Adobe_OpacityMaskFilter" width="80" height="52" x="23.4" y="17.7" filterUnits="userSpaceOnUse"><feFlood flood-color="#fff" flood-opacity="1" result="back"/><feBlend in="SourceGraphic" in2="back"/></filter></defs><mask id="SVGID_2_" width="80" height="52" x="23.4" y="17.7" maskUnits="userSpaceOnUse"><g filter="url(#Adobe_OpacityMaskFilter)"/></mask><linearGradient id="SVGID_3_" x1="63.385" x2="63.385" y1="-6.043" y2="74.86" gradientUnits="userSpaceOnUse"><stop offset="0" stop-color="#fff" stop-opacity=".4"/><stop offset="1" stop-color="#fff" stop-opacity="0"/></linearGradient><path fill="url(#SVGID_3_)" d="M63.4 17.7c-22.1 0-40 15.7-40 35.1 0 2.9 1.7 5.7 4.5 7.3 10.1 6 22.4 9.6 35.5 9.6 13.2 0 25.4-3.5 35.5-9.6 2.8-1.6 4.5-4.4 4.5-7.3 0-19.4-17.9-35.1-40-35.1z" mask="url(#SVGID_2_)"/><path d="M112.4 62.5c0 2.2-.1 4.4-.4 6.6 0 .3-.1.7-.1 1-1.1 7.1-3.7 13.7-7.5 19.5-.2.3-.4.7-.6 1-4.4 6.4-10.2 11.7-17 15.5-.5.3-1 .5-1.5.8-6.8 3.5-14.5 5.4-22.7 5.4h-2c-1.7-.1-3.4-.2-5-.5-9.5-1.4-18.2-5.4-25.2-11.4-.5-.4-1-.9-1.5-1.4-2.2-2-4.1-4.2-5.9-6.5-.3-.4-.5-.7-.8-1.1-2.6-3.6-4.8-7.6-6.3-11.9 3.2 1.2 6.5 2 10 2.5 1.7.3 3.3.4 5 .5h2c8.1 0 15.9-2 22.7-5.4.5-.3 1-.5 1.5-.8 6.8-3.8 12.6-9.1 17-15.5.2-.3.4-.6.6-1 3.8-5.8 6.4-12.4 7.5-19.5.1-.4.1-.7.2-1 .3-2.2.4-4.4.4-6.6 0-6-1.1-11.8-3-17.1 19 7 32.6 25.4 32.6 46.9z" class="st3"/><path d="M112.4 62.5c0 2.2-.1 4.4-.4 6.6 0 .3-.1.7-.1 1-1.1 7.1-3.7 13.7-7.5 19.5-.2.3-.4.7-.6 1-4.4 6.4-10.2 11.7-17 15.5-.5.3-1 .5-1.5.8-6.8 3.5-14.5 5.4-22.7 5.4h-2c-1.7-.1-3.4-.2-5-.5-9.5-1.4-18.2-5.4-25.2-11.4-.5-.4-1-.9-1.5-1.4-2.1-2-4.1-4.1-5.9-6.5 6.6 5 14.4 8.4 23 9.6 1.7.2 3.3.4 5 .5h2c8.2 0 15.9-2 22.7-5.4.5-.3 1-.5 1.5-.8 6.8-3.8 12.6-9.1 17-15.5.2-.3.4-.6.6-1 3.8-5.8 6.4-12.4 7.5-19.5.1-.3.1-.7.1-1 .3-2.2.4-4.4.4-6.6 0-11.3-3.8-21.7-10.1-30.1 12 9.2 19.7 23.6 19.7 39.8z" class="st3"/><path d="M50.3 121.7h-42c-2.2 0-4-1.8-4-4v-42c0-2.2 1.8-4 4-4h42c2.2 0 4 1.8 4 4v42c0 2.2-1.8 4-4 4z" opacity=".3"/><path fill="#273445" d="M46 126H4c-2.2 0-4-1.8-4-4V80c0-2.2 1.8-4 4-4h42c2.2 0 4 1.8 4 4v42c0 2.2-1.8 4-4 4z"/><linearGradient id="SVGID_4_" x1="25" x2="25" y1="115.559" y2="86.441" gradientUnits="userSpaceOnUse"><stop offset="0" stop-color="#e6a500"/><stop offset="1" stop-color="#d4ff47"/></linearGradient><path fill="url(#SVGID_4_)" d="m16.7 86.4 12.5 21.7-4.3 7.4L8.2 86.4h8.5zm14.6 18.3 10.5-18.2H27v10.8l4.3 7.4z"/></svg>
