<svg class="S" xmlns="http://www.w3.org/2000/svg" xml:space="preserve" id="design" x="0" y="0" version="1.1" viewBox="0 0 126 126"><style>.st0{fill:#005ca0}.st1{fill:#0071bb}.st2{fill:#ffffa3}.st3{fill:#f6c082}.st6{fill:#ccc}</style><path d="M96.4 87.7c-.8 0-1.6-.1-2.3-.2-.7-.1-1.3-.2-1.9-.3l-.7-.1-.5-.7c-3.4-2.3-46.7-57.6-55.3-68.7l-.8-1 2.1-3.9h3.6l52.3 61.4c2.3-1.5 5.9-4.3 9.1-6.8 7.7-6 9.2-7 10.5-7h.4c1.1 0 2.2.5 3 1.4 1.7 1.9 2.4 5.5 2 11.1-.2 3.3-1.5 6.2-3.8 8.6l-.2.2c-.1.1-.2.2-.3.2-.1.1-.5.4-.5.4-.2.1-.3.3-.5.4-4.5 3.6-10.5 4.6-13.7 4.9-.7 0-1.6.1-2.5.1z"/><path d="M38.1 14.8h1.5l53.6 62.9 19.2-15.2s4.3-1.6 3.5 10.2-16.7 13.9-23.3 12.6L38.1 14.8z" class="st0"/><path d="M38.1 14.8S89 76.6 91 77.2c2 .6 20-15.2 21.5-14.8 1.5.5 4.3 13.3 0 17.8s-17.1 6.9-20.4 4.6-54.9-68.3-54.9-68.3l.9-1.7z" class="st1"/><path d="M91.5 75.7h-2.1l-3.1 2.5-2.9-3.5 2.9-2.4 2.2-.1 3 3.5z" class="st2"/><path d="M91.5 75.7h-2.1l-3.1-3.4 2.2-.1 3 3.5z" class="st3"/><path d="m87.9 71.5-2.1.2-2.9 2.4-1-1.2 2.9-2.3 2.3-.1.8 1z" class="st2"/><path d="m87.9 71.5-2.1.2-1-1.1 2.3-.1.8 1z" class="st3"/><path d="M105.7 66.9s-1.1 2.9 0 6.4c1.1 3.5 2.9 7.8 3.9 9-2.4 1.4-5.4 2.3-6.6 2.6-.6-.8-1.9-1.6-3.2-6.1-1.3-4.5-.6-6.9-.6-6.9l6.5-5z" class="st2"/><path d="M101.7 80.9c2.2 3 5.3 2.5 8 1.5-2.4 1.4-5.4 2.3-6.6 2.6-.6-.8-1.9-1.6-3.2-6.1-1.3-4.5-.6-6.9-.6-6.9s0 5.6 2.4 8.9z" class="st3"/><path d="m48.1 24.8-1.6.2-1.4 1.7-2.8-3.5 1.2-1.7 1.6-.1 3 3.4z" class="st2"/><path d="m48.1 24.8-1.6.2-2.9-3.5 1.6-.1 2.9 3.4z" class="st3"/><path d="m44.7 20.8-1.6.1-1.3 1.5-.9-1.2 1.3-1.5h1.6l.9 1.1z" class="st2"/><path d="m44.7 20.8-1.6.1-1-1.2h1.6l1 1.1z" class="st3"/><path d="M31.1 87.7c.8 0 1.6-.1 2.3-.2.7-.1 1.3-.2 1.9-.3l.7-.1.5-.7c3.4-2.3 46.7-57.6 55.3-68.7l.8-1-2.1-3.9H87L34.7 74.2c-2.3-1.5-5.9-4.3-9.1-6.8-7.7-6-9.2-7-10.5-7h-.4c-1.1 0-2.2.5-3 1.4-1.7 1.9-2.4 5.5-2 11.1.2 3.3 1.5 6.2 3.8 8.6l.2.2c.1.1.2.2.3.2.1.1.5.4.5.4.2.1.3.3.5.4 4.5 3.6 10.5 4.6 13.7 4.9.7 0 1.6.1 2.4.1z"/><path d="M34.9 85.3c-6.6 1.3-22.5-.8-23.3-12.6s3.5-10.2 3.5-10.2l19.2 15.2 53.6-62.9h1.5L34.9 85.3z" class="st0"/><path d="M90.3 16.5s-51.6 66-54.9 68.3-16.1-.1-20.4-4.6-1.5-17.3 0-17.8c1.5-.4 19.5 15.4 21.5 14.8 2-.6 52.9-62.4 52.9-62.4l.9 1.7z" class="st1"/><path d="m39 72.2 2.2.1 2.9 2.4-2.9 3.5-3.1-2.5H36l3-3.5z" class="st2"/><path d="m39 72.2 2.2.1-3.1 3.4H36l3-3.5z" class="st3"/><path d="m40.5 70.5 2.3.1 2.9 2.3-1 1.2-2.9-2.4-2.1-.2.8-1z" class="st2"/><path d="m40.5 70.5 2.3.1-1 1.1-2.1-.2.8-1z" class="st3"/><path d="M21.8 66.9s1.1 2.9 0 6.4c-1.1 3.5-2.9 7.8-3.9 9 2.4 1.4 5.4 2.3 6.6 2.6.6-.8 1.9-1.6 3.2-6.1 1.3-4.5.6-6.9.6-6.9l-6.5-5z" class="st2"/><path d="M25.8 80.9c-2.2 3-5.3 2.5-8 1.5 2.4 1.4 5.4 2.3 6.6 2.6.6-.8 1.9-1.6 3.2-6.1 1.3-4.5.6-6.9.6-6.9s.1 5.6-2.4 8.9z" class="st3"/><path d="m82.3 21.4 1.6.1 1.2 1.7-2.8 3.5L81 25l-1.6-.2 2.9-3.4z" class="st2"/><path d="m82.3 21.4 1.6.1L81 25l-1.6-.2 2.9-3.4z" class="st3"/><path d="M83.8 19.7h1.6l1.3 1.5-.9 1.2-1.3-1.5-1.6-.1.9-1.1z" class="st2"/><path d="M83.8 19.7h1.6l-1 1.2-1.6-.1 1-1.1z" class="st3"/><g id="Layer_2_15_"><path fill="#040404" d="M97.3 106.4c0 4.9-15 8.9-33.6 8.9s-33.6-4-33.6-8.9V85.8l67.1.1.1 20.5z"/><path fill="#333" d="M97.3 85.9v20.5c0 3.4-5.5 4.9-7.5 5.6-6.2 2-12.7 2.7-19.1 3.1-2.6.1-5.3.1-7.6-1.3-.3-.1-.5-.3-.6-.6-.3-.6-.2-1.3.2-1.9.4-.5.9-.8 1.4-1.1 1-.6 1.9-1.3 2.8-2.1.8-.8 1.7-1.8 1.6-3 0-1.4-1.2-2.4-2.3-3.1-1.9-1.2-4.1-2.3-5.5-4.3-.3-.4-.5-.9-.6-1.5 0-1.1 1-1.8 1.8-2.2 5-2.7 10-5.4 15-8 2.7-1.4 6.5-.9 9.4-.6.9.2 11 .4 11 .5z"/><path d="M97.3 88.8c0 5.1-15 9.3-33.6 9.3s-33.6-4.2-33.6-9.3c0-2.6-.1-4.9 4.1-6.6s12.6-2.6 29.6-2.6c19.7 0 28.5.6 31.8 2.9 2.3 1.5 1.7 4.2 1.7 6.3z" class="st6"/><ellipse cx="63.8" cy="84.4" rx="33.6" ry="8.9"/><ellipse cx="50.6" cy="81.7" class="st6" rx="8.2" ry="2.2"/><path fill="#7f7f7f" d="M92.3 83.9c0 3.9-12.8 7-28.5 7s14.9-4.1 14.9-8-2.3-5.3 1.7-4.7c6.3 1.1 11.9 1.8 11.9 5.7z" opacity=".7"/></g><path d="M50.3 121.7h-42c-2.2 0-4-1.8-4-4v-42c0-2.2 1.8-4 4-4h42c2.2 0 4 1.8 4 4v42c0 2.2-1.8 4-4 4z" opacity=".3"/><path fill="#273445" d="M46 126H4c-2.2 0-4-1.8-4-4V80c0-2.2 1.8-4 4-4h42c2.2 0 4 1.8 4 4v42c0 2.2-1.8 4-4 4z"/><linearGradient id="SVGID_1_" x1="25" x2="25" y1="12.441" y2="41.541" gradientTransform="matrix(1 0 0 -1 0 128)" gradientUnits="userSpaceOnUse"><stop offset="0" stop-color="#e6a500"/><stop offset="1" stop-color="#d4ff47"/></linearGradient><path fill="url(#SVGID_1_)" d="m16.7 86.4 12.5 21.7-4.3 7.4L8.2 86.4h8.5zm14.6 18.3 10.5-18.2H27v10.8l4.3 7.4z"/></svg>
