<svg class="S" xmlns="http://www.w3.org/2000/svg" xml:space="preserve" id="Layer_1" x="0" y="0" version="1.1" viewBox="0 0 126 126"><style>.st0,.st1,.st2{fill-rule:evenodd;clip-rule:evenodd}.st1{fill:#a25641}.st2{fill:#fff}.st10,.st11,.st12{fill-rule:evenodd;clip-rule:evenodd}.st3{fill:#7a3c29}.st3,.st5,.st6,.st9{fill-rule:evenodd;clip-rule:evenodd}.st5{fill:#647883}.st6{fill:#849daa}.st9{fill:#541000}.st10{fill:#9e6c48}.st11{fill:#7a2713}.st12{fill:#a5c2d2}</style><path d="M12.5 68.4c-2.6-.1-3.3-.4-5.5-1.8 4.5 1.8 7.2 1 10.9-2.2-3.1 1-6.1 2.1-9.1.3 2.5 1 3.4.4 5.9-.4-3.5.5-4 .4-7.3-1.2 5.4 2 8.5.3 12.4-3.7-2.3.6-3 1.3-4.5 3.1 2-3.3 3.3-3.5 7-4.5-3-.6-5-.5-6.8 2.1 1.2-2.9 3-3 5.9-3.1 7.3.5 6.2-8.8 15.7-8.5-5 3.5-6.6 11.6-8.2 19.9-.8 2.3-1.4 3.3-3.1 5 1.5-2 1.9-3 2.2-5.5-6.5 10.1-18.6 9.3-25-.4 3.6 4.4 5.1 4.8 10.6 3.4-3.4.3-5 .4-8-1.1 3.7 1 5.7.5 9.2-1-5.5 1.1-7.5 1.2-11.3-3.2 3.3 2.9 4.6 3.5 9 2.8zm91.3-51c-2.4-1.4-4-1.5-6.6-.2 2-.7 3-.8 5 0-2.6-.2-4.6-.1-6.9 1.3-1.6.6-2 .9-3.6.4 2 .9 3.1.4 5.1-.4 1.3-.5 1.8-.6 3.1-.4-1.8.4-2.9.7-4.3 2-4.9.8-7.1 1.6-11 4.4-2.8 1-3.9 1.8-5 4.6 1.2-2.3 1.8-2.8 4.3-3.4-2 1.4-3 2.4-4.2 4.4 2.1-2.6 3.6-3 6.8-3.4-3.5 3.4-6.1 4.3-10.9 3.6 2.6.6 4.1.8 6.7.3-2.3.8-4.3 1-6.8 1.1 2.3.2 4.3.1 6.6-.4-3.2 1.5-5.2 1.3-8.6.4 3.2 1.3 4.9 1.5 8.3.9-3 1.1-4.8.8-7.9.4 2.6.7 4.3.9 7.1.8-1.8.4-3.5.7-5.4.8-1.8.3-2.6.8-3.9 2.1 1.6-1 2.4-1 4.3-1 1.9.3 3.4.6 5.1-.2-1.9 1.4-2.6 1.6-4.8.8 1.1.7 1.5.9 2.7.9-2.1.6-3.2.6-5.5.3 2.2.6 3.5.7 5.8.6-2.5 1.2-4 1.4-6.8 1.5 3 .4 6.8-.2 10.4-.6l8.4-7.2 4.7-7.4 7.9-6.6-.1-.4z" class="st0"/><path d="M108 14.8c.9-2 1.4-3.2 3.2-4.4.8-.5 1-.6.7.4-.5 1.3-.8 2.5-1 3.9.6.2.9.1 1.2.6.9-1.5 2.2-2.6 3.1-4.1.4-.8.7-1.2.7 0 0 2-.2 3.8-1.5 5.4.2 1 .2 1.2-.2 2 1.1 1.5 2.1 3 3 4.7 1.4 1.7.7 2.1-.2 3.9.7 1.4 1.4 2.8 2.2 4.1 1 1.2 1.5 2 2.1 3.5 1.5 1.3 2.4 3 1.1 4.9 0 1 0 1.7-1 2.1-.8 1.8-1.3 1.7-3.1 1.3-2.3 1.1-3.2-.2-3.4-2.5-1-.5-1.6-.8-2.4-1.6-2.2-.4-4.1-1.2-5.6-2.9l-1.1-.4c.3 5.4.2 10.8-2 15.8.7 2.2 1.2 3.8 1.1 6.1 1.8 5 1.2 7.7-1.8 12 1.6.5 2.9 1.4 4.4 2.3 1.6.5 3.2 1 4.8 1.4 3.9 1.8 3.6 4.2 2.9 8-.5 2.6-.6 4.9-.6 7.5 0 1.4.4 3.4-1.1 4.1.6 1.3.7 2.5.7 3.9.6 1.3.9 2.1.9 3.5.5.7.4 1.2.4 2.1l-.1 4.1c0 .9-1.3.6-2 .1-1.7-1.3-3.3-2.4-4.7-3.9-.6-.5-.6-1 .3-1.4.1-1.7.1-1.9 1.7-2.7 0-1.5-.4-1.9-1.4-3-1.7 1.1-3.3 2.3-5.1 3-1.2.5-1.7-.3-1.8-1.2-.1-2.3.4-3.6 1.6-5.6.8-1.1 1.4-1.3 3-1 .1-2.4-.3-3.6-1.6-5.7-1.4-.7-2-1.5-2.9-2.8-4.5-.8-7.6-1.9-11.6-4-2-.4-5.5.3-6-2.2-7.5 1.7-13.9 1.9-21.3 1.3-.5 4.1-1.1 6-3.9 9.3-.8 3-1.4 6 1.5 8 2.5 1.4 4.5 3 6.8 4.6 1.5 1 3.5 2.4 2.7 4.4l1.4 1.5c1.4 1 1.4 1.8 1.4 3.5-.3 3-.1 2.9-1.7 2.5-2.3-1-3.9-2.7-5-4.9l.7-1.6c-1.4 0-1.6-.3-2.5-1.3-3-3.2-7-5.2-10.6-7.6-2.7-1.5-5.1-2.3-3.8-5.7 3.3-8.3 4-11.6-4.8-15.4-2.2 6.3-5.6 14.1-8.9 17.3l-.5 1.3c-.2 1.9-.6 3.2-1.3 5-.2 3.4.4 6.6 1 9.9.7 1.1 1.9 2.3 1.4 3.6.8.7.9 1.4 1.3 2.4.4 1.8.4 1.9-1.2 1.8-1.6-.2-3.7.1-3.7-3-1.2-1.1-.9-2.5-.9-4l-.9-4.2c-.8-3.2-1.4-6.5-2.5-9.6-.6-2.4.3-3.5 1.4-5.5 1.7-4 2.6-5.7 1.9-10l-3-12.9c-.7-5-.6-7.5 1.3-12.2 2.7-5.7 4.5-6.8 10.2-9.7 5.5-2.6 9.9-1.9 15.9-1 10.3 1 13.8 0 22.9-4.8 5.5-3.3 8.3-6.4 12.1-11.6 3.3-5.5 6.6-9.4 13.2-10.7 1-1 1.4-1.4 2.5-2z" class="st0"/><path d="M32.4 102.5c.2 2.1.6 4.1.9 6.2 0 1.5.9 5.2 2.7 2.6 2.7.5.7-2.1 0-3l-.8-3.5-1.2-3.9-1.6 1.6z" class="st1"/><path d="M105.9 17c.7-.9 1.1-1.4 2.1-2v.8c.5-2.4 1.5-3.9 3.5-5.3-1.6 1.6-2.6 2.9-3.2 5.1-.1.5-.3 1 .3 1.3-.6.4-.7.7-.9 1.3.8-.8 2.7-2.1 3.7-1.1.7-.1.8.1 1.4.5 1.3 1.3 2.2 2.7 3.2 4.2l1 1.6c.7.9.8 1.2.1 2.1-.4.7-.4.9-.4 1.7.7 1.5 1.4 2.8 2.3 4.1.9 1.2 1.5 2.1 2 3.5 1.1.9 1.7 1.7 1.7 3.1-.1-.8-.2-1.2-1-1.4.8 1 .8 1.8-.2 2.5 0 .9 0 1-.6 1.6 0 .7-.8.6-1.2.5.6-1.2.7-3.1-.5-3.9.4-.2.4-.2.8 0-.6-1.1-1.8-.4-2 .4-.2.7-.2 1.2-.1 1.9 2.2-1 1 2.1 0 .2-.3.6-.5 1-1.3.8.1 2-1 1.1-1.1-.4-1.2-.1-2.1-.7-3-1.5-2.5-.5-5.2-1.3-5-4.3-3.4.2-4.4-.4-5.5-3.6.3 1.3.3 1.6-.1 2.8-.6-1.7-.6-3-.4-4.8-1.2 3.3-1.4 4.9-.4 8.2 1.4 4 3.3 1.6 4.1-1.3.2 2.3.3 4.6.1 7-.3 2.9-.7 6.3-2.3 8.8 1 2 1.3 3.8 1.4 6 1.4 4.6 1.4 8.4-2.2 12.1 1.8.6 3.2 1.4 4.8 2.4 1.6.4 3.1.9 4.7 1.4-1.6 0-3.6 0-4.9-.8-1 0-1.8-.1-2.8-.2 1.5.6 2.7.8 4.3 1.1-.3 1.3-1.1 1.2-2.1.9.8.6 1.4.8 2.4 1 2.6.6-.9 3.5-2.7 1.3-.2 1.2-1.9.2-2.5-.1 1.6 1.4 3.2 2.6 4.7 4.1.8 1.1 1 1.9 1.3 3.2.3 1.5.6 2.9 1.1 4.3.6 1.4.7 2.5.8 4-.4 1.2-.6 1.6-1.9 1.7-1.7-.3-2.7-.7-2.6-2.6.3-2.6-.3-3.9-1.3-6l1 .2c-3-2.3 4.1-1.7-1.3-6.3-1.4 1.1-2.8 1.5-3.8 1 .8.8.8.8.8 1.9-4.2-.9-7.7-2-11.5-4-3-.2-5.8.4-6-3.3-3.9 1.1-6.6 1.4-10.5 0-2.1.6-3.5 1-5.6.9 2.7.8 4.6 1 7.4 1.2-4.4.3-8.3.1-12.7-.1 1.5-.6 2.8-1 4.4-1.1-2.7-.2-4.6-.1-7-1.4-1.2 3.7-7.6-.5-9.1-1.7 1.7 2.6-2.4 2.3-2.5-1.4-.1-1.7-.1-2.5-1.1-4-.4 3.5-1.5 4.9-2.8 7.9-1.3 3.6-2.7 7-4.4 10.4-1.2 2.3-2.4 4.3-4.3 6.2l-.4 1.3c-.1 1.8-.7 3.3-1.3 5-.4 2.5-.1 4.3.3 6.8-1.3-3.4-2.1-5-2.2-.4.4.6-.3-.7-.6-2.1 0-1.1-.1-2.2-.3-3.3 0-.9-.2-1.7.9-1.1-.1-1.1-.2-1.6.7-2.3-1.3-1-1.9-.9-2.7.4-.2-2 1-2.9 1.1-4.8-1.7 3.3-1.9.3-.5-2.3-.1 1-.1 1.2.5 1.9.6-1.7.6-3.8.9-5.6.7-3.5.2-5.9-.6-9.3-1-4.2-2-8.3-2.5-12.5-.2-4.9.8-7.3 2.7-11.1 2.2-4.1 5-5.3 9.2-7.5 5.2-2.1 7.8-1.9 14.4-1.1 2.6.3 5 .4 7.6.5 2.3-.1 4.2-.3 6.4-.8 4.4-1.2 8.5-3.3 12.4-5.7l2.3-1.6c3.9-3.5 6.8-7.2 9.7-11.5 3.4-4 5.9-6.2 11.4-7.5z" class="st1"/><path d="M105.9 17c.7-.9 1.1-1.4 2.1-2v.8c.5-2.4 1.5-3.9 3.5-5.3-1.6 1.6-2.6 2.9-3.2 5.1-.1.5-.3 1 .3 1.3-.6.4-.7.7-.9 1.3.8-.8 2.7-2.1 3.7-1.1.7-.1.8.1 1.4.5 1.3 1.3 2.2 2.7 3.2 4.2l1 1.6c.7.9.8 1.2.1 2.1-.4.7-.4.9-.4 1.7.7 1.5 1.4 2.8 2.3 4.1.9 1.2 1.5 2.1 2 3.5 1.1.9 1.7 1.7 1.7 3.1-.1-.8-.2-1.2-1-1.4.8 1 .8 1.8-.2 2.5 0 .9 0 1-.6 1.6 0 .7-.8.6-1.2.5.6-1.2.7-3.1-.5-3.9.4-.2.4-.2.8 0-.6-1.1-1.8-.4-2 .4-.2.7-.2 1.2-.1 1.9 2.2-1 1 2.1 0 .2-.3.6-.5 1-1.3.8.1 2-1 1.1-1.1-.4-1.2-.1-2.1-.7-3-1.5-2.5-.5-5.2-1.3-5-4.3-3.4.2-4.4-.4-5.5-3.6.3 1.3.3 1.6-.1 2.8-.6-1.7-.6-3-.4-4.8-1.2 3.3-1.4 4.9-.4 8.2 1.4 4 3.3 1.6 4.1-1.3.2 2.3.3 4.6.1 7-.3 2.9-.7 6.3-2.3 8.8 1 2 1.3 3.8 1.4 6 1.4 4.6 1.4 8.4-2.2 12.1 1.8.6 3.2 1.4 4.8 2.4 1.6.4 3.1.9 4.7 1.4-1.6 0-3.6 0-4.9-.8-1 0-1.8-.1-2.8-.2 1.5.6 2.7.8 4.3 1.1-.3 1.3-1.1 1.2-2.1.9.8.6 1.4.8 2.4 1 2.6.6-.9 3.5-2.7 1.3-.2 1.2-1.9.2-2.5-.1 1.6 1.4 3.2 2.6 4.7 4.1.8 1.1 1 1.9 1.3 3.2.3 1.5.6 2.9 1.1 4.3.6 1.4.7 2.5.8 4-.4 1.2-.6 1.6-1.9 1.7-1.7-.3-2.7-.7-2.6-2.6.3-2.6-.3-3.9-1.3-6l1 .2c-3-2.3 4.1-1.7-1.3-6.3-1.4 1.1-2.8 1.5-3.8 1 .8.8.8.8.8 1.9-4.2-.9-7.7-2-11.5-4-3-.2-5.8.4-6-3.3-3.9 1.1-6.6 1.4-10.5 0-2.1.6-3.5 1-5.6.9 2.7.8 4.6 1 7.4 1.2-4.4.3-8.3.1-12.7-.1 1.5-.6 2.8-1 4.4-1.1-2.7-.2-4.6-.1-7-1.4-1.2 3.7-7.6-.5-9.1-1.7 1.7 2.6-2.4 2.3-2.5-1.4-.1-1.7-.1-2.5-1.1-4-.4 3.5-1.5 4.9-2.8 7.9-1.3 3.6-2.7 7-4.4 10.4-1.2 2.3-2.4 4.3-4.3 6.2l-.4 1.3c-.1 1.8-.7 3.3-1.3 5-.4-1.1-.8-1.8-1.3-.3-.5 1.6-.9 3-1.2 4.6 0-1.1-.1-2.2-.3-3.3 0-.9-.2-1.7.9-1.1-.1-1.1-.2-1.6.7-2.3-1.3-1-1.9-.9-2.7.4-.2-2 1-2.9 1.1-4.8-1.7 3.3-1.9.3-.5-2.3-.1 1-.1 1.2.5 1.9.6-1.7.6-3.8.9-5.6.7-3.5.2-5.9-.6-9.3-1-4.2-2-8.3-2.5-12.5-.2-4.9.8-7.3 2.7-11.1 2.2-4.1 5-5.3 9.2-7.5 5.2-2.1 7.8-1.9 14.4-1.1 2.6.3 5 .4 7.6.5 2.3-.1 4.2-.3 6.4-.8 4.4-1.2 8.5-3.3 12.4-5.7l2.3-1.6c3.9-3.5 6.8-7.2 9.7-11.5 3.4-4 5.9-6.2 11.4-7.5z" class="st1"/><path d="M105.7 78.2c1.4 0 2.8.1 4.2 0 .5.6.8 1 1.5 1.4.2 3.1.1 5.9-.3 9-.6-1.7-1-3-1.3-4.8-.5-3-1.8-3.8-4.1-5.6z" class="st2"/><path d="M105.9 17c.7-.9 1.1-1.4 2.1-2v.8c.5-2.4 1.5-3.9 3.5-5.3-1.6 1.6-2.6 2.9-3.2 5.1-.1.5-.3 1 .3 1.3-.6.4-.7.7-.9 1.3.8-.8 2.7-2.1 3.7-1.1.7-.1.8.1 1.4.5 1.3 1.3 2.2 2.7 3.2 4.2l1 1.6c.7.9.8 1.2.1 2.1-.4.7-.4.9-.4 1.7.7 1.5 1.4 2.8 2.3 4.1.9 1.2 1.5 2.1 2 3.5 1.1.9 1.7 1.7 1.7 3.1-.1-.8-.2-1.2-1-1.4.8 1 .8 1.8-.2 2.5 0 .9 0 1-.6 1.6 0 .7-.8.6-1.2.5.6-1.2.7-3.1-.5-3.9.4-.2.4-.2.8 0-.6-1.1-1.8-.4-2 .4-.2.7-.2 1.2-.1 1.9 2.2-1 1 2.1 0 .2-.3.6-.5 1-1.3.8.1 2-1 1.1-1.1-.4-1.2-.1-2.1-.7-3-1.5-2.5-.5-5.2-1.3-5-4.3-3.4.2-4.4-.4-5.5-3.6.3 1.3.3 1.6-.1 2.8-.6-1.7-.6-3-.4-4.8-1.2 3.3-1.4 4.9-.4 8.2 1.4 4 3.3 1.6 4.1-1.3.2 2.3.3 4.6.1 7-.3 2.9-.7 6.3-2.3 8.8 1 2 1.3 3.8 1.4 6 1.4 4.6 1.4 8.4-2.2 12.1 1.8.6 3.2 1.4 4.8 2.4 1.6.4 3.1.9 4.7 1.4-1.6 0-3.6 0-4.9-.8-1 0-1.8-.1-2.8-.2 1.5.6 2.7.8 4.3 1.1-.3 1.3-1.1 1.2-2.1.9.8.6 1.4.8 2.4 1 2.6.6-.9 3.5-2.7 1.3-.2 1.2-1.9.2-2.5-.1 1.6 1.4 3.2 2.6 4.7 4.1.8 1.1 1 1.9 1.3 3.2.3 1.5.6 2.9 1.1 4.3.6 1.4.7 2.5.8 4-.4 1.2-.6 1.6-1.9 1.7-1.7-.3-2.7-.7-2.6-2.6.3-2.6-.3-3.9-1.3-6l1 .2c-3-2.3 4.1-1.7-1.3-6.3-1.4 1.1-2.8 1.5-3.8 1 .8.8.8.8.8 1.9-4.2-.9-7.7-2-11.5-4-3-.2-5.8.4-6-3.3-3.9 1.1-6.6 1.4-10.5 0-2.1.6-3.5 1-5.6.9 2.7.8 4.6 1 7.4 1.2-4.4.3-8.3.1-12.7-.1 1.5-.6 2.8-1 4.4-1.1-2.7-.2-4.6-.1-7-1.4-1.2 3.7-7.6-.5-9.1-1.7 1.7 2.6-2.4 2.3-2.5-1.4-.1-1.7-.1-2.5-1.1-4-.4 3.5-1.5 4.9-2.8 7.9-1.3 3.6-2.7 7-4.4 10.4-1.2 2.3-2.4 4.3-4.3 6.2l-.4 1.3c-.1 1.8-.7 3.3-1.3 5-.6-.8-1.1-.7-1.4.3l-.3.9-.8 3.1c0-1.1-.1-2.2-.3-3.3 0-.9-.2-1.7.9-1.1-.1-1.1-.2-1.6.7-2.3-1.3-1-1.9-.9-2.7.4-.2-2 1-2.9 1.1-4.8-1.7 3.3-1.9.3-.5-2.3-.1 1-.1 1.2.5 1.9.6-1.7.6-3.8.9-5.6.7-3.5.2-5.9-.6-9.3-1-4.2-2-8.3-2.5-12.5-.2-4.9.8-7.3 2.7-11.1 2.2-4.1 5-5.3 9.2-7.5 5.2-2.1 7.8-1.9 14.4-1.1 2.6.3 5 .4 7.6.5 2.3-.1 4.2-.3 6.4-.8 4.4-1.2 8.5-3.3 12.4-5.7l2.3-1.6c3.9-3.5 6.8-7.2 9.7-11.5 3.4-4 5.9-6.2 11.4-7.5z" class="st3"/><path d="M105.9 17c.7-.9 1.1-1.4 2.1-2v.8c.5-2.4 1.5-3.9 3.5-5.3-1.6 1.6-2.6 2.9-3.2 5.1-.1.5-.6 1.2-.3 1.5-.6.4-1.9 2.6-2.1 3.3.8-.8 4.4-3.7 5.5-2.7.5-.4.9-.5 1.5-.1 1.3 1.3 2.2 2.7 3.2 4.2l1 1.6c.7.9.8 1.2.1 2.1-.4.7-.4.9-.4 1.7.7 1.5 1.4 2.8 2.3 4.1.9 1.2 1.5 2.1 2 3.5 1.1.9 1.7 1.7 1.7 3.1-.1-.8-.2-1.6-1.4-1.8.6.8.8 2.3-.1 2.5-.2 1.1-.4 1.6-1 1.5.2-.5.3-1.8-.4-2.6.1-.1.1-.2.5.1-.3-1.9-2.2-1.3-2.4-.5-.6 2.4-.6 2.5-1.3 2.4.1 2-.7.9-.8-.6-1.2-.1-2.5-2.1-3.3-2.9.5 1.3.8 1.6 1.8 2.6-7.9-2.3-5.7-5.8-2.5-3.3-.5-.6-.8-1-1.4-1.4-1.1-1-.9-2.3.7-2.4-.9-.6-1-.9-1.3-1.9-7.6 5.2-8.5-1.6-6.5-6.4-1.7 1.3-3 1.6-5 2.1 2.7 1.1.7 1.6-1 2.9-4 3-4.1 8.7-3.2 15.2.3 1.8-.6 1.8-2 1.2 1.7 2.4 3.6 1.8 3.5-1.5 0-2.4.5-3.7 1.2-5.9.9-2.7 2.6-2.6 2.9.5.4 3.4.9 6.1 2.3 9.1L99.9 45l.7 1.8c1.1.2 1.5 1 1.9 1.9 0-2.6.4-3.9 1.4-6.3.6-1.4 1-2.5 1.3-4 .2 2.3-.5 2.3-.6 4.6-.3 2.9.4 5.9-1.2 8.4 1 2 1.3 3.8 1.4 6 1.4 4.6 1.1 9.7-6 14.3 1.3 1.1 1.8 1.6 3.4 2.4 2.7 1 2 1.7-.5 1.5l2 .9c1.6 1.4 3.2 2.6 4.7 4.1.3.5.5.8.5 1 0 1.8-3.1 2.3-2.1 3.9-3-2.3 4.1-1.7-1.3-6.3-1.4 1.1-2.8 1.5-3.8 1 .3.8.3 1.3-.3 1.2-4.2-.9-5.5-3.8-10.5-3.6-3-.2-5.7.8-5.9-2.9l-.4-3.2c-2 1.1-6.7 4.6-5.3-1.4-3 2-3.9 1.8-7.3.8 2.7-1.2 4.1-5.2 1.5-5.4-2.4-.1-2.6-.5-4-2.5-.1 2.4-1.2 1.9-2.6.6-3.7.2-7.3-1.3-9.9-4-.3 1.6-.8 1.7-2.4 1.8 1.3 3.1-2.5 4.4-3.7 1.9-1.4 1.1-1.3 1.3-.9 3 2.5-.1.5 3.4-.6 1.4-.7-1.2-.9-2.4-1.3-3.7 0 3.5-1.4 7.8-2.7 10.9-1.3 3.6-2.7 7-4.4 10.4-.6-2.6-2.7-1.2-4.1-.1.9-2.4-1.4-2.7-1.9-.5-.5 1.3-.9 2.3-1.6 3.6-.1-1.1-.2-2.1-.2-3.2.7-3.5.2-5.9-.6-9.3-1-4.2-2-8.3-2.5-12.5-.2-4.9.8-7.3 2.7-11.1 2.2-4.1 5-5.3 9.2-7.5 5.2-2.1 7.8-1.9 14.4-1.1 2.6.3 5 .4 7.6.5s4.3-.2 6.4-.8c5.4-1.5 10.7-4.1 14.7-7.4 3.9-3.5 6.8-7.2 9.7-11.5 3.1-4.1 5.6-6.3 11.1-7.6z" class="st1"/><path d="M111.3 88.8c.3-3.1.4-5.4.4-8.6l.5-.2 1.2-2.3 1.7-.2c-.9 2.5-1.7 7.8-1.6 10.5-.1 1.1-.2 1.3-1.3 1-.2 2 1.2 2.8 2.1 1.1 0 1.1 0 2.4-1.5 2-.5.1-.6 0-1.1-.1l-.4-3.2z" class="st3"/><path d="M111.7 92.5c-.4 1-.6 1.4-1.7 1.6-.1.6-.2.9-.6 1.4 1.2 1.1 1.4 1.7 1.5 3.2 1.2.7 2.2 1.3 3.6 1.6.2-1.3-.2-2.3-.8-3.4.1-1.6-.1-2.5-.7-4-.6 0-.8-.1-1.3-.4z" class="st2"/><path fill="#bcbdbf" fill-rule="evenodd" d="M110 94.1c-.1.6-.2.9-.6 1.4 1.2 1.1 1.4 1.7 1.5 3.2.3.2.6.3.9.4.2-1 .3-1.3.1-2.3 1.5-1.4 0-3.1-1.9-2.7z" clip-rule="evenodd"/><path d="M110.7 99c-1.3.5-1.5 1.2-1.6 2.5 1.1 2 2.4 3.2 4.2 4.6.5.2 1.3.8 1.7.2v-4.7c-.1-.6-.2-.7-.5-1.2-1.3-.1-2.5-.8-3.8-1.4zm-4-7.8c-.1 2 .6 2.6 2.9 2.9-.2 1.3-.8 1.4-1.8 2.1l-2.9 1.8c-1.3.7-2.3.8-2.4-1 0-2.1.5-3.3 1.6-5 1.1-.9 1.2-1.1 2.6-.8zm2.2 10.5c.6.9 1.3 1.8 2 2.7-.5-.4-3.3-2-2-2.7z" class="st5"/><path d="M34.1 112.9c.1 1.4.6 2.3 1.6 2.6.9.1 1.8.2 2.7.2.4 0 .4-.3.3-.6-.2-1.2-.5-2.3-1.4-3.1-1 .4-2 .7-3.2.9z" class="st6"/><path fill="#691d07" fill-rule="evenodd" d="M46.1 74.5c1.8.7 3.3 1.7 4.9 2.8-1.3-2.6-2.1-3-4.9-2.8z" clip-rule="evenodd"/><path fill="none" d="M59.9 98.6c-1.7-2-2.9-3.4-5.3-4.4.8.8 1.1 1.4 1.6 2.4-1.3-1.4-2.2-1.8-3.8-2.8-2.2-1.6-2.3-1.9-1.2-4.5 1.5-4.2 3.5-8.1 0-11.6.9.3 3.1.7 2.5 2 1.6-.3 3.8-.6 4.2 1.4 2.5-.9 3.8-1.8 5.3-4 .3 3.6-1.2 6.9-3.6 9.5l-.4 1.5c-.7 2.4-.6 4.8 1.6 6.6l1.9 1.2-2.5-.9-1.9 1.3 1.6 2.3z"/><path d="M59.9 98.6c-2.3-1.7-2.4-2.7-4.8-4.1.8.8 1 1.4 1.5 2.4-1.3-1.4-2.6-2.2-4.2-3.2-2.2-1.6-2.3-1.9-1.2-4.5 1.5-4.2 3.5-8.1 0-11.6 1.2.2 3.5.4 2.8 1.8 1.6-.3 3.6-.7 4 1.3 1.5-.8 2.7-1.3 4-2.3.3 3.6-2.5 6-4.9 8.6 1.4.9.9 1.9-.4 1 0 1.2-.2 1.5 1.1 1.5-2.2 2.6-.8 3.6 4.6 6.1-1.7-.1-1.2 0-1.8 1.4-1.7-1.5-1.4.2-.7 1.6z" class="st3"/><path d="m67.7 104.8-.7 1.4c1.2 2 2.7 3.8 4.8 4.7.8.2.9.4 1.2-.3.1-.8.2-1.5.2-2.3-.1-1.4 0-1.7-1.1-2.7-1.8.2-3.3.6-4.4-.8z" class="st6"/><path d="M115.1 11.6c-.8 1.9-1.2 2.5-2.8 3.9.9-1.3 1.9-2.5 2.8-3.9z" class="st1"/><path d="M110.8 14.9c1 .2 1.3.4 1.4 1.5-.4-.8-.7-1-1.5-1.2l.1-.3z" class="st3"/><path d="M106.3 31.8c.7 0 1.3.3 1.3.7s-.6.7-1.3.7c-.7 0-1.3-.3-1.3-.7s.6-.7 1.3-.7zm-3.8 37.8c1.3.4 3.2 1.4 4.8 2.4-1.9-.2-3.9-.5-4.8-2.4z" class="st1"/><path d="M80.9 61.4c2 2.3 2.4 3.7 3.1 6.7-1.5-.2-1.9-.8-1.9-2.3-.1-3-1.6-1.9-3.2-3.8.9.6 2.2 1.1 2-.6z" class="st3"/><path d="M52.8 88.6c-2.4 3.8 1 4 4 5.2-2.3-1.7-3.7-2.2-4-5.2zm-14.3.6c-.6.8-1.1 1.4-1.8 2.1-.1-.8-.5-.5-1.1-.4-1.8.5-1.5-1.3-.6-2.4 0 1.9 2.3 1.2 3.5.7z" class="st0"/><path d="M97 79.7c-3-1.8-5.1-1.8-8.5-1.9-3.1-.4-3.6-2.9-.6-4.2-.2 1.1 1.1 1.9 2.8 2.6 2.2.6 4.4 1.7 6.4 2.7-.8-1-1.5-1.3-2.7-1.8-1.1-.5-2-.9-2.6-2 3.8 2 4-1.6-.5-1.1-1.5.3-1.9.3-3.1-.7-.4-.7-.4-.8-1.1-1.2 1.2.1 1.5.1 2-1.1.8.6 1.3.6 2 0 .8.7.7.9 0 1.5.7 0 2.1.1 1.8-1 2.8.3 2.5-1.1 1.4-3.2 1.3.6 1.5.5 2.8.2-1-.6-1.2-.8-1.4-1.9-1.9-.1-2.1-.2-3-1.8 1.5.5 1.9.4 3.1-.7.5 1.5.8 2.1 2.5 1.7-.9 1-.9 2.5.7 2 2.1-1 1.4.9.8 2.1 1.6-1.2 2.6-3 2.7-5 .3 1 .3 1.3 0 2.2 1.2-1.2 1.1-1.6.7-3.2-.6-1.7-.5-2 .2-3.7.4 1 .8 2.8 2 1.5.1 4.5-2.9 7.7-6.6 10 .9.8 1.6 1.5 2.7 2.1 1.7 1.4.1 1.6-1.3 1.3 1.8 1 3.2 1.8 4.7 3.2 1.5 2.5-1.7 2.5-3.4 2.1.8 1.1 0 1.4-1.1 1-1.2-.5-2.2-1-3.4-1.7z" class="st3"/><path d="M93.8 76.2c2 1.2 3.6 1.5 5.9 1.7-2.1-1.1-3.6-1.4-5.9-1.7zm-4.7-.2c.8.2 1.4.7 1.3 1s-.8.4-1.6.1c-.8-.2-1.4-.7-1.3-1 0-.3.8-.4 1.6-.1z" class="st9"/><path d="M102.2 69.9c-1 .9-1.9 1.3-3.1 1.9 1.2.8 2.5.6 3.9.5-.7-.9-.8-1.3-.8-2.4z" class="st0"/><path d="M45.4 58.4c1.7 1.5 1.8 2.7 2.3 4.8.1-1.9.3-3.8.2-5.6-1.2-.1-1.7-.7-2.6-1.5.5 1.1.6 1.1.1 2.3z" class="st3"/><path d="M32.1 54.1c-1.4 3.2-2 4.7-1.9 9 1.9-1 2.3-1.6 3.2-3.5 1.8-4.8 4.1-8.7 8.5-11.4l-1.5.3c3.1-2.5 4.8-3.1 8.7-3.2-1.2 1.3-1.1 1.5-1.1 3.3 1.5-4.4 5.4-4.1 9.5-4.3-5.8-.9-9.7-1.5-15.1.6-5.9 3.2-7.5 3.5-10.3 9.2zM59 44.4c7.1.3 9.3.1 17.4-2.7-3.1 2-4.8 3.2-8.3 3.8-2.3.4-3.9.7-6 1.8-1.4.3-2.1.4-3.4 0 2.4 6-7.3.7-.4-.2-1.4-1.4-1.1-2.1.7-2.7z" class="st10"/><path d="M84.5 54.7c2.1 1.1 2.9 1.5 3.9 3.7 2.3-.1 3.3 1.4 4.2 3.3-4 2-7.3 0-7.6-4.4 2.5.8.2-2-.5-2.6z" class="st1"/><path d="M102 68.8c-1 1.1-2.2 2-3.4 2.8l.6.6c-1.2-.5-2.1-1-3.2-1.7 2.6.2 3.9 0 6-1.7z" class="st0"/><path d="M90.8 57.5c2.6-.2 3.9.1 5.6 2.2-1-3.5-2.4-3.7-5.6-2.2zm5.3 2.4c.9.7 1.4 1.6 1.1 2.1s-1.4.3-2.3-.4-1.4-1.6-1.1-2.1c.3-.4 1.3-.2 2.3.4zm-9.4 2.3c3.9 1.9 4.1 3.9.9 6.6 1-2.8 1.1-4.2-.9-6.6zm.7-11.5c1.7.8 2.7 2.2 2.3 3.1-.4.9-2.1 1-3.8.2-1.7-.8-2.7-2.2-2.3-3.1.4-.9 2.1-1 3.8-.2z" class="st1"/><path d="M115.3 41.2c.1.7.5 2.2 1.1.9-.5-.2-.8-.6-1.1-.9zm3.9.8c.7-.7 1.6-.3 1 .6-.6.5-1.2.3-2 .1-.6.2-1.7.5-1.6-.5 1.2.3 1.8.6 2.6-.2zm2.9-2.2c.1 1-.1 1.2-.9 1.6.5-.5.7-.9.9-1.6zm-3.3-4.7c-1.5.7-1.4 1.4-1.5 2.9-.8-1.7-.7-5 1.5-2.9z" class="st11"/><path d="M118.2 35.2c-.6.4-.7.6-1 1.2.1-.9 0-1.5 1-1.2z" class="st0"/><path d="M121.2 36.4c.4.9.9 1.7-.3 2.1-.1 1.1-.3-.1-.3-.6-.1-.6-.1-.8-.4-1.3.3-1.1.5-.9 1-.2z" class="st11"/><path d="M105.7 21.4c.2 1.9-.3 2.7-1.5 4.1 1.2-.9 2-1.3 3.5-1.3.5 1.1.6 1.4 1.7 1.8-.6.5-.7.5-1.5.3.9 1.7 2.9 1.3 4.3 2.8-1.1-1.9-.6-4.5.8-2.2-.1-2.4 1.3-.1 1.5.9-.1-.8-.7-3.1.8-2.5l-.9-1.4c-.3 1.5-1 1.4-2.3 1.4l.7-.2c.2-1.7.2-1.9-1-3.1-.5.9-.9.5-1.8.2-1.8.3-2.7.2-4.3-.8z" class="st3"/><path d="M106.1 22.3c-.1.9-.1 1.2-.6 1.9 1.1-.9 2-1.8 2.7-.1.6 1.2 1.4 2.4 2.8 1.6l1.3-.2-.6-.1c0-.9 0-1.5.8-.6.1-1.1-1.4-1.7-.3-1.9-1.5.2-2.5.7-3.8.4-.9-.3-1.3-.9-2.3-1z" class="st9"/><path d="M110 23.9c.3 0 .6.2.6.5s-.3.5-.6.5-.8-.5-.8-.8.5-.2.8-.2z" class="st10"/><path d="M110.6 24.7c.2 0 .3.1.3.2s-.1.2-.3.2c-.2 0-.5-.2-.5-.4h.5z" class="st10"/><path d="M112.3 19c.4 1.1.5 1.8 1.4 2.5.4 1.3.7 2.1 1.7 3l.6 1.5c.1-2.9-1.3-5.4-3.7-7zm3.8 7.3c.3 2.6.9 3.8 2.5 5.9.7 1 1.2 1.8 1.7 2.8l.3-.1c-.6-1.6-1.2-2.7-2.3-4.1-.9-1.5-1.6-2.9-2.2-4.5z" class="st2"/><path d="M120.6 36.1c.2-.1.4.1.5.5.1.3.1.6-.1.7-.2.1-.4-.1-.5-.5s0-.7.1-.7z" class="st1"/><path d="M96.5 23.8c-1.9 2.4-3.1 4.6-4.4 7.4-2.8 7.2-7.1 9.3-14.8 10.1 5.7-3.2 10-6.1 13.9-11.5 1.7-2.4 3.1-4.1 5.3-6z" class="st10"/><path d="M62.3 95.6c2.3 1.7 4.7 3.4 7 5.1 1.8 2 .5 3.3-.8 1.5-.8.8-1.2.4-2-.3-4.1-4.4-4.1-3.9-.7.3-2.5-1.6-3.4-3-5.2-5.3.1-1.3.4-2 1.7-1.3z" class="st1"/><path d="M37.4 112.1c.5.6 1.4 2.3 1 3.1h-.6c-.4-1.3-1-1.7-1.9-2.6.5-.2 1-.3 1.5-.5z" class="st12"/><path d="M34.3 113c1.1 1.3 1.5 1.9 3.3 2.2-.8-1-1.3-1.7-2.4-2.4l-.9.2zm34.2-7.4c1 .4 1.8.4 2.9.4 1.3 4.2-2.1 1.7-2.9-.4z" class="st5"/><path d="M72.1 105.8c1.3 1.4 1 2.5.7 4.2-.2-1.6-.2-2.6-1-4.1l.3-.1zm38.6-6.7c2.3 1.6 2.2 3.1 1.8 5.7-1.3-1-2.2-2-3.1-3.3.2-1.3.2-1.7 1.3-2.4zm2.8 1.3 1 .3c.6 1.7.4 3.7.4 5.5-1.1-.7-.8-1-.5-2.2-1.6-.7-1.4-2.2-.9-3.6zm-6.9-9.1c-.1 1.7-.1 2.2 1.6 2.9-1.3 1.1-1.8.8-2.5-.7-.4 2.1-1.1 2.4-2.8 3.6 0-2.1.4-3.1 1.5-4.8.8-.8 1-.9 2.2-1z" class="st12"/><path d="M50.3 121.7h-42c-2.2 0-4-1.8-4-4v-42c0-2.2 1.8-4 4-4h42c2.2 0 4 1.8 4 4v42c0 2.2-1.8 4-4 4z" opacity=".3"/><path fill="#273445" d="M46 126H4c-2.2 0-4-1.8-4-4V80c0-2.2 1.8-4 4-4h42c2.2 0 4 1.8 4 4v42c0 2.2-1.8 4-4 4z"/><linearGradient id="SVGID_1_" x1="25" x2="25" y1="12.441" y2="41.541" gradientTransform="matrix(1 0 0 -1 0 128)" gradientUnits="userSpaceOnUse"><stop offset="0" stop-color="#e6a500"/><stop offset="1" stop-color="#d4ff47"/></linearGradient><path fill="url(#SVGID_1_)" d="m16.7 86.4 12.5 21.7-4.3 7.4L8.2 86.4h8.5zm14.6 18.3 10.5-18.2H27v10.8l4.3 7.4z"/></svg>
