<svg class="S" xmlns="http://www.w3.org/2000/svg" viewBox="0 0 126 126"><g style="isolation:isolate"><g id="design"><path d="M73.78,55.25h0c-.34-1.77-4.6-3.12-9.54-3.12S55,53.48,54.7,55.25h0L39,91.46c-1.34,7.07,15.42,25,25.25,31.54,9.43-5.52,26.58-24.47,25.24-31.54Z" style="fill:#231f20"/><path d="M74,45.17h0C73.67,43.35,69.3,42,64.24,42s-9.43,1.37-9.78,3.19h0L38.37,91.44c-1.37,7.25,15.8,16.41,25.87,23.13,9.66-5.65,27.23-15.88,25.86-23.13Z" style="fill:#3b605f"/><path d="M81.75,75c0,4-9.29,10.21-17.52,10.21S47.13,79,47.13,75c0,0,3-3.17,15.58-3.4S81.75,75,81.75,75Z" style="fill:#d1d3d4;mix-blend-mode:multiply"/><path d="M64.62,34.47h-.37a87.56,87.56,0,0,0-14.51,1.16s2.13,12.7,2.66,21.81a56.13,56.13,0,0,1-2.38,18c0,3.3,7.56,7,14.42,7s14.42-3.69,14.42-7a52.68,52.68,0,0,1-2.43-18.21,161.79,161.79,0,0,1,2.71-21.62A87.76,87.76,0,0,0,64.62,34.47Z" style="fill:#f6a714"/><polygon points="68.94 38.59 69.12 27.17 59.81 28.01 59.99 38.59 64.36 48.63 68.94 38.59" style="fill:#ba6436"/><path d="M73.36,60.46s-1-22.88-3.08-25.8l-6.3,6-5.38-6-4,5.54Z" style="fill:#f6a714"/><path d="M72.7,52.2S95.12,42.14,96.3,40.85s4.68-20,4.68-20l-6.93-1.76s-4,15-5.08,15.31-12,1.71-12,1.71Z" style="fill:#f6a714"/><path d="M70.38,15.47c-.25,3-4.36,5-8.4,4.63s-8-3-7.75-6,4.64-5.29,8.67-4.95S70.64,12.44,70.38,15.47Z" style="fill:#4a4144"/><path d="M54,30.38a19,19,0,0,0,2,4.46c2.24,3.47,6.77,3.32,9.53.32a17.29,17.29,0,0,0,3.6-6.81A8.55,8.55,0,0,1,66.88,30c-1.84,2.77-5.11,2.44-6.78-.53-.54-.95-1-1.19-1.88-.31a3.9,3.9,0,0,1-3.42,1.33A4.22,4.22,0,0,1,54,30.38Z" style="fill:#de7740"/><path d="M72.69,20.09l0,2.84s-1.93,5.19-5.77,7c-1.85,2.77-5.12,2.44-6.78-.53-.55-1-1-1.19-1.89-.31a3.92,3.92,0,0,1-3.41,1.33c-3.76-.29-4-5.63-3.73-8.45C51.05,22.06,66.17,28.57,72.69,20.09Z" style="fill:#4a4144"/><path d="M51.7,24.4c.09,2.4.75,5.23,3.13,5.41a3.11,3.11,0,0,0,2.84-1.11c1.15-1.23,2.24-.94,3,.44,1.51,2.62,4.46,2.74,5.81,0a6.82,6.82,0,0,0,.54-3.54c-.06-.7-.38-.91-1.13-.78a18.79,18.79,0,0,1-2.13.28,28,28,0,0,1-11.06-1.71C51.79,23.16,51.66,23.61,51.7,24.4Z"/><path d="M52.28,24.38c.06,1.36.34,3.65,1.62,4.49A2.6,2.6,0,0,0,57,28.49a3.59,3.59,0,0,1-2.89-.11c-1.32-.75-1.63-2.51-1.85-4Zm6,3.11c1.07-.46,2.13.05,2.88,1.34,1,1.78,2.87,2.28,4.11,1a2.82,2.82,0,0,1-3.75-1.33,1.34,1.34,0,0,1-.07-.18c-.78-1.28-2.08-1.92-3.17-.84Z" style="fill:#fff"/><path d="M72.69,20.09c-.74-4.88-3-8.09-5.83-9.63a11.9,11.9,0,0,0-7.86,5,10.29,10.29,0,0,1,4.28-5.72,11.8,11.8,0,0,0-8.21,6.08,11.26,11.26,0,0,1,3.43-6c-4.23,1.53-7.67,5.83-7.44,12.25,0,0,15.11,6.57,21.64-2ZM65.11,35.54l.43-.43a17.23,17.23,0,0,0,3.6-6.81,16.59,16.59,0,0,0,3.51-5.42c-.89,10.68-7.56,12.72-7.56,12.72Z" style="fill:#231f20"/><path d="M58,31.9c1,.65,1.37.58,2,.17A1.29,1.29,0,0,1,61.28,32a3.15,3.15,0,0,0-1.18.76C59.25,33.49,58.36,32.94,58,31.9Z" style="fill:#954911"/><path d="M73.05,57.86c.68-4-.91-5.5.06-10.67a31,31,0,0,1-8.55-.11,8.88,8.88,0,0,0,2.32,1.22c-3.86.23-6.47-.3-11.65-1.85C55.32,51,56.88,53,56,57.27c2.06,1.09,4.89-.39,7.12.28a13.85,13.85,0,0,1-3.76-3.1C67.34,59.15,71.82,58.14,73.05,57.86Z" style="fill:#d1d3d4;mix-blend-mode:multiply"/><path d="M3.6,88.16a7.89,7.89,0,0,1,2-11l9-4.17a6.31,6.31,0,0,1,8.78,1.62h0a6.31,6.31,0,0,1-1.62,8.78l-7.23,6.77a7.89,7.89,0,0,1-11-2Z" style="fill:#1e495c"/><path d="M122.4,6.42a7.89,7.89,0,0,1-2,11l-9,4.17a6.31,6.31,0,0,1-8.78-1.62h0a6.31,6.31,0,0,1,1.62-8.78l7.23-6.77a7.89,7.89,0,0,1,11,2Z" style="fill:#1e495c"/><rect x="61.53" y="-3.83" width="2.48" height="102.56" transform="translate(66.28 -31.16) rotate(55.47)" style="fill:#1e495c"/><path d="M27.64,65.44s-1.72,3.74.91,5.46,7.07,3.33,4.34-6.78S27.64,65.44,27.64,65.44Z" style="fill:#de7740"/><path d="M89.57,25.24c-.16,1.51,1.08,4.68,5.15,3.24s11.16-8.61,1.17-9.77C92.82,18.35,89.82,23,89.57,25.24Z" style="fill:#de7740"/><path d="M55.62,35.39a15.3,15.3,0,0,0-4.35,0c-6.39.89-15,9.07-16,9.87-1.37,1.1-7.74,19-7.74,19L34.07,67s6.34-14.21,7.4-14.34,12.39-6.76,12.39-6.76Z" style="fill:#f6a714"/></g></g></svg>
