<svg class="S" xmlns="http://www.w3.org/2000/svg" xmlns:xlink="http://www.w3.org/1999/xlink" xml:space="preserve" id="design" x="0" y="0" version="1.1" viewBox="0 0 126 126"><defs><path id="reuse-0" d="M30.3 59c0-.2-.2-.3-.3-.2l-1.2.1c-.2 0-.3.2-.2.3 0 .1.2.3.3.2l1.2-.1c.1 0 .2-.1.2-.3z" class="st8"/></defs><style>.st0{fill:#6f2200}.st1{fill:#303030}.st2{fill:#330e01}.st3{fill:#191919}.st4{fill:#97380e}.st7{fill:#004523}.st8{fill:#535353}.st10{fill:#c8c5c1}.st13{fill:#396f53}.st14{fill:#ffbd95}.st18{fill:#818181}</style><path d="M63.6 56.9c3.9.9 6.1 5.9 6.3 8.7.2 2.8-2.4 6.4-3.7 7.4-3.9 2.8-8.4 5-8.5 5.4-.1.6 1.4 11.9 1.1 13.1-.1.5-.4 2-.5 2.3-.1.3-2.9-1-2.9-1s.1-2.1.4-2.7c1.2-2.6-2.9-11.8-2.9-12.6 0-.8 2.8-3.3 3.1-4.6.3-1.3-2.6-6.7-2.6-9.4 0-2.6 2.8-8.3 10.2-6.6z" class="st0"/><path d="M55.3 92.3s-.8 1.1-.7 1.3c.1.3 2.5 3.6 3.1 3.6.6.1.4-1.9.6-2.4.2-.6.1-1.7.1-1.7l-3.1-.8z" class="st1"/><path d="M57.9 61.3s.1-3.4-3.4-4.1c-3.4-.6-7.9 4.3-14.3 3.9-2.4-.1-5.2-4.4-5.2-4.4s-.5 1.6 0 3.1 1.1 2.1 1.1 2.1c.1.2-1.1-.2-1.7-.8-.4-.3-.9-1.3-.9-1.3s-.4 2.6 2.3 4.5c.2.1-1.6.7-1.6.7s1.1 1.5 3.1 2.4c1.8.8 4 1.1 4 1.1l-2.8 1.6s3.1.1 4 0c.6-.1 2.2-.9 2.2-.9L43.6 71s1.8.4 5.7-2.4c3.8-2.6 8.6-7.3 8.6-7.3zm52.3-26.9c.1.4-2.9 3.9-6.4 2.3-3.5-1.6-6.2-4.5-8.4-4.3-2.1.2-3.7.6-5.1-.7-1-.9-1.3-2-1.3-2s1.6 1.6 2.5 1.7c1 .1 2.1-.4 3.5-.8.6-.2 1.7.1 1.7.1s-1-1.1-2.1-1.3-2.1-.5-2.6-1.1c-.5-.6-.4-1.9-.4-1.9s.5 1.1 1.3 1.2c.8.1 2.9 0 4.2 1.1 1.3 1.1 1.4-.5.3-1.6-.4-.5-1.8-.4-1.8-.4s1.5-1.2 2.8.2c3.8 4 3.8 3.1 5.4 3.1 5 .2 6.4 4.4 6.4 4.4z" class="st2"/><path d="M97.1 32.3c.3.2-.1 4.8-3.9 5.5-3.8.7-7.7-.1-9.3 1.3-1.6 1.4-2.7 2.6-4.6 2.4-1.3-.2-2.2-.8-2.2-.8s2.3.4 3 0c.9-.5 1.5-1.5 2.4-2.7.4-.5 1.5-.9 1.5-.9s-1.5-.3-2.5.1-2 .8-2.7.6c-.8-.2-1.4-1.3-1.4-1.3s1.1.6 1.8.2c.8-.4 2.3-1.7 4-1.5 1.7.2.9-1.2-.6-1.5-.6-.1-1.7.8-1.7.8s.5-1.8 2.5-1.4c5.4 1.1 6.2-.5 6.2-.5l7.5-.3z" class="st2"/><path d="M104.2 32.8c.2.3-1.7 4.5-5.5 4s-7.3-2.6-9.3-1.8c-2 .8-3.4 1.6-5.1.7-1.2-.6-1.8-1.5-1.8-1.5s2 1.1 2.9.9c1-.2 1.9-1 3.1-1.8.6-.4 1.7-.4 1.7-.4s-1.3-.8-2.4-.7c-1.1.1-2.2.1-2.8-.3-.7-.4-.9-1.7-.9-1.7s.8.9 1.6.8c.8-.1 2.7-.8 4.3-.1 1.5.7 1.2-.9-.1-1.6-.6-.3-1.9.2-1.9.2s1.1-1.6 2.8-.6c4.8 2.8 6 1.5 6 1.5l7.4 2.4z" class="st2"/><path d="M101.4 62.7c-1.1.7 1.1 4.7 1.3 4.1.1-.3.5-1.1 1-1.9-.6-1-.4-2.4-1.1-3.1-.2.2-.6.5-1.2.9z" class="st3"/><path d="M104 57.5c-.6-2-.3-3.9-1.5-4.4-1.1-.5-2.8-1.5-4.3-2.2-1.6-.7-5-3.2-5-3.2L90.7 53s1.8 2.3 4 2.3 5.4-.1 5.6.1c.3.3 2.3 6.1 2.3 6.1s0 .1-.1.2c.7.8.6 2.1 1.1 3.1.6-1.1 1.4-2.3 1.6-2.7.2-.2-.6-2.4-1.2-4.6z" class="st0"/><path d="M51.6 99.4c.6.6 3 .4 3.5.3.4-.1-.6-2-1.1-3.1-.9.1-1.8.2-2.5.2-.1 0-.3 2.1.1 2.6z" class="st1"/><path d="M106.3 32.8c-1.6-.5-10.5.8-13.7 1.2-3.2.4-15.1 3-16.2 4.4-1.1 1.4-4.9 7.3-7.3 10.2-1.2 1.5-9.1 6.2-10.8 7.1-1.7.8-4.1 4.6-4.8 6.4-.6 1.8.9 13.8.6 15.4-.5 1.6-3 4.5-3.1 6.5s-.2 12.4-.2 12.4l.6.5c.7-.1 1.6-.1 2.5-.2l-.3-.6s.8-11.4 1.3-11.8c.5-.4 4-3.9 5.3-6.1C61.4 76 66.5 68 66.5 68s8.8-1.2 13-3.6c4.2-2.4 12.8-7.3 14.9-10.6 2-3.2.2-8.4 1.3-8.9s3-1.4 3.6-1.7c1.3-.6 3.4-.7 6.7-1.8 2.9-1.1 1.9-8.1.3-8.6z" class="st4"/><path d="M94.7 68.8c-.4.6.3 3.3.6 3.5.2.1 1.2-.9 1.9-1.7-.5-1-.6-1.9-.7-3.1-.6.3-1.5.9-1.8 1.3z" class="st1"/><path d="M99.5 58.9c-.6-.4-6.1-2.8-7.2-3.3-1.1-.5-1-3.2-1-3.2l-5.7 4.1s1.8 2.2 3.1 3.4C90 61 97 61 97.4 62.1c.5 1-.1 5.2-.4 5.3-.1 0-.3.1-.5.2.1 1.2.3 2 .7 3.1l.5-.5c1-1 1.5-1.2 1.9-1.8.4-.6.4-1.5.5-3.1.1-1.3.9-3.1.7-3.8-.1-.8-.7-2.1-1.3-2.6zm4.2-25c-.6 1.6-.3 6.8 1.1 8.4 1.3 1.5 4.4 1.9 5.8 2.3 1.4.4 2.6.5 3.1 1.1.5.6.6 1 .9 1.2.3.2 2.8-.2 3.2-.5.4-.3.5-1.2.8-1.6s.5-1.3.2-1.6c-.3-.3-.9-1.5-1.7-1.9-.8-.4-3.1-2.6-4-3.4-.8-.8-2.2-3.4-3.9-4.1-1.7-.7-4.8-1.9-5.5.1z" class="st4"/><path d="M105.9 34.4c-.5.3-1.4-.8-1.4-1.7 0-.9.4-2.5.9-2.9.5-.5.4.6.8 1.2.5.5 1.3 2.4-.3 3.4z" class="st0"/><path d="M113.6 45.2c-.1 0-8.1-1.9-12.2-3.3-7-2.4-10.3-3.8-10.3-3.8l.2-.5s3.3 1.4 10.3 3.8c4.1 1.4 12.1 3.3 12.2 3.3l-.2.5zm.2-2s-.1-.9.7-1.9c.6-.9 1.2-1.2 1.2-1.2l.8.7s-.7.4-1.1 1c-.4.7-.6 1.7-.6 1.7l-1-.3zm-.2.3c0-.1-6.9-4.8-6.9-4.8l-.3.4 6.9 4.6.3-.2z" class="st3"/><path d="M108.4 44.1c0-.1-.8-1.3-1.4-3.3-.5-1.7-.2-2.9.1-4 .3-1.1 1.6-3.3 1.6-3.3l-.8-.3s-2 3-2 5.7 1.3 4.9 1.3 4.9l1.2.3z" class="st3"/><path d="M106 38.9c-.1 0-1.3-.9-2.1-2.2-1-1.5-1.6-3.9-1.6-3.9l.6-.1s.6 2.6 1.5 3.9c.8 1.2 1.7 1.7 1.7 1.7l-.1.6z" class="st3"/><path fill="#e8a900" d="M114.2 45.3c-.4 0-.7-.1-1-.4-.2-.2-.3-.5-.2-.8s.2-.6.4-.8c.5-.4 1.2-.3 1.6.2.2.2.3.5.2.8 0 .3-.2.6-.4.8-.1.1-.3.2-.6.2zm-.1-1.8c-.1 0-.3.1-.4.2-.1.1-.2.3-.3.5 0 .2 0 .4.2.5.2.3.7.3 1 .1.1-.1.2-.3.3-.5 0-.2 0-.4-.2-.5-.2-.3-.4-.4-.6-.3z"/><path fill="#ababab" d="M69.7 60.1c1.2-.1 3.6-1.2 7.7-4.4 1.4-1.1 4.7-3.5 7.3-7 1.3-1.6-9.3-9.2-9.5-8.9-.2.2-.4 2.7-4.2 6.3-4.9 4.8-8.3 6.7-8.3 6.7s5.8 7.4 7 7.3z"/><path d="M72.1 45.1s4.1 3.2 7.2 6.9c4.1 4.8 6.3 8.7 6.3 8.7l2.1-1.3s-1.9-4.6-6.5-9.6c-3.5-3.9-7.2-6.6-7.2-6.6l-1.9 1.9z"/><path d="M79.7 52.8s.4.7.4 1.2.2 1.7.3 2.1c.1.4 1 .6 1 .6l1.2-.4s-1-1.9-1.4-2.4c-.4-.5-.3-1.4-.3-1.4l-1.2.3z"/><path d="M72.5 46.6s.8 2 2 4c1.2 1.9 2.1 2.8 2.7 2.6.6-.2 1.5-.8 2.1-.6.6.2 1.3.5 1.6.2.4-.3-1.8-3.5-3.4-5.5C76 45.3 75 45 75 45l-2.5 1.6z" class="st3"/><path d="M69.7 42.9c.1-.4 1-1 1.3-.9.5.1 1.7 1.4 1.8 1.7.1.3 1.1 1.4.3 2.2-.7.8-1.4.2-1.8-.2-.3-.5-1.8-2-1.6-2.8z" class="st1"/><path d="M72.4 43s1.5 1.7.6 2.6c-.7.6-1.3 0-1.5.2-.2.2-.4.8-.7.9-.3.1-1.3.4-1.6.7-.2.3-2.3 3-1.9 3.4.4.4 3.5.9 5.1-.7 1.6-1.6 1.1-3.1 1.5-3.4.4-.3 2-.5 1.8-1.5-.1-.6-1.9-3.4-3.3-2.2z" class="st3"/><path d="M70 43.9s-1.3 3.8-2.7 4.7c-2.7 1.7-3.7 1.2-4 2.2-.1.5 1.7 1.6 3.1.7 1.4-.9 6.4-5.8 6.4-5.8s-.8.2-1.6-.6c-.9-.7-1.2-1.2-1.2-1.2z" class="st1"/><path d="M9.8 55.4c.9-1.1 2.5-.6 4.2.6 1.7 1.1 5.9 3.8 6.6 4.7.7.9.5 2.8-1.1 2.6-1.6-.2-6.5-2.2-8-3.2s-3.7-2.3-1.7-4.7z" class="st7"/><use xlink:href="#reuse-0" class="st8"/><path d="M30.3 58.5c0-.2-.2-.3-.3-.2l-1.2.1c-.2 0-.3.2-.2.3 0 .1.2.3.3.2l1.2-.1c.1 0 .2-.1.2-.3z" class="st8"/><path d="M30.3 58c0-.2-.2-.3-.3-.2l-1.2.1c-.2 0-.3.2-.2.3 0 .1.2.3.3.2l1.2-.1c.1 0 .2-.1.2-.3z" class="st8"/><path d="M30.2 57.5c0-.2-.2-.3-.3-.2l-1.2.1c-.2 0-.3.2-.2.3 0 .1.2.3.3.2l1.2-.1c.1 0 .2-.1.2-.3z" class="st8"/><path d="M26.1 58.2s1.7-.9 2-1c.4-.1 1.8 0 1.8 0s-.4.5-.3.9l.4 1.2s-1.2.5-1.8.5c-.6 0-1.5.2-1.5.2l-.6-1.8z" class="st8"/><path d="M26.4 57.8s-1.8.4-3.9 1-4 1.8-4.2 2.9c-.2 1 .7 1.8 2 1.5 1.3-.2 7-2.9 7.2-3 .1-.1-1.1-2.4-1.1-2.4z" class="st7"/><path fill="#ffa47c" d="M11.7 57.9s.3-.9.6-1.5C13 55 14 53.6 14 53.6l-2.9-3s0 2-1.8 3.7c.4 1.4 1.1 2.9 2.4 3.6z"/><path d="M38.1 84s-1.3.4-1.4.6c-.1.3-.2 4.6.2 5 .4.5 1.5-1.3 2-1.6.5-.3 1.1-1.3 1.1-1.3L38.1 84z" class="st1"/><path d="M44.5 89.3c-.2 5.8-5.1 10.3-10.8 10.1-5.8-.2-10.3-5.1-10.1-10.8.2-5.8 5.1-10.3 10.8-10.1 5.8.2 10.3 5.1 10.1 10.8zm-1.4-18.7s1 .1 1.5-.6c.5-.6 1.3-3.8 1.7-3.8.3-.1 1.5 2.6 1 4.2-.1.2-.2.8-.2.8l-.6 1.9s.6.5.6.7c-.2.6-.6 1.4-.6 1.4s-.9.3-1.6.2c-.7-.2-2.6-.8-2.6-.8l.8-4z" class="st1"/><circle cx="34" cy="88.9" r="8.8" class="st10" transform="rotate(-41.867 34.022 88.86)"/><path d="M18.9 68.4s7.8-.2 10.6-.1 13.8 1.4 13.8 1.4l-.1 5.3s-11.8-1.4-13.1-1.6c-1.3-.2-10.3 2.3-12.8 2-2.4-.4 1.6-7 1.6-7z" class="st10"/><path fill="#1d5b3b" d="M19 68.3c0-1-1.1-2.5-1.5-2.9-.7-.6-2-5.6-2.5-7.1-.4-1.5-3.3-4.7-5.7-4.3 0 0-3 2.2-2.2 8.2.3 2 4 11.1 5.5 10.5 3.2-1 4.7-1.9 6.4-4.4z"/><path d="M21.4 69.2c-.3-.6-1.8-.4-2.4-.9-2.2 2-3.5 3-6.3 4.4.6.8 1.1 1.4 1.5 1.6 2 1.4 4.4.8 5.3.3 1-.5 2.8-3.9 1.9-5.4z" class="st10"/><path fill="#a09b95" d="M43.1 73.1c-.1 0-12.9-1.8-14.1-2-.5-.1-2.6.3-4.8.7-3 .6-6 1.1-7 .9-1.7-.3-2-1.5-2-1.6h.2s.2 1.1 1.8 1.4c.9.2 4.1-.4 6.9-.9 2.3-.4 4.4-.8 4.9-.7 1.2.2 13.9 2 14.1 2v.2z"/><path d="M9.8 56.4c.9-1.1 2.5-.6 4.2.6 1.7 1.1 5.9 3.8 6.6 4.7.7.9.5 2.8-1.1 2.6-1.6-.2-6.5-2.2-8-3.2s-3.7-2.3-1.7-4.7z" class="st13"/><path d="M16.2 75.6h12.1v1.2H16.2z" class="st7" transform="rotate(-10.078 22.263 76.214)"/><path d="M12.2 73.4c-.3 0-.4.3-.2.5.7.8 2.4 2.6 4.1 3.2.4.1 11.6-2.5 11.6-2.5L25 73.2c-1.7-.9-3.6-1.2-5.5-.9l-7.3 1.1z" class="st1"/><path d="M14.7 47.5c-1-.7-3.7-1.2-4.9.6-1.1 1.9-.4 3.6.4 4.6.6.8 1.2 1.2 2.3 1.6.2.1 2.2.2 2.6.1.3-.1.3-2.1.4-2.1.1 0 .3-.1.3-.3 0-.2-.4-1.6-.3-1.8 0-.2.4-1.8-.8-2.7z" class="st14"/><path fill="#8d3b26" d="M15.4 48.3s-1.6-.7-3.3 1.2c-.4.4.5 1.9.5 2-.1.2-1.6-1-1.5-.8.7 1.7.2 2.8.1 2.8-.5.1-2.3-2.3-1.7-4.4s2.7-2.5 3.3-2.5c.4.1 2 .1 2.6 1.7z"/><path d="M11.9 51c.2.6.4 1.3.1 1.4-.3.1-.7-.2-1-.8-.2-.6-.2-1.1.1-1.2.4 0 .6.1.8.6z" class="st14"/><path fill="#383838" d="M10.3 51.4c.1 0 .6 1.3 1.2 1.9.6.6 1.5 1.1 2.6 1.2h.5l-.4-.2c-1.2-.3-2-.9-2.1-.9 0-.1.3-1.2.4-2v-1.1l-.4.1s.1.5 0 .9c-.1 1-.5 1.8-.5 1.8s-.3-.4-.6-.7c-.3-.4-.5-1.1-.5-1.1l-.2.1z"/><path d="M16.7 48.7c0-.2-.8-.3-.9-.5-.2-.9-1.1-2.6-3.6-2.3-3.5.3-4.4 3.9-3.1 5.7.3.4.6.8.7.9.2.1.3-.5 1.2-1.2.7-.5 1.4-.9 2.1-1.2 1.4-.4 3.6-1.1 3.6-1.4z" class="st7"/><path fill="#5d8972" d="M9 54.3c.1 0 .7-1.1.9-1 .2.1 1.6 1 2.2 1.4.6.4 1.5.5 1.6.6v1.2L9 54.3zm5.1 5.4c-.3.5-1.1.5-1.9.1-.8-.4-1.2-1.2-1-1.7.3-.5 1.1-.5 1.9-.1.8.4 1.2 1.2 1 1.7z"/><path d="m33.8 89.4-11-13.2 43.6-32 6.9-2.2.4 1.1-6.8 2.2-17.7 13-15.4 31.1zm-9.2-13 9 10.8 13.5-27.3-22.5 16.5z" class="st7"/><path d="M36 88.7c0 1.1-.9 2-2 2s-2-.9-2-2 .9-2 2-2 2 .9 2 2z" class="st1"/><path d="M113.2 44.5c-1.6.5-3.5 1.1-5.6 1.6-4.8 1.1-28.9 4.2-50.1 7-12.6 1.6-23.4 3-28.2 3.7-.5.1-.9.3-1.1.7-.4.7.1 1.6.1 1.7l.4-.2c-.1-.2-.3-.8-.1-1.2.1-.2.3-.4.7-.4 4.8-.7 15.6-2.1 28.2-3.7 17.5-2.2 36.8-4.7 45.9-6.2 1.9-.3 3.4-.6 4.3-.8 2.1-.5 4-1.1 5.6-1.6 0-.3 0-.5-.1-.6z" class="st3"/><path d="M30.3 60c0-.2-.2-.3-.3-.2l-1.2.1c-.2 0-.3.2-.2.3 0 .1.2.3.3.2l1.2-.1c.1 0 .2-.1.2-.3z" class="st18"/><path d="M30.3 59.5c0-.2-.2-.3-.3-.2l-1.2.1c-.2 0-.3.2-.2.3 0 .1.2.3.3.2l1.2-.1c.1 0 .2-.1.2-.3z" class="st18"/><use xlink:href="#reuse-0" class="st18"/><path d="M30.2 58.5c0-.2-.2-.3-.3-.2l-1.2.1c-.2 0-.3.2-.2.3 0 .1.2.3.3.2l1.2-.1c.1 0 .2-.1.2-.3z" class="st18"/><path d="M26.1 59.2s1.7-.9 2-1c.4-.1 1.8 0 1.8 0s-.4.5-.3.9l.4 1.2s-1.2.5-1.8.5c-.6 0-1.5.2-1.5.2l-.6-1.8z" class="st18"/><path d="M26.4 58.8s-1.8.4-3.9 1-4 1.8-4.2 2.9c-.2 1 .7 1.8 2 1.5 1.3-.2 7-2.9 7.2-3 .1-.1-1.1-2.4-1.1-2.4z" class="st13"/><path d="M50.3 121.7h-42c-2.2 0-4-1.8-4-4v-42c0-2.2 1.8-4 4-4h42c2.2 0 4 1.8 4 4v42c0 2.2-1.8 4-4 4z" opacity=".3"/><path fill="#273445" d="M46 126H4c-2.2 0-4-1.8-4-4V80c0-2.2 1.8-4 4-4h42c2.2 0 4 1.8 4 4v42c0 2.2-1.8 4-4 4z"/><linearGradient id="SVGID_1_" x1="25" x2="25" y1="115.559" y2="86.441" gradientUnits="userSpaceOnUse"><stop offset="0" stop-color="#e6a500"/><stop offset="1" stop-color="#d4ff47"/></linearGradient><path fill="url(#SVGID_1_)" d="m16.7 86.4 12.5 21.7-4.3 7.4L8.2 86.4h8.5zm14.6 18.3 10.5-18.2H27v10.8l4.3 7.4z"/></svg>
