<svg class="S" xmlns="http://www.w3.org/2000/svg" xml:space="preserve" id="design" x="0" y="0" version="1.1" viewBox="0 0 126 126"><style>.st1{fill:#f59374}.st2{fill:#102740}.st3{fill:#fff}.st4{fill:#948065}.st6{fill:#c6ac87}</style><path fill="#402415" d="M29.8 82.8s1.9-1.5 9.6-.7c1.1.1 2.3-.1 3.3-.7 0 0-6.2 1.2-9.4-3.7 0 0 6.6 1.3 9.1 0 0 0-6.1-1.3-6.1-4.5 0 0 4.7 2.1 8.4.6.8-.3 2.5-1.2 3.5-1.2 0 0-6-.9-7.8-4.4 0 0 7.4 2.5 9.5.6 0 0-5.1-.3-5.4-1.7 0 0 3.8.6 7.8-2.9 1.7-1.5 4.3-2.9 9.4-1.4 0 0-3.9-2.9-8.2-2.4 0 0 3.4-2.5 11.2-.1 0 0-3.9-1.6-3.3-6.5 0 0 2.1 4.9 8.6 4.4 2.7-.2 7 .9 9.2 4.5 0 0-2.5-4.6-5.5-5.7 2.5.3 4.8 1.1 6.8 2.5.8.6 5.3 3.3 6 6.5-.3-2.1-.7-4.2-1.3-6.2 4.5 3 5.5 7.1 6.4 11.5l5.3 4s4.9 13 10.3 12.9l2.1 2s-.7 2.7.7 4c0 0-1.4 2.6-6.4 3.1l-1.2 2.3c-2.6.8-5.4.6-8-.5 0 0 .9-3.5-.5-5.1L92 92.6s-5.7-.4-8.6-1.3l-6.8-3.1s-2.9 6.2-6.7 14.4c-1 2.1-4.7 8.2-6.6 11.2 0 0-2.9 5.1-5.3 6.8 0 0-.1-.6-.3-1.5 0-.2-.1-.4-.1-.6-1.2-4-5.1-9.9-7.2-12.8-7.1-10.2-14.7-13.8-14.7-13.8l8.4-3.6c-1.3-.8-10.4-5.7-14.3-5.5z"/><path d="M47.9 75.2c1.8-1.1 3.9-1.8 5.9-2.1-2.4 0-4.8.6-7 1.6-2.3 1-4.8 1.2-7.3.7 0 0 5.2 3.4 9.4 1.2-1.8.5-3.6.4-5.3-.2 1.5-.1 3-.5 4.3-1.2zm-5.5 8.3s-4.9-.3-5.7-.3l7.5 2.9-2.8-2.1s5.5.9 7.5-2.1c-.1.1-2 2.1-6.5 1.6zm6.7-12.4c1.1-.7.9-.8 1.1-1.2-.7.5-3.1.9-5.5.4 0 0 3.3 1.7 5.3 1.6-.3-.2-.9-.5-.9-.8zm-5.5 8.5c.9-.9.7-1 .8-1.4-.5.7-2.8 1.6-5.2 1.6 0 0 3.6.9 5.5.4-.5-.2-1.1-.3-1.1-.6zm8.3-11.9c-.7.1-1.4.1-2.1-.1 1.5-.5 3.1-1.3 4.4-2.3 1.4-1.1 3.1-1.7 4.9-1.8-1.3-.3-3-.5-5.4 1.1-1.9 1.1-3.8 2.1-5.9 2.9.1 0 2.3.9 4.1.2z" class="st1"/><path d="M103.6 93.3s-.6-3.1-2.5-2.7c0 0-.9.8 2.5 2.7z" class="st2"/><path d="m90.3 78.6-3.6-1.7s.5 2.2 3.6 1.7z" class="st3"/><path d="M77.9 59s1.4 2.8 2.1 3.1c-.4-.5-.7-1.1-.9-1.8 0 0 4.1 2.9 5.1 4.3.1 0-1.6-3.4-6.3-5.6zm12.2 11.2c0-.2-.8-5.8-3.1-7.7 0 0 .3 3.8 1.1 5.2-.2-.9-.3-1.9-.3-2.9 1.1 1.4 2.3 5.4 2.3 5.4zm-31.7-9.9s2.1.7 3.8 1.5c-1.1-.7-1.9-1.1-1.9-1.1s3.3.5 5.5.9c0 0-4.8-1.7-7.4-1.3zm4.8-3.3c.6 1.9 2.2 3.3 4.1 3.6 0 0-1.9-.6-2.3-1.6 0 0 1.3 1.3 6.2 1 1.4-.1 3.8 0 5.4 1.1 0 0-1.9-2-6.7-1.9-2.5.3-4.9-.5-6.7-2.2z" class="st1"/><path d="M74.5 73.3c-2.7-1.6-2.9-3.7-2.9-3.7L45.4 88.1c-1.1 1.7-.5 5.5-.5 5.5.9-2.4 10.4-10 10.4-10C52.3 87.2 48 96 48 96c.4 4.5 7.3 9.2 7.3 9.2 1.8-.9 6.2-6.5 6.2-6.5 1.7-2.5 6.9-9.1 9.5-12.4-3.7 7.8-12.6 21.5-12.5 21.5l1.2 6.6c5.7-6.4 14.5-28 14.5-28l-2-2.9v.1L71 80.9c-4 1.1-10.7 8.6-10.7 8.6C63 79.3 74.5 73.3 74.5 73.3z" class="st4"/><path d="M107.5 90.6c-.7.2-3.7-1.8-3.7-1.8-2.5-1.5-8.1-10.1-8.1-10.1l-.6-2.5c-1.2-.4-7.2-5.5-8.8-6.8-1.4-1.6-3.6-3.9-5.1-4.2 0 0 .2.7.7 1.5 1 .5 2.7 1.6 3.4 2.5h-4l1.1 1.9c-1.1-1-10.8-6.4-10.8-6.4.1 2.9 5.3 7.4 5.8 7.4s2.7.5 2.7.5l.7 2.5 4.9.6 6.3 2.8s5 6 5.4 6.4c.4.5-5.9-4.9-5.9-4.9-3.7.5-7.4-3-7.4-3h-1.7c2.9 4.3 6.6 4.3 6.6 4.3-4.7.6-7.5-3-8.4-4.3h-3.2c1.5 3.3 3.5 6.4 6 9.1-2.9-.9-2.5-.9-6-3.2.9 2.5 3.1 4.5 4.8 4.9 1.7.3 4.1-.4 4.1-.4 3.3-.6 6.8.7 8.8 3.3H93c1.4.5 2.9 2.7 2.9 2.7l1.5 5.4c1 .7 3.8 0 3.8 0l.8-2.2-1.3-.5c0 2.3-1.5.6-1.5.6l-.8-2.3-1-1.5s1.2.7 1.4.9l2.2 1.5c1.3.4 2.8.5 4.2.1-.1-.7-.1-1.3.1-1.9l.6 1.7c.5-.1.9-.3 1.4-.6-.1-1.5-.1-2.8.2-4zm-7.2.4 3.9.8c-2.9 1.2-3.9-.8-3.9-.8z" class="st4"/><path fill="#6e3e25" d="M6 56.4s2.9-2.3 14.4-1.1c1.7.1 3.5-.2 5-1 0 0-9.3 1.8-14-5.5 0 0 9.9 2 13.6 0 0 0-9.1-2-9.1-6.8 0 0 7 3.2 12.6.9 1.2-.5 3.8-1.8 5.2-1.8 0 0-8.9-1.3-11.6-6.6 0 0 11 3.7 14.2.9 0 0-7.7-.5-8.1-2.5 0 0 5.7.9 11.6-4.4 2.5-2.2 6.5-4.3 14-2.1 0 0-5.8-4.4-12.3-3.6 0 0 5.1-3.7 16.8-.1 0 0-5.8-2.4-5-9.7 0 0 3.1 7.3 12.9 6.6 4-.3 10.4 1.3 13.7 6.8 0 0-3.7-6.9-8.3-8.6 3.7.4 7.2 1.7 10.2 3.8 1.2.9 8 4.9 8.9 9.7-.4-3.1-1-6.3-1.9-9.3 6.8 4.5 8.3 10.6 9.5 17.2l8 6s7.3 19.5 15.4 19.3l3.2 3s-1 4 1 6c0 0-2.1 3.9-9.6 4.7l-1.8 3.5c-3.9 1.2-8.1.9-11.9-.8 0 0 1.3-5.2-.7-7.7L99 71.1s-8.6-.6-12.8-2L76 64.4S71.7 73.6 66 86c-1.5 3.2-7 12.2-9.8 16.8 0 0-4.4 7.7-7.9 10.2 0 0-.2-.9-.4-2.3 0-.3-.1-.6-.2-.9-1.8-6-7.6-14.8-10.7-19.2C26.4 75.3 15 70 15 70l12.6-5.4c-2.1-1.2-15.7-8.5-21.6-8.2z"/><path d="M33.1 45c2.7-1.6 5.8-2.7 8.9-3.2-3.6 0-7.2.9-10.5 2.5-3.4 1.5-7.2 1.9-10.9 1 0 0 7.8 5.1 14.1 1.8-2.6.7-5.4.6-8-.3 2.2-.1 4.5-.7 6.4-1.8zm-8.2 12.5s-7.4-.5-8.6-.4l11.2 4.4-4.2-3.1s8.2 1.4 11.2-3.2c0 .1-2.9 3-9.6 2.3zm10-18.6c1.6-1 1.4-1.2 1.6-1.8-1 .8-4.6 1.4-8.2.6 0 0 4.9 2.6 7.9 2.4-.5-.4-1.4-.8-1.3-1.2zm-8.2 12.7c1.3-1.3 1.1-1.5 1.2-2.1-.8 1-4.2 2.4-7.8 2.4 0 0 5.4 1.4 8.2.6-.7-.3-1.6-.5-1.6-.9zm12.4-17.8c-1 .1-2.1.1-3.1-.1 2.3-.8 4.6-2 6.6-3.5 2.1-1.7 4.7-2.6 7.3-2.7-2-.4-4.5-.7-8.1 1.6-2.8 1.7-5.7 3.2-8.8 4.3 0 .2 3.3 1.5 6.1.4z" class="st1"/><path d="M116.4 72.1s-.9-4.6-3.7-4.1c0 0-1.4 1.3 3.7 4.1z" class="st2"/><path d="m96.5 50.1-5.4-2.6s.7 3.3 5.4 2.6z" class="st3"/><path d="M78 20.8s2.1 4.2 3.2 4.7c-.6-.8-1.1-1.7-1.4-2.7 0 0 6.2 4.3 7.7 6.4 0 0-2.5-5.1-9.5-8.4zm18.2 16.7c0-.3-1.2-8.7-4.6-11.5 0 0 .5 5.7 1.6 7.8-.3-1.4-.5-2.8-.5-4.3 1.7 2.1 3.5 8 3.5 8zM48.8 22.7s3.1 1.1 5.7 2.3c-1.7-1-2.9-1.7-2.9-1.7s5 .8 8.2 1.4c0 0-7.1-2.5-11-2zm7.2-4.9c.9 2.8 3.3 4.9 6.2 5.4 0 0-2.9-.9-3.4-2.4 0 0 1.9 1.9 9.2 1.5 2.1-.1 5.7 0 8.1 1.7 0 0-2.9-3-10-2.9-3.8.4-7.4-.8-10.1-3.3z" class="st1"/><path d="M72.8 42.2c-4.1-2.4-4.4-5.5-4.4-5.5L29.3 64.3c-1.7 2.5-.7 8.2-.7 8.2 1.4-3.6 15.6-15 15.6-15-4.6 5.5-11 18.6-11 18.6.6 6.8 10.9 13.7 10.9 13.7 2.7-1.3 9.2-9.7 9.2-9.7 2.5-3.7 10.3-13.6 14.2-18.5C62 73.2 48.7 93.8 48.8 93.8l1.8 9.8c8.6-9.5 21.7-41.9 21.7-41.9l-3-4.4v.1l-1.7-3.9c-5.9 1.7-15.9 12.9-15.9 12.9 3.9-15.2 21.1-24.2 21.1-24.2z" class="st6"/><path d="M122.2 68c-1 .3-5.5-2.7-5.5-2.7-3.8-2.3-12.1-15.1-12.1-15.1l-.9-3.7c-1.8-.6-10.7-8.2-13.1-10.2-2.1-2.4-5.4-5.9-7.7-6.3 0 0 .3 1 1 2.2 1.5.8 4.1 2.4 5.1 3.8h-6.1l1.7 2.8c-1.6-1.5-16.2-9.6-16.2-9.6.1 4.3 7.9 11.1 8.7 11.1.8 0 4.1.7 4.1.7l1.1 3.7 7.3.9 9.4 4.2s7.5 8.9 8.1 9.6c.6.7-8.8-7.3-8.8-7.3-5.5.8-11.1-4.5-11.1-4.5h-2.6c4.3 6.5 9.9 6.4 9.9 6.4-7 .9-11.2-4.5-12.5-6.4h-4.8c2.3 5 5.3 9.6 9 13.6-4.3-1.4-3.8-1.4-9-4.8 1.3 3.7 4.6 6.8 7.2 7.3 2.6.5 6.2-.6 6.2-.6 5-.9 10.1 1 13.2 4.9h-3.1c2.1.8 4.4 4 4.4 4l2.2 8.1c1.5 1.1 5.7 0 5.7 0l1.2-3.3-1.9-.7c0 3.4-2.3.9-2.3.9l-1.1-3.4-1.5-2.3s1.7 1.1 2 1.3l3.3 2.2c2 .6 4.2.7 6.3.2-.2-1-.1-2 .2-2.9l.9 2.5c.7-.2 1.4-.5 2.1-.9-.5-1.9-.5-3.8 0-5.7zm-10.7.7 5.9 1.2c-4.4 1.8-5.9-1.2-5.9-1.2z" class="st6"/><path d="M50.3 121.7h-42c-2.2 0-4-1.8-4-4v-42c0-2.2 1.8-4 4-4h42c2.2 0 4 1.8 4 4v42c0 2.2-1.8 4-4 4z" opacity=".3"/><path fill="#273445" d="M46 126H4c-2.2 0-4-1.8-4-4V80c0-2.2 1.8-4 4-4h42c2.2 0 4 1.8 4 4v42c0 2.2-1.8 4-4 4z"/><linearGradient id="SVGID_1_" x1="25" x2="25" y1="115.559" y2="86.441" gradientUnits="userSpaceOnUse"><stop offset="0" stop-color="#e6a500"/><stop offset="1" stop-color="#d4ff47"/></linearGradient><path fill="url(#SVGID_1_)" d="m16.7 86.4 12.5 21.7-4.3 7.4L8.2 86.4h8.5zm14.6 18.3 10.5-18.2H27v10.8l4.3 7.4z"/></svg>
