<svg class="S" xmlns="http://www.w3.org/2000/svg" xml:space="preserve" id="Layer_1" x="0" y="0" version="1.1" viewBox="0 0 126 126"><style>.st5{fill:#8f8f8f}</style><path id="a_4_" fill="#3a1d0a" d="M63 13c-27.6 0-50 22.4-50 50s22.4 50 50 50 50-22.4 50-50-22.4-50-50-50zm0 85.7c-19.7 0-35.7-16-35.7-35.7s16-35.7 35.7-35.7 35.7 16 35.7 35.7-16 35.7-35.7 35.7z"/><path fill="#f3dfd3" d="M59.7 14.2 61 13h5.4l-1.2 1.2h-5.5zm8 .1 1.3-1 5.3.9-1.3.9-5.3-.8zm7.7 1.3 1.5-.7 5.1 1.7-1.5.8-5.1-1.8zm7.4 2.6 1.6-.4 4.8 2.5-1.6.5-4.8-2.6zm7 3.8 1.6-.2 4.3 3.2-1.6.3-4.3-3.3zm6.2 4.8 1.6.1 3.8 3.9-1.7-.1-3.7-3.9zm5.2 5.8 1.7.3 3 4.4-1.6-.3-3.1-4.4zm4.5 6.5 1.6.6 2.3 4.9-1.6-.6-2.3-4.9zm3.3 7.2 1.4.8 1.5 5.2-1.4-.8-1.5-5.2zm2 7.6 1.4 1 .6 5.4-1.3-1.1-.7-5.3zm.9 7.8 1.1 1.2-.2 5.4-1.2-1.2.3-5.4zm-.5 7.8.9 1.4-1 5.3-1-1.4 1.1-5.3zm-1.7 7.7.7 1.5-1.9 5.1-.7-1.5 1.9-5.1zm-2.9 7.3.4 1.6-2.7 4.7-.4-1.6 2.7-4.7zm-4 6.8.1 1.6-3.4 4.2-.2-1.6 3.5-4.2zm-5.1 6-.1 1.6-4.1 3.6.1-1.6 4.1-3.6zm-6 5.1-.3 1.6-4.6 2.9.3-1.6 4.6-2.9zm-6.7 4.1-.6 1.5-5 2.1.6-1.5 5-2.1zm-7.3 3-.8 1.4-5.3 1.2.9-1.4 5.2-1.2zm-7.7 1.7-1 1.3-5.4.4 1.1-1.3 5.3-.4zm-7.9.6-1.3 1.1-5.4-.5 1.3-1.1 5.4.5zm-7.7-.9-1.5.9-5.2-1.3 1.4-.9 5.3 1.3zm-7.6-2-1.6.6-4.9-2.1 1.5-.6 5 2.1zm-7.3-3.1-1.6.3-4.6-2.9 1.6-.3 4.6 2.9zm-6.5-4.4-1.6.1-4.1-3.6 1.7-.1 4 3.6zM27.1 96l-1.6-.1-3.4-4.2 1.6.1 3.4 4.2zm-4.8-6.1-1.6-.5-2.7-4.6 1.6.5 2.7 4.6zM18.5 83l-1.5-.7-1.8-5.1 1.5.7 1.8 5.1zm-2.7-7.4-1.4-1-1-5.3 1.4 1 1 5.3zm-1.4-7.8-1.2-1.1-.2-5.4 1.2 1.1.2 5.4zm-.1-7.8-1-1.4.7-5.3 1 1.3-.7 5.4zm1-7.8-.8-1.5 1.6-5.2.9 1.5-1.7 5.2zm2.5-7.5-.6-1.6 2.4-4.9.5 1.6-2.3 4.9zm3.4-7.1L21 36l3.1-4.4.3 1.6-3.2 4.4zm4.6-6.4v-1.6l3.7-3.9.1 1.7-3.8 3.8zm5.5-5.5.3-1.7 4.3-3.2-.2 1.7-4.4 3.2zm6.5-4.6.5-1.6L43 17l-.5 1.6-4.7 2.5zm7-3.5.7-1.5 5.2-1.7-.7 1.5-5.2 1.7zm7.6-2.4 1-1.3 5.3-.8-1 1.3-5.3.8z"/><radialGradient id="SVGID_1_" cx="41.166" cy="98.097" r="80.432" gradientTransform="matrix(1 0 0 -1 0 128)" gradientUnits="userSpaceOnUse"><stop offset="0" stop-color="#d23719"/><stop offset=".484" stop-color="#912510"/><stop offset=".57" stop-color="#b32a0f"/><stop offset=".714" stop-color="#9f2006"/><stop offset=".857" stop-color="#931b02"/><stop offset="1" stop-color="#8f1900"/></radialGradient><path fill="url(#SVGID_1_)" d="M63 22.4c-22.3 0-40.5 18.2-40.5 40.5s18.2 40.5 40.5 40.5 40.5-18.2 40.5-40.5S85.4 22.4 63 22.4zm0 78.5c-21 0-38-17-38-38s17-38 38-38 38 17.1 38 38c.1 21-16.9 38-38 38z"/><path fill="#fff" d="M63 24.6c-21.2 0-38.3 17.2-38.3 38.3 0 21.2 17.2 38.3 38.3 38.3 21.2 0 38.3-17.2 38.3-38.3.1-21.1-17-38.2-38.3-38.3z"/><path d="M92.2 39.4c-6.6-8.1-15.1-11.3-15.1-11.3s-1.4-.7-1.9.3c-5.4 12.1-9.6 25.4-9.6 25.4-1.2 4.4 2.2 5.9 5.3 4.1 3.1-1.8 21.1-17 21.1-17s1-.4.2-1.5zM86 42.9c-2.1 2.1-10.5 7.6-13.4 8.8-.6.2-1.4.3-1.7-.2-.2-.3-.1-.9-.1-1.3.5-4.1 2.9-11.9 4.1-14.9.2-.5.7-.7 1.2-.5 4.2 1.5 8.6 5.5 9.9 7 .4.2.4.7 0 1.1z"/><circle cx="68.2" cy="55.7" r="2.6"/><path d="M94.4 83.3c5.6-8.8 6-17.9 6-17.9s.3-1.6-.9-1.7c-13.2-1.3-27.2-1.2-27.2-1.2-4.6.2-5 3.9-2.3 6.3s22.8 14.7 22.8 14.7.6.8 1.6-.2zm-5.3-4.8c-2.6-1.4-10.5-7.6-12.6-10-.4-.5-.7-1.2-.3-1.7.2-.3.8-.4 1.2-.5 4-.8 12.2-.9 15.5-.8.5 0 .9.4.9.9-.1 4.4-2.5 9.9-3.5 11.6-.4.5-.9.7-1.2.5z"/><path d="M72.1 68.1c-1.4.4-2.8-.3-3.3-1.7-.4-1.4.3-2.8 1.7-3.3s2.8.3 3.3 1.7c.4 1.4-.4 2.8-1.7 3.3zM53.2 99c10.1 2.6 18.9.1 18.9.1s1.6-.2 1.4-1.4c-2.9-12.9-7.4-26.2-7.4-26.2-1.6-4.3-5.3-3.5-6.7-.2-1.4 3.3-6.9 26.3-6.9 26.3s-.5 1 .7 1.4zm3-6.5c.5-2.9 4-12.3 5.5-15 .3-.5.9-1.1 1.5-.8.3.1.7.7.8 1 2 3.5 4.7 11.3 5.6 14.5.1.5-.1 1-.6 1.1-4.2 1.3-10.2.7-12.2.3-.3-.1-.6-.5-.6-1.1z"/><path d="M60.7 73.2c-.9-1.2-.6-2.8.5-3.6 1.2-.9 2.8-.6 3.6.5.9 1.2.6 2.8-.5 3.6-1.1.9-2.7.6-3.6-.5zM25.5 65c.7 10.4 5.8 17.9 5.8 17.9s.7 1.4 1.8.9C44.5 77 55.6 68.6 55.6 68.6c3.6-2.9 1.7-6.1-1.9-6.4-3.6-.4-27.1 1.7-27.1 1.7s-1.1-.2-1.1 1.1zm7 .7c2.9-.5 13-.1 16 .5.6.1 1.3.5 1.3 1.2 0 .3-.4.8-.6 1.1-2.7 3-9.3 8-12 9.8-.4.3-1 .2-1.3-.2-2.5-3.6-3.8-9.4-4.1-11.5.1-.4.4-.8.7-.9z"/><path d="M52.4 64c.8-1.2 2.5-1.4 3.6-.6 1.2.8 1.5 2.5.6 3.6-.8 1.2-2.5 1.4-3.6.6s-1.5-2.4-.6-3.6zm-3.3-36.1C39.5 31.9 33.9 39 33.9 39s-1.1 1.1-.3 1.9c10 8.7 21.5 16.7 21.5 16.7 3.9 2.5 6.3-.3 5.5-3.8S50.5 28.6 50.5 28.6s-.2-1.1-1.4-.7zm1.5 7c1.4 2.6 4.1 12.3 4.5 15.4.1.6-.1 1.4-.7 1.6-.3.1-.9-.1-1.2-.3-3.8-1.7-10.6-6.3-13.2-8.4-.4-.3-.5-.9-.2-1.3 2.7-3.5 7.7-6.6 9.6-7.5.6-.1 1.1.1 1.2.5z"/><path d="M58.5 53.2c1.4.4 2.1 1.9 1.7 3.2-.4 1.4-1.9 2.1-3.2 1.7-1.4-.4-2.1-1.9-1.7-3.2.4-1.4 1.9-2.2 3.2-1.7zm9.8-27.3c-4.1-.8-8.6-.4-10.6 0-.7.1-1.1.8-1 1.5.2 1.2 3.9 23 5.4 28.1.5.5 1.2.5 1.7 0 0 0 4.9-21.5 5.5-28.2-.1-.9-.4-1.3-1-1.4zm-1.5 7.3c-.4 4.5-2.5 14.6-2.5 14.6-.8 1.6-2.7.9-3 .1-1-3.4-2.4-13.8-2.5-14.6-.1-.5-.1-1 .4-1.1 1.3-.2 4.2-.4 7.1 0 .5 0 .5.6.5 1zm32.7 23c-.6-4.2-2.3-8.1-3.2-9.9-.3-.6-1.1-.8-1.7-.5-1.1.6-20.5 11.1-24.8 14.2-.3.6-.1 1.3.5 1.6 0 0 21.7-2.4 28.3-4 .6-.2 1-.8.9-1.4zm-7.3 1.1c-4.4 1.1-14.6 2.4-14.6 2.4-1.7-.2-1.8-2.2-1.1-2.8 2.9-2 12.3-6.7 13-7.1.4-.2.9-.4 1.2 0 .6 1.2 1.7 3.9 2.3 6.7.2.5-.3.7-.8.8zM80.9 95.9c3.8-1.8 7-4.7 8.4-6.1.5-.5.5-1.3-.1-1.8-.9-.9-16.9-16.1-21.1-19.3-.7-.1-1.3.3-1.4 1 0 0 9 19.9 12.5 25.7.4.5 1.1.7 1.7.5zm-3.3-6.6c-2.4-3.9-6.8-13.1-6.8-13.1-.3-1.7 1.6-2.4 2.3-1.9 2.8 2.2 10.2 9.6 10.8 10.2.3.3.7.8.3 1.2-.9 1-3.2 2.8-5.7 4.2-.4.2-.7-.2-.9-.6zm-40.5.9c2.9 3.1 6.6 5.2 8.4 6.1.6.3 1.4 0 1.7-.6.5-1.1 10.2-21 11.9-26-.1-.7-.7-1.1-1.4-1 0 0-16.2 14.6-20.6 19.7-.5.6-.5 1.4 0 1.8zm5.2-5.1c3-3.5 10.4-10.4 10.4-10.4 1.5-.8 2.7.8 2.5 1.6-1.2 3.4-6.1 12.6-6.4 13.4-.2.4-.5.9-1 .7-1.2-.6-3.6-2.1-5.8-4.1-.3-.4 0-.9.3-1.2zM29.1 46.5c-2 3.7-3 7.8-3.3 9.9-.1.7.4 1.3 1.1 1.4 1.2.2 23.1 3.4 28.4 3.6.6-.3.9-1 .5-1.6 0 0-18.8-11.1-25-13.8-.7-.3-1.4-.1-1.7.5zm6.5 3.4c4.2 1.8 13.1 6.8 13.1 6.8 1.2 1.2.1 2.8-.8 2.9-3.6-.1-13.9-2-14.7-2.1-.5-.1-1-.2-.9-.7.2-1.3 1-4.1 2.2-6.8.1-.4.6-.3 1.1-.1z"/><linearGradient id="SVGID_2_" x1="58.276" x2="67.921" y1="65.15" y2="65.15" gradientTransform="matrix(1 0 0 -1 0 128)" gradientUnits="userSpaceOnUse"><stop offset="0" stop-color="#272626"/><stop offset=".276" stop-color="#2b2a2a"/><stop offset=".524" stop-color="#353434"/><stop offset=".565" stop-color="#383737"/><stop offset=".755" stop-color="#2f2f2f"/><stop offset="1" stop-color="#1d1d1d"/></linearGradient><path fill="url(#SVGID_2_)" d="M68 62.8c0 2.7-2.2 4.8-4.8 4.8-2.7 0-4.8-2.2-4.8-4.8 0-2.7 2.2-4.8 4.8-4.8 2.6 0 4.8 2.2 4.8 4.8z"/><circle cx="68.2" cy="55.7" r="2.2" class="st5"/><path d="m67.4 57.6-1.2-1.7v-.1L67 54h.1l2-.2h.1l1.1 1.6v.1l-.8 1.8h-.1c-.1 0-2.1.3-2 .3zm.2-.3 1.7-.2.7-1.5-1-1.4-1.7.1-.7 1.6 1 1.4z"/><path d="M60 55.6c0 1.2-1 2.2-2.2 2.2s-2.2-1-2.2-2.2 1-2.2 2.2-2.2 2.2 1 2.2 2.2z" class="st5"/><path d="m56.9 57.5-1.2-1.6v-.1l.8-1.8h.1l2-.2h.1l1.1 1.6v.1l-.8 1.8h-.1l-2 .2zm.1-.3 1.7-.2.7-1.5-1-1.4-1.7.2-.7 1.5 1 1.4z"/><path d="M56.7 65.5c0 1.2-1 2.2-2.2 2.2s-2.2-1-2.2-2.2c0-1.2 1-2.2 2.2-2.2 1.2-.1 2.2.9 2.2 2.2z" class="st5"/><path d="m53.6 67.4-1.2-1.7v-.1l.8-1.8h.1l2-.2h.1l1.1 1.6v.1l-.8 1.8h-.1c0 .1-2 .3-2 .3zm.1-.3 1.7-.1.7-1.5-1-1.4-1.7.1-.7 1.5 1 1.4z"/><path d="M65.1 71.6c0 1.2-1 2.2-2.2 2.2-1.2 0-2.2-1-2.2-2.2 0-1.2 1-2.2 2.2-2.2 1.2 0 2.2 1 2.2 2.2z" class="st5"/><path d="m62 73.5-1.2-1.6v-.1l.8-1.8h.1l2-.2h.1l1.1 1.6v.1l-.9 1.8-2 .2zm.1-.3 1.7-.1.7-1.5-1-1.4-1.7.2-.7 1.5 1 1.3z"/><radialGradient id="SVGID_3_" cx="69.862" cy="64.197" r="5.11" gradientTransform="matrix(1 0 0 -1 0 128)" gradientUnits="userSpaceOnUse"><stop offset=".371" stop-color="#e9e9e9"/><stop offset=".428" stop-color="#d2d2d2"/><stop offset=".568" stop-color="#a0a0a0"/><stop offset=".699" stop-color="#797978"/><stop offset=".819" stop-color="#5c5c5c"/><stop offset=".923" stop-color="#4b4b4a"/><stop offset="1" stop-color="#454544"/></radialGradient><path fill="url(#SVGID_3_)" d="M73.6 65.6c0 1.2-1 2.2-2.2 2.2s-2.2-1-2.2-2.2c0-1.2 1-2.2 2.2-2.2s2.2 1 2.2 2.2z"/><path d="M73.6 65.6c0 1.2-1 2.2-2.2 2.2s-2.2-1-2.2-2.2c0-1.2 1-2.2 2.2-2.2s2.2 1 2.2 2.2z" class="st5"/><path d="M70.5 67.5s-.1 0 0 0l-1.2-1.6v-.1l.8-1.8h.1l2-.2h.1l1.1 1.6v.1l-.8 1.8h-.1c-.1 0-2.1.2-2 .2zm.1-.3 1.7-.2.7-1.5-1-1.4-1.7.2-.7 1.5 1 1.4z"/><path d="M50.3 121.7h-42c-2.2 0-4-1.8-4-4v-42c0-2.2 1.8-4 4-4h42c2.2 0 4 1.8 4 4v42c0 2.2-1.8 4-4 4z" opacity=".3"/><path fill="#273445" d="M46 126H4c-2.2 0-4-1.8-4-4V80c0-2.2 1.8-4 4-4h42c2.2 0 4 1.8 4 4v42c0 2.2-1.8 4-4 4z"/><linearGradient id="SVGID_4_" x1="25" x2="25" y1="115.559" y2="86.441" gradientUnits="userSpaceOnUse"><stop offset="0" stop-color="#e6a500"/><stop offset="1" stop-color="#d4ff47"/></linearGradient><path fill="url(#SVGID_4_)" d="m16.7 86.4 12.5 21.7-4.3 7.4L8.2 86.4h8.5zm14.6 18.3 10.5-18.2H27v10.8l4.3 7.4z"/></svg>
