<svg class="S" xmlns="http://www.w3.org/2000/svg" xml:space="preserve" id="Layer_1" x="0" y="0" version="1.1" viewBox="0 0 126 126"><style>.st0{fill:#5a0913}.st1{fill:#b21c1b}.st2{fill:#f4c05e}.st7{fill:#f7e08e}.st8{fill:#972e0f}.st9{fill:#b03d16}</style><path d="M18.4 72.8c-1 5.5 2.2 15.7 8.8 24.2 7.7 9.9 31.9 27.4 57.2 24.2 35.2-4.4 14-52.8-14.3-60.5-17.6 4.4-51.6 11.2-51.7 12.1z" class="st0"/><path d="M18.4 71.7c-1 5.5 2.2 15.7 8.8 24.2 7.7 9.9 31.9 27.4 57.2 24.2 35.2-4.4 14-52.8-14.3-60.5-16.5 4.1-46 4.9-50.6 8.8-.4.3-1.1 3.1-1.1 3.3z" class="st1"/><path d="M10.7 29.9s16.5 18.7 17.6 19.8c1.1 1.1 2.2 3.3 0 6.6s-6.6 7.7-8.8 12.1.3 15.2 7.7 25.3c8.8 12.1 33 28.6 57.2 25.3 36.8-5 15.1-55-13.2-62.7-24.2-6.6-25.3-7.7-27.5-9.9-4.2-4.2-19.8-24.2-19.8-24.2s-4.9-2.5-7.7-1.1c-6.6 3.3-5.5 8.8-5.5 8.8z" class="st2"/><path fill="#990426" d="M19.5 68.4c-1 5.5 2.2 15.7 8.8 24.2 7.7 9.9 31.9 27.4 57.2 24.2 35.2-4.4 14-52.8-14.3-60.5-17.6 4.4-51.6 11.2-51.7 12.1z"/><path fill="#a6062a" d="M19.5 68.4c-.5 2.5-.1 5 1.1 8.8 8.8-2.1 34.2-8.8 60.5-16.5-3.1-1.9-6.4-3.4-9.9-4.4-17.6 4.4-51.6 11.2-51.7 12.1z"/><path d="M85.5 115.8c-26.4 4.4-49.5-14.3-57.2-24.3-5.6-7.2-8.8-15.7-9-21.4-.2 5.8 2.9 14.8 9 22.5 7.7 9.9 30.8 28.6 57.2 24.2 13.3-2.2 18.6-9.7 18.4-19.5-.2 9.3-5.6 16.3-18.4 18.5z" class="st0"/><linearGradient id="SVGID_1_" x1="26.853" x2="37.501" y1="84.161" y2="91.9" gradientTransform="matrix(1 0 0 -1 0 128)" gradientUnits="userSpaceOnUse"><stop offset=".25" stop-color="#e28341"/><stop offset=".4" stop-color="#f49e6b"/><stop offset=".51" stop-color="#ffb085"/><stop offset=".52" stop-color="#feae83"/><stop offset=".62" stop-color="#dc7d54"/><stop offset=".71" stop-color="#c45a32"/><stop offset=".78" stop-color="#b5451e"/><stop offset=".83" stop-color="#b03d16"/></linearGradient><path fill="url(#SVGID_1_)" d="m39.3 59.6 13.2-3.3-4.8-4.8L25 21.1s-6.6-3.3-11 1.1c-1.6 1.5-2.7 3.4-3.3 5.5l28.6 31.9z"/><linearGradient id="SVGID_2_" x1="39.274" x2="52.473" y1="72.191" y2="72.191" gradientTransform="matrix(1 0 0 -1 0 128)" gradientUnits="userSpaceOnUse"><stop offset=".25" stop-color="#e28341"/><stop offset=".59" stop-color="#c35726"/><stop offset=".83" stop-color="#b03d16"/></linearGradient><path fill="url(#SVGID_2_)" d="M45.9 52c3.3 0 6.6 4.4 6.6 4.4l-13.2 3.3s3.3-7.7 6.6-7.7z"/><path d="m17.3 24.4 24.2 30.8 2.2-2.2-13.2-15.4z" class="st7"/><path d="m29.4 28.8 13.2 17.6 9.9 9.9-25.3-31.9z" class="st8"/><path d="M12.5 28.3c.4.5 18 19.2 18 19.2l7.7 9.9-25.7-29.1z" class="st9"/><path fill="#5a0913" d="M42.4 54.2c-2.7 4.1-3.9 20.5-1.3 29.6 3 10.7 13.9 29.4 35.7 35.2 30.2 8.2 29.1-38.4 8.6-54.2-15.9-2.2-42.5-11.2-43-10.6z" opacity=".6"/><path d="M43.5 52.1c-3 4.7-3.9 15.4-1 25.7 3.4 12.1 19.1 37.4 43.8 44.1 34.2 9.3 33-43.5 9.7-61.4-18.1-2.6-52-9.2-52.5-8.4z" class="st0"/><path d="M43.9 51.1c-3 4.7-3.9 15.4-1 25.7 3.4 12.1 19.1 37.4 43.8 44.1 34.2 9.3 33-43.5 9.7-61.4-18-2.6-52-9.2-52.5-8.4z" class="st1"/><path d="M52.6 9.5s8.2 23.6 8.8 25c.6 1.4.8 3.9-2.5 6.1s-9 4.6-12.7 7.9c-3.7 3.2-5.4 14.1-2.5 26.3 3.6 14.5 19.7 39 43.3 45.1 35.9 9.3 34.8-45.1 11.6-63-19.9-15.4-20.5-16.8-21.7-19.7-2.3-5.5-9.1-29.9-9.1-29.9s-3.6-4.2-6.7-3.9c-7.4.6-8.5 6.1-8.5 6.1z" class="st2"/><path fill="#b6052d" d="M46.1 48.4c-3 4.7-3.9 15.4-1 25.7 3.4 12.1 19.1 37.4 43.8 44.1 34.2 9.3 33-43.5 9.7-61.4-18-2.6-52-9.1-52.5-8.4z"/><path fill="#c40732" d="M46.1 48.4c-1.4 2.1-2 4.6-2.3 8.6 8.9 1.4 35 4.8 62.2 7.7-2.1-3-4.6-5.6-7.5-7.8-17.9-2.7-51.9-9.2-52.4-8.5z"/><path d="M89.3 117.2c-26.1-5.9-40.4-32-43.7-44.1-2.5-8.8-2.2-17.8-.2-23.2-2.4 5.3-2.9 14.8-.2 24.3 3.4 12.1 17.7 38.1 43.8 44.1 13.2 3 20.9-1.9 24.4-11-3.8 8.4-11.4 12.8-24.1 9.9z" class="st0"/><linearGradient id="SVGID_3_" x1="171.319" x2="181.967" y1="572.48" y2="580.219" gradientTransform="scale(1 -1) rotate(-22.272 -1409.693 548.88)" gradientUnits="userSpaceOnUse"><stop offset=".25" stop-color="#e28341"/><stop offset=".4" stop-color="#f49e6b"/><stop offset=".51" stop-color="#ffb085"/><stop offset=".52" stop-color="#feae83"/><stop offset=".62" stop-color="#dc7d54"/><stop offset=".71" stop-color="#c45a32"/><stop offset=".78" stop-color="#b5451e"/><stop offset=".83" stop-color="#b03d16"/></linearGradient><path fill="url(#SVGID_3_)" d="m67.8 47.8 13.4 1.9-2.6-6.3-9.4-36.6s-4.8-5.6-10.6-3.2c-2 .8-3.8 2.1-5.1 3.8l14.3 40.4z"/><linearGradient id="SVGID_4_" x1="183.74" x2="196.939" y1="560.511" y2="560.511" gradientTransform="scale(1 -1) rotate(-22.272 -1409.693 548.88)" gradientUnits="userSpaceOnUse"><stop offset=".25" stop-color="#e28341"/><stop offset=".59" stop-color="#c35726"/><stop offset=".83" stop-color="#b03d16"/></linearGradient><path fill="url(#SVGID_4_)" d="M76.8 43.2c3.1 1.3 4.4 6.6 4.4 6.6l-13.4-1.9c0-.1 6-6 9-4.7z"/><path d="m60.8 6.9 10.7 37.7 2.9-1.2L68 24.1z" class="st7"/><path d="m70.3 15.5 5.6 21.3 5.4 13-11.4-39.2z" class="st8"/><path d="M54.9 8.7c.1.6 9.3 24.6 9.3 24.6l3.4 12.1L54.9 8.7z" class="st9"/><radialGradient id="SVGID_5_" cx="102.483" cy="49.551" r="14.63" gradientTransform="matrix(1 0 0 -1 0 128)" gradientUnits="userSpaceOnUse"><stop offset=".08" stop-color="#ffe100"/><stop offset=".18" stop-color="#ffda00"/><stop offset=".34" stop-color="#ffc700"/><stop offset=".43" stop-color="#ffb800"/><stop offset=".51" stop-color="#f3a700"/><stop offset=".67" stop-color="#d47b00"/><stop offset=".68" stop-color="#d27800"/><stop offset=".87" stop-color="#f08500"/></radialGradient><circle cx="103.9" cy="80.4" r="9.6" fill="url(#SVGID_5_)"/><radialGradient id="SVGID_6_" cx="103.594" cy="48.685" r="13.096" gradientTransform="matrix(1 0 0 -1 0 128)" gradientUnits="userSpaceOnUse"><stop offset="0" stop-color="#ffe81a"/><stop offset=".14" stop-color="#ffe115"/><stop offset=".34" stop-color="#ffce08"/><stop offset=".43" stop-color="#ffc200"/><stop offset=".51" stop-color="#f9b300"/><stop offset=".65" stop-color="#eb8f00"/><stop offset=".87" stop-color="#fd9200"/></radialGradient><path fill="url(#SVGID_6_)" d="M105.8 83c-4.2 3.1-8.5 4.4-9.8 2.9 0 0 0 .1.1.1 1.2 1.6 5.6.4 9.9-2.8 4.2-3.2 6.7-7.1 5.5-8.7l-.1-.1c1 1.7-1.4 5.5-5.6 8.6z"/><radialGradient id="SVGID_7_" cx="103.33" cy="48.751" r="13.811" gradientTransform="matrix(1 0 0 -1 0 128)" gradientUnits="userSpaceOnUse"><stop offset=".01" stop-color="#ffcc12"/><stop offset=".13" stop-color="#ffc512"/><stop offset=".29" stop-color="#feb212"/><stop offset=".38" stop-color="#fda412"/><stop offset=".47" stop-color="#ee9612"/><stop offset=".64" stop-color="#c87112"/><stop offset=".65" stop-color="#c56e12"/><stop offset=".87" stop-color="#e37b12"/></radialGradient><path fill="url(#SVGID_7_)" d="M105.6 82.7c-4.2 3.1-8.5 4.4-9.8 2.9 0 0 0 .1.1.1 1.2 1.6 5.6.4 9.9-2.8 4.2-3.2 6.7-7.1 5.5-8.7l-.1-.1c1 1.7-1.4 5.5-5.6 8.6z"/><path d="M50.3 121.7h-42c-2.2 0-4-1.8-4-4v-42c0-2.2 1.8-4 4-4h42c2.2 0 4 1.8 4 4v42c0 2.2-1.8 4-4 4z" opacity=".3"/><path fill="#273445" d="M46 126H4c-2.2 0-4-1.8-4-4V80c0-2.2 1.8-4 4-4h42c2.2 0 4 1.8 4 4v42c0 2.2-1.8 4-4 4z"/><linearGradient id="SVGID_8_" x1="25" x2="25" y1="115.559" y2="86.441" gradientUnits="userSpaceOnUse"><stop offset="0" stop-color="#e6a500"/><stop offset="1" stop-color="#d4ff47"/></linearGradient><path fill="url(#SVGID_8_)" d="m16.7 86.4 12.5 21.7-4.3 7.4L8.2 86.4h8.5zm14.6 18.3 10.5-18.2H27v10.8l4.3 7.4z"/></svg>
