<svg class="S" xmlns="http://www.w3.org/2000/svg" xml:space="preserve" viewBox="0 0 126 126"><path fill="#666" d="m56 30.3 2.2-2.2s24.6 14 52.2 21c-7.4 2-54 30.8-67 62.6-2-9-8-39.2-16.8-55.8C30.4 46.7 56 30.3 56 30.3z"/><path fill="#fff" d="M99.3 86.4c2-2.3 3.9-4.5 5.5-6.8l2.3 1.5c1.5-2.1 2.9-4.1 4.1-6.1l-2.4-1.4c1.2-2 2.3-4.1 3.2-6.2.9.4 1.8.8 2.5 1.2.8-1.7 1.4-3.5 1.9-5.3-.8-.3-1.7-.7-2.6-1 .4-1.6.7-3.3.7-5 1 .3 1.9.6 2.7.9.1-1.3 0-2.6-.3-3.9-.8-.2-1.8-.5-2.9-.8-.4-1.2-1-2.3-1.9-3.2 1 .3 2.3.6 3.2.8a4.7 4.7 0 0 0-2.5-1.5c-8.3-1.8-43.7-12.8-59.2-25.5l-.9.2c3.1 2.5.6 9.6-6.1 16.7-7.3 7.7-16.8 12.6-21.3 10.7-.9-.3-1.8-.8-2.5-1.5 11.1 16.7 18.9 53.9 20 62.5.1.9.5 1.8 1.1 2.5-.1-.9-.3-2.4-.5-3.4.8 1 1.8 1.9 2.9 2.4l.5 3c1.2.5 2.5.8 3.9.8l-.6-2.8c1.7.2 3.4.1 5.1-.1l.7 2.7c1.9-.3 3.7-.7 5.5-1.3l-.9-2.6c2.2-.7 4.4-1.5 6.5-2.5l1.1 2.5c2.1-1 4.2-2.1 6.4-3.3l-1.3-2.4c2.3-1.3 4.7-2.9 7-4.5l1.5 2.3c2.2-1.6 4.4-3.2 6.6-5l-1.7-2.2c2.3-1.9 4.6-3.9 6.9-6.2l1.9 2c1.2-1.2 2.4-2.4 3.6-3.7.8-.8 1.6-1.7 2.4-2.6l-2.1-1.9zM110.7 61c-1.3-.6-2.7-1.1-4.2-1.8.4-1.5.6-3 .7-4.6 1.5.6 2.9 1.1 4.3 1.6-.1 1.6-.4 3.2-.8 4.8zm-1.6-11.6c.8.9 1.5 1.9 1.8 3.1-1.3-.4-2.7-.9-4.2-1.4-.3-1.1-.9-2.1-1.7-3 1.4.5 2.8.9 4.1 1.3zm-.1 16.5c-.9 2.1-1.9 4.1-3.1 6-1.2-.7-2.6-1.5-4-2.4 1.1-1.8 2.1-3.7 2.9-5.7 1.5.8 2.9 1.5 4.2 2.1zm-6.4-8.4c-1.6-.7-3.3-1.5-5-2.3.4-1.3.6-2.7.6-4.1 1.7.7 3.4 1.4 5 2 0 1.5-.2 3-.6 4.4zM101.2 47c.8.8 1.3 1.8 1.6 2.8-1.6-.6-3.3-1.1-5-1.8-.3-1-.8-1.9-1.5-2.6 1.7.6 3.3 1.1 4.9 1.6zm-.2 15c-.8 1.9-1.8 3.7-2.8 5.4-1.5-.9-3.1-1.9-4.7-2.9 1-1.6 1.9-3.3 2.6-5.1 1.7.9 3.4 1.8 4.9 2.6zm-39-1.8c-1.3 1.2-2.6 2.4-3.9 3.5l-3.8-4.6c1.2-1 2.4-2.1 3.6-3.2l4.1 4.3zm-1.1-7.5c1.1-1.2 2-2.4 2.9-3.6 1.5 1.2 3.1 2.5 4.7 3.8-.9 1.3-2 2.6-3.1 3.9-1.6-1.4-3-2.8-4.5-4.1zm-6.4 13.8c-1.3 1-2.7 1.8-4 2.6-1.1-1.7-2.2-3.4-3.2-5 1.2-.7 2.4-1.5 3.7-2.4 1.1 1.5 2.3 3.1 3.5 4.8zm-3.3-11-3.5-4.1c1.1-.9 2.1-1.8 3.2-2.8l3.7 3.9c-1.1 1-2.2 2-3.4 3zm-3 2.4c-1.1.8-2.3 1.6-3.4 2.3-1-1.5-2.1-3-3.1-4.4 1.1-.6 2.1-1.3 3.2-2.1 1 1.2 2.1 2.7 3.3 4.2zm-1.2 13c-1.2.6-2.4 1-3.7 1.5-.9-1.8-1.8-3.6-2.7-5.3 1.2-.4 2.3-.8 3.4-1.3 1 1.6 2 3.3 3 5.1zm-5.4-9.2c-1 .5-2.1.9-3.2 1.3-.9-1.6-1.8-3.2-2.7-4.6 1-.3 2-.7 3-1.1 1 1.3 2 2.8 2.9 4.4zm-3.6 6c.8 1.7 1.6 3.5 2.4 5.3-1 .2-2 .2-3 .1-.7-1.8-1.4-3.6-2.2-5.4.9.2 1.8.2 2.8 0zm4.3 10c.8 1.9 1.5 3.8 2.3 5.7-1.1.2-2.3.2-3.4.1-.6-1.9-1.3-3.8-2-5.7 1 .1 2 .1 3.1-.1zm4 10.4c.7 1.9 1.4 3.8 2 5.7-1.3.2-2.6.3-3.9.1-.6-1.9-1.1-3.7-1.7-5.7 1.2.2 2.4.1 3.6-.1zm1.8-5.5c-.8-1.9-1.7-3.8-2.5-5.7 1.3-.4 2.7-1 3.9-1.6 1 1.8 1.9 3.6 2.9 5.5-1.4.7-2.9 1.3-4.3 1.8zm6.6 2.8 2.7 5.4c-1.6.8-3.3 1.4-5 1.9-.8-1.8-1.5-3.7-2.3-5.6 1.6-.4 3.1-1 4.6-1.7zm1.7-6.7c-1.1-1.8-2.2-3.6-3.2-5.3 1.4-.8 2.9-1.8 4.3-2.8l3.6 5.1c-1.6 1.1-3.1 2.1-4.7 3zm7.7 1.2 3.5 5c-1.8 1.3-3.6 2.4-5.4 3.5l-3.1-5.2c1.6-1.1 3.3-2.1 5-3.3zm1.2-7.5-4-4.8c1.4-1.1 2.8-2.4 4.2-3.8l4.3 4.5c-1.4 1.5-2.9 2.9-4.5 4.1zm3.8-12.2c1.2-1.4 2.4-2.8 3.4-4.1 1.6 1.3 3.3 2.5 4.9 3.8-1.1 1.5-2.3 3-3.6 4.5l-4.7-4.2zM73.5 72l4.2 4.4c-1.7 1.7-3.5 3.2-5.3 4.7l-3.9-4.7c1.7-1.4 3.4-2.8 5-4.4zm4.1-4.3c1.4-1.6 2.7-3.2 3.9-4.8 1.6 1.2 3.3 2.4 4.9 3.6-1.3 1.7-2.7 3.5-4.3 5.2l-4.5-4zm12.7 1.6 4.5 3.2c-1.4 1.9-3 3.9-4.8 5.9l-4.2-3.6c1.7-1.8 3.1-3.6 4.5-5.5zm3-16.1c-1.8-.8-3.6-1.7-5.4-2.6.3-1.2.5-2.4.5-3.6 1.8.8 3.6 1.6 5.4 2.3a16 16 0 0 1-.5 3.9zM92 44c.7.7 1.2 1.6 1.4 2.5L88 44.4c-.3-.9-.7-1.6-1.3-2.3 1.8.6 3.6 1.3 5.3 1.9zm-5.4 10.2c1.8 1 3.6 2 5.3 2.9-.7 1.6-1.5 3.2-2.5 4.8l-5.1-3.3c.9-1.4 1.6-2.8 2.3-4.4zm-3.2-5.9c-1.8-.9-3.6-1.9-5.4-2.8.3-1 .4-2 .5-3.1 1.8.9 3.6 1.7 5.4 2.6-.1 1.1-.2 2.2-.5 3.3zm-1.1-7.9c.6.6 1 1.3 1.2 2.1l-5.4-2.4c-.2-.7-.6-1.4-1.1-2 1.7.8 3.5 1.5 5.3 2.3zm-5.5 8.2c1.8 1.1 3.5 2.1 5.3 3.1-.6 1.4-1.3 2.8-2.1 4.1-1.7-1.1-3.4-2.3-5.1-3.5.7-1.1 1.4-2.4 1.9-3.7zm-3.2-5.5-5.1-3c.2-.9.4-1.7.4-2.6 1.6.9 3.4 1.8 5.1 2.7 0 1-.2 2-.4 2.9zm-.9-6.8c.5.5.9 1.1 1.1 1.8-1.7-.8-3.4-1.7-5.1-2.6-.2-.6-.5-1.2-1-1.7 1.6.9 3.3 1.7 5 2.5zm-5.1 6.5c1.6 1.1 3.3 2.1 5 3.2-.5 1.2-1.1 2.4-1.8 3.5-1.7-1.2-3.3-2.4-4.8-3.6.5-.9 1.1-2 1.6-3.1zm-3-5.1c-1.5-1-3-2-4.4-3 .2-.8.3-1.5.4-2.3 1.4 1 2.8 1.9 4.4 2.8 0 .8-.2 1.6-.4 2.5zm-.8-5.9c.4.4.7 1 .9 1.6-1.5-1-3-1.9-4.4-2.8-.2-.6-.5-1.1-.8-1.5 1.4.9 2.8 1.8 4.3 2.7zm-4.4 5.3c1.3 1 2.8 2.1 4.3 3.1-.5 1-1 2.1-1.6 3-1.5-1.1-2.9-2.3-4.2-3.4.6-.9 1.1-1.8 1.5-2.7zm-3-10.1c.4.4.7.8.8 1.3-.4-.3-.8-.7-1.2-1-.2-.5-.4-1-.8-1.4.3.4.7.7 1.2 1.1zm1 3.1c0 .7-.1 1.5-.3 2.2-.4-.4-.8-.7-1.2-1 .2-.7.3-1.4.3-2.2.3.3.8.6 1.2 1zM55 33.5c.4.4.8.7 1.2 1.1-.4.9-.9 1.9-1.4 2.7l-1.2-1.1c.5-.9 1-1.9 1.4-2.7zm1.1 9.1c1.3 1.1 2.7 2.3 4.1 3.5-.8 1.1-1.7 2.3-2.7 3.3-1.4-1.3-2.7-2.5-3.9-3.8.9-1 1.7-2 2.5-3zm-4.2-3.9 1.1 1.1c-.7 1-1.5 2-2.4 3l-1.1-1.1c.9-1.1 1.7-2.1 2.4-3zm-5 5.7 1.1 1.2c-1 1-2 1.9-3 2.7L43.9 47c1.1-.9 2.1-1.8 3-2.6zm-5.7 4.8 1 1.3c-1 .7-2.1 1.4-3.1 2l-1-1.3c1-.7 2.1-1.4 3.1-2zm-5.7 3.4 1 1.3c-.9.4-1.9.8-2.8 1.1l-.9-1.3c.8-.4 1.7-.8 2.7-1.1zM33.3 59c.8 1.5 1.7 3 2.5 4.6-.8.1-1.7.2-2.5.1-.8-1.6-1.6-3.2-2.4-4.7.9.1 1.7.1 2.4 0zm-2.9-4.9.9 1.3c-.7.1-1.5.2-2.3.1l-.9-1.3c.8.1 1.5.1 2.3-.1zm-4.4 0-.8-1.3c.3.4.8.8 1.3 1l.8 1.3c-.5-.2-.9-.6-1.3-1zm4 7.9c-.7-1.6-1.4-3.1-2.1-4.5.3.5.8.9 1.3 1.1.8 1.5 1.5 3 2.3 4.6-.6-.2-1.1-.7-1.5-1.2zm3.6 9.3c-.6-1.8-1.2-3.5-1.9-5.2.4.5.9 1 1.5 1.2.7 1.7 1.4 3.5 2 5.3-.6-.3-1.2-.8-1.6-1.3zm3.1 9.9c-.5-1.8-1.1-3.7-1.6-5.5.5.6 1.1 1.1 1.8 1.5.6 1.9 1.2 3.7 1.8 5.7-.9-.4-1.5-1-2-1.7zm2.6 10c-.4-1.8-.9-3.6-1.4-5.4.5.7 1.3 1.3 2.1 1.7.5 1.9 1 3.7 1.5 5.6-.9-.4-1.6-1.1-2.2-1.9zm.9 4.4c.6.8 1.4 1.5 2.4 2 .4 1.8.8 3.5 1.2 5.2-1-.5-1.8-1.2-2.5-2.1-.3-1.7-.6-3.4-1.1-5.1zm2.6 13.1c-.2-1.3-.5-2.7-.8-4.2.7 1 1.6 1.7 2.7 2.2.3 1.5.6 3 .9 4.3-1.1-.5-2-1.3-2.8-2.3zm2.9-10.3c1.4.1 2.8.1 4.2-.1.6 1.8 1.1 3.5 1.7 5.2-1.5.2-3 .3-4.5.1-.4-1.7-.9-3.4-1.4-5.2zm3.6 13.6c-.3-1.4-.7-2.8-1.1-4.4 1.6.2 3.1.1 4.7-.1l1.3 4.4c-1.6.2-3.3.3-4.9.1zm5-14.8c1.8-.6 3.5-1.3 5.2-2.1l2.4 5c-1.8.9-3.7 1.6-5.7 2.2-.6-1.6-1.3-3.3-1.9-5.1zm5.1 13.5-1.6-4.3c2-.6 4-1.4 5.9-2.3l1.9 4.2c-2 .9-4.1 1.7-6.2 2.4zm5.1-18.2c1.9-1.1 3.8-2.3 5.7-3.7l3.1 4.5c-2.1 1.5-4.1 2.8-6.1 4l-2.7-4.8zm7.1 12.6-2.3-4.1c2.1-1.2 4.3-2.6 6.4-4.1l2.6 3.8c-2.2 1.7-4.5 3.1-6.7 4.4zm7.3-15.9-3.5-4.3c1.9-1.6 3.8-3.3 5.6-5l3.9 4c-1.9 1.8-3.9 3.6-6 5.3zm5.6 6.9-2.9-3.6c2.1-1.8 4.2-3.6 6.3-5.7l3.2 3.4c-2.2 2-4.3 4-6.6 5.9zm12.3-11.9-3.5-3c1.8-2.1 3.5-4.2 5-6.2l3.8 2.7c-1.6 2.1-3.4 4.3-5.3 6.5z"/><radialGradient id="a" cx="-3543.349" cy="261.544" r="34.192" gradientTransform="translate(3571.754 -235.425)" gradientUnits="userSpaceOnUse"><stop offset=".09" stop-color="#f25e21"/><stop offset=".11" stop-color="#f05b20"/><stop offset=".35" stop-color="#cf2909"/><stop offset=".46" stop-color="#c21500"/><stop offset=".65" stop-color="#9c0000"/><stop offset=".88" stop-color="#c73300"/></radialGradient><path fill="url(#a)" d="M18.3 14c4-3.5 16.4-9.5 28.3-3.4 4.7 2.5 11.5 10.5 11.8 12.2.4 1.7 3.5 9.7-9.5 22.5-12.1 12-22.9 12-25.6 11.2s-7.3-5.1-10.8-9.6S4 26.7 18.3 14z"/><linearGradient id="b" x1="-3549.928" x2="-3509.335" y1="295.429" y2="257.838" gradientTransform="translate(3571.754 -235.425)" gradientUnits="userSpaceOnUse"><stop offset=".02" stop-color="#bf1f00"/><stop offset=".1" stop-color="#a91a00"/><stop offset=".19" stop-color="#991600"/><stop offset=".25" stop-color="#941500"/><stop offset=".65" stop-color="#850000"/><stop offset=".98" stop-color="#bf1f00"/></linearGradient><path fill="url(#b)" d="M58.4 22.8c-.7-1.6-1.6-3.1-2.9-4.3 1.4 2.7 2.6 14.3-11.8 25.8-14.8 11.9-24 9.8-24.9 9.3h-.1c1.2 1.3 2.8 2.3 4.5 2.9 2.8.8 13.5.8 25.6-11.2 13.2-12.8 10-20.7 9.6-22.5z"/><path fill="none" stroke="#4d4d4d" stroke-miterlimit="10" d="M50.1 115.2c1.7.2 3.4.1 5.1-.1l.7 2.7c1.9-.3 3.7-.7 5.5-1.3l-.9-2.6c2.2-.7 4.4-1.5 6.5-2.5l1.1 2.5c2.1-1 4.2-2.1 6.4-3.3l-1.3-2.4c2.3-1.3 4.7-2.9 7-4.5l1.5 2.3c2.2-1.6 4.4-3.2 6.6-5l-1.7-2.2c2.3-1.9 4.6-3.9 6.9-6.2l1.9 2c1.2-1.2 2.4-2.4 3.6-3.7.8-.8 1.6-1.7 2.4-2.6l-2.1-1.8c2-2.3 3.9-4.5 5.5-6.8l2.3 1.5c1.5-2.1 2.9-4.1 4.1-6.1l-2.4-1.4c1.2-2 2.3-4.1 3.2-6.2.9.4 1.8.8 2.5 1.2.8-1.7 1.4-3.5 1.9-5.3-.8-.3-1.7-.7-2.6-1 .4-1.6.7-3.3.7-5 1 .3 1.9.6 2.7.9.1-1.3 0-2.6-.3-3.9-.8-.2-1.8-.5-2.9-.8-.4-1.2-1-2.3-1.9-3.2 1 .3 2.3.6 3.2.8a4.7 4.7 0 0 0-2.5-1.5c-7.5-1.6-36.6-10.6-53.7-21.6.1-1.7-.1-3.4-.6-5.1-.4-1.7-7.1-9.7-11.8-12.2-12-6.3-24.4-.3-28.4 3.2C4 26.7 9.2 42.3 12.6 46.9s8.1 8.9 10.8 9.6c1 .2 2.1.3 3.1.3 9.1 18.4 15.3 48.3 16.2 55.9.1.9.5 1.8 1.1 2.5-.1-.9-.3-2.4-.5-3.4.8 1 1.8 1.9 2.9 2.4l.5 3c1.2.5 2.5.8 3.9.8l-.5-2.8z"/><path d="M50.3 121.7h-42c-2.2 0-4-1.8-4-4v-42c0-2.2 1.8-4 4-4h42c2.2 0 4 1.8 4 4v42c0 2.2-1.8 4-4 4z" opacity=".3"/><path fill="#273445" d="M46 126H4c-2.2 0-4-1.8-4-4V80c0-2.2 1.8-4 4-4h42c2.2 0 4 1.8 4 4v42c0 2.2-1.8 4-4 4z"/><linearGradient id="c" x1="25" x2="25" y1="12.441" y2="41.541" gradientTransform="matrix(1 0 0 -1 0 128)" gradientUnits="userSpaceOnUse"><stop offset="0" stop-color="#e6a500"/><stop offset="1" stop-color="#d4ff47"/></linearGradient><path fill="url(#c)" d="m16.7 86.4 12.5 21.7-4.3 7.4L8.2 86.4h8.5zm14.6 18.3 10.5-18.2H27v10.8l4.3 7.4z"/></svg>
