<svg class="S" xmlns="http://www.w3.org/2000/svg" xml:space="preserve" viewBox="0 0 126 126"><linearGradient id="a" x1="-54.923" x2="-54.923" y1="-518.098" y2="-635.413" gradientTransform="scale(1 -1) rotate(32.528 -877.666 -118.154)" gradientUnits="userSpaceOnUse"><stop offset="0" stop-color="#d9dbdc"/><stop offset=".05" stop-color="#cccecf"/><stop offset=".23" stop-color="#9ea0a1"/><stop offset=".41" stop-color="#7a7b7d"/><stop offset=".57" stop-color="#606162"/><stop offset=".72" stop-color="#515153"/><stop offset=".83" stop-color="#4b4b4d"/></linearGradient><path fill="url(#a)" d="M105.2 36.1c14.8 23.3 8 54.2-15.3 69s-54.2 8-69-15.3c-14.8-23.3-8-54.2 15.3-69 23.2-14.8 54.1-8 69 15.3z"/><linearGradient id="b" x1="-54.934" x2="-54.934" y1="-519.661" y2="-633.879" gradientTransform="scale(1 -1) rotate(32.528 -877.666 -118.154)" gradientUnits="userSpaceOnUse"><stop offset="0" stop-color="#fff"/><stop offset="1" stop-color="#c0c1c3"/></linearGradient><path fill="url(#b)" d="M104 36.8c14.5 22.7 7.8 52.8-14.8 67.2S36.4 111.9 22 89.2 14.1 36.5 36.8 22C59.5 7.5 89.6 14.2 104 36.8z"/><linearGradient id="c" x1="31.123" x2="97.979" y1="96.866" y2="30.01" gradientTransform="matrix(1 0 0 -1 0 128)" gradientUnits="userSpaceOnUse"><stop offset="0" stop-color="#fff"/><stop offset="1" stop-color="#c0c1c3"/></linearGradient><path fill="url(#c)" d="M99.8 36c-14.9-20.3-43.6-24.7-63.9-9.8s-24.7 43.6-9.8 63.9C41 110.4 69.6 114.8 90 99.9c20.4-15 24.8-43.6 9.8-63.9zM63 105.4c-23.4 0-42.4-19-42.4-42.4s19-42.4 42.4-42.4 42.4 19 42.4 42.4-19 42.4-42.4 42.4z"/><linearGradient id="d" x1="31.116" x2="97.972" y1="96.86" y2="30.003" gradientTransform="matrix(1 0 0 -1 0 128)" gradientUnits="userSpaceOnUse"><stop offset="0" stop-color="#fff"/><stop offset="1" stop-color="#c0c1c3"/></linearGradient><path fill="url(#d)" d="M63 20.9c-23.3 0-42.2 18.9-42.2 42.2s18.9 42.2 42.2 42.2c23.3 0 42.2-18.9 42.2-42.1-.1-23.5-18.9-42.3-42.2-42.3zm0 80c-20.9 0-37.9-17-37.9-37.9s17-37.9 37.9-37.9 37.9 17 37.9 37.9c-.1 20.9-17 37.9-37.9 37.9z"/><linearGradient id="e" x1="24.832" x2="101.268" y1="103.134" y2="26.698" gradientTransform="matrix(1 0 0 -1 0 128)" gradientUnits="userSpaceOnUse"><stop offset="0" stop-color="#c1c3c5"/><stop offset=".26" stop-color="#bec0c2"/><stop offset=".46" stop-color="#b5b7b9"/><stop offset=".63" stop-color="#a5a6a8"/><stop offset=".79" stop-color="#8e9092"/><stop offset=".94" stop-color="#727375"/><stop offset="1" stop-color="#656668"/></linearGradient><path fill="url(#e)" d="M63 20.6c-23.4 0-42.4 19-42.4 42.4s19 42.4 42.4 42.4 42.4-19 42.4-42.4-19-42.4-42.4-42.4zm0 84.6c-23.3 0-42.2-18.9-42.2-42.2S39.7 20.9 63 20.9s42.2 18.9 42.2 42.2c-.1 23.2-18.9 42-42.2 42.1z"/><linearGradient id="f" x1="31.108" x2="97.965" y1="96.852" y2="29.996" gradientTransform="matrix(1 0 0 -1 0 128)" gradientUnits="userSpaceOnUse"><stop offset="0" stop-color="#c4d6ee"/><stop offset=".37" stop-color="#52a2d4"/><stop offset=".56" stop-color="#3c8dc1"/><stop offset=".97" stop-color="#055890"/><stop offset="1" stop-color="#00538c"/></linearGradient><path fill="url(#f)" d="M63 25.4c-20.8 0-37.6 16.8-37.6 37.6s16.8 37.6 37.6 37.6 37.6-16.8 37.6-37.6c0-20.7-16.8-37.5-37.6-37.6zm0 71c-18.4 0-33.3-14.9-33.3-33.3S44.6 29.7 63 29.7 96.3 44.6 96.3 63 81.4 96.3 63 96.4z"/><linearGradient id="g" x1="31.114" x2="97.97" y1="96.858" y2="30.001" gradientTransform="matrix(1 0 0 -1 0 128)" gradientUnits="userSpaceOnUse"><stop offset="0" stop-color="#c4d6ee"/><stop offset=".37" stop-color="#52a2d4"/><stop offset=".56" stop-color="#3c8dc1"/><stop offset=".97" stop-color="#055890"/><stop offset="1" stop-color="#00538c"/></linearGradient><path fill="url(#g)" d="M63 29.9c-18.3 0-33.1 14.8-33.1 33.1S44.7 96.1 63 96.1 96.1 81.3 96.1 63 81.3 29.9 63 29.9zm0 61.9c-15.9 0-28.8-12.9-28.8-28.8S47.1 34.2 63 34.2 91.8 47.1 91.8 63 78.9 91.8 63 91.8z"/><linearGradient id="h" x1="31.119" x2="97.975" y1="96.863" y2="30.006" gradientTransform="matrix(1 0 0 -1 0 128)" gradientUnits="userSpaceOnUse"><stop offset="0" stop-color="#c4d6ee"/><stop offset=".37" stop-color="#52a2d4"/><stop offset=".56" stop-color="#3c8dc1"/><stop offset=".97" stop-color="#055890"/><stop offset="1" stop-color="#00538c"/></linearGradient><path fill="url(#h)" d="M63 34.4c-15.8 0-28.6 12.8-28.6 28.6S47.2 91.6 63 91.6 91.6 78.8 91.6 63 78.8 34.5 63 34.4zm0 52.9c-13.4 0-24.3-10.9-24.3-24.3S49.6 38.7 63 38.7 87.3 49.6 87.3 63 76.4 87.3 63 87.3z"/><linearGradient id="i" x1="24.841" x2="101.267" y1="103.133" y2="26.697" gradientTransform="matrix(1 0 0 -1 0 128)" gradientUnits="userSpaceOnUse"><stop offset="0" stop-color="#197eb4"/><stop offset="1" stop-color="#00538c"/></linearGradient><path fill="url(#i)" d="M63 25.1c-20.9 0-37.9 17-37.9 37.9s17 37.9 37.9 37.9 37.9-17 37.9-37.9c-.1-20.9-17-37.8-37.9-37.9zm0 75.5c-20.8 0-37.6-16.8-37.6-37.6S42.2 25.4 63 25.4s37.6 16.8 37.6 37.6-16.8 37.6-37.6 37.6z"/><linearGradient id="j" x1="24.839" x2="101.274" y1="103.14" y2="26.705" gradientTransform="matrix(1 0 0 -1 0 128)" gradientUnits="userSpaceOnUse"><stop offset="0" stop-color="#197eb4"/><stop offset="1" stop-color="#00538c"/></linearGradient><path fill="url(#j)" d="M63 29.7c-18.4 0-33.3 14.9-33.3 33.3S44.6 96.3 63 96.3 96.3 81.4 96.3 63 81.4 29.7 63 29.7zm0 66.4c-18.3 0-33.1-14.8-33.1-33.1S44.7 29.9 63 29.9 96.1 44.7 96.1 63 81.3 96.1 63 96.1z"/><linearGradient id="k" x1="24.839" x2="101.274" y1="103.14" y2="26.705" gradientTransform="matrix(1 0 0 -1 0 128)" gradientUnits="userSpaceOnUse"><stop offset="0" stop-color="#197eb4"/><stop offset="1" stop-color="#00538c"/></linearGradient><path fill="url(#k)" d="M63 34.2c-15.9 0-28.8 12.9-28.8 28.8S47.1 91.8 63 91.8 91.8 78.9 91.8 63 78.9 34.2 63 34.2zm0 57.4c-15.8 0-28.6-12.8-28.6-28.6S47.2 34.4 63 34.4 91.6 47.2 91.6 63C91.5 78.8 78.8 91.6 63 91.6z"/><linearGradient id="l" x1="31.119" x2="97.975" y1="96.863" y2="30.006" gradientTransform="matrix(1 0 0 -1 0 128)" gradientUnits="userSpaceOnUse"><stop offset="0" stop-color="#fffdf8"/><stop offset=".18" stop-color="#f48264"/><stop offset=".48" stop-color="#e01d24"/><stop offset="1" stop-color="#961b1e"/></linearGradient><path fill="url(#l)" d="M63 39c-13.3 0-24 10.8-24 24s10.8 24 24 24c13.3 0 24-10.8 24-24 0-13.3-10.7-24-24-24zm0 43.8c-10.9 0-19.8-8.9-19.8-19.8S52.1 43.2 63 43.2 82.8 52.1 82.8 63 73.9 82.8 63 82.8z"/><linearGradient id="m" x1="31.112" x2="97.978" y1="96.865" y2="30.009" gradientTransform="matrix(1 0 0 -1 0 128)" gradientUnits="userSpaceOnUse"><stop offset="0" stop-color="#fffdf8"/><stop offset=".18" stop-color="#f48264"/><stop offset=".48" stop-color="#e01d24"/><stop offset="1" stop-color="#961b1e"/></linearGradient><path fill="url(#m)" d="M63 43.5c-10.8 0-19.5 8.7-19.5 19.5S52.2 82.5 63 82.5 82.5 73.8 82.5 63 73.8 43.5 63 43.5zm0 34.7c-8.4 0-15.2-6.8-15.2-15.2S54.6 47.8 63 47.8 78.2 54.6 78.2 63c0 8.4-6.8 15.2-15.2 15.2z"/><linearGradient id="n" x1="31.111" x2="97.967" y1="96.854" y2="29.998" gradientTransform="matrix(1 0 0 -1 0 128)" gradientUnits="userSpaceOnUse"><stop offset="0" stop-color="#fffdf8"/><stop offset=".18" stop-color="#f48264"/><stop offset=".48" stop-color="#e01d24"/><stop offset="1" stop-color="#961b1e"/></linearGradient><path fill="url(#n)" d="M63 48c-8.3 0-15 6.7-15 15s6.7 15 15 15 15-6.7 15-15c0-8.2-6.7-14.9-15-15zm0 25.7c-5.9 0-10.7-4.8-10.7-10.7 0-5.9 4.8-10.7 10.7-10.7 5.9 0 10.7 4.8 10.7 10.7 0 5.9-4.8 10.7-10.7 10.7z"/><linearGradient id="o" x1="24.853" x2="101.278" y1="103.144" y2="26.709" gradientTransform="matrix(1 0 0 -1 0 128)" gradientUnits="userSpaceOnUse"><stop offset="0" stop-color="#c61d23"/><stop offset="1" stop-color="#961b1e"/></linearGradient><path fill="url(#o)" d="M63 38.7c-13.4 0-24.3 10.9-24.3 24.3S49.6 87.3 63 87.3 87.3 76.4 87.3 63 76.4 38.7 63 38.7zM63 87c-13.3 0-24-10.8-24-24 0-13.3 10.8-24 24-24s24 10.8 24 24c0 13.3-10.7 24-24 24z"/><linearGradient id="p" x1="24.84" x2="101.275" y1="103.141" y2="26.706" gradientTransform="matrix(1 0 0 -1 0 128)" gradientUnits="userSpaceOnUse"><stop offset="0" stop-color="#c61d23"/><stop offset="1" stop-color="#961b1e"/></linearGradient><path fill="url(#p)" d="M63 43.2c-10.9 0-19.8 8.9-19.8 19.8S52.1 82.8 63 82.8 82.8 73.9 82.8 63 73.9 43.2 63 43.2zm0 39.3c-10.8 0-19.5-8.7-19.5-19.5S52.2 43.5 63 43.5 82.5 52.2 82.5 63 73.8 82.5 63 82.5z"/><linearGradient id="q" x1="24.842" x2="101.277" y1="103.143" y2="26.707" gradientTransform="matrix(1 0 0 -1 0 128)" gradientUnits="userSpaceOnUse"><stop offset="0" stop-color="#c61d23"/><stop offset="1" stop-color="#961b1e"/></linearGradient><path fill="url(#q)" d="M63 47.8c-8.4 0-15.2 6.8-15.2 15.2S54.6 78.2 63 78.2c8.4 0 15.2-6.8 15.2-15.2 0-8.4-6.8-15.2-15.2-15.2zM63 78c-8.3 0-15-6.7-15-15s6.7-15 15-15 15 6.7 15 15-6.7 15-15 15z"/><linearGradient id="r" x1="31.122" x2="97.978" y1="96.865" y2="30.009" gradientTransform="matrix(1 0 0 -1 0 128)" gradientUnits="userSpaceOnUse"><stop offset="0" stop-color="#fff100"/><stop offset=".15" stop-color="#fcec00"/><stop offset=".33" stop-color="#f4df02"/><stop offset=".51" stop-color="#e6c903"/><stop offset=".69" stop-color="#d3aa06"/><stop offset=".88" stop-color="#ba820a"/><stop offset="1" stop-color="#a8650c"/></linearGradient><path fill="url(#r)" d="M63 52.6c-5.8 0-10.4 4.7-10.4 10.4S57.2 73.5 63 73.5c5.8 0 10.4-4.7 10.4-10.4 0-5.9-4.6-10.5-10.4-10.5zm0 16.6c-3.4 0-6.2-2.8-6.2-6.2 0-3.4 2.8-6.2 6.2-6.2 3.4 0 6.2 2.8 6.2 6.2-.1 3.4-2.8 6.2-6.2 6.2z"/><linearGradient id="s" x1="31.119" x2="97.975" y1="96.862" y2="30.006" gradientTransform="matrix(1 0 0 -1 0 128)" gradientUnits="userSpaceOnUse"><stop offset="0" stop-color="#fff100"/><stop offset=".15" stop-color="#fcec00"/><stop offset=".33" stop-color="#f4df02"/><stop offset=".51" stop-color="#e6c903"/><stop offset=".69" stop-color="#d3aa06"/><stop offset=".88" stop-color="#ba820a"/><stop offset="1" stop-color="#a8650c"/></linearGradient><path fill="url(#s)" d="M63 57.1c-3.3 0-5.9 2.7-5.9 5.9 0 3.3 2.7 5.9 5.9 5.9 3.3 0 5.9-2.7 5.9-5.9 0-3.3-2.6-5.9-5.9-5.9zm0 8.1c-1.2 0-2.2-1-2.2-2.2 0-1.2 1-2.2 2.2-2.2s2.2 1 2.2 2.2c0 1.2-1 2.2-2.2 2.2z"/><linearGradient id="t" x1="31.113" x2="97.99" y1="96.877" y2="30.001" gradientTransform="matrix(1 0 0 -1 0 128)" gradientUnits="userSpaceOnUse"><stop offset="0" stop-color="#fff100"/><stop offset=".15" stop-color="#fcec00"/><stop offset=".33" stop-color="#f4df02"/><stop offset=".51" stop-color="#e6c903"/><stop offset=".69" stop-color="#d3aa06"/><stop offset=".88" stop-color="#ba820a"/><stop offset="1" stop-color="#a8650c"/></linearGradient><circle cx="63" cy="63" r="2" fill="url(#t)"/><linearGradient id="u" x1="24.842" x2="101.277" y1="103.143" y2="26.707" gradientTransform="matrix(1 0 0 -1 0 128)" gradientUnits="userSpaceOnUse"><stop offset="0" stop-color="#e2b807"/><stop offset="1" stop-color="#a8650c"/></linearGradient><path fill="url(#u)" d="M63 52.3c-5.9 0-10.7 4.8-10.7 10.7S57.1 73.7 63 73.7c5.9 0 10.7-4.8 10.7-10.7 0-5.9-4.8-10.7-10.7-10.7zm0 21.2c-5.8 0-10.5-4.7-10.4-10.5 0-5.8 4.7-10.4 10.5-10.4s10.4 4.7 10.4 10.5c-.1 5.7-4.7 10.4-10.5 10.4z"/><linearGradient id="v" x1="24.838" x2="101.264" y1="103.129" y2="26.704" gradientTransform="matrix(1 0 0 -1 0 128)" gradientUnits="userSpaceOnUse"><stop offset="0" stop-color="#e2b807"/><stop offset="1" stop-color="#a8650c"/></linearGradient><path fill="url(#v)" d="M63 56.9c-3.4 0-6.2 2.8-6.2 6.2 0 3.4 2.8 6.2 6.2 6.2 3.4 0 6.2-2.8 6.2-6.2-.1-3.5-2.8-6.2-6.2-6.2zM63 69c-3.3 0-5.9-2.7-5.9-5.9 0-3.3 2.7-5.9 5.9-5.9 3.3 0 5.9 2.7 5.9 5.9S66.3 69 63 69z"/><linearGradient id="w" x1="24.859" x2="101.245" y1="103.111" y2="26.725" gradientTransform="matrix(1 0 0 -1 0 128)" gradientUnits="userSpaceOnUse"><stop offset="0" stop-color="#e2b807"/><stop offset="1" stop-color="#a8650c"/></linearGradient><path fill="url(#w)" d="M63 60.8c-1.2 0-2.2 1-2.2 2.2 0 1.2 1 2.2 2.2 2.2 1.2 0 2.2-1 2.2-2.2 0-1.2-1-2.2-2.2-2.2zm0 4.2c-1.1 0-2-.9-2-2s.9-2 2-2 2 .9 2 2-.9 2-2 2z"/><path d="M50.3 121.7h-42c-2.2 0-4-1.8-4-4v-42c0-2.2 1.8-4 4-4h42c2.2 0 4 1.8 4 4v42c0 2.2-1.8 4-4 4z" opacity=".3"/><path fill="#273445" d="M46 126H4c-2.2 0-4-1.8-4-4V80c0-2.2 1.8-4 4-4h42c2.2 0 4 1.8 4 4v42c0 2.2-1.8 4-4 4z"/><linearGradient id="x" x1="25" x2="25" y1="115.559" y2="86.441" gradientUnits="userSpaceOnUse"><stop offset="0" stop-color="#e6a500"/><stop offset="1" stop-color="#d4ff47"/></linearGradient><path fill="url(#x)" d="m16.7 86.4 12.5 21.7-4.3 7.4L8.2 86.4h8.5zm14.6 18.3 10.5-18.2H27v10.8l4.3 7.4z"/></svg>
