<svg class="S" xmlns="http://www.w3.org/2000/svg" xml:space="preserve" id="design" x="0" y="0" version="1.1" viewBox="0 0 126 126"><style>.st0{fill:#262425}.st1{fill:#0e0e0e}.st4{fill:#171616}.st5{fill:#dd8d77}</style><path d="M49.3 65.5c-8.2-1-17.6-.3-23.2-3.1l-.9-.4-1 .1h-.7c-1.7 0-2.4-.4-2.6-.6l-.1-2.8-3.1-.3c-4-.4-8.1-1.1-10.6-1.7C9.5 46.4 15.6 37 24.4 30c4.6-3.7 9.7-6.5 15.2-8.6 5.5-2 11.2-3 16.7-3 5.4 0 10.7 1 15.5 2.9l1 .4 1-.2c.8-.2 1.7-.2 2.7-.2 5.2 0 9.9 2.1 10.8 3l1.3 1.8 2.3-.4c.5-.1 1-.1 1.7-.1 5.2 0 11.5 3 12.8 6.1l.9 2.2h2.4c2.4 0 7.4 1.5 10 4.7-2.8 3.9-5.8 5.7-8 7.1-1.6 1-3.1 1.9-3.9 3.3l-.9 1.6.8 1.7c1 2.1 3.2 3.8 5.3 5.3.9.7 2.6 1.9 3.2 2.6-.4 1.4-2.7 4.8-5.2 7.8l-2.9.2-.6.2c-.1 0-7.4 3-16.1 3-1.3 0-2.6-.1-3.8-.2-11.1-1.2-15.9-1.9-16-1.9l-1.4-.3-1.1.8c-.2.2-10.8-3.4-18.8-4.3z" class="st0"/><path d="M123 38.5c-2.7-5.6-10.3-8.3-14.3-8.4-2.4-5.8-12.8-9.2-18.5-8.1-1.7-2.4-10.3-5.4-17-4.2C44.8 6.5 8.4 26.8 3 58.9c2.8 1.8 14.4 3 14.4 3s.1 4.1 7.1 3.7c5.8 2.9 14.4 6.8 22.7 9.1 14.3 4 23-1.9 23-1.9s4.8.7 16.1 1.9 21.7-3.1 21.7-3.1l3.8-.2s7.8-8.6 7.1-12c-.6-3.1-7.5-5.9-8.9-8.8 1-2 7.7-3.3 13-12.1zM80.4 24.8c-6.9 1.5-22.8 8-22.8 8l-3.6-.7s17.3-7.9 26.4-7.3zM61.6 21c-6.2.9-21.5 8.3-21.5 8.3l-3.3-.4s13.9-9 24.8-7.9zM19.7 44.9c1.9-2.3 5-5.8 5-5.8l3.4.4c-.1 0-4.2 3.3-8.4 5.4zm23.5-4.3 4 .5c.4.3-9.6 6.8-14.9 8.1 2.8-2.1 10.9-8.6 10.9-8.6zm14 32c-.2.9-2.8 1-6.2.2-3.4-.8-7.8-2.3-7.6-3.2.2-.9 3.2 0 6.7.5 3.8.5 7.4 1.6 7.1 2.5zm-9.1-20.1c6.8-2.9 14.2-8.1 14.2-8.1l5.8 1c.4.3-9.6 6.6-20 7.1zm21.3 3.9c6.8-2.9 12.5-6.9 12.5-6.9l5 1.2c.4.3-7.2 5.2-17.5 5.7zm9.3-18.8L73 36.4s12-8 21.8-5.5c-5.7.8-16.1 6.7-16.1 6.7zm28.4 1.5c-4.6 1.9-9.3 5.8-9.3 5.8l-4.5-1.8c.1.1 6.2-4 13.8-4zm3.8 20.4c-2.6.3-6 .3-16.4.8 8.2-2.6 12.3-6.2 12.3-6.2s2.9 2.9 4.1 5.4z" class="st1"/><path fill="#be362c" d="M111.8 47.3c2.5-1.5 6.2-3.8 9.5-8.9-2.8-4.7-11-7.4-14.1-7.4-12.2.1-27.5 8-27.6 8l-.5.3-9.8-2.1 2.9-1.9c.4-.3 9.8-6.4 19.1-6.4 1.6 0 3.1.2 4.5.5l2.6 1.1s6.1-.6 8.5-1c-2.7-3.5-9.5-6.5-14.3-6.2-9.1.6-34 11-34.1 11.1l-.5.2-7.9-1.7 3.3-1.9c.5-.3 10.8-5.2 20.1-7.3 4-.9 8.6-.4 9.8-.1.9-.2 3.1-.9 5.1-1.2-2.1-1.6-9.2-4.4-15-3.3-12 2.2-20.4 5.7-32.9 11.6l-.4.2-8-.9 3.6-2.3c.2-.1 14.9-9.5 27.9-8.1 1.6-.4 4.8-1.1 6.4-1.5-7.3-2.4-24.2-5.4-45.6 9.3-5.2 3.6-9.8 9.2-13.1 14.2-3 4.6-5.2 9.7-6.4 15.1 0 .1 22-4.3 44.9 3.8-21.6-5.9-45-2.4-44.9-2.4 2.8 1 9 1.9 12.7 2.3C31 55 66.1 70.7 88.7 69.2 78 68 70.3 66.3 66.2 64.6c5.1 2 44.8 5.4 44.8 5.4 3.4-3.8 6.7-8.8 6.4-10.3-.2-1.1-2.4-2.7-4.1-4-2-1.5-3.9-2.9-4.7-4.5l-.3-.7.4-.7c.5-.9 1.6-1.6 3.1-2.5zm-97.5 1.8 3.6-4.5c1.9-2.3 5.1-6 5.2-6l.5-.6 7.8.9-2.8 2.2c-.3.1-9.9 5.7-14.3 8zm11 3.8 5.6-4.4c2.9-1.9 11.1-8.6 11.1-8.7l.5-.4 5.1.6.3.3c.4.4.6 1 .5 1.5-.1.4-.3 1.3-6.4 4.8-2.2 1.4-13.4 5.5-16.7 6.3zm22.3 1.2-5.2-.6C49.2 50.6 61.2 43 61.3 43l.5-.4 6.9 1.3.3.2c.5.4.7 1.1.5 1.7-.5 1.5-5.7 3.9-7.3 4.6-3.5 1.6-8.9 3.4-14.6 3.7zm41-2.7c-.5 1.4-4.4 3.2-6.1 3.9-2.9 1.2-7.6 2.7-13.3 3l-5.2-.8c6.8-2.9 17.1-9 17.2-9.1l.5-.4 6.1 1.4.3.2c.5.5.7 1.2.5 1.8zm23.6 7.5.8 1.8-2 .3c-1.6.2-3.3.3-6.4.4-2.3.1-5.6.2-10.1.4l-5.9-.9c8.2-2.1 17.1-7.7 17.2-7.8l1-.9 1 .9c.2.2 3.1 3 4.4 5.8zm-13-12.8-.7.6-8-3.2 2.4-1.6c.3-.2 6.7-4.4 14.9-4.4h5.5c-4.4 1.8-14.1 8.5-14.1 8.6z"/><path fill="#ce4137" d="M117.6 36.8c-4.6 2.3-16.1 9.8-17.3 10.7l-1.5 1.2-12.3-4.9 5.3-3.5c.3-.2 7.2-4.7 15.9-4.7h5.5l3.4.5c-2.9-2-6.4-3-9.9-2.8-.1 0-.2 0-.3-.1 0 0 0-.1-.1-.1-.3-.7-2.8.1-3.4.1-8.3 0-22.1 7.1-22.6 7.3l-1.1.6L64.7 38l6.5-4.3c.4-.3 12.9-8.1 22.7-8.1 4.1 0 8.5 1.5 11.3 3.2-.2-.6-8.8-6.3-18.1-3.6-4 1.2-8 2.2-11.9 3.7-4.3 1.7-8.5 3.5-12.7 5.4-1.1.5-2.2 1.1-3.3 1.6l-1 .6-13.1-2.8 7.4-4.3c14.7-6 24.2-11.2 34.4-7.2-2.7-1.8-6.2-2.2-9.5-2.2-4.1.1-11.8 1.6-36.1 12.3-.1 0-.1.1-.1.1l-.8.4-13.6-1.5 7.9-5c.3-.2 16.2-10.6 31.9-7.6-2.6-.9-5.9-1.8-10.1-1.8-9.1 0-19.6 4.1-31.1 12.1-5.9 4-10.4 10.3-12.6 13.7-2.9 4.3-5.4 8.2-6.5 13.2 2.7-.8 10.7-.8 10.7-.8l11.9.2c14-.5 37.1 10 78.3 13.1.7.1 3-.2 3-.2 1.9-2.2 3.4-4.3 4.3-5.9l-3.2.4c-1.6.2-3.4.3-6.6.4-2.3.1-5.5.2-10 .4h-.2l-6.1-.9-6-.9c7.5-1.9 21.5-9.6 22.4-10.1l1.6-1.4.7-1.2c.8-1.4 2.1-2.2 3.8-3.2 2.3-1.4 5.4-3.3 8.3-7.4-.5-.6-1-1.1-1.6-1.6zM15.5 51.3l-5.4 2.8 6-10.6.1-.1c1.9-2.4 5.2-6.1 5.2-6.1l1.1-1.3 13.1 1.5-6.2 5c-.2.2-9.4 6.5-13.9 8.8zm10.2 3.4-4.9.4 9-8.1h.1c2.3-1.6 8.7-6.7 11-8.6l1.1-.9 6.4.7.8.6c1 .8 1.4 2.1 1.1 3.3-.3 1.2-1 2.3-7.3 6-2.6 1.6-14 5.8-17.3 6.6zm21.9 1.2-12.3-1.3 6.4-2.7c6.5-2.7 18-10 18.6-10.4l1.1-.8 8.1 1.5.7.5c1.1.9 1.5 2.3 1 3.6-.2.7-.8 2.4-8.3 5.7-3.6 1.6-9.2 3.5-15.2 3.8l-.1.1zM90.3 52c-.2.7-.8 2.4-7.2 5-3.1 1.2-8 2.8-13.9 3.1H69l-11.8-1.7 6-2.5c6.5-2.7 16.2-8.5 16.9-8.9l1.2-.8 7.3 1.7.6.5c1.1.8 1.6 2.3 1.1 3.6z"/><path d="m57.4 92.8-.1 6.3s.7 9.1 5.5 9.8v2.1c-8.4-.6-9.9-12.1-9.9-12.1l-.6-6.1h5.1z" class="st4"/><path d="M55 94c-1.7 0-3.1-1.4-3.1-3.1 0-1.7 1.4-3.1 3.1-3.1 1.7 0 3.1 1.4 3.1 3.1 0 1.7-1.4 3.1-3.1 3.1z" class="st4"/><path d="M56.6 91.4h-4.5L38.5 71.3h4.6z" class="st1"/><path d="M53.3 91.4h4.5L67 71.3h-6.3z" class="st1"/><path d="M65.5 111.3h-2.8c-1 0-1.8-.8-1.8-1.8s.8-1.8 1.8-1.8h2.8c1 0 1.8.8 1.8 1.8s-.8 1.8-1.8 1.8z" class="st0"/><path d="M77.4 93.6h-5.6L55.3 69.3h5.6z" class="st1"/><path d="M73.3 93.6h5.5l12.3-24.3h-8.3z" class="st1"/><path d="M75.3 96.9c-2.1 0-3.8-1.7-3.8-3.8 0-2.1 1.7-3.8 3.8-3.8 2.1 0 3.8 1.7 3.8 3.8 0 2.1-1.7 3.8-3.8 3.8z" class="st0"/><path d="m71.8 95.3.2 5.1s-.2 5.1-5.8 8.8v1.3c10.4-.5 11.9-10.3 11.9-10.3l.9-4.9h-7.2z" class="st0"/><path d="M63.7 17.7C59.2 16.2 49 15.4 35 22.4c.1 0 15.4-6.9 28.7-4.7zm-37 35.9c10.2-1.1 20.4-2.8 23.4-11-6.6 7.3-14 8.9-23.4 11zm-15.8-.7c8.5-2.9 18-6.8 21.3-13.4-6.6 6.4-13.8 9.4-21.3 13.4zm75.8 9.9c9.1 1.2 28.1 3.2 27.7-1-5.8 2.1-19.5 1.1-27.7 1zM29.4 26.3c-4.3-.2-14.5 11.3-19 20.2 4.8-7.6 13.3-16.3 19-20.2zm37.9 33.8c8.8 1.2 18.1-.2 21-5.9-5.9 4.9-13.1 6.1-21 5.9zm-17.4-4.2c10.2-1.1 18.5-1.7 21.5-9.8-6.6 7.3-12.1 7.8-21.5 9.8zm34.3-35.1c-4.5-1.5-9-3.5-28.7 4.6 0-.1 15.4-6.9 28.7-4.6zm19.6 7.2c-6.4-4.6-11.5-6.2-30.8 2.6 0 0 20.1-7.6 30.8-2.6zM54 26.1l-13.6 6.7-8.7-.9 9.4 2.3zm15 5.7-10.7 4.6-8.7-.9 9.4 2.4zm48.5 4.2c-6.4-4.6-12.6-7.6-38.3 5.1 0 0 27.9-12.7 38.3-5.1z" class="st5"/><path d="M98.3 33.9c-5.4-.4-19.3 7.3-19.3 7.3l-12.6-1.9 13.3 3.3c0 .1 12.7-7.6 18.6-8.7zm16.4 5.2c-7.9 3.5-16.2 9.4-16.2 9.4l-10.8-4.2L99.2 50s9.9-8 15.5-10.9z" class="st5"/><path d="M50.3 121.7h-42c-2.2 0-4-1.8-4-4v-42c0-2.2 1.8-4 4-4h42c2.2 0 4 1.8 4 4v42c0 2.2-1.8 4-4 4z" opacity=".3"/><path fill="#273445" d="M46 126H4c-2.2 0-4-1.8-4-4V80c0-2.2 1.8-4 4-4h42c2.2 0 4 1.8 4 4v42c0 2.2-1.8 4-4 4z"/><linearGradient id="SVGID_1_" x1="25" x2="25" y1="115.559" y2="86.441" gradientUnits="userSpaceOnUse"><stop offset="0" stop-color="#e6a500"/><stop offset="1" stop-color="#d4ff47"/></linearGradient><path fill="url(#SVGID_1_)" d="m16.7 86.4 12.5 21.7-4.3 7.4L8.2 86.4h8.5zm14.6 18.3 10.5-18.2H27v10.8l4.3 7.4z"/></svg>
