<svg class="S" xmlns="http://www.w3.org/2000/svg" xml:space="preserve" id="Layer_1" x="0" y="0" version="1.1" viewBox="0 0 126 126"><style>.st0{fill:#717171}.st1{fill:#383838}.st2{fill:#fff}.st3{fill:#ff9b48}.st4{fill:#ebebeb}.st5{fill:none;stroke:#ebebeb;stroke-width:1.5137;stroke-miterlimit:10}</style><path d="M59.3 78.7s2.3 5.6 1.9 6.7c-.6 1.7-4.1 1.8-4.1 1.8l10 .7-3.4-9.1-4.4-.1zm37.3.6s2.3 5.6 1.9 6.7c-.6 1.7-4.6 2.1-4.6 2.1l10.6.3-3.4-9.1h-4.5z" class="st0"/><path d="M54.2 66.2 54 79.7s16 2.3 17.8 1.2l1.3-7.3c-.1 0-18.3-6.8-18.9-7.4z" class="st1"/><path d="m40.8 91.5 75.5 1.2s10.5.6 9.4-5.1c-.6-3.2-2.8-8.5-2.8-8.5l-5.6.4s3.6 5.2 2.6 7.2c-1.7 3.4-72.4.3-72.8.3-.4-.2-5.5.1-6.3 4.5z" class="st0"/><path d="M59 30.1s6.9 12 2.5 20.8-7.8 16-7.3 18.5c.4 1.9 15.3 3.3 21.2 6.4 5.9 3.1 14.9 7.3 20.3 7.4 5.4.1 23.8-.1 29.8-2.5 0 0 1.7-10.8-11.1-14.1-12.9-3.3-21.8-8-22.4-20-.6-12-.7-21.7-1.4-22.8-1.7-2.4-6.4-1.8-16.3 2.9-10.3 4.7-15.5-.3-15.3 3.4z" class="st1"/><path d="M125.5 78.3c-6 2.4-24.4 2.6-29.8 2.5-5.4-.1-14.4-4.3-20.3-7.4-5.9-3.1-20.3-4.6-21.2-6.4-2.2-4.5-2.6-10.6 1.9-19.4.3-.6.5-1.1.8-1.7 3.5-8.4 2.2-18.2 2.2-18.2-.2-3.7 5 1.3 15.2-3.5 9.9-4.7 14.6-5.4 16.3-2.9.8 1.1.8 10.8 1.4 22.8.6 12 11.4 16.3 24.3 19.6 3.7.9 6 2.5 7.5 4.3 3.6 4.6 1.7 10.3 1.7 10.3z" class="st2"/><path d="M83.4 27.5c0 .7-.6 1.3-1.4 1.3-.7 0-1.3-.6-1.3-1.4 0-.7.6-1.3 1.4-1.3.7.1 1.3.7 1.3 1.4zm.8 4.9c0 .7-.6 1.3-1.4 1.3-.7 0-1.3-.6-1.3-1.4 0-.7.6-1.3 1.4-1.3.7.1 1.3.7 1.3 1.4zm.8 4.9c0 .7-.6 1.3-1.4 1.3-.7 0-1.3-.6-1.3-1.4 0-.7.6-1.3 1.4-1.3.7 0 1.3.7 1.3 1.4z" class="st3"/><path d="M84.2 20.4s3.1 18.9 3.5 19.1c.4.1 3.7.8 3.7.8s-2.8-1.1-3.1-2.4c-.3-1.2-4.1-17.5-4.1-17.5z" class="st4"/><path d="M76.6 23.2s3.7 26.1 4.9 28.6c1.1 2.4 3.9 9.9 17.8 14s16.7 1.6 17-1.9" class="st5"/><path d="M110.5 65.8c0 .5-.4.8-.9.8s-.8-.4-.8-.9.4-.8.9-.8c.4.1.8.5.8.9zm-4-.9c0 .5-.4.8-.9.8s-.8-.4-.8-.9.4-.8.9-.8c.4.1.8.5.8.9zm-4.1-1.1c0 .5-.4.8-.9.8s-.8-.4-.8-.9.4-.8.9-.8c.5.1.8.5.8.9zm-4.3-1.5c0 .5-.4.8-.9.8s-.8-.4-.8-.9.4-.8.9-.8c.4 0 .8.4.8.9z" class="st4"/><path d="M110.2 65.8c-.1.3-.4.5-.7.4-.3-.1-.5-.4-.4-.7l.8-3.6c.1-.3.4-.5.7-.4.3.1.5.4.4.7l-.8 3.6zm-3.8-1c-.1.3-.4.6-.7.5-.3-.1-.6-.4-.5-.7l.8-3.8c.1-.3.4-.6.7-.5.3.1.6.4.5.7l-.8 3.8zm-3.9-1.3c-.1.3-.5.5-.8.4-.3-.1-.5-.5-.4-.8l1.3-3.8c.1-.3.5-.5.8-.4.3.1.5.5.4.8l-1.3 3.8zm-4.4-1.3c-.1.3-.5.5-.8.4-.3-.1-.5-.5-.4-.8l2.4-4.7c.1-.3.5-.5.8-.4.3.1.5.5.4.8l-2.4 4.7z" class="st3"/><path d="M93.7 60c0 .5-.4.8-.9.8s-.8-.4-.8-.9.4-.8.9-.8c.4 0 .8.4.8.9z" class="st4"/><path d="M93.7 59.9c-.1.3-.5.5-.8.4-.3-.1-.5-.5-.4-.8 1.1-1.7 2.3-3.3 3.7-4.8.1-.3.6-.5 1-.4.4.1.6.5.4.8-1.6 1.5-2.8 3.1-3.9 4.8z" class="st3"/><path d="M89.8 56.6c0 .5-.4.8-.9.8s-.8-.4-.8-.9.4-.8.9-.8c.5.1.8.5.8.9z" class="st4"/><path d="M89.8 56.5c-.2.3-.5.5-.8.4-.3-.1-.6-.5-.3-1 1.6-1.6 3.3-3.2 5.1-4.6.3-.3.6-.4.9-.2.4.1.5.7 0 1-1.7 1.4-3.4 2.8-4.9 4.4z" class="st3"/><path d="M87 51.8c0 .5-.4.8-.9.8s-.8-.4-.8-.9.4-.8.9-.8c.4.1.8.4.8.9z" class="st4"/><path d="M87.1 51.8c-.4.3-.7.3-1 .3-.3-.1-.7-.6-.1-1 1.8-1.3 3.9-2.5 6.2-3.3.4-.2.8-.3 1.2-.1.4.2.5.9-.1 1.1-2.3.7-4.4 1.7-6.2 3z" class="st3"/><path d="M85.7 46c-.1.5-.6.7-1 .6-.5-.1-.7-.6-.6-1 .1-.5.6-.7 1-.6.5.1.8.5.6 1z" class="st4"/><path d="M85.9 46c-.5.2-.8.2-1 .1-.3-.1-.5-.7.1-1.1 2.1-.9 4.3-1.5 6.7-1.9.4-.2.8-.1 1.1.1.3.2.2 1-.4 1.1-2.3.3-4.5.9-6.5 1.7zm39.6 32.3c-6 2.4-24.4 2.6-29.8 2.5-5.4-.1-14.4-4.3-20.3-7.4-5.9-3.1-20.3-4.6-21.2-6.4-2.2-4.5-2.6-10.6 1.9-19.4.3-.6.5-1.1.8-1.7 3.4-.3 8.5-.1 12.8 2.8 7.1 4.8 5.8 8.7 14.7 15.4 5.6 4.2 13.3 9.1 29.8 7.8 0 0 7.7-.7 9.6-3.9 3.6 4.6 1.7 10.3 1.7 10.3z" class="st3"/><path d="M91.3 91.5c-6.4.5-24.1-4.9-29.2-6.6-5.1-1.7-19.9-55.6-8.7-57.1 10.9-1.5 18.8-.7 19.7 2.2.4 1.3-.3 7.3-3.4 18.9-3.1 11.6 6 19 17.2 26 3.2 2 5 4.2 5.8 6.4 2.1 5.3-1.4 10.2-1.4 10.2z" opacity=".4"/><path d="M21.5 74.2s.5 6.1-.2 7c-1.1 1.5-4.4.5-4.4.5l9.3 3.6-.5-9.7-4.2-1.4zm35.3 11.9s.5 6.1-.2 7c-1.1 1.5-5.1.6-5.1.6l10 3.5-.5-9.7-4.2-1.4z" class="st0"/><path d="m20.4 60.8-4.3 12.8s14.6 7.1 16.6 6.6l3.4-6.6c0-.1-15.3-12.1-15.7-12.8z" class="st1"/><path d="m0 80.8 71.6 24s9.8 3.8 10.5-2c.4-3.2-.1-9-.1-9l-5.5-1.3s1.8 6.1.4 7.6c-2.6 2.8-69.1-21.6-69.5-21.8-.3-.1-5.4-1.5-7.4 2.5z" class="st0"/><path d="M36.6 28.9s2.2 12.5-4.7 19.5-12.3 12.9-12.6 15.4c-.2 1.9 13.6 7.7 18.3 12.5 4.7 4.8 12 11.5 17.1 13.2 5.1 1.7 22.7 7.1 29.2 6.6 0 0 4.9-9.8-6.3-16.8-11.3-7-18.4-14.2-15.3-25.9 3.1-11.6 6-20.9 5.6-22.2-.9-2.8-5.6-3.6-16.4-2.2-11.2 1.6-14-3.7-14.9-.1z" class="st1"/><path d="M84.7 94c-6.4.5-24.1-4.9-29.2-6.6-5.1-1.7-12.4-8.5-17.1-13.2-4.7-4.8-18-10.6-18.3-12.5-.7-4.9.8-10.9 7.6-17.9.4-.4.9-.9 1.3-1.4 5.9-7 7.6-16.7 7.6-16.7.9-3.5 4.4 2.8 15.6 1.3 10.9-1.5 15.6-.7 16.4 2.2.4 1.3-2.5 10.5-5.6 22.2-3.1 11.6 6 19 17.2 26 3.2 2 5 4.2 5.8 6.4C88.2 89 84.7 94 84.7 94z" class="st2"/><path d="M59.9 32.8c-.2.7-1 1.1-1.7.9-.7-.2-1.1-1-.9-1.7.2-.7 1-1.1 1.7-.9.8.2 1.2 1 .9 1.7zm-.7 4.9c-.2.7-1 1.1-1.7.9-.7-.2-1.1-1-.9-1.7.2-.7 1-1.1 1.7-.9.8.2 1.1 1 .9 1.7zm-.7 4.9c-.2.7-1 1.1-1.7.9-.7-.2-1.1-1-.9-1.7.2-.7 1-1.1 1.7-.9.8.2 1.2 1 .9 1.7z" class="st3"/><path d="M62.8 26.2s-2.8 19-2.4 19.2c.4.2 3.3 1.9 3.3 1.9s-2.3-1.9-2.2-3.2c0-1.2 1.3-17.9 1.3-17.9z" class="st4"/><path d="M54.8 26.6s-4.3 26-4 28.7c.3 2.7.7 10.6 12.7 18.7 12.1 8.1 15.5 6.6 16.8 3.3" class="st5"/><path d="M74.2 77.5c-.1.4-.6.7-1.1.5-.4-.1-.7-.6-.5-1.1.1-.4.6-.7 1.1-.5.4.2.6.7.5 1.1zm-3.6-2.1c-.1.4-.6.7-1.1.5-.4-.1-.7-.6-.5-1.1.1-.4.6-.7 1.1-.5.4.2.7.7.5 1.1zm-3.5-2.3c-.1.4-.6.7-1.1.5-.4-.1-.7-.6-.5-1.1.1-.4.6-.7 1.1-.5.4.2.6.7.5 1.1zm-3.7-2.7c-.1.4-.6.7-1.1.5-.4-.1-.7-.6-.5-1.1.1-.4.6-.7 1.1-.5.4.1.7.6.5 1.1z" class="st4"/><path d="M73.9 77.3c-.2.3-.5.4-.8.2-.3-.2-.4-.5-.2-.8l1.8-3.2c.2-.3.5-.4.8-.2.3.2.4.5.2.8l-1.8 3.2zm-3.3-2c-.2.3-.5.4-.8.2-.3-.2-.4-.5-.2-.8l1.9-3.4c.2-.3.5-.4.8-.2.3.2.4.5.2.8l-1.9 3.4zm-3.3-2.5c-.2.3-.6.3-.9.1-.3-.2-.3-.6-.1-.9l2.4-3.2c.2-.3.6-.3.9-.1.3.2.3.6.1.9l-2.4 3.2zm-3.9-2.5c-.2.3-.6.3-.9.1-.3-.2-.3-.6-.1-.9l3.7-3.7c.2-.3.6-.3.9-.1.3.2.3.6.1.9l-3.7 3.7z" class="st3"/><path d="M59.9 66.8c-.1.4-.6.7-1.1.5-.4-.1-.7-.6-.5-1.1.1-.4.6-.7 1.1-.5.4.2.7.7.5 1.1z" class="st4"/><path d="M59.9 66.7c-.2.3-.6.4-.9.2-.3-.2-.4-.6-.2-.9 1.5-1.3 3.2-2.4 5-3.5.2-.3.7-.3 1 0 .3.3.4.7.1.9-1.7.9-3.4 2.1-5 3.3z" class="st3"/><path d="M57.3 62.5c-.1.4-.6.7-1.1.5-.4-.1-.7-.6-.5-1.1.1-.4.6-.7 1.1-.5.4.1.6.6.5 1.1z" class="st4"/><path d="M57.3 62.3c-.3.2-.7.3-.9.2-.3-.2-.4-.6 0-1 2-1.1 4.1-2 6.3-2.9.3-.2.7-.2 1 .1.3.2.2.8-.3 1-2.2.7-4.2 1.6-6.1 2.6z" class="st3"/><path d="M56 57c-.1.4-.6.7-1.1.5-.4-.1-.7-.6-.5-1.1.1-.4.6-.7 1.1-.5.4.2.7.7.5 1.1z" class="st4"/><path d="M56.1 57c-.5.2-.8.1-1 0-.3-.2-.4-.7.2-1 2.1-.7 4.5-1.2 6.9-1.3.5-.1.8 0 1.2.2.3.3.2 1-.5 1-2.4.1-4.7.5-6.8 1.1z" class="st3"/><path d="M56.6 51.1c-.2.4-.8.5-1.2.3-.4-.2-.5-.8-.3-1.2.2-.4.8-.5 1.2-.3.4.3.5.8.3 1.2z" class="st4"/><path d="M56.7 51.1c-.5.1-.8-.1-1-.2-.3-.2-.3-.8.4-1 2.3-.2 4.6-.2 7 .2.5 0 .8.1 1 .4.2.3-.1 1-.7.9-2.3-.3-4.5-.4-6.7-.3zm28 42.9c-6.4.5-24.1-4.9-29.2-6.6-5.1-1.7-12.4-8.5-17.1-13.2-4.7-4.8-18-10.6-18.3-12.5-.7-4.9.8-10.9 7.6-17.9.4-.4.9-.9 1.3-1.4 3.3.7 8.2 2.5 11.4 6.6 5.3 6.7 2.9 10 9.3 19.2 4 5.7 9.9 12.7 26 16.4 0 0 7.5 1.7 10.3-.8C88.2 89 84.7 94 84.7 94z" class="st3"/><path d="M50.3 121.7h-42c-2.2 0-4-1.8-4-4v-42c0-2.2 1.8-4 4-4h42c2.2 0 4 1.8 4 4v42c0 2.2-1.8 4-4 4z" opacity=".3"/><path fill="#273445" d="M46 126H4c-2.2 0-4-1.8-4-4V80c0-2.2 1.8-4 4-4h42c2.2 0 4 1.8 4 4v42c0 2.2-1.8 4-4 4z"/><linearGradient id="SVGID_1_" x1="25" x2="25" y1="115.559" y2="86.441" gradientUnits="userSpaceOnUse"><stop offset="0" stop-color="#e6a500"/><stop offset="1" stop-color="#d4ff47"/></linearGradient><path fill="url(#SVGID_1_)" d="m16.7 86.4 12.5 21.7-4.3 7.4L8.2 86.4h8.5zm14.6 18.3 10.5-18.2H27v10.8l4.3 7.4z"/></svg>
