<svg class="S" xmlns="http://www.w3.org/2000/svg" id="design" x="0" y="0" version="1.1" viewBox="0 0 126 126" xml:space="preserve"><defs/><style>.st0{fill:#bd312d}.st1{fill:#0baed9}.st2{fill:#00657f}.st3{fill:#ef3e39}.st4{fill:#028aad}</style><path d="M8.4 82.3C25.6 76.1 78.7 100 78.7 100S64.2 43.4 65.6 14.3c-9.3 6-26.6 35.3-57.2 68z" class="st0"/><path d="M40.8 103.7l8.8-18.1.9.7zM3.1 98.1l6.4-8.2 2.1-.7zM105.3 107.9l-8.8-22.3-.6.1zM122.3 106.1l-5-28.2-.6.2z" class="st1"/><path d="M80.6 102.3l4.9-93.8-1.2-.2-5.8 93.8z" class="st2"/><path d="M9.5 89.9c22.7.3 67.6 9 67.6 9s.5-21.2 2.7-45.1l3.5-45.5c-.1-.1-16.1 22.2-73.8 81.6zM120.3 93.8c-17.1-6.1-38.1 2.9-38.1 2.9s4.9-54.9 3.5-83.9c9.2 5.9 33.5 52 34.6 81z" class="st3"/><path d="M107.7 100.3c-11.8-4.2-26.3 2-26.3 2s5.2-69.6 4.3-89.6c6.4 4.1 21.3 67.7 22 87.6z" class="st0"/><path d="M104.9 108.5s-.4-6.1 1.5-7.2l11.9-.2s.3 3.6 0 8.5c0 0-2.7 1.1-12.8-.1l-.6-1zM16.3 101.6L3.9 98.7s-2-1.1 0-1.2l43.2 8.3v1.5l-30.8-5.7z" class="st4"/><path d="M106.7 110.3l-4.6-9c-.1-.1-.2-.2-.3-.2h-43c-.1 0-.2.1-.3.2l-5.1 9.4c-.1.1 0 .3.1.4h.1c.1 0 .2-.1.3-.2l.1-.1 52-.5.1.1c.1.1.3.2.4.1.2.1.2-.1.2-.2z" class="st4"/><path d="M72 108.3h17.4c32 0 33.5-4.7 33.5-4.7l-.8 3.8c-2.8 9.8-14.5 10.4-14.5 10.4H36.3c-3.5-.2-4.1-2.9-4.1-2.9-8.3-11.8-15.9-11.6-15.9-11.6v-2c12.7 2.7 22.1 4.3 28.9 5.3 0 0 11.9 1.7 26.8 1.7z" class="st2"/></svg>
