<svg class="S" xmlns="http://www.w3.org/2000/svg" xml:space="preserve" viewBox="0 0 126 126"><path fill="#3ca0c4" d="M117.95 63c0 30.4-24.6 55-55 55s-55-24.6-55-55 24.6-55 55-55 55 24.6 55 55z"/><path fill="#fff" d="M91.3 86.2 87 101.3h-9.9l-6-15.1h20.2zM61 72.3c-3.6-8.9-7.9-20.7-6.7-21.6.5-.5 2.9 1.7 6.5 7.9.5.7.2-.2.2-.7V24H46.8c-.7 0-1 0-1 .2-.2.2 0 .5 0 1 4.6 13.7 6.5 21.4 5.5 22.1-.5.5-2.9-3.1-6.7-11.3-5.8-12.5-9.4-19.5-9.9-19-.7.5 3.4 13.2 13.7 41.8 3.4 9.4 4.6 14.2 3.8 14.7-.7.5-2.6-2.6-5.5-8.4-3.4-6.7-4.8-9.4-5.3-9.4-.5.2.7 4.6 2.9 10.8 3.1 9.9 8.4 26.9 7.4 27.6-.5.2-2.2-2.4-5.5-9.9-.7-1.7-1.2-2.4-1.2-2.4s-.2.2-.2.7v11.1l-3.8 7.9h17.8c-4.6-13.2-6-19.2-5.3-19.5 1-.5 4.8 7.2 9.6 19.5 4.6 2.2 10.3 7.7 13.7 10.8.7.7 1 .7.7 0-4-9.5-9.3-22.2-16.5-40"/></svg>