<svg class="S" xmlns="http://www.w3.org/2000/svg" xml:space="preserve" viewBox="0 0 126 126"><path fill="#bea67c" fill-rule="evenodd" d="M75.8 66.1s5.4-3 8.4-3.1c-3-.1-8.4-3.1-8.4-3.1l-18.3-40L63.1 8l16.6 36.1c3.3 7.2 10 18.6 18.1 18.9h.2-.2c-8.2.4-14.8 11.7-18.2 18.9L71.2 100l-5.5-11.8 10.1-22.1zM60.3 37.7l-5.5-11.8L46.4 44c-3.4 7.3-10 18.6-18.1 19h-.2.2c8.1.4 14.7 11.7 18.1 18.9L62.9 118l5.5-11.8-18.6-40.6s-5.1-2.4-8.1-2.6c3-.1 8-2.4 8-2.4l10.6-22.9zm-.6 18.1L56.4 63l3.3 7.2 3.3 7.2 3.3-7.2 3.3-7.2-3.3-7.2-3.3-7.2-3.3 7.2z" clip-rule="evenodd"/></svg>