<svg class="S" xmlns="http://www.w3.org/2000/svg" viewBox="0 0 126 126" style="enable-background:new 0 0 126 126" xml:space="preserve"><linearGradient id="a" gradientUnits="userSpaceOnUse" x1="2.611" y1="113.431" x2="124.127" y2="15.261"><stop offset="0" style="stop-color:#785d39"/><stop offset=".987" style="stop-color:#e3c381"/></linearGradient><path d="m111.4 121.6 2.1 2.1H93.9l-31.8-.3c-2.7 0-5.4 0-7.9-.5-2.7-.6-5.3-1.7-7.5-3.5-4-3.4-7.9-6.7-11.7-10.3-7.2-6.8-14.3-13.7-21.4-20.6-2.5-2.5-5.2-4.9-7-8.1C4.8 77.2 4 73.9 4 70.5 3.6 53.3 3.3 36 3 18.8v-2.5c.1-.1.3-.2.4-.3.6.6 1.3 1.1 1.9 1.7 5.3 5 10.5 10 15.8 15 .7.7 1 1.4 1 2.5.1 12.4.3 24.9.5 37.3 0 3 0 6 .2 8.9 0 .6.3 1.2.7 1.6l11.1 11.1c1.7 1.7 3.5 3.4 5.3 5.1.3.2.6.4 1.1.6 0-16-.7-32-.7-48 .2-.1.3-.1.5-.2 1.2 1.2 2.5 2.3 3.7 3.5 5.8 5.7 11.6 11.4 17.4 17 .4.4.8.7 1.2 1 .6.5 1.1.4 1.6-.1 6.8-6.4 13.6-12.7 20.4-19.1.3-.3.7-.6 1.2-1.1.1.8.1 1.2.1 1.6.1 13.3.3 26.6.4 39.8 0 1.1.3 2 1.1 2.8 4.2 4.3 8.3 8.6 12.4 12.8 3.6 4.2 7.4 8 11.1 11.8zm11.3-47.5c-.1-7.5-.2-15.1-.4-22.6-.1-3.9-1.9-7.2-4.6-10-2.5-2.5-5-4.9-7.5-7.3L84.3 8.6C80.1 4.4 75.1 2.2 69 2.2c-17 .2-34.1.1-51.2.2-.4 0-.8.1-1.5.2 15.3 15.9 31 30.9 46.6 46l23.5-23.2c.4.2.6.2.7.3 5.4 5.4 10.8 10.9 16.2 16.4.4.4.6 1 .7 1.5.1 1.5.2 3 .2 4.5l.3 40c0 1 .2 1.8 1.2 2.3.3.1.6.4.9.7 4.3 4.2 8.6 8.3 12.9 12.5 1.1 1 2.2 2 3.5 3.1v-2c-.1-10.3-.1-20.4-.3-30.6zM4.4 96.5c.3 8.9.5 17.7.8 26.8.6.1 1.3.3 1.9.3h21.3c.4 0 .8-.1 1.2-.1.7 0 1.4.1 2.1.1.3 0 .5.1.8.1.1-.1.1-.2.2-.3-9.3-9.1-18.6-18.1-27.9-27.2-.1.1-.2.2-.4.3zM121.9 2.4H95.4c-.1.2-.2.3-.3.5C104 11.7 113 20.5 122 29.4c.6-1.7.4-26.1-.1-27z" style="fill:url(#a)"/></svg>
