<svg class="S" xmlns="http://www.w3.org/2000/svg" xml:space="preserve" id="Layer_1" x="0" y="0" version="1.1" viewBox="0 0 126 126"><style>.st0,.st1{fill-rule:evenodd;clip-rule:evenodd}.st1{fill:#f2a01e}.st2{fill:#fbcf07}.st3,.st4{fill:#ec8023}.st4,.st5{fill-rule:evenodd;clip-rule:evenodd}.st5{fill:#fbcf07}</style><path d="M55.9 19.2c7.1 5.6 19.8 17.1 28 19.6 1.8 2 1.8 5.3 0 7.3-8.2 2.5-20.9 14.1-28 19.6 0 0 2.2-7.5 5.7-10.1 3.5-2.6 10.7-8.2 14.5-10.3 4.5-2.5 4.5-3.4 0-5.9-3.8-2.1-11-7.7-14.5-10.3-3.5-2.4-5.7-9.9-5.7-9.9z" class="st0"/><path d="M61.4 42.5c0 5.3 3 9.6 6.6 9.6 3.7 0 6.6-4.3 6.6-9.6s-3-9.6-6.6-9.6c-3.6 0-6.6 4.3-6.6 9.6z" class="st0"/><path d="M3 41.8C3 68 12.3 75.3 29.5 75.3s41.7-15.9 41.8-32.9c0-17-24.6-32.8-41.8-32.9C12.3 9.6 3 15.6 3 41.8zm63.1.7c0 13.3-21.5 27.6-36.6 27.7-13.8 0-21.3-4.5-21.3-28.4v-.2c0-11.1 1.8-18.4 5.4-22.2 3-3.2 7.9-4.6 15.9-4.6 15.1 0 36.5 14.3 36.6 27.7z" class="st1"/><path d="m108.5 38.3-2.7.4H83.4s1 .2 1.1 1.7l.1 1.7v.9l-.1 1.7c-.1 1.5-1.1 1.7-1.1 1.7h22.4l2.7.4c.3 0 .7.9.7.9h2.6s.6-.2 1-1.6c.2-.5.2-2 .3-3.5 0-1.5-.1-3-.3-3.5-.5-1.4-1-1.6-1-1.6h-2.6c0-.1-.4.8-.7.8z" class="st2"/><path d="m108.5 38.4-2.6.3h-2.4c0 .1.5 1.9.5 3.7v.2c0 1.8-.5 3.6-.5 3.7h2.4l2.6.3c.3 0 .7.9.7.9h.1c1.2-1.4 1.2-3.2 1.2-5 0-1.8 0-3.6-1.2-5h-.1c-.1 0-.4.9-.7.9zm-17.8 4.1c0 1.8-.4 3.8-.4 3.8h6.8a14.4 14.4 0 0 0 0-7.4h-6.8s.4 1.7.4 3.6z" class="st3"/><path d="M5 58.5c2.8 10.3 9 14.7 17.5 16.4 0-9.1-7.3-16.4-16.4-16.4H5zm17.4-48.4c-8.8 1.5-15.2 5.7-17.8 16.5H6c9 0 16.4-7.3 16.4-16.4v-.1zm45.8 21.8a55.1 55.1 0 0 0-18.1-16.5c.4 12 7 16.3 15.5 16.7h2l.6-.2zm-.6 20.7h-2c-8.5.4-15.1 4.7-15.5 16.7a55.1 55.1 0 0 0 18.1-16.5l-.6-.2z" class="st4"/><path d="M29.5 14.8c-8 0-12.9 1.4-15.9 4.6-3.6 3.8-5.4 11.1-5.4 22.2v.2c0 23.9 7.5 28.4 21.3 28.4 15.1 0 36.5-14.4 36.6-27.7-.1-13.4-21.5-27.7-36.6-27.7zm7.1 6.9a2 2 0 0 1 2 2c.1 1.1-.9 2-2 2s-2-.9-2-2c.1-1 1-2 2-2zM28 50.5c.1 1.1-.9 2-2 2a2 2 0 0 1-2-2c0-1.1.9-2 2-2a2 2 0 0 1 2 2zm-4-5.3c0-1.1.9-2 2-2 1.1.1 1.9.9 2 2a2 2 0 0 1-2 2c-1.1-.1-2-1-2-2zm5.3 5.3c0-1.1.9-2 2-2 1.1.1 1.9.9 2 2a2 2 0 0 1-2 2 2.2 2.2 0 0 1-2-2zm.1-5.4c-.1-1.1.9-2 2-2a2 2 0 0 1 2 2 2 2 0 0 1-2 2 2 2 0 0 1-2-2zm0-5.3c-.1-1.1.9-2 2-2a2 2 0 0 1 2 2 2 2 0 0 1-2 2 2 2 0 0 1-2-2zm5.3 5.3c-.1-1.1.9-2 2-2a2 2 0 0 1 2 2 2 2 0 0 1-2 2 2 2 0 0 1-2-2zm0-5.3c0-1.1.9-2 2-2a2 2 0 0 1 2 2 2 2 0 0 1-2 2 2 2 0 0 1-2-2zm0-5.4c0-1.1.9-2 2-2a2 2 0 0 1 2 2c0 1.1-.9 2-2 2s-2-.8-2-2zm5.3 5.4c0-1.1.9-2 2-2a2 2 0 0 1 2 2 2 2 0 0 1-2 2 2 2 0 0 1-2-2zm0-5.4c0-1.1.9-2 2-2a2 2 0 0 1 2 2 2 2 0 0 1-2 2 2 2 0 0 1-2-2zm-3.3-3.3a2 2 0 0 1-2-2c0-1.1.9-2 2-2 1.1-.1 2 .9 2 2a2 2 0 0 1-2 2zm-3.3-2a2 2 0 0 1-2 2 2 2 0 0 1-2-2c.1-1.1.9-1.9 2-2 1 0 2 .9 2 2zm0 5.3a2 2 0 0 1-2 2 2 2 0 0 1-2-2c0-1.1.9-2 2-2 1 0 2 .9 2 2zm-5.4 0a2 2 0 0 1-2 2 2 2 0 0 1-2-2c0-1 .9-1.9 2-2a2 2 0 0 1 2 2zm0 5.4a2 2 0 0 1-2 2 2 2 0 0 1-2-2c-.1-1.1.9-2 2-2 1.1-.1 2 .9 2 2zm-5.3 0a2 2 0 0 1-2 2c-1.1-.1-2-1-2-2 .1-1.1 1-2 2-2s2 .9 2 2zm0 5.4c.1 1.1-.9 2-2 2a2 2 0 0 1-2-2c0-1.1.9-2 2-2 1-.1 2 .8 2 2zm0 5.3a2 2 0 0 1-2 2 2 2 0 0 1-2-2c0-1.1.9-2 2-2a2 2 0 0 1 2 2zm3.3 3.3a2 2 0 0 1 2 2 2 2 0 0 1-2 2 2 2 0 0 1-2-2c0-1.1.9-2 2-2zm3.3 2c0-1.1.9-2 2-2a2 2 0 0 1 2 2c.1 1.1-.9 2-2 2-1.1.1-2-.9-2-2zm5.3 0c.1-1.1 1-2 2-2 1.1.1 2 1 2 2-.1 1.1-1 2-2 2s-1.9-.9-2-2zm.1-5.4c-.1-1.1.9-2 2-2a2 2 0 0 1 2 2 2 2 0 0 1-2 2c-1.1.1-2-.8-2-2zm5.3 0c0-1 .9-1.9 2-2a2 2 0 0 1 2 2c-.1 1.1-1 2-2 2-1.1.1-2-.8-2-2zm0-5.3c0-1.1.9-2 2-2a2 2 0 0 1 2 2 2 2 0 0 1-2 2c-1.1.1-2-.9-2-2zm5.4 0c.1-1.1.9-1.9 2-2a2 2 0 0 1 2 2 2.2 2.2 0 0 1-2 2c-1.1.1-2-.9-2-2zm0-5.3c0-1.1.9-2 2-2a2 2 0 0 1 2 2 2 2 0 0 1-2 2 2 2 0 0 1-2-2zm0-5.4c0-1.1.9-2 2-2a2 2 0 0 1 2 2c.1 1.1-.9 2-2 2-1.2 0-2-.8-2-2zM42 31.1a2 2 0 0 1-2-2c0-1.1.9-2 2-2a2 2 0 0 1 2 2c.1 1.1-.8 2-2 2zm-10.7-9.4a2 2 0 0 1 2 2 2.2 2.2 0 0 1-2 2 2 2 0 0 1-2-2c.1-1 .9-1.9 2-2zm-7.3 2c0-1.1.9-2 2-2s2 .9 2 2a2 2 0 0 1-2 2c-1.1.1-2-.8-2-2zm2 3.4a2 2 0 0 1 2 2 2.2 2.2 0 0 1-2 2 2 2 0 0 1-2-2c0-1.1.9-2 2-2zm-7.3 2c-.1-1.1.9-2 2-2a2 2 0 0 1 2 2 2 2 0 0 1-2 2 2 2 0 0 1-2-2zm2 3.3a2 2 0 0 1 2 2c-.1 1.1-1 2-2 2a2 2 0 0 1-2-2c0-1 .9-1.9 2-2zm-7.4 2c0-1.1.9-2 2-2 1.1.1 2 1 2 2a2 2 0 0 1-2 2c-1 0-2-.9-2-2zm0 5.4c.1-1.1 1-2 2-2a2 2 0 0 1 2 2c0 1-.9 1.9-2 2a2 2 0 0 1-2-2zm0 5.3c.1-1.1.9-1.9 2-2a2 2 0 0 1 2 2 2 2 0 0 1-2 2c-1.1.1-2-.9-2-2zm0 5.4c0-1.1.9-2 2-2 1.1-.1 2 .9 2 2a2 2 0 0 1-2 2 2 2 0 0 1-2-2zm5.4 5.3c0-1.1.9-2 2-2a2 2 0 0 1 2 2 2 2 0 0 1-2 2 2 2 0 0 1-2-2zm7.3 7.3c-1.1.1-2-.9-2-2s.9-2 2-2a2 2 0 0 1 2 2 2 2 0 0 1-2 2zm5.4.1a2 2 0 0 1-2-2c.1-1.1.9-1.9 2-2a2 2 0 0 1 2 2c-.1 1.1-1 1.9-2 2zm5.3 0a2 2 0 0 1-2-2c0-1.1.9-2 2-2 1.1-.1 2 .9 2 2a2 2 0 0 1-2 2zm7.4-2.1a2 2 0 0 1-2 2 2.2 2.2 0 0 1-2-2c0-1.1.9-2 2-2 1.1.1 1.9 1 2 2zm-2-3.3a2 2 0 0 1-2-2c-.1-1.1.9-2 2-2 1.1-.1 2 .9 2 2s-.9 2.1-2 2zm7.3-2a2 2 0 0 1-2 2 2 2 0 0 1-2-2c-.1-1.1.9-2 2-2a2 2 0 0 1 2 2zm-2-3.3a2 2 0 0 1-2-2c0-1.1.9-2 2-2 1.1-.1 2 .9 2 2a2 2 0 0 1-2 2zm7.3-2a2 2 0 0 1-2 2 2 2 0 0 1-2-2c0-1.1.9-2 2-2a2 2 0 0 1 2 2zm0-5.3a2 2 0 0 1-2 2 2 2 0 0 1-2-2c0-1.1.9-2 2-2 1.1-.1 2 .8 2 2zm0-5.4c0 1-.9 1.9-2 2a2 2 0 0 1-2-2c.1-1.1 1-2 2-2a2 2 0 0 1 2 2zm0-5.4a2 2 0 0 1-2 2c-1 0-1.9-.9-2-2 0-1.1.9-2 2-2 1.1.1 2 1 2 2zm-5.3-5.3a2 2 0 0 1-2 2 2.2 2.2 0 0 1-2-2c0-1.1.9-2 2-2a2 2 0 0 1 2 2zm-5.3-5.4a2 2 0 0 1-2 2c-1.1-.1-2-1-2-2 0-1.1.9-2 2-2 1 0 1.9 1 2 2z" class="st5"/><path d="M29.5 14.8c-8 0-12.9 1.4-15.9 4.6-3.6 3.8-5.4 11.1-5.4 22.2v.2c0 23.9 7.5 28.4 21.3 28.4 15.1 0 36.5-14.4 36.6-27.7-.1-13.4-21.5-27.7-36.6-27.7zm35.8 27.7c0 4.1-2.5 8.9-7 13.4a45.8 45.8 0 0 1-28.9 13.3c-7.5 0-12-1.4-14.9-4.7-3.5-4-5.2-11.2-5.2-22.7v-.2c0-10.8 1.7-18.1 5-21.6l.2-.2c2.7-2.7 7.3-3.9 14.8-3.9 14.6-.1 36 14 36 26.6zm4.8 17.7c-7.1 5.6-19.8 17.1-28 19.6a5.6 5.6 0 0 0 0 7.3c8.2 2.5 20.9 14.1 28 19.6 0 0-2.2-7.5-5.7-10.1-3.5-2.6-10.7-8.2-14.5-10.3-4.5-2.5-4.5-3.4 0-5.9 3.8-2.1 11-7.7 14.5-10.3 3.5-2.3 5.7-9.9 5.7-9.9z" class="st0"/><path d="M64.6 83.5c0 5.3-3 9.6-6.6 9.6-3.7 0-6.6-4.3-6.6-9.6s3-9.6 6.6-9.6c3.6.1 6.6 4.4 6.6 9.6z" class="st0"/><path d="M96.5 50.7c-17.2 0-41.7 15.9-41.8 32.9 0 17 24.6 32.8 41.8 32.9 17.2 0 26.5-7.3 26.5-33.6s-9.3-32.2-26.5-32.2zm0 5.2c8 0 12.9 1.4 15.9 4.6 3.6 3.8 5.4 11.1 5.4 22.2v.2c0 23.9-7.5 28.4-21.3 28.4-15.1 0-36.5-14.4-36.6-27.7.1-13.4 21.5-27.7 36.6-27.7z" class="st1"/><path d="m17.5 79.3 2.7.4h22.4s-1 .2-1.1 1.7l-.1 1.7v.9l.1 1.7c.1 1.5 1.1 1.7 1.1 1.7H20.2l-2.7.4c-.3 0-.7.9-.7.9h-2.6s-.6-.2-1-1.6c-.2-.5-.2-2-.3-3.5 0-1.5.1-3 .3-3.5.5-1.4 1-1.6 1-1.6h2.6c0-.1.4.8.7.8z" class="st2"/><path d="m17.5 79.4 2.6.3h2.4c0 .1-.5 1.9-.5 3.7v.2c0 1.8.5 3.6.5 3.7h-2.4l-2.6.3c-.3 0-.7.9-.7.9h-.1c-1.2-1.4-1.2-3.2-1.2-5 0-1.8 0-3.6 1.2-5h.1c.1 0 .4.9.7.9zm17.8 4.1c0 1.8.4 3.8.4 3.8h-6.8a14.4 14.4 0 0 1 0-7.4h6.8s-.4 1.8-.4 3.6z" class="st3"/><path d="M121 99.5h-1.1c-9 0-16.4 7.3-16.4 16.4A20.7 20.7 0 0 0 121 99.5zm-17.4-48.3v.2c0 9.1 7.3 16.4 16.4 16.4h1.4c-2.7-11-9-15.2-17.8-16.6zm-45.2 22h2c8.5-.4 15.1-4.7 15.5-16.7A55.1 55.1 0 0 0 57.8 73l.6.2zm-.6 20.7a55.1 55.1 0 0 0 18.1 16.5c-.4-12-7-16.3-15.5-16.7h-2l-.6.2z" class="st4"/><path d="M59.9 83.5c0 13.3 21.5 27.6 36.6 27.7 13.8 0 21.3-4.5 21.3-28.4v-.2c0-11.1-1.8-18.4-5.4-22.2-3-3.2-7.9-4.6-15.9-4.6-15.1.1-36.5 14.4-36.6 27.7zm31.5-18.7a2 2 0 0 1-2 2 2 2 0 0 1-2-2c0-1.1.9-2 2-2 1 0 1.9.9 2 2zm8.6 24.8c1.1-.1 2 .9 2 2a2 2 0 0 1-2 2 2 2 0 0 1-2-2c0-1.2.9-2 2-2zm0-1.4a2 2 0 0 1-2-2c.1-1.1.9-1.9 2-2a2 2 0 0 1 2 2 2 2 0 0 1-2 2zm-5.3 5.3a2 2 0 0 1-2-2c.1-1.1.9-1.9 2-2a2 2 0 0 1 2 2c-.1 1.1-.9 2-2 2zm-.1-5.3c-1.1.1-2-.9-2-2s.9-2 2-2a2 2 0 0 1 2 2 2 2 0 0 1-2 2zm0-5.4c-1.1.1-2-.9-2-2s.9-2 2-2a2 2 0 0 1 2 2c0 1.2-.8 2-2 2zm-5.3 5.4c-1.1.1-2-.9-2-2s.9-2 2-2a2 2 0 0 1 2 2 2 2 0 0 1-2 2zm0-5.4a2 2 0 0 1-2-2c0-1.1.9-2 2-2a2 2 0 0 1 2 2 2 2 0 0 1-2 2zm0-5.3a2 2 0 0 1-2-2c0-1.1.9-2 2-2a2 2 0 0 1 2 2 2 2 0 0 1-2 2zM84 82.8a2 2 0 0 1-2-2c0-1.1.9-2 2-2a2 2 0 0 1 2 2 2 2 0 0 1-2 2zm0-5.3a2 2 0 0 1-2-2c0-1.1.9-2 2-2a2 2 0 0 1 2 2 2 2 0 0 1-2 2zm3.3-7.3c0-1.1.9-2 2-2a2 2 0 0 1 2 2c.1 1.1-.9 2-2 2a2 2 0 0 1-2-2zm7.4-2.1c1.1.1 1.9.9 2 2a2 2 0 0 1-2 2 2 2 0 0 1-2-2c-.1-1 .9-2 2-2zm-.1 5.4a2 2 0 0 1 2 2c.1 1.1-.9 2-2 2a2 2 0 0 1-2-2c0-1.1 1-2 2-2zm5.4 0c1.1.1 2 1 2 2a2 2 0 0 1-2 2c-1.1.1-2-.9-2-2s.9-2 2-2zm0 5.3a2 2 0 0 1 2 2c.1 1.1-.9 2-2 2-1.1.1-2-.9-2-2s.9-2 2-2zm5.3 0c1.1.1 2 1 2 2-.1 1.1-1 2-2 2a2 2 0 0 1-2-2c0-1 1-2 2-2zm0 5.4c1.1-.1 2 .9 2 2 .1 1.1-.9 2-2 2a2 2 0 0 1-2-2c0-1.1 1-2 2-2zm0 5.4a2 2 0 0 1 2 2 2 2 0 0 1-2 2 2 2 0 0 1-2-2c0-1.2.9-2 2-2zm-3.3 7.3a2 2 0 0 1-2 2 2 2 0 0 1-2-2c0-1.1.9-2 2-2a2 2 0 0 1 2 2zm-7.3 2a2 2 0 0 1-2-2c-.1-1.1.9-2 2-2 1.1-.1 2 .9 2 2a2 2 0 0 1-2 2zm-5.4 0c-1.1-.1-2-1-2-2 .1-1.1 1-2 2-2 1.1.1 2 1 2 2a2 2 0 0 1-2 2zm0-5.4c-1.1.1-2-.9-2-2-.1-1.1.9-2 2-2a2 2 0 0 1 2 2 2 2 0 0 1-2 2zm-5.4 0c-1 0-1.9-.9-2-2 0-1.1.9-2 2-2 1.1.1 2 1 2 2 .1 1.1-.8 2-2 2zm.1-5.3a2 2 0 0 1-2-2c-.1-1.1.9-2 2-2a2 2 0 0 1 2 2 2 2 0 0 1-2 2zm-5.4 0a2.2 2.2 0 0 1-2-2c0-1.1.9-2 2-2 1.1.1 1.9.9 2 2a2 2 0 0 1-2 2zm0-5.4a2 2 0 0 1-2-2c-.1-1.1.9-2 2-2a2 2 0 0 1 2 2c0 1.2-.9 2.1-2 2zm0-5.3a2 2 0 0 1-2-2c0-1.1.9-2 2-2 1.1-.1 2 .9 2 2a2 2 0 0 1-2 2zm3.4-7.3c0-1.1.9-2 2-2 1.1-.1 2 .9 2 2a2 2 0 0 1-2 2c-1.2 0-2.1-.9-2-2zm14.7-5.4a2 2 0 0 1-2 2 2.2 2.2 0 0 1-2-2c0-1.1.9-2 2-2 1.1.1 1.9.9 2 2zm3.3 2a2 2 0 0 1-2-2c-.1-1.1.9-2 2-2a2 2 0 0 1 2 2c0 1.1-.9 2.1-2 2zm2 3.3a2 2 0 0 1-2 2 2.2 2.2 0 0 1-2-2c0-1.1.9-2 2-2 1.1.1 2 1 2 2zm3.3 2c-1.1.1-2-.9-2-2-.1-1.1.9-2 2-2a2 2 0 0 1 2 2c0 1.2-.9 2.1-2 2zm2 3.4a2 2 0 0 1-2 2c-1 0-1.9-.9-2-2 0-1.1.9-2 2-2a2 2 0 0 1 2 2zm3.4 2a2 2 0 0 1-2-2c0-1 .9-1.9 2-2a2 2 0 0 1 2 2c0 1.1-1 2-2 2zm0 5.4c-1.1-.1-2-1-2-2 0-1.1.9-2 2-2 1 0 1.9.9 2 2a2 2 0 0 1-2 2zm0 5.3a2 2 0 0 1-2-2c0-1.1.9-2 2-2 1.1.1 1.9.9 2 2a2 2 0 0 1-2 2zm0 5.3a2 2 0 0 1-2-2c0-1.1.9-2 2-2a2 2 0 0 1 2 2 2 2 0 0 1-2 2zm-5.4 5.4a2 2 0 0 1-2-2c0-1.1.9-2 2-2a2 2 0 0 1 2 2 2 2 0 0 1-2 2zm-7.3 3.3c-.1-1.1.9-2 2-2a2 2 0 0 1 2 2 2 2 0 0 1-2 2 2 2 0 0 1-2-2zm-5.4.1c0-1.1.9-2 2-2 1.1.1 1.9.9 2 2a2 2 0 0 1-2 2c-1-.1-1.9-1-2-2zm-5.3 0c0-1.1.9-2 2-2 1.1-.1 2 .9 2 2 .1 1.1-.9 2-2 2a2 2 0 0 1-2-2zm-3.4-2.1a2 2 0 0 1 2 2 2.2 2.2 0 0 1-2 2 2 2 0 0 1-2-2c.1-1.1.9-1.9 2-2zm-2-3.3c0-1.1.9-2 2-2a2 2 0 0 1 2 2c.1 1.1-.9 2-2 2a2 2 0 0 1-2-2zm-3.3-2a2 2 0 0 1 2 2 2 2 0 0 1-2 2c-1.1.1-2-.9-2-2s.9-2 2-2zm-2-3.4c0-1.1.9-2 2-2a2 2 0 0 1 2 2c.1 1.1-.9 2-2 2a2 2 0 0 1-2-2zm-3.3-1.9a2 2 0 0 1 2 2 2 2 0 0 1-2 2 2 2 0 0 1-2-2c0-1.2.8-2 2-2zm0-5.4a2 2 0 0 1 2 2c.1 1.1-.9 2-2 2a2 2 0 0 1-2-2c0-1.1.9-2 2-2zm0-5.4c1 0 1.9.9 2 2a2 2 0 0 1-2 2c-1.1-.1-2-1-2-2s.9-2 2-2zm0-5.3a2 2 0 0 1 2 2c-.1 1.1-1 2-2 2a2 2 0 0 1-2-2c0-1.1.9-2 2-2zm5.3-5.4a2 2 0 0 1 2 2 2.2 2.2 0 0 1-2 2 2 2 0 0 1-2-2c0-1 .9-1.9 2-2zm5.3-5.3a2 2 0 0 1 2 2c0 1-.9 1.9-2 2a2 2 0 0 1-2-2c.1-1.1 1-2 2-2z" class="st5"/><path d="M59.9 83.5c0 13.3 21.5 27.6 36.6 27.7 13.8 0 21.3-4.5 21.3-28.4v-.2c0-11.1-1.8-18.4-5.4-22.2-3-3.2-7.9-4.6-15.9-4.6-15.1.1-36.5 14.4-36.6 27.7zm36.7-26.6c7.5 0 12.1 1.2 14.8 3.9l.2.2c3.3 3.5 5 10.8 5 21.6v.2c0 11.4-1.6 18.6-5.2 22.7-2.9 3.3-7.4 4.7-14.9 4.7-9.1 0-21.3-5.6-28.9-13.3-4.5-4.5-7-9.2-7-13.4.1-12.5 21.5-26.6 36-26.6z" class="st0"/></svg>