<svg xmlns="http://www.w3.org/2000/svg" xmlns:xlink="http://www.w3.org/1999/xlink" width="24px" height="24px" viewBox="0 0 24 24"><g fill="none" fill-rule="evenodd"><g fill-rule="nonzero" transform="translate(3.000000, 4.000000)"><polygon fill="#FFD9A5" points="18 11.078125 0 11.078125 0 9.97077344 1.90835156 4.3984375 16.0916836 4.3984375 18 9.97077344"/><polygon fill="#FFC36E" points="18 9.97077344 16.0916484 4.3984375 9 4.3984375 9 11.078125 18 11.078125"/><polygon fill="#93635B" points="18 16 0 16 0 10.0234375 18 10.0234375"/><rect width="9" height="5.9765625" x="9" y="10.0234375" fill="#7F554E"/><polygon fill="#EDEDED" points="13.1132812 8.23046875 4.88671875 8.23046875 4.88671875 0.70703125 13.1132812 0.70703125"/><rect width="4.11328125" height="7.5234375" x="9" y="0.70703125" fill="#D2D2D2"/><rect width="9.984375" height="1.0546875" x="4.0078125" y="7.17578125" fill="#93635B"/><polygon fill="#5EAF00" points="8.50282031 6.28667969 6.88696875 4.67086328 7.63273828 3.92509375 8.50282031 4.79514063 10.3672617 2.93069922 11.1130312 3.67646875"/><rect width="4.9921875" height="1.0546875" x="9" y="7.17578125" fill="#7F554E"/></g></g></svg>