<svg xmlns="http://www.w3.org/2000/svg" xmlns:xlink="http://www.w3.org/1999/xlink" width="24px" height="24px" viewBox="0 0 24 24"><defs><polygon id="a" points="0.00241570079 0.0292299795 18.8885657 0.0292299795 18.8885657 5.97825552 0.00241570079 5.97825552"/></defs><g fill="none" fill-rule="evenodd"><g transform="translate(1.500000, 6.225000)"><path fill="#C92B1B" d="M6.3685925,8.24047878 L6.3685925,9.45557628 C6.3685925,9.60027675 6.39427946,9.73913929 6.44154667,9.86890268 C6.50580431,10.0446852 6.92118406,10.3846548 6.92118406,10.3846548 L1.9352179,10.3846548 L1.9352179,5.36213103 L4.005554,5.36213103 L4.005554,5.08025901 C4.005554,4.53672634 4.44625834,4.09606225 4.98975076,4.09606225 L5.97185391,4.09606225 C6.60283496,4.09606225 7.11480248,4.60762715 7.11480248,5.23901082 L7.11480248,7.53698645 C7.11480248,7.73181272 7.03605063,7.90759521 6.90838084,8.035265 C6.7806708,8.16297505 6.6048883,8.24172689 6.41006203,8.24172689 C6.39637306,8.24172689 6.38228147,8.24132428 6.3685925,8.24047878"/><path fill="#AA3226" d="M6.44154667,9.86890268 C6.39427946,9.73913929 6.3685925,9.60027675 6.3685925,9.45557628 L6.3685925,8.32196842 L1.9352179,8.32196842 L1.9352179,10.3846548 L6.92118406,10.3846548 C6.92118406,10.3846548 6.50580431,10.0446852 6.44154667,9.86890268"/><path fill="#00A2A0" d="M14.2453875,8.24047878 L14.2453875,9.45557628 C14.2453875,9.60027675 14.2197006,9.73913929 14.1724334,9.86890268 C14.1081757,10.0446852 13.6406168,10.3846548 13.6406168,10.3846548 L18.8031305,10.3846548 L18.8031305,5.36213103 L16.608426,5.36213103 L16.608426,5.08025901 C16.608426,4.53672634 16.1677217,4.09606225 15.6242293,4.09606225 L14.6421261,4.09606225 C14.0111451,4.09606225 13.4991776,4.60762715 13.4991776,5.23901082 L13.4991776,7.53698645 C13.4991776,7.73181272 13.5779294,7.90759521 13.7055992,8.035265 C13.8333092,8.16297505 14.0090917,8.24172689 14.203918,8.24172689 C14.217607,8.24172689 14.2316986,8.24132428 14.2453875,8.24047878"/><path fill="#008C87" d="M14.1724334,9.86890268 C14.2197006,9.73913929 14.2453875,9.60027675 14.2453875,9.45557628 L14.2453875,8.32196842 L18.6787621,8.32196842 L18.6787621,10.3846548 L13.6928362,10.3846548 C13.6928362,10.3846548 14.1081757,10.0446852 14.1724334,9.86890268"/><g transform="translate(0.000000, 4.750878)"><mask id="b" fill="#fff"><use xlink:href="#a"/></mask><path fill="#182128" d="M2.18395456,0.75885214 L2.18395456,5.24823074 C2.18395456,5.65157225 1.85727129,5.97825552 1.45388952,5.97825552 L0.730065039,5.97825552 C0.32668327,5.97825552 0,5.65157225 0,5.24823074 L0,0.75885214 C0,0.355913249 0.32668327,0.0292299795 0.730065039,0.0292299795 L1.45388952,0.0292299795 C1.85727129,0.0292299795 2.18395456,0.355913249 2.18395456,0.75885214" mask="url(#b)"/><path fill="#182128" d="M1.45388952,3.34844312 L0.730065039,3.34844312 C0.32668327,3.34844312 0,3.02175985 0,2.61841834 L0,5.24819048 C0,5.65153199 0.32668327,5.97821526 0.730065039,5.97821526 L1.45388952,5.97821526 C1.85727129,5.97821526 2.18395456,5.65153199 2.18395456,5.24819048 L2.18395456,2.61841834 C2.18395456,3.02175985 1.85727129,3.34844312 1.45388952,3.34844312" mask="url(#b)"/></g><path fill="#D92E32" d="M10.30699,5.83846697 L10.30699,8.42664879 C10.30699,9.709708 9.1743887,10.7498685 7.77730842,10.7498685 C7.46677008,10.7498685 7.17990561,10.6578303 6.94691127,10.5015345 C6.87435972,10.4526165 6.80680063,10.3974983 6.74544183,10.3369447 C6.61068598,10.2038799 6.50580431,10.0446852 6.44154667,9.86890268 C6.39427946,9.73913929 6.3685925,9.60027675 6.3685925,9.45557628 L6.3685925,8.24047878 C6.38228147,8.24132428 6.39637306,8.24172689 6.41006203,8.24172689 C6.6048883,8.24172689 6.7806708,8.16297505 6.90838084,8.035265 C7.03605063,7.90759521 7.11480248,7.73181272 7.11480248,7.53698645 L7.11480248,5.23901082 C7.11480248,4.79750124 6.86441509,4.41445162 6.49795328,4.22417492 L6.67204478,4.00692289 C6.92992084,3.70761757 7.32915566,3.51564988 7.77730842,3.51564988 C8.47584856,3.51564988 9.10807772,3.77557928 9.56617511,4.19595148 C10.0238296,4.61632368 10.30699,5.19713867 10.30699,5.83846697"/><path fill="#182128" d="M10.30699,5.83846697 L10.30699,8.42664879 C10.30699,9.709708 9.1743887,10.7498685 7.77730842,10.7498685 C7.46677008,10.7498685 7.17990561,10.6578303 6.94691127,10.5015345 C6.87435972,10.4526165 6.80680063,10.3974983 6.74544183,10.3369447 C6.61068598,10.2038799 6.50580431,10.0446852 6.44154667,9.86890268 C6.39427946,9.73913929 6.3685925,9.60027675 6.3685925,9.45557628 L6.3685925,8.24047878 C6.38228147,8.24132428 6.39637306,8.24172689 6.41006203,8.24172689 C6.6048883,8.24172689 6.7806708,8.16297505 6.90838084,8.035265 C7.03605063,7.90759521 7.11480248,7.73181272 7.11480248,7.53698645 L7.11480248,5.23901082 C7.11480248,4.79750124 6.86441509,4.41445162 6.49795328,4.22417492 L6.67204478,4.00692289 C6.92992084,3.70761757 7.32915566,3.51564988 7.77730842,3.51564988 C8.47584856,3.51564988 9.10807772,3.77557928 9.56617511,4.19595148 C10.0238296,4.61632368 10.30699,5.19713867 10.30699,5.83846697"/><path fill="#182128" d="M7.77730842,9.35327135 C7.46677008,9.35327135 7.17990561,9.26123315 6.94691127,9.10493731 C6.87435972,9.05601937 6.80680063,9.00090113 6.74544183,8.94034756 C6.61068598,8.80728271 6.50580431,8.64808803 6.44154667,8.47230553 C6.41449082,8.39798247 6.3947626,8.32059952 6.38260357,8.24092166 C6.37793321,8.24076061 6.37318234,8.24080087 6.3685925,8.24047878 L6.3685925,9.45557628 C6.3685925,9.60027675 6.39427946,9.73913929 6.44154667,9.86890268 C6.50580431,10.0446852 6.61068598,10.2038799 6.74544183,10.3369447 C6.80680063,10.3974983 6.87435972,10.4526165 6.94691127,10.5015345 C7.17990561,10.6578303 7.46677008,10.7498685 7.77730842,10.7498685 C9.1743887,10.7498685 10.30699,9.709708 10.30699,8.42664879 L10.30699,7.03005164 C10.30699,8.31311085 9.1743887,9.35327135 7.77730842,9.35327135"/><path fill="#014D4D" d="M18.4300255 5.50973035L18.4300255 9.99910895C18.4300255 10.4024505 18.7567087 10.7291337 19.1600905 10.7291337L19.883915 10.7291337C20.2872968 10.7291337 20.61398 10.4024505 20.61398 9.99910895L20.61398 5.50973035C20.61398 5.10679146 20.2872968 4.78010819 19.883915 4.78010819L19.1600905 4.78010819C18.7567087 4.78010819 18.4300255 5.10679146 18.4300255 5.50973035M10.30699 5.83846697L10.30699 8.42664879C10.30699 9.709708 11.4395913 10.7498685 12.8366716 10.7498685 13.14721 10.7498685 13.4340744 10.6578303 13.6670688 10.5015345 13.7396203 10.4526165 13.8071794 10.3974983 13.8685382 10.3369447 14.0032941 10.2038799 14.1081757 10.0446852 14.1724334 9.86890268 14.2197006 9.73913929 14.2453875 9.60027675 14.2453875 9.45557628L14.2453875 8.24047878C14.2316986 8.24132428 14.217607 8.24172689 14.203918 8.24172689 14.0090917 8.24172689 13.8333092 8.16297505 13.7055992 8.035265 13.5779294 7.90759521 13.4991776 7.73181272 13.4991776 7.53698645L13.4991776 5.23901082C13.4991776 4.79750124 13.7495649 4.41445162 14.1160268 4.22417492L13.9419353 4.00692289C13.6840592 3.70761757 13.2848244 3.51564988 12.8366716 3.51564988 12.1381315 3.51564988 11.5059023 3.77557928 11.0478049 4.19595148 10.5901504 4.61632368 10.30699 5.19713867 10.30699 5.83846697"/><path fill="#014D4D" d="M19.1600905 8.09932133L19.883915 8.09932133C20.2872968 8.09932133 20.61398 7.77263806 20.61398 7.36929655L20.61398 9.99906869C20.61398 10.4024102 20.2872968 10.7290935 19.883915 10.7290935L19.1600905 10.7290935C18.7567087 10.7290935 18.4300255 10.4024102 18.4300255 9.99906869L18.4300255 7.36929655C18.4300255 7.77263806 18.7567087 8.09932133 19.1600905 8.09932133M12.8366716 9.35327135C13.14721 9.35327135 13.4340744 9.26123315 13.6670688 9.10493731 13.7396203 9.05601937 13.8071794 9.00090113 13.8685382 8.94034756 14.0032941 8.80728271 14.1081757 8.64808803 14.1724334 8.47230553 14.1994892 8.39798247 14.2192174 8.32059952 14.2313765 8.24092166 14.2360468 8.24076061 14.2407977 8.24080087 14.2453875 8.24047878L14.2453875 9.45557628C14.2453875 9.60027675 14.2197006 9.73913929 14.1724334 9.86890268 14.1081757 10.0446852 14.0032941 10.2038799 13.8685382 10.3369447 13.8071794 10.3974983 13.7396203 10.4526165 13.6670688 10.5015345 13.4340744 10.6578303 13.14721 10.7498685 12.8366716 10.7498685 11.4395913 10.7498685 10.30699 9.709708 10.30699 8.42664879L10.30699 7.03005164C10.30699 8.31311085 11.4395913 9.35327135 12.8366716 9.35327135"/><g fill="#E4A539" transform="translate(9.703065, 0.000000)"><path d="M1.25068882,0.321811606 L0.722858198,1.87035633 C0.688756556,1.97048713 0.546552303,1.9688364 0.514785837,1.86794063 L0.0171112139,0.286783945 C0.000805233595,0.235047686 0.0248011947,0.178842381 0.0735983506,0.155168514 C0.45539986,-0.0299949514 0.831121855,-0.0179567092 1.2008046,0.190840362 C1.24674318,0.21668836 1.26771951,0.271967647 1.25068882,0.321811606"/></g><path fill="#E4A539" d="M12.9893439 2.0258872L11.4200242 2.48909783C11.3185647 2.51905252 11.2378401 2.40201181 11.3018964 2.31782464L12.3054993.998570181C12.3383125.955409661 12.3981011.942525923 12.4456099.968736277 12.8171447 1.17346692 13.0244118 1.48714567 13.0675724 1.90945042 13.0728869 1.96195165 13.0399126 2.01095012 12.9893439 2.0258872M8.33046364.998610443L9.33402626 2.3178649C9.3980826 2.40205208 9.31735793 2.51909278 9.21593876 2.48913809L7.646619 2.02592746C7.59605033 2.01099038 7.56307602 1.96199192 7.56843082 1.90953095 7.61159134 1.48722619 7.81877795 1.17354744 8.19035299.9688168 8.23782151.942566185 8.2976101.955449922 8.33046364.998610443"/></g></g></svg>