<svg class="S" xmlns="http://www.w3.org/2000/svg" xmlns:xlink="http://www.w3.org/1999/xlink" viewBox="0 0 126 126"><defs><radialGradient id="radial-gradient" cx="63.41" cy="50.49" r="38.43" gradientUnits="userSpaceOnUse"><stop offset="0" stop-color="#56a8f5"/><stop offset="1" stop-color="#1663aa"/></radialGradient><radialGradient id="radial-gradient-2" cx="65.73" cy="46.44" r="33.67" gradientUnits="userSpaceOnUse"><stop offset="0" stop-color="#fff"/><stop offset="0.26" stop-color="#fafafa"/><stop offset="0.56" stop-color="#ebebeb"/><stop offset="0.82" stop-color="#999"/><stop offset="0.9" stop-color="#dedede"/><stop offset="1" stop-color="#fafafa"/></radialGradient><radialGradient id="radial-gradient-3" cx="62.92" cy="87.04" r="5" gradientUnits="userSpaceOnUse"><stop offset="0" stop-color="#4a494e"/><stop offset="0.29" stop-color="#313033"/><stop offset="0.76" stop-color="#0d0d0e"/><stop offset="1"/></radialGradient><radialGradient id="radial-gradient-4" cx="34.9" cy="86.67" r="23.12" xlink:href="#radial-gradient-3"/><linearGradient id="linear-gradient" x1="10.06" y1="63.62" x2="35.78" y2="89.34" gradientUnits="userSpaceOnUse"><stop offset="0" stop-color="#a9d48e"/><stop offset="1"/></linearGradient><radialGradient id="radial-gradient-5" cx="6.08" cy="89.71" r="5" xlink:href="#radial-gradient-3"/><radialGradient id="radial-gradient-6" cx="91.1" cy="86.67" r="23.12" xlink:href="#radial-gradient-3"/><linearGradient id="linear-gradient-2" x1="8.59" y1="63.62" x2="34.32" y2="89.34" gradientTransform="matrix(-1, 0, 0, 1, 124.54, 0)" xlink:href="#linear-gradient"/><radialGradient id="radial-gradient-7" cx="119.92" cy="89.71" r="5" xlink:href="#radial-gradient-3"/></defs><g style="isolation:isolate"><g id="design"><path d="M28.94,80.67V79.42H97v1.25h9a45.2,45.2,0,1,0-85.15,0Z" style="fill:url(#radial-gradient)"/><g style="opacity:0.4"><path d="M72.73,59.9c1.6-12.34,7.5-24,3.86-37.6-1.17-.45-4.67-2-13.18-2a42.3,42.3,0,0,0-13.69,2.11c-3.92,14.35.13,25.72,2.21,38.12C60.21,61.58,72.73,59.9,72.73,59.9Z" style="fill:url(#radial-gradient-2)"/></g><path d="M22.66,82.1S12.13,55,64.11,55s39.65,28,39.65,28Z" style="fill:#004759"/><path d="M22.66,83.84S12.13,56.69,64.11,56.69s39.65,28.05,39.65,28.05S91.7,94,62.92,94,22.66,83.84,22.66,83.84Z"/><rect x="59.83" y="80.67" width="6.17" height="12.73" rx="2.35" style="fill:url(#radial-gradient-3)"/><path d="M17.82,69.28A11.88,11.88,0,0,0,9,79.37C7.93,86.51,6.46,99.55,19,103.2c9.7,2.81,29.63,5,37.11-3.66,6-7,7.41-19.68,1.93-25.43C51.13,66.86,30.45,66.44,17.82,69.28Z" style="fill:url(#radial-gradient-4)"/><path d="M20.66,72.6A9.91,9.91,0,0,0,13.31,81c-.89,6-2.14,15.68,8.35,18.62,7.52,2.1,24.69,5.45,30.93-1.81,5-5.79,6.17-16.4,1.6-21.19C48.42,70.58,31.18,70.23,20.66,72.6Z" style="fill:#25302f"/><path d="M21.41,73.48a9.38,9.38,0,0,0-7,8c-.85,5.64-2.39,16.61,7.91,17.23,7.63.46,23.38,5.56,29.29-1.31,4.71-5.49,5.84-15.54,1.52-20.07C47.7,71.56,31.38,71.24,21.41,73.48Z" style="fill:#25302f"/><path d="M22.36,98.67c7.21,1.66,21.48,4.92,28.14-.94,4.27-5.6,5-14.12.84-18.48-5.47-5.73-21.79-6.06-31.76-3.81a9.14,9.14,0,0,0-3.51,1.76,10.17,10.17,0,0,0-1.62,4.24C13.6,87.08,12.3,96.36,22.36,98.67Z" style="fill:#028aad"/><path d="M49.64,77.85c-6.62-4.36-21-4.46-30.06-2.41a9.14,9.14,0,0,0-3.51,1.76,10.17,10.17,0,0,0-1.62,4.24C13.76,86,12.62,91.52,17.7,96.61,29.65,83.35,40.38,83,49.64,77.85Z" style="mix-blend-mode:screen;fill:url(#linear-gradient)"/><rect x="3" y="83.35" width="6.17" height="12.73" rx="2.35" style="fill:url(#radial-gradient-5)"/><path d="M108.18,69.28A11.88,11.88,0,0,1,117,79.37c1.08,7.14,2.55,20.18-10,23.83-9.7,2.81-29.63,5-37.11-3.66-6-7-7.41-19.68-1.93-25.43C74.87,66.86,95.55,66.44,108.18,69.28Z" style="fill:url(#radial-gradient-6)"/><path d="M105.34,72.6a9.91,9.91,0,0,1,7.35,8.4c.89,6,2.14,15.68-8.35,18.62-7.52,2.1-24.69,5.45-30.93-1.81-5-5.79-6.17-16.4-1.6-21.19C77.58,70.58,94.82,70.23,105.34,72.6Z" style="fill:#25302f"/><path d="M104.59,73.48a9.38,9.38,0,0,1,7,8c.85,5.64,2.39,16.61-7.91,17.23-7.63.46-23.38,5.56-29.29-1.31-4.71-5.49-5.84-15.54-1.52-20.07C78.3,71.56,94.62,71.24,104.59,73.48Z" style="fill:#25302f"/><path d="M103.64,98.67c-7.21,1.66-21.48,4.92-28.14-.94-4.27-5.6-5-14.12-.84-18.48,5.47-5.73,21.79-6.06,31.76-3.81a9.14,9.14,0,0,1,3.51,1.76,10.17,10.17,0,0,1,1.62,4.24C112.4,87.08,113.7,96.36,103.64,98.67Z" style="fill:#028aad"/><path d="M76.36,77.85c6.62-4.36,21-4.46,30.06-2.41a9.14,9.14,0,0,1,3.51,1.76,10.17,10.17,0,0,1,1.62,4.24c.69,4.57,1.83,10.08-3.25,15.17C96.35,83.35,85.62,83,76.36,77.85Z" style="mix-blend-mode:screen;fill:url(#linear-gradient-2)"/><rect x="116.83" y="83.35" width="6.17" height="12.73" rx="2.35" style="fill:url(#radial-gradient-7)"/></g></g></svg>
