<svg class="S" xmlns="http://www.w3.org/2000/svg" xmlns:xlink="http://www.w3.org/1999/xlink" viewBox="0 0 126 126"><defs><clipPath id="clip-path"><path d="M113.18,63A50.18,50.18,0,1,1,63,12.82,50.18,50.18,0,0,1,113.18,63Z" style="fill:none"/></clipPath></defs><path d="M118,63A55,55,0,1,1,63,8,55,55,0,0,1,118,63Z" style="fill:#fff"/><g style="clip-path:url(#clip-path)"><path d="M80.79,79.41c-4.72-.31-4.49-10.36-17.52-10.32-9.15,0-9.8,4.83-10,4.83C59,70.43,67.09,72.6,65,76.08c-1.9,3.16-7.89,5.92-13.31,4.07Z" style="fill:#0071bc"/><path d="M117.71,87.87c6.52-.43,6.2-14.31,24.21-14.26,12.65,0,13.54,6.67,13.87,6.67-7.92-4.81-19.15-1.82-16.26,3a12.07,12.07,0,0,0,4.4,4" style="fill:#0071bc"/><path d="M105.48,95.93c5.68-3.23-.65-15.59,15.59-23.38,11.4-5.47,15.1.11,15.38,0-9.22-.89-18,6.69-13.33,9.77,2.91,1.91,8.09,2.43,12.87.8" style="fill:#0071bc"/><path d="M8.52,96.11c6.42-15.74,24.74-1.92,40.07-2.17,38.68-.65,62.33-9.32,62.33-9.32S76.66,160.86,8.52,96.11Z" style="fill:#0071bc"/><path d="M120.75,67A1.76,1.76,0,1,1,119,65.23,1.76,1.76,0,0,1,120.75,67Z" style="fill:#0071bc"/><path d="M23.48,77.07c-.27.16-4.71,2.56-5.29,2.72a17.45,17.45,0,0,0-4.82-.37c-.8.21-4.81,1.71-5.88,1.55a63.29,63.29,0,0,0-10.64-.48c-3.37.32-7.7,1.07-7.92,1s-1.71,0-1.71,0l-1.07.32s-5.4.85-5.83.85-6.41.43-6.79.8a1.55,1.55,0,0,0-.23,1.16l-1.05.88.32.8,1.23.53-.62.72,1.5.75s5.3,0,6-.13,3.86-.37,4.23-.75,3-2.35,3.66-2.35,10.16,1.82,11.18,2,4.54-.54,5.19-.54,5.24-.21,6.15.22a15.48,15.48,0,0,0,7.22-.06C20.86,86,23.52,84.5,26,85.57S31.57,89,32.5,89.35s7.06.93,8.27,1.5a21.34,21.34,0,0,0,6.63.92c1.71-.07,4.69-.52,6.68.34A44.55,44.55,0,0,0,62.16,94a28,28,0,0,0,8.2,0c1.86.72,6.78.33,9,.31s7.56-2,10.19-2a8,8,0,0,0,4-.85s1.71-1.36,2.28-1.36,6.22-2,7.24-2.21,4.43-2.24,7.64-1.92a8.35,8.35,0,0,0,5.3-1.07c.18-.11,5-.47,5.77-.54s.93-.64.5-.85-3.71-1.57-4.42-2-3.1-1.22-3.6-1.89a4.39,4.39,0,0,0-1.82-1.36c-1.05-.46-2.69,2.91-5.85,3.66-1.25.29-9.35-.49-11.52.56-1.36-.88-6.1-.46-6.68-.56a38.93,38.93,0,0,0-5.51-1.07c-4.55-3.35-8.45-3.69-9.47-4.18S70,73.09,70,73.09s-6.67-.32-8.09-.36S54.71,75.16,54,74.91,46.42,69,46.42,69c.75-.53,3.48-1.87,4.23-2.46s2.56-3.36,4.22-2.88,6.1-.22,7.38-.43,3.26-.05,3.53.32a19.82,19.82,0,0,1,1,2.52s3.09,3.09,4.62,3.38c.93,0,.79-1,.79-1l2.38,1.78,1.29-.32.82.32L77,69.1l-.47-1h.79l-.93-2.17s-1.89-2.67-3.42-3.21-3.57-1.15-4.14-1.32c-.37-.11-3.35-1.39-5-2s-7.38-.57-9.34-.79c-4.35.68-8.2,3.68-9.27,4.57,0,0-1.5-.18-5,1s-3.6,4.42-4.46,5.6c-.55.76-2.58,2-3.38,1.78A6.1,6.1,0,0,1,30.11,70a21.94,21.94,0,0,0-1.23-2.19,7.08,7.08,0,0,0-1.6-.91c-.59-.32-.81.16-1.07.05a11.47,11.47,0,0,0-4.12-1.17c-2.09-.11-4.87,2.4-5,3.74s1.77,5.4,2.62,5.83S23.48,77.07,23.48,77.07Z" style="fill:#0071bc"/><polygon points="40.9 39.1 44.41 39.68 49.94 35.58 59.66 32.06 70.12 38.72 74.62 39.21 76.06 42.55 75.46 44.35 72.85 44.31 69.65 41.94 59.83 37.87 56.79 40.78 53.48 42.31 71.02 52.46 83.41 67.66 93.71 71.73 102.23 79.14 105.28 77.47 108.4 78.77 109.08 83.6 111.36 90.07 109.4 92.55 108.53 92.73 108.14 89.84 105.31 86.01 101.9 83.35 85.45 76.03 81.19 75.75 79.89 73.95 66.2 67.34 60.17 71.63 65.47 73.8 71.47 77.8 74.32 76.81 77.45 78.08 77.4 81.21 74.29 89.42 72.84 90.31 71.87 88.49 71.68 82.78 70.69 81.21 51.85 76.98 49.5 73.46 50.59 68.82 56.98 59.78 45.52 55.61 43.43 61.27 40.31 62.35 33.44 60.15 26.57 55.66 22.19 54.75 22.15 51.51 23.79 49.48 26.07 50.77 27.67 53.23 38.24 55.58 38.14 52.2 39.47 47.54 38.49 46.55 35.71 47.61 33.81 47.52 31.96 44.61 31.14 44.56 30.9 41.27 29.84 37.25 32.09 34.27 36.41 33.02 39.96 35.12 40.9 39.1" style="fill:#f99c19"/><path d="M63.76,93.64A15.93,15.93,0,0,0,82,80.41a16,16,0,0,0-5.24-14.48,2.38,2.38,0,0,0,.31-1,3.27,3.27,0,0,1,.12-.47c.09-.23.22-.44.4-.41S86.1,74.86,90.64,80.82a4.91,4.91,0,0,0-1,2.32,3.86,3.86,0,0,0-.06.49v.48a1.36,1.36,0,0,0,0,.2,2.45,2.45,0,0,0,0,.27c0,.07,0,.14,0,.21s0,.17.05.25l.06.22a2,2,0,0,0,.07.23,1.8,1.8,0,0,0,.08.21l.09.22.1.21.11.2.12.21.12.17.15.21.13.16.17.19.09.09c-1.63,1.24-4,1.2-4.18,2l.34.13-.34-.13a.53.53,0,0,0,0,.21,1.69,1.69,0,0,0,.86.76c-.59,0-1,0-1,.11-.18.75,2.3,1.35,3.89,1.65a.94.94,0,0,0,1.18.2l.08,0c1,.2,3.46.58,3.43-.37,0-.67-1.23-.74-2.65-.89l0-.06a1.71,1.71,0,0,0,.69-.39A9.29,9.29,0,0,1,96.16,89l1.76.2a15.93,15.93,0,1,0,7.22-17.49L102.59,68l2.75-7.82L106.46,57a4.27,4.27,0,0,1,.27-1,3,3,0,0,1,1.44-1.68c1.42-.66,3.84-.72,4.52-1.94a.54.54,0,0,0,0-.11c.6-1.32-1.41-1.25-3-1.12h0c2.08-3-1.3-7.92-7-12.06-6.51-4.76-13.56-6.33-16.31-5.54a2.46,2.46,0,0,0-.29.09.44.44,0,0,0,.06-.74.56.56,0,0,0-.77-.12c.26-.28.49-.62.25-.83s-.59-.07-.87.12c.43-.37,1-1,1-1.51,0-.78-1.72,0-1.72,0h0a3,3,0,0,0,1-.6c.94-.94.29-1,.33-2.09a.31.31,0,0,0,0-.1c0-.67-.47-.87-.83-1.17a1,1,0,0,1-.35-.51,2.9,2.9,0,0,0,.41-.26,1.22,1.22,0,0,0,.44-.49.5.5,0,0,0,0-.4c-.23-.61-8.48,0-10.69,2.11s-3.35,7.46-1.19,6.7l.42-.12.57-.15h0a2.11,2.11,0,0,0,.33,1.08.78.78,0,0,1-.14.6l-.1.11c-.43.48-.78,1-.72,1.21s1.42.13,1.42.13,0,3.14,1.72,3.37a6.64,6.64,0,0,0,4.55-1.55,6.32,6.32,0,0,0,.9.41,5.42,5.42,0,0,0,1.45.34c-.27,1.65-.36,3.23-.42,3.57A17.11,17.11,0,0,1,82,47.17c-.74.58-1.59.29-2.81.11-2.37-.37-6-.59-6.62-1.28a2.39,2.39,0,0,0-2.31-.89c-.86.22-1.09-.85-1.93-.63s-.43.84,0,1.06a.7.7,0,0,0-.7.93c-.36-.24-.7-.56-1.22-.38-.75.27-.4.94.06,1.15a.78.78,0,0,0-.62,1.21c0,.07.08.17.14.29-.34.53.32.63.32.63h0c-.61.75.31.69.31.69-.41.57.2.76.45.82a.3.3,0,0,0,0,.08c-.27.38,0,.56.33.65l0,.09a1.51,1.51,0,0,0,.18.69C67.2,52.57,66,53.16,66,54c0,1,1.79,2.52,1.86,3.28s.52,1.22.72.74-.69-1.35-1.25-2.3-.75-1.91.79-2.46a4.61,4.61,0,0,1,.86,1.6c0,.71.4,1.15.62.72a.64.64,0,0,0,0-.07,3.4,3.4,0,0,0,2.21,1.48,27.15,27.15,0,0,0,4.5.71A3.58,3.58,0,0,0,79,55.37l.08.06c.14.11.41.38.26.63l-1.16,2-.12.08a2.21,2.21,0,0,0-.77,1.07c-.25.79-2.16,3.07-1.7,4.24h-.07a.72.72,0,0,0-.51.44,1.59,1.59,0,0,0-.14.58A15.93,15.93,0,1,0,63.76,93.64ZM76.34,54.08c-1.25,0-3.79-.75-4.2-1.33a14,14,0,0,1-.77-1.55h0l-.29-.63.23-.17c1.08-.74,3.8.81,5.52,1.3l.77.17A7.79,7.79,0,0,0,77.4,53a.61.61,0,0,0-.41.4h0a3.39,3.39,0,0,0-.09.57A1,1,0,0,1,76.34,54.08Zm-5.21.69c-.14-.17-.5-.82-1-1.67l-.71-1.3a1.66,1.66,0,0,0,.35-.18c.17.37.33.69.46.94.75,1.44,1.5,2,2.36,2.23a36.19,36.19,0,0,0,3.78.92,1.09,1.09,0,0,1-.62.18C74.42,55.93,71.62,55.36,71.13,54.77Zm-4.42-7.46a2.23,2.23,0,0,1,1.12.43,5.1,5.1,0,0,0-.72,0A1.66,1.66,0,0,0,66.71,47.31Zm2.84-1.22a3.89,3.89,0,0,0-.66,0,1.51,1.51,0,0,0-.35-.45A2.06,2.06,0,0,1,69.55,46.09Zm21,44.44h0Zm9.66-23c0,.11-.12.32-.24.62l-.31-.32a5,5,0,0,1-.41-.51l-.12-.17,1.11.29Zm2.45,22.24,7.29.82h.31l.15,0h.08l.15-.06.05,0h0l0,0a1.19,1.19,0,0,0,.4-.34c.32-.28.79-.7,1.29-1.16,1.46-.82,4-.39,3.89-1.22a1.87,1.87,0,0,0-.38-.84,6.14,6.14,0,0,0-.58-.68c0-.09.09-.17.12-.26h0l.06-.19v0a2,2,0,0,0,0-.24A2.2,2.2,0,0,0,113.77,83l-.17,0h0l-1-.21-5-7.38a11.59,11.59,0,1,1-4.94,14.42Zm.15-9.11a11.52,11.52,0,0,1,3.57-4.5c1.34,1.82,3.54,4.6,4.84,6.28ZM92.58,78.71l-1.49-1.84c.43.52,1.36.47,2.45.1,0,.73,0,1.46-.06,2.12l-.47.12Zm-.68-2h0Zm1.36-.11.11,0Zm-.42.08.12,0Zm-.51,0h0ZM90.7,55.23c1.59.18,3.07.28,4.44.32h.4c-.07.34-.16.72-.27,1.13-.2.78-.46,1.66-.73,2.56A31.88,31.88,0,0,0,90.7,55.23ZM101,65.37s-.55.62-1.84.22l-.39-.11A21.28,21.28,0,0,1,102,60.82,16.17,16.17,0,0,0,103.22,59c.59-1,1.24-2.13,1.84-3.24a4.76,4.76,0,0,1-.24.64l-2.08,4.91Zm3,7.17a15.88,15.88,0,0,0-5.48,7.2l-.57-.12c.14-.43.29-.84.44-1.21a7.45,7.45,0,0,0,.33-1c.32-.89.66-1.84,1-2.75,1-.62,2-1.49,1.54-2a2.32,2.32,0,0,0,1.32-.6.61.61,0,0,0,.14-.33,2.94,2.94,0,0,0-1-1.71l0,0C102.11,69.86,103,71.12,104,72.54ZM87.8,89.73l.11,0Zm2.4.76.2,0Zm-.35-.06.2,0Zm-.34-.08.2,0Zm-.34-.1.19,0Zm-.34-.12.18.06ZM88.48,90l.18.07Zm-.34-.13.16.06ZM80.52,62.18l12,3.21c-.54,2.21.15,5.07.7,7a6.54,6.54,0,0,1,.19,1.22c-1.11,1.07-2.92,2-2.51,3a1,1,0,0,0,.15.26c-3.42-4.28-11-13.86-11-13.86S79.43,61.89,80.52,62.18ZM91.37,76.69l.11,0ZM79.54,59.09a6.71,6.71,0,0,1,1-2.06s.5.46,1-.62c.38-.84.73-1.48.39-2.11a1.31,1.31,0,0,0-.25-1.83l-.16-.13a4.76,4.76,0,0,1,.81.18l.12,0c.82.39,2.54-2.5,3.52-4.63.1-.21.21-.46.34-.72.34-.61.83-1.45,1.36-2.39a13.62,13.62,0,0,0,4.93,1.49c1.77.1,2,1.11,2,1.27v0c-.27.06-.83.21-1.54.42-.54.16-1.16.36-1.83.58-2.72.92-6.12,2.31-6.92,3.62C83.06,54.29,86.39,58.47,88,60c.71.66,2,2,3.35,3.48L80.46,60.5a2.42,2.42,0,0,1-.91-1.18A1.55,1.55,0,0,1,79.54,59.09ZM54.8,76.1a11.6,11.6,0,0,1,18-7.76C70.47,71.6,67,75.88,67,75.88a3.1,3.1,0,0,0-.33.52l0,.09a1.21,1.21,0,0,0-1.11,1,1.21,1.21,0,1,0,2.4.12A6.41,6.41,0,0,0,69.44,76c.76-1.07,3.75-4.66,5-6.34A11.59,11.59,0,1,1,54.8,76.1Z" style="fill:#e65435"/></g></svg>
