<svg class="S" xmlns="http://www.w3.org/2000/svg" viewBox="0 0 126 126"><defs/><circle fill="#3390ff" cx="63" cy="63" r="60"/><path fill="#fff" d="M107.28 75.79a2.46 2.46 0 00-3.1-1.55l-10.56 3.59-5.91-3.4 6.49-2.22a2.46 2.46 0 00-1.55-4.66l-10.56 3.59-2.62-1.55V56.41l2.62-1.55 10.56 3.59a2.46 2.46 0 001.55-4.66l-6.49-2.22 5.91-3.4 10.47 3.69a2.45 2.45 0 001.55-4.65L99.14 45l6.11-3.49a2.48 2.48 0 00-2.52-4.27l-6.11 3.49L98 34a2.47 2.47 0 10-4.84-1l-2 10.85-5.97 3.45 1.36-6.68a2.47 2.47 0 10-4.85-1l-2.23 11-2.61 1.55-5.72-3.3-5.62-3.29v-3.1L74 35.09a2.47 2.47 0 00-3.29-3.68l-5.14 4.46v-6.78L74 21.72A2.47 2.47 0 0070.66 18l-5.14 4.5v-7a2.52 2.52 0 10-5 0v7L55.34 18a2.47 2.47 0 00-3.29 3.68l8.43 7.37v6.78l-5.14-4.46a2.47 2.47 0 00-3.29 3.68l8.43 7.37v3.1l-5.62 3.29-5.62 3.3-2.71-1.51-2.13-11a2.47 2.47 0 00-4.85 1l1.36 6.68-6-3.39L32.77 33a2.47 2.47 0 00-4.85 1l1.36 6.69-6.11-3.49a2.47 2.47 0 10-2.51 4.26l6.1 3.49-6.49 2.23a2.45 2.45 0 001.55 4.65l10.56-3.59 5.91 3.4-6.49 2.15a2.46 2.46 0 001.55 4.66l10.56-3.59 2.62 1.55v13.18l-2.62 1.55-10.56-3.59a2.46 2.46 0 00-1.55 4.66l6.49 2.22-5.91 3.4-10.56-3.59a2.45 2.45 0 00-1.55 4.65l6.49 2.23-6.1 3.49a2.47 2.47 0 102.51 4.26l6.11-3.49-1.36 6.69a2.47 2.47 0 104.85 1l2.13-11 5.91-3.39-1.36 6.68a2.47 2.47 0 104.85 1l2.23-10.96 2.61-1.55 5.53 3.2.09.1 5.62 3.29v3.1L52 90.91a2.47 2.47 0 003.3 3.68l5.13-4.46v6.78L52 104.28a2.47 2.47 0 103.3 3.68l5.13-4.46v7a2.52 2.52 0 005 0v-7l5.13 4.5a2.47 2.47 0 103.29-3.68l-8.33-7.37v-6.82l5.14 4.46A2.47 2.47 0 0074 90.91l-8.43-7.37v-3.1l5.62-3.29 5.62-3.3 2.62 1.55 2.13 10.95a2.47 2.47 0 104.84-1L85 78.7l5.91 3.39 2.32 11a2.47 2.47 0 104.85-1l-1.36-6.69 6.11 3.49a2.47 2.47 0 102.51-4.26l-6.1-3.49 6.49-2.23a2.45 2.45 0 001.55-3.12zM74.43 63h-.09v6.59l-5.62 3.29-5.72 3.2-5.62-3.29-.1-.1-5.52-3.2V56.41l5.62-3.29 5.72-3.3 5.71 3.3 5.62 3.29z"/></svg>
