<svg class="S" xmlns="http://www.w3.org/2000/svg" xmlns:xlink="http://www.w3.org/1999/xlink" viewBox="0 0 126 126"><defs><filter id="luminosity-noclip" x="23.34" y="-7671" width="79.85" height="32766" filterUnits="userSpaceOnUse" color-interpolation-filters="sRGB"><feFlood flood-color="#fff" result="bg"/><feBlend in="SourceGraphic" in2="bg"/></filter><mask id="mask" x="23.34" y="-7671" width="79.85" height="32766" maskUnits="userSpaceOnUse"><g style="filter:url(#luminosity-noclip)"/></mask><linearGradient id="linear-gradient" x1="63.27" y1="-5.75" x2="63.27" y2="74.95" gradientUnits="userSpaceOnUse"><stop offset="0" stop-color="#fff" stop-opacity="0.4"/><stop offset="0.01" stop-color="#fff" stop-opacity="0.39"/><stop offset="0.32" stop-color="#fff" stop-opacity="0.22"/><stop offset="0.6" stop-color="#fff" stop-opacity="0.1"/><stop offset="0.84" stop-color="#fff" stop-opacity="0.03"/><stop offset="1" stop-color="#fff" stop-opacity="0"/></linearGradient></defs><g style="isolation:isolate"><g id="design"><path d="M36.46,20.63a50,50,0,1,0,68.91,15.83A50,50,0,0,0,36.46,20.63Z" style="fill:#e3b826;fill-rule:evenodd"/><path d="M36.9,21.32A49.18,49.18,0,1,0,104.68,36.9,49.18,49.18,0,0,0,36.9,21.32Z" style="fill:#ffd447;fill-rule:evenodd"/><path d="M36.77,21.4a49.13,49.13,0,0,0-5.65,4.14,22.79,22.79,0,0,0-2.51,12.32c-3.2,1.06-6.46,2.2-9.75,3.44-.49,1-.95,2-1.37,3.05,17.68-6.89,35.12-11,44.59-13.22,2.2-.52,4-.94,5.26-1.28,3.61,3.34,9.6,9,13.85,17-8.62.3-31.42,1.79-49.13,7.44-7.38,2.36-13.91,5.47-18.24,9.53,0,1.07.07,2.15.16,3.22,3.87-4.53,10.79-7.94,18.81-10.5,18.25-5.83,42-7.17,49.55-7.37A40.48,40.48,0,0,1,86,62.41c-7.31,3.73-29.11,13.2-47.42,17.37-8.6,2-16.37,2.75-21.32,1.21.35.89.73,1.78,1.14,2.66,5.4,1,12.75.23,20.71-1.58C56.87,78,77.93,69,86.12,65c.2,6.78-1.3,14.45-5.49,23C76.74,89,68.25,91,58.76,93.17c-9.67,2.24-20.37,4.71-28.3,6.72.73.64,1.48,1.27,2.24,1.86,3.21-.8,6.78-1.66,10.51-2.54A32.26,32.26,0,0,0,51,109.5c.66.58,1.32,1.13,2,1.65a49.7,49.7,0,0,0,5.58.83,30.44,30.44,0,0,1-6-4.23,30.1,30.1,0,0,1-7-9.09l11-2.55c9.3,9.44,17.11,12.44,22.7,13.34a49.75,49.75,0,0,0,4.86-2c-4.84,0-13.59-1-24.85-12l.08,0c9.41-2.17,17.83-4.12,21.81-5.2,6.88,6.93,12.16,8.48,16.29,7.9a45.31,45.31,0,0,0,3.4-3.68,10.8,10.8,0,0,1-4.33,1.27,65.36,65.36,0,0,0,4.19-10.24,60.57,60.57,0,0,0-2.83-43.35c-5.39-12-13.68-20.81-20.11-24.31l-.25-.13a13.53,13.53,0,0,1,3.66-.44,48,48,0,0,0-4.91-1.65c-4.09,1.3-7.89,4.61-9.54,12-1.21.31-3,.72-5.14,1.24-4.38,1-10.48,2.46-17.52,4.39C47.1,24.35,51.55,19.4,55.79,16.6a22.8,22.8,0,0,1,6-2.77,49.35,49.35,0,0,0-7.05.69l-.18.12C49.66,17.83,44.57,23.57,41.28,34c-3.3.93-6.78,2-10.36,3.12a20.79,20.79,0,0,1,2.8-11.42,26,26,0,0,1,3.05-4.29ZM69,28.13C70,23.31,72.12,20.52,74.54,19a16.35,16.35,0,0,1,2,.94c6.06,3.3,13.93,11.71,19.09,23.21A58.22,58.22,0,0,1,98.4,84.81a63.5,63.5,0,0,1-4.51,10.78c-3-.57-6.64-2.51-11-6.88C98.62,56.29,77.46,36,69,28.13Z" style="fill:#b89938;fill-rule:evenodd"/><g style="mask:url(#mask)"><path d="M63.27,17.89c-22.05,0-39.93,15.69-39.93,35v0a8.66,8.66,0,0,0,4.48,7.28,69.34,69.34,0,0,0,35.45,9.53,69.33,69.33,0,0,0,35.44-9.53A8.62,8.62,0,0,0,103.19,53v0C103.19,33.58,85.32,17.89,63.27,17.89Z" style="fill:url(#linear-gradient)"/></g><path d="M112.19,62.63a49.51,49.51,0,0,1-.44,6.59c0,.35-.09.69-.15,1a49.06,49.06,0,0,1-7.44,19.47c-.21.33-.43.66-.65,1a50.08,50.08,0,0,1-17,15.43h0l-1.46.78a49.61,49.61,0,0,1-22.6,5.42c-.69,0-1.36,0-2,0a46.12,46.12,0,0,1-5-.45h0a49.51,49.51,0,0,1-25.13-11.36c-.52-.44-1-.89-1.54-1.37a48.19,48.19,0,0,1-5.88-6.48c-.26-.35-.52-.7-.77-1.06a49.13,49.13,0,0,1-6.31-11.9,48,48,0,0,0,10,2.5h0a41.62,41.62,0,0,0,5,.46c.68,0,1.35.05,2,.05a49.61,49.61,0,0,0,22.6-5.42l1.46-.78h0A50,50,0,0,0,73.84,61c.22-.31.44-.64.65-1A49.12,49.12,0,0,0,81.93,40.6c.06-.35.11-.69.16-1A51.13,51.13,0,0,0,82.52,33a49.72,49.72,0,0,0-3-17.06A49.72,49.72,0,0,1,112.19,62.63Z" style="fill:#878787;opacity:0.2;mix-blend-mode:multiply"/><path d="M112.19,62.63a49.51,49.51,0,0,1-.44,6.59c0,.35-.09.69-.15,1a49.06,49.06,0,0,1-7.44,19.47c-.21.33-.43.66-.65,1a50.08,50.08,0,0,1-17,15.43h0l-1.46.78a49.61,49.61,0,0,1-22.6,5.42c-.69,0-1.36,0-2,0a46.12,46.12,0,0,1-5-.45h0a49.51,49.51,0,0,1-25.13-11.36c-.52-.44-1-.89-1.54-1.37a48.47,48.47,0,0,1-5.86-6.45,49.26,49.26,0,0,0,22.94,9.59h0a43.75,43.75,0,0,0,5,.46c.68,0,1.36.05,2,.05a49.61,49.61,0,0,0,22.6-5.42L77,96.56h0a50,50,0,0,0,17-15.44l.65-1A49.19,49.19,0,0,0,102,60.68q.09-.52.15-1A49.83,49.83,0,0,0,92.5,23,49.58,49.58,0,0,1,112.19,62.63Z" style="fill:#878787;opacity:0.2;mix-blend-mode:multiply"/></g></g></svg>
