<svg class="S" xmlns="http://www.w3.org/2000/svg" viewBox="0 0 126 126"><path d="M63.15,101.52a1.08,1.08,0,0,1,.2.34c.62,2-2.39,2.62-3.51,2.91a93.41,93.41,0,0,1-12.11,2.75,44.44,44.44,0,0,1-12-.63,2.63,2.63,0,0,1-1.49-.57.94.94,0,0,1,0-1.41,1.41,1.41,0,0,1,.74-.11,22,22,0,0,0,11.47-3A2,2,0,0,1,48,99.69a5.91,5.91,0,0,1,2.8.12c1-1.15,2.76-1.94,4-1.1a1.52,1.52,0,0,1,.52.52c.15.28.17.64.41.85a1.21,1.21,0,0,0,.73.19C57.78,100.32,62.09,100.3,63.15,101.52Z" style="fill:#88171a"/><path d="M64,101a6.44,6.44,0,0,1-2.84,3.62,11,11,0,0,1-4.49,1.25,36.07,36.07,0,0,1-6.06.13,72.1,72.1,0,0,1-10.3-1.62c-2.78-.57-5.77-1.26-7.65-3.4A6.77,6.77,0,0,1,31.56,94Z" style="fill:#88171a"/><path d="M62.85,77.3a1.94,1.94,0,0,1,2.27,1.78,3.11,3.11,0,0,1-1.56,2.73,8.37,8.37,0,0,1-3.11,1A59,59,0,0,1,32,81.14c-1.6-.52-3.31-1.24-4.05-2.74a11,11,0,0,1,6.5-4Z" style="fill:#ab282a"/><path d="M63.93,76a2.62,2.62,0,0,1-.84,2.66A6.71,6.71,0,0,1,60.47,80c-8.06,2.55-16.78,1.91-25.12.56a15.32,15.32,0,0,1-5.57-1.71,5.47,5.47,0,0,1-2.84-4.79,50.14,50.14,0,0,1,31.68,1.86Z" style="fill:#88171a"/><path d="M72.24,38.36c0,.27,0,.54,0,.82.06,1.16.08,2.35.09,3.58a.66.66,0,0,1,0,.14v.71c0,2.33.05,4.67,0,7,0,.09,0,.18,0,.28a6.88,6.88,0,0,1-.07.77A46.38,46.38,0,0,1,71,57.13C69.56,62.84,67.26,68,65.22,73.51A6.66,6.66,0,0,1,63.59,76h0a7.81,7.81,0,0,1-1.29,1l-.35.21c-2.28,1.3-5.25,1.78-7.9,2.2l-.81.13-.87.13-.67.08a37.87,37.87,0,0,1-4.76.26q-1.19,0-2.37-.06a85.57,85.57,0,0,1-10-1.2,35.21,35.21,0,0,1-3.8-.82c-.4-.12-.8-.25-1.18-.39h0l-.33-.13-.3-.12a11.41,11.41,0,0,1-1.47-.77,8.38,8.38,0,0,1-1.58-1.27c-1.65-1.73-2.29-4.1-2.89-6.36q-1.83-7-3.65-14a79.5,79.5,0,0,1-2.07-9.49,55.4,55.4,0,0,1-.51-11.57c.06-.7.14-1.4.25-2.09l.12-.65a17.93,17.93,0,0,1,1.49-4.68A21.88,21.88,0,0,1,29,15.94a32,32,0,0,1,18.54-2.86c7,1.05,15.41,3.93,19.66,9.85C70.78,27.84,71.9,32.76,72.24,38.36Z" style="fill:#ab282a"/><path d="M58.19,21.93c2.21,3.06,1.94,7.15,1.1,10.79a6.12,6.12,0,0,1-1.18,2.74c-1.19,1.38-3.29,1.66-5.17,1.72a10.5,10.5,0,0,1-5.52-.92,9.93,9.93,0,0,1-3.2-3.37A13,13,0,0,1,42,28.22,7.3,7.3,0,0,1,43.8,22C47.62,17.8,54.7,17.07,58.19,21.93Z" style="fill:#c3393a"/><path d="M16.49,32.5a3.86,3.86,0,0,1,2.93-2.76,11.3,11.3,0,0,1,4.22,0c1.82.21,3.78.5,5.07,1.81a12.2,12.2,0,0,1,1.83,3.18c2.74,5.36,9.22,8,15.24,7.78s11.66-2.93,16.87-6c1.66-1,4.14-1.84,5.22-.24-1.36,1.09-1.17,3.16-1,4.9a28.38,28.38,0,0,1-4.2,17.46c-2.45,3.92-5.85,7.2-8.19,11.2-1,1.63-1.8,3.45-3.35,4.54-2.4,1.68-5.67,1.09-8.49,1.87a3.41,3.41,0,0,1-1.66.21,2.56,2.56,0,0,1-1.17-.81c-6.09-6.32-6.39-16.14-10.26-24a28.42,28.42,0,0,0-11.25-12Z" style="fill:#88171a"/><path d="M30.32,49.55a21.38,21.38,0,0,1,5.35,22.89c-.18.47.53.83.71.35A22.19,22.19,0,0,0,30.84,49c-.38-.34-.9.25-.52.6Z" style="fill:#771114"/><path d="M72,38.83c0,.27,0,.54,0,.82-1.81.55-3.64,1.05-5.48,1.48-.88.21-1.77.4-2.67.58a82.65,82.65,0,0,1-34.52-.52c-1.41-.32-2.81-.69-4.2-1.09a5.08,5.08,0,0,1-.52-.15c-.48-.14-.33-.91.16-.77h0c1.58.47,3.17.88,4.76,1.25,2,.45,3.94.83,5.92,1.13q1.57.24,3.15.42a83.15,83.15,0,0,0,10.7.49A82.48,82.48,0,0,0,66.5,40.32Q69.26,39.67,72,38.83Z" style="fill:#771114"/><path d="M72.37,42.76a.66.66,0,0,1,0,.14v.71a31.33,31.33,0,0,1-5.47,1.64c-.75.16-1.5.29-2.26.4a74.43,74.43,0,0,1-10.55.64c-3.48,0-7,0-10.44-.09A68.33,68.33,0,0,1,27.41,44l-.8-.23c-.68-.21-1.36-.43-2-.67l-.87-.32-.41-.16c-.44-.17-.16-.79.25-.74l.1,0,.76.29c.65.24,1.29.46,1.95.67l.35.11a51,51,0,0,0,8.12,1.74,140.74,140.74,0,0,0,20.33.76,61.23,61.23,0,0,0,11.78-1.05A30.21,30.21,0,0,0,72.37,42.76Z" style="fill:#771114"/><path d="M29.55,38.75A1.74,1.74,0,0,1,29.33,41c-.73.55-2,.25-2.5,1s.06,1.62.71,2.12c2,1.54,5.15,1.32,6.76,3.27A6.66,6.66,0,0,0,30.12,55a15.33,15.33,0,0,1-9.88-10.75A8.12,8.12,0,0,0,19,40.81c-1.84-2.25-3-6.28,1.31-6.73C22.68,33.83,28.32,36.84,29.55,38.75Z" style="fill:#4e000c"/><path d="M28.15,77.49c10.48-.25,8.9-13.12,4.88-18.8-3.18-4.51-5.17-10.32-6.6-15.54-1.19-4.35-2.53-9.54-6.95-11-4.19-1.43-8.91,1.68-10.61,5.64-2.46,5.71.88,11,2.66,16.52,1.89,5.82,4,11.59,6.17,17.31C19.41,76,23,77.62,28.15,77.49Z" style="fill:#ab282a"/><path d="M44.51,66.26c.17-1.64-.48-5.25,1.3-6.09s4.07.86,5.48,1.72a22,22,0,0,1,7.1,6.64c1.81,2.78,2.18,6.75,4.47,9.14.79.82,1.75,1.13,2.27,2.18,1.1,2.26.55,5.93.78,8.43a33.09,33.09,0,0,1-1,13.43c-.24.72-.77,1.59-1.52,1.43a1.86,1.86,0,0,1-.77-.51,6.88,6.88,0,0,0-5-1.73,3.57,3.57,0,0,1-1.66-.08c-1.79-.76-.94-4.07-.79-5.52a29.88,29.88,0,0,0-7.84-23.06Z" style="fill:#c3393a"/><path d="M54.88,81.51a6.8,6.8,0,0,1-2.64.53c-.41,0-.82,0-1.22,0H46.76a1.89,1.89,0,0,1-1.38-.37c-.49-.51-.89-2.18-1.34-2.93a14.38,14.38,0,0,1-1.51-3.43c-.75-2.43-.28-5,.19-7.55A21.51,21.51,0,0,1,45,60.49a1,1,0,0,1,.38-.42c.37-.17.78.13,1,.43,2.2,2.43,2.41,6,3.46,9.09.69,2,1.94,3.82,2.82,5.75S53.9,79.61,54.88,81.51Z" style="fill:#24282b"/><path d="M52.24,82c-.41,0-.82,0-1.22,0H48.86a13.94,13.94,0,0,1-2.14-2.33A15.5,15.5,0,0,1,44,70.49,22.34,22.34,0,0,1,46.25,63a23.63,23.63,0,0,0,.66,7.22C47.37,71.74,52.23,79.12,52.24,82Z" style="fill:#13171a"/><path d="M29.76,101.24l.77,4.28a.71.71,0,0,0,.1.3c.19.27.6.2.91.11,4-1.15,8.22-.79,12.21-1.83a4.65,4.65,0,0,0,1.42-.57c1.24-.83,1.55-2.48,1.75-4h-.65Z" style="fill:#ab282a"/><path d="M28,96c.31,2,.8,4.16,2.44,5.33,1.83,1.32,4,.75,6,.47,2.28-.32,4.59-.28,6.88-.65,5.23-.85,10-3.34,14.71-5.75a70,70,0,0,0-.75-8.91,2.85,2.85,0,0,0-.47-1.4c-.64-.81-1.86-.71-2.89-.62-3.21.29-6.23-.3-9.38-.76-2.94-.44-5.9-.32-8.75-1.34a10.53,10.53,0,0,0-2.66-.78C29.88,81.32,27,80.06,27,84.06A79.84,79.84,0,0,0,28,96Z" style="fill:#ab282a"/><path d="M45.73,99.84a6.2,6.2,0,0,0-.68,1.48,5.36,5.36,0,0,1-3.84,2.5c-3.07.56-6.39-.23-9.31,1-.55.23-1.11.6-1.16,1.09-.09.79,1.06,1.21,2,1.39A62.48,62.48,0,0,0,58,106.68c2.69-.63,5.68-1.73,6.43-3.89a1.86,1.86,0,0,0-1-2.44,4.65,4.65,0,0,0-1.55-.19h-4.5a3,3,0,0,1-1.12-.15c-1.19-.52-.42-2-.92-3.05a1.57,1.57,0,0,0-1.78.75,2.65,2.65,0,0,0-.07,1.76,2.5,2.5,0,0,0,.63,1.45,3.68,3.68,0,0,0,2.59.58,7.7,7.7,0,0,1,2.76.1c.86.28,1.46,1.18.9,1.79a2.55,2.55,0,0,1-1.25.58,83.06,83.06,0,0,1-23.94,2.45c.3-1.17,2.29-1.37,3.78-1.32,2.26.07,5.42-.17,7.34-1.32C49,102.14,47.11,98.18,45.73,99.84Z" style="fill:#13171a"/><path d="M33.22,81.43a70.72,70.72,0,0,0,21.42,1.45c.67-.06,1.51,0,1.82.56a1.18,1.18,0,0,1-.47,1.4,3.64,3.64,0,0,1-1.53.46,40.19,40.19,0,0,1-7.09.55c-4-.16-7.73-1.5-11.55-2.44a21.32,21.32,0,0,0-6.07-1c-1.12.07-2.45,1.07-3.43.14a1.94,1.94,0,0,1,.89-3.11C28.18,79.07,32,81.15,33.22,81.43Z" style="fill:#24282b"/><path d="M34.58,102.86a50.61,50.61,0,0,0,21.56-4.64,4.81,4.81,0,0,0,2.49-2,5.41,5.41,0,0,0-3.51.3c-3.84,1.25-7.6,2.8-11.53,3.73a22,22,0,0,1-12-.07c-2.34-.79-4.45.61-1.89,2.11C31,103.05,33.21,102.85,34.58,102.86Z" style="fill:#24282b"/><path d="M20,32.76c1.87,1.87,2.65,4.45,3.16,7s.89,5.2,1.53,7.77a98.07,98.07,0,0,0,6,16.6c1.39,3.08,2.86,6.13,4.33,9.17.22.45,1,.2.75-.26-2.64-5.46-5.29-10.92-7.44-16.59a81.78,81.78,0,0,1-2.82-8.75c-.7-2.72-1.09-5.49-1.65-8.24a13.8,13.8,0,0,0-3.38-7.27c-.37-.36-.88.24-.52.59Z" style="fill:#88171a"/><path d="M28.46,78.62A10.19,10.19,0,0,0,36.84,67c-.08-.5-.87-.45-.79,0a9.39,9.39,0,0,1-7.64,10.76c-.5.09-.45.88.05.79Z" style="fill:#88171a"/><path d="M72.39,50.9a6.88,6.88,0,0,1-.07.77A13.72,13.72,0,0,0,67.77,53a29.74,29.74,0,0,0-2.88,1.29,24.44,24.44,0,0,0-2.47,1.44,16.51,16.51,0,0,0-6.8,8.67.44.44,0,0,1-.65.23.27.27,0,0,0-.08-.07.35.35,0,0,1,0-.32,17.43,17.43,0,0,1,7.37-9.31,26,26,0,0,1,3.09-1.73c.93-.44,1.89-.84,2.86-1.2A13,13,0,0,1,72.39,50.9Z" style="fill:#771114"/><path d="M13.63,46.83c.9,1.22,2.88,1.12,4,.16,3-2.5,5.23-12.52-.72-12.66a4,4,0,0,0-4.15,2.85c-.49,1.71.5,3.75.56,5.49C13.43,44.06,12.71,45.57,13.63,46.83Z" style="fill:#c3393a"/><path d="M66.58,93.54c.58-7.42,1.43-14.82,2-22.24,1-14.55.28-29.07,2.69-43.52-2.63-2.81-5.24-6.66-7-8.06q-.72.55-1.38,1.17c-.73.67-1.37,1.7-2.1,2.54a4.77,4.77,0,0,1-1.51,1.24,7.91,7.91,0,0,1-1.94.53,4.66,4.66,0,0,0-2.67,1.16l-.21.2a10.06,10.06,0,0,0-1.79,2.89c-2,4.42-2.54,9.6-3,14.39-.28,2.74-.58,5.48-.81,8.22-.19,2.35.54,4.73.88,7.09.9,6.22,2.82,12,4.44,18A7.22,7.22,0,0,0,55.58,80l-.37,0a2.31,2.31,0,0,0-.12,1.49,2.23,2.23,0,0,0-1.47,1.66,2.18,2.18,0,0,0,0,.57,3.4,3.4,0,0,0-1.81,2.21l0,.08a16.29,16.29,0,0,0-.47,3.88,61.48,61.48,0,0,1-.76,7.29c-.33,2.09-2.51,7.94-2.39,10.07.15,2.77,10.3-1.47,12.71-.74C63.85,107.38,66.11,99.66,66.58,93.54Z" style="fill:#471112;opacity:0.8"/><path d="M61.25,106.54a7,7,0,0,0,2.66,4.16,11.91,11.91,0,0,0,4.65,1.78,40,40,0,0,0,6.45.76,78.5,78.5,0,0,0,11.14-.68c3-.33,6.28-.76,8.49-2.85a7.21,7.21,0,0,0,1.87-7.27Z" style="fill:#88171a"/><path d="M99.46,96.88c-.53,3-.28,7.13-2.19,9.53a9.78,9.78,0,0,1-5.33,3c-1.88.52-3.63,1.34-5.55,1.76a35.33,35.33,0,0,1-8.89.82,37.55,37.55,0,0,1-5.8-.63,87.85,87.85,0,0,1-9.05-2.67c-2.42-.72-4.5-2.48-4.65-5.25-.12-2.12.84-4.2,1.18-6.29a66,66,0,0,0,.76-7.29A15.32,15.32,0,0,1,60.41,86a.24.24,0,0,1,0-.08c1.47-4.58,7.1-1.75,10.55-1.08,9.43,1.83,19.17,3.66,28.55,1.61.92-.2,2.14-.3,2.54.55a2.08,2.08,0,0,1-.16,1.61A47.46,47.46,0,0,0,99.46,96.88Z" style="fill:#24282b"/><path d="M64.87,81.46a2.09,2.09,0,0,0-2.6,1.66,3.35,3.35,0,0,0,1.38,3.07,9.1,9.1,0,0,0,3.22,1.4,63.27,63.27,0,0,0,30.44,1.09c1.75-.39,3.64-1,4.59-2.5a11.87,11.87,0,0,0-6.53-4.91Z" style="fill:#ab282a"/><path d="M63.86,80a2.81,2.81,0,0,0,.62,2.93,7.27,7.27,0,0,0,2.65,1.68c8.33,3.54,17.68,3.74,26.71,3.14A16,16,0,0,0,100,86.47a5.88,5.88,0,0,0,3.51-4.81,53.79,53.79,0,0,0-33.94-1.25Z" style="fill:#88171a"/><path d="M116.61,52.12A83,83,0,0,1,113.44,62q-2.66,7.27-5.32,14.54c-.86,2.35-1.78,4.8-3.72,6.48-2.5,2.16-6.16,2.6-9.58,2.85-6.65.48-13.46.64-19.93-1.06-4.7-1.23-10.78-2.51-12.16-7.64-1.62-6-3.54-11.81-4.44-18-.34-2.36-1.07-4.74-.87-7.09.23-2.74.52-5.48.8-8.22.5-4.79,1-10,3-14.39a10.06,10.06,0,0,1,1.79-2.89l.21-.2a4.66,4.66,0,0,1,2.67-1.16,8.11,8.11,0,0,0,1.95-.53,4.85,4.85,0,0,0,1.5-1.24c.73-.84,1.37-1.87,2.1-2.54,4.24-3.93,10.2-6,16.19-6.3a34.12,34.12,0,0,1,27.46,11.75,12.35,12.35,0,0,1,2.24,3.56,14.48,14.48,0,0,1,.63,5C118,40.67,117.9,46.49,116.61,52.12Z" style="fill:#ab282a"/><path d="M65.19,42.74a8.85,8.85,0,0,0,.93-6.08c-.29-2.09-.9-4.13-1-6.23a12.94,12.94,0,0,1,.83-5.23,8.11,8.11,0,0,0,1.95-.53,4.85,4.85,0,0,0,1.5-1.24,38.31,38.31,0,0,0-1.25,6.33c-.21,2.26-.1,4.54-.37,6.79A10.62,10.62,0,0,1,65.19,42.74Z" style="fill:#88171a"/><path d="M75.47,22.94c-2.67,3-2.79,7.42-2.27,11.39a6.64,6.64,0,0,0,1,3c1.14,1.59,3.34,2.1,5.35,2.36a11.25,11.25,0,0,0,6-.43A10.69,10.69,0,0,0,89.24,36a14,14,0,0,0,2.84-4.75,7.84,7.84,0,0,0-1.29-6.78C87.14,19.63,79.69,18.13,75.47,22.94Z" style="fill:#c3393a"/><path d="M109.55,38.94c-.53,3.71,1.57,7.33,1.94,11.07.47,4.64-1.72,9.05-3.85,13.19q-1.61,3.14-3.22,6.27-1.4,2.73-2.8,5.46c-.51,1-2,2.47-1.49,3.77.85,2,2.39.44,3.11-.68,2.78-4.36,4.47-9.26,6.14-14.11l2.94-8.55a37.09,37.09,0,0,0,2.45-10.14,14.3,14.3,0,0,0-1.29-6.89c-.36-.74-1.09-2.5-2.13-2.46S109.66,38.17,109.55,38.94Z" style="fill:#c3393a"/><path d="M84.57,107A8.06,8.06,0,0,1,83,109.81a7,7,0,0,1-3.3,1.76,16,16,0,0,1-2.15.42,37.55,37.55,0,0,1-5.8-.63,87.85,87.85,0,0,1-9.05-2.67c-2.42-.72-4.5-2.48-4.65-5.25-.12-2.12.84-4.2,1.18-6.29a66,66,0,0,0,.76-7.29A15.32,15.32,0,0,1,60.41,86c.68-.35,1.13,1.12,1.58,1.69a6.59,6.59,0,0,0,2.06,1.64c4.32,2.34,9.4,2.77,14.3,2.63,2.69-.09,5.85-.12,7.47,2.06C88.2,97.24,85.8,103.64,84.57,107Z" style="fill:#13171a"/><path d="M84.1,106.88a8,8,0,0,1-1.64,2.85,7.25,7.25,0,0,1-3.36,1.75c-6,1.59-12.34-.57-18.1-2.92a8.15,8.15,0,0,1-3.35-2.06,5.76,5.76,0,0,1-1.06-4.35,9.39,9.39,0,0,1,.2-1.2c.43-1.9,1.24-3.7,1.52-5.62s-.4-4.18-.22-6.26a8.88,8.88,0,0,1,.32-1.79,4.13,4.13,0,0,1,.45-1c.79-1.2,1.39.1,1.83.82a7.73,7.73,0,0,0,3,2.47,25.24,25.24,0,0,0,8.16,2.88c2.57.43,5.31.06,7.93.34a20.92,20.92,0,0,1,2.08.33,4.69,4.69,0,0,1,3.38,2.08,7.36,7.36,0,0,1,.54,1.26A4,4,0,0,1,86,97.87a19.06,19.06,0,0,1,0,2A25.05,25.05,0,0,1,84.1,106.88Z" style="fill:#24282b"/><path d="M58.41,87.13a1.67,1.67,0,0,1,.18-.72Z" style="fill:#ab282a"/><path d="M82.39,106a7.39,7.39,0,0,1-1.61,2.59A6.48,6.48,0,0,1,76.93,110c-4.33.4-8.64-.85-12.69-2.44a19.41,19.41,0,0,1-5.76-3.18,9.5,9.5,0,0,1-1.89-2.25,9.39,9.39,0,0,1,.2-1.2c.43-1.9,1.24-3.7,1.52-5.62s-.4-4.18-.22-6.26a8.88,8.88,0,0,1,.32-1.79,3.8,3.8,0,0,0,1.06,2.27C61.66,92,65,93.14,68.26,93.84A55.58,55.58,0,0,0,76.08,95a16.8,16.8,0,0,1,5.52.94,3.79,3.79,0,0,1,1.91,1.61A3.88,3.88,0,0,1,83.9,99,14.94,14.94,0,0,1,82.39,106Z" style="fill:#ab282a"/></svg>
