<svg class="S" xmlns="http://www.w3.org/2000/svg" xmlns:xlink="http://www.w3.org/1999/xlink" viewBox="0 0 126 126"><defs><linearGradient id="linear-gradient" x1="31.03" y1="23.5" x2="31.03" y2="12.3" gradientUnits="userSpaceOnUse"><stop offset="0" stop-color="#bcbec0"/><stop offset="0.16" stop-color="#cfd1d2"/><stop offset="0.35" stop-color="#e0e1e2"/><stop offset="0.5" stop-color="#e6e7e8"/><stop offset="0.74" stop-color="#eff0f0"/><stop offset="1" stop-color="#fff"/></linearGradient><linearGradient id="linear-gradient-2" x1="45.76" y1="23.5" x2="45.76" y2="12.3" xlink:href="#linear-gradient"/><linearGradient id="linear-gradient-3" x1="60.48" y1="23.5" x2="60.48" y2="12.3" xlink:href="#linear-gradient"/><linearGradient id="linear-gradient-4" x1="75.21" y1="23.5" x2="75.21" y2="12.3" xlink:href="#linear-gradient"/><linearGradient id="linear-gradient-5" x1="89.94" y1="23.5" x2="89.94" y2="12.3" xlink:href="#linear-gradient"/><radialGradient id="radial-gradient" cx="578.37" cy="-1699.38" r="65.43" gradientTransform="matrix(0.53, 0.83, 1.62, -1.04, 2501.65, -2207.29)" gradientUnits="userSpaceOnUse"><stop offset="0" stop-color="#b86d48"/><stop offset="0.12" stop-color="#b16642"/><stop offset="0.31" stop-color="#9c5133"/><stop offset="0.53" stop-color="#7b3019"/><stop offset="0.71" stop-color="#5b1000"/><stop offset="0.78" stop-color="#611604"/><stop offset="0.89" stop-color="#73280e"/><stop offset="1" stop-color="#8e431e"/></radialGradient><radialGradient id="radial-gradient-2" cx="-188.73" cy="-521.53" r="75.67" gradientTransform="translate(390.03 233.8) rotate(-32.16) scale(0.99 0.64)" gradientUnits="userSpaceOnUse"><stop offset="0" stop-color="#fff"/><stop offset="0.11" stop-color="#faf8f8"/><stop offset="0.28" stop-color="#ede5e3"/><stop offset="0.49" stop-color="#d8c6c2"/><stop offset="0.72" stop-color="#ba9a93"/><stop offset="0.97" stop-color="#946359"/><stop offset="1" stop-color="#8f5c51"/></radialGradient><radialGradient id="radial-gradient-3" cx="-161.71" cy="-497.43" r="53.67" gradientTransform="translate(342.27 157.83) rotate(-32.16) scale(0.99 0.44)" gradientUnits="userSpaceOnUse"><stop offset="0" stop-color="#b86d48"/><stop offset="0.34" stop-color="#9c5132"/><stop offset="1" stop-color="#5b1000"/></radialGradient><radialGradient id="radial-gradient-4" cx="-187.38" cy="-481.79" r="57.03" gradientTransform="translate(346.85 165.12) rotate(-32.16) scale(0.99 0.44)" xlink:href="#radial-gradient-3"/><radialGradient id="radial-gradient-5" cx="-188.75" cy="-502.05" r="75.91" gradientTransform="translate(393.69 239.62) rotate(-32.16) scale(0.99 0.64)" gradientUnits="userSpaceOnUse"><stop offset="0" stop-color="#fff"/><stop offset="0.15" stop-color="#faf8f8"/><stop offset="0.36" stop-color="#ede5e3"/><stop offset="0.63" stop-color="#d7c5c2"/><stop offset="0.92" stop-color="#b99a94"/><stop offset="1" stop-color="#b18e87"/></radialGradient></defs><g style="isolation:isolate"><g id="design"><path d="M60.48,8H16.59V62.1s4.8,42.7,43.89,55.9c39.1-13.2,43.9-55.9,43.9-55.9V8Z" style="fill:#005ca0"/><rect x="19.71" y="11.14" width="81.2" height="14.02" style="fill:#003761"/><polygon points="31.03 12.89 32.31 16.83 36.46 16.83 33.1 19.27 34.38 23.21 31.03 20.77 27.67 23.21 28.95 19.27 25.6 16.83 29.75 16.83 31.03 12.89" style="fill:url(#linear-gradient)"/><polygon points="45.76 12.89 47.04 16.83 51.18 16.83 47.83 19.27 49.11 23.21 45.76 20.77 42.4 23.21 43.68 19.27 40.33 16.83 44.48 16.83 45.76 12.89" style="fill:url(#linear-gradient-2)"/><polygon points="60.48 12.89 61.77 16.83 65.91 16.83 62.56 19.27 63.84 23.21 60.48 20.77 57.13 23.21 58.41 19.27 55.06 16.83 59.2 16.83 60.48 12.89" style="fill:url(#linear-gradient-3)"/><polygon points="75.21 12.89 76.49 16.83 80.64 16.83 77.29 19.27 78.57 23.21 75.21 20.77 71.86 23.21 73.14 19.27 69.78 16.83 73.93 16.83 75.21 12.89" style="fill:url(#linear-gradient-4)"/><polygon points="89.94 12.89 91.22 16.83 95.37 16.83 92.01 19.27 93.3 23.21 89.94 20.77 86.59 23.21 87.87 19.27 84.51 16.83 88.66 16.83 89.94 12.89" style="fill:url(#linear-gradient-5)"/><path d="M62.51,112.64a1.45,1.45,0,0,0-2.35,1.71,1.45,1.45,0,1,0,2.35-1.71Z" style="fill:#fff"/><path d="M69.13,109.56a1.29,1.29,0,1,0-.29,1.8A1.3,1.3,0,0,0,69.13,109.56Z" style="fill:#fff"/><path d="M75.74,105.48a1.13,1.13,0,1,0-.25,1.57A1.11,1.11,0,0,0,75.74,105.48Z" style="fill:#fff"/><path d="M80.36,101.39a1,1,0,1,0-.22,1.36A1,1,0,0,0,80.36,101.39Z" style="fill:#fff"/><path d="M85,96.31a.81.81,0,1,0-.18,1.13A.81.81,0,0,0,85,96.31Z" style="fill:#fff"/><path d="M82.69,93.86c29.14-18.67,40.7-52.62,33-64.68C108.37,17.79,72,13.06,42.89,31.73S3,85.54,10.15,96.77C17.87,108.82,53.55,112.52,82.69,93.86Z" style="fill:#7d3d25"/><path d="M42.89,31.73C13.81,50.36,3,85.42,10.12,96.71a189.4,189.4,0,0,0,58.6-25.08,189.61,189.61,0,0,0,47-42.37s0-.05,0-.08C108.37,17.79,72,13.06,42.89,31.73Z" style="fill:url(#radial-gradient)"/><path d="M42.89,31.73C13.81,50.36,3,85.42,10.12,96.71a189.4,189.4,0,0,0,58.6-25.08,189.61,189.61,0,0,0,47-42.37s0-.05,0-.08C108.37,17.79,72,13.06,42.89,31.73Z" style="fill:#cdebf4"/><path d="M44.63,34.5c24.55-15.73,54.05-15.39,68.22-8.36-11.29-9-43.58-11.31-70,5.59-26.22,16.8-37.58,47-34.35,61C8.27,76.92,20.23,50.13,44.63,34.5Z" style="opacity:0.34;mix-blend-mode:overlay;fill:url(#radial-gradient-2)"/><path d="M72.06,99.59a81.3,81.3,0,0,0,10.63-5.73c29.08-18.63,40.65-52.48,33-64.6l-.36.46C118.38,52.22,101.52,80.7,72.06,99.59Z" style="opacity:0.35000000000000003;mix-blend-mode:multiply;fill:url(#radial-gradient-3)"/><path d="M81.05,91.13a101,101,0,0,1-46.7,15.55,81.88,81.88,0,0,0,80-50.75A101,101,0,0,1,81.05,91.13Z" style="opacity:0.28;mix-blend-mode:multiply;fill:url(#radial-gradient-4)"/><path d="M34.2,43.28c.81-.51,1.21-1.31.9-1.8s-1.22-.45-2,.06-1.2,1.32-.89,1.8S33.4,43.8,34.2,43.28Z" style="fill:#563232"/><path d="M29.36,46.7c.8-.52,1.2-1.32.89-1.8s-1.22-.46-2,.05-1.21,1.32-.89,1.8S28.55,47.21,29.36,46.7Z" style="fill:#563232"/><path d="M39.19,39.94c.8-.52,1.18-1.33.85-1.8s-1.25-.42-2,.1-1.18,1.33-.85,1.8S38.4,40.47,39.19,39.94Z" style="fill:#563232"/><path d="M44.11,36.58c.79-.53,1.16-1.34.81-1.8s-1.26-.4-2.05.13-1.15,1.34-.81,1.8S43.32,37.12,44.11,36.58Z" style="fill:#563232"/><path d="M49.05,33.44c.79-.53,1.15-1.33.81-1.8s-1.26-.4-2,.13-1.16,1.34-.82,1.8S48.26,34,49.05,33.44Z" style="fill:#563232"/><path d="M54.25,30.13c.78-.55,1.1-1.36.72-1.8s-1.31-.34-2.08.22-1.1,1.36-.72,1.79S53.48,30.69,54.25,30.13Z" style="fill:#563232"/><path d="M59.31,27.18c.77-.56,1.09-1.36.71-1.8s-1.31-.34-2.08.21-1.09,1.36-.72,1.8S58.53,27.73,59.31,27.18Z" style="fill:#563232"/><path d="M26.7,46.89c-.42.31-1.24-.1-1.39-.46l-.14-.35C25,45.61,36.57,34.84,42.62,31c5.23-3.36,17.86-8.26,17.86-8.26.17.29.53,1.33.13,1.55l-.38.21c-5.34,2.92-6.78,2.3-16.42,8.36-9.41,5.92-10.87,9.28-16.52,13.61Z" style="fill:#a9c2c9"/><path d="M26.07,43.53A4.72,4.72,0,0,0,27.14,46c1,1.4.91.72,1.89.12.65-.4,1.61-.12.5-2a18.4,18.4,0,0,1-1.13-2.16c-.21-.32-.43.28-1.23.72S25.87,42.7,26.07,43.53Z" style="fill:#003761"/><path d="M30.75,39.87A7.22,7.22,0,0,0,32,42.7c1,1.41.91.72,1.89.12.65-.4,1.62-.13.51-2a26.27,26.27,0,0,1-1.31-2.56c-.21-.31-.42.28-1.23.73S30.56,39,30.75,39.87Z" style="fill:#003761"/><path d="M35.25,36a7.3,7.3,0,0,0,1.69,3.39c1.06,1.38.94.7,1.92.08.64-.41,1.62-.16.44-2s-1.53-2.8-1.75-3.12-.42.29-1.21.75S35,35.21,35.25,36Z" style="fill:#003761"/><path d="M39.69,32.33a9.56,9.56,0,0,0,2.15,3.76c1.09,1.35,1,.67,1.92,0,.64-.42,1.64-.19.41-2a34.86,34.86,0,0,1-1.92-3.43c-.23-.3-.42.29-1.21.76S39.45,31.52,39.69,32.33Z" style="fill:#003761"/><path d="M44.64,29.51A8.4,8.4,0,0,0,46.77,33c1.09,1.35,1,.67,1.93,0,.64-.42,1.63-.18.4-2a19.93,19.93,0,0,1-1.63-3.11c-.23-.31-.42.28-1.21.75S44.4,28.7,44.64,29.51Z" style="fill:#003761"/><path d="M49.83,26.81c.57,1.53.88,1.67,2.07,2.94s1,.61,2,0c.63-.44,1.65-.25.29-2a23.61,23.61,0,0,1-1.72-2.49c-.25-.29-.48.11-1.26.6S49.53,26,49.83,26.81Z" style="fill:#003761"/><path d="M55.72,24.75a5.51,5.51,0,0,0,1.24,2c1.2,1.27,1,.62,2,0,.63-.44,1.66-.25.29-2A15.81,15.81,0,0,1,57.94,23c-.25-.29-.41.3-1.19.79S55.51,23.94,55.72,24.75Z" style="fill:#003761"/><path d="M66,70.78A158.9,158.9,0,0,1,8.74,93.52a12.54,12.54,0,0,0,1.38,3.19,189.4,189.4,0,0,0,58.6-25.08,189.61,189.61,0,0,0,47-42.37s0-.05,0-.08a13.69,13.69,0,0,0-3.55-3.59A159.06,159.06,0,0,1,66,70.78Z" style="mix-blend-mode:multiply;fill:url(#radial-gradient-5)"/></g></g></svg>
