<svg class="S" id="design" xmlns="http://www.w3.org/2000/svg" xmlns:xlink="http://www.w3.org/1999/xlink" viewBox="0 0 126 126"><defs><radialGradient id="New_Gradient_Swatch_3" cx="81.99" cy="12.14" r="27.85" gradientUnits="userSpaceOnUse"><stop offset="0" stop-color="#ffad00"/><stop offset="0.18" stop-color="#ffa700"/><stop offset="0.41" stop-color="#ff9700"/><stop offset="0.43" stop-color="#ff9600"/><stop offset="0.69" stop-color="#fff585"/><stop offset="0.76" stop-color="#ffce33"/><stop offset="0.81" stop-color="#ffd336"/><stop offset="0.85" stop-color="#ffdc3d"/><stop offset="0.94" stop-color="#ff8700"/><stop offset="0.96" stop-color="#ff8b00"/><stop offset="0.97" stop-color="#ff9700"/><stop offset="0.99" stop-color="#ffac00"/><stop offset="0.99" stop-color="#ffad00"/></radialGradient><radialGradient id="New_Gradient_Swatch_3-2" cx="81.99" cy="12.14" r="27.85" xlink:href="#New_Gradient_Swatch_3"/><radialGradient id="New_Gradient_Swatch_3-3" cx="58.99" cy="40.42" r="35.6" xlink:href="#New_Gradient_Swatch_3"/><radialGradient id="New_Gradient_Swatch_3-4" cx="115.4" cy="40.42" r="35.6" xlink:href="#New_Gradient_Swatch_3"/></defs><path d="M109.9,90.74c0-5.49-19.08-9.94-46.9-9.94s-46.9,4.45-46.9,9.94L12.63,71.66c0-5.49,22.55-9.94,50.37-9.94s50.37,4.45,50.37,9.94Z" style="fill:#333"/><polygon points="17.47 31.98 63 5.69 108.53 31.98 108.53 94.02 63 120.31 17.46 94.02 17.47 31.98" style="fill:gray"/><polygon points="20.62 92.2 20.62 33.8 63 9.33 105.38 33.8 105.38 92.2 63 116.67 20.62 92.2" style="fill:#383838"/><path d="M63.07,23c2.22,0,3.53-.37,3.86-.64L68,15.61l-2.5,3.54L63,15.61l-2.5,3.54L58,15.61l1.2,6.72C59.51,22.6,60.82,23,63.07,23Z" style="fill:url(#New_Gradient_Swatch_3)"/><path d="M66.88,23.34a10.64,10.64,0,0,1-3.81.56,10.67,10.67,0,0,1-3.81-.56l.07.38h0c0,.46,1.67.83,3.74.83s3.75-.37,3.75-.83h0Z" style="fill:url(#New_Gradient_Swatch_3-2)"/><path d="M73.63,22a1.38,1.38,0,0,1-1.89.53,1.39,1.39,0,0,1,1.36-2.42A1.38,1.38,0,0,1,73.63,22Z" style="fill:#fff"/><path d="M79.42,25.21A1.24,1.24,0,1,1,79,23.53,1.24,1.24,0,0,1,79.42,25.21Z" style="fill:#fff"/><path d="M85.2,28.46A1.08,1.08,0,1,1,84.79,27,1.08,1.08,0,0,1,85.2,28.46Z" style="fill:#fff"/><path d="M91,31.71a.92.92,0,1,1-.35-1.26A.93.93,0,0,1,91,31.71Z" style="fill:#fff"/><path d="M96.76,35a.77.77,0,0,1-1.34-.76.77.77,0,1,1,1.34.76Z" style="fill:#fff"/><path d="M52.37,22a1.38,1.38,0,0,0,1.89.53,1.39,1.39,0,0,0-1.36-2.42A1.38,1.38,0,0,0,52.37,22Z" style="fill:#fff"/><path d="M46.58,25.21a1.24,1.24,0,1,0,.48-1.68A1.24,1.24,0,0,0,46.58,25.21Z" style="fill:#fff"/><path d="M40.8,28.46A1.08,1.08,0,1,0,41.21,27,1.08,1.08,0,0,0,40.8,28.46Z" style="fill:#fff"/><path d="M35,31.71a.92.92,0,1,0,.35-1.26A.93.93,0,0,0,35,31.71Z" style="fill:#fff"/><path d="M29.24,35a.77.77,0,0,0,1.34-.76.77.77,0,1,0-1.34.76Z" style="fill:#fff"/><path d="M73.63,106.47a1.38,1.38,0,0,0-1.89-.53,1.4,1.4,0,0,0-.53,1.89,1.39,1.39,0,1,0,2.42-1.36Z" style="fill:#fff"/><path d="M79.42,103.22A1.24,1.24,0,1,0,79,104.9,1.24,1.24,0,0,0,79.42,103.22Z" style="fill:#fff"/><path d="M85.2,100a1.08,1.08,0,1,0-.41,1.47A1.08,1.08,0,0,0,85.2,100Z" style="fill:#fff"/><path d="M91,96.73A.92.92,0,1,0,90.63,98,.92.92,0,0,0,91,96.73Z" style="fill:#fff"/><path d="M96.76,93.48a.77.77,0,1,0-.29,1A.77.77,0,0,0,96.76,93.48Z" style="fill:#fff"/><path d="M52.37,106.47a1.38,1.38,0,0,1,1.89-.53,1.4,1.4,0,0,1,.53,1.89,1.39,1.39,0,1,1-2.42-1.36Z" style="fill:#fff"/><path d="M46.58,103.22a1.24,1.24,0,1,1,.48,1.68A1.24,1.24,0,0,1,46.58,103.22Z" style="fill:#fff"/><path d="M40.8,100a1.08,1.08,0,1,1,.41,1.47A1.08,1.08,0,0,1,40.8,100Z" style="fill:#fff"/><path d="M35,96.73A.92.92,0,1,1,35.37,98,.92.92,0,0,1,35,96.73Z" style="fill:#fff"/><path d="M29.24,93.48a.77.77,0,1,1,.29,1A.77.77,0,0,1,29.24,93.48Z" style="fill:#fff"/><polygon points="34.8 54.84 36.03 57.35 38.8 57.75 36.8 59.7 37.27 62.45 34.8 61.16 32.32 62.45 32.79 59.7 30.79 57.75 33.56 57.35 34.8 54.84" style="fill:url(#New_Gradient_Swatch_3-3)"/><polygon points="91.2 54.84 92.44 57.35 95.21 57.75 93.21 59.7 93.68 62.45 91.2 61.16 88.73 62.45 89.2 59.7 87.2 57.75 89.97 57.35 91.2 54.84" style="fill:url(#New_Gradient_Swatch_3-4)"/><path d="M113.37,71.26c0,5.49-22.55,9.94-50.37,9.94s-50.37-4.45-50.37-9.94L16.1,90.35c0,5.49,19.08,9.94,46.9,9.94s46.9-4.45,46.9-9.94Z" style="fill:#666"/><path d="M113.37,71.26a2.48,2.48,0,0,1-.57,1.52,5.84,5.84,0,0,1-1.2,1.13,15.43,15.43,0,0,1-2.9,1.59,43.22,43.22,0,0,1-6.29,2.06,110.44,110.44,0,0,1-13,2.33A219.75,219.75,0,0,1,63,81.42,221.83,221.83,0,0,1,36.6,79.9a112.57,112.57,0,0,1-13-2.34A43.22,43.22,0,0,1,17.3,75.5a14.88,14.88,0,0,1-2.9-1.59,5.84,5.84,0,0,1-1.2-1.13,2.54,2.54,0,0,1-.57-1.52,2.48,2.48,0,0,0,.59,1.51,5.74,5.74,0,0,0,1.21,1.1,15.87,15.87,0,0,0,2.91,1.54,43.27,43.27,0,0,0,6.3,1.94,110.28,110.28,0,0,0,13,2.21A225.45,225.45,0,0,0,63,81a227.65,227.65,0,0,0,26.36-1.41,112.41,112.41,0,0,0,13-2.22,43.27,43.27,0,0,0,6.3-1.94,15.87,15.87,0,0,0,2.91-1.54,5.74,5.74,0,0,0,1.21-1.1A2.48,2.48,0,0,0,113.37,71.26Z" style="fill:#999"/><path d="M63.11,90.27a31.9,31.9,0,0,1-10.34-1.82,27.54,27.54,0,0,1-9.62-5.73l8-9.57a27,27,0,0,0,6.13,3.69,15.62,15.62,0,0,0,6.21,1.42,8.27,8.27,0,0,0,4.58-1,3.15,3.15,0,0,0,1.42-2.76A2.69,2.69,0,0,0,69,72.9a5,5,0,0,0-1.42-1.21,15.61,15.61,0,0,0-2.24-1.1c-.86-.35-1.86-.74-3-1.18l-6.57-2.76a19.1,19.1,0,0,1-4.06-2.15,15.76,15.76,0,0,1-3.41-3.16A14.73,14.73,0,0,1,46,57.16,15.13,15.13,0,0,1,45.1,52a14.15,14.15,0,0,1,1.46-6.37,16.21,16.21,0,0,1,4.06-5.19,19.45,19.45,0,0,1,6.2-3.53,23.17,23.17,0,0,1,7.92-1.3A26.85,26.85,0,0,1,74,37.27a22.83,22.83,0,0,1,8.32,5.36l-7,8.77a24.79,24.79,0,0,0-5.16-2.84,14.59,14.59,0,0,0-5.39-1,7.81,7.81,0,0,0-4.06.89,2.93,2.93,0,0,0-1.46,2.68A3.14,3.14,0,0,0,61.29,54c1.38.68,3.28,1.48,5.72,2.4l6.41,2.51a17.42,17.42,0,0,1,7.63,5.44,14.36,14.36,0,0,1,2.68,9,15.65,15.65,0,0,1-5.4,11.81,20,20,0,0,1-6.45,3.69A25.75,25.75,0,0,1,63.11,90.27Z" style="fill:#fff"/></svg>
