<svg class="S" id="design" xmlns="http://www.w3.org/2000/svg" viewBox="0 0 126 126"><path d="M13.74,45.3l.43,2.46A121,121,0,0,0,17.65,62.3,95.34,95.34,0,0,0,33.07,92.77a79.1,79.1,0,0,0,28.74,23.15l1.19.57,1.19-.57A79.1,79.1,0,0,0,92.93,92.77,95.34,95.34,0,0,0,108.35,62.3a121,121,0,0,0,3.48-14.54l.43-2.46-2.41-.68a15.27,15.27,0,0,1-10.4-19.43l.83-2.55L63,9.32,25.72,22.64l.83,2.56a15,15,0,0,1,.75,4.73A15.23,15.23,0,0,1,16.15,44.62Z" style="fill:#fff"/><path d="M63,121l-2.93-1.41A83.34,83.34,0,0,1,29.89,95.23,99.44,99.44,0,0,1,13.81,63.48a126.62,126.62,0,0,1-3.59-15L9.16,42.41l5.91-1.65a11.26,11.26,0,0,0,7.67-14.32l-2-6.26L63,5.05l42.31,15.13-2,6.26a11.27,11.27,0,0,0,7.67,14.32l5.91,1.65-1.06,6.05a126.62,126.62,0,0,1-3.59,15A99.23,99.23,0,0,1,96.11,95.23a83.34,83.34,0,0,1-30.18,24.31ZM13.74,45.3l.43,2.46A121,121,0,0,0,17.65,62.3,95.34,95.34,0,0,0,33.07,92.77a79.1,79.1,0,0,0,28.74,23.15l1.19.57,1.19-.57A79.1,79.1,0,0,0,92.93,92.77,95.34,95.34,0,0,0,108.35,62.3a121,121,0,0,0,3.48-14.54l.43-2.46-2.41-.68a15.27,15.27,0,0,1-10.4-19.43l.83-2.55L63,9.32,25.72,22.64l.83,2.56a15,15,0,0,1,.75,4.73A15.23,15.23,0,0,1,16.15,44.62Z" style="fill:#005ca0"/><path d="M63,113.43A76.44,76.44,0,0,1,35.25,91.08a92.71,92.71,0,0,1-15-29.59,117,117,0,0,1-3.4-14.21A18,18,0,0,0,30.06,29.93a17.77,17.77,0,0,0-.88-5.59L63,12.25,96.82,24.34a17.77,17.77,0,0,0-.88,5.59,18,18,0,0,0,13.17,17.35,117.41,117.41,0,0,1-3.4,14.21,92.71,92.71,0,0,1-15,29.59A76.44,76.44,0,0,1,63,113.43Z" style="fill:#005ca0"/><path d="M63,110.78A74.17,74.17,0,0,1,37.14,89.63,90.34,90.34,0,0,1,22.57,60.78a112.44,112.44,0,0,1-3-11.9,20.44,20.44,0,0,0,12.84-19A20.53,20.53,0,0,0,32,25.85L63,14.78,94,25.85A20.4,20.4,0,0,0,98.55,43.3a20.31,20.31,0,0,0,7.84,5.58,113.24,113.24,0,0,1-3,11.91A90.18,90.18,0,0,1,88.86,89.63,74.07,74.07,0,0,1,63,110.78Z" style="fill:#e42637"/><path d="M32.18,34.55a101,101,0,0,1,31.37-4.76,109,109,0,0,1,12.14.66C102.32,33.73,122.26,47.1,122.26,63c0,18.45-26.54,33.33-59.26,33.33S3.74,81.45,3.74,63c0-12,11.39-22.59,28.44-28.45Z" style="fill:#fff;fill-rule:evenodd"/><path d="M4.41,62.92c0-18.34,26.42-33.22,59.14-33.22,25.7,0,47.58,9.18,55.79,22A20.39,20.39,0,0,1,122.26,62c0,18.45-26.54,33.33-59.26,33.33-24,0-44.65-8-54-19.53a21.36,21.36,0,0,1-4.62-12.9Z" style="fill:#005ca0;fill-rule:evenodd"/><path d="M68.53,82.24h-27l-1-4.93H30.17l-1.44,3.92C36.8,87.72,49.4,91.85,63.55,91.85c13.38,0,25.32-3.69,33.5-9.5H83.78L82.13,59.64H78.7l.55,11.52H68.53V82.24Z" style="fill:#e42637;fill-rule:evenodd"/><path d="M29.28,46.11H46.53l6,18.46.55-18.46H97.82a50.82,50.82,0,0,0-19.67-8.72v3H73.61v-3.8c-1.21-.23-2.43-.34-3.65-.45V43H65.43v-7H61.78v7H57.25V36.16a30.85,30.85,0,0,0-3.65.45v3.8H49v-3a52.47,52.47,0,0,0-19.68,8.72Z" style="fill:#e42637;fill-rule:evenodd"/><path d="M97.16,51.7l2.21,17.12h8a18.39,18.39,0,0,0,.67-4.93c0-5.25-2.33-10.17-6.31-14.31L97.16,51.7Z" style="fill:#e42637;fill-rule:evenodd"/><path d="M28.73,51.26,25.3,49.69c-3.87,4.14-6.08,9.06-6.08,14.2a20.25,20.25,0,0,0,.11,2.58l9.4-15.21Z" style="fill:#e42637;fill-rule:evenodd"/><path d="M113.19,78.32H85.88L83.45,47.9H100l-8.52,3.69H95l2.43,19.13h13.93l1.88,7.6ZM76.38,60.43l.33,6.71H65.65V78.32H43.32l-1.1-4.81H28.84l-2.43,4.81H14.47L30.83,51.59h3.76l-8-3.69H44.76l9.17,27.51h.34l.88-27.51H81.24l.55,7.5H65.65v5Z" style="fill:#fff;fill-rule:evenodd"/><polygon points="38.24 55.84 37.57 55.84 31.6 67.92 41 67.92 38.24 55.84 38.24 55.84" style="fill:#005ca0;fill-rule:evenodd"/><path d="M63.55,32.92c-26.86,0-48.64,13.86-48.64,31a19.15,19.15,0,0,0,1.44,7.5l2.32-3.8a21,21,0,0,1-.33-3.7c0-13.42,13.59-24.71,32.28-28.4v3.24h1.32V35.26a69.08,69.08,0,0,1,6.86-.89V41.3h1.33V34.37c1.1-.11,2.32-.11,3.42-.11s2.32,0,3.54.11V41.3h1.22V34.37c2.43.22,4.64.45,7,.89v3.47H76.6V35.49c18.68,3.69,32.28,15,32.28,28.4a18.38,18.38,0,0,1-.66,4.93h3.42a18,18,0,0,0,.67-4.93c0-17.11-21.78-31-48.76-31Z" style="fill:#fff;fill-rule:evenodd"/><path d="M63.55,93.53c-14.37,0-27.08-4.36-35.37-11.18H24.53c8.84,7.6,23,12.41,39,12.41s30.29-4.92,39.14-12.41H99c-8.29,6.82-21.12,11.18-35.49,11.18Z" style="fill:#fff;fill-rule:evenodd"/><path d="M63,98.07C29.37,98.07,2,82.34,2,63S29.37,27.93,63,27.93,124,43.66,124,63,96.63,98.07,63,98.07Zm0-67.55C30.8,30.52,4.6,45.09,4.6,63S30.8,95.48,63,95.48,121.4,80.91,121.4,63,95.2,30.52,63,30.52Z" style="fill:#003459"/></svg>
