<svg class="S" xmlns="http://www.w3.org/2000/svg" xmlns:xlink="http://www.w3.org/1999/xlink" viewBox="0 0 126 126"><defs><radialGradient id="radial-gradient" cx="63" cy="63" r="50" gradientUnits="userSpaceOnUse"><stop offset="0" stop-color="#f4a26f"/><stop offset="0.13" stop-color="#ef9b69"/><stop offset="0.32" stop-color="#e08857"/><stop offset="0.54" stop-color="#c8693b"/><stop offset="0.74" stop-color="#ad451a"/><stop offset="0.96" stop-color="#e56525"/><stop offset="1" stop-color="#f06c27"/></radialGradient><radialGradient id="radial-gradient-2" cx="49.12" cy="1250.81" r="72.43" gradientTransform="matrix(1, 0, 0, -1, 0, 1296)" gradientUnits="userSpaceOnUse"><stop offset="0" stop-color="#f4a26f"/><stop offset="0.13" stop-color="#ef9b69"/><stop offset="0.32" stop-color="#e08857"/><stop offset="0.54" stop-color="#c8693b"/><stop offset="0.86" stop-color="#9c3e17"/><stop offset="1" stop-color="#bf4c1c"/></radialGradient><filter id="luminosity-noclip" x="23.36" y="-8839" width="80.05" height="32766" filterUnits="userSpaceOnUse" color-interpolation-filters="sRGB"><feFlood flood-color="#fff" result="bg"/><feBlend in="SourceGraphic" in2="bg"/></filter><mask id="mask" x="23.36" y="-8839" width="80.05" height="32766" maskUnits="userSpaceOnUse"><g style="filter:url(#luminosity-noclip)"/></mask><linearGradient id="linear-gradient" x1="63.38" y1="-6.04" x2="63.38" y2="74.86" gradientUnits="userSpaceOnUse"><stop offset="0" stop-color="#fff" stop-opacity="0.4"/><stop offset="0.01" stop-color="#fff" stop-opacity="0.39"/><stop offset="0.32" stop-color="#fff" stop-opacity="0.22"/><stop offset="0.6" stop-color="#fff" stop-opacity="0.1"/><stop offset="0.84" stop-color="#fff" stop-opacity="0.03"/><stop offset="1" stop-color="#fff" stop-opacity="0"/></linearGradient></defs><g style="isolation:isolate"><g id="design"><g id="Layer_4" data-name="Layer 4"><circle cx="63" cy="63" r="50" style="fill:url(#radial-gradient)"/><circle cx="63" cy="63" r="48.92" style="fill:url(#radial-gradient-2)"/><path d="M16.25,48.33a24.55,24.55,0,0,0,1.14-2.63,5.15,5.15,0,0,1,.55.77C17.23,47.3,16.88,47.68,16.25,48.33Z" style="fill:#9e532f"/><path d="M20,39.58c-.46,1.59-.69,2.32-1.15,3.71a2.48,2.48,0,0,0-.61-.55C18.91,41.54,19.25,40.9,20,39.58Z" style="fill:#9e532f"/><path d="M19.58,44.59c.49-1.4.75-2.16,1.26-3.76.36.44.56.7,1,1.3C20.84,43.16,20.4,43.66,19.58,44.59Z" style="fill:#9e532f"/><path d="M24.29,33.14c-.59,2-.87,2.93-1.44,4.73a13,13,0,0,0-1.05-1.18C22.71,35.3,23.2,34.58,24.29,33.14Z" style="fill:#9e532f"/><path d="M24,39.9c.61-1.78,1-2.71,1.57-4.68l1.49,2C25.76,38.28,25.15,38.82,24,39.9Z" style="fill:#9e532f"/><path d="M30.29,26.52c-.78,2.31-1.16,3.42-1.9,5.53-.66-.86-1-1.26-1.58-2A40.43,40.43,0,0,1,30.29,26.52Z" style="fill:#9e532f"/><path d="M30.13,35c.81-2.06,1.22-3.13,2.07-5.36.8,1.06,1.23,1.63,2.11,2.84A38.63,38.63,0,0,0,30.13,35Z" style="fill:#9e532f"/><path d="M38.49,20.43c-1,2.54-1.53,3.75-2.5,6.1-1-1.24-1.38-1.83-2.24-2.93A40.34,40.34,0,0,1,38.49,20.43Z" style="fill:#9e532f"/><path d="M38.44,30.49c1.05-2.26,1.59-3.42,2.7-5.88,1.11,1.48,1.7,2.23,2.88,3.8A56.86,56.86,0,0,0,38.44,30.49Z" style="fill:#9e532f"/><path d="M49.19,15.78,46.1,22c-1.19-1.67-1.79-2.48-2.93-4A36.79,36.79,0,0,1,49.19,15.78Z" style="fill:#9e532f"/><path d="M49.14,27.08l3.15-5.87c1.24,1.91,1.86,2.88,3.14,4.89A49.27,49.27,0,0,0,49.14,27.08Z" style="fill:#9e532f"/><path d="M61,13.93,57.7,19.72l-3.15-5.14A41.57,41.57,0,0,1,61,13.93Z" style="fill:#9e532f"/><path d="M60.87,25.73c1.29-2.15,2-3.24,3.24-5.4l3.16,5.56A54.71,54.71,0,0,0,60.87,25.73Z" style="fill:#9e532f"/><path d="M72.61,14.78c-1.24,2.08-1.87,3.06-3.12,5.13L66.38,14A42.19,42.19,0,0,1,72.61,14.78Z" style="fill:#9e532f"/><path d="M72.57,26.47c1.23-1.9,1.84-2.85,3-4.73l2.94,6A51,51,0,0,0,72.57,26.47Z" style="fill:#9e532f"/><path d="M83.23,18.09c-1.07,1.71-1.64,2.53-2.73,4.26-1.11-2.48-1.68-3.75-2.83-6.34A37.23,37.23,0,0,1,83.23,18.09Z" style="fill:#9e532f"/><path d="M83.25,29.14c1-1.57,1.56-2.35,2.55-3.91l2.44,6.05A34.38,34.38,0,0,0,83.25,29.14Z" style="fill:#9e532f"/><path d="M91.8,23.43c-.75,1.35-1.15,2-2,3.41-.91-2.47-1.34-3.8-2.32-6.47A45.21,45.21,0,0,1,91.8,23.43Z" style="fill:#9e532f"/><path d="M92,33.32c.78-1.3,1.14-1.95,1.8-3.21.79,2.27,1.19,3.34,2,5.39C94.43,34.65,93.68,34.22,92,33.32Z" style="fill:#9e532f"/><path d="M97.81,28.61c-.42,1.16-.65,1.76-1.16,2.93-.71-2.15-1.08-3.29-1.81-5.67C96.15,27,96.73,27.55,97.81,28.61Z" style="fill:#9e532f"/><path d="M98.43,37.25c.46-1.13.67-1.69,1-2.77.63,2,1,2.93,1.56,4.77A31.67,31.67,0,0,0,98.43,37.25Z" style="fill:#9e532f"/><path d="M102.06,33.39c-.21,1-.34,1.46-.63,2.47-.59-2-.9-2.94-1.5-5C100.85,31.86,101.27,32.36,102.06,33.39Z" style="fill:#9e532f"/><path d="M103,40.93c.27-1,.39-1.4.6-2.3.57,1.8.85,2.65,1.41,4.29C104.19,42.12,103.8,41.73,103,40.93Z" style="fill:#9e532f"/><path d="M105.44,38.23c-.11.72-.18,1.1-.35,1.88-.56-1.73-.86-2.64-1.42-4.54C104.39,36.63,104.74,37.15,105.44,38.23Z" style="fill:#9e532f"/><path d="M106.59,44.69c.2-.73.27-1.07.42-1.73.6,1.63.9,2.42,1.52,3.91Z" style="fill:#9e532f"/><path d="M108.86,43.59c-.1.4-.16.62-.3,1.14-.66-1.57-1-2.41-1.62-4.13C107.68,41.76,108,42.31,108.86,43.59Z" style="fill:#9e532f"/><path d="M15.14,53.07a19.2,19.2,0,0,0,1.29-2.18l.68,1.49A8.7,8.7,0,0,1,15.14,53.07Z" style="fill:#9e532f"/><path d="M19.41,46.38c-.51,1.35-.76,1.95-1.28,3.16-.31-.59-.44-.85-.69-1.3C18.18,47.57,18.57,47.2,19.41,46.38Z" style="fill:#9e532f"/><path d="M18.92,51.5c.54-1.21.8-1.86,1.35-3.24.38.69.6,1.07,1,1.88C20.28,50.73,19.81,51,18.92,51.5Z" style="fill:#9e532f"/><path d="M23.92,42.23c-.63,1.71-.93,2.52-1.52,4.07-.47-.78-.68-1.13-1.08-1.75C22.28,43.66,22.78,43.18,23.92,42.23Z" style="fill:#9e532f"/><path d="M23.63,48.83c.63-1.54,1-2.36,1.63-4,.58.91.88,1.39,1.53,2.43C25.42,47.85,24.84,48.18,23.63,48.83Z" style="fill:#9e532f"/><path d="M30.07,37.82c-.8,2-1.19,2.94-1.95,4.76-.68-1-1-1.5-1.62-2.39A42.47,42.47,0,0,1,30.07,37.82Z" style="fill:#9e532f"/><path d="M29.9,45.83,32,41.18l2.15,3.14A43.1,43.1,0,0,0,29.9,45.83Z" style="fill:#9e532f"/><path d="M38.42,33.87,35.88,39.1l-2.23-3.19A41,41,0,0,1,38.42,33.87Z" style="fill:#9e532f"/><path d="M38.37,43.28l2.75-5c1.14,1.55,1.7,2.3,2.86,3.92C41.66,42.59,40.5,42.77,38.37,43.28Z" style="fill:#9e532f"/><path d="M49.12,30.88l-3.06,5.49c-1.19-1.67-1.78-2.47-2.93-4A47.16,47.16,0,0,1,49.12,30.88Z" style="fill:#9e532f"/><path d="M49.08,41.33l3.16-5.24,3.15,4.64C52.79,40.89,51.53,41,49.08,41.33Z" style="fill:#9e532f"/><path d="M60.85,29.68l-3.24,5.24-3.17-4.84A62.48,62.48,0,0,1,60.85,29.68Z" style="fill:#9e532f"/><path d="M60.82,40.52l3.23-5c1.28,2.05,2,3.07,3.21,5.08C64.7,40.5,63.4,40.49,60.82,40.52Z" style="fill:#9e532f"/><path d="M72.57,30.37l-3.1,4.71c-1.26-2.1-1.9-3.17-3.17-5.31A59.91,59.91,0,0,1,72.57,30.37Z" style="fill:#9e532f"/><path d="M72.63,41l3-4.46c1.22,2.14,1.82,3.18,3,5.22C76.33,41.33,75.11,41.22,72.63,41Z" style="fill:#9e532f"/><path d="M83.28,32.78l-2.67,4-2.93-5.5A48.62,48.62,0,0,1,83.28,32.78Z" style="fill:#9e532f"/><path d="M83.43,42.65,86,38.92C87,41,87.5,42.05,88.49,44A46.66,46.66,0,0,0,83.43,42.65Z" style="fill:#9e532f"/><path d="M92.13,36.55c-.79,1.29-1.21,2-2.12,3.28-1-2-1.44-3.14-2.43-5.39C89.5,35.29,90.4,35.75,92.13,36.55Z" style="fill:#9e532f"/><path d="M92.45,45.24c.81-1.28,1.2-2,1.9-3.14.85,1.88,1.27,2.77,2.06,4.48C95,46.05,94.21,45.78,92.45,45.24Z" style="fill:#9e532f"/><path d="M98.64,40.07c-.47,1.12-.74,1.69-1.3,2.83-.75-1.79-1.13-2.73-2-4.69C96.85,39,97.47,39.37,98.64,40.07Z" style="fill:#9e532f"/><path d="M99.2,47.69c.5-1.11.74-1.65,1.17-2.71.65,1.67,1,2.46,1.57,4A29.57,29.57,0,0,0,99.2,47.69Z" style="fill:#9e532f"/><path d="M103.23,43.41c-.28,1-.44,1.42-.79,2.4-.58-1.61-.89-2.45-1.51-4.2C101.92,42.31,102.37,42.69,103.23,43.41Z" style="fill:#9e532f"/><path d="M103.92,50.13c.33-1,.48-1.4.76-2.28.55,1.51.82,2.23,1.33,3.62A21.26,21.26,0,0,0,103.92,50.13Z" style="fill:#9e532f"/><path d="M106.93,46.83c-.21.73-.33,1.12-.58,2-.54-1.46-.81-2.21-1.36-3.79C105.78,45.69,106.16,46.06,106.93,46.83Z" style="fill:#9e532f"/><path d="M107.71,52.62l.66-1.82c.55,1.37.82,2,1.38,3.27Z" style="fill:#9e532f"/><path d="M110.73,50.6c-.24.48-.37.76-.65,1.33-.59-1.31-.9-2-1.48-3.43C109.41,49.31,109.83,49.73,110.73,50.6Z" style="fill:#9e532f"/><path d="M14.21,58.36a14.85,14.85,0,0,0,1.34-1.81c.33.8.49,1.23.87,2.14A7.94,7.94,0,0,1,14.21,58.36Z" style="fill:#9e532f"/><path d="M18.75,53.32A23.9,23.9,0,0,1,17.42,56c-.36-.83-.53-1.22-.83-2A14.83,14.83,0,0,0,18.75,53.32Z" style="fill:#9e532f"/><path d="M18.39,58.62c.58-1,.8-1.64,1.36-2.81l1.18,2.42C20.09,58.4,19.24,58.53,18.39,58.62Z" style="fill:#9e532f"/><path d="M23.53,51.11c-.64,1.5-1,2.2-1.55,3.56L20.8,52.39C21.82,51.93,22.35,51.67,23.53,51.11Z" style="fill:#9e532f"/><path d="M23.32,57.71c.63-1.36,1-2.08,1.64-3.57L26.55,57Z" style="fill:#9e532f"/><path d="M29.85,48.6l-2,4.17L26.22,50C27.54,49.41,28.26,49.15,29.85,48.6Z" style="fill:#9e532f"/><path d="M29.73,56.39l2.13-4.1,2.21,3.48C32.18,56,31.32,56.11,29.73,56.39Z" style="fill:#9e532f"/><path d="M38.35,46.44,35.77,51l-2.33-3.48A48.83,48.83,0,0,1,38.35,46.44Z" style="fill:#9e532f"/><path d="M38.31,55.41c1.08-1.72,1.64-2.6,2.8-4.41,1.16,1.65,1.7,2.44,2.85,4.12C41.66,55.29,40.5,55.29,38.31,55.41Z" style="fill:#9e532f"/><path d="M49.06,44.88,46,49.77c-1.18-1.69-1.77-2.52-2.93-4.12C45.39,45.31,46.6,45.14,49.06,44.88Z" style="fill:#9e532f"/><path d="M49,54.82,52.15,50l3.17,4.56C52.76,54.64,51.48,54.69,49,54.82Z" style="fill:#9e532f"/><path d="M60.82,44.2l-3.24,4.9-3.2-4.65C56.93,44.26,58.23,44.26,60.82,44.2Z" style="fill:#9e532f"/><path d="M60.83,54.46l3.25-4.76c1.3,2,2,2.87,3.26,4.75C64.74,54.43,63.43,54.43,60.83,54.46Z" style="fill:#9e532f"/><path d="M72.66,44.58l-3.12,4.57c-1.3-1.95-2-2.93-3.23-4.89C68.87,44.32,70.16,44.39,72.66,44.58Z" style="fill:#9e532f"/><path d="M72.78,54.56l3-4.43C77,52,77.66,53,78.88,54.8,76.51,54.67,75.28,54.62,72.78,54.56Z" style="fill:#9e532f"/><path d="M83.55,46l-2.74,4c-1.18-1.88-1.78-2.86-3-4.84C80.19,45.39,81.34,45.55,83.55,46Z" style="fill:#9e532f"/><path d="M83.72,55.11l2.54-3.84c1.06,1.8,1.59,2.67,2.6,4.34C87,55.38,85.92,55.28,83.72,55.11Z" style="fill:#9e532f"/><path d="M92.58,48.18c-.82,1.29-1.26,2-2.2,3.31-1.06-1.71-1.51-2.64-2.52-4.53Z" style="fill:#9e532f"/><path d="M92.94,56.08c.84-1.34,1.23-1.95,2-3.24.88,1.6,1.3,2.36,2.1,3.84C95.55,56.42,94.75,56.31,92.94,56.08Z" style="fill:#9e532f"/><path d="M99.38,50.23c-.51,1.11-.78,1.67-1.37,2.85l-2-4C97.51,49.56,98.17,49.78,99.38,50.23Z" style="fill:#9e532f"/><path d="M99.83,57.22c.53-1.15.77-1.7,1.24-2.78.64,1.43,1,2.12,1.51,3.45C101.58,57.61,101,57.48,99.83,57.22Z" style="fill:#9e532f"/><path d="M104.1,52.34c-.35,1-.53,1.43-.91,2.43-.56-1.38-.86-2.09-1.46-3.58C102.77,51.65,103.23,51.87,104.1,52.34Z" style="fill:#9e532f"/><path d="M104.55,58.5c.37-1,.54-1.45.89-2.37l1.18,3.12C105.83,58.94,105.43,58.79,104.55,58.5Z" style="fill:#9e532f"/><path d="M107.91,54.57l-.78,2c-.48-1.24-.72-1.89-1.22-3.24C106.72,53.82,107.11,54.05,107.91,54.57Z" style="fill:#9e532f"/><path d="M108.3,59.92c.36-.82.52-1.22.86-2,.48,1.16.72,1.71,1.19,2.77Z" style="fill:#9e532f"/><path d="M111.92,57c-.37.57-.55.88-1,1.54-.52-1.1-.79-1.67-1.32-2.89C110.5,56.18,111,56.44,111.92,57Z" style="fill:#9e532f"/><path d="M13.74,64.06A13.66,13.66,0,0,0,15,62.59c.43,1,.65,1.59,1.13,2.74A13.78,13.78,0,0,1,13.74,64.06Z" style="fill:#9e532f"/><path d="M18.3,60.5c-.53,1-.78,1.48-1.29,2.35-.45-1.06-.66-1.56-1.06-2.53A11,11,0,0,0,18.3,60.5Z" style="fill:#9e532f"/><path d="M18.22,66c.48-.91.74-1.41,1.27-2.45l1.34,2.93A16.43,16.43,0,0,1,18.22,66Z" style="fill:#9e532f"/><path d="M23.27,60l-1.49,3.16L20.45,60.4C21.51,60.29,22.07,60.2,23.27,60Z" style="fill:#9e532f"/><path d="M23.26,66.71l1.58-3.2,1.7,3.32C25.11,66.77,24.48,66.77,23.26,66.71Z" style="fill:#9e532f"/><path d="M29.73,59.12c-.81,1.54-1.2,2.29-2,3.72L26,59.61C27.36,59.41,28.1,59.3,29.73,59.12Z" style="fill:#9e532f"/><path d="M29.73,66.89c.79-1.43,1.21-2.18,2.08-3.7l2.26,3.91C32.14,67,31.29,66.94,29.73,66.89Z" style="fill:#9e532f"/><path d="M38.3,58.52c-1.07,1.67-1.6,2.48-2.6,4.07l-2.38-3.85C35.17,58.62,36.15,58.56,38.3,58.52Z" style="fill:#9e532f"/><path d="M38.29,67.37c1.08-1.55,1.65-2.35,2.81-4,1.17,1.78,1.69,2.64,2.84,4.45C41.65,67.75,40.5,67.56,38.29,67.37Z" style="fill:#9e532f"/><path d="M49,58.25l-3,4.6c-1.18-1.78-1.76-2.65-2.93-4.34C45.39,58.37,46.56,58.33,49,58.25Z" style="fill:#9e532f"/><path d="M49,68l3.13-4.56,3.18,4.65C52.73,68.1,51.45,68.08,49,68Z" style="fill:#9e532f"/><path d="M60.83,58l-3.26,4.73-3.22-4.62C56.91,58.06,58.22,58,60.83,58Z" style="fill:#9e532f"/><path d="M60.85,68.07l3.27-4.74c1.32,1.85,1.95,2.78,3.3,4.6C64.8,68,63.48,68,60.85,68.07Z" style="fill:#9e532f"/><path d="M72.78,58l-3.13,4.62c-1.31-1.83-2-2.75-3.27-4.62Z" style="fill:#9e532f"/><path d="M72.92,67.75,76,63.15c1.27,1.76,1.9,2.62,3.14,4.31C76.7,67.59,75.48,67.65,72.92,67.75Z" style="fill:#9e532f"/><path d="M83.81,58.25l-2.72,4.18c-1.2-1.7-1.81-2.57-3-4.36C80.45,58.13,81.59,58.17,83.81,58.25Z" style="fill:#9e532f"/><path d="M84.06,67.16,86.63,63c1.1,1.59,1.62,2.35,2.65,3.81C87.33,66.93,86.28,67,84.06,67.16Z" style="fill:#9e532f"/><path d="M93.07,58.81c-.84,1.37-1.29,2.08-2.25,3.56-1.09-1.49-1.54-2.27-2.58-3.91Z" style="fill:#9e532f"/><path d="M93.41,66.51c.85-1.48,1.25-2.19,2-3.55.88,1.41,1.3,2.09,2.07,3.41C96,66.4,95.29,66.42,93.41,66.51Z" style="fill:#9e532f"/><path d="M100,59.6c-.54,1.17-.83,1.78-1.43,3-.74-1.35-1.13-2.05-2-3.49C98.09,59.31,98.75,59.41,100,59.6Z" style="fill:#9e532f"/><path d="M100.28,66.35c.55-1.26.8-1.85,1.29-3,.59,1.27.86,1.88,1.38,3.08C102,66.37,101.46,66.36,100.28,66.35Z" style="fill:#9e532f"/><path d="M104.66,60.6l-1,2.59c-.49-1.22-.77-1.85-1.34-3.14C103.34,60.26,103.79,60.37,104.66,60.6Z" style="fill:#9e532f"/><path d="M104.83,66.53c.4-1.06.6-1.58,1-2.57.42,1.14.61,1.69,1,2.75Z" style="fill:#9e532f"/><path d="M108.37,61.75c-.36.84-.55,1.27-.92,2.18-.39-1.09-.59-1.64-1-2.82Z" style="fill:#9e532f"/><path d="M108.37,66.88c.4-.91.61-1.35,1-2.18.39,1,.58,1.47,1,2.37Z" style="fill:#9e532f"/><path d="M112.33,63a19,19,0,0,0-1.16,1.78c-.43-.92-.65-1.41-1.08-2.43C111,62.56,111.36,62.7,112.33,63Z" style="fill:#9e532f"/><path d="M14,70.15a8.55,8.55,0,0,0,1-1.14l1.45,3.31A23.21,23.21,0,0,1,14,70.15Z" style="fill:#9e532f"/><path d="M18.25,68c-.47.88-.69,1.29-1.12,2-.56-1.3-.82-2-1.33-3.12A13.08,13.08,0,0,0,18.25,68Z" style="fill:#9e532f"/><path d="M18.62,73.76c.4-.79.6-1.23,1.05-2.16l1.54,3.48A17.52,17.52,0,0,1,18.62,73.76Z" style="fill:#9e532f"/><path d="M23.3,69.09,22,71.92l-1.49-3.31A27.6,27.6,0,0,0,23.3,69.09Z" style="fill:#9e532f"/><path d="M23.61,76c.51-1.11.78-1.7,1.38-2.93L26.8,76.9C25.42,76.55,24.84,76.39,23.61,76Z" style="fill:#9e532f"/><path d="M29.73,69.7c-.78,1.41-1.14,2.1-1.84,3.42l-1.84-3.71C27.39,69.48,28.12,69.53,29.73,69.7Z" style="fill:#9e532f"/><path d="M29.88,77.64c.73-1.34,1.12-2,2-3.44l2.29,4.37Z" style="fill:#9e532f"/><path d="M38.3,70.49c-1.07,1.52-1.58,2.28-2.56,3.74L33.33,70C35.16,70.12,36.15,70.22,38.3,70.49Z" style="fill:#9e532f"/><path d="M38.33,79.49c1.06-1.47,1.61-2.2,2.77-3.72,1.17,2,1.68,2.93,2.82,4.89C41.65,80.33,40.5,80,38.33,79.49Z" style="fill:#9e532f"/><path d="M49,71.46l-3,4.35-2.87-4.73C45.34,71.28,46.53,71.36,49,71.46Z" style="fill:#9e532f"/><path d="M49,81.44,52.09,77l3.19,4.89C52.69,81.73,51.41,81.65,49,81.44Z" style="fill:#9e532f"/><path d="M60.86,71.66l-3.29,4.75-3.24-4.75Z" style="fill:#9e532f"/><path d="M60.86,81.87,64.16,77c1.34,1.87,2,2.8,3.33,4.64C64.85,81.8,63.51,81.85,60.86,81.87Z" style="fill:#9e532f"/><path d="M73,71.19,69.77,76c-1.32-1.8-2-2.71-3.32-4.54C69.09,71.4,70.4,71.34,73,71.19Z" style="fill:#9e532f"/><path d="M73.07,81.16l3.13-5c1.28,1.7,2,2.53,3.16,4.17C76.92,80.73,75.65,80.89,73.07,81.16Z" style="fill:#9e532f"/><path d="M84.14,70.31l-2.76,4.63c-1.22-1.6-1.83-2.42-3.1-4.1C80.72,70.68,81.9,70.53,84.14,70.31Z" style="fill:#9e532f"/><path d="M84.36,79.49,87,74.71l2.67,3.52C87.7,78.73,86.62,79,84.36,79.49Z" style="fill:#9e532f"/><path d="M93.53,69.23c-.85,1.54-1.31,2.34-2.28,4-1.09-1.37-1.56-2-2.6-3.48C90.63,69.53,91.7,69.4,93.53,69.23Z" style="fill:#9e532f"/><path d="M93.81,77.16c.86-1.72,1.26-2.55,2-4.09.85,1.29,1.25,2,2,3.16Z" style="fill:#9e532f"/><path d="M100.36,68.72c-.55,1.3-.84,2-1.46,3.39-.69-1.24-1.07-1.88-1.86-3.18C98.54,68.81,99.2,68.77,100.36,68.72Z" style="fill:#9e532f"/><path d="M100.5,75.57l1.31-3.43c.52,1.17.76,1.74,1.18,2.85Z" style="fill:#9e532f"/><path d="M104.84,68.61c-.41,1.1-.62,1.68-1,2.88-.42-1.11-.65-1.68-1.16-2.86C103.6,68.61,104,68.61,104.84,68.61Z" style="fill:#9e532f"/><path d="M104.72,74.59c.42-1.23.63-1.81,1-2.93.32,1,.47,1.54.73,2.49Z" style="fill:#9e532f"/><path d="M108.3,68.67c-.41,1-.61,1.43-1,2.47-.3-1-.45-1.47-.8-2.51Z" style="fill:#9e532f"/><path d="M107.9,73.8c.44-1,.67-1.55,1.13-2.52.27.86.41,1.27.65,2Z" style="fill:#9e532f"/><path d="M112.08,68.66c-.56.79-.83,1.21-1.35,2.09-.31-.77-.48-1.18-.81-2.06A17.68,17.68,0,0,0,112.08,68.66Z" style="fill:#9e532f"/><path d="M15.34,76.63a5.08,5.08,0,0,0,.66-.81c.71,1.51,1.06,2.3,1.79,3.91C16.84,78.6,16.36,78,15.34,76.63Z" style="fill:#9e532f"/><path d="M18.84,75.84,18,77.53l-1.64-3.69A20.77,20.77,0,0,0,18.84,75.84Z" style="fill:#9e532f"/><path d="M19.82,81.92c.24-.68.39-1,.71-1.87.68,1.57,1,2.38,1.74,4.07A24.34,24.34,0,0,1,19.82,81.92Z" style="fill:#9e532f"/><path d="M23.78,78.51c-.48,1.08-.7,1.6-1.09,2.58-.69-1.61-1-2.39-1.68-3.91A24.27,24.27,0,0,0,23.78,78.51Z" style="fill:#9e532f"/><path d="M24.52,85.74c.38-1,.59-1.57,1.08-2.69.74,1.7,1.11,2.58,1.88,4.42A30.1,30.1,0,0,1,24.52,85.74Z" style="fill:#9e532f"/><path d="M30,80.47c-.72,1.31-1,2-1.65,3.19-.79-1.78-1.17-2.63-1.95-4.27A37.52,37.52,0,0,0,30,80.47Z" style="fill:#9e532f"/><path d="M30.4,88.89c.63-1.26,1-2,1.75-3.26.88,1.91,1.34,2.94,2.27,5C32.67,89.9,31.87,89.57,30.4,88.89Z" style="fill:#9e532f"/><path d="M38.36,82.73c-1,1.44-1.53,2.16-2.45,3.56-1-2-1.47-2.94-2.4-4.84Z" style="fill:#9e532f"/><path d="M38.45,92.21c1-1.41,1.54-2.14,2.67-3.58,1.14,2.19,1.65,3.3,2.78,5.56C41.65,93.49,40.5,93,38.45,92.21Z" style="fill:#9e532f"/><path d="M49,85l-3,4.31L43.07,84A50.7,50.7,0,0,0,49,85Z" style="fill:#9e532f"/><path d="M48.9,95.41,52,90.88l3.19,5.33A50,50,0,0,1,48.9,95.41Z" style="fill:#9e532f"/><path d="M60.86,85.56l-3.32,5L54.3,85.43C56.87,85.56,58.2,85.59,60.86,85.56Z" style="fill:#9e532f"/><path d="M60.83,96.4l3.35-5.17,3.34,4.89A65,65,0,0,1,60.83,96.4Z" style="fill:#9e532f"/><path d="M73.1,84.75,69.85,90l-3.34-4.67C69.17,85.18,70.5,85.06,73.1,84.75Z" style="fill:#9e532f"/><path d="M73.15,95.37l3.2-5.55,3.17,4.26C77.05,94.69,75.72,95,73.15,95.37Z" style="fill:#9e532f"/><path d="M84.43,82.77,81.59,88,78.49,84C81,83.55,82.17,83.3,84.43,82.77Z" style="fill:#9e532f"/><path d="M84.59,92.63c1.12-2.29,1.66-3.41,2.7-5.55L90,90.53A43.15,43.15,0,0,1,84.59,92.63Z" style="fill:#9e532f"/><path d="M93.89,80.05c-.86,1.81-1.32,2.75-2.3,4.78-1.06-1.31-1.54-2-2.59-3.32C91,80.89,92.08,80.56,93.89,80.05Z" style="fill:#9e532f"/><path d="M94.06,88.68l2-4.89c.8,1.26,1.18,1.87,1.84,3.08C96.58,87.53,95.83,87.88,94.06,88.68Z" style="fill:#9e532f"/><path d="M100.5,78.11l-1.45,4c-.63-1.19-1-1.8-1.72-3Z" style="fill:#9e532f"/><path d="M100.44,85.54c.54-1.73.81-2.54,1.31-4.09.44,1.13.62,1.68,1,2.74C101.91,84.7,101.47,85,100.44,85.54Z" style="fill:#9e532f"/><path d="M104.62,76.78c-.42,1.28-.63,2-1.07,3.37a23.61,23.61,0,0,0-1-2.71C103.52,77.16,103.9,77,104.62,76.78Z" style="fill:#9e532f"/><path d="M104.2,83.17c.42-1.47.64-2.17,1-3.49.22,1,.3,1.43.44,2.31C105.12,82.42,104.84,82.69,104.2,83.17Z" style="fill:#9e532f"/><path d="M107.69,75.63c-.45,1.11-.67,1.69-1.1,2.94-.18-.87-.27-1.33-.51-2.29Z" style="fill:#9e532f"/><path d="M106.88,81c.47-1.26.71-1.86,1.21-3,.15.74.21,1.1.33,1.73C107.75,80.25,107.45,80.47,106.88,81Z" style="fill:#9e532f"/><path d="M111.14,74.27c-.63,1-.92,1.46-1.5,2.52-.18-.63-.28-1-.5-1.73Z" style="fill:#9e532f"/><path d="M18,83.4a1.62,1.62,0,0,1,.12-.43c.85,1.76,1.28,2.67,2.14,4.54C19.38,86,19,85.21,18,83.4Z" style="fill:#9e532f"/><path d="M20.29,84.12c-.2.64-.27,1-.38,1.42-.79-1.77-1.19-2.63-2-4.3C18.9,82.5,19.36,83.07,20.29,84.12Z" style="fill:#9e532f"/><path d="M22.05,90.57A9.52,9.52,0,0,1,22.28,89c.76,1.83,1.14,2.78,1.95,4.73A29.51,29.51,0,0,1,22.05,90.57Z" style="fill:#9e532f"/><path d="M24.84,88.37c-.34,1-.48,1.48-.71,2.36C23.38,88.86,23,88,22.29,86.21A23.86,23.86,0,0,0,24.84,88.37Z" style="fill:#9e532f"/><path d="M26.14,96.12a21.06,21.06,0,0,1,.66-2.48c.76,2,1.14,3,1.95,5.12A28.28,28.28,0,0,1,26.14,96.12Z" style="fill:#9e532f"/><path d="M30.59,91.93c-.6,1.26-.88,1.86-1.35,3-.79-2.06-1.18-3-1.95-4.9C28.51,90.81,29.15,91.18,30.59,91.93Z" style="fill:#9e532f"/><path d="M31.33,100.94a34.34,34.34,0,0,1,1.44-3.15c.86,2.2,1.31,3.34,2.2,5.73A43.12,43.12,0,0,1,31.33,100.94Z" style="fill:#9e532f"/><path d="M38.54,95.63c-1,1.41-1.44,2.11-2.27,3.48-1-2.31-1.42-3.42-2.33-5.53C35.6,94.35,36.48,94.76,38.54,95.63Z" style="fill:#9e532f"/><path d="M38.68,105.83c.91-1.4,1.4-2.12,2.48-3.54,1.09,2.49,1.61,3.78,2.71,6.39A50.18,50.18,0,0,1,38.68,105.83Z" style="fill:#9e532f"/><path d="M48.88,99.2l-3,4.33c-1.16-2.44-1.73-3.64-2.82-6A33.61,33.61,0,0,0,48.88,99.2Z" style="fill:#9e532f"/><path d="M48.82,110.5c1.23-1.83,1.86-2.78,3.14-4.71l3.16,6A36.66,36.66,0,0,1,48.82,110.5Z" style="fill:#9e532f"/><path d="M60.82,100.35l-3.36,5.28L54.19,100A54.4,54.4,0,0,0,60.82,100.35Z" style="fill:#9e532f"/><path d="M60.73,112.15l3.4-5.69,3.32,5.37A48.63,48.63,0,0,1,60.73,112.15Z" style="fill:#9e532f"/><path d="M73.16,99.26l-3.32,5.87-3.33-5A62,62,0,0,0,73.16,99.26Z" style="fill:#9e532f"/><path d="M73.12,111l3.28-6.27c1.28,1.85,1.95,2.77,3.15,4.59A47.87,47.87,0,0,1,73.12,111Z" style="fill:#9e532f"/><path d="M84.61,96.27c-1.13,2.38-1.71,3.61-2.93,6.1-1.21-1.68-1.83-2.54-3.09-4.27A52.84,52.84,0,0,0,84.61,96.27Z" style="fill:#9e532f"/><path d="M84.64,107.32c1.16-2.67,1.73-4,2.79-6.51,1.09,1.5,1.62,2.23,2.62,3.68A36.61,36.61,0,0,1,84.64,107.32Z" style="fill:#9e532f"/><path d="M94.09,91.89l-2.31,5.88c-1-1.34-1.5-2-2.55-3.39C91.28,93.37,92.35,92.8,94.09,91.89Z" style="fill:#9e532f"/><path d="M94.08,100.74l2-6a33.08,33.08,0,0,1,1.64,3.12A45.56,45.56,0,0,1,94.08,100.74Z" style="fill:#9e532f"/><path d="M100.36,88.29l-1.45,4.85a30.61,30.61,0,0,0-1.52-3C98.77,89.33,99.35,89,100.36,88.29Z" style="fill:#9e532f"/><path d="M100,95.7c.54-2.12.8-3.12,1.3-5a25.07,25.07,0,0,1,.66,2.72A20.31,20.31,0,0,1,100,95.7Z" style="fill:#9e532f"/><path d="M104,85.5c-.42,1.55-.64,2.36-1.08,4.09a26.26,26.26,0,0,0-.65-2.65A21.64,21.64,0,0,0,104,85.5Z" style="fill:#9e532f"/><path d="M103.23,91.61c.43-1.8.63-2.64,1-4.25a20.07,20.07,0,0,1,.11,2.19C104,90.37,103.74,90.77,103.23,91.61Z" style="fill:#9e532f"/><path d="M106.52,82.93c-.47,1.33-.69,2-1.14,3.51a14.74,14.74,0,0,0-.19-2.11C105.73,83.78,106,83.51,106.52,82.93Z" style="fill:#9e532f"/><path d="M105.3,88.73c.48-1.54.72-2.28,1.24-3.67V86.5C106,87.43,105.75,87.87,105.3,88.73Z" style="fill:#9e532f"/><path d="M109.52,80c-.68,1.16-1,1.78-1.62,3.07-.05-.49-.08-.77-.15-1.4C108.37,81,108.7,80.71,109.52,80Z" style="fill:#9e532f"/><g style="mask:url(#mask)"><path d="M63.38,17.65c-22.1,0-40,15.73-40,35.13v0a8.67,8.67,0,0,0,4.49,7.3,69.48,69.48,0,0,0,35.53,9.55,69.49,69.49,0,0,0,35.54-9.55,8.67,8.67,0,0,0,4.49-7.3v0C103.41,33.38,85.49,17.65,63.38,17.65Z" style="fill:url(#linear-gradient)"/></g><path d="M112.43,62.5a49.58,49.58,0,0,1-.44,6.61q-.06.52-.15,1a49.28,49.28,0,0,1-7.46,19.52l-.65,1a50.25,50.25,0,0,1-17,15.47h0c-.48.27-1,.53-1.46.79a49.71,49.71,0,0,1-22.66,5.43c-.69,0-1.36,0-2,0a46.08,46.08,0,0,1-5-.45h0A49.54,49.54,0,0,1,30.3,100.45c-.53-.44-1-.89-1.55-1.37a49.11,49.11,0,0,1-5.89-6.5c-.27-.35-.53-.7-.77-1.06a49.22,49.22,0,0,1-6.33-11.93,48,48,0,0,0,10,2.51h0a44.1,44.1,0,0,0,5,.46c.68,0,1.35,0,2,0A49.67,49.67,0,0,0,55.5,77.18L57,76.39h0A50.25,50.25,0,0,0,74,60.92c.22-.32.44-.65.65-1A49.37,49.37,0,0,0,82.1,40.42c.06-.35.11-.69.15-1a50,50,0,0,0-2.57-23.71A49.86,49.86,0,0,1,112.43,62.5Z" style="fill:#878787;opacity:0.2;mix-blend-mode:multiply"/><path d="M112.43,62.5a49.58,49.58,0,0,1-.44,6.61q-.06.52-.15,1a49.28,49.28,0,0,1-7.46,19.52l-.65,1a50.25,50.25,0,0,1-17,15.47h0c-.48.27-1,.53-1.46.79a49.71,49.71,0,0,1-22.66,5.43c-.69,0-1.36,0-2,0a46.08,46.08,0,0,1-5-.45h0A49.54,49.54,0,0,1,30.3,100.45c-.53-.44-1-.89-1.55-1.37a48.71,48.71,0,0,1-5.87-6.47,49.53,49.53,0,0,0,23,9.62h0a43.92,43.92,0,0,0,5,.46c.68,0,1.36,0,2,0a49.83,49.83,0,0,0,22.66-5.42l1.47-.79h0A50.25,50.25,0,0,0,94.12,81l.65-1a49.28,49.28,0,0,0,7.46-19.52q.09-.52.15-1a49.8,49.8,0,0,0-9.69-36.71A49.73,49.73,0,0,1,112.43,62.5Z" style="fill:#878787;opacity:0.2;mix-blend-mode:multiply"/></g></g></g></svg>
