<svg class="S" xmlns="http://www.w3.org/2000/svg" xmlns:xlink="http://www.w3.org/1999/xlink" viewBox="0 0 126 126"><defs><filter id="luminosity-noclip" x="23.15" y="-8401" width="80.05" height="32766" filterUnits="userSpaceOnUse" color-interpolation-filters="sRGB"><feFlood flood-color="#fff" result="bg"/><feBlend in="SourceGraphic" in2="bg"/></filter><mask id="mask" x="23.15" y="-8401" width="80.05" height="32766" maskUnits="userSpaceOnUse"><g style="filter:url(#luminosity-noclip)"/></mask><linearGradient id="linear-gradient" x1="63.17" y1="-4.04" x2="63.17" y2="76.86" gradientUnits="userSpaceOnUse"><stop offset="0" stop-color="#fff" stop-opacity="0.4"/><stop offset="0.01" stop-color="#fff" stop-opacity="0.39"/><stop offset="0.32" stop-color="#fff" stop-opacity="0.22"/><stop offset="0.6" stop-color="#fff" stop-opacity="0.1"/><stop offset="0.84" stop-color="#fff" stop-opacity="0.03"/><stop offset="1" stop-color="#fff" stop-opacity="0"/></linearGradient></defs><g style="isolation:isolate"><g id="design"><circle cx="63" cy="63" r="50" style="fill:#e56110"/><g style="mask:url(#mask)"><path d="M63.17,19.65c-22.1,0-40,15.73-40,35.13v0a8.65,8.65,0,0,0,4.49,7.3,69.48,69.48,0,0,0,35.53,9.55A69.42,69.42,0,0,0,98.7,62.13a8.66,8.66,0,0,0,4.5-7.3v0C103.2,35.38,85.28,19.65,63.17,19.65Z" style="fill:url(#linear-gradient)"/></g><path d="M112.22,62.84a48.24,48.24,0,0,1-.44,6.52c0,.34-.08.69-.14,1a48.65,48.65,0,0,1-7.36,19.25c-.21.32-.42.64-.64,1a49.53,49.53,0,0,1-16.76,15.25h0c-.48.27-1,.52-1.44.78A49.15,49.15,0,0,1,63.08,112c-.68,0-1.34,0-2,0a43.08,43.08,0,0,1-5-.45h0a48.91,48.91,0,0,1-24.83-11.22c-.52-.43-1-.88-1.52-1.36a47,47,0,0,1-5.81-6.4c-.26-.35-.52-.69-.77-1a48.84,48.84,0,0,1-6.23-11.76,47.44,47.44,0,0,0,9.84,2.47h0a42.71,42.71,0,0,0,5,.46c.67,0,1.34,0,2,0a49,49,0,0,0,22.33-5.36c.49-.25,1-.51,1.45-.78h0A49.52,49.52,0,0,0,74.32,61.28l.64-1a48.59,48.59,0,0,0,7.35-19.24c.06-.35.11-.69.15-1a48.46,48.46,0,0,0,.44-6.52,49.28,49.28,0,0,0-3-16.86A49.16,49.16,0,0,1,112.22,62.84Z" style="fill:#878787;opacity:0.2;mix-blend-mode:multiply"/><path d="M112.22,62.84a48.24,48.24,0,0,1-.44,6.52c0,.34-.08.69-.14,1a48.65,48.65,0,0,1-7.36,19.25c-.21.32-.42.64-.64,1a49.53,49.53,0,0,1-16.76,15.25h0c-.48.27-1,.52-1.44.78A49.15,49.15,0,0,1,63.08,112c-.68,0-1.34,0-2,0a43.08,43.08,0,0,1-5-.45h0a48.91,48.91,0,0,1-24.83-11.22c-.52-.43-1-.88-1.52-1.36a47.38,47.38,0,0,1-5.79-6.38A48.64,48.64,0,0,0,46.6,102h0a45,45,0,0,0,5,.45c.67,0,1.34.05,2,.05A49.18,49.18,0,0,0,76,97.16l1.44-.78h0A49.53,49.53,0,0,0,94.16,81.12c.22-.31.44-.64.64-1a48.4,48.4,0,0,0,7.36-19.24c.06-.35.11-.69.15-1a48.36,48.36,0,0,0,.43-6.52,48.84,48.84,0,0,0-10-29.68A49,49,0,0,1,112.22,62.84Z" style="fill:#878787;opacity:0.2;mix-blend-mode:multiply"/><path d="M18,42.72c-.78,1.69-1.68,3.32-2.33,5.07,0-.17.1-.34.16-.5a49.47,49.47,0,0,1,3-7.14q.87-1.66,1.86-3.27c-.11.21-.11.21-2.71,5.84"/><path d="M35.11,42.72c-1.72,4.68-7.33,6.85-8.82,3.41-1.37-3.14,2.06-9,6.31-9.28,3.15.2,3.37,3.55,2.51,5.87"/><path d="M98.93,42.72c1.14,4.06-1.74,6.41-5.42,4.4-4.77-2.6-5.36-9.24-1.85-10.17a4.59,4.59,0,0,1,.83-.1c3.36.19,5.79,3.55,6.44,5.87"/><path d="M18.51,84.46c2,4.4,2,4.4,2.2,4.71-.67-1.08-1.3-2.19-1.89-3.31a50,50,0,0,1-3-7.14l-.15-.44c.8,2.13,1.91,4.11,2.86,6.18"/><path d="M35.45,84.46c.72,3.61-1.85,6.18-5.47,3.86-4.26-2.72-5.45-9-1.91-10a5.29,5.29,0,0,1,.89-.12c3.28.21,5.92,3.39,6.49,6.23"/><path d="M98.5,84.46c-1.93,4.28-7.26,6.6-8.82,2.86C88.28,84,91.44,78.51,96,78.23c3.55.23,3.59,3.78,2.48,6.23"/><path d="M20,63.7c-.19,4.18-2.11,6.85-3.74,5.19-2.31-2.34-2.11-11.83,1-12.2,1.9.23,2.89,3.74,2.74,7"/><path d="M34.25,26c-3.26,3.18-6,4.48-6,3.45C28.12,27.75,34.6,22.2,37,22c1.25.17-2.7,4-2.74,4.07"/><path d="M35.06,100.83c.52.54,3,3.26,1.95,3.27-2.36,0-9.88-6.73-8.65-7.78a.63.63,0,0,1,.31-.1c1.53.16,4.39,2.5,6.39,4.61"/><path d="M79.25,100.83c-2.37,3.44-7.87,4.68-8.53,1.09-.45-2.43,2.21-5.52,6.18-5.7,3.35.16,3.83,2.47,2.35,4.61"/><path d="M54.34,100.83c.58,3-2.48,4.52-6.29,2-3.54-2.34-4-5.87-.93-6.51a7.5,7.5,0,0,1,.94-.1c3.4.16,5.86,2.47,6.28,4.61"/><path d="M69.08,42.72c-.32,5-8.42,7-12.2,3-3.05-3.22-.59-8.63,5.47-8.87,4.88.19,6.87,3.55,6.73,5.87"/><path d="M69,84.46c-1,5.22-9.12,6.54-12.45,2-2.27-3.07-.6-8,5.72-8.24,5.4.22,7.19,3.78,6.73,6.23"/><path d="M49.64,63.7c-.59,5.54-7.92,7.7-11.54,3.4a6.38,6.38,0,0,1,5-10.41c5,.24,6.87,4.25,6.57,7"/><path d="M54.08,26c-1.52,3.64-7.86,5.21-8.92,2.21-.86-2.42,3-6.12,6.52-6.28,2.78.13,3.08,2.46,2.4,4.07"/><path d="M88,63.7c-.57,5.53-7.85,7.66-11.63,3.4-3.32-3.76-1.1-10.11,5.14-10.41,5.23.25,6.76,4.43,6.49,7"/><path d="M79.73,26c1.37,3-1.62,4.53-4.86,3.45-4.32-1.45-5.45-6-2.67-7.25A3.27,3.27,0,0,1,73.54,22,7.82,7.82,0,0,1,79.73,26"/><path d="M110.42,47.82a107.69,107.69,0,0,1-5.08-11,49.54,49.54,0,0,1,5.08,11"/><path d="M105.32,89.2a102.84,102.84,0,0,1,5.08-11,49.71,49.71,0,0,1-5.08,11"/><path d="M111,63.7c-.2,4.58-2.3,7.06-4.15,4.93-2.47-2.84-2-11.57,1.38-11.94,2.23.25,2.88,4.43,2.77,7"/><path d="M95.07,26c2.13,2,3,3.78,1.88,3.8s-3.22-1.51-4.86-3C90,24.85,88,22.45,88.47,22a.48.48,0,0,1,.24-.07c1.28.12,4.19,2,6.36,4.07"/><path d="M94.16,100.83c-2.64,2.28-5.78,3.91-5.79,3,0-1.12,5.74-7.34,8.55-7.61,1.34.16-.38,2.56-2.76,4.61"/><path d="M64.26,112.42c4.85,0,4.85,0,5.2-.07-1.26.17-2.52.29-3.79.36a50.23,50.23,0,0,1-7.75-.18l-.46,0c2.27.14,4.53,0,6.8-.06"/><path d="M68.69,13.57a108.16,108.16,0,0,1-12.09.12,49.37,49.37,0,0,1,12.09-.12"/></g></g></svg>
