<svg class="S" id="design" xmlns="http://www.w3.org/2000/svg" xmlns:xlink="http://www.w3.org/1999/xlink" viewBox="0 0 126 126"><defs><linearGradient id="linear-gradient" x1="107.37" y1="87.05" x2="20.17" y2="39.3" gradientTransform="matrix(1, 0, 0, -1, 0, 128)" gradientUnits="userSpaceOnUse"><stop offset="0.05"/><stop offset="0.4" stop-color="#333"/><stop offset="1"/></linearGradient></defs><g id="Layer_4" data-name="Layer 4"><path d="M24.18,64.44a9.71,9.71,0,0,1-2.66-1A10.34,10.34,0,0,1,19.7,62a11.87,11.87,0,0,1-1.26-1.38l-1.05-1.54-.41-.8c-.15-.32-.28-.64-.4-1s-.16-.55-.23-.83A14.88,14.88,0,0,1,16,52a13.5,13.5,0,0,1,.16-1.66c.08-.55.19-1.25.3-1.86s.29-1.4.44-2.09c.25-1.07.52-2.14.8-3.2a49.2,49.2,0,0,1,75.37-19,20.41,20.41,0,0,0-2.31-.82,17.63,17.63,0,0,0-2.69-.57c-.43-.06-.87-.1-1.32-.14s-1-.06-1.4-.06h-1a14.28,14.28,0,0,0-1.84.16c-.39.05-.79.11-1.19.19l-.67.15-.53.12-1.3.38a27.39,27.39,0,0,0-9.41,5.68c-.68.6-1.36,1.21-2,1.85-.9.88-1.77,1.79-2.63,2.71-1,1.08-1.94,2.18-2.91,3.28-1.36,1.58-2.7,3.19-4,4.8-1.94,2.34-3.94,4.67-6,6.93C50,51,48.05,53,46.05,54.85L44,56.71l-2.75,2.12c-.89.65-1.8,1.26-2.74,1.84-.47.3-1,.59-1.46.87l-.67.36c-.67.34-1.35.68-2,1l-.86.36-.84.32c-.48.18-1,.34-1.46.48A14.13,14.13,0,0,1,24.18,64.44Z" style="fill:#d9dbe0"/><path d="M50.34,103.3a98.79,98.79,0,0,1-10.85-1.15q-2.55-.42-5.08-1c-1.22-.26-2.44-.54-3.65-.84A49.22,49.22,0,0,1,16.32,46.67c-.07.27-.13.55-.18.82-.18.83-.34,1.66-.47,2.49-.06.4-.11.8-.16,1.2A17.14,17.14,0,0,0,15.6,56a11.12,11.12,0,0,0,.81,2.63,5,5,0,0,0,.33.65l.4.68a12.93,12.93,0,0,0,2.45,2.91,10.36,10.36,0,0,0,2.24,1.45,10,10,0,0,0,1.31.54,10.81,10.81,0,0,0,1.46.38c.41.08.81.13,1.22.17a14.55,14.55,0,0,0,2.47,0,5,5,0,0,0,1-.13l1.09-.2c.37-.08.75-.18,1.11-.29l.68-.2c.69-.21,1.36-.46,2-.73.49-.2,1-.41,1.46-.65l.63-.3c.44-.22.87-.44,1.31-.69.65-.36,1.29-.76,1.94-1.17.9-.57,1.79-1.17,2.65-1.81l1.06-.81c.65-.5,1.28-1,1.94-1.58s1.45-1.29,2.16-1.94l1.37-1.31c.73-.71,1.44-1.44,2.15-2.18l1.84-1.94c2.11-2.29,4.11-4.65,6.13-7,1.66-1.94,3.31-3.88,5-5.82.78-.89,1.57-1.76,2.38-2.61s1.42-1.47,2.16-2.16l.65-.63c.48-.45,1-.89,1.48-1.31a25.35,25.35,0,0,1,9.2-5.28,19.83,19.83,0,0,1,2.73-.59,19.37,19.37,0,0,1,3.65-.17l1.32.11.45.06.68.1a17.91,17.91,0,0,1,2.16.53,14.67,14.67,0,0,1,1.61.58c.53.22,1,.42,1.43.65s.66.35,1,.53l.9.55c.3.18.48.31.71.47.44.31.87.64,1.3,1l.56.46a49.25,49.25,0,0,1,12.51,45.19,26.12,26.12,0,0,1-3.11,6.23,25,25,0,0,1-1.68,2.16l-.83.89-2.61,2.5-1.94,1.71c-1.63,1.37-3.33,2.66-5.08,3.88-.63.42-1.26.85-1.94,1.26s-1.58,1-2.38,1.44c-2,1.13-4,2.16-6,3.09l-2.23,1c-1,.41-2.1.81-3.16,1.18-2,.71-4.09,1.32-6.17,1.83A80.12,80.12,0,0,1,50.34,103.3Z" style="fill:#d9dbe0"/><path d="M31.59,101.05l2.2.52c1.29.3,2.59.57,3.88.82.87.17,1.75.32,2.63.46,2.9.48,5.81.82,8.72,1a85.61,85.61,0,0,0,14-.09c1.52-.14,3-.32,4.55-.56s2.91-.48,4.4-.8a72.28,72.28,0,0,0,7.12-1.86c1-.32,2-.67,3-1L84,98.79c.82-.34,1.62-.68,2.42-1.05a66,66,0,0,0,9.79-5.54c1.55-1.06,3.07-2.19,4.52-3.38,1-.81,2-1.66,2.91-2.52.52-.48,1-1,1.53-1.45s1-1,1.5-1.52a23.12,23.12,0,0,0,1.7-2.14l.29-.4a49.19,49.19,0,0,1-77,20.28Z" style="fill:#d9dbe0"/><path d="M31.53,102.32l-1.3-1.94-1.66-1.94c.7-.7-2.29-1.41-1.3-1.41.31,0,15,2.17,18,2.52,2.42.27,4.91.47,7.36.59,1.6.08,3.23.12,4.85.12,1.13,0,2.25,0,3.38-.06,1.83-.07,3.73-.2,5.65-.39,1.55-.16,3.1-.37,4.59-.63a48.61,48.61,0,0,0,18.67-6.84c.83-.55,1.68-1.17,2.51-1.83A33.37,33.37,0,0,0,95.1,88c.3-.31.61-.63,1-1a29,29,0,0,0,1.31-1.56c.61-.76,1.18-1.55,1.7-2.34l1.08-1.76.82-1.6a23.61,23.61,0,0,0,1-2.4c.22-.62.42-1.27.6-1.94s.36-1.46.51-2.18a39.83,39.83,0,0,0,.58-4.23c.1-1.09.15-2.27.16-3.49a52.39,52.39,0,0,0-.4-6.5c-.07-.5-.14-1-.23-1.56a4.36,4.36,0,0,0-.11-.71v-.23c-.18-1-.39-2-.58-2.91s-.37-1.53-.65-2.53c-.16-.54-.32-1.09-.45-1.5s-.18-.59-.28-.88c-.18-.5-.33-1-.51-1.41A43.83,43.83,0,0,0,98.27,42c-.27-.51-.5-.91-.7-1.27s-.45-.77-.68-1.14c-.39-.62-.81-1.26-1.27-1.94a22.75,22.75,0,0,0-8.2-7.36c-.43-.21-.89-.41-1.34-.59l-.68-.24-.87-.25a8.74,8.74,0,0,0-2-.3h-.33A6.4,6.4,0,0,0,81,29l-.61.1c-.26.06-.52.13-.85.23s-.56.2-1,.36L78,30l-.1,0-.24.13c-.31.16-.59.32-.85.48A25.86,25.86,0,0,0,73,33.55c-.52.49-1.06,1-1.62,1.57-.83.84-1.72,1.79-2.78,3-.49.55-.92,1-1.31,1.51l-1.07,1.26c-.85,1-1.72,2-2.55,3.07l-.56.68c-1.66,2-3.29,4-5,5.95a100.42,100.42,0,0,1-8.41,8.73c-1.33,1.2-2.57,2.24-3.81,3.18-1,.76-2.06,1.5-3.13,2.19a42.91,42.91,0,0,1-5.22,2.91c-.66.3-1.33.58-2.06.87s-1.23.46-1.94.68a25.18,25.18,0,0,1-2.72.69,21.1,21.1,0,0,1-3.88.39,16.44,16.44,0,0,1-5.47-.91,14.61,14.61,0,0,1-1.94-.85,15.11,15.11,0,0,1-3-2.16,10.32,10.32,0,0,1-2.79-5.88c0-.7-.59-7.46-.59-7.46,1.71.7,7.76,9.93,7.82,10.06C22.76,67.68,40,60.65,40,60.65s9.76-9.19,11.85-11.71c1.64-1.94,7.56-9.87,8.73-11.37S81.8,23.16,83.51,21.82c1.29-1,15.29,7,20.24,14.92,5.09,8.15,7.22,17.92,7.22,27.58C111,77,97.21,95,96.53,95.45,95,96.58,69.49,105,68,105.15,67.5,105.2,32.87,103.49,31.53,102.32Z" style="fill:#fff"/><path d="M54.45,106.51c-3.34-.29-6.67-.74-10-1.32-1.89-.33-3.76-.71-5.63-1.13-1.18-.27-2.35-.55-3.52-.85l-2-.52a49.47,49.47,0,0,1-4-3.25,1.38,1.38,0,0,1,1.32-.37l.72.19.57.12,1.15.24c.82.17,1.65.33,2.47.48q4.69.87,9.44,1.41,3.73.42,7.52.6,4.19.19,8.39.06c1.94-.07,3.87-.2,5.81-.41,1.6-.17,3.18-.38,4.75-.65A50.85,50.85,0,0,0,91.12,93.8c.92-.61,1.82-1.26,2.68-1.94a36.17,36.17,0,0,0,3-2.69c.35-.35.67-.7,1-1.06s.49-.54.73-.82.48-.57.71-.87c.65-.82,1.26-1.66,1.84-2.55L102.17,82l.88-1.72q.6-1.31,1.08-2.67c.24-.7.45-1.43.65-2.15s.37-1.54.53-2.31a42.48,42.48,0,0,0,.61-4.49c.11-1.22.15-2.45.15-3.67a53.12,53.12,0,0,0-.41-6.79c-.07-.54-.15-1.09-.23-1.63-.05-.33-.11-.65-.17-1-.16-1-.38-2-.61-3s-.44-1.77-.69-2.65c-.14-.53-.31-1.05-.47-1.58-.1-.31-.21-.62-.31-1s-.33-1-.52-1.47a46.81,46.81,0,0,0-2.39-5.48l-.74-1.35c-.25-.44-.48-.8-.72-1.2-.43-.69-.88-1.37-1.36-2a25.15,25.15,0,0,0-9.07-8.1,17.08,17.08,0,0,0-1.58-.68L86,26.8l-1-.28a12.67,12.67,0,0,0-2.59-.39,11.42,11.42,0,0,0-1.94.11l-.75.14a9.9,9.9,0,0,0-1.07.28,11.13,11.13,0,0,0-1.16.43l-.76.35-.37.2c-.32.17-.65.37-1,.56a28.66,28.66,0,0,0-4.11,3.17c-.58.54-1.14,1.08-1.69,1.64-1,1-1.94,2-2.91,3.1-.46.51-.91,1-1.35,1.55l-1.08,1.26c-1.06,1.25-2.09,2.51-3.13,3.77-1.63,1.94-3.27,4-5,5.9a99.68,99.68,0,0,1-8.2,8.5c-1.19,1.07-2.4,2.1-3.66,3.06-1,.74-1.94,1.43-3,2.08A38.84,38.84,0,0,1,36.46,65c-.64.29-1.28.56-1.94.81s-1.19.44-1.8.63c-.82.25-1.64.45-2.48.62a15.43,15.43,0,0,1-8.06-.38,12.43,12.43,0,0,1-1.58-.7,12,12,0,0,1-2.55-1.81,15.51,15.51,0,0,1-3.45-4.82,11.81,11.81,0,0,1-.83-2.91,5.33,5.33,0,0,0-.07-.54,48.59,48.59,0,0,1,4.05-13.57,1.37,1.37,0,0,1,.8,1.62c-.21.92-.43,1.85-.63,2.77-.17.74-.32,1.49-.45,2.24-.08.48-.16,1-.22,1.45a18.91,18.91,0,0,0-.19,3.1c0,.42,0,.85.09,1.28A10.06,10.06,0,0,0,17.37,56a9.55,9.55,0,0,0,.38,1.18l.65,1.21.69,1a11.86,11.86,0,0,0,.8.93c.19.2.41.4.62.59l.48.39a8.56,8.56,0,0,0,1.39.84,8.16,8.16,0,0,0,1.28.47,9.8,9.8,0,0,0,3.81.24,4.79,4.79,0,0,0,1-.16,14.89,14.89,0,0,0,1.5-.37c.52-.14.8-.25,1.2-.39.58-.22,1.15-.45,1.72-.7l.75-.36,1-.53,1-.57c.47-.27,1-.56,1.39-.86q1.3-.85,2.55-1.8l2.51-2,1.11-1c.64-.59,1.25-1.18,1.82-1.77,2-2.07,3.94-4.26,5.82-6.5,1.61-1.94,3.17-4,4.72-6,1.37-1.76,2.73-3.54,4.12-5.29,1-1.3,2.08-2.59,3.17-3.88.59-.68,1.19-1.36,1.8-2a43.8,43.8,0,0,1,5-4.65,25.41,25.41,0,0,1,3.58-2.4c.5-.27,1-.53,1.52-.77l.76-.33a19.22,19.22,0,0,1,2.06-.7,17.19,17.19,0,0,1,2.93-.55A19.06,19.06,0,0,1,82.72,19a13.62,13.62,0,0,1,1.8.13h.3A49.21,49.21,0,0,1,99.08,95.74c-.63.51-1.28,1-1.94,1.49a42.7,42.7,0,0,1-4.58,2.91,45.31,45.31,0,0,1-4.15,2,53.94,53.94,0,0,1-7.16,2.45c-.59.16-1.19.31-1.79.45s-1.25.28-1.88.4c-1.13.24-2.26.43-3.4.6-1.37.2-2.76.36-4.15.49l-1.5.13c-1,0-1.94.11-2.84.14-1.41,0-2.81.06-4.22,0C59.12,106.84,56.75,106.71,54.45,106.51Z" style="fill:#b3b3b3"/><path d="M57.11,105.54a106.27,106.27,0,0,1-13.76-1.74c-1.42-.28-2.86-.58-4.28-.91s-2.91-.68-4.28-1.06l-1.94-.54-2.21-.64a.24.24,0,0,1-.14-.3.24.24,0,0,1,.26-.14c2.07.61,4.15,1.14,6.25,1.65,1.13.27,2.28.52,3.42.75,1.43.29,2.86.57,4.3.81,1,.16,1.94.32,3,.46,2.24.32,4.49.57,6.79.75,1.79.14,3.58.22,5.37.26h3.82l2.23-.09,1.82-.11c1.06-.08,2.11-.18,3.17-.3A56.35,56.35,0,0,0,87.51,100c1.19-.54,2.35-1.12,3.48-1.76.57-.31,1.12-.65,1.66-1,.79-.5,1.56-1,2.31-1.57a38.36,38.36,0,0,0,3-2.43c.46-.41.91-.85,1.36-1.29.66-.67,1.3-1.35,1.94-2.07l1.07-1.33c.52-.66,1-1.35,1.48-2.05l.57-.88.6-1,.48-.85.53-1.05a30.84,30.84,0,0,0,1.22-2.91c.28-.77.52-1.55.74-2.34a41.08,41.08,0,0,0,1-4.37c.15-1,.28-1.94.38-3,.06-.73.11-1.45.15-2.17v-2.3c0-.9,0-1.81-.06-2.71s-.1-1.85-.19-2.77c-.13-1.36-.3-2.71-.52-4.05a59.44,59.44,0,0,0-2.34-9.3,50.81,50.81,0,0,0-2.91-6.79c-.47-.89-1-1.76-1.48-2.62-.25-.42-.52-.84-.79-1.26s-.38-.56-.57-.84l-.28-.38-.41-.56c-.31-.43-.65-.85-1-1.26l-.42-.5-.61-.7c-.46-.51-.93-1-1.43-1.48a25,25,0,0,0-5.29-4c-.63-.35-1.27-.66-1.94-1l-.6-.24-1.19-.42-1.17-.33A15.5,15.5,0,0,0,82.93,24a13.57,13.57,0,0,0-2.29.16,5.08,5.08,0,0,0-1,.17l-.67.17-1,.29c-.43.15-.87.32-1.29.51a24.8,24.8,0,0,0-6.31,4.27c-.56.49-1.1,1-1.64,1.54l-1.1,1.13c-.53.54-1,1.09-1.54,1.65-.72.81-1.44,1.63-2.14,2.47-1.34,1.58-2.63,3.19-3.88,4.8s-2.71,3.37-4.08,5c-.86,1-1.74,2.08-2.62,3.11-.57.66-1.16,1.32-1.74,1.94-.43.48-.87,1-1.32,1.43-.59.62-1.17,1.24-1.78,1.85s-1.24,1.24-1.88,1.84L46,57c-.36.33-.73.66-1.1,1s-1,.85-1.5,1.26a35.82,35.82,0,0,1-5.34,3.54c-.65.34-1.32.66-2,1s-1.3.55-1.85.75-1.12.38-1.68.55-1,.26-1.41.37a20.82,20.82,0,0,1-2.47.4,14.08,14.08,0,0,1-1.58.09,12.54,12.54,0,0,1-1.49-.06c-.51-.06-.84-.16-1.22-.22A12,12,0,0,1,21,64.46,11.31,11.31,0,0,1,18.84,63a13.17,13.17,0,0,1-2.37-2.68,12,12,0,0,1-1-1.62,8.77,8.77,0,0,1-.63-2,14.2,14.2,0,0,1,.27-5.51c.33-1.54.78-3,1.25-4.52.33-1.06.65-2.13,1-3.19a.22.22,0,0,1,.43.11c-.14.53-.28,1-.43,1.57-.25.84-.5,1.67-.74,2.51s-.4,1.4-.58,2.1q-.16.65-.3,1.29a12.16,12.16,0,0,0,.11,6.79l.6,1.22,1,1.46a13,13,0,0,0,1.16,1.32,10.83,10.83,0,0,0,3.61,2.35A11.87,11.87,0,0,0,25.3,65a15.35,15.35,0,0,0,3.32,0,22.3,22.3,0,0,0,2.91-.56c.61-.17,1.23-.35,1.83-.57a30.55,30.55,0,0,0,4.38-1.94c.72-.38,1.42-.8,2.12-1.24A31,31,0,0,0,43,58.43l.76-.63,2.46-2.24.67-.64,1-1c1.2-1.21,2.36-2.48,3.48-3.76,2.12-2.41,4.13-4.85,6.13-7.4C59,40.87,60.42,39,62,37.15c1.1-1.35,2.21-2.67,3.37-4,.54-.61,1.1-1.23,1.67-1.82.31-.32.62-.64,1-1l.81-.79a36.34,36.34,0,0,1,2.91-2.51l1.27-1,.62-.42c.37-.24.75-.48,1.13-.69s.86-.48,1.32-.69a16.49,16.49,0,0,1,3.6-1.24,10.11,10.11,0,0,1,1.1-.19l.66-.08a14,14,0,0,1,1.94,0,16.56,16.56,0,0,1,3.83.62,21.84,21.84,0,0,1,5.23,2.26,28.41,28.41,0,0,1,6.9,5.89,41.41,41.41,0,0,1,6,9.48c.52,1.11,1,2.25,1.44,3.4a33.13,33.13,0,0,1,1.15,3.29c.34,1.1.59,1.94.84,3,.13.51.24,1,.36,1.51.18.79.35,1.59.5,2.39.17,1,.32,1.94.45,2.85s.24,2,.33,3a57,57,0,0,1,.17,6.79,45.77,45.77,0,0,1-1.45,9.88,31.73,31.73,0,0,1-3.34,8.16A36.77,36.77,0,0,1,100,92.64c-.86.86-1.76,1.67-2.7,2.45-.59.47-1.18,1-1.79,1.37-.78.57-1.58,1.11-2.4,1.61-.5.31-1,.6-1.51.9-.71.4-1.45.79-2.2,1.16s-1.71.8-2.59,1.17c-.51.22-1,.43-1.55.62-1,.36-1.94.69-2.91,1a60.15,60.15,0,0,1-10.79,2.25c-1.18.15-2.37.26-3.55.34s-2.56.16-3.83.18H62.36Q59.77,105.69,57.11,105.54Z" style="fill:#fcfcfc"/><path d="M61,107.28c-1.53,0-3.09,0-4.65-.12-2.39-.12-4.74-.3-7-.56-1.2-.14-2.41-.29-3.72-.48l-2-.31c-1-.15-1.94-.31-2.77-.47l-2.62-.51c-1-.19-5.42-1.23-6.27-1.45-3.67-2.14-4.85-6.34-4.62-6.28,2,.52,8.18,1.8,10.44,2.26l1.76.35h.12c1.31.25,2.66.49,4,.69,2.8.43,5.4.75,8,1,2.91.25,5.82.38,8.51.38h.07c1.41,0,2.72,0,4-.09,10.53-.47,19.4-2.91,26.49-7.08a37.06,37.06,0,0,0,3.47-2.35,33.84,33.84,0,0,0,7.62-8.08l1.19-1.94.84-1.56a34.31,34.31,0,0,0,3.12-11.94,51.61,51.61,0,0,0-.57-13.25c-.13-.76-.27-1.54-.44-2.28l-.16-.77c-.17-.74-.36-1.5-.54-2.15s-.32-1.17-.5-1.73-.28-.89-.43-1.32-.34-1-.52-1.49a46.23,46.23,0,0,0-2.5-5.62,38,38,0,0,0-3.48-5.47c-.39-.51-.77-1-1.13-1.41s-.53-.6-.8-.88-.6-.63-1-1S94,30.51,93.39,30a22.87,22.87,0,0,0-1.94-1.46c-.53-.35-1.06-.68-1.56-1S88.66,27,88,26.71l-1.43-.53-1.47-.39-.84-.16c-.5-.07-1-.11-1.51-.13h-.25a12.64,12.64,0,0,0-1.63.13,12,12,0,0,0-3.22,1c-.35.16-.7.33-1.06.52s-.86.49-1.42.85a12.39,12.39,0,0,0-1.33,1l-.84.67-1,.81c-.51.46-1,1-1.51,1.43l-1.06,1.07c-.5.53-1,1.07-1.45,1.58-.86,1-1.68,1.94-2.38,2.75-1.16,1.39-2.32,2.81-3.49,4.28l-.49.6C59.4,45,57.06,47.89,54.6,50.68c-1.46,1.67-2.91,3.26-4.42,4.74-.49.48-1,1-1.4,1.35l-1.13,1c-.73.66-1.69,1.51-2.71,2.32a45.72,45.72,0,0,1-5.3,3.65,35.23,35.23,0,0,1-5.36,2.58,24.48,24.48,0,0,1-2.91.9,19.2,19.2,0,0,1-4.53.58,14.88,14.88,0,0,1-3.39-.39,12.81,12.81,0,0,1-6.73-4.08,13.5,13.5,0,0,1-1-1.18,18,18,0,0,1-1.21-1.9c-.1-.19-.2-.38-.28-.56L14,59.06a13.2,13.2,0,0,1-.72-2.47c-.05-.33-.11-.68-.15-1.06A19.27,19.27,0,0,1,13.18,51a26.93,26.93,0,0,1,1.51-5.42c1.74-4,6-9.19,5.68-7.82-.23.9-1.68,2.33-2,14.94v1.47a9.46,9.46,0,0,0,.09,1,7.69,7.69,0,0,0,.6,2.09l.35.68.88,1.28a11.75,11.75,0,0,0,.9,1,8,8,0,0,0,1.2,1,8.18,8.18,0,0,0,1.32.67,8.5,8.5,0,0,0,3,.53,12.68,12.68,0,0,0,2-.18,17.65,17.65,0,0,0,1.94-.45c.32-.1.66-.2,1-.34l.72-.27c.74-.3,1.4-.6,2-.91s1.32-.68,1.94-1l1-.59c.44-.27.88-.57,1.34-.88s1.23-.86,1.83-1.31l1.8-1.47,2-1.79c.53-.52,1-1,1.36-1.32,1.28-1.27,2.59-2.67,3.88-4.15,2.17-2.47,4.22-5,5.92-7.15l1.29-1.62c1-1.26,2-2.56,3.07-3.88.91-1.13,2-2.46,3.14-3.75s2-2.24,2.85-3.11c.4-.41.88-.89,1.41-1.39,4-3.73,7.58-5.87,11.42-6.79a17.72,17.72,0,0,1,2.6-.38h1.26c.58,0,1.16,0,1.73.08a7,7,0,0,1,1.23.17c.4.07,1,.18,1.36.28l.88.23h.08l.84.27a22.35,22.35,0,0,1,2.27.89c.52.23,1.06.49,1.65.81s1.08.61,1.73,1c.44.28.85.56,1.33.91l1.3,1c.6.5,1.12,1,1.61,1.41s1.16,1.12,1.76,1.78,1.21,1.38,1.64,1.94l.51.64.67.91.42.6c.54.75,1,1.54,1.52,2.34s1,1.68,1.4,2.48c.3.56.57,1.11.78,1.54.29.6.57,1.2.82,1.78h0c.19.44.38.89.56,1.35.32.8.64,1.64,1,2.49a61.95,61.95,0,0,1,3.23,23.22c0,.86-.12,1.71-.22,2.54s-.18,1.46-.3,2.17a40.71,40.71,0,0,1-1,4.85,34.22,34.22,0,0,1-2.7,6.82A39.55,39.55,0,0,1,98.66,96a44.52,44.52,0,0,1-8.72,5.47c-1.59.75-3.2,1.43-4.85,2-.89.31-1.76.61-2.6.86s-1.56.45-2.35.66-1.44.36-2.27.54c-1.07.23-2.15.45-3.23.62-1.25.2-2.5.39-3.88.54-1.59.19-3.27.32-5,.41S62.56,107.28,61,107.28Z" style="fill:url(#linear-gradient)"/><path d="M112,53.83a59.18,59.18,0,0,0-2.43-9.28c-.3-.85-.63-1.68-1-2.49-.19-.47-.38-.91-.57-1.35h0c-.25-.59-.53-1.19-.82-1.78-.2-.42-.48-1-.78-1.54-.41-.8-.87-1.6-1.39-2.48s-1-1.59-1.53-2.34l-.41-.6c-.23-.32-.46-.63-.68-.91l-.51-.64c-.42-.53-1-1.22-1.64-1.94s-1.18-1.24-1.76-1.78a19.8,19.8,0,0,0-1.61-1.41,12.48,12.48,0,0,0-1.3-1c-.42-.26-.89-.63-1.33-.91-.64-.41-1.19-.74-1.73-1s-1.14-.59-1.65-.81c-.72-.32-1.46-.62-2.26-.9l-.85-.26h-.08l-.8-.21A49.18,49.18,0,0,0,20.36,38V37.8c.36-1.37-3.93,3.88-5.68,7.82A26.93,26.93,0,0,0,13.17,51a19.19,19.19,0,0,0-.07,4.48,6.76,6.76,0,0,0,.15,1.06,2.46,2.46,0,0,0,.11.45c.11,1.28.2,2.49.24,3.07,0,1-.09,1.94-.09,2.91a49,49,0,0,0,13.82,34.1h-.06c-.3,0-.23.07,0,.19a10.48,10.48,0,0,0,4.63,6.09c.56.14,2.65.64,4.31,1a49.17,49.17,0,0,0,64.53-10.18,39.3,39.3,0,0,0,7.87-10.11,34.42,34.42,0,0,0,2.73-6.9,39.87,39.87,0,0,0,1-4.85c.12-.71.21-1.42.3-2.17s.17-1.68.22-2.53A58.33,58.33,0,0,0,112,53.83Z" style="fill:none;stroke:#4d4d4d;stroke-miterlimit:10;stroke-width:0.969910055853098px"/></g></svg>
