<svg class="S" xmlns="http://www.w3.org/2000/svg" viewBox="0 0 126 126"><defs/><path fill="#024152" d="M8 8h110v110H8z"/><path fill="#fff" d="M92.5 52.2c-2.3-3.6-6.1-6.8-10.7-6.8-1.9 0-3.8.2-5.7.5l.8 1c3.1.4 4.7 3 6.1 5.4l-7 9.9c-2.2-3.3-4.4-6.6-6.6-10-2.8-4.4-6.6-6.8-10.8-6.8-1.9 0-3.8.2-5.6.5l.8 1c3.1.4 4.7 3 6.1 5.4L52 63.4c-2.1-1.5-4.8-1.8-7.3-1.8-2.6 0-5.2.3-7.8 1l.8 1c4.1 0 7.9 2.4 10.2 5.6l-1.1 1.6c-2.4 3.3-6.1 5.5-10.3 5.5-8.1 0-11.6-7.9-11.6-14.8 0-5.9 3.4-11.9 10.1-11.9 3.3 0 7.2 1.3 8.8 4.3 1.1-.3 3.3-.5 4.7-.5-2.6-5.3-8-8.5-14.1-8.5-10.4 0-18.4 7.8-18.4 18 0 10 7.6 18.3 18 18.3 7.1 0 12.2-3 16.1-8.7 2.5 4.2 5.9 8.4 11.3 8.4 6 0 8.7-4.1 11.8-8.4.6 1 1.3 1.9 1.9 2.9 2.1 3.1 5.5 5.5 9.4 5.5 6 0 8.7-4 11.8-8.4 2.5 3.7 5.1 8.1 10.2 8.1h3.6L92.5 52.2zM63.7 75.1c-3.8 0-6.4-7-8.9-9.4L62 55.5l9 13.6c-1.6 2.4-4.2 6-7.3 6zm23.1 0c-1.8 0-3.2-1.2-4.1-2.6l-4.6-7 7-9.9L94 69.2c-1.3 2.4-4 5.9-7.2 5.9z"/></svg>
