<svg class="S" xmlns="http://www.w3.org/2000/svg" xmlns:xlink="http://www.w3.org/1999/xlink" viewBox="0 0 126 126"><defs><radialGradient id="radial-gradient" cx="55.74" cy="-216.7" r="76" gradientTransform="matrix(1, 0, 0, -1, 0, -164)" gradientUnits="userSpaceOnUse"><stop offset="0.09" stop-color="#49565d"/><stop offset="0.32" stop-color="#2b3135"/><stop offset="0.46" stop-color="#1c1f21"/><stop offset="0.65" stop-color="#060000"/><stop offset="0.88" stop-color="#313d4f"/></radialGradient><radialGradient id="radial-gradient-2" cx="46.97" cy="-166.3" r="59.14" gradientTransform="matrix(0.99, 0.15, 0.15, -0.99, 31.19, -170.12)" gradientUnits="userSpaceOnUse"><stop offset="0" stop-color="#fff"/><stop offset="0.31" stop-color="#bdc2c5"/><stop offset="0.64" stop-color="#7f898f"/><stop offset="0.87" stop-color="#59666d"/><stop offset="1" stop-color="#4a5860"/></radialGradient><radialGradient id="radial-gradient-3" cx="51.03" cy="-212.7" r="70.34" gradientTransform="matrix(1, 0, 0, -1, 0, -164)" gradientUnits="userSpaceOnUse"><stop offset="0" stop-color="#fff"/><stop offset="0.36" stop-color="#d6d6e0"/><stop offset="0.45" stop-color="#c8c8d1"/><stop offset="0.62" stop-color="#a3a3ab"/><stop offset="0.66" stop-color="#9a9aa2"/></radialGradient><radialGradient id="radial-gradient-4" cx="52.07" cy="-214.2" r="73.38" xlink:href="#radial-gradient"/></defs><g id="Layer_2" data-name="Layer 2"><circle cx="63" cy="63" r="50" style="fill:url(#radial-gradient)"/><ellipse cx="56.73" cy="42.29" rx="22.57" ry="16.96" transform="translate(-5.64 8.87) rotate(-8.52)" style="fill:url(#radial-gradient-2)"/><path d="M66.68,90.65c-8.86,9.19-23.91,8.07-33.79-1.46s-10.86-23.86-2-33,24.06-8.92,34,.61S75.55,81.45,66.68,90.65Z" style="fill:url(#radial-gradient-3)"/><path d="M64.85,56.75c-7.87-7.59-19.1-9.29-27.83-5,4.24,5.62,12.89,8.73,22.24,7.34a29.82,29.82,0,0,0,6.23-1.65C65.27,57.19,65.07,57,64.85,56.75Z" style="fill:#fff"/><path d="M43.09,75.66a7.1,7.1,0,0,1-4.23,0,6.47,6.47,0,0,1-3.12-2.46,7.43,7.43,0,0,1-1.3-6,8.81,8.81,0,0,1,3.86-5.53,8.93,8.93,0,0,1,6.58-1.81,7.58,7.58,0,0,1,5.26,3.23,6.31,6.31,0,0,1,1.24,3.67A7,7,0,0,1,50,70.71a7.81,7.81,0,0,1,9.23,3.09,8.86,8.86,0,0,1,1.56,7,10,10,0,0,1-4.37,6.39,10,10,0,0,1-7.48,2,9,9,0,0,1-6.13-3.87,8.15,8.15,0,0,1-1.67-5A7.61,7.61,0,0,1,43.09,75.66ZM46,83.13a6.77,6.77,0,0,0,2.42,2.09,5.29,5.29,0,0,0,3.19.6,6.54,6.54,0,0,0,3.1-1.18,6,6,0,0,0,1.66-8.31l-.19-.27a6.09,6.09,0,0,0-4.06-2.63,6.17,6.17,0,0,0-4.7,1.15,5.89,5.89,0,0,0-2.54,4A6,6,0,0,0,46,83.13ZM38.8,70.89A4.77,4.77,0,0,0,42,73a4.9,4.9,0,0,0,3.75-1,4.82,4.82,0,0,0,2.09-3.17A4.53,4.53,0,0,0,47,65.29a4.73,4.73,0,0,0-3.18-2A5.19,5.19,0,0,0,38,67.36,4.45,4.45,0,0,0,38.8,70.89Z" style="fill:url(#radial-gradient-4)"/></g></svg>
