<svg class="S" xmlns="http://www.w3.org/2000/svg" xmlns:xlink="http://www.w3.org/1999/xlink" viewBox="0 0 126 126"><defs><linearGradient id="linear-gradient" x1="75.44" y1="-192.78" x2="117.05" y2="-184.69" gradientTransform="translate(-126.7 136.02) rotate(45)" gradientUnits="userSpaceOnUse"><stop offset="0" stop-color="#fff"/><stop offset="0.38" stop-color="#fff" stop-opacity="0"/></linearGradient></defs><path d="M8,104.05l2.2.63,8.56,2.45.09,0c.82,2.89,1.65,5.78,2.47,8.68L22,118a185.6,185.6,0,0,0,16.63-8.63,223.52,223.52,0,0,0,41-30c14.72-13.85,28.21-31.24,34.71-51.89.69-2.2,1.3-4.43,1.83-6.71.19-.81.36-1.63.53-2.45A86.1,86.1,0,0,0,118,9.39a1.27,1.27,0,0,0-.43-1.08,1.23,1.23,0,0,0-1-.3,82.53,82.53,0,0,0-8.86,1.31c-.83.16-1.66.34-2.48.53-2.28.53-4.51,1.14-6.71,1.83-20.65,6.5-38,20-51.89,34.71a223.52,223.52,0,0,0-30,41A185.6,185.6,0,0,0,8,104.05Z" style="fill:#7fb6c8"/><path d="M78.22,56.57c3.18,2.79,8,7.49,13.06,10.61,9.51-11,17.66-23.7,22.47-38a28.45,28.45,0,0,0-3.16-2,16.94,16.94,0,0,0-12.31-1.89c-7.44,2-11.25,10.42-6.79,17A3.89,3.89,0,0,1,98,38.73c6,5.55-3.35,11.44-10,10.67-4.27-.49-8.17-2.57-11.73-5s-7-5-11-6.56A17.39,17.39,0,0,0,56,37.2c-2.7,2.45-5.29,5-7.77,7.55C59,41.26,70,49.35,78.22,56.57Z" style="fill:#f4de66"/><path d="M66.93,70.12c-2.55-7.05-6-14.56-12.81-17.75a19.49,19.49,0,0,0-11.8-1.17c-1.35,1.53-2.65,3.07-3.93,4.62a11.87,11.87,0,0,1,8.08,2.61,17.42,17.42,0,0,1,5.3,9.35,54.87,54.87,0,0,1,1.08,10.86,72.55,72.55,0,0,0,1.6,14.94A38.73,38.73,0,0,0,56,98.35,212.19,212.19,0,0,0,73.62,84.71C70.59,80.19,68.55,74.64,66.93,70.12Z" style="fill:#edd64c"/><path d="M41.21,86.43c.9-6,1.79-12.07.56-18a14.31,14.31,0,0,0-3.24-6.92,8,8,0,0,0-3.14-2q-1.53,2-3,3.89a8.77,8.77,0,0,1,1.85,9.06,8.67,8.67,0,0,1-6.85,5,15.68,15.68,0,0,1-4.51-.37c-2.36,3.67-4.46,7.14-6.27,10.28A185.6,185.6,0,0,0,8,104.05l2.2.63,8.56,2.45.09,0c.82,2.89,1.65,5.78,2.47,8.68L22,118a185.6,185.6,0,0,0,16.63-8.63c1-.58,2.05-1.2,3.12-1.83a17.76,17.76,0,0,1-1.08-3.13C39.4,98.51,40.3,92.39,41.21,86.43Z" style="fill:#e88a44"/><g style="opacity:0.30000000000000004"><path d="M118,9.39a1.28,1.28,0,0,0-.36-1L18.85,107.15,22,118S111.38,79,118,9.39Z" style="fill:url(#linear-gradient)"/></g></svg>
