<svg class="S" xmlns="http://www.w3.org/2000/svg" xmlns:xlink="http://www.w3.org/1999/xlink" viewBox="0 0 126 126"><defs><linearGradient id="linear-gradient" x1="63" y1="123" x2="63" y2="3" gradientUnits="userSpaceOnUse"><stop offset="0" stop-color="#0f1115"/><stop offset="1" stop-color="#496180"/></linearGradient><radialGradient id="radial-gradient" cx="82.36" cy="60.11" r="51.86" gradientTransform="translate(-8.14 -0.96) rotate(4.88)" gradientUnits="userSpaceOnUse"><stop offset="0" stop-color="#fff"/><stop offset="0.22" stop-color="#fafafb"/><stop offset="0.48" stop-color="#ededee"/><stop offset="0.74" stop-color="#d6d7d8"/><stop offset="0.87" stop-color="#c9cacc"/></radialGradient><linearGradient id="linear-gradient-2" x1="82.33" y1="61.12" x2="73.1" y2="35.91" gradientTransform="translate(-8.14 -0.96) rotate(4.88)" gradientUnits="userSpaceOnUse"><stop offset="0" stop-color="#fff"/><stop offset="0.12" stop-color="#e1e1e1"/><stop offset="0.39" stop-color="#959595"/><stop offset="0.78" stop-color="#1d1d1d"/><stop offset="0.87"/></linearGradient></defs><g style="isolation:isolate"><g id="design"><path d="M123,63A60,60,0,1,1,63,3,60,60,0,0,1,123,63Z" style="fill:url(#linear-gradient)"/><path d="M92.64,102.25a4.32,4.32,0,0,1-4.38,4.25l-55.53-.79a4.31,4.31,0,0,1-4.25-4.38l1.17-82.21A4.31,4.31,0,0,1,34,14.87l55.52.79A4.32,4.32,0,0,1,93.81,20Z" style="opacity:0.4"/><path d="M91.47,107.18a4.31,4.31,0,0,1-4.67,3.93l-55.33-4.72a4.32,4.32,0,0,1-3.94-4.67l7-81.92a4.31,4.31,0,0,1,4.67-3.93l55.33,4.72a4.34,4.34,0,0,1,3.94,4.67Z" style="fill:url(#radial-gradient)"/><path d="M71.54,57.23A57,57,0,0,1,63.87,47a45.1,45.1,0,0,1-9.3,8.78c-4.33,3.08-8,4.74-8.4,9.15A8.36,8.36,0,0,0,54,73.84a8.55,8.55,0,0,0,7.35-3,45.23,45.23,0,0,1-1.62,4.73c-1.64,3.57-3.92,4.31-3.92,4.31l9.85.84s-2.07-1.3-2.75-4.92c-.17-.92-.47-3.2-.68-4.94a8.57,8.57,0,0,0,6.76,4.29,8.37,8.37,0,0,0,9.19-7.46C78.5,63.3,75.3,61.3,71.54,57.23Z"/><path d="M43.74,33.6a13.92,13.92,0,0,1-1.88-2.51,10.85,10.85,0,0,1-2.27,2.15c-1.06.76-2,1.16-2.06,2.24a2,2,0,0,0,1.9,2.18,2.09,2.09,0,0,0,1.8-.74,10.81,10.81,0,0,1-.4,1.15,1.87,1.87,0,0,1-.95,1.06l2.4.21a1.85,1.85,0,0,1-.67-1.21c0-.22-.11-.78-.17-1.21a2.11,2.11,0,0,0,1.66,1,2,2,0,0,0,2.24-1.82C45.44,35.08,44.66,34.59,43.74,33.6Z"/><path d="M46,30l-3.11-.26,0-.41a3.44,3.44,0,0,0,.7-.06c.18-.05.28-.11.29-.19V29a.35.35,0,0,0,0-.14l-.46-1.9-2.62-.22q-.18.39-.3.69c-.08.19-.15.38-.22.54s-.1.3-.12.4a1,1,0,0,0-.05.25q0,.24.3.39a2.31,2.31,0,0,0,.73.21l0,.42-2.82-.24,0-.42.35,0A1.3,1.3,0,0,0,39,28.8a1.34,1.34,0,0,0,.35-.3,2.07,2.07,0,0,0,.27-.46c.46-1,1-2.12,1.54-3.37l1.5-3.34.43,0L45,28.68a1.25,1.25,0,0,0,.15.38,1.39,1.39,0,0,0,.26.3.84.84,0,0,0,.3.16,1.32,1.32,0,0,0,.32.09ZM43.24,26.4l-.85-3.29L41,26.21Z"/><path d="M82.71,94.57a13.84,13.84,0,0,1,1.88,2.49,11,11,0,0,1,2.27-2.14c1.06-.75,2-1.16,2.06-2.24A2.05,2.05,0,0,0,87,90.5a2.1,2.1,0,0,0-1.79.74,10.94,10.94,0,0,1,.39-1.15,1.86,1.86,0,0,1,1-1.06l-2.41-.2a1.76,1.76,0,0,1,.67,1.2c0,.22.12.78.17,1.21a2.07,2.07,0,0,0-1.65-1A2,2,0,0,0,81.1,92C81,93.08,81.79,93.57,82.71,94.57Z"/><path d="M80.48,98.14l3.11.26,0,.42a2.86,2.86,0,0,0-.69.05c-.19,0-.28.11-.29.2v.12a.52.52,0,0,0,0,.14l.47,1.9,2.62.22q.18-.39.3-.69t.21-.54c.06-.16.1-.3.13-.4a1.57,1.57,0,0,0,.05-.25c0-.16-.09-.28-.3-.39a2.67,2.67,0,0,0-.74-.21l0-.42,2.81.25,0,.41a1.7,1.7,0,0,0-.35,0,1,1,0,0,0-.35.11,1.87,1.87,0,0,0-.36.31,2.15,2.15,0,0,0-.26.45c-.46,1-1,2.13-1.54,3.37s-1.07,2.36-1.51,3.34l-.42,0-1.89-7.31a1.51,1.51,0,0,0-.14-.38,1.39,1.39,0,0,0-.26-.3,1.19,1.19,0,0,0-.3-.16,1.38,1.38,0,0,0-.33-.09Zm2.72,3.62.86,3.29,1.39-3.1Z"/><path d="M94.12,21,39.53,16.35a4.27,4.27,0,0,0-4.61,3.89L30.2,75.53c14.51-8.72,39.23-20.75,65.32-20.86l2.48-29A4.26,4.26,0,0,0,94.12,21Z" style="mix-blend-mode:screen;fill:url(#linear-gradient-2)"/></g></g></svg>
