<svg class="S" xmlns="http://www.w3.org/2000/svg" viewBox="0 0 126 126"><g style="isolation:isolate"><g id="design"><path d="M84.79,77.49V41.39H78a.36.36,0,0,1-.33-.39,0,0,0,0,1,0,0h0a6.82,6.82,0,0,0-.85,2.71L73.24,71.87a8.48,8.48,0,0,0,1,5.71h0a.3.3,0,0,1,.21-.1Z" style="fill:#cca879"/><path d="M84.83,82.05v-5H75a.28.28,0,0,1-.31-.25.21.21,0,0,1,.07-.14h-.15c-1.95,0-3.53,1.24-3.53,2.78a2.89,2.89,0,0,0,2.26,2.59h0a.28.28,0,0,1,.13,0Z" style="fill:#cca879"/><path d="M84.83,41.55V36H75.89a.3.3,0,0,1-.3-.27h0a3,3,0,0,0-2.11,2.8,2.86,2.86,0,0,0,1,2.12,3.34,3.34,0,0,0,2.28.87h8.12Z" style="fill:#cca879"/><path d="M75.89,35.62h8.94v-.15H75.4c.07.12.14.24.22.35h0A.32.32,0,0,1,75.89,35.62Z" style="fill:#bf6f90"/><path d="M73.49,82.54a.28.28,0,0,1-.31-.24.24.24,0,0,1,.17-.22h-1a2.25,2.25,0,0,0-1.59.44L65.63,89.4a.2.2,0,0,0,0,.16h-.1V99.2H84.83V82.54Z" style="fill:#cca879"/><path d="M92.41,40.8H84.79V76.9H96.52a.26.26,0,0,1,.2.1h0a8.78,8.78,0,0,0,.94-5.87L93.42,42.86a6.89,6.89,0,0,0-.71-2.28h0A.34.34,0,0,1,92.41,40.8Z" style="fill:#f7cb92"/><path d="M105.9,89.56a.27.27,0,0,0-.07-.18l-6-6.83a2.38,2.38,0,0,0-1.55-.41h-.93a.21.21,0,0,1,.08.16.28.28,0,0,1-.31.24H84.83V99.2H106V89.56Z" style="fill:#f7cb92"/><path d="M96,77.1H84.83v5H97.12a.43.43,0,0,1,.2.06h0a2.91,2.91,0,0,0,2.38-2.62c0-1.53-1.56-2.77-3.49-2.78h0a.21.21,0,0,1,.07.14A.28.28,0,0,1,96,77.1Z" style="fill:#f7cb92"/><path d="M93.64,36H84.83v5.53h8.92a3.12,3.12,0,0,0,3.23-3,2.89,2.89,0,0,0-1-2.11,3.26,3.26,0,0,0-2.14-.87h0a.28.28,0,0,1,.06.16A.3.3,0,0,1,93.64,36Z" style="fill:#f7cb92"/><path d="M84.83,35.62h8.81a.2.2,0,0,1,.11,0h0l.11-.18h-9Z" style="fill:#d8799e"/><path d="M93.75,35.77h.14a.35.35,0,0,0-.14-.13.75.75,0,0,1-.07.12Z" style="fill:#470202"/><path d="M75.89,36.05h8.94v-.62H75.89a.31.31,0,0,0-.27.17l.09.11-.12,0A.31.31,0,0,0,75.89,36.05Z" style="fill:#9b8399;stroke:#9b8399;stroke-miterlimit:10;stroke-width:0.212923920198577px"/><path d="M93.64,35.43H84.83v.62h8.81a.31.31,0,0,0,.31-.31.35.35,0,0,0-.06-.18" style="fill:#9b8399;stroke:#9b8399;stroke-miterlimit:10;stroke-width:0.212923920198577px"/><path d="M78.08,41.89a3.14,3.14,0,0,1,.24-.33" style="fill:#470202"/><path d="M77.4,41.79a0,0,0,0,0,0,0c0,.14.16.26.35.26h7.09v-.52H77.67" style="fill:#9b8399;stroke:#9b8399;stroke-miterlimit:10;stroke-width:0.212923920198577px"/><path d="M84.83,42.07h8a.36.36,0,0,0,.31-.15,2,2,0,0,0-.41-.37H84.83Z" style="fill:#9b8399;stroke:#9b8399;stroke-miterlimit:10;stroke-width:0.212923920198577px"/><path d="M74.83,76.67a.1.1,0,0,0,0,0h.09Z" style="fill:#470202"/><path d="M96.2,76.71l0,0s0,0,0,0Z" style="fill:#470202"/><path d="M74.16,77.1H84.81v-.49H74.16a.38.38,0,0,0-.22.06l0,0h-.1a.21.21,0,0,0-.07.14C73.82,77,74,77.1,74.16,77.1Z" style="fill:#9b8399;stroke:#9b8399;stroke-miterlimit:10;stroke-width:0.212923920198577px"/><path d="M84.81,76.61v.49h12.1c.18,0,.33-.11.33-.25a.21.21,0,0,0-.07-.14h-.09l0,0a.37.37,0,0,0-.21-.06Z" style="fill:#9b8399;stroke:#9b8399;stroke-miterlimit:10;stroke-width:0.212923920198577px"/><path d="M73.36,82.08h0Z" style="fill:#470202"/><path d="M97.35,82.14l0,0-.09,0Z" style="fill:#470202"/><path d="M73.18,82.3a.28.28,0,0,0,.31.24H84.83v-.49H73.49a.28.28,0,0,0-.13,0h0A.24.24,0,0,0,73.18,82.3Z" style="fill:#9b8399;stroke:#9b8399;stroke-miterlimit:10;stroke-width:0.212923920198577px"/><path d="M84.83,82.05v.49H97.12a.28.28,0,0,0,.31-.24.21.21,0,0,0-.08-.16h-.12l.09,0a.43.43,0,0,0-.2-.06Z" style="fill:#9b8399;stroke:#9b8399;stroke-miterlimit:10;stroke-width:0.212923920198577px"/><path d="M84.83,17.74h-.2A11.31,11.31,0,0,0,73.14,28.86a10.88,10.88,0,0,0,2.25,6.61h9.44Z" style="fill:#cca879"/><path d="M93.87,35.47a10.78,10.78,0,0,0,2.26-6.61,7.56,7.56,0,0,0,0-.83c0-.07,0-.13,0-.2,0-.31-.08-.62-.13-.92,0-.09,0-.18,0-.27l-.06-.27a11.18,11.18,0,0,0-.6-1.8,2.56,2.56,0,0,0-.11-.24L95,24.08l-.11-.23-.21-.38c0-.08-.09-.15-.13-.22l-.09-.15-.12-.18c-.14-.22-.3-.44-.47-.66l-.14-.19-.19-.23-.35-.4c-.12-.13-.25-.26-.38-.38s-.13-.13-.19-.19l-.18-.16a8.3,8.3,0,0,0-.64-.54L91.59,20a11.2,11.2,0,0,0-2.36-1.35l-.5-.2-.8-.26-.27-.07-.28-.07c-.29-.07-.59-.13-.89-.18l-.22,0-.29,0-.35,0-.22,0h-.58V35.47Z" style="fill:#f7cb92"/><path d="M89.26,14.09c0,2.09-2,3.79-4.48,3.79s-4.47-1.7-4.47-3.79,2-3.78,4.47-3.78S89.26,12,89.26,14.09Z" style="fill:#f7cb92"/><path d="M84.78,10.31v7.57c-2.47,0-4.47-1.7-4.47-3.79S82.31,10.31,84.78,10.31Z" style="fill:#cca879"/><path d="M68.32,119H21.87a1.45,1.45,0,0,1-1.44-1.44h0a1.45,1.45,0,0,1,1.44-1.45H68.32a1.45,1.45,0,0,1,1.44,1.45h0A1.45,1.45,0,0,1,68.32,119Z" style="fill:#404f5a"/><path d="M60.47,81.81a2.93,2.93,0,0,1-1.08.21l-14.57,0-14.55.05A2.75,2.75,0,0,1,29,81.81a2.81,2.81,0,0,1-1.4-3.27l4.18-30.65a2.79,2.79,0,0,1,2.19-2,2.73,2.73,0,0,1,.5-.05l10.36,0,10,0a2.57,2.57,0,0,1,.83.13,2.8,2.8,0,0,1,1.82,1.76L62,78.31A2.8,2.8,0,0,1,60.47,81.81Z" style="fill:#020510"/><path d="M63.08,41.52v.86a3.54,3.54,0,0,1-3.53,3.54H30.29a3.54,3.54,0,0,1-3.53-3.54v-.86a3.53,3.53,0,0,1,2.18-3.26A3.61,3.61,0,0,1,30.29,38H59.55a3.57,3.57,0,0,1,1.35.27A3.53,3.53,0,0,1,63.08,41.52Z" style="fill:#020510"/><rect x="20.26" y="101.85" width="49.68" height="14.8" style="fill:#020510"/><path d="M60.84,39h-32a.41.41,0,0,1-.41-.42h0a.41.41,0,0,1,.41-.42h32a.42.42,0,0,1,.42.42h0A.42.42,0,0,1,60.84,39Z" style="fill:#000003"/><path d="M55.81,46.74H33.07a.41.41,0,0,1-.41-.42h0a.41.41,0,0,1,.41-.42H55.81a.42.42,0,0,1,.42.42h0A.42.42,0,0,1,55.81,46.74Z" style="fill:#000003"/><path d="M60.41,82.66H29a.42.42,0,0,1-.42-.42h0a.42.42,0,0,1,.42-.42H60.41a.41.41,0,0,1,.41.42h0A.41.41,0,0,1,60.41,82.66Z" style="fill:#000003"/><path d="M61.4,91.1H27.86a.42.42,0,0,1-.42-.42h0a.42.42,0,0,1,.42-.42H61.4a.42.42,0,0,1,.42.42h0A.42.42,0,0,1,61.4,91.1Z" style="fill:#000003"/><path d="M57.63,19.2H55a1.1,1.1,0,0,0-1.08,1v9h3.69v-10Z" style="fill:#37262e"/><path d="M31.26,19.2h2.61a1.09,1.09,0,0,1,1.08,1v9H31.26v-10Z" style="fill:#715e5f"/><path d="M68.34,119.2H21.9a1.43,1.43,0,0,1-1.44-1.44h0a1.44,1.44,0,0,1,1.44-1.44H68.34a1.45,1.45,0,0,1,1.44,1.44h0A1.44,1.44,0,0,1,68.34,119.2Z" style="fill:#843241;stroke:#843241;stroke-miterlimit:10;stroke-width:0.195666769499235px"/><path d="M62.4,91.13l7.35,10.63a.51.51,0,0,1,.09.22c.09.52-.81,1-2,1H22.41c-1.19,0-2.09-.47-2-1a.43.43,0,0,1,.06-.18L26.8,91.07a1.7,1.7,0,0,1,1.11-.6,4.52,4.52,0,0,1,.84-.08l16.09,0,15.66,0a3.9,3.9,0,0,1,1,.13" style="fill:#372f32"/><path d="M60.49,82a2.72,2.72,0,0,1-1.07.21l-14.58.06-14.54,0A2.85,2.85,0,0,1,29,82a2.8,2.8,0,0,1-1.4-3.27L31.26,52l.53-3.9a2.81,2.81,0,0,1,2.19-2,2.74,2.74,0,0,1,.5,0l10.36,0L54.9,46a2.77,2.77,0,0,1,2.64,1.89L57.71,49l4.36,29.52A2.8,2.8,0,0,1,60.49,82Z" style="fill:#372f32"/><path d="M64.64,85.88v1.06a3.89,3.89,0,0,1-3.14,3.67,4.39,4.39,0,0,1-.72.07H29.15a3.67,3.67,0,0,1-1.24-.21,3.84,3.84,0,0,1-2.62-3.53V85.88A3.86,3.86,0,0,1,29,82H60.78A3.86,3.86,0,0,1,64.64,85.88Z" style="fill:#372f32"/><path d="M63.11,41.73v.86a3.54,3.54,0,0,1-3.54,3.53H30.32a3.53,3.53,0,0,1-3.54-3.53v-.86a3.52,3.52,0,0,1,3.54-3.53H59.57a3.52,3.52,0,0,1,3.54,3.53Z" style="fill:#372f32"/><path d="M63.15,21.4V36.27A2.19,2.19,0,0,1,61,38.46H28.76a2.19,2.19,0,0,1-2.19-2.19V21.4a2.2,2.2,0,0,1,2.19-2.2H33v8.45a1.09,1.09,0,0,0,1.1,1.09h4.81A1.09,1.09,0,0,0,40,27.65V20.22a1.1,1.1,0,0,1,1.09-1h7.36a1.09,1.09,0,0,1,1.1,1.09v4.74h0v2.38a1.09,1.09,0,0,0,1.09,1.09h2.27A1.09,1.09,0,0,0,54,27.44l.79-8.24H61A2.2,2.2,0,0,1,63.15,21.4Z" style="fill:#372f32"/><rect x="20.28" y="102.05" width="49.68" height="14.8" style="fill:#282226"/><path d="M28.47,38.46h0a3.55,3.55,0,0,0-2.19,3.27v.86a3.54,3.54,0,0,0,3.54,3.53h.62a3.52,3.52,0,0,1-2.2-3.27V42a3.55,3.55,0,0,1,2.19-3.27h0a2.2,2.2,0,0,1-2.2-2.19V21.66a2.2,2.2,0,0,1,2.2-2.19h2.42v-.26H28.47a2.19,2.19,0,0,0-2.19,2.19V36.27A2.19,2.19,0,0,0,28.47,38.46Z" style="fill:#4f2b68;opacity:0.5;mix-blend-mode:multiply"/><path d="M19.52,102v14.76h2v-14.5h.06a.68.68,0,0,1,.09-.22L29,91.39a1.53,1.53,0,0,1,.9-.52,3.87,3.87,0,0,1-3.14-3.8v-.93a3.86,3.86,0,0,1,3.86-3.87h.29a2.79,2.79,0,0,1-1.58-3.49l4.53-30.63a2.79,2.79,0,0,1,1.82-1.77H33.12a2.8,2.8,0,0,0-1.23,1.51L27.36,78.52A2.8,2.8,0,0,0,28.94,82h-.28a3.86,3.86,0,0,0-3.87,3.86v.94a3.87,3.87,0,0,0,3.14,3.8,1.53,1.53,0,0,0-.9.52l-7.35,10.63a.51.51,0,0,0-.09.22Z" style="fill:#372f32"/><path d="M60.07,41.53s.17.76-.74.76H55c-1.07,0-.9-.76-.9-.76,0-1.67-.52-3-1.15-3h4.76C59,38.51,60.07,39.86,60.07,41.53Z" style="fill:#aaa4c1;opacity:0.7000000000000001"/><path d="M58,19.35a1.41,1.41,0,0,0-.61-.15h-.81v0a2,2,0,0,1,1,1.29v6.73c0,.6-.4,1.29-2.1,1.29H53.39v7.81c0,1.21-.37,2.19-.83,2.19h0v0h5s0,0,0,0h0a2,2,0,0,0,1.71-2.19V21.46A2.19,2.19,0,0,0,58,19.35Z" style="fill:#aaa4c1;opacity:0.5"/><path d="M52.41,82h0a4.62,4.62,0,0,0,.6-2.63,6.33,6.33,0,0,0-.06-.86L51.34,49.78l3.57-.46,3.34,29.2a3.24,3.24,0,0,1,.12.86A3,3,0,0,1,57.14,82h.11" style="fill:#aaa4c1;opacity:0.5"/><path d="M58,90.64l-5.24,0a2.65,2.65,0,0,1,.25.51l2.8,10.63a.83.83,0,0,1,0,.22h0v.07h8.48V102h-.05a.63.63,0,0,0-.07-.22L58.52,91.13a1.08,1.08,0,0,0-.47-.42.26.26,0,0,0,0-.09" style="fill:#aaa4c1;opacity:0.5"/><path d="M28.85,39.25a.42.42,0,0,1-.42-.42h0a.42.42,0,0,1,.42-.42h32a.42.42,0,0,1,.42.42h0a.42.42,0,0,1-.42.42" style="fill:#0e020b;stroke:#0e020b;stroke-miterlimit:10;stroke-width:0.195666769499235px"/><path d="M55.84,46.94H33.1a.42.42,0,0,1-.42-.42h0a.42.42,0,0,1,.42-.42H55.84a.42.42,0,0,1,.42.42h0A.42.42,0,0,1,55.84,46.94Z" style="fill:#0e020b;stroke:#0e020b;stroke-miterlimit:10;stroke-width:0.195666769499235px"/><path d="M61.42,91.3H27.89a.41.41,0,0,1-.42-.41h0a.42.42,0,0,1,.42-.42H61.42a.42.42,0,0,1,.42.42h0A.41.41,0,0,1,61.42,91.3Z" style="fill:#000002;stroke:#000002;stroke-miterlimit:10;stroke-width:0.195666769499235px"/><polyline points="64.42 102.05 64.42 116.85 55.91 116.85 55.91 102.05" style="fill:#af8b8d;opacity:0.2"/><path d="M33.48,86.94v-.8a3.86,3.86,0,0,1,3.86-3.87h.28a2.79,2.79,0,0,1-1.57-3.49L40.16,51l17.55-2-.17-1.11A2.77,2.77,0,0,0,54.9,46L44.84,46l-10.36,0a2.74,2.74,0,0,0-.5,0,2.81,2.81,0,0,0-2.19,2L31.26,52l2-.23-4,26.76A2.8,2.8,0,0,0,30.89,82H30.6a3.86,3.86,0,0,0-3.86,3.86v.94s0,.09,0,.13H24.9a3.84,3.84,0,0,0,2.62,3.53,6.28,6.28,0,0,0,1.63.21h.52a1.34,1.34,0,0,0-.69.45l-7.35,10.63a.51.51,0,0,0-.09.22h-.07v14.76h6.74v-14.5h.06a.68.68,0,0,1,.09-.22l7.35-10.63a1.59,1.59,0,0,1,.91-.52,3.79,3.79,0,0,1-.68-.19H60.78a4.39,4.39,0,0,0,.72-.07,3.89,3.89,0,0,0,3.14-3.67Z" style="fill:#4f2b68;opacity:0.6000000000000001;mix-blend-mode:multiply"/><path d="M32.94,19.2a1.1,1.1,0,0,0-1.09,1v7.42a1.19,1.19,0,0,0,1.26,1.22H35v-9Z" style="fill:#715e5f"/><path d="M60.26,85.88s.22,1-.95,1H55c-1.37,0-1.16-1-1.16-1,0-2.14-.66-3.87-1.47-3.87h4.84C58.91,82,60.26,83.74,60.26,85.88Z" style="fill:#aaa4c1;opacity:0.5"/></g></g></svg>
