<svg class="S" id="design" xmlns="http://www.w3.org/2000/svg" viewBox="0 0 126 126"><path d="M70.67,59.63s24.2,43,26.78,46.26c3.88,4.9,4.27,6.07,4.27,6.07s3.21-2.47,1.39-5.85S73.54,58.63,73.54,58.63Z" style="fill:#ef867b"/><path d="M61.21,78.17s-26.33,42.64-30.88,44.15a11.89,11.89,0,0,1-8,0s4.11-.18,5.83-3.15S57.37,77.38,57.37,77.38Z" style="fill:#ef867b"/><path d="M51.7,49.16S43.84,66.52,43.49,67.7,49.73,91,49.73,91l-5.19,3.82S34,67.7,34,64.88,38.79,44.7,38.79,44.7Z" style="fill:#822f20"/><path d="M43.32,51.06S62.14,69.34,63.43,69.75s18.75,13.1,19.38,12.57a36.71,36.71,0,0,0,4.06-4.07A107.53,107.53,0,0,0,77.21,69c-3.84-3.16-7.93-5.19-8.86-6.11C66.51,61,58.28,46.35,55.23,41.61a11.08,11.08,0,0,0-.95-1.36C52.75,38.61,43.32,51.06,43.32,51.06Z" style="fill:#822f20"/><rect x="47.91" y="28.18" width="54.73" height="1.18" transform="translate(13.17 80.13) rotate(-60.51)" style="fill:#1a0510"/><rect x="11.51" y="30.66" width="54.73" height="1.18" transform="translate(-7.46 49.7) rotate(-60.51)" style="fill:#1a0510"/><path d="M44.79,88s-3.94,12.38-2.45,13.37,8.09-8.78,7.76-9.93A29.17,29.17,0,0,0,48.62,88Z" style="fill:#822f20"/><path d="M82,81.94s2.83,6.16,6.08,9,4.44-2.47,3-4.57a82.28,82.28,0,0,1-4.21-8.11Z" style="fill:#822f20"/><path d="M54.52,8.1c0,.78-1.19,1.42-2.65,1.42s-2.66-.64-2.66-1.42,1.19-1.43,2.66-1.43S54.52,7.31,54.52,8.1Z" style="fill:#1a0510"/><path d="M51.57,7.16S52.9,5.1,53.05,5.74a4.54,4.54,0,0,1-.4,1.91l-1.08-.22" style="fill:#1a0510"/><path d="M90.87,5.48c0,.79-1.19,1.43-2.66,1.43s-2.65-.64-2.65-1.43,1.19-1.42,2.65-1.42S90.87,4.69,90.87,5.48Z" style="fill:#1a0510"/><path d="M87.92,4.55s1.33-2.07,1.47-1.43A4.48,4.48,0,0,1,89,5l-1.08-.23" style="fill:#1a0510"/><path d="M63,45.33s-1.25,2.72.66,4,5.16,2.43,3.17-4.94S63,45.33,63,45.33Z" style="fill:#3b605f"/><path d="M26.47,48.47s-1.25,2.72.67,4,5.15,2.44,3.16-4.93S26.47,48.47,26.47,48.47Z" style="fill:#3b605f"/><path d="M44.29,23.65s-13.48,2.19-15.9,4.9,8.3,24,8.3,24S54,52.46,58.45,46.91C58.45,46.91,52.16,24.68,44.29,23.65Z" style="fill:#f6a714"/><path d="M44.29,23.65S62,28,63.05,29s4.67,16.21,4.67,16.21l-5.63,1.73s-3.94-12.18-4.8-12.38-9.91-.91-9.91-.91Z" style="fill:#f6a714"/><path d="M32.2,31.34l-3.7,6.78s3.61,10.29,2.82,10.64-4.64.09-5.05-.35-3.54-9.29-3-12.51c.37-2.28,5.24-8.76,5.24-8.76L32.2,31" style="fill:#f6a714"/><path d="M26.63,25.6c1.53,4.66,6,8.09,8.71,7.57,3.75-.71,6-7.21,4.45-11.88S34.08,13.81,30.44,15,25.1,20.93,26.63,25.6Z" style="fill:#f3c297"/><path d="M28.39,28.55a17.93,17.93,0,0,0,3.66-.88c.42-.37.64-1.3,1.28-1.18s.83,1,1.64.84,3.32-1.08,3.44-1.45a18.62,18.62,0,0,1,1.69-2.16L40,22.88,26.84,26.25S26.74,28.26,28.39,28.55Z" style="fill:#1a0510"/><circle cx="32.94" cy="13.19" r="2.45" style="fill:#1a0510"/><path d="M26.37,24.68a30.58,30.58,0,0,0,8.7-2.24c3.49-1.72,5.25.69,5.28,0s-2.91-8.06-7.14-8-6.51,1.78-7.14,3.2C25.2,19.59,25.43,24.23,26.37,24.68Z" style="fill:#3b605f"/><path d="M25.8,23.65a1.52,1.52,0,0,0-.27,1.54c.3,1,.69,1.49,1.5,1.46S39.78,23.86,40.35,23s.46-3.41-.71-3.43S25.82,23.05,25.8,23.65Z" style="fill:#3b605f"/></svg>
