<svg class="S" xmlns="http://www.w3.org/2000/svg" viewBox="0 0 126 126"><g style="isolation:isolate"><g id="design"><path d="M125.9,97.55c-.33-.72-1.42-.94-2.55-.57L99.55,50.93l-3-1.2,25.69,47.8c-.86.62-1.28,1.49-1,2.15s1.36.93,2.46.61l.42.77a.57.57,0,0,0,.8.23.58.58,0,0,0,.22-.77l-.38-.73C125.74,99.16,126.22,98.24,125.9,97.55Z" style="fill:#1a0510"/><path d="M38.15,57.6,37.29,56,3,89.24a1.9,1.9,0,0,0-2.3-.37c-.6.49-.55,1.56.05,2.55L.15,92a.51.51,0,0,0,.08.79.51.51,0,0,0,.63-.06l.53-.5c.86.81,1.93,1.08,2.54.58s.54-1.74-.2-2.78Z" style="fill:#1a0510"/><path d="M63.35,18.48l2.7,4.64s-2.55,5.4-2.7,5.31-9.25,1.75-9.25,1.75l-3.89-6.29.7-2.72,3.44-5.76Z" style="fill:#77431c"/><path d="M52.1,18.73s.31,7.41,2.66,9.3,6.7,2,7.67.61.92-10.16.92-10.16l-2.18-2.81L56.5,14.18l-3.94,1.74Z" style="fill:#de7740"/><path d="M53,17.35H63.15s1.08,5-2,5.11a1.92,1.92,0,0,1-1.54-.75,1,1,0,0,0-1.5-.06,3.21,3.21,0,0,1-2.27.85C53.13,22.57,51.8,20.11,53,17.35Z" style="fill:#1a0510"/><path d="M50.67,18.48s-.89-8.18,6.39-8.41,6.67,6.39,6.29,8.41c0,0-1.38-2.43-5.45-2.05S51,22.26,51,22.26Z" style="fill:#3b605f"/><path d="M57.9,16.43c4.07-.38,5.45,2.05,5.45,2.05,0-.25.09-.56.13-.93C57.75,13.1,53,17.35,53,17.35A9.05,9.05,0,0,1,56.6,10.1c-6.78.56-5.93,8.38-5.93,8.38L51,22.26S53.84,16.82,57.9,16.43Z" style="fill:#d1d3d4;mix-blend-mode:multiply"/><polygon points="88.21 108.08 100.98 115.03 104.37 110.88 89.6 104.93 88.21 108.08" style="fill:#ef867b"/><polygon points="103.92 108.44 117.71 115.94 121.37 111.46 105.42 105.03 103.92 108.44" style="fill:#ef867b"/><path d="M96.5,103.53l1.06,2.32a3,3,0,0,0,1.69,1.55l4.48,1.63a3.28,3.28,0,0,0,2.62-.17h0a2.79,2.79,0,0,0,1.22-3.69l-.8-1.64L104,100.68l-1.49-2.24L97,97.72Z" style="fill:#f6a714"/><path d="M101.84,103.79a12.44,12.44,0,0,1-3.08,3.38,3.12,3.12,0,0,0,.49.23l1,.38a16.88,16.88,0,0,0,2.77-3.28C103.57,103.75,102.35,103,101.84,103.79Z" style="fill:#f4e1c6"/><path d="M102.14,101.13c.51-.76-.71-1.47-1.22-.72-1,1.41-2.37,3.3-4.07,3.89l.59,1.28C99.42,104.84,101,102.79,102.14,101.13Z" style="fill:#f4e1c6"/><path d="M78.79,102.31l1.73,2.47A3.44,3.44,0,0,0,82,106l4.58,1.93a2.75,2.75,0,0,0,2.67-.31l.23-.17a2.71,2.71,0,0,0,.82-3.43l-.51-1a10.07,10.07,0,0,0-2.24-2.94l-2.19-2-2.68-.8L78.27,99.2Z" style="fill:#f6a714"/><path d="M89.58,106.79l-.23.17a2.75,2.75,0,0,1-2.67.31l-4.57-1.93a3.46,3.46,0,0,1-1.51-1.22l-1.73-2.47-.42-2.53-.18.08.52,3.11,1.73,2.47A3.44,3.44,0,0,0,82,106l4.58,1.93a2.75,2.75,0,0,0,2.67-.31l.23-.17a2.76,2.76,0,0,0,1.12-2.2A2.79,2.79,0,0,1,89.58,106.79Z" style="fill:#1a0510"/><path d="M106.35,108.09h0a3.28,3.28,0,0,1-2.62.17l-4.49-1.63a3,3,0,0,1-1.68-1.55l-1-2.2,0,.65,1.06,2.32a3,3,0,0,0,1.69,1.55l4.48,1.63a3.28,3.28,0,0,0,2.62-.17,2.78,2.78,0,0,0,1.47-2.85A2.77,2.77,0,0,1,106.35,108.09Z" style="fill:#1a0510"/><path d="M49,62.76l12.35,17.5,1,3.11,2.64.76v2.54l1.14,3.11,1.6.66L74.17,99l4.62,3.29a5.46,5.46,0,0,1,3.67-3.39l2.92-.85v-1.7l-2.26-4.05-.94-1.88-7.07-8.29-3.68-6.6,3.77,4,1.32,2.94,2.07,1.4,3.21,2.92.85,2.82,1.6,1.89,1.88.19,7.17,11,3.2.75s1.89-4.42,4.81-4.24l1.22-.85V95.15H101l.29-2L96.5,87.33,96.16,85l-4-5.65-2.35.09-1.42-4L87,75.26l-2.07-2.92V69.89L76.52,57.74l-2.36-1L63.42,56Z" style="fill:#822f20"/><path d="M96.5,103.53A11.24,11.24,0,0,1,98,101.15l-4-1.81-.57-3-1-4.31,4-5.53L96.16,85l-3.4-4.81-3.24,1.72-3.81.22.92-1.7,2.54.07-3-1.27-4,.14-2-1.06-1.06-6.71L74.33,72l1.43-1.62-2-1-2.83-1.13L72,65.49,75.61,64l3.88.21-4.88-1.46-4.17.68,3.18-3.82.68-2.86-.14-.06L63.42,56,49,62.76l4.13,5.86c.39-1.67,1-3.32,2.18-4,2.65-1.66,2.47-3.25,2.47-3.25a65.59,65.59,0,0,1,5.31,5.85c1.13,1.69,4,1.51,4.52,2.26s2.78,6.67,2.78,6.67l-2.73,3.62-2.07,2.13L64.7,84l.32.09v2.54l1.14,3.11.55.23,2.53-1.27,3.25.15-2.12,1.76.07,2.48h3.18l-1.27,1.13-.53,1.62L74.17,99l4.62,3.29A5.28,5.28,0,0,1,80.4,100l.72-3.07-.64-2.83-1.2-1.83.42-3.54-.66-2-3.93-4.61-3.68-6.6,3.77,4,1.32,2.94,2.07,1.4,3.21,2.92.85,2.82,1.6,1.89,1.88.19,7.17,11Z" style="fill:#d1d3d4;mix-blend-mode:multiply"/><path d="M61.91,78.28l-1-2.16,2.28-1.7,1.19-2.07-1.65.85H58.52l1.79-1.79h2.46l-2.65-.81s-.85-1.08-2.64-.23a7.53,7.53,0,0,1-2.79.46l6.66,9.43.8,2.42L64,79.75Z" style="fill:#d1d3d4;mix-blend-mode:multiply"/><path d="M31.31,57.75,32,59.6a3.83,3.83,0,0,0,2.66,2.45l2.54.65a2.1,2.1,0,0,0,1.8-.36h0a1.37,1.37,0,0,0,.43-1.67L38.14,57.9a.32.32,0,0,1,0-.3h0a.34.34,0,0,1,.63.11l.13.91a1.63,1.63,0,0,0,.81,1.19l.07,0a.84.84,0,0,0,1.23-.5l.07-.23a2.75,2.75,0,0,0-.49-2.49l-2-2.47-1.52-1.92-3.78.85-1.48,1.7Z" style="fill:#3b605f"/><g style="mix-blend-mode:multiply"><path d="M39.38,60.67l-.1-.23a.58.58,0,0,1-.21.2l-.86.49a.55.55,0,0,1-.4,0l-2.93-.65a.57.57,0,0,1-.33-.22l-1.78-2.46a.67.67,0,0,1-.1-.23l-.29-1.75a.38.38,0,0,1,0-.15.56.56,0,0,0-.59-.62l-.48,2.65L32,59.6a3.83,3.83,0,0,0,2.66,2.45l2.54.65a2.1,2.1,0,0,0,1.8-.36A1.37,1.37,0,0,0,39.38,60.67Z" style="fill:#d1d3d4"/><path d="M38.33,56.7a.57.57,0,0,0-.49.48v.11a.57.57,0,0,0,.2.52l.11.09a.32.32,0,0,1,0-.3.34.34,0,0,1,.63.11l.13.91a1.63,1.63,0,0,0,.81,1.19l.07,0,.09,0-.06-.08a.56.56,0,0,1-.12-.3l-.16-1.78a.49.49,0,0,0-.08-.23l-.33-.56a.54.54,0,0,0-.56-.27Z" style="fill:#d1d3d4"/></g><path d="M96.49,44.45l2.73,1.27A4.27,4.27,0,0,1,101.65,49l.14,1a1.91,1.91,0,0,1-1,1.93l-1.32.72a1.16,1.16,0,0,1-1.57-.46l-.1-.18a2.59,2.59,0,0,1-.26-1.79L98.06,48a1,1,0,0,0-.81-1.17h0a.49.49,0,0,0-.5.25h0a1.26,1.26,0,0,0,.74,1.85l.89.26L98,51.75l-.8.19a2.62,2.62,0,0,1-2.21-.49l-1.37-1.06-3.06-5.33Z" style="fill:#3b605f"/><path d="M50.79,19.68A7.24,7.24,0,0,0,47.3,27l-6.95,3.44A8.36,8.36,0,0,0,36.71,34L29,48.14s.73,3,8.46,3.2l5.47-5L47,54a9.77,9.77,0,0,1,.93,6.46l-.82,4.11,5.27-1.48,10.33-.34a4.25,4.25,0,0,0,2-.57l9.44-5.5V53.12l-.85-.72a5.44,5.44,0,0,1-1.88-3.9l-.38-10.74,13.33,5.9a4.93,4.93,0,0,1,.8.47l8.39,6.26s-2-4.81,2.92-5.94l-6.11-7.7a4.36,4.36,0,0,0-.91-.86L73.74,25.18a3.64,3.64,0,0,0-2-.63l-5.69-.07s1-4.69-2.7-6c0,0,2.13,7.31-.88,9.39S51,29.2,50.79,19.68Z" style="fill:#f6a714"/><path d="M101,115a4.13,4.13,0,0,1,1.84-4.5,2.94,2.94,0,0,1,3.74.35Z" style="fill:#f06650"/><path d="M117.71,115.94a4.48,4.48,0,0,1,2-4.87,3.2,3.2,0,0,1,4,.39Z" style="fill:#f06650"/><path d="M74.18,29.94l3,.07L73.4,29l-3.11,1.77-4.1-5.44-.14-.87s1-4.69-2.7-6c0,0,2.13,7.31-.88,9.39S51,29.2,50.79,19.68A7.24,7.24,0,0,0,47.3,27l-3.4,1.69a17.87,17.87,0,0,0,.81,5.55s0-5.45,4.28-6.15c0,0,7.55,5.28,9.57,10.1l1.27,5.16,3.4-2.69,3.81,5,.36,4.13-3,3.39,3.34-.95L65.56,55.6l-6.29,1.55H54.75l5.72,1.27,6.65-.92,3.52,1.25,3.15-1.83.37-.45V53.12l-.85-.72a5.44,5.44,0,0,1-1.88-3.9l-.38-10.74,1-4.29,5.87-2.54-5.8,1.13Z" style="fill:#d1d3d4;mix-blend-mode:multiply"/><path d="M56,57.74l-3.46,1.61L49,58.43V50.3l-1.6-2.92-2.9-9.66L42,37.3l1.42.84L44.5,42l-2-2.36L40.4,40v2.55L37.57,42l1.91,1.53.28,1.55-3.18-1.55-3.53.63h2.34l1.33,1.91-3-1.27,2.59,2.05L37,51.32l.53,0,5.47-5L47,54a9.77,9.77,0,0,1,.93,6.46l-.82,4.11L49.17,64l.12-1.39,4.11-2.58Z" style="fill:#d1d3d4;mix-blend-mode:multiply"/><path d="M90.86,46.76,90.51,44l2.19-2L89,43.72H87.89l-2-.64,1.49-3S83.72,42,83.72,42s.43-3.49.43-3.49L87.89,37l-3.67.74-2.76,2.27-4.24-2.76-4-3.25L74,37.29l-.56,1.55,10.9,4.82a4.93,4.93,0,0,1,.8.47l7.27,5.42Z" style="fill:#d1d3d4;mix-blend-mode:multiply"/><path d="M60.58,43c-1.16-2.13-1.58-7.75-1.11-10.85a9.86,9.86,0,0,0-.22-3.43,7.84,7.84,0,0,1-1.78-.2,9,9,0,0,1,.32,3.38c-.52,3.44-.07,9.4,1.3,11.91,1.18,2.16,3.6,10.77,3.63,18.92h0a4.24,4.24,0,0,0,1.69-.41C64.32,53.69,61.71,45.1,60.58,43Z" style="fill:#935b00"/><path d="M28.88,50.51l2.43,7.24s1.95-5.85,7.32-3.59l-.49-2.74a6.08,6.08,0,0,0-6.71-5h0A3.08,3.08,0,0,0,28.88,50.51Z" style="fill:#f6a714"/><path d="M32.55,49.56,31,50.3l-1.63-.42-.3-1.78a3,3,0,0,0-.19,2.41l2.43,7.24a7.72,7.72,0,0,1,1.06-2l-.24-1.33h-.82L30,52.08l1.3-.79Z" style="fill:#d1d3d4;mix-blend-mode:multiply"/><path d="M101.79,50l-.14-1a4.19,4.19,0,0,0-.6-1.68c.27,1.1.51,2.57,0,3-.87.79-1.86,1.53-2.17,1s-.06-2.77-.18-3.3A2,2,0,0,0,97.77,47c-.94-.94-2.49.41-2.38,1.48.07.7,1.27,1.26,2.21,1.58l0,.21A2.59,2.59,0,0,0,97.81,52l.1.18a1.16,1.16,0,0,0,1.57.46L100.8,52A1.91,1.91,0,0,0,101.79,50Zm-4.3-1.12a1.26,1.26,0,0,1-.74-1.85.49.49,0,0,1,.5-.25,1.09,1.09,0,0,1,.24.07h0a1,1,0,0,1,.37.28l0,0a.47.47,0,0,1,.06.09.16.16,0,0,1,0,.07l0,.08a.29.29,0,0,1,0,.09.31.31,0,0,1,0,.08.49.49,0,0,1,0,.12.15.15,0,0,1,0,.07,1.37,1.37,0,0,1,0,.19l-.23,1Z" style="fill:#d1d3d4;mix-blend-mode:multiply"/><path d="M88.49,101A14.18,14.18,0,0,1,85,102.64c-.85.3-.49,1.66.38,1.37a16.77,16.77,0,0,0,3.94-1.86A10.46,10.46,0,0,0,88.49,101Z" style="fill:#f4e1c6"/><path d="M82.37,102.24a13.6,13.6,0,0,0,4.8-2.55l-1-1A12.17,12.17,0,0,1,82,100.88C81.13,101.17,81.5,102.54,82.37,102.24Z" style="fill:#f4e1c6"/></g></g></svg>
