<svg class="S" xmlns="http://www.w3.org/2000/svg" viewBox="0 0 126 126"><g style="isolation:isolate"><g id="design"><path d="M0,62.35c.45.5,37.38-33.45,52-47.16l-.67-.75C36.62,28-.58,61.7,0,62.35Z" style="fill:#282828"/><path d="M7.46,59.62c-1,.77-2.73.25-3.78-1.17s-1.06-3.19,0-4,2.74-.25,3.79,1.17S8.5,58.85,7.46,59.62Z" style="fill:#282828"/><path d="M70.09,58.65C48.5,67.89,29.62,75.75,29.84,76.28S48.6,69.08,70.1,59.8Z" style="fill:#282828"/><path d="M37.17,76.23c-1.15.35-2.45-.63-2.93-2.19s.08-3.1,1.22-3.45,2.45.64,2.92,2.2S38.31,75.89,37.17,76.23Z" style="fill:#282828"/><path d="M77.72,93.54S76,96,74.61,97.85s-3.45,4.7-3.71,5.76-1.19,3.45,3.41,3.51a120.33,120.33,0,0,1,13.15,1.13c3.65.46,7,.06,4.11-1.92s-6.89-3.65-8.08-4.84,1.33-3.94,1.33-3.94S83.42,92.94,77.72,93.54Z" style="fill:#c41c1c"/><path d="M88.8,107.82a120.71,120.71,0,0,0-13.15-1.12c-4.61-.07-3.68-2.46-3.41-3.52s2.32-3.9,3.71-5.76C77,96,78.26,94.25,78.8,93.49a10.1,10.1,0,0,0-1.08.05S76,96,74.61,97.85s-3.45,4.7-3.71,5.76-1.19,3.45,3.41,3.51a120.33,120.33,0,0,1,13.15,1.13c2.27.29,4.43.24,5-.31A16.44,16.44,0,0,1,88.8,107.82Z" style="fill:#ce2424"/><path d="M55.47,75.29s.88,6.83,14.93,8c7.32,1.07,8.4,1.56,8.4,1.56s-6,12.2-5,13.37c3.42-1.46,9.08.49,9.57,2.74,2.24-5.28,2.44-8.11,3.7-10.55s3-6.63,3.13-8.68S88,78.12,83.68,76.07,55.47,75.29,55.47,75.29Z" style="fill:#6b271a"/><path d="M81.94,89c-1.46,0-2.19,0-2.92.73.73-3.65,3.65-5.84,6.57-7.3-8.5,1.42-19,.07-24.33-7.35-3.4.11-5.79.24-5.79.24s.88,6.83,14.93,8c7.32,1.07,8.4,1.56,8.4,1.56s-6,12.2-5,13.37a7.73,7.73,0,0,1,3.74-.45C77.73,94.48,78.54,91.4,81.94,89Z" style="fill:#4a1b12"/><path d="M88.77,104.59s-1.77-.51-3.37,3.46c-2.61-.15-2.43-.47-2.43-.47s1.6-3.93,3.23-4.38S88.77,104.59,88.77,104.59Z" style="fill:#c1c1c1"/><path d="M85.61,102.88s-1.91-1-3.94,4.56l-2.61-.15s2.35-5.34,4-5.8S85.61,102.88,85.61,102.88Z" style="fill:#c1c1c1"/><path d="M91.58,49.54s.21-5.95-6.06-10c-8.65-5.6-10.8-6.75-11.88-12.34a21.1,21.1,0,0,0-5,3.22s1,6.4,8.41,9.49c9.61,4,11.32,11.09,11.58,13.26S91.58,49.54,91.58,49.54Z" style="fill:#ffe600"/><path d="M90.67,45.5c-.38,1.29-1.12,2.45-2.44-.13-1-1.94-6.08-4.53-10.44-6.36a13.7,13.7,0,0,1-8.36-9.24,9.87,9.87,0,0,0-.77.64s1,6.4,8.41,9.49c9.61,4,11.32,11.09,11.58,13.26s2.93-3.62,2.93-3.62A10.66,10.66,0,0,0,90.67,45.5Z" style="fill:#ffce00"/><path d="M65.82,88.29S63.91,91,62.38,93.05s-3.81,5.2-4.1,6.37-1.32,3.8,3.77,3.88a134.07,134.07,0,0,1,14.53,1.24c4,.51,7.76.08,4.54-2.12s-7.62-4-8.93-5.34,1.47-4.36,1.47-4.36S72.11,87.63,65.82,88.29Z" style="fill:#ef3535"/><path d="M64.73,102.48c-5.09-.08-4.06-2.71-3.77-3.88s2.56-4.32,4.1-6.37c1-1.35,2.18-3,2.86-3.94a9.81,9.81,0,0,0-2.1,0S63.91,91,62.38,93.05s-3.81,5.2-4.1,6.37-1.32,3.8,3.77,3.88a134.07,134.07,0,0,1,14.53,1.24,19.93,19.93,0,0,0,3.43.18C76,104.19,69.77,102.55,64.73,102.48Z" style="fill:#ff5a5a"/><path d="M91.49,49.91s-.1,1.56-3.61-1.17-3.32-3.42-5.28-4S78,46.25,74.8,47.54s-8.59.9-10.35,1.2-2,1.85-3.32,3.61-1.66,1.95-4.59,3.12-7.9,4.1-8,6.83,2.83,5.18,2.83,5.18S52.64,62,57.81,63s13.08,3,14.55,5.17,5.27,4,5.27,4S83,69.23,86.7,67.48s5.57-1.17,7.13-3.32a25.2,25.2,0,0,0,2.73-5.76,8.74,8.74,0,0,1-3.9-3C91.39,53.32,91.49,49.91,91.49,49.91Z" style="fill:#f6a714"/><path d="M64.42,59.78c-1.45-2.19-6.56-.73-5.83-2.19,2.19-5.11,8.75-2.92,13.86-2.92-2.19-2.19-5.84,0-8-2.19,8-.73,15.33-7.29,23.36-2.19a2.39,2.39,0,0,0,2.43-.09,10.27,10.27,0,0,1-2.33-1.46c-3.52-2.74-3.32-3.42-5.28-4S78,46.25,74.8,47.54s-8.59.9-10.35,1.2-2,1.85-3.32,3.61-1.66,1.95-4.59,3.12-7.9,4.1-8,6.83,2.83,5.18,2.83,5.18.81-3.47,3.76-4.38C57.19,60.19,60.19,58.51,64.42,59.78Z" style="fill:#adafb0;mix-blend-mode:multiply"/><path d="M48.61,61.79a3,3,0,0,0-.07.51c-.1,2.74,2.83,5.18,2.83,5.18s.81-3.47,3.76-4.38c.11-.16.23-.32.35-.47A12.44,12.44,0,0,0,48.61,61.79Z" style="fill:#991616"/><path d="M92.94,55.78a15.3,15.3,0,0,1-2.49,3.92,57.68,57.68,0,0,0-22.38-2.11c7,.7,14,2.72,21,3.53.25-.22.49-.45.72-.68a22.15,22.15,0,0,1-5.07,3.75c-5.06-1.67-10.2-4.31-15.88-3.68,4.38.73,8.76,1.46,12.41,5.11-5.11-1.46-10.95-5.11-16.79-2.92,5,.71,10.72.74,14.38,4.18l1.41-.57c-2.33,1-4.77,1.82-7.14,2.7a19,19,0,0,0,4.56,3.15S83,69.23,86.7,67.48s5.57-1.17,7.13-3.32a25.2,25.2,0,0,0,2.73-5.76A9.12,9.12,0,0,1,92.94,55.78ZM81.63,65.7l-1.29.56Zm3-1.51c-.45.26-.91.5-1.38.73C83.76,64.69,84.22,64.45,84.67,64.19ZM83.09,65c-.41.21-.83.41-1.25.6C82.26,65.42,82.68,65.22,83.09,65Z" style="fill:#adafb0;mix-blend-mode:multiply"/><path d="M53.81,62.11s-3.32,4-3.12,7.9,2.24,7,4.78,7.42,11.32,1.47,13.27,1.08a9.43,9.43,0,0,0,3-1.08s-2.68,6.15-5.08,8-2.09,4-2.09,4,4.1-.63,6.93,1.28,2.58,3.36,2.58,3.36a22,22,0,0,0,2.69-5c.83-2.44,3.66-4.54,6-7.91s4.2-7,3.86-8.25S76,65.52,69.7,64.65,53.81,62.11,53.81,62.11Z" style="fill:#6b271a"/><path d="M79.75,80.94c-2.92,0-4.38,1.46-7.3,1.46,2.92-3.65,5.11-9.49,11-8a35.54,35.54,0,0,0-8.76-.73c2.19-1.46,5.11-1.46,8-2.19-5.84-.72-11.68,2.19-17.52,1.46,0,0-1.45-1.46-.73-2.18,2.92-2.19,6.57-4.38,10.22-3.65C68.07,65.62,63,69.27,57.13,70c.73-3.65,4.38-4.38,6.57-5.84-2.92.73-5.84,1.46-8,3.65,1.46-2.19,3.65-2.92,5.84-4.38-3.65,0-5.84,2.92-8,4.38,1.57-1.57,2.39-3.88,4.07-5.07l-3.74-.63s-3.32,4-3.12,7.9,2.24,7,4.78,7.42,11.32,1.47,13.27,1.08a9.43,9.43,0,0,0,3-1.08s-2.68,6.15-5.08,8-2.09,4-2.09,4a13.16,13.16,0,0,1,3.7.07C69.57,84.87,74.91,82.15,79.75,80.94Z" style="fill:#822f20"/><path d="M69.22,82.32A20.73,20.73,0,0,1,68,84c3.84-.53,7.6,1.17,9.3,3.91a13.34,13.34,0,0,1,1.12-1.55A11.46,11.46,0,0,0,69.22,82.32Z" style="fill:#ef3535"/><path d="M70.47,80.1l-.37.7c3.86-.33,8.15.34,9.74,4,.43-.49.88-1,1.33-1.54A8.05,8.05,0,0,0,70.47,80.1Z" style="fill:#ef3535"/><path d="M52.64,24.24a5,5,0,0,1-2.2-2.42c-.95-1.9-2.49-4-4.24-4.32s-3.37-.44-3.37.88-1.68,2.49-1.9,2.78a3.8,3.8,0,0,0,2.34,4.25c2.64,1.1,3.51.44,3.51.44l1.76,1.9Z" style="fill:#282828"/><path d="M50.44,21.82c-.95-1.9-2.49-4-4.24-4.32s-3.37-.44-3.37.88-1.68,2.49-1.9,2.78,0,1.37,0,1.37c-.28-2.61,3.23-2.23,4.54-2.88,2.64-1.32,3.49,3.89,6.85,4.39A5.59,5.59,0,0,1,50.44,21.82Z" style="fill:#3d3d3d"/><path d="M84.26,45.58s-.48-1.33-3.8-3.19A39.35,39.35,0,0,0,72.85,39c-3-1.08-5.28-2.74-5.37-3.61s-2.15-4-5.08-5.86-3.71-4.78-4.78-5.08l-1.08-.29s-4.62-1.78-5.4-1.2c.29,1.66-3.61,3.12-3.71,3.61-1.52,4.25,3,8,5.89,9.78S59.08,42.59,61,44s8.11,4.4,10.55,7.13S79.28,52.42,84.26,45.58Z" style="fill:#f6a714"/><path d="M51.29,27.67c.73.73,2.92,1.46,2.19,3.65.73-2.19-.73-3.65-1.46-5.11,6.57,2.19,11.68,7.3,13.13,13.87.73-2.19-.73-3.65-.73-5.84,4.26,7.1,12.66,7.29,19.83,11.32-.07-.16-.7-1.44-3.79-3.17A39.35,39.35,0,0,0,72.85,39c-3-1.08-5.28-2.74-5.37-3.61s-2.15-4-5.08-5.86-3.71-4.78-4.78-5.08l-1.08-.29s-4.62-1.78-5.4-1.2c.29,1.66-3.61,3.12-3.71,3.61A5.06,5.06,0,0,0,47.17,29C47.92,27,50.09,27.07,51.29,27.67Z" style="fill:#d1d3d4;mix-blend-mode:multiply"/><path d="M67.34,42.27a9.79,9.79,0,0,0,.72-4c-.29-.22-.57-.44-.85-.68C67.83,39.18,67.34,40.48,67.34,42.27Z" style="fill:#d1d3d4;mix-blend-mode:multiply"/><path d="M55.85,28.9a23.53,23.53,0,0,0,6.39,11.91C60.83,36.59,57.41,33.06,55.85,28.9Z" style="fill:#d1d3d4;mix-blend-mode:multiply"/><path d="M73.67,39.27,72.85,39c-.51-.18-1-.38-1.44-.58.54.77.9,1.82.31,2.41a22.48,22.48,0,0,1-8.19,4.67c.67.38,1.4.81,2.15,1.26A13.32,13.32,0,0,0,73.18,43,3.44,3.44,0,0,0,73.67,39.27Z" style="fill:#ef3535"/><path d="M76.16,40.23c2.1,5.06-4.61,6.58-9.68,7,.86.53,1.71,1.08,2.5,1.64,4.75-.5,9.53-2.53,10-7.29C77.89,41,77,40.6,76.16,40.23Z" style="fill:#ef3535"/><path d="M90.55,48.91s-2.74,1.2-1.65,5.89,3.29,8.39,6.21,8.94,4.44-4.77,2.8-6.89A40.43,40.43,0,0,1,94,50.24C93.77,49.57,90.55,48.91,90.55,48.91Z" style="fill:#ffe600"/><path d="M90.39,49c0,.15,0,.28.08.43,1.1,4.68,3.29,8.39,6.2,8.94a2.17,2.17,0,0,0,1.74-.43,3.07,3.07,0,0,0-.5-1.08A40.43,40.43,0,0,1,94,50.24c-.24-.67-3.46-1.33-3.46-1.33Z" style="fill:#ffce00"/><path d="M95.19,60.84c-2.92-.55-5.87-4.14-6.2-8.94A3.39,3.39,0,0,1,90.84,49l-.29-.06s-2.74,1.2-1.65,5.89,3.29,8.39,6.21,8.94c2.48.46,4-3.32,3.32-5.76C98,59.69,96.78,61.14,95.19,60.84Z" style="fill:#ffce00"/><path d="M93.73,50.93a6.84,6.84,0,0,0,.7,3.83c1,1.56,2.47,3,3,3s2.29-1.42,2.29-1.42.83,1.33,1.67-.39,2.83-5.61,2.83-5.61-4.15-5-5.81-5S93.73,50.93,93.73,50.93Z" style="fill:#de7740"/><path d="M90.48,50.29s-.36-4.6,3.59-6.8,6.44-1,7.84-.37,6.73,5.35,1.53,10.33c-1.32-2.13-3.28-5.05-5.37-5s-1,2.71-2.24,3.37S91,51.52,90.48,50.29Z" style="fill:#231f20"/><path d="M94.58,44.31c4-2.19,6.45-1,7.84-.36A7.93,7.93,0,0,1,105,46.3a8.33,8.33,0,0,0-3-3.18c-1.4-.65-3.88-1.83-7.84.37s-3.59,6.8-3.59,6.8a1.51,1.51,0,0,0,.5.59A7.41,7.41,0,0,1,94.58,44.31Z" style="fill:#ff5a5a"/><path d="M99.62,48.92a15,15,0,0,0-5.21-5.6l-.34.17a6.77,6.77,0,0,0-1.38,1,11.44,11.44,0,0,1,4.08,4.87,1.29,1.29,0,0,1,1.3-.91A2.81,2.81,0,0,1,99.62,48.92Z" style="fill:#e22d2d"/><path d="M94.4,43.32a14.72,14.72,0,0,1,5.48,6.15,5.89,5.89,0,0,1-1.75,1.1,13.56,13.56,0,0,0-5.5-6.1A1.66,1.66,0,0,1,94.4,43.32Z" style="fill:#4a4144"/><path d="M104.47,53.45A8.32,8.32,0,0,0,101,48c-1.46-1.07-2.83-.6-3.76,1s-.88,3.63,1.49,5.43a3,3,0,0,0,2.62.48l-.19,1.64A6.74,6.74,0,0,0,104.47,53.45Z" style="fill:#4a4144"/><path d="M104.47,53.45a8.45,8.45,0,0,0-2.15-3.64c-1.42-1.12-3-1.37-3.95.24a3.14,3.14,0,0,0,1,4.35,2.21,2.21,0,0,0,2.35,0l-.55,2.19A6.74,6.74,0,0,0,104.47,53.45Z"/><path d="M19.46,94.69s3.55,2.16,25.46,6.13S106.1,113,120.3,106.35c3.6-1.57,9.74,2,1.9,4.15s-24.08,1.35-66.63-5.79C23.94,98.36,19.79,96,19.46,94.69Z" style="fill:#282828"/><path d="M77.46,100.24s-1.77-.5-3.37,3.46c-2.61-.15-2.43-.46-2.43-.46s1.6-3.93,3.23-4.39S77.46,100.24,77.46,100.24Z" style="fill:#eaeaea"/><path d="M74.3,98.54s-1.91-1-3.94,4.55l-2.62-.15s2.36-5.34,4-5.79S74.3,98.54,74.3,98.54Z" style="fill:#eaeaea"/><path d="M13,95s3.68,1.82,25.85,4.6,62,8.72,75.93,2.17c3.53-1.56,9.87,1.42,2.1,3.68s-24.1,2.13-67.15-2.74C17.69,98.18,13.41,96.2,13,95Z" style="fill:#282828"/></g></g></svg>
