<svg class="S" xmlns="http://www.w3.org/2000/svg" viewBox="0 0 126 126"><g style="isolation:isolate"><g id="design"><g id="Layer_4" data-name="Layer 4"><path d="M40.93,50.6l3.36-2.5,3.79,3.48-4.53,3.05Zm51.92,2.49,5.85,2.3,2.29-4a39.66,39.66,0,0,0-3.25-2.52A9.85,9.85,0,0,1,95.51,47Zm-28,51.15s.12.67-1.33,2.05.22,1.85-3.11,2.27-2,2.6-2,2.6l9.26,2.94,1.57-7.65ZM54.87,3.46c.46,2.42-2.32,4.82-5.54,5.42s-6.88-.6-7.33-3S44.46.74,47.68.13,54.42,1,54.87,3.46Z" style="fill:#4a4144"/><path d="M42.7,25.61,46.85,38,42.2,35.84A38.65,38.65,0,0,1,41.46,32a8.38,8.38,0,0,0-1.21-3.5ZM82.42,38.75A12.67,12.67,0,0,0,84.73,43c1.57,1.74,3.33,2.44,4.08,3.64s4,1.46,4,1.46L84.73,33.91ZM60.91,11.32a19.93,19.93,0,0,1,7.28,1.39A15.8,15.8,0,0,1,75,17.53c1,1.12-1.82,4-1.82,4L60.38,14.67Z" style="fill:#cc8a11"/><path d="M53.63,46.64l.54,7.25s3.56,15.36,3.56,15.49,1.46,6.2,1.46,6.2A23.28,23.28,0,0,0,59.47,81c.49,3.41,2.24,6.93,2.79,10S66,98.8,66,98.8l-3.5-30.14.69-12.83L76.68,51l-.82-5.62Z" style="fill:#6b271a"/><path d="M93.54,65.43c1.2,2.25,3.82,6.57,3.82,6.57A28.46,28.46,0,0,1,103,76.8c2.16,2.59,2.74,6.62,4.25,10a8,8,0,0,1,0,6.39L88.66,68.33Z" style="fill:#6b271a"/><path d="M47.57,32.45a32.79,32.79,0,0,1,5.81,12.12C67.42,51.31,77,39.46,77,39.46l-1.62-9.72c-7.28-6.18-6.06-12.75-3.77-15a20.9,20.9,0,0,0-9-1.3,20,20,0,0,1,5.65-.69,20.9,20.9,0,0,0-9.62-1.29,11.08,11.08,0,0,1,1.32,4.46c.39,4.95-2.59,8.95-6.66,8.95-2.91,0-5.6-2.1-7-5q-.47-.62-.87-1.23a2.78,2.78,0,0,1-.95-.2,4,4,0,0,1-1.77-1.68l-.14.08c-.4.26-.79.53-1.17.83A18.32,18.32,0,0,0,47.57,32.45Z" style="fill:#f6a714"/><path d="M58.57,11.42c.26,6.43-3.47,8.81-3.47,8.81-1.6,2.6-4.87,3.47-7.25,1.38a13.92,13.92,0,0,1-1.65-1.78c1.43,3,4.12,5.05,7,5.05,4.07,0,7.06-4,6.66-9A11.26,11.26,0,0,0,58.57,11.42Z" style="fill:#c98910"/><path d="M75.67,40.86A15,15,0,0,0,77,39.5l-1.62-9.71a18.12,18.12,0,0,1-3.8-4.34,12.14,12.14,0,0,1-1.26-2.74,10,10,0,0,1-.48-2.88c-.83,3.49-.19,7.86,3,10.61C73.83,33.91,74.78,37.33,75.67,40.86Z" style="fill:#d1d3d4;mix-blend-mode:multiply"/><path d="M75.34,29.73c1.77,2.41,5.46,6.92,8.9,11.34a13.21,13.21,0,0,1-.08-4.21C86.33,44.5,89,45.8,91.52,51.58a9.59,9.59,0,0,0,4.69-3.83c-2.92-2.69-8.82-14.17-11.4-18.1-3.16-4.75-8.64-11.62-13.22-15C69.29,16.94,68,23.54,75.34,29.73ZM41.3,17.6c-3.77,3-2.88,6.46-1,10.87A24.55,24.55,0,0,1,41.46,32a15.2,15.2,0,0,0,.63-3c.53,2.53-.06,6,.16,8.79a20.06,20.06,0,0,0,1.53,5.52,13.41,13.41,0,0,1,.51,4.8c1.05,2,4.09,2.94,5.9,1.16,0,0,1.32-10.29-2.57-16.82C40.23,25.7,41.3,17.64,41.3,17.6Z" style="fill:#f6a714"/><path d="M46.67,33.78c1,3.15,2.75,9.88,2.11,16.27a3.15,3.15,0,0,0,1.36-.78,36.1,36.1,0,0,0-.91-12.93,17,17,0,0,0-1.66-3.89A19.25,19.25,0,0,1,42,23.72S42.52,29.77,46.67,33.78Z" style="fill:#adafb0;mix-blend-mode:multiply"/><path d="M71.62,14.67c-2.3,2.27-3.56,8.87,3.76,15.06-4.81-6.38-3.37-11.3-1.75-13.4C72.94,15.71,72.25,15.15,71.62,14.67Z" style="fill:#adafb0;mix-blend-mode:multiply"/><path d="M91.6,51.54a24.3,24.3,0,0,0,1.52,3.71,21.51,21.51,0,0,1,1.47,4.63c.4,1.35,2.19,1.7,2.25-.36a12.22,12.22,0,0,0-.41-2.89s2,1.57,2.25,3.35.91,2.21,1.86.59a12.9,12.9,0,0,0,1.71-6.76,6.29,6.29,0,0,0-2.74-3.74,5.06,5.06,0,0,1-3,2,5.87,5.87,0,0,0,1.75-2.76,6.72,6.72,0,0,1-4.21,2,7.62,7.62,0,0,0,2.93-3c-.25-.19-.49-.37-.71-.57A9.62,9.62,0,0,1,91.6,51.54ZM44.29,48.1l-1,.71a10.8,10.8,0,0,0,2.53,2.24A8.17,8.17,0,0,1,42,49.7a13.56,13.56,0,0,0-2.1,1.9c-3.7,4.51,1.16,7.74,3.45,6,1.54-1.16,3.39-4.45,5.5-4.88-.25.54-.53,1.19-.79,1.8a4.3,4.3,0,0,1,.39,1.4c.33,2.25,1.6,1.67,2.11.13a10.69,10.69,0,0,0-.46-6.77A3.78,3.78,0,0,1,44.29,48.1Z" style="fill:#231f20"/><path d="M53.38,44.56c.14,1,.25,2.1.36,3.15,2.83,1.33,9.79,4,20.93-.56-6.46,5.12-15.06,4.71-19.7,3.74,3.31,1.75,8.64,2.44,13.31,2-3.24,1.69-10,1.76-14.15.5.65,8.41.8,13.38,5.06,22.19a48.61,48.61,0,0,1,.94-5.07c.68,5.14.45,9.17,1.31,15.39.75,5.58,2.64,13.38,2.5,17.58a9.93,9.93,0,0,1-.44,2.81c4.88.33,5.84,11.1,11.37,6.8a86.47,86.47,0,0,0-4.14-33.38C69.47,72.45,70,61.62,71,61s5.81,2.41,9.56,6.6S92,80.25,92,80.25c2,2.33,3.89,6.64,5.39,9.21,3.15,5.53,5.51,10.75,8.41,15.54a11.3,11.3,0,0,1,6.31-6.56l-.44-1.53c-3.65-8.41-6-16-13.07-21.75-3.5-2.83-5.12-4.58-6.09-6.2,2,1.38,3.62,2.18,4.88,3a66.65,66.65,0,0,1-5.62-10.42c-1.89-4.74-5-11.69-7.59-14.3s-7.26-7.78-7.26-7.78S67.42,51.31,53.38,44.56Z" style="fill:#822f20"/><path d="M53.38,44.56c.07.46.12.91.17,1.35,5.54,4,16.44,3,22.55-2.31a70.47,70.47,0,0,1,7.36,6.78C86.61,54,91,59.84,92.28,62.54h0c-.16-.35-.29-.69-.43-1C90,56.75,86.79,49.8,84.26,47.2c-1.41-1.46-3.49-3.69-5.08-5.41L77,39.41S67.42,51.31,53.38,44.56ZM73.91,92.64c-2.22-11.41-12-18-3.15-31.12-.81,2.37-1.12,11.67,0,18.15A83.69,83.69,0,0,1,73.91,92.64Z" style="fill:#d1d3d4;mix-blend-mode:multiply"/><path d="M115.61,30c-.59-6.4-9.1-7.22-8.41.5.62,6.83,3,36.79,4.75,68a11.28,11.28,0,0,0-6.15,6.47,41.62,41.62,0,0,0,6.92,8.66c.19,4.14.36,8.23.51,12.22H120C119.07,86.29,116.31,37.6,115.61,30Z" style="fill:#231f20"/><path d="M112,100l.11,1.86a29.3,29.3,0,0,0-2.89,1A7.84,7.84,0,0,1,112,100Z" style="fill:#231f20"/><path d="M110.52,104.24a7.08,7.08,0,0,1,1.62-2.1l.07,1.37Z" style="fill:#231f20"/><path d="M72.49,120.59a11.43,11.43,0,0,0,2.37-7.53c-5.53,4.31-6.49-6.46-11.37-6.8-.06.17-.13.33-.2.49a7.11,7.11,0,0,1,3.37,4,13.65,13.65,0,0,0-4.21-2.66,6.46,6.46,0,0,1,2.21,3.15,13.78,13.78,0,0,0-4.27-2.69c-2.1.15-4.68-.68-6,1.42-15.45-9-31.09-18-36.5-21.67C15.1,86.47,12,84.5,9.39,82.43c-2.95-2.29-4.33.69-2.64,2.23,6.41,5.94,66.72,40.91,66.72,40.91l8.35.43Z" style="fill:#231f20"/><path d="M110.52,104.24c.61-.27,1.17-.5,1.69-.7l-.07-1.37A7.25,7.25,0,0,0,110.52,104.24Z" style="fill:#231f20"/><path d="M112,100a7.9,7.9,0,0,0-2.78,2.93,29.3,29.3,0,0,1,2.89-1Z" style="fill:#231f20"/><path d="M113.93,27.76c-1.67-2.76-5.54-2.7-5.79,1.42C109.18,26.64,111.94,26.31,113.93,27.76Z" style="fill:#525d66"/><path d="M45.34,18.6a15.38,15.38,0,0,0,2.52,3c2.49,2.22,6,1.12,7.49-1.81a13.89,13.89,0,0,0,1.33-6.08,7,7,0,0,1-1.41,1.74c-.84,2.55-3.45,3-5.39,1.05-.63-.62-1.05-.7-1.53.17A3.12,3.12,0,0,1,46,18.48,2.7,2.7,0,0,1,45.34,18.6Z" style="fill:#de7740"/><path d="M57.67,6.56l.57,2.22s-.38,4.46-3,6.73c-.84,2.55-3.45,3-5.39,1-.63-.62-1-.7-1.53.17A3.16,3.16,0,0,1,46,18.5c-3,.58-4.31-3.53-4.72-5.78C41.24,12.77,54.42,14.57,57.67,6.56Z" style="fill:#4a4144"/><path d="M42.25,14.45c.59,1.85,1.71,3.91,3.6,3.53a2.54,2.54,0,0,0,2-1.47c.63-1.21,1.54-1.22,2.45-.32C52,17.91,54.35,17.37,54.81,15a5.51,5.51,0,0,0-.33-2.87c-.2-.53-.5-.63-1.06-.37a15,15,0,0,1-1.59.69,22.67,22.67,0,0,1-9,1.05C42.05,13.46,42.05,13.84,42.25,14.45Z"/><path d="M42.7,14.3c.34,1,1,2.78,2.23,3.15a2.11,2.11,0,0,0,2.37-1A2.88,2.88,0,0,1,45,17c-1.18-.29-1.8-1.6-2.3-2.73Zm5.37,1.13c.74-.59,1.67-.43,2.54.42C51.79,17,53.33,17,54,15.75a2.27,2.27,0,0,1-3.2-.22,1.47,1.47,0,0,1-.1-.13c-.88-.83-2-1.05-2.65,0Z" style="fill:#fff"/><path d="M57.67,6.56C56,2.92,53.58.91,51.05.32a9.61,9.61,0,0,0-5,5.56A8.32,8.32,0,0,1,48.1.51,9.51,9.51,0,0,0,43,7a9.17,9.17,0,0,1,1.38-5.4c-3,2.1-4.72,6.19-3.15,11.15,0,0,13.18,1.86,16.43-6.21ZM55.1,20.23l.24-.43a13.89,13.89,0,0,0,1.33-6.08,13.25,13.25,0,0,0,1.57-5c1.61,8.51-3.14,11.54-3.14,11.54Z" style="fill:#231f20"/><path d="M48.81,18.92c.88.3,1.19.15,1.59-.3a1,1,0,0,1,1-.32,2.45,2.45,0,0,0-.75.85C50.09,19.89,49.28,19.66,48.81,18.92Z" style="fill:#954911"/><path d="M68.39,33.71c-.79-3.48-2.56-4.13-3.5-8.63A27.1,27.1,0,0,1,58,27.83a7.92,7.92,0,0,0,2.28.21c-3,1.47-5.26.18-10,.65,1.58,3.64,1.36,4.81,3.85,8.09a32.71,32.71,0,0,0,6.1,0,12.34,12.34,0,0,1-4.07-1.25C64.21,36.65,67.49,34.35,68.39,33.71Z" style="fill:#d1d3d4;mix-blend-mode:multiply"/></g></g></g></svg>
