<svg class="S" xmlns="http://www.w3.org/2000/svg" xmlns:xlink="http://www.w3.org/1999/xlink" viewBox="0 0 126 126"><defs><linearGradient id="linear-gradient" x1="-1361.15" y1="80.88" x2="-1279.61" y2="115.33" gradientTransform="matrix(-1, 0, 0, 1, -1245.26, 0)" gradientUnits="userSpaceOnUse"><stop offset="0" stop-color="#a4a7a9"/><stop offset="1" stop-color="#545456"/></linearGradient><linearGradient id="linear-gradient-2" x1="-1296.48" y1="105.85" x2="-1234.02" y2="129.58" gradientTransform="matrix(-1, 0, 0, 1, -1245.26, 0)" gradientUnits="userSpaceOnUse"><stop offset="0" stop-color="#fff"/><stop offset="1" stop-color="#c1c3c5"/></linearGradient><linearGradient id="linear-gradient-3" x1="-1329.83" y1="85.75" x2="-1326.77" y2="86.91" xlink:href="#linear-gradient-2"/><linearGradient id="linear-gradient-4" x1="-1282.71" y1="105.43" x2="-1276.87" y2="107.65" xlink:href="#linear-gradient-2"/></defs><g style="isolation:isolate"><g id="design"><path d="M19,81.18l-1.49,1.64a4.32,4.32,0,0,0-1,4l.73,2.88a2.4,2.4,0,0,0,1.32,1.59h0a1.56,1.56,0,0,0,1.89-.47L22.56,88a.4.4,0,0,1,.3-.15h0a.38.38,0,0,1,.23.69l-.83.62a1.84,1.84,0,0,0-.74,1.45v.09a1,1,0,0,0,1.15,1l.28-.06a3.09,3.09,0,0,0,2.2-1.82l1.38-3.29L27.62,84l-2.88-3.29-2.48-.56Z" style="fill:#3b605f"/><g style="mix-blend-mode:multiply"><path d="M20.48,90.77l.18-.24a.62.62,0,0,1-.32-.09l-.94-.59a.74.74,0,0,1-.28-.37l-.92-3.26a.64.64,0,0,1,0-.45l1.48-3.08a.58.58,0,0,1,.18-.23l1.57-1.23a.53.53,0,0,1,.15-.08.64.64,0,0,0,.3-.92l-2.89,1-1.49,1.64a4.32,4.32,0,0,0-1,4l.73,2.88a2.4,2.4,0,0,0,1.32,1.59A1.56,1.56,0,0,0,20.48,90.77Z" style="fill:#d1d3d4"/><path d="M23.86,87.58a.66.66,0,0,0-.75-.22l-.11,0a.66.66,0,0,0-.41.48l0,.15a.42.42,0,0,1,.3-.15.38.38,0,0,1,.23.69l-.83.62a1.84,1.84,0,0,0-.74,1.45v.09a.41.41,0,0,0,0,.11l0-.11a.67.67,0,0,1,.23-.27l1.68-1.12a.58.58,0,0,0,.2-.21l.37-.63a.64.64,0,0,0,0-.7Z" style="fill:#d1d3d4"/></g><path d="M24.9,74.87,19,81.18s6.85-1.21,7.5,5.33l2.46-2a6.85,6.85,0,0,0,1.31-9.32h0A3.49,3.49,0,0,0,24.9,74.87Z" style="fill:#f6a714"/><path d="M27.83,78l-1.58-1.14L25.79,75l1.6-1.26a3.42,3.42,0,0,0-2.49,1.11L19,81.18a8.77,8.77,0,0,1,2.51,0l1.18-1-.44-.81L24,76.84l1.49.86Z" style="fill:#d1d3d4;mix-blend-mode:multiply"/><path d="M91.76,12.27s-5.54,2.3-6.69,3.83S83.93,18,81.82,18.58s-7.45,1.91-10.31,3.82-6.88,2.29-8.22,2.87a36.33,36.33,0,0,0-4.59,3.06S53,30.24,47.24,32s-12.8,8.21-15.67,11.65-4,9.75-3.82,13.76a47.34,47.34,0,0,0,.76,7.45c.19.58,9.94,2.29,12.61,4s8.6,5,10.7,4.4,3.25,0,7.27-1.91a5.52,5.52,0,0,0,3-7.07c-.57-1.34,4.59-14,5-14.52s.19-5.74.57-7.26.19-3.25,1-3.44a27.47,27.47,0,0,0,9.55-4.78c4-3.25,9.94-5.73,13.19-9.56a77.12,77.12,0,0,1,5.73-6.11Z" style="fill:#f6a714"/><path d="M39.33,42.27a8.35,8.35,0,0,0-5.24,8.14c0,6.39-.29,7.85.58,9.3l.88,1.45,1.74,2.91s4.65,2,5.81,2,1.75-4.36,1.75-7.26-3.49,3.48,1.45-4.36,7.27-6.4,7.85-7.56.07-2.06-1.56-3.5-6-2.61-6-2.61Z" style="fill:#d1d3d4;mix-blend-mode:multiply"/><path d="M53.52,40.18s1.36,2.86.21,3l-1.14.19s.76,2.87-.77,3.25a9.33,9.33,0,0,1-4.58,0A14,14,0,0,1,37.49,35.4c3.63.76,12.81-.2,12.81-.2l6.49.2A8.07,8.07,0,0,1,53.52,40.18Z" style="fill:#de7740"/><path d="M61.13,54.19c-1.75,1.45-3.78,1.45-4.36,5.52s-3.78,2-4.94,2.91-2.62.29-3.2,1.74-3.2.87-4.65.29a18,18,0,0,0-6.69-.58c-1.16.29,1.16,2.32,2.33,2.91s8.14,5.52,10.17,5.52a61.69,61.69,0,0,0,7-.58c2.32-.29,4.07.58,4.94-1.46s.29-3.71.43-6.21S61.13,54.19,61.13,54.19Z" style="fill:#d1d3d4;mix-blend-mode:multiply"/><path d="M110.36,9.14a4.87,4.87,0,0,0-1.07-3.42c-1.28-1.5-3-3.21-4.49-3s-4.07-.22-5.14.21-3,1.71-3.2,3-.83,3.9-1.47,4.33a10.73,10.73,0,0,1-2.52,1.33,3.82,3.82,0,0,1-1,.31s-1,.38,1.34,3.44,4.77,3.25,4.77,3.25,2.68-4.78,3.25-5.16,2.48-.38,2.48-1.53a6,6,0,0,1,.77-2.48s2.29-1,3.25,0S110,11.16,110.36,9.14Z" style="fill:#3b605f"/><path d="M94.5,11.14s5.36-1.92,5.36-2.87S101.58,6,101.58,6s2.6-1-.77-2.3c-1-.38-3.25.58-3.44,1.34C97,6.68,96,9.42,96,9.42Z" style="fill:#d1d3d4;mix-blend-mode:multiply"/><path d="M88.7,77.05a12.3,12.3,0,0,0,2.49,5.35,51.34,51.34,0,0,1,4.2,5.73V90s1.53.2-5.16,2.49S82,94.63,82,94.63s1.14-6.11-.39-7.83-2.29-6.88.39-8.41S88.7,77.05,88.7,77.05Z" style="fill:#f6a714"/><path d="M48.19,96.54a57.94,57.94,0,0,0,2.49,6.12L52,105.33s-17.39,6.5-18,6.69.58-2.87,1.91-3.82,3.44-5.54,2.49-8.6-1.15-4-2.1-5.16S48.19,96.54,48.19,96.54Z" style="fill:#f6a714"/><path d="M122.52,85.46s-23.88,8.79-44.33,15.48S30,117.37,26.6,119.66s-9.17,3.63-17,3.63-10.7-1.14-7.45-1.53,6.12-.57,13.57-3.63,46.05-17,62.87-22.93,29.8-9.17,32.29-10.51,7.83-4.77,11.46-4.77S128.26,83.36,122.52,85.46Z" style="fill:url(#linear-gradient)"/><path d="M125.58,80.87s-2.86-2.67-8.6.39-8.6,4.58-15.09,6.3S49.53,105,45.52,106.86s-33,11.59-33,11.59S3.8,121.19.17,121.76c-1.14,1.15,3.69,1.53,6,1.34s20.44-7.26,32.48-11.65,43.76-16,63.44-22.36c6.5-1.53,11.46-3.06,15.09-5.35C120.38,81.71,123.1,80.68,125.58,80.87Z" style="fill:url(#linear-gradient-2)"/><path d="M56.79,35.4c.49-.49-.95,4.77-4,5.73s-6.88,1.53-7.45-3.06C47.24,38.83,55.26,36.92,56.79,35.4Z" style="fill:#1a0510"/><path d="M43.42,38.26s-.39,4.2,1.33,6.88l.58,1-1.91-1.34a11.9,11.9,0,0,1-1.53-6.88A3.82,3.82,0,0,0,43.42,38.26Z" style="fill:#1a0510"/><path d="M89.68,79s3.64-.49.55-5.17c-2.53-3.82-3.44-3.51-3.82-4-1.15-1.53-3.36-6.26-4.5-8.55s-5-8.33-5.35-9.48-4.1-2.42-5.82-3S67.68,46.1,64.63,48s-5.74,2.86-5.54,10.12,0,10.7-1.53,11.66-5.35.19-5.35.19a47.58,47.58,0,0,0-13.38-6.69c-7.26-2.1-10.13-.19-12.42,1.91s-3.63,7.27-1.15,12.23,4.4,7.07,4.4,8.79,2.64,9.46,2.45,9.27,2.63,4.23,6.07,4.61,5.43-2.79,7.15-1.84S49,96.92,49,96.92s.38-3.44-1.34-5.73-4.2-8.41-4.2-8.41,3.82,5.35,10.12,5.74S71.31,80.11,73.8,77.43a44.75,44.75,0,0,0,3.44,6.88,5,5,0,0,0,3.63,2.1s-1.15-2.67-.38-4.39A4.75,4.75,0,0,1,83.73,79C85.65,78.2,88.73,79,89.68,79Z" style="fill:#822f20"/><path d="M83.73,79s-2.84-3.55-2.55-5.59-1.45-4.65-3.48-5.81-1.75,2.61-2-1.17.29-7.26-2-7.84-4.36-3.2-4.36-3.2c2-2.33,2-.29,2-2.33s1.16-.29,0-2a14.56,14.56,0,0,0-3.2-3.2s6.17-.19,8.46,4,6.08,11.73,7.24,12.89,2.91,5.81,4.94,6.69,5.08,5.38.94,7.63C87.29,78.89,83.73,79,83.73,79Z" style="fill:#d1d3d4;mix-blend-mode:multiply"/><path d="M73.8,77.43s-2.5-4.93-3.08-6.38-.29-2.33-1.74-3.2a5.27,5.27,0,0,0-3.2-.58s1.16,0,1.45,2.32-.87,2.62-1.74,3.2-6.69,2.32-7.56,2.62-2.33-.87-6.11-2.18-7.55-1.89-6.39-.44.58,3.49-.87,2a23.27,23.27,0,0,1-2.91-3.19c-.58-.88-2.62-1.46-2.62-1.46a8.83,8.83,0,0,0-.29,4.65c.59,2.33.3,2.91,2.33,5.53l2,2.61s4.9,5.3,10.44,5.56S66.65,84.13,68.39,83,73.8,77.43,73.8,77.43Z" style="fill:#d1d3d4;mix-blend-mode:multiply"/><path d="M29.44,64.94s-3.78,2.62-.87,5.81,2.62,1.17,2.91,3.2-.29,1.75-.29,4.07.87,6.69,1.45,6.69,4.65,3.19,7.27,5.23,1.74,1.74,2,3.78-1.16.29.29,2-1.16,1.17,1.46,1.75,4.36-.17,4.5-1a3.86,3.86,0,0,0,.15-2.24A79.15,79.15,0,0,0,44,86.16c-1.17-1.74-2.33-1.74-3.2-2.91S38.44,82,39,80.93c1.17-2,1.46-2.33-.58-3.2s-1.74,1.45-2-.87S37,68.14,29.44,64.94Z" style="fill:#d1d3d4;mix-blend-mode:multiply"/><path d="M95.14,16.4a30.94,30.94,0,0,0-5.24,4.07c-2.32,2.32-6.39,2.61-8.43,5.23s-3.77,4.36-4.36,5.81-2.9,1.46-3.48,2.33-2.33.58-3.49,1.45A23.41,23.41,0,0,1,67.23,37l-1.45,2.32,3-.7a13.82,13.82,0,0,0,4-1.33c3.53-1.68,7.22-4.46,9.6-5.82C88.45,28,97.11,18.58,97.11,18.58Z" style="fill:#d1d3d4;mix-blend-mode:multiply"/><path d="M83.73,79c.63-.28,1.52.24,1.88,2.48s-.47,2.6.94,3.42,2-1.77,1.77,1.66.83,4.6.83,4.6l-4.72,1.65s1.3-4.6.71-5.55-1.06-.47-2-1.65S81.83,84,82,83.33a10.72,10.72,0,0,0-.23-2.48S81.39,80,83.73,79Z" style="opacity:0.43;fill:url(#linear-gradient-3)"/><path d="M42.91,99.14a12.9,12.9,0,0,1,.7,2.59c.12,1.07-2.24.48-1.65,1.54s1.77,1.29,2,1.88-.47,2.36-.47,2.36l-9.32,3.42a8.94,8.94,0,0,1,3-2.94c1.65-.83,1.88-2.6,2.24-4.13a10.75,10.75,0,0,0,0-3.54S42.2,100,42.91,99.14Z" style="opacity:0.43;fill:url(#linear-gradient-4)"/><path d="M36.68,34.54,37,35.93l.79,1.4a2.75,2.75,0,0,1,.73,1.12c.27.73.33.93.6.86s.66-.13.53-.53-.8-.2-.13-.39.46-.47.66-.2-.6-.53,0,0,.2.79.6.53.79-.4.79-.6a3.36,3.36,0,0,0-.07-.53Z" style="fill:#968668"/><path d="M56.79,35.4s2.3-15.1-12.23-15.29c-9.93-.57-9.17,12.42-9.17,12.42s2.35,5.79,10,5.86A21.34,21.34,0,0,0,56.79,35.4Z" style="fill:#3b605f"/><path d="M43,20.86s-3.2,11.72,5.23,16.47c-8.13.39-11.36-3-11.36-3S33.7,24.93,43,20.86Z" style="fill:#a8abad;opacity:0.39;mix-blend-mode:multiply"/></g></g></svg>
