<svg class="S" xmlns="http://www.w3.org/2000/svg" viewBox="0 0 126 126"><g style="isolation:isolate"><g id="design"><g id="Layer_4" data-name="Layer 4"><path d="M51.56,12.35c.65,3.62-5.5,4.49-11,4.49s-10.32.46-10.32-3.22S33.94,3.51,40.61,3.51C46.06,3.51,50.81,8.19,51.56,12.35Z" style="fill:#2a4544"/><polygon points="16.3 80.77 13.32 92.33 11.01 110.02 21.35 89.35 20.94 79.77 16.3 80.77" style="fill:#662519"/><path d="M25.27,57.69l20,12.65-15.42,5-13.1-3.27L14.65,59ZM15.6,28.19l11.34.45-1-6-4.16.83-7.11.81Zm45,36.87L65,58,68.29,51l-7.66,4.46L55.69,66Z" style="fill:#cc8a11"/><path d="M29,19.19c.51,3.78,3.4,6.17,7,7.72l-10,.23v8.34l21.55-2.81C50,34,51.1,36.33,51.36,39.15a11.24,11.24,0,0,1-.89,4c-1.85,4.09-3.59,6.74-3.74,9.39s.87,9.75,5,21.23c-17.22-3.86-34.7.76-34.7.76-.08-.79-.17-1.59-.28-2.42a89,89,0,0,1,24.36-1.9A69.5,69.5,0,0,0,17.79,69,85.41,85.41,0,0,1,36.5,66.83a77,77,0,0,0-20.79-.51C15,56.44,10.84,46.53,9.35,37.38c-.8-3.45-.69-6.91.78-9.55,2.71-4.87,9.13-4.8,13.63-2a6.58,6.58,0,0,0-2-2.38A11.14,11.14,0,0,0,29,19.19Z" style="fill:#f6a714"/><path d="M25.92,35.48l21.55-2.81a44.54,44.54,0,0,1-4.32,2Z" style="fill:#637a25"/><path d="M51.36,39.15a13,13,0,0,1-.26,2.06S39.21,52.93,24.82,54.87c-7-3.68-12-9.1-13.55-16.81a11.89,11.89,0,0,0,1.12,2.26c1.91,3,5.67,7.12,13,10.63C25.35,51,39.71,48.5,51.36,39.15Z" style="fill:#d1d3d4;mix-blend-mode:multiply"/><path d="M52.82,26.52l-26.9.62v8.34l21.55-2.81a11.3,11.3,0,0,0,4-4,15.13,15.13,0,0,1,1.34-2.21Zm17.92,2.15,2.54-1.27H87.45l-6.17,1.69,15.94-.75c1.34-.06,2-.71,1.66-2.05l-.66-2.7H56.83a7.58,7.58,0,0,1-.23.94c-.4,1.34-1,2.35-.07,2.4a35,35,0,0,0,6.79-.33,7.6,7.6,0,0,1,2.85-.14C67.81,26.2,69.48,27.31,70.74,28.67Z" style="fill:#763e30"/><path d="M51.69,73.8C56.36,82.14,58.48,97.18,58,110a37.19,37.19,0,0,1-11.49,12.47c-2.83-8.58-5.11-14.57-7.94-22.88-2.16-6.33-4.25-7.17-6.59-.13-.37,1.12-.74,2.34-1.13,3.59a193.16,193.16,0,0,1-7.19,19.32A54.65,54.65,0,0,1,11,110c.92-7.69,3.76-16.78,7.5-25.22a37.78,37.78,0,0,0-5.19,7.53c1-6,2.21-11.88,3.63-17.77C17,74.56,34.47,70,51.69,73.8Z" style="fill:#822f20"/><path d="M33.16,96.57a42.11,42.11,0,0,0-2.31,6.52,193.16,193.16,0,0,1-7.19,19.32s6.23-18,8-34.6c8.19,4.15,10.67,14,10.67,22.2-1.28-3.44-2.55-6.88-3.74-10.36-1.37-4-2.71-5.81-4.11-4.81A5.18,5.18,0,0,0,33.16,96.57Z" style="fill:#d1d3d4;mix-blend-mode:multiply"/><path d="M51.69,73.8a32,32,0,0,1,1.51,3.12c-5.24-.86-10.65.45-15.1.33-10.68-.27-18.22-.59-21.8.2.22-1,.45-1.93.68-2.89C17.33,73.12,34.47,70,51.69,73.8Z" style="fill:#d1d3d4;mix-blend-mode:multiply"/><path d="M50.29,69.68a7.62,7.62,0,0,0,4.49.54C57.89,69.5,62,63.69,65,58a22.62,22.62,0,0,1-6.12,5.41,72.72,72.72,0,0,0,8.78-11.65,9,9,0,0,1-5.84-3.18L57.7,54.5l-1.19-6.06a23.34,23.34,0,0,0-.07-9.88,11.76,11.76,0,0,0-1-2.5,41.71,41.71,0,0,1-4.14,3.1,11.24,11.24,0,0,1-.89,4c-1.85,4.09-3.59,6.74-3.74,9.39C46.6,54.88,47.36,60.61,50.29,69.68Z" style="fill:#f6a714"/><path d="M61.78,48.6A15,15,0,0,0,64,44.09a48.9,48.9,0,0,1-7.64-5.89,10.69,10.69,0,0,0-.48-1.34c2.17,1.81,4.87,4.49,8.28,6.44,0-.21,0-.43.06-.64.09-2.81.14-6.17-.46-6.91a17.64,17.64,0,0,1-1.45-1.81,1.37,1.37,0,0,1-.19-1.44,25.17,25.17,0,0,1-2.87,1c-2.16.59-4.1.51-5.55,1.74a13.54,13.54,0,0,1,3.42-.2c-2,1-3.48,2.76-5.76,4.09-.27-2.8-1.36-5.11-3.9-6.46a11.3,11.3,0,0,0,4-4,15.13,15.13,0,0,1,1.34-2.21l-4.8.12.72-1.3C50,25.39,50,24.11,50,23.17V21.46a19.85,19.85,0,0,1-8.39-1.23,34.17,34.17,0,0,0,8.39-.5v-1h1.81V17.8h3.62v3l-2.52.91h59.66v-1.6h-1.53v-2h6.09v7h-4.56V24.6l2.87-1H56.83a7.58,7.58,0,0,1-.23.94c-.4,1.34-1,2.35-.07,2.4a35,35,0,0,0,6.79-.33,7.6,7.6,0,0,1,2.85-.14c2.49-.38,5,2.4,6.13,4.38s1,5.8.55,7.41S70.1,45,70.1,45a2.17,2.17,0,0,1,0,.47,17.51,17.51,0,0,0,8.65-.66A48.17,48.17,0,0,0,93.77,32.54,4.8,4.8,0,0,1,95,33.84a4.38,4.38,0,0,0-4.51-3.7V28.66l3.74-.18c2,1.83,1.92,5.46.57,7.66-2.1,3.42-6.93,6.87-9.35,8.25a10.88,10.88,0,0,1-5.21,1.36,5.26,5.26,0,0,0,1.26-1.4c-3,2-8.6,2.49-11.58,2-.33,1.76-1.06,4.21-2.31,5.47a9,9,0,0,1-5.84-3.18Zm51.49-28.49v1.06h3.22V20.11ZM63,32.15c2.2.35,3.6,3.27,4.39,5.07a15.65,15.65,0,0,0-.27-2.36.58.58,0,0,1,.14-.34c.23-.29.56-.54-.39-1.32a8.62,8.62,0,0,0-3.26-1.52A1.76,1.76,0,0,1,63,32.15Z" style="fill:#231f20"/><path d="M22.61,31.68a22.18,22.18,0,0,1,4.66,6.94,57.34,57.34,0,0,0,20.2-5.95C50,34,51.1,36.33,51.36,39.15c-11.65,9.34-26,11.8-26,11.8-7.28-3.51-11-7.59-13-10.63C7,31.74,15.63,24.25,22.61,31.68Z" style="fill:#e69c13"/><path d="M52,16.75a59.29,59.29,0,0,1-21.61-.87A11.29,11.29,0,0,1,34,6.11,26.44,26.44,0,0,1,44.44,9.36,11.59,11.59,0,0,0,38,4.73a24,24,0,0,1,10.4,4,11,11,0,0,0-6.66-5.22C47.09,3.85,52.17,8,52,16.75Z" style="fill:#231f20"/><path d="M29,19.19a11.48,11.48,0,0,0,1.37-3.32A58.63,58.63,0,0,0,50,17v2.75a34.17,34.17,0,0,1-8.39.5A19.66,19.66,0,0,0,50,21.46v1.68c0,.94,0,2.25-1.34,2.19L48,26.63l-12,.28C32.37,25.35,29.48,23,29,19.19Z" style="fill:#de7740"/><path d="M48.69,25.33l-.49.89A3.87,3.87,0,0,1,46.71,25,14.82,14.82,0,0,0,48.69,25.33Z" style="fill:#954911"/><path d="M29,19.19a10.81,10.81,0,0,0,.66-1.26,15.74,15.74,0,0,0,6.29,9C32.37,25.35,29.48,23,29,19.19Z" style="fill:#954911"/><path d="M30.23,16.27a2,2,0,0,1,.1-.4A58.67,58.67,0,0,0,50,17v1.72C39.91,20,31.18,17,30.23,16.27Z" style="fill:#954911"/><path d="M50.29,69.68a9.16,9.16,0,0,0,2.57.65,104.94,104.94,0,0,1-2.7-12.91c-.28-2.32,0-4.84,1.24-9.23a28.75,28.75,0,0,0,1.42-10,13.44,13.44,0,0,1-1.46,1,11.24,11.24,0,0,1-.89,4c-1.85,4.09-3.59,6.74-3.74,9.39-.13,2.31.63,8,3.56,17.11Zm-23-31.06a36.33,36.33,0,0,1-7.87.08,28.53,28.53,0,0,0,6.86-2.23,13,13,0,0,1,1,2.14ZM57.71,54.5,57,51c-3.63,4.48-3.35,12-3.34,12.17C53.71,63,54.51,57.78,57.71,54.5Z" style="fill:#d1d3d4;mix-blend-mode:multiply"/><polygon points="68.96 24.56 94.95 24.56 92.36 25.96 68.96 24.56" style="fill:#a75b47"/><path d="M38.55,19.33c-1.62-.09-2.11,2.32-.28,3.29a2.33,2.33,0,0,1-2-2.65l0-.16C36.67,18.75,37.93,18.88,38.55,19.33Z" style="fill:#954911"/></g></g></g></svg>
