<svg class="S" xmlns="http://www.w3.org/2000/svg" xmlns:xlink="http://www.w3.org/1999/xlink" viewBox="0 0 126 126"><defs><linearGradient id="linear-gradient" x1="32.94" y1="32.52" x2="122.95" y2="32.52" gradientTransform="translate(0 66)" gradientUnits="userSpaceOnUse"><stop offset="0"/><stop offset="0.21" stop-color="#040404" stop-opacity="0.98"/><stop offset="1" stop-opacity="0"/></linearGradient><radialGradient id="radial-gradient" cx="63" cy="949.52" r="59.01" gradientTransform="matrix(1, 0, 0, -0.52, 0, 557.64)" gradientUnits="userSpaceOnUse"><stop offset="0" stop-color="#808184"/><stop offset="0.23" stop-color="#7d7e81"/><stop offset="0.4" stop-color="#747578"/><stop offset="0.55" stop-color="#656668"/><stop offset="0.63" stop-color="#58595b"/><stop offset="0.64" stop-color="#57585a"/><stop offset="0.85" stop-color="#464648"/><stop offset="1" stop-color="#404041"/></radialGradient><radialGradient id="radial-gradient-2" cx="52.43" cy="1691.97" r="31.75" gradientTransform="matrix(1, 0, 0, -0.24, 0, 452.93)" gradientUnits="userSpaceOnUse"><stop offset="0" stop-color="#571010"/><stop offset="1" stop-color="#e52828"/></radialGradient><linearGradient id="linear-gradient-2" x1="-1066.22" y1="621.5" x2="-979.23" y2="621.5" gradientTransform="matrix(0.64, 0, 0, -0.57, 712.14, 396.56)" gradientUnits="userSpaceOnUse"><stop offset="0.01" stop-opacity="0.4"/><stop offset="1" stop-opacity="0"/></linearGradient><linearGradient id="linear-gradient-3" x1="3" y1="628.63" x2="63" y2="628.63" gradientTransform="matrix(1, 0, 0, -1, 0, 712)" gradientUnits="userSpaceOnUse"><stop offset="0.01" stop-color="#fff" stop-opacity="0.6"/><stop offset="1" stop-color="#fff" stop-opacity="0"/></linearGradient><radialGradient id="radial-gradient-3" cx="-1029.74" cy="960.68" r="19.15" gradientTransform="matrix(0.57, 0.15, 0.05, -0.17, 570.89, 391.1)" xlink:href="#linear-gradient-3"/><radialGradient id="radial-gradient-4" cx="-2701.68" cy="-1052.19" r="19.15" gradientTransform="matrix(0.25, 0.18, 0.08, -0.11, 775.97, 420.68)" xlink:href="#linear-gradient-3"/><linearGradient id="linear-gradient-4" x1="3435.91" y1="628.63" x2="3495.91" y2="628.63" gradientTransform="translate(3558.91 712) rotate(180)" gradientUnits="userSpaceOnUse"><stop offset="0" stop-opacity="0.6"/><stop offset="1" stop-opacity="0"/></linearGradient><radialGradient id="radial-gradient-5" cx="51.89" cy="667.55" r="42.92" gradientTransform="matrix(1, 0, 0, -1, 0, 712)" gradientUnits="userSpaceOnUse"><stop offset="0" stop-color="#e52828"/><stop offset="1" stop-color="#571010"/></radialGradient><linearGradient id="linear-gradient-5" x1="68.79" y1="673.17" x2="56.45" y2="673.05" gradientTransform="matrix(1, 0, 0, -1, 0, 712)" xlink:href="#linear-gradient-2"/><linearGradient id="linear-gradient-6" x1="61.27" y1="688.07" x2="96.94" y2="688.07" gradientTransform="matrix(1, 0, 0, -1, 0, 712)" xlink:href="#linear-gradient-2"/><linearGradient id="linear-gradient-7" x1="245.67" y1="-49.15" x2="272.76" y2="-49.15" gradientTransform="matrix(0.96, 0.42, 0.4, -0.92, -208.6, -86.32)" gradientUnits="userSpaceOnUse"><stop offset="0.01" stop-color="#fff" stop-opacity="0.6"/><stop offset="0.75" stop-color="#fff" stop-opacity="0"/></linearGradient></defs><g id="Layer_3" data-name="Layer 3"><path d="M123,91.91c0,3-15.34,13.21-45,16.06C54.87,110.2,37.7,104.21,33,99.23c-2-2.14,33-2.24,61.08-8.64C110.25,86.93,123,88.86,123,91.91Z" style="fill:url(#linear-gradient)"/></g><path d="M123,68.33a22.51,22.51,0,0,0-3.76-12.39C113.81,43.54,90.74,34.19,63,34.19S12.19,43.54,6.81,55.94A22.51,22.51,0,0,0,3.05,68.33V81.65c0,15,26.82,27.13,60,27.13s60-12.2,60-27.13V68.33Z" style="fill:url(#radial-gradient)"/><path d="M107,46.89C107,53,87.49,58,63.51,58S20,53,20,46.89V44.05c1.82-5.69,85-5.69,87,0Z" style="fill:#af2222"/><ellipse cx="63.51" cy="44.15" rx="43.49" ry="11.08" style="fill:url(#radial-gradient-2)"/><ellipse cx="59.85" cy="43.24" rx="27.74" ry="6.3" style="fill:url(#linear-gradient-2)"/><path d="M63,106.44c-33.13,0-59.95-12.19-59.95-27.13,0-.71-.11-6.61,0-11.79a20.79,20.79,0,0,1,1.52-7.21C8.84,73.31,32.92,82.66,63,82.66Z" style="fill:url(#linear-gradient-3)"/><path d="M42.27,74.64c-.61,2.13-6.1,2.43-12.19.71S19.3,70.57,19.91,68.44,26,66,32.11,67.73,42.78,72.6,42.27,74.64Z" style="fill:url(#radial-gradient-3)"/><path d="M16.56,64.88c-1,1.42-4,1-6.81-.91S5.59,59.39,6.6,58s4-1,6.81.91S17.58,63.46,16.56,64.88Z" style="fill:url(#radial-gradient-4)"/><path d="M63,106.44c33.13,0,60-12.19,60-27.13,0-.71.11-6.61,0-11.79a20.79,20.79,0,0,0-1.52-7.21c-4.27,13-28.35,22.35-58.43,22.35Z" style="fill:url(#linear-gradient-4)"/><path d="M63,90.59c-30.08,0-55.69-10.26-59.95-23.37v4.16c0,15,26.82,27.14,60,27.14s60-12.2,60-27.14V67.62C118.69,80.73,93.08,90.59,63,90.59Z" style="fill:#e52828"/><path d="M63,101.67c-33.13,0-59.95-12.2-59.95-27.14v1.22c0,15,26.82,27.14,60,27.14s60-12.2,60-27.14V74.53C123,89.47,96.13,101.67,63,101.67Z" style="fill:#e52828"/><path d="M96.94,24.64c-.1-4.78-9-7.32-25.61-7.32-15.95,0-20.63,3.36-24.39,5.59-3.25,1.93-12.49,14-14.53,19A2.94,2.94,0,0,0,33,45.47c2.44,1.53,8.44,2.74,18.9,2.64,13.21-.1,17-2.94,17.69-4.37.5-.91-1.73-3.15-2.55-3.76-2-1.52-5.58-3.45-7.41-5.18S57,31.45,57.92,30c.3-.4.91-1.11,3.25-.81,3.66.41,10.16,1.83,16.06,1.63C87,30.43,97,29.42,96.94,24.64Z" style="fill:#e52828"/><path d="M67.17,39.78c-.41-.3-.92-.61-1.43-1-2.64.92-6.91,1.73-13.71,1.73-9.15,0-14.84-.81-17.79-2.13a31.1,31.1,0,0,0-1.83,3.35A2.94,2.94,0,0,0,33,45.27c2.44,1.52,8.44,2.74,18.9,2.64,13.21-.1,17-2.95,17.69-4.37C70.11,42.73,68,40.49,67.17,39.78Z" style="fill:url(#radial-gradient-5)"/><path d="M52,48c13.21-.1,17-2.95,17.68-4.37.5-.91-1.73-3.15-2.54-3.76-2-1.52-5.59-3.45-7.42-5.18S57.11,31.35,58,29.92c0,0-2.54-.4-1.73,3.76s3.05,4.47,3.15,7S52,48,52,48Z" style="fill:url(#linear-gradient-5)"/><path d="M71.33,17.22c16.57,0,25.51,2.54,25.61,7.32s-10,5.89-19.61,6.09c-5.9.11-12.4-1.32-16.06-1.62,0,0,17.28.1,23.07-.71s9.25-3.15,9.45-4.37C94.81,17.22,71.33,17.22,71.33,17.22Z" style="fill:url(#linear-gradient-6)"/><path d="M71.33,17.22c-15.95,0-20.63,3.35-24.39,5.59-3.25,1.93-12.49,14-14.53,19,0,0,11.69-16.46,20-19.91s30.79-5,35.87-3.36A119.85,119.85,0,0,0,71.33,17.22Z" style="fill:#fff;opacity:0.200000002980232;isolation:isolate"/><path d="M33.23,73.31c-1.73,4.07-9,4.68-16.16,1.63S5.48,66,7.31,61.93s9.05-4.67,16.16-1.62C30.58,63.56,35,69.35,33.23,73.31Z" style="fill:url(#linear-gradient-7)"/></svg>
