<svg class="S" xmlns="http://www.w3.org/2000/svg" xmlns:xlink="http://www.w3.org/1999/xlink" viewBox="0 0 126 126"><defs><linearGradient id="linear-gradient" x1="2649.94" y1="1371.33" x2="2647.26" y2="1385.19" gradientTransform="matrix(-0.62, -0.79, -0.79, 0.62, 2801.08, 1307.01)" gradientUnits="userSpaceOnUse"><stop offset="0" stop-color="#fdd7b5"/><stop offset="0.14" stop-color="#f7d1af"/><stop offset="0.33" stop-color="#e5c19f"/><stop offset="0.55" stop-color="#c8a785"/><stop offset="0.78" stop-color="#a08361"/><stop offset="1" stop-color="#765c3b"/></linearGradient><linearGradient id="linear-gradient-2" x1="3050.79" y1="792.71" x2="3058.32" y2="790.52" gradientTransform="matrix(-0.93, -0.36, -0.36, 0.93, 3217.6, 413.48)" gradientUnits="userSpaceOnUse"><stop offset="0" stop-color="#d6de23"/><stop offset="0.12" stop-color="#cbd129"/><stop offset="1" stop-color="#919336"/></linearGradient><linearGradient id="linear-gradient-3" x1="2850.64" y1="1949.7" x2="2867.89" y2="1940.64" gradientTransform="matrix(-0.4, -0.92, -0.92, 0.4, 3012.87, 1902.47)" xlink:href="#linear-gradient-2"/><linearGradient id="linear-gradient-4" x1="2488.71" y1="80.83" x2="2516.03" y2="-2.52" gradientTransform="matrix(-1, 0, 0, 1, 2550.14, 0)" gradientUnits="userSpaceOnUse"><stop offset="0" stop-color="#ec672a"/><stop offset="0.11" stop-color="#c65221"/><stop offset="0.26" stop-color="#9a3a17"/><stop offset="0.4" stop-color="#77270f"/><stop offset="0.55" stop-color="#5b1808"/><stop offset="0.7" stop-color="#470d04"/><stop offset="0.85" stop-color="#3b0601"/><stop offset="1" stop-color="#370400"/></linearGradient><linearGradient id="linear-gradient-5" x1="2478.16" y1="60.1" x2="2476.6" y2="34.37" gradientTransform="matrix(-1, 0, 0, 1, 2550.14, 0)" gradientUnits="userSpaceOnUse"><stop offset="0" stop-color="#d6de23"/><stop offset="1" stop-color="#919336"/></linearGradient><linearGradient id="linear-gradient-6" x1="4720.53" y1="1983.09" x2="4727.86" y2="1960.72" gradientTransform="matrix(-0.72, -0.11, -0.16, 0.99, 3765.54, -1381.02)" xlink:href="#linear-gradient-5"/><linearGradient id="linear-gradient-7" x1="3495.92" y1="1211.37" x2="3503.25" y2="1189" gradientTransform="matrix(-0.58, 0.45, 0.61, 0.79, 1329.26, -2457.53)" xlink:href="#linear-gradient-5"/><linearGradient id="linear-gradient-8" x1="1144.43" y1="-547.42" x2="1141.33" y2="-531.36" gradientTransform="matrix(0.62, -0.79, 0.79, 0.62, -250.94, 1307.01)" xlink:href="#linear-gradient"/><linearGradient id="linear-gradient-9" x1="780.44" y1="-99.18" x2="789.16" y2="-101.71" gradientTransform="translate(-667.46 413.48) rotate(-21.3)" xlink:href="#linear-gradient-2"/><linearGradient id="linear-gradient-10" x1="1884.55" y1="-290.72" x2="1904.55" y2="-301.22" gradientTransform="translate(-462.73 1902.47) rotate(-66.59)" xlink:href="#linear-gradient-2"/><linearGradient id="linear-gradient-11" x1="58.15" y1="81.7" x2="89.8" y2="-14.88" gradientTransform="matrix(1, 0, 0, 1, 0, 0)" xlink:href="#linear-gradient-4"/><linearGradient id="linear-gradient-12" x1="41.39" y1="56.2" x2="39.59" y2="26.38" gradientTransform="matrix(1, 0, 0, 1, 0, 0)" xlink:href="#linear-gradient-5"/><linearGradient id="linear-gradient-13" x1="1418.49" y1="1598.34" x2="1426.98" y2="1572.42" gradientTransform="matrix(0.72, -0.11, 0.16, 0.99, -1215.4, -1381.02)" xlink:href="#linear-gradient-5"/><linearGradient id="linear-gradient-14" x1="848.86" y1="2698.44" x2="857.36" y2="2672.52" gradientTransform="matrix(0.58, 0.45, -0.61, 0.79, 1220.88, -2457.53)" xlink:href="#linear-gradient-5"/><linearGradient id="linear-gradient-15" x1="48.94" y1="97.3" x2="49.65" y2="45.78" gradientTransform="matrix(1, 0, 0, 1, 0, 0)" xlink:href="#linear-gradient-4"/><linearGradient id="linear-gradient-16" x1="80.96" y1="94.86" x2="41.79" y2="9.73" gradientTransform="matrix(1, 0, 0, 1, 0, 0)" xlink:href="#linear-gradient-4"/></defs><path d="M89.08,71.05a5.34,5.34,0,0,1-1.53,4.77,9.2,9.2,0,0,1-5.42,2.69L78.9,76.25s2.65-1.73,3.27-4.21c-2.65,0-3.17.52-3.17.52l-.4-.93S82.26,69,85.11,68.4A4.42,4.42,0,0,1,89.08,71.05Z" style="fill:url(#linear-gradient)"/><path d="M91.05,38.2s3.49,7.89,6,14.14C95.84,54.5,94,55,91.36,55.14c-3.58-1.62-6.77-5.86-12.68-8.88C79.92,34.86,91.05,38.2,91.05,38.2Z" style="fill:url(#linear-gradient-2)"/><path d="M89.08,71.05c-4.55-1-4-2.65-4-2.65l3.74-14.8c4.36,3.12,8.21-1.26,8.21-1.26C96.87,61.17,92.48,66.33,89.08,71.05Z" style="fill:url(#linear-gradient-3)"/><path d="M49.18,85.12a17.25,17.25,0,0,0,1.7-3C53,76.46,64.83,61.85,64.83,61.85s-2.31,13-1.85,19.78a44.83,44.83,0,0,0-1.87,5.5c3.08.5,6.17,1,9.25,1.33a26.75,26.75,0,0,0,0-6.83,90,90,0,0,1,5.17-11.19c5.15-9,3.56-15.7,3.56-15.7s-19.55-12.6-23.82-7.08S43.07,72.49,42.38,79.22c-1.09-.1-3.84,1.69-6.28,4.18C40.46,83.78,44.82,84.41,49.18,85.12Z" style="fill:url(#linear-gradient-4)"/><path d="M58.36,40.61c3-6,12.69-8.46,20.39-8.88,0,0,11.63,2,13.26,8.2a9,9,0,0,1-4.51,9.52c-5.6,3-9,9.06-16.45,11.25-6.72,2-17.49-.15-17.71-7.12S58.36,40.61,58.36,40.61Z" style="fill:url(#linear-gradient-5)"/><path d="M68.73,34.63a8.3,8.3,0,0,1-1.38,11.19c-5.73,5.49-7.75,7-9.94,7.39A3.53,3.53,0,0,1,53.21,49C53.78,45.9,63.79,29.42,68.73,34.63Z" style="fill:url(#linear-gradient-6)"/><path d="M55.93,47.25a8.32,8.32,0,0,1,7.2,8.68c.06,7.93-.22,10.46-1.45,12.3a3.52,3.52,0,0,1-6,.15C53.87,65.86,48.75,47.28,55.93,47.25Z" style="fill:url(#linear-gradient-7)"/><path d="M87.36,24.66a7.58,7.58,0,0,1,.78,2.26,9.73,9.73,0,0,1-.07,2.9C87.53,34,86.48,38,86.41,42.18a3.44,3.44,0,0,1-.26,1.63A2.76,2.76,0,0,1,83.8,45a7.9,7.9,0,0,1-6.86-3.32,32.93,32.93,0,0,1-1.84-3.6c-.58-1.11-1.3-2.15-1.93-3.23a24.49,24.49,0,0,1-2.71-6.69c-.57-2.36-.7-5.1.88-6.93A6.58,6.58,0,0,1,73,19.88a8.73,8.73,0,0,1,8.29-.61A11.68,11.68,0,0,1,87.36,24.66Z" style="fill:#231f20"/><path d="M87.4,32.08a14.05,14.05,0,0,0-1.56-7.86,11.28,11.28,0,0,0-6.64-4.91,15.1,15.1,0,0,0-3.53-.55,8.9,8.9,0,0,1,5.64.51,11.68,11.68,0,0,1,6,5.39,7.58,7.58,0,0,1,.78,2.26,9.73,9.73,0,0,1-.07,2.9C87.53,34,86.48,38,86.41,42.18a6.7,6.7,0,0,1,0,.9c0-1,0-1.95.12-2.92C86.72,37.46,87.27,34.79,87.4,32.08Z" style="fill:#665a5e"/><path d="M82.8,30.2a11.06,11.06,0,0,0,5.32-.77c0,.13,0,.26-.05.39C87.53,34,86.48,38,86.41,42.18a3.44,3.44,0,0,1-.26,1.63A2.76,2.76,0,0,1,83.8,45a7.9,7.9,0,0,1-6.86-3.32,12.71,12.71,0,0,1-.9-1.61,17.27,17.27,0,0,1,.55-11.35A26.3,26.3,0,0,0,82.8,30.2Z" style="fill:#ed875a"/><path d="M85,44.58a3.12,3.12,0,0,0,.69-1.74c.15-.8.3-1.61.44-2.41a7.08,7.08,0,0,0-.75-1.8c-.22-.43-1.27-1.13-.85-1.58a2.33,2.33,0,0,1,2,.08.6.6,0,0,1,.11.41v.21a62.42,62.42,0,0,0,.84-8l.69-.27c0,.13,0,.26-.05.39C87.53,34,86.48,38,86.41,42.18a3.44,3.44,0,0,1-.26,1.63,2.23,2.23,0,0,1-1.5,1A1.77,1.77,0,0,0,85,44.58Z" style="fill:#f9bc8f"/><path d="M82.8,30.2a11.06,11.06,0,0,0,5.32-.77c0,.13,0,.26-.05.39-.08.65-.18,1.31-.29,2-4,1.68-9.28,1-11.3,3.95a5.62,5.62,0,0,0-.8,2.81,17.07,17.07,0,0,1,.91-9.84A26.3,26.3,0,0,0,82.8,30.2Z" style="fill:#4a4144"/><path d="M74.92,31.65A28.7,28.7,0,0,1,70,28.11,23.75,23.75,0,0,1,69.94,25a40.73,40.73,0,0,0,5.19,4A22.65,22.65,0,0,1,74.92,31.65Z" style="fill:#4a4144"/><path d="M75.13,28.92a22.65,22.65,0,0,1-.21,2.73c-.72-.43-1.42-.87-2.11-1.33l.1-2.94C73.63,27.92,74.37,28.43,75.13,28.92Z" style="fill:#665a5e"/><path d="M73.91,31.83a7.51,7.51,0,0,1,.71-3.55A23,23,0,0,0,81.73,31a11.53,11.53,0,0,0,6.9-1.22A33.18,33.18,0,0,1,87.25,36c-.1-.52-.45-1.25-1-1.29a1.25,1.25,0,0,0-.87.47l-2,2a2.18,2.18,0,0,1-1.13.72,2.11,2.11,0,0,1-1.3-.34A25.18,25.18,0,0,1,73.91,31.83Z" style="fill:#4a4144"/><path d="M74.62,28.28A23,23,0,0,0,81.73,31a11.53,11.53,0,0,0,6.9-1.22l-.12.79A16.42,16.42,0,0,1,76,30.17c-.17.11-.11.3-.14.49-.11.67-.21,1.35-.32,2a48,48,0,0,0,5.35,4.41A.83.83,0,0,0,82.29,37a11,11,0,0,1,3.22-2.68A1.75,1.75,0,0,1,87,34.18a1.44,1.44,0,0,1,.63.66c-.11.39-.23.77-.36,1.16-.1-.52-.45-1.25-1-1.29a1.25,1.25,0,0,0-.87.47l-2,2a2.18,2.18,0,0,1-1.13.72,2.11,2.11,0,0,1-1.3-.34,25.18,25.18,0,0,1-7-5.74A7.51,7.51,0,0,1,74.62,28.28Z" style="fill:#130a0d"/><path d="M21.58,68.88a6.22,6.22,0,0,0,1.78,5.54,10.72,10.72,0,0,0,6.28,3.11l3.74-2.61s-3.07-2-3.79-4.89c3.07,0,3.67.61,3.67.61l.47-1.08s-4.24-3.1-7.54-3.75A5.16,5.16,0,0,0,21.58,68.88Z" style="fill:url(#linear-gradient-8)"/><path d="M19.3,30.82s-4,9.15-7,16.39c1.42,2.5,3.55,3,6.61,3.24,4.15-1.87,7.85-6.8,14.7-10.29C32.2,27,19.3,30.82,19.3,30.82Z" style="fill:url(#linear-gradient-9)"/><path d="M21.58,68.88c5.28-1.17,4.61-3.07,4.61-3.07L21.85,48.67c-5.06,3.61-9.52-1.46-9.52-1.46C12.56,57.44,17.64,63.41,21.58,68.88Z" style="fill:url(#linear-gradient-10)"/><path d="M44,94.16c3.65-.34,7.31-.55,11-.66a41.15,41.15,0,0,0-3.2-12.35c.53-7.86-2.15-22.92-2.15-22.92S63.36,75.15,65.85,81.68c1,2.65,4.38,7,8.38,12,5,.22,10,.53,15,.88-.68-1.71-1.24-3.2-1.56-4.25-1.8-5.8-9.8-12.19-12-12-.8-7.8-9.92-30.17-14.87-36.56S33.21,50,33.21,50s-1.83,7.71,4.14,18.2a105,105,0,0,1,6,13S42.41,86,44,94.16Z" style="fill:url(#linear-gradient-11)"/><path d="M57.18,33.62c-3.47-7-14.7-9.81-23.62-10.3,0,0-13.48,2.35-15.37,9.51a10.45,10.45,0,0,0,5.23,11c6.48,3.5,10.45,10.49,19.06,13,7.79,2.31,20.27-.19,20.52-8.26S57.18,33.62,57.18,33.62Z" style="fill:url(#linear-gradient-12)"/><path d="M45.16,26.68s-5,6.62,1.61,13,9,8.13,11.51,8.56a4.09,4.09,0,0,0,4.87-4.91C62.49,39.74,50.89,20.65,45.16,26.68Z" style="fill:url(#linear-gradient-13)"/><path d="M60,41.31s-8.26.87-8.33,10.06.24,12.11,1.67,14.25a4.08,4.08,0,0,0,6.91.17C62.38,62.87,68.31,41.34,60,41.31Z" style="fill:url(#linear-gradient-14)"/><path d="M55,93.5a41.15,41.15,0,0,0-3.2-12.35c-3.47,8.44-8.5,0-8.5,0s-.92,4.89.71,13C47.69,93.82,51.35,93.61,55,93.5Z" style="fill:url(#linear-gradient-15)"/><path d="M89.25,94.59c-.68-1.71-1.24-3.2-1.56-4.25-1.8-5.8-9.8-12.19-12-12,0,0-1,13.69-8.6,5.72a113.74,113.74,0,0,0,7.14,9.64C79.23,93.93,84.24,94.24,89.25,94.59Z" style="fill:url(#linear-gradient-16)"/><path d="M23.58,15.13a8.68,8.68,0,0,0-.91,2.62,11.83,11.83,0,0,0,.08,3.36c.63,4.78,1.85,9.5,1.92,14.33A4.12,4.12,0,0,0,25,37.32a3.22,3.22,0,0,0,2.73,1.35,9.12,9.12,0,0,0,7.94-3.84,38.11,38.11,0,0,0,2.14-4.17c.67-1.29,1.5-2.49,2.23-3.74a28.61,28.61,0,0,0,3.14-7.76c.66-2.73.81-5.91-1-8a7.67,7.67,0,0,0-2-1.54,10.14,10.14,0,0,0-9.6-.71A13.52,13.52,0,0,0,23.58,15.13Z" style="fill:#231f20"/><path d="M23.53,23.73a16.29,16.29,0,0,1,1.81-9.11A13.1,13.1,0,0,1,33,8.93a17.61,17.61,0,0,1,4.09-.64,10.38,10.38,0,0,0-6.54.59,13.52,13.52,0,0,0-7,6.25,8.68,8.68,0,0,0-.91,2.62,11.83,11.83,0,0,0,.08,3.36c.63,4.78,1.85,9.5,1.92,14.33a9.2,9.2,0,0,0,.06,1c0-1.13-.05-2.26-.14-3.39C24.32,30,23.69,26.86,23.53,23.73Z" style="fill:#665a5e"/><path d="M28.86,21.55a12.91,12.91,0,0,1-6.16-.89c0,.15,0,.3.05.45.63,4.78,1.85,9.5,1.92,14.33A4.12,4.12,0,0,0,25,37.32a3.22,3.22,0,0,0,2.73,1.35,9.12,9.12,0,0,0,7.94-3.84,14.18,14.18,0,0,0,1-1.87,19.92,19.92,0,0,0-.63-13.15A30,30,0,0,1,28.86,21.55Z" style="fill:#ed875a"/><path d="M26.31,38.21a3.73,3.73,0,0,1-.8-2c-.17-.93-.35-1.86-.51-2.8a8.58,8.58,0,0,1,.87-2.08c.26-.5,1.48-1.31,1-1.83a2.73,2.73,0,0,0-2.27.09.71.71,0,0,0-.12.48v.24a73.41,73.41,0,0,1-1-9.33,7.77,7.77,0,0,1-.8-.31c0,.15,0,.3.05.45.63,4.78,1.85,9.5,1.92,14.33A4.12,4.12,0,0,0,25,37.32a2.62,2.62,0,0,0,1.74,1.2A2.1,2.1,0,0,1,26.31,38.21Z" style="fill:#f9bc8f"/><path d="M28.86,21.55a12.91,12.91,0,0,1-6.16-.89c0,.15,0,.3.05.45.1.76.22,1.51.34,2.27,4.63,1.94,10.75,1.14,13.1,4.58a6.59,6.59,0,0,1,.92,3.26,19.71,19.71,0,0,0-1-11.41A30,30,0,0,1,28.86,21.55Z" style="fill:#4a4144"/><path d="M38,23.23a34.32,34.32,0,0,0,5.7-4.1,27.89,27.89,0,0,0,.07-3.66,46.9,46.9,0,0,1-6,4.59A24,24,0,0,0,38,23.23Z" style="fill:#4a4144"/><path d="M37.75,20.06A24,24,0,0,0,38,23.23c.83-.5,1.64-1,2.43-1.54l-.11-3.41C39.48,18.9,38.63,19.5,37.75,20.06Z" style="fill:#665a5e"/><path d="M39.16,23.44a8.68,8.68,0,0,0-.82-4.11,26.56,26.56,0,0,1-8.24,3.13,13.28,13.28,0,0,1-8-1.41,39.65,39.65,0,0,0,1.61,7.22c.11-.61.51-1.45,1.13-1.49a1.42,1.42,0,0,1,1,.54l2.37,2.33a2.65,2.65,0,0,0,1.31.84A2.5,2.5,0,0,0,31,30.1,29.28,29.28,0,0,0,39.16,23.44Z" style="fill:#4a4144"/><path d="M38.34,19.33a26.56,26.56,0,0,1-8.24,3.13,13.28,13.28,0,0,1-8-1.41c0,.31.09.61.14.92a19.11,19.11,0,0,0,14.46-.46c.19.13.12.35.16.57.12.78.24,1.57.37,2.35A58.43,58.43,0,0,1,31,29.54a1.24,1.24,0,0,1-1.05.33,1.29,1.29,0,0,1-.53-.41,12.74,12.74,0,0,0-3.73-3.1,2,2,0,0,0-1.7-.2,1.7,1.7,0,0,0-.73.77c.13.44.26.89.42,1.34.11-.61.51-1.45,1.13-1.49a1.42,1.42,0,0,1,1,.54l2.37,2.33a2.65,2.65,0,0,0,1.31.84A2.5,2.5,0,0,0,31,30.1a29.28,29.28,0,0,0,8.13-6.66A8.68,8.68,0,0,0,38.34,19.33Z" style="fill:#130a0d"/><path d="M47.74,72.38,23.89,109.72c-1.8,2.79-5.08,5.66-9.55,3.46a9.22,9.22,0,0,1-4.7-6A16,16,0,0,1,9.37,101c.35-2.67,4.85-.41,4.59,1.94a11.84,11.84,0,0,0,.18,4.24c.84,3.17,3.4,2.94,5.6-.55L44,68.78c1.63-2.56,5.52.87,3.78,3.6Z" style="fill-rule:evenodd"/><rect x="22.91" y="89.16" width="4.47" height="13.3"/><path d="M78.28,72.38l23.84,37.34c1.77,2.79,5,5.66,9.52,3.46a9.18,9.18,0,0,0,4.71-6,16.22,16.22,0,0,0,.29-6.16c-.35-2.67-4.88-.41-4.59,1.94a11.58,11.58,0,0,1-.2,4.24c-.84,3.17-3.37,2.94-5.61-.55L82,68.78c-1.62-2.56-5.51.87-3.74,3.6Z" style="fill-rule:evenodd"/><rect x="98.61" y="89.16" width="4.47" height="13.3"/><path d="M62,118c-3.31,0-16-6.31-16-6.31C27.15,102.75,21.68,95.6,21.68,95.6l40.27-4,40.28,4s-5.47,7.15-24.29,16.09C77.94,111.69,65.27,118,62,118Z"/><path d="M62,90.48,43.26,91.61l-8.91,8.8c5.76,2.4,21.08,7.18,21.08,7.18,2.27,9.57,6.52,9.57,6.52,9.57s4.26,0,6.52-9.57c0,0,15.33-4.78,21.09-7.18l-8.91-8.8Z" style="fill:#58595b"/><rect x="23.31" y="94.26" width="77.29" height="8.68" rx="1.58" style="fill:#414042"/><rect x="20.52" y="89.61" width="82.86" height="8.41" rx="1.58" style="fill:#6d6e71"/><path d="M95.43,82C86.5,80.29,74.61,79.36,62,79.36S37.41,80.29,28.48,82c-10.31,2-13.06,4.28-13.06,5.33s2.75,3.37,13.06,5.33c8.93,1.7,20.82,2.64,33.47,2.64s24.55-.94,33.48-2.64c10.31-2,13-4.27,13-5.33S105.74,84,95.43,82Z" style="fill:#6d6e71"/><path d="M62,94.87c-38.9.1-45.53-8.31-45.53-8.31l.33-.81c-1,.64-1.33,1.19-1.33,1.57,0,1.06,2.75,3.37,13.06,5.33,8.93,1.7,20.82,2.64,33.47,2.64s24.55-.94,33.48-2.64c10.31-2,13-4.27,13-5.33,0-.38-.36-.93-1.32-1.57l.33.81S100.86,95,62,94.87Z" style="fill:none"/><path d="M105.7,82.53c-1.43-3-2.84-5.43-2.84-5.43l-6-1.69C96.87,71,86.35,54.8,86.35,54.8H37.56S27,71,27,75.41l-6,1.69s-1.42,2.47-2.84,5.43c9.17-3.87,29.12-5.38,43.74-5.38S96.53,78.66,105.7,82.53Z" style="fill:#6d6e71"/><path d="M105.7,82.53c.51,1,1,2.14,1.46,3.22,1,.64,1.32,1.19,1.32,1.57,0,1.06-2.74,3.37-13,5.33C86.5,94.35,74.61,95.29,62,95.29s-24.54-.94-33.47-2.64c-10.31-2-13.06-4.27-13.06-5.33,0-.38.37-.93,1.33-1.57.45-1.08.95-2.18,1.46-3.22-3.12,1.31-5,2.9-5,4.79C13.22,94.79,42.36,97.5,62,97.5s48.74-2.71,48.74-10.18C110.69,85.43,108.82,83.84,105.7,82.53Z" style="fill:#414042"/><path d="M107.16,85.75c-.45-1.08-1-2.18-1.46-3.22C96.53,78.66,76.58,77.15,62,77.15s-34.57,1.51-43.74,5.38c-.51,1-1,2.14-1.46,3.22l-.33.81S23.05,95,62,94.87c38.91.1,45.54-8.31,45.54-8.31Z" style="fill:#d1d2d7"/><path d="M61.91,80.62c22.52-13.54,23.31-22.82,22.74-26C75.29,46.77,61.91,47,61.91,47s-13.34-.25-22.7,7.59C38.74,58.16,40.13,67.53,61.91,80.62Z" style="fill:#414042"/><path d="M84.7,54.66c.57,3.14-.22,12.42-22.75,26-21.77-13.09-23.16-22.46-22.69-26A24.53,24.53,0,0,0,30.75,70S33.64,76.78,62,83.09C90.27,76.78,93.15,70,93.15,70A24.47,24.47,0,0,0,84.7,54.66Z" style="fill:#96979b"/><path d="M62,78.25C51,67.61,48.19,58.12,48.19,58.12c-7.57,2.55-8.16.21-8.16.21C38.4,53.07,62,53.49,62,53.49s23.56-.42,21.93,4.84c0,0-.59,2.34-8.16-.21C75.72,58.12,73,67.61,62,78.25Z" style="fill:#96979b"/><path d="M66,62.24l4.46-4.3S80,56.6,82,59.36A68.36,68.36,0,0,0,66,62.24Z" style="fill:#d1d2d7"/><path d="M61,62.24l-5.3-4.3S44.28,56.6,41.89,59.36A95.75,95.75,0,0,1,61,62.24Z" style="fill:#d1d2d7"/></svg>
