<svg class="S" xmlns="http://www.w3.org/2000/svg" xmlns:xlink="http://www.w3.org/1999/xlink" viewBox="0 0 126 126"><defs><linearGradient id="linear-gradient" x1="35.56" y1="40.83" x2="4.62" y2="10.89" gradientUnits="userSpaceOnUse"><stop offset="0" stop-color="#56a8f5"/><stop offset="1" stop-color="#1663aa"/></linearGradient><linearGradient id="linear-gradient-2" x1="37.99" y1="38.31" x2="7.05" y2="8.38" xlink:href="#linear-gradient"/><linearGradient id="linear-gradient-3" x1="40.69" y1="35.49" x2="16.12" y2="11.71" xlink:href="#linear-gradient"/><linearGradient id="linear-gradient-4" x1="1459.01" y1="-1682.61" x2="1456.53" y2="-1721.57" gradientTransform="matrix(-0.67, 0.74, 0.74, 0.67, 2265.86, 85.75)" xlink:href="#linear-gradient"/><linearGradient id="linear-gradient-5" x1="1458.63" y1="-1679.9" x2="1451.03" y2="-1679.9" gradientTransform="matrix(-0.67, 0.74, 0.74, 0.67, 2265.86, 85.75)" gradientUnits="userSpaceOnUse"><stop offset="0" stop-color="#cbfffb"/><stop offset="0.11" stop-color="#c1effc"/><stop offset="0.32" stop-color="#b0d4fd"/><stop offset="0.54" stop-color="#a4c1fe"/><stop offset="0.76" stop-color="#9db6ff"/><stop offset="1" stop-color="#9bb2ff"/></linearGradient><linearGradient id="linear-gradient-6" x1="11.44" y1="75.83" x2="83.37" y2="75.83" gradientTransform="matrix(-1, 0, 0, 1, 130.74, 0)" xlink:href="#linear-gradient-5"/><linearGradient id="linear-gradient-7" x1="35.56" y1="40.83" x2="4.62" y2="10.89" gradientTransform="matrix(-1, 0, 0, 1, 126, 0)" xlink:href="#linear-gradient"/><linearGradient id="linear-gradient-8" x1="37.99" y1="38.31" x2="7.05" y2="8.38" gradientTransform="matrix(-1, 0, 0, 1, 126, 0)" xlink:href="#linear-gradient"/><linearGradient id="linear-gradient-9" x1="40.69" y1="35.49" x2="16.12" y2="11.71" gradientTransform="matrix(-1, 0, 0, 1, 126, 0)" xlink:href="#linear-gradient"/><linearGradient id="linear-gradient-10" x1="1459.01" y1="-1682.61" x2="1456.53" y2="-1721.57" gradientTransform="matrix(0.67, 0.74, -0.74, 0.67, -2139.86, 85.75)" xlink:href="#linear-gradient"/><linearGradient id="linear-gradient-11" x1="1458.63" y1="-1679.9" x2="1451.03" y2="-1679.9" gradientTransform="matrix(0.67, 0.74, -0.74, 0.67, -2139.86, 85.75)" xlink:href="#linear-gradient-5"/><linearGradient id="linear-gradient-12" x1="11.44" y1="75.83" x2="83.37" y2="75.83" gradientTransform="translate(-4.74)" xlink:href="#linear-gradient-5"/><linearGradient id="linear-gradient-13" x1="77.38" y1="-64.86" x2="74.9" y2="-60.55" gradientTransform="matrix(0.99, -0.1, -0.1, -0.99, -7.68, 48.39)" gradientUnits="userSpaceOnUse"><stop offset="0" stop-color="#202221"/><stop offset="0.28" stop-color="#121312"/><stop offset="0.65" stop-color="#070606"/><stop offset="1" stop-color="#030202"/></linearGradient><linearGradient id="linear-gradient-14" x1="77.38" y1="-64.61" x2="74.96" y2="-60.43" gradientTransform="matrix(0.99, -0.1, -0.1, -0.99, -7.68, 48.39)" gradientUnits="userSpaceOnUse"><stop offset="0" stop-color="#5a5a5c"/><stop offset="0.15" stop-color="#575759"/><stop offset="0.24" stop-color="#4f4f51"/><stop offset="0.32" stop-color="#414142"/><stop offset="0.39" stop-color="#2c2d2d"/><stop offset="0.46" stop-color="#121313"/><stop offset="0.46" stop-color="#111211"/><stop offset="0.46" stop-color="#181918"/><stop offset="0.47" stop-color="#1e201f"/><stop offset="0.5" stop-color="#202221"/><stop offset="0.5" stop-color="#222423"/><stop offset="0.53" stop-color="#474848"/><stop offset="0.56" stop-color="#646566"/><stop offset="0.59" stop-color="#787a7b"/><stop offset="0.62" stop-color="#858688"/><stop offset="0.64" stop-color="#898a8c"/><stop offset="0.65" stop-color="#6b6b6d"/><stop offset="0.67" stop-color="#333"/><stop offset="0.69" stop-color="#100f10"/><stop offset="0.7" stop-color="#030202"/><stop offset="0.71" stop-color="#1e1d1d"/><stop offset="0.72" stop-color="#383838"/><stop offset="0.73" stop-color="#4e4e4e"/><stop offset="0.75" stop-color="#5f5f5f"/><stop offset="0.77" stop-color="#6a6a6a"/><stop offset="0.8" stop-color="#717171"/><stop offset="0.88" stop-color="#737373"/><stop offset="0.9" stop-color="#707070"/><stop offset="0.93" stop-color="#666"/><stop offset="0.95" stop-color="#555"/><stop offset="0.97" stop-color="#3e3d3d"/><stop offset="0.99" stop-color="#201f1f"/><stop offset="1" stop-color="#030202"/></linearGradient><radialGradient id="radial-gradient" cx="208.01" cy="-478.81" r="1.35" gradientTransform="matrix(0.75, -0.37, -0.35, -0.7, -247.21, -151.87)" gradientUnits="userSpaceOnUse"><stop offset="0.67" stop-color="#768f9c"/><stop offset="0.68" stop-color="#849aa6"/><stop offset="0.7" stop-color="#a5b5be"/><stop offset="0.72" stop-color="#c1ccd2"/><stop offset="0.75" stop-color="#d8dfe3"/><stop offset="0.78" stop-color="#e9edef"/><stop offset="0.82" stop-color="#f6f8f8"/><stop offset="0.88" stop-color="#fdfdfe"/><stop offset="1" stop-color="#fff"/></radialGradient><radialGradient id="radial-gradient-2" cx="207.8" cy="-476.94" r="2.2" gradientTransform="matrix(0.75, -0.37, -0.35, -0.7, -247.21, -151.87)" gradientUnits="userSpaceOnUse"><stop offset="0.31" stop-color="#b3c0c7"/><stop offset="0.36" stop-color="#b0bcc3"/><stop offset="0.42" stop-color="#a5b0b7"/><stop offset="0.47" stop-color="#949da2"/><stop offset="0.53" stop-color="#7b8185"/><stop offset="0.57" stop-color="#65686b"/><stop offset="0.78" stop-color="#494a4d"/><stop offset="1" stop-color="#434345"/></radialGradient><radialGradient id="radial-gradient-3" cx="207.82" cy="-477.14" r="1.94" gradientTransform="matrix(0.75, -0.37, -0.35, -0.7, -247.21, -151.87)" gradientUnits="userSpaceOnUse"><stop offset="0.31" stop-color="#6f7070"/><stop offset="0.48" stop-color="#6b6d6e"/><stop offset="0.57" stop-color="#65686b"/><stop offset="0.78" stop-color="#494a4d"/><stop offset="1" stop-color="#434345"/></radialGradient><radialGradient id="radial-gradient-4" cx="207.66" cy="-476.96" r="2.67" gradientTransform="matrix(0.75, -0.37, -0.35, -0.7, -247.21, -151.87)" gradientUnits="userSpaceOnUse"><stop offset="0.23" stop-color="#949b9e"/><stop offset="0.29" stop-color="#8e9497"/><stop offset="0.38" stop-color="#7d8083"/><stop offset="0.41" stop-color="#76777a"/><stop offset="0.51" stop-color="#65686b"/><stop offset="0.66" stop-color="#636366"/><stop offset="0.79" stop-color="#525254"/></radialGradient><linearGradient id="linear-gradient-15" x1="-1573.18" y1="104.9" x2="-1575.66" y2="109.2" gradientTransform="translate(-1517.05 50.44) rotate(-174.23)" xlink:href="#linear-gradient-13"/><linearGradient id="linear-gradient-16" x1="-1573.22" y1="105.13" x2="-1575.63" y2="109.31" gradientTransform="translate(-1517.05 50.44) rotate(-174.23)" xlink:href="#linear-gradient-14"/><radialGradient id="radial-gradient-5" cx="-1560.6" cy="463.42" r="1.35" gradientTransform="matrix(-0.75, -0.37, 0.35, -0.7, -1280.42, -151.87)" xlink:href="#radial-gradient"/><radialGradient id="radial-gradient-6" cx="-1560.81" cy="465.29" r="2.2" gradientTransform="matrix(-0.75, -0.37, 0.35, -0.7, -1280.42, -151.87)" xlink:href="#radial-gradient-2"/><radialGradient id="radial-gradient-7" cx="-1560.79" cy="465.09" r="1.94" gradientTransform="matrix(-0.75, -0.37, 0.35, -0.7, -1280.42, -151.87)" xlink:href="#radial-gradient-3"/><radialGradient id="radial-gradient-8" cx="-1560.94" cy="465.27" r="2.67" gradientTransform="matrix(-0.75, -0.37, 0.35, -0.7, -1280.42, -151.87)" xlink:href="#radial-gradient-4"/></defs><g style="isolation:isolate"><g id="design"><path d="M38.89,39.89c-.21-.09-20.28-8.32-27-14.44-4.82-4.39-7.24-12-7.13-14.76,0-1.09.19-2.21.88-2.21.52,0,.94.77,1.06,1l0,.06v.06c0,.09.46,9.1,7.64,15S41.09,38.78,41.28,38.86l.88.37L39,39.92Z"/><path d="M6.42,9.63a22.73,22.73,0,0,0,7.75,15.25c7.37,6.09,27,14.26,27,14.26L39,39.61S18.85,31.38,12.08,25.23C7.33,20.91,5,13.29,5.05,10.7,5.2,7.13,6.42,9.63,6.42,9.63Z" style="fill:url(#linear-gradient)"/><path d="M39.06,39.83c-.18-.1-17.72-9.7-23.9-16.36C10.28,18.22,10.64,8,10.66,7.56s.07-1.78.88-1.78,1.69,1.55,2,2l0,.09,0,.11c0,.08-1.5,8.59,4.32,14.53C24.43,29.26,41.15,39,41.32,39.07l.78.46-3,.34Z"/><path d="M13.22,8s-1.59,8.68,4.41,14.8c6.69,6.83,23.54,16.58,23.54,16.58l-2,.23S21.6,30,15.38,23.27C11.17,18.73,10.85,10.16,11,7.57,11.1,4,13.22,8,13.22,8Z" style="fill:url(#linear-gradient-2)"/><path d="M38.67,40.36c-.09-.09-9.08-8.86-15.76-14.94C18.06,21,18,12.36,18.13,9.82c0-1.09.18-2.21.87-2.21.52,0,.95.77,1.06,1l0,.09v.1c0,.1-1.74,10.62,5.41,16.52s15,13.52,15,13.59l.26.25-1.94,1.36Z"/><path d="M19.79,8.75s-1.85,10.72,5.52,16.81,15,13.58,15,13.58l-1.43,1s-9-8.79-15.77-14.95c-4.75-4.32-4.79-12.77-4.68-15.36C18.57,6.26,19.79,8.75,19.79,8.75Z" style="fill:url(#linear-gradient-3)"/><path d="M120,108.65a2.19,2.19,0,0,0,.63-2l-.29-.43a1.11,1.11,0,0,1,.58-.14l2.9,2.39a2.89,2.89,0,0,1-.52,2.92c-1.18,1.38-2.34,1.67-2.9,1.5L117.17,110l.18-.77.86.66A3.78,3.78,0,0,0,120,108.65Z" style="fill:#135694"/><path d="M44.59,45.21a4.8,4.8,0,0,0,2.56-3.69l73.07,64.75.08,0,.29.43a2.19,2.19,0,0,1-.63,2,3.78,3.78,0,0,1-1.75,1.2l-.86-.66v0Z" style="fill:#1663aa"/><path d="M18.68,37.55c3.89,2.25,4,1.31,8.26,2.42s9,2.61,10.19,2.59a14.51,14.51,0,0,0,2.2-.25c.16,0,4.68,3,4.68,3a4,4,0,0,0,2.9-4.2l-2.83-2.85s.61-4-1.9-6.61S36,27.39,33.33,24.76s-3.41-5.59-4.08-7.27c0,0-.84-6.21-8.48-10.44S6.11,6.17,3.91,10A11.86,11.86,0,0,0,4,22.56c2.62,4.16,8.7,8.83,10.93,9.73a7.4,7.4,0,0,0,4.42.43,12.07,12.07,0,0,1,7.12,2.13c2.68,2,3.24,3.07,4.77,4.08l.33.22a7.55,7.55,0,0,1-2.92-.56c-2.06-.67-3.18-.49-6.61-1.37a10.1,10.1,0,0,1-6.41-4.45l-2.38-1.33A13.81,13.81,0,0,0,18.68,37.55ZM39,38.73a7.92,7.92,0,0,0-2.29-4.47c-2.16-2.29-6.53-5.52-7.51-8.12s-.81-2.74-.81-2.74a17.45,17.45,0,0,0,4.11,4.87A61.38,61.38,0,0,0,38.71,32c2.25,1.25,3.61,3.2,2.53,4.95S39,38.73,39,38.73ZM20.15,29.67a13.43,13.43,0,0,1-5.08-.58c-1-.42-3.59-2.07-7.3-6.09a15.48,15.48,0,0,1-4-8.54c.17-1.69,1-3.77,4-5.68s7.77-1.11,12.54,1.31,6.09,8.16,6.09,8.16a12.19,12.19,0,0,0,.74,7.56c1.07,2.63,3.64,5.39,6.86,8.35s3.19,4.66,3.19,4.66c-3.53-.35-5.69-2.69-8.71-5.69A11.29,11.29,0,0,0,20.15,29.67Z" style="fill:url(#linear-gradient-4)"/><path d="M43.86,38.08a6.48,6.48,0,0,1-2.37,3.06,4.41,4.41,0,0,0,2.45-1.3l2.77,1Z" style="fill:url(#linear-gradient-5)"/><path d="M40.81,38a3.58,3.58,0,0,0,.86-1.92c.38-2.48-1.86-3.67-3.84-4.72-.25-.13-.5-.26-.74-.4l-.1-.05c-2.22-1.23-6.34-3.51-8.25-7.39-.58-1.18-1.07-2.49-1.59-3.87C25.93,16.37,24.67,13,22.09,11,18.6,8.39,12.48,6.55,8.69,8.2c-3,1.3-4.62,3.35-5,6.26l.33,0c.32-2.78,1.88-4.75,4.77-6,3.67-1.6,9.64.21,13.06,2.8,2.5,1.9,3.75,5.22,4.95,8.44.53,1.4,1,2.71,1.61,3.91,1.95,4,6.13,6.28,8.38,7.53l.1.05.75.41c2,1,4,2.12,3.66,4.37a3.09,3.09,0,0,1-2.66,2.73l0,.33A3.5,3.5,0,0,0,40.81,38Z"/><path d="M37.39,39.1c-3.45-.33-5.74-2.57-8.64-5.41L28,33a10.62,10.62,0,0,0-8.53-3.1c-2.16.08-5.24-.42-6.82-2.08-.27-.29-.71-.67-1.27-1.15-2.4-2.05-6.87-5.88-7.65-11A7.19,7.19,0,0,1,5.56,9.5,10.23,10.23,0,0,1,9.34,6.91a14.41,14.41,0,0,1,12,1.91c4.74,3.29,5.46,5.49,6.29,8,.19.57.38,1.16.62,1.78,1.19,3,3.23,7.32,7.25,9.63C40,30.84,42.4,33,42.85,34.84a3,3,0,0,1-.79,2.75A5.46,5.46,0,0,1,37.39,39.1ZM4.08,15.59c.76,5,5.16,8.8,7.53,10.82.57.49,1,.87,1.3,1.17,1.41,1.48,4.31,2.06,6.57,2a10.91,10.91,0,0,1,8.77,3.19l.73.71c2.85,2.79,5.1,5,8.45,5.31a5.14,5.14,0,0,0,4.39-1.41,2.64,2.64,0,0,0,.71-2.44c-.42-1.73-2.84-3.88-7.19-6.37-4.11-2.37-6.18-6.73-7.39-9.8-.24-.63-.44-1.22-.62-1.8-.82-2.48-1.52-4.63-6.17-7.86A14.07,14.07,0,0,0,9.45,7.22a10.09,10.09,0,0,0-3.64,2.5A6.85,6.85,0,0,0,4.08,15.59Z"/><path d="M38.27,38.88a8.48,8.48,0,0,0-1-2.89,13.06,13.06,0,0,0-2.45-2.64,39.46,39.46,0,0,1-4.86-5.15,13.75,13.75,0,0,1-2.78-8.35l-.33,0a14.17,14.17,0,0,0,2.85,8.57,40.12,40.12,0,0,0,4.89,5.19A12.36,12.36,0,0,1,37,36.15a9.14,9.14,0,0,1,1,2.77Z"/><path d="M37.3,38.93s.13-1.23-1.36-3.09a21,21,0,0,0-2.27-2.24,28.2,28.2,0,0,1-5-5.4,12.76,12.76,0,0,1-2.17-10l-.32-.07a13,13,0,0,0,2.22,10.26,28.24,28.24,0,0,0,5,5.46A20.3,20.3,0,0,1,35.68,36C37.07,37.79,37,38.88,37,38.89Z"/><path d="M39.2,38.73a8.24,8.24,0,0,0-2.34-4.59c-.3-.31-.83-.79-1.51-1.39a44.19,44.19,0,0,1-4.68-4.63,14.23,14.23,0,0,1-2.53-6l-.33,0a14.39,14.39,0,0,0,2.61,6.18A44,44,0,0,0,35.14,33c.66.59,1.19,1.06,1.48,1.37a7.94,7.94,0,0,1,2.26,4.42Z"/><path d="M27.63,39.87h0Z"/><path d="M18.78,37.82a13,13,0,0,0,3.93,1.44h0c.51.1.95.16,1.31.21v0l.63.1,0,0h0c.27,0,.56.1.84.16l.14,0,.12,0,.27.06v0l1.36.4-.17-.13.48.12,0,.1.5.14,0,0,1,.33c1.13.29,2.42.69,3.54,1l1,.27,0,0,.33.1.38.1a.24.24,0,0,1,0-.08c.36.08.7.15,1,.2h.09l0,.06.36,0,0,0,0,0,.29,0v0l.37,0v0a6.3,6.3,0,0,0,.85,0h0l.38,0a10.75,10.75,0,0,0,1.39-.29l4.7,3.2.53-.1.33.32,0,0,72.44,63.53c-.27.58-.17.81-.11.88l3.12,2.91,0,0c.06,0,1.42.42,2.93-1.36l.11-.14a2.89,2.89,0,0,0,.62-3.11l0-.05-3-2.52h0a1,1,0,0,0-.71.18l-73-64.56,0,.05a1.83,1.83,0,0,0,0-.41v-.06l-3-3a8.72,8.72,0,0,0,0-2.49,6.07,6.07,0,0,0-1.43-3.44,23.86,23.86,0,0,0-5.19-4.28c-2.12-1.46-4.31-3-5.48-4.73a19.76,19.76,0,0,1-2.84-6A15.89,15.89,0,0,0,20.44,6.72c-8.61-4.17-13.89,0-15.3,1.37-.22.21-.43.45-.64.69a10.25,10.25,0,0,0-2.21,4.64,8.62,8.62,0,0,0-.38,2.16l-.08.15c0,.23,0,.48,0,.76l0-.1A10.49,10.49,0,0,0,2,17.59a13.21,13.21,0,0,0,1.39,4c.19.33.41.67.64,1L4,22.56c.2.32.43.64.67,1v0q.3.41.63.81a48,48,0,0,0,7.41,7l.19.14h0l.16.11a10.16,10.16,0,0,0,1.1,2h0c.27.37.62.81,1.06,1.33h0A15.7,15.7,0,0,0,18.78,37.82Zm24.13.45a7.06,7.06,0,0,1-3.38,2c-3.84,1.19-7.47-2.13-9.88-4.33L28.59,35c-2.33-2-5.27-4-9.47-3.74S12.7,30.13,6.21,23.17,3.08,11,4.76,9c.2-.23.41-.46.62-.66C6.75,7,11.88,3,20.29,7a15.51,15.51,0,0,1,8.63,10.09,20.7,20.7,0,0,0,2.89,6.15c1.21,1.82,3.43,3.34,5.58,4.82A24,24,0,0,1,42.5,32.3a5.81,5.81,0,0,1,1.35,3.12h0a.51.51,0,0,0,0,.09A3.91,3.91,0,0,1,42.91,38.27Zm74.6,71.19.53.47h0s.83.26,1.89-1l.11-.13c1.18-1.49.64-2.29.62-2.33l0,0-.2-.18a.73.73,0,0,1,.31-.09c.13.14.6.77-.1,2.11a3.43,3.43,0,0,1-1.87,1.86l.08.33a3.1,3.1,0,0,0,1.44-1,5.59,5.59,0,0,0,.65-1,2.79,2.79,0,0,0,.39-1.77l2.3,1.94a2.6,2.6,0,0,1-.6,2.71c-1.27,1.6-2.42,1.44-2.63,1.39l-3-2.82A1.23,1.23,0,0,1,117.51,109.46ZM44.81,45.24a7,7,0,0,0,1.23-1l.22-.24a3.89,3.89,0,0,0,.87-2.13l73.3,64.81c0,.1.31.73-.62,1.91s-1.46,1-1.6,1ZM16.09,35.32A14.67,14.67,0,0,1,13.5,31.8l.51.3c.17.09.33.18.49.25l-.06,0a10.64,10.64,0,0,0,4.85,4.8A15.05,15.05,0,0,0,25,38.61a10.05,10.05,0,0,1,2.29.4,44.38,44.38,0,0,0,6.25,1.28l.24-.08L33.41,40A11.09,11.09,0,0,1,32,39.31v0l-.08,0A15.82,15.82,0,0,1,29.15,37a15.73,15.73,0,0,0-5-3.53,9.94,9.94,0,0,0-4-.86h0l-1.23,0,0,0,0,0h0a7.32,7.32,0,0,1-4.61-.85,31.2,31.2,0,0,1-6.35-5.16l0-.06h0c-.34-.35-.67-.71-1-1.06h0L6.3,25V24.9H6.23a19.69,19.69,0,0,1-3.05-4.48,11.1,11.1,0,0,1-1-4.11A13.1,13.1,0,0,0,6,23.4c6.5,7,8.84,8.44,13.17,8.23,4.07-.21,6.85,1.63,9.24,3.65.31.27.67.6,1.05.95C31.34,38,34,40.44,37,40.84l-.18,0a6.51,6.51,0,0,0,1.51.1l.31-.07-.12,0a6,6,0,0,0,1.08-.23,7.41,7.41,0,0,0,3.54-2.14,4.43,4.43,0,0,0,.74-1.22,6.76,6.76,0,0,1-.1.77l0,.09,3,3.08a3.65,3.65,0,0,1-1,2.79c-1,1-1.59,1.15-1.74,1.16l-3.88-2.65s0,0,0,0h0l-.83-.57-.1.07s-.94.58-3.53.13c-.36-.06-.75-.14-1.16-.24l0,0-.12,0-1.1-.28a1.81,1.81,0,0,1-.27-.06l0,0c-.66-.17-1.32-.36-1.94-.55l.31,0-3.7-1.1-.54-.14a27.06,27.06,0,0,0-2.88-.6A12.43,12.43,0,0,1,16.09,35.32Zm7.44,2.1h0a19.76,19.76,0,0,1-4-1.22,9.08,9.08,0,0,1-3.63-3.34,14.12,14.12,0,0,0,2.24.16l.43,0a10.59,10.59,0,0,1,4.71.41,14.81,14.81,0,0,1,5,3.22A24.55,24.55,0,0,0,31,39s-.92-.2-1.65-.42l-.28-.09-2.68-.78L26,37.69l0,0h-.54a9.17,9.17,0,0,1-1.05-.08h0Zm8.23,2.13h0l.39.23a32.6,32.6,0,0,1-4.77-1.09A10,10,0,0,0,25,38.27a15,15,0,0,1-5.55-1.4,11,11,0,0,1-4.57-4.35,6.2,6.2,0,0,0,.72.25l-.08,0a9.15,9.15,0,0,0,3.35,3.32A16.19,16.19,0,0,0,25.54,38a8.55,8.55,0,0,1,2.56.59c.6.19,1.28.41,2,.59A16.72,16.72,0,0,0,31.76,39.55Z"/><g style="mix-blend-mode:overlay"><path d="M119.17,107.52h0a.5.5,0,0,0,0-.7L48.19,44.09a.5.5,0,0,0-.66.74l70.94,62.73A.49.49,0,0,0,119.17,107.52Z" style="fill:url(#linear-gradient-6)"/></g><path d="M87.11,39.89c.21-.09,20.28-8.32,27-14.44,4.82-4.39,7.24-12,7.13-14.76,0-1.09-.19-2.21-.88-2.21-.52,0-.94.77-1.06,1l0,.06v.06c0,.09-.46,9.1-7.64,15S84.91,38.78,84.72,38.86l-.88.37,3.19.69Z"/><path d="M119.58,9.63a22.73,22.73,0,0,1-7.75,15.25c-7.37,6.09-27,14.26-27,14.26l2.17.47s20.15-8.23,26.92-14.38c4.75-4.32,7.13-11.94,7-14.53C120.8,7.13,119.58,9.63,119.58,9.63Z" style="fill:url(#linear-gradient-7)"/><path d="M86.94,39.83c.18-.1,17.72-9.7,23.9-16.36,4.88-5.25,4.52-15.48,4.5-15.91s-.07-1.78-.88-1.78-1.69,1.55-1.95,2l-.05.09,0,.11c0,.08,1.5,8.59-4.32,14.53C101.57,29.26,84.85,39,84.68,39.07l-.78.46,3,.34Z"/><path d="M112.78,8s1.6,8.68-4.4,14.8c-6.7,6.83-23.55,16.58-23.55,16.58l2,.23S104.4,30,110.63,23.27c4.2-4.54,4.52-13.11,4.41-15.7C114.9,4,112.78,8,112.78,8Z" style="fill:url(#linear-gradient-8)"/><path d="M87.33,40.36c.09-.09,9.08-8.86,15.76-14.94,4.85-4.41,4.89-13.06,4.78-15.6,0-1.09-.18-2.21-.87-2.21-.52,0-1,.77-1.06,1l0,.09v.1c0,.1,1.74,10.62-5.41,16.52s-15,13.52-15,13.59l-.26.25,1.94,1.36Z"/><path d="M106.21,8.75s1.85,10.72-5.52,16.81-15,13.58-15,13.58l1.44,1s9-8.79,15.76-14.95c4.75-4.32,4.79-12.77,4.68-15.36C107.43,6.26,106.21,8.75,106.21,8.75Z" style="fill:url(#linear-gradient-9)"/><path d="M6,108.65a2.19,2.19,0,0,1-.63-2l.29-.43a1.11,1.11,0,0,0-.58-.14l-2.9,2.39a2.89,2.89,0,0,0,.52,2.92c1.18,1.38,2.34,1.67,2.9,1.5L8.83,110l-.18-.77-.86.66A3.78,3.78,0,0,1,6,108.65Z" style="fill:#135694"/><path d="M81.41,45.21a4.8,4.8,0,0,1-2.56-3.69L5.78,106.27l-.08,0-.29.43a2.19,2.19,0,0,0,.63,2,3.78,3.78,0,0,0,1.75,1.2l.86-.66v0Z" style="fill:#1663aa"/><path d="M112.78,31.44l-2.38,1.33A10.1,10.1,0,0,1,104,37.22c-3.43.88-4.55.7-6.61,1.37a7.55,7.55,0,0,1-2.92.56l.33-.22c1.53-1,2.09-2.11,4.77-4.08a12.07,12.07,0,0,1,7.12-2.13,7.4,7.4,0,0,0,4.42-.43c2.23-.9,8.31-5.57,10.93-9.73A11.86,11.86,0,0,0,122.09,10c-2.2-3.8-9.22-7.14-16.86-2.92s-8.48,10.44-8.48,10.44c-.67,1.68-1.41,4.64-4.08,7.27s-6.34,4.31-8.85,6.94-1.9,6.61-1.9,6.61l-2.83,2.85a4,4,0,0,0,2.9,4.2s4.52-3,4.68-3a14.51,14.51,0,0,0,2.2.25c1.21,0,5.92-1.49,10.19-2.59s4.37-.17,8.26-2.42A13.81,13.81,0,0,0,112.78,31.44ZM84.76,37c-1.08-1.75.28-3.7,2.53-4.95a61.38,61.38,0,0,0,6.18-3.75,17.45,17.45,0,0,0,4.11-4.87s.17.13-.81,2.74S91.42,32,89.26,34.26A7.92,7.92,0,0,0,87,38.73S85.84,38.72,84.76,37Zm12.76-3.84c-3,3-5.18,5.34-8.71,5.69,0,0,0-1.7,3.19-4.66s5.79-5.72,6.86-8.35a12.19,12.19,0,0,0,.74-7.56s1.32-5.75,6.09-8.16,9.49-3.23,12.54-1.31,3.87,4,4,5.68a15.48,15.48,0,0,1-4,8.54c-3.71,4-6.28,5.67-7.3,6.09a13.43,13.43,0,0,1-5.08.58A11.29,11.29,0,0,0,97.52,33.13Z" style="fill:url(#linear-gradient-10)"/><path d="M82.14,38.08a6.48,6.48,0,0,0,2.37,3.06,4.41,4.41,0,0,1-2.45-1.3l-2.77,1Z" style="fill:url(#linear-gradient-11)"/><path d="M85.19,38a3.58,3.58,0,0,1-.86-1.92c-.38-2.48,1.86-3.67,3.84-4.72.25-.13.5-.26.74-.4l.1-.05c2.22-1.23,6.34-3.51,8.25-7.39.58-1.18,1.07-2.49,1.59-3.87,1.22-3.26,2.48-6.64,5.06-8.59,3.49-2.65,9.61-4.49,13.4-2.84,3,1.3,4.62,3.35,5,6.26l-.33,0c-.32-2.78-1.88-4.75-4.77-6-3.67-1.6-9.64.21-13.06,2.8-2.5,1.9-3.75,5.22-5,8.44-.53,1.4-1,2.71-1.61,3.91-2,4-6.13,6.28-8.38,7.53l-.1.05-.75.41c-2,1-4,2.12-3.66,4.37a3.09,3.09,0,0,0,2.66,2.73l0,.33A3.5,3.5,0,0,1,85.19,38Z"/><path d="M83.94,37.59a3,3,0,0,1-.79-2.75c.45-1.84,2.85-4,7.34-6.58,4-2.31,6.06-6.61,7.25-9.63.24-.62.43-1.21.62-1.78.83-2.54,1.55-4.74,6.29-8a14.41,14.41,0,0,1,12-1.91,10.23,10.23,0,0,1,3.78,2.59,7.19,7.19,0,0,1,1.81,6.13c-.78,5.15-5.25,9-7.65,11-.56.48-1,.86-1.27,1.15-1.58,1.66-4.66,2.16-6.82,2.08A10.62,10.62,0,0,0,98,33l-.73.7c-2.9,2.84-5.19,5.08-8.64,5.41A5.46,5.46,0,0,1,83.94,37.59ZM120.19,9.72a10.09,10.09,0,0,0-3.64-2.5,14.07,14.07,0,0,0-11.71,1.87c-4.65,3.23-5.35,5.38-6.17,7.86-.18.58-.38,1.17-.62,1.8-1.21,3.07-3.28,7.43-7.39,9.8-4.35,2.49-6.77,4.64-7.19,6.37a2.64,2.64,0,0,0,.71,2.44,5.14,5.14,0,0,0,4.39,1.41c3.35-.32,5.6-2.52,8.45-5.31l.73-.71a10.91,10.91,0,0,1,8.77-3.19c2.26.08,5.16-.5,6.57-2,.28-.3.73-.68,1.3-1.17,2.37-2,6.77-5.8,7.53-10.82A6.85,6.85,0,0,0,120.19,9.72Z"/><path d="M87.73,38.88a8.48,8.48,0,0,1,1-2.89,13.06,13.06,0,0,1,2.45-2.64,39.46,39.46,0,0,0,4.86-5.15,13.75,13.75,0,0,0,2.78-8.35l.33,0a14.17,14.17,0,0,1-2.85,8.57,40.12,40.12,0,0,1-4.89,5.19A12.36,12.36,0,0,0,89,36.15a9.14,9.14,0,0,0-1,2.77Z"/><path d="M88.7,38.93s-.13-1.23,1.36-3.09a21,21,0,0,1,2.27-2.24,28.2,28.2,0,0,0,5-5.4,12.76,12.76,0,0,0,2.17-10l.32-.07a13,13,0,0,1-2.22,10.26,28.24,28.24,0,0,1-5,5.46A20.3,20.3,0,0,0,90.32,36C88.93,37.79,89,38.88,89,38.89Z"/><path d="M86.8,38.73a8.24,8.24,0,0,1,2.34-4.59c.3-.31.83-.79,1.51-1.39a44.19,44.19,0,0,0,4.68-4.63,14.23,14.23,0,0,0,2.53-6l.33,0a14.39,14.39,0,0,1-2.61,6.18A44,44,0,0,1,90.86,33c-.66.59-1.19,1.06-1.48,1.37a7.94,7.94,0,0,0-2.26,4.42Z"/><path d="M98.37,39.87h0Z"/><path d="M110.84,34.8h0c.44-.52.79-1,1.06-1.33h0a10.16,10.16,0,0,0,1.1-2l.16-.11h0l.19-.14a48,48,0,0,0,7.41-7q.33-.41.63-.81v0c.24-.31.47-.63.67-1l-.07.07c.23-.35.45-.69.64-1a13.21,13.21,0,0,0,1.39-4,10.49,10.49,0,0,0,.11-1.2l0,.1c0-.28,0-.53,0-.76l-.08-.15a8.62,8.62,0,0,0-.38-2.16,10.25,10.25,0,0,0-2.21-4.64c-.21-.24-.42-.48-.64-.69-1.41-1.37-6.69-5.54-15.3-1.37a15.89,15.89,0,0,0-8.82,10.33,19.76,19.76,0,0,1-2.84,6c-1.17,1.76-3.36,3.27-5.48,4.73a23.86,23.86,0,0,0-5.19,4.28,6.07,6.07,0,0,0-1.43,3.44,8.72,8.72,0,0,0,0,2.49l-3,3v.06a1.83,1.83,0,0,0,0,.41l0-.05L5.81,106a1,1,0,0,0-.71-.18h0l-3,2.52,0,.05a2.89,2.89,0,0,0,.62,3.11l.11.14c1.51,1.78,2.87,1.38,2.93,1.36l0,0,3.12-2.91c.06-.07.16-.3-.11-.88L81.19,45.7l0,0,.33-.32.53.1,4.7-3.2a10.75,10.75,0,0,0,1.39.29l.38,0h0a6.3,6.3,0,0,0,.85,0v0l.37,0v0l.29,0,0,0,0,0,.36,0,0-.06h.09c.31,0,.65-.12,1-.2a.24.24,0,0,1,0,.08l.38-.1.33-.1,0,0,1-.27c1.12-.34,2.41-.74,3.54-1l1-.33,0,0,.5-.14,0-.1.48-.12-.17.13,1.36-.4v0l.27-.06.12,0,.14,0c.28-.06.57-.12.84-.16h0l0,0,.63-.1v0c.36-.05.8-.11,1.31-.21h0a13,13,0,0,0,3.93-1.44A15.7,15.7,0,0,0,110.84,34.8Zm-28.69.71a.51.51,0,0,0,0-.09h0A5.81,5.81,0,0,1,83.5,32.3a24,24,0,0,1,5.11-4.21c2.15-1.48,4.37-3,5.58-4.82a20.7,20.7,0,0,0,2.89-6.15A15.51,15.51,0,0,1,105.71,7c8.41-4.07,13.54,0,14.91,1.31.21.2.42.43.62.66,1.68,2,4.9,7.35-1.45,14.17s-8.66,8.32-12.91,8.11S99.74,33.06,97.41,35L96.35,36c-2.41,2.2-6,5.52-9.88,4.33a7.06,7.06,0,0,1-3.38-2A3.91,3.91,0,0,1,82.15,35.51ZM8.59,109.9l-3,2.82c-.21,0-1.36.21-2.63-1.39a2.6,2.6,0,0,1-.6-2.71l2.3-1.94A2.79,2.79,0,0,0,5,108.45a5.59,5.59,0,0,0,.65,1,3.1,3.1,0,0,0,1.44,1l.08-.33a3.43,3.43,0,0,1-1.87-1.86c-.7-1.34-.23-2-.1-2.11a.73.73,0,0,1,.31.09l-.2.18,0,0s-.56.84.62,2.33l.11.13c1.06,1.26,1.86,1,1.89,1H8l.53-.47A1.23,1.23,0,0,1,8.59,109.9Zm-.8-.28c-.14,0-.75,0-1.6-1s-.66-1.81-.62-1.91l73.3-64.81A3.89,3.89,0,0,0,79.74,44l.22.24a7,7,0,0,0,1.23,1Zm94-70.49a27.06,27.06,0,0,0-2.88.6l-.54.14L94.7,41l.31,0c-.62.19-1.28.38-1.94.55l0,0a1.81,1.81,0,0,1-.27.06l-1.1.28-.12,0,0,0c-.41.1-.8.18-1.16.24-2.59.45-3.53-.13-3.53-.13l-.1-.07-.83.57h0s0,0,0,0l-3.88,2.65c-.15,0-.72-.14-1.74-1.16a3.65,3.65,0,0,1-1-2.79l3-3.08,0-.09a6.76,6.76,0,0,1-.1-.77,4.43,4.43,0,0,0,.74,1.22,7.41,7.41,0,0,0,3.54,2.14,6,6,0,0,0,1.08.23l-.12,0,.31.07a6.51,6.51,0,0,0,1.51-.1l-.18,0c3-.4,5.69-2.86,7.61-4.61.38-.35.74-.68,1-.95,2.39-2,5.17-3.86,9.24-3.65,4.33.21,6.67-1.25,13.17-8.23a13.1,13.1,0,0,0,3.74-7.09,11.1,11.1,0,0,1-1,4.11,19.69,19.69,0,0,1-3,4.48h-.07V25l-.47.54h0c-.32.35-.65.71-1,1.06h0l0,.06a31.2,31.2,0,0,1-6.35,5.16,7.32,7.32,0,0,1-4.61.85h0l0,0,0,0-1.23,0h-.05a9.94,9.94,0,0,0-4,.86,15.73,15.73,0,0,0-5,3.53,15.82,15.82,0,0,1-2.8,2.28l-.08,0v0a11.09,11.09,0,0,1-1.38.68l-.33.22.24.08A44.38,44.38,0,0,0,98.75,39a10.05,10.05,0,0,1,2.29-.4,15.05,15.05,0,0,0,5.67-1.44,10.64,10.64,0,0,0,4.85-4.8l-.06,0c.16-.07.32-.16.49-.25l.51-.3a14.67,14.67,0,0,1-2.59,3.52A12.43,12.43,0,0,1,101.82,39.13Zm-.3-1.56h0a9.17,9.17,0,0,1-1.05.08h-.54l0,0-.36.06-2.68.78-.28.09C95.92,38.84,95,39,95,39a24.55,24.55,0,0,0,2.64-2.41,14.81,14.81,0,0,1,5-3.22,10.59,10.59,0,0,1,4.71-.41l.43,0a14.12,14.12,0,0,0,2.24-.16,9.08,9.08,0,0,1-3.63,3.34,19.76,19.76,0,0,1-4,1.22h0Zm-5.64,1.61c.74-.18,1.42-.4,2-.59a8.55,8.55,0,0,1,2.56-.59,16.19,16.19,0,0,0,6.67-1.86,9.15,9.15,0,0,0,3.35-3.32l-.08,0a6.2,6.2,0,0,0,.72-.25,11,11,0,0,1-4.57,4.35,15,15,0,0,1-5.55,1.4,10,10,0,0,0-2.38.42,32.6,32.6,0,0,1-4.77,1.09l.39-.23h0A16.72,16.72,0,0,0,95.88,39.18Z"/><g style="mix-blend-mode:overlay"><path d="M6.83,107.52h0a.5.5,0,0,1,0-.7L77.81,44.09a.5.5,0,1,1,.66.74L7.53,107.56A.49.49,0,0,1,6.83,107.52Z" style="fill:url(#linear-gradient-12)"/></g><g id="Layer_4" data-name="Layer 4"><path d="M92.6,43.43c-.26-2.57-3.75-3-5.74-3.2a50.46,50.46,0,0,0-11.38.7c-3.37.49-6.71,1.17-10,1.9a14.22,14.22,0,0,1-2.34.55A7.38,7.38,0,0,1,61.36,43c-6.81-1.58-14-3.1-21-2.85-2.08.07-5.85.21-6.77,2.59-.63,1.63-.49,3.9-.65,5.62-.27,2.84-.48,5.67-.6,8.51a68.44,68.44,0,0,0,1.74,19.76,78,78,0,0,0,6.53,16.69,41.24,41.24,0,0,0,3.24,5.57l3,4,1.47,2c.19.25.52.93.82,1.09a7.07,7.07,0,0,0,2.34,0H73.34c.87,0,2.65.35,3.46,0,.61-.27,1.17-1.5,1.61-2,1.47-2,3-3.89,4.41-5.94A65.83,65.83,0,0,0,88,88.1a65.34,65.34,0,0,0,5.37-19,97.31,97.31,0,0,0-.09-18.85C93.07,48,92.82,45.71,92.6,43.43Z" style="fill:#191c29"/><path d="M84.49,80,80,90.63a16,16,0,0,1-2.09,4.28c-1.5,1.66-3.56,1.49-5.57,1.49H55.55a21,21,0,0,1-5.19-.16c-2.17-.6-2.89-2.49-3.72-4.33L44,85.6c-.76-1.77-1.53-3.53-2.27-5.31-.61-1.45-1.54-3-1.14-4.56a42.66,42.66,0,0,1,1.51-5.64c.71-1.74,3.29-1.41,4.82-1,2,.48,4.07.91,6.14,1.24,3.43.55,7.28,1.39,10.74,1.09,3.84-.32,7.68-.77,11.47-1.46,1.47-.27,2.92-.72,4.39-1a7.07,7.07,0,0,1,3.17,0c1,.32,1.17,1,1.41,1.92a38.06,38.06,0,0,1,1.45,5.45C85.77,77.54,84.89,78.78,84.49,80Z" style="fill:#1663aa"/><path d="M37,52.4c-1.43,5.42-2,11.72-.33,17.16,1.25,3.94,4.41,6.82,5.67,10.79a28.83,28.83,0,0,1,.5,13.06c-.17,1.11,1.52,1.59,1.7.47,1-6.45.77-12.88-2.67-18.62a27,27,0,0,1-3.19-22.38A.87.87,0,0,0,38,51.8a.88.88,0,0,0-1.09.61Z" style="fill:#dab5eb"/><path d="M87.76,52.87a26.81,26.81,0,0,1-3.18,22.37C81.13,81,80.9,87.42,81.9,93.87c.18,1.17,1.87.65,1.7-.47a30.14,30.14,0,0,1,.26-12.15c1.17-4.41,4.57-7.42,5.93-11.71,1.73-5.41,1.1-11.72-.33-17.16a.88.88,0,0,0-1.08-.62.89.89,0,0,0-.62,1.09Z" style="fill:#dab5eb"/><path d="M90.76,81.77c-1.24,3.15-2.34,5.78-3.65,8.4A153.08,153.08,0,0,1,79,104.23c-2,3.18-3.9,7.16-6.24,9.16C70,115.73,66,115.92,63,115.92s-6.93-.14-9.74-2.53c-2.35-2-4.24-6-6.25-9.16A155.33,155.33,0,0,1,39,90.17c-1.29-2.64-2.42-5.26-3.65-8.4l.49-.41.56-.47.08-.07.3-.17.59-.36s.72,1.27,2,3.25c2.64,4.22,3.58,8.25,6.79,12,4.34,5.13,11.66,10.41,17,10.41s12.43-5.28,16.83-10.41c3.21-3.8,4.15-7.83,6.79-12,1.29-2,2-3.25,2-3.25l.6.36.29.17.08.07.56.47Z" style="fill:#1663aa"/><path d="M31.78,59.52c4.68,10,22.25,11,31.22,11s26.53-1,31.22-11c.48-1-1-1.91-1.53-.89C88.31,68,71.27,68.74,63,68.74S37.68,68,33.3,58.63C32.82,57.61,31.31,58.5,31.78,59.52Z" style="fill:#dab5eb"/><path d="M31.66,66.11c.68,13.09,18.9,16.4,28.76,16.67,10.27.28,31.5-1.63,33.89-15.23.2-1.1-1.5-1.58-1.7-.47-2.12,12.08-21.09,14.06-30.2,14s-28.34-2.3-29-15A.88.88,0,0,0,31.66,66.11Z" style="fill:#dab5eb"/><path d="M31.69,74.54c7.37,26,54.72,27.44,62.62,1.17a.88.88,0,0,0-.61-1.08.89.89,0,0,0-1.09.61c-7.39,24.61-52.33,23.17-59.22-1.17a.88.88,0,0,0-1.7.47Z" style="fill:#dab5eb"/><path d="M62.7,104.47c-8.85-.29-14.05-6.08-17-13.89-1.18-3-1.48-8-4.36-9.86-1.54-1-4.06-.71-5.16-2.18-.68-.93-.58-2.84-.69-3.87-.3-3.13-.31-6.3-.33-9.44q0-6.89.3-13.78l-1.33.76C42.46,56.82,54,57,63.14,57s20.66-.19,29-4.81l-1.32-.76q.3,6.88.3,13.79a93.32,93.32,0,0,1-.37,9.89c-.11,1-.1,3-.78,3.73-1.28,1.52-4.3.86-5.85,2.35-2.35,2.34-2.71,7.32-3.9,10.26-3.18,7.83-8.72,13-17.58,13a.88.88,0,0,0,0,1.76c6.66,0,12.22-2.56,16-8.1a35.07,35.07,0,0,0,4-8.42C84,86,83.86,83.18,87.76,81.57c2.34-1,3.52-1,4.23-3.51s.68-5.94.75-8.73c.16-6,0-11.95-.23-17.9a.91.91,0,0,0-.91-.88,1,1,0,0,0-.42.12C83.11,55.14,72,55.24,63.07,55.24S43,55.14,35,50.67a.89.89,0,0,0-1.17.46,1,1,0,0,0-.07.33c-.25,5.58-.38,11.17-.26,16.74.08,4.13-.87,11,3.52,13.11,2.34,1.17,3.76,1,5,3.39a27.4,27.4,0,0,1,1.15,3.67,42.26,42.26,0,0,0,3.34,7.91,18.64,18.64,0,0,0,16.27,9.89C63.84,106.27,63.83,104.51,62.7,104.47Z" style="fill:#dab5eb"/><path d="M62.7,55.56v51.55a.88.88,0,0,0,1.76,0V55.56a.88.88,0,0,0-1.76,0Z" style="fill:#dab5eb"/><path d="M76,104.77c-1.88,1.36-3.34-2-4.13-3.16l1.63-1c.18-.11.67-.55.87-.54s0,0,.3.22a8.23,8.23,0,0,1,1.44,2C76.75,103.07,77,104.11,76,104.77Z" style="fill:url(#linear-gradient-13)"/><path d="M76,104.54c-1.58,1.06-2.56-.78-3.34-1.85-.11-.16-.78-.86-.75-1s1.09-.8,1.29-.94,1-1,1.28-.94.57.75.7.93C76,101.72,77.58,103.4,76,104.54Z" style="fill:url(#linear-gradient-14)"/><path d="M76.52,103.37c.6,1.17-1.41,2.24-2,1S75.88,102.13,76.52,103.37Z" style="fill:url(#radial-gradient)"/><path d="M76.23,103.34c.5,1-1.17,1.79-1.61.81S75.74,102.35,76.23,103.34Z" style="fill:url(#radial-gradient-2)"/><path d="M76.14,103.38c.43.87-1,1.59-1.42.72S75.71,102.52,76.14,103.38Z" style="fill:url(#radial-gradient-3)"/><path d="M76.15,103.41c.44.86-1,1.58-1.42.71S75.72,102.54,76.15,103.41Z" style="fill:url(#radial-gradient-4)"/><path d="M50.29,104.77h0c1.87,1.36,3.33-2,4.12-3.16l-1.66-1c-.18-.1-.67-.55-.87-.54s0,0-.31.23a8.22,8.22,0,0,0-1.46,2C49.58,103.07,49.34,104.11,50.29,104.77Z" style="fill:url(#linear-gradient-15)"/><path d="M50.31,104.54h0c1.53,1.18,2.59-.82,3.34-1.85.12-.16.78-.86.75-1s-1.09-.8-1.29-.94-1-1-1.28-.94-.57.75-.7.93C50.36,101.72,48.74,103.4,50.31,104.54Z" style="fill:url(#linear-gradient-16)"/><path d="M49.81,103.37c-.61,1.17,1.4,2.24,2,1S50.43,102.13,49.81,103.37Z" style="fill:url(#radial-gradient-5)"/><path d="M50.11,103.34c-.49,1,1.17,1.79,1.62.81S50.58,102.35,50.11,103.34Z" style="fill:url(#radial-gradient-6)"/><path d="M50.18,103.38c-.43.87,1,1.59,1.42.72S50.61,102.52,50.18,103.38Z" style="fill:url(#radial-gradient-7)"/><path d="M50.17,103.41c-.43.86,1,1.58,1.42.71S50.6,102.54,50.17,103.41Z" style="fill:url(#radial-gradient-8)"/><path d="M63.58,58C40,58,34.84,53,34.12,52.26c-.94-.76-1.86-1.17-1.52-2.53.58-2.34.45-4.69.87-7.13a26.9,26.9,0,0,1,3.25-8.81c.35-.61,1.32-2.77,2.05-3s1,.68,1.57.46c.85-.35,1.79-1.8,2.48-2.45a28.28,28.28,0,0,1,3.78-2.93c.77-.49,1.88-.78,2-1.67,0-.33-.32-.76-.24-1.09.15-.55,1.17-.79,1.72-1a27.52,27.52,0,0,1,9.13-2,58.72,58.72,0,0,1,10,.2,27.31,27.31,0,0,1,4.29.92c.73.22,1.46.47,2.18.75.42.16,2,.59,2.19,1s-.42,1.17-.25,1.67,1.17.78,1.55,1a19.52,19.52,0,0,1,2.18,1.51,33.91,33.91,0,0,1,3.4,3.06c.24.24.82,1.09,1.17,1.17s.42-.18.62-.26c.63-.26.62-.38,1.17,0a6.83,6.83,0,0,1,1.17,1.79,27.74,27.74,0,0,1,2.5,5,28.64,28.64,0,0,1,1.73,9.25,6.93,6.93,0,0,0,.13,1.7c.14.55.51,1.17.4,1.72C93.4,51.44,87.2,58,63.58,58Z" style="fill:#1663aa"/><path d="M70.81,38.11,73,37.05l4.5-2.14,7.37-3.24c.24,0,.45.1,1.21-.26l-.21-.49A14,14,0,0,0,84.2,29c-.41-.41-.82-.8-1.25-1.18A28.69,28.69,0,0,0,79,24.94q-.67-.4-1.38-.78l-.13-.07c-.49.76-.13.16-.61.92l-1.17,1.84-4.09,6.37-2.14,3.33a1.11,1.11,0,0,0,.37,1.53,1.12,1.12,0,0,0,1,.08Z" style="fill:#135694"/><path d="M55.25,38.11,53,37.05l-4.5-2.14-6.71-3.2-.68-.31c-.42-.12-.21.28-1-.08v-.4a15.27,15.27,0,0,1,1.73-2c.41-.41.82-.8,1.25-1.17a27.12,27.12,0,0,1,3.94-2.89c.45-.28.91-.54,1.38-.79l.13-.07c.49.76.13.16.61.93l1.17,1.84,4.09,6.37,2.14,3.33a1.11,1.11,0,0,1-1.38,1.6Z" style="fill:#135694"/><path d="M74.88,50.81A92.87,92.87,0,0,0,84.25,44,32.22,32.22,0,0,0,88.45,40c.56-.66,2.76-3,2.07-3.9,1.87-.64,1.62,3.93,1.65,4.78v4a8.31,8.31,0,0,1,0,2.44c-.28.74-1.78,1.17-2.52,1.39a27.73,27.73,0,0,1-4.92,1.17C81.52,50.32,78.17,50.47,74.88,50.81Z" style="fill:#0d4070"/><path d="M51.18,50.81A90.66,90.66,0,0,1,41.81,44,31.6,31.6,0,0,1,37.61,40c-.56-.66-2.76-3-2.07-3.9-1.88-.64-1.62,3.93-1.65,4.78v4a8.31,8.31,0,0,0,0,2.44c.28.74,1.78,1.17,2.51,1.39a27.94,27.94,0,0,0,4.92,1.17C44.58,50.32,47.89,50.47,51.18,50.81Z" style="fill:#0d4070"/><path d="M56.92,19.8c0-1.28,0-1.08,1.17-1.08H70a19.63,19.63,0,0,1-1.69,4.69l-3.4,7.9a10.9,10.9,0,0,1-.77,1.83c-.72,1.06-1.81.77-2.35-.27-1-2.13-1.68-4.47-2.51-6.68Z" style="fill:#0d4070"/><path d="M56.92,18.73a33.1,33.1,0,0,1,13.08,0L64.66,30.45A4.44,4.44,0,0,1,63.84,32c-.91.79-1.71,0-2.07-.85-.92-2.15-1.7-4.36-2.56-6.54Z" style="fill:#4d97db"/><path d="M74.88,50.81C81.3,46.73,87.45,43,91.63,36.42c.47.27.59,1.56.67,2,.26,1.31.43,2.62.56,3.94a33.72,33.72,0,0,1,.22,3.76c0,.55.1,1.48-.31,1.91-.67.7-2.45.88-3.34,1.07-1.61.34-3.23.56-4.87.76C81.35,50.26,78.11,50.48,74.88,50.81Z" style="fill:#4d97db"/><path d="M51.18,50.81C44.76,46.73,38.61,43,34.42,36.43c-.46.27-.58,1.56-.66,2-.26,1.3-.44,2.61-.57,3.93A36.46,36.46,0,0,0,33,46.13c0,.55-.09,1.48.32,1.91.67.71,2.45.88,3.34,1.07,1.6.34,3.23.56,4.87.76C44.71,50.26,48,50.48,51.18,50.81Z" style="fill:#4d97db"/><path d="M41.5,49.39c-1.64-.2-3.27-.42-4.87-.76-.89-.19-2.67-.36-3.34-1.06A1.85,1.85,0,0,1,33,46.33,2.58,2.58,0,0,0,33.29,48c.67.71,2.45.88,3.34,1.07,1.6.34,3.23.56,4.87.76,3.21.39,6.48.61,9.68.94l-.89-.56C47.38,50,44.42,49.74,41.5,49.39Z" style="fill:#0d4070"/><path d="M92.77,47.57c-.67.7-2.45.87-3.34,1.06-1.61.34-3.23.56-4.87.76-2.93.37-5.87.59-8.82.87l-.86.55c3.23-.33,6.47-.55,9.68-1,1.64-.2,3.26-.42,4.87-.76.89-.19,2.67-.37,3.34-1.07a2.62,2.62,0,0,0,.32-1.71A1.92,1.92,0,0,1,92.77,47.57Z" style="fill:#0d4070"/><path d="M57.2,36.9l-2.3-3.57-4.37-6.82-2-2.46c0,.1,1.05,1.38,1,1.47l.82,1.3,4.09,6.37,2.14,3.33a1.11,1.11,0,0,1-1.38,1.6h0L53,37.05l-4.5-2.14L42,31.8c0,.07-1.35-.39-1.41-.33l7.93,3.71,4.82,2.29,2.37,1.13h0A1.19,1.19,0,0,0,57.2,36.9Z" style="fill:#4d97db"/><path d="M68.9,36.9l2.3-3.57,4.38-6.82,2-2.46c0,.1-1,1.38-1,1.47l-.83,1.3-4.09,6.37-2.14,3.33a1.11,1.11,0,0,0,1.38,1.6h0l2.21-1.06,4.5-2.14L84,32.14c0,.07,2.39-.89,2.45-.83l-8.88,3.87-4.82,2.29L70.37,38.6h0A1.19,1.19,0,0,1,68.9,36.9Z" style="fill:#4d97db"/><path d="M44.63,31.29a36.82,36.82,0,0,0,4.5,2.1c.62.23,2.34,1,2.6.09s-.82-2.34-1.17-3-.92-1.51-1.41-2.24-.89-1.85-1.86-1.17C46.6,27.45,43.48,30.68,44.63,31.29Z" style="fill:#2c3147"/><path d="M81.44,31.29a38.26,38.26,0,0,1-4.5,2.1c-.62.23-2.35,1-2.6.09s.82-2.34,1.17-3,.91-1.51,1.4-2.24.89-1.85,1.87-1.17C79.47,27.45,82.58,30.68,81.44,31.29Z" style="fill:#2c3147"/></g></g></g></svg>
