<svg class="S" xmlns="http://www.w3.org/2000/svg" xmlns:xlink="http://www.w3.org/1999/xlink" viewBox="0 0 126 126"><defs><linearGradient id="linear-gradient" x1="99.84" y1="46.12" x2="100" y2="26.79" gradientUnits="userSpaceOnUse"><stop offset="0.1"/><stop offset="1" stop-color="#fff"/></linearGradient><linearGradient id="linear-gradient-2" x1="77.65" y1="61.15" x2="105.15" y2="87.98" xlink:href="#linear-gradient"/><linearGradient id="linear-gradient-3" x1="52.4" y1="88.7" x2="100.83" y2="88.7" xlink:href="#linear-gradient"/><linearGradient id="linear-gradient-4" x1="80.76" y1="52.84" x2="77.26" y2="16.17" xlink:href="#linear-gradient"/><linearGradient id="linear-gradient-5" x1="58.44" y1="72.1" x2="43.11" y2="57.27" xlink:href="#linear-gradient"/><linearGradient id="linear-gradient-6" x1="47.23" y1="59.47" x2="33.23" y2="40.13" xlink:href="#linear-gradient"/><linearGradient id="linear-gradient-7" x1="36.26" y1="40.13" x2="30.93" y2="32.96" xlink:href="#linear-gradient"/><linearGradient id="linear-gradient-8" x1="43.83" y1="99.36" x2="79.54" y2="99.36" xlink:href="#linear-gradient"/><radialGradient id="radial-gradient" cx="-251.22" cy="-158.23" r="117.54" gradientTransform="translate(209.18 142.88) scale(0.65)" gradientUnits="userSpaceOnUse"><stop offset="0" stop-color="#e9e9e9"/><stop offset="0.34" stop-color="#e7e7e7"/><stop offset="0.46" stop-color="#e0e0e0"/><stop offset="0.54" stop-color="#d5d5d5"/><stop offset="0.61" stop-color="#c4c4c4"/><stop offset="0.67" stop-color="#aeaeae"/><stop offset="0.73" stop-color="#929292"/><stop offset="0.77" stop-color="#727272"/><stop offset="0.82" stop-color="#4c4c4c"/><stop offset="0.86" stop-color="#232323"/><stop offset="0.89"/></radialGradient></defs><g style="isolation:isolate"><g id="design"><path d="M113,63a65.94,65.94,0,0,1-.49,6.78c-.85,1.52-4.61.67-8.88-1.25-5.44-44-25.9-53.15-27.25-53.72A50,50,0,0,1,113,63Z" style="fill:#6659ff"/><path d="M110.61,68.56a15.73,15.73,0,0,1-5.14-1.41c-3-23.3-10.32-36.92-16.74-44.68A48.17,48.17,0,0,1,111,63c0,1.59-.18,3.81-.36,5.56Z" style="opacity:0.5;mix-blend-mode:screen;fill:url(#linear-gradient)"/><path d="M103.63,68.53c4.27,1.92,8.39,2.2,8.88,1.48a44.83,44.83,0,0,1-7.93,20.77c-23.22-.45-42.44-21.51-42.44-21.51A118.91,118.91,0,0,1,81.29,53.73C81.29,53.91,94.25,64.34,103.63,68.53Z" style="fill:#d9d9d9"/><path d="M103.52,88.74c-18.24-.89-34-14.95-38.56-19.45a118.45,118.45,0,0,1,16.15-13c1.23,1,3.26,2.57,6.67,5a96,96,0,0,0,15,9.1,22.84,22.84,0,0,0,7.35,2A42.26,42.26,0,0,1,103.52,88.74Z" style="opacity:0.5;mix-blend-mode:screen;fill:url(#linear-gradient-2)"/><path d="M104.58,90.78a50.2,50.2,0,0,1-18.42,16.54C62.64,104.44,50,84.12,50,84.12A96,96,0,0,1,62.14,69.27S81.36,90.33,104.58,90.78Z" style="fill:#d9d9d9"/><path d="M85.78,105.26c-18.86-2.59-30.47-17.1-33.38-21.15a94,94,0,0,1,9.74-12c4.71,4.67,20,18.41,38.69,20.4A48.11,48.11,0,0,1,85.78,105.26Z" style="opacity:0.5;mix-blend-mode:screen;fill:url(#linear-gradient-3)"/><path d="M76.38,14.81c1.35.57,21.81,9.69,27.25,53.72-9.38-4.19-22.34-14.62-22.34-14.8-1-9.94-3.38-16.74-6.52-22.2a33.28,33.28,0,0,0-9.46-10.34A29.75,29.75,0,0,0,47,15.62h0a50.4,50.4,0,0,1,29.32-.82Z" style="fill:#6659ff"/><path d="M101.13,65.05A136,136,0,0,1,83.2,52.76c-.92-8.82-3.06-15.9-6.69-22.23a35.36,35.36,0,0,0-10-11,32.86,32.86,0,0,0-8.5-4.3A46.81,46.81,0,0,1,63,15a48,48,0,0,1,12.61,1.68l.06,0,.08,0C77.71,17.61,95.39,26.73,101.13,65.05Z" style="opacity:0.5;mix-blend-mode:screen;fill:url(#linear-gradient-4)"/><path d="M74.77,31c3.14,5.46,5.57,12.84,6.52,22.78A118.91,118.91,0,0,0,62.14,69.27,96,96,0,0,0,50,84.12c-6.76,10.3-8.4,17.67-8.4,17.67-2.63.94-11.76-1.7-12.29-1.87l-.54-.49a49.77,49.77,0,0,1-6.19-7C27.68,67.61,74.77,31,74.77,31Z" style="fill:#ffc826"/><path d="M40,100c-2.81,0-8.09-1.39-9.7-1.86l-.2-.18a47.45,47.45,0,0,1-5.39-6c5.13-21,40.82-51,49.42-57.93a56.09,56.09,0,0,1,5,18.71A120.47,120.47,0,0,0,60.72,67.86,98.6,98.6,0,0,0,48.32,83,67.13,67.13,0,0,0,40,100Z" style="opacity:0.5;mix-blend-mode:screen;fill:url(#linear-gradient-5)"/><path d="M64.64,21.61c3.22,2.29,7.48,4.74,10.13,9.34,0,0-47.09,36.66-52.2,61.46a49.69,49.69,0,0,1-8.87-21S25.91,30.43,65,21Z" style="fill:#ffc826"/><path d="M21.84,87.7a48,48,0,0,1-6.08-16.18c1.5-4.31,14.43-38.55,48-48.11l1.25.86a28.4,28.4,0,0,1,7.13,6.24C64.45,36.64,30,65.16,21.84,87.7Z" style="opacity:0.5;mix-blend-mode:screen;fill:url(#linear-gradient-6)"/><path d="M64.8,21.05,65,21C25.91,30.43,13.7,71.36,13.7,71.36A50.06,50.06,0,0,1,47,15.61h0S55.68,14.6,64.8,21.05Z" style="fill:#ffc826"/><path d="M15,63a48,48,0,0,1,32.37-45.4c.18,0,.52,0,1,0a26.27,26.27,0,0,1,11.49,2.86C34.21,29,20.63,51.13,15,63Z" style="opacity:0.5;mix-blend-mode:screen;fill:url(#linear-gradient-7)"/><path d="M86.16,107.32A49.74,49.74,0,0,1,63,113c-.79,0-1.47,0-2.36-.06-8.67-.78-19-11.15-19-11.15s1.64-7.37,8.4-17.67C50,84.12,62.64,104.44,86.16,107.32Z" style="fill:#d9d9d9"/><path d="M63,111c-.75,0-1.41,0-2.25-.06-6.47-.57-14.37-7.41-16.92-9.77a61.29,61.29,0,0,1,6.25-13.45c3.85,5.08,13.8,16.22,29.46,20.36A47.53,47.53,0,0,1,63,111Z" style="opacity:0.5;mix-blend-mode:screen;fill:url(#linear-gradient-8)"/><path d="M57.1,112.26l3.54.68C48.33,112.37,38.4,108.4,30,100.49c.53.17,9,2.24,11.59,1.3C41.59,101.79,50.63,110.42,57.1,112.26Z" style="fill:#4b42bd"/><path d="M113,63a50,50,0,0,1-.44,6.63q-.06.53-.15,1.05a49.38,49.38,0,0,1-7.49,19.58c-.21.33-.43.66-.65,1a50.36,50.36,0,0,1-17,15.52h0l-1.47.79A49.89,49.89,0,0,1,63,113c-.69,0-1.37,0-2,0a44.27,44.27,0,0,1-5.05-.46h0A49.67,49.67,0,0,1,30.6,101.07c-.53-.44-1-.9-1.55-1.38a48.13,48.13,0,0,1-5.91-6.52c-.27-.35-.53-.7-.78-1.06a49.51,49.51,0,0,1-8.63-20.56l-.31-2.06h0A49.44,49.44,0,0,1,13,63a50,50,0,0,1,1.28-11.29s0,0,0-.05a50.55,50.55,0,0,1,2.33-7.37s0,0,0,0A50.15,50.15,0,0,1,46,16c.87-.32,1.75-.61,2.64-.86a50.16,50.16,0,0,1,27.24-.4h0c1.06.28,2.1.59,3.14.94A50,50,0,0,1,113,63Z" style="opacity:0.2;mix-blend-mode:multiply;fill:url(#radial-gradient)"/><path d="M111.33,69.77a19.8,19.8,0,0,1-7.23-2c-4-32.21-17.56-46.52-25-52.1-1-.35-2.08-.66-3.14-.94C82,18.4,98.37,31.5,103,67.24,94,63,83,54.6,81.77,53.5c-1.38-14-6.2-24.48-14.33-31.08a34.55,34.55,0,0,0-17.58-7.21l0-.13-.23.1h0c-.3,0-.6-.08-.89-.09-.89.25-1.77.54-2.64.86.51,0,1.08,0,1.72.07-5.71,2.79-22,11.85-31.13,28.24,0,0,0,0,0,0a50.55,50.55,0,0,0-2.33,7.37C22.81,29,46.15,17.8,49.72,16.2h0A34.41,34.41,0,0,1,63.5,20.87C31,29.35,16.9,60.38,13.42,69.48h0l.31,2.06c1.94-5.61,15.54-41.28,50.91-49.94.73.49,1.46,1,2.18,1.61a32.37,32.37,0,0,1,7,7.88c-5.9,4.81-45.52,37.7-51.42,61,.25.36.51.71.78,1.06,5-22.61,45.12-56.24,51.18-61.2a39.25,39.25,0,0,1,2,3.76,55.7,55.7,0,0,1,4.48,17.75c-31.63,21-38.82,45-39.6,47.91-2.07.46-8.34-.81-12.12-1.7.51.48,1,.94,1.55,1.38A51.55,51.55,0,0,0,40,102.48a6.49,6.49,0,0,0,1.44-.13c1.17,1.24,7,7.12,14.44,10.14h0A44.27,44.27,0,0,0,61,113c-9.31-1.74-17.48-9.92-18.81-11.3.35-1.33,2.25-7.85,7.9-16.62,2.57,3.36,15.6,19.23,35.69,22.52l1.47-.79C66,103.93,52.48,86.63,50.63,84.13A95.42,95.42,0,0,1,62.16,70C65,72.82,83.31,90.24,104.27,91.24c.22-.32.44-.65.65-1-20.87-.66-39.29-18.21-42.06-21a118,118,0,0,1,18.4-14.93c.62.57,2.06,1.68,5.29,4a135.93,135.93,0,0,0,12.16,7.78c5.56,3.08,9.8,4.63,12.68,4.63a6.63,6.63,0,0,0,1-.07q.09-.53.15-1.05A5.63,5.63,0,0,1,111.33,69.77Z" style="fill:#1a1a1a"/><path d="M113,63a50.15,50.15,0,0,1-.44,6.64c0,.34-.09.69-.15,1a49.37,49.37,0,0,1-7.49,19.59c-.21.32-.43.66-.65,1a50.23,50.23,0,0,1-17,15.51h0c-.49.28-1,.54-1.47.8A50,50,0,0,1,63,113c-.69,0-1.37,0-2,0a44.27,44.27,0,0,1-5.05-.46h0A49.76,49.76,0,0,1,30.6,101.07c-.53-.44-1-.9-1.55-1.38a48.13,48.13,0,0,1-5.91-6.52c-.27-.36-.53-.7-.78-1.07a49.27,49.27,0,0,1-6.34-12,48.28,48.28,0,0,0,10,2.51h0a42.12,42.12,0,0,0,5.05.47c.69,0,1.36,0,2.06,0a49.87,49.87,0,0,0,22.72-5.44l1.47-.79h0A50.49,50.49,0,0,0,74.43,61.4c.22-.32.45-.65.66-1a49.56,49.56,0,0,0,7.48-19.59c.06-.35.11-.69.16-1A50.12,50.12,0,0,0,80.14,16,50,50,0,0,1,113,63Z" style="fill:#878787;opacity:0.2;mix-blend-mode:multiply"/><path d="M113,63a50.15,50.15,0,0,1-.44,6.64c0,.34-.09.69-.15,1a49.37,49.37,0,0,1-7.49,19.59c-.21.32-.43.66-.65,1a50.23,50.23,0,0,1-17,15.51h0c-.49.28-1,.54-1.47.8A50,50,0,0,1,63,113c-.69,0-1.37,0-2,0a44.27,44.27,0,0,1-5.05-.46h0A49.76,49.76,0,0,1,30.6,101.07c-.53-.44-1-.9-1.55-1.38a48.4,48.4,0,0,1-5.89-6.49,49.57,49.57,0,0,0,23.07,9.65h0a44.27,44.27,0,0,0,5.05.46c.68,0,1.36,0,2,0a49.89,49.89,0,0,0,22.73-5.45l1.48-.79h0a50.37,50.37,0,0,0,17-15.52l.65-1A49.42,49.42,0,0,0,102.77,61c.06-.35.11-.69.15-1.05A50,50,0,0,0,93.2,23.16,49.86,49.86,0,0,1,113,63Z" style="fill:#878787;opacity:0.2;mix-blend-mode:multiply"/></g></g></svg>
