<svg class="S" xmlns="http://www.w3.org/2000/svg" viewBox="0 0 126 126"><g style="isolation:isolate"><g id="design"><path d="M41.85,29.29c2.43,2.43,4.82,4.6,8.86,8.87s-1.13,8.6,3.53,13.26l50.87,50.88a5.13,5.13,0,0,0,2.69.91c1.44,0,2-1.49,3.15-1.17,2.53.71.41,3.51-.2,4.45a16.69,16.69,0,0,1-3.78,3.77c-1.14.83-3.76,3.76-5.26,1.93-.84-1,.61-2.71.66-3.87.11-1.37.31-2.19-.67-3.44L51.24,54.42c-4.66-4.66-9,.34-13.16-3.63s-6.43-6.43-8.86-8.87C22.57,35.27,7.66,24.68,16.66,15.68,25.78,7.25,35.2,22.64,41.85,29.29Z" style="fill:#d2ae5e"/><g style="opacity:0.63"><path d="M33.46,20a21.85,21.85,0,0,0-3.3,3.51c-2.68,3.89-6.28,7-9.37,10.48a38.23,38.23,0,0,1-4.25-5c.75-1.1,1.48-2.22,2.31-3.26a74.73,74.73,0,0,1,7-7.43,21.33,21.33,0,0,1,3.05-2.44A37.82,37.82,0,0,1,33.46,20Z" style="fill:#f2f2f2"/></g><g style="opacity:0.63"><path d="M98.5,95.69l5.52,5.52a22.3,22.3,0,0,0-2.38,3.61l-6-6C96.61,97.78,97.56,96.74,98.5,95.69Z" style="fill:#f2f2f2"/></g><g style="opacity:0.2;mix-blend-mode:multiply"><path d="M21.6,13.27l3.56,3.56c5.4,5.4,9.14,12.13,14.55,17.54-2.66-2.66-5.32-5.16-7.9-7.74-3.41-3.41-6.73-6.89-10.22-10a37.83,37.83,0,0,0-3.09-2.27A7.27,7.27,0,0,1,21.6,13.27Z" style="fill:#999"/></g><g style="opacity:0.2;mix-blend-mode:multiply"><path d="M25.82,32.29a56,56,0,0,1-11.58-7.82,8.91,8.91,0,0,1-.37-3.34c2.24,2.74,5.75,5.42,8,7.49C23.16,29.79,24.49,31,25.82,32.29Z" style="fill:#999"/></g><path d="M96.71,41.85c-2.44,2.43-4.6,4.82-8.87,8.86s-8.6-1.13-13.26,3.53L23.7,105.12a5.07,5.07,0,0,0-.91,2.68c0,1.44,1.49,2,1.17,3.15-.71,2.53-3.51.41-4.45-.2A16.69,16.69,0,0,1,15.74,107c-.83-1.14-3.76-3.76-1.93-5.26,1-.84,2.71.61,3.88.66,1.37.1,2.18.3,3.43-.67L71.58,51.24c4.66-4.66-.34-9,3.64-13.16s6.42-6.43,8.86-8.86c6.65-6.65,17.24-21.56,26.24-12.56C118.75,25.78,103.36,35.2,96.71,41.85Z" style="fill:#d2ae5e"/><g style="opacity:0.63"><path d="M106.05,33.46a22.28,22.28,0,0,0-3.51-3.3c-3.89-2.68-7-6.28-10.48-9.37a38.23,38.23,0,0,1,5-4.25c1.09.75,2.22,1.48,3.26,2.31a73.58,73.58,0,0,1,7.43,7,21.33,21.33,0,0,1,2.44,3.05A37.82,37.82,0,0,1,106.05,33.46Z" style="fill:#f2f2f2"/></g><g style="opacity:0.63"><path d="M30.31,98.5,24.79,104a23,23,0,0,0-3.61-2.39l6-6C28.22,96.61,29.26,97.56,30.31,98.5Z" style="fill:#f2f2f2"/></g><g style="opacity:0.2;mix-blend-mode:multiply"><path d="M112.73,21.6l-3.55,3.56C103.77,30.56,97,34.3,91.63,39.71c2.66-2.66,5.16-5.32,7.74-7.9,3.41-3.41,6.89-6.73,10-10.22.83-.93,1.52-2.05,2.28-3.09A7.38,7.38,0,0,1,112.73,21.6Z" style="fill:#999"/></g><g style="opacity:0.2;mix-blend-mode:multiply"><path d="M93.7,25.82a56,56,0,0,1,7.83-11.58,8.91,8.91,0,0,1,3.34-.37c-2.74,2.24-5.42,5.75-7.49,8C96.21,23.16,95,24.49,93.7,25.82Z" style="fill:#999"/></g><g style="opacity:0.32;mix-blend-mode:multiply"><path d="M68,65.18c-.72,1.2-1.46,2.49-2.18,3.82l-3-3,3-3Z" style="fill:#999"/></g><g style="opacity:0.32;mix-blend-mode:multiply"><path d="M62.85,60l-3,3L57.62,60.8c1.13-.89,2.24-1.8,3.29-2.71Z" style="fill:#999"/></g><path d="M63,118S45.26,102.57,45.26,64.27C45.26,34.33,61.87,8,63,8c1.35,0,17.74,25.59,17.74,56.27C80.74,100.22,63,118,63,118Z" style="fill:#8e735b"/><ellipse cx="63.1" cy="62.68" rx="11.67" ry="18.26" style="fill:#2a2628"/><g style="opacity:0.49"><path d="M63.1,38.47c6.55,0,12.14,6.35,14.4,15.33C74.66,32.33,64,15.89,63,15.89S50.88,33.59,48.32,55.48C50.28,45.62,56.16,38.47,63.1,38.47Z" style="fill:#a5856a"/><path d="M63.1,86.88c-7.67,0-14-8.73-15.26-20.19C48.61,97.6,63,110.11,63,110.11S76.62,96.45,78.07,68.85C76.32,79.23,70.28,86.88,63.1,86.88Z" style="fill:#a5856a"/></g><path d="M74.78,62.68a27.51,27.51,0,0,0-.89-7A23.63,23.63,0,0,1,61.53,59,24.74,24.74,0,0,1,52,57.12a27.66,27.66,0,0,0-.55,5.56c0,10.08,5.22,18.26,11.67,18.26S74.78,72.76,74.78,62.68Z" style="fill:none"/><path d="M73.89,55.67C72.13,49.06,68,44.42,63.1,44.42c-5.21,0-9.62,5.33-11.12,12.7A24.74,24.74,0,0,0,61.53,59,23.63,23.63,0,0,0,73.89,55.67Z" style="fill:#ffd774"/><polygon points="53.96 37.89 54.21 37.64 71.3 42.7 71.04 42.95 53.96 37.89" style="fill:#3a3538"/><polygon points="53.96 42.7 71.04 37.64 71.3 37.89 54.21 42.95 53.96 42.7" style="fill:#3a3538"/><polygon points="56.36 33.72 56.61 33.47 71.3 37.82 71.04 38.07 56.36 33.72" style="fill:#3a3538"/><polygon points="53.96 37.82 68.64 33.47 68.9 33.72 54.21 38.07 53.96 37.82" style="fill:#3a3538"/><polygon points="58.08 30.61 58.34 30.36 68.9 33.49 68.64 33.74 58.08 30.61" style="fill:#3a3538"/><polygon points="56.36 33.49 66.92 30.36 67.17 30.61 56.61 33.74 56.36 33.49" style="fill:#3a3538"/><path d="M67,30.82c-.31,0-.56-.14-.56-.31s.25-.32.56-.32.56.14.56.32S67.31,30.82,67,30.82Z" style="fill:#3a3538"/><path d="M68.77,33.93c-.31,0-.56-.14-.56-.31s.25-.32.56-.32.56.14.56.32S69.08,33.93,68.77,33.93Z" style="fill:#3a3538"/><path d="M71.17,38.25c-.31,0-.56-.14-.56-.31s.25-.31.56-.31.56.14.56.31S71.48,38.25,71.17,38.25Z" style="fill:#3a3538"/><path d="M71.43,43.14c-.31,0-.56-.14-.56-.31s.25-.31.56-.31.56.14.56.31S71.74,43.14,71.43,43.14Z" style="fill:#3a3538"/><path d="M58.19,30.82c.31,0,.56-.14.56-.31s-.25-.32-.56-.32-.56.14-.56.32S57.88,30.82,58.19,30.82Z" style="fill:#3a3538"/><path d="M56.42,33.93c.31,0,.56-.14.56-.31s-.25-.32-.56-.32-.56.14-.56.32S56.12,33.93,56.42,33.93Z" style="fill:#3a3538"/><path d="M54,38.25c.31,0,.56-.14.56-.31s-.25-.31-.56-.31-.56.14-.56.31S53.71,38.25,54,38.25Z" style="fill:#3a3538"/><path d="M53.76,43.14c.31,0,.56-.14.56-.31s-.25-.31-.56-.31-.56.14-.56.31S53.45,43.14,53.76,43.14Z" style="fill:#3a3538"/></g></g></svg>
