<svg class="S" xmlns="http://www.w3.org/2000/svg" xmlns:xlink="http://www.w3.org/1999/xlink" viewBox="0 0 126 126"><defs><linearGradient id="linear-gradient" x1="13" y1="63" x2="113" y2="63" gradientUnits="userSpaceOnUse"><stop offset="0" stop-color="#fff100"/><stop offset="0.15" stop-color="#fcec00"/><stop offset="0.33" stop-color="#f4df02"/><stop offset="0.51" stop-color="#e6c903"/><stop offset="0.69" stop-color="#d3aa06"/><stop offset="0.88" stop-color="#ba820a"/><stop offset="1" stop-color="#a8650c"/></linearGradient><clipPath id="clip-path"><circle cx="63" cy="63" r="50" style="fill:none"/></clipPath><linearGradient id="linear-gradient-2" x1="11" y1="62.46" x2="112.49" y2="62.46" gradientUnits="userSpaceOnUse"><stop offset="0" stop-color="#333"/><stop offset="0.4" stop-color="#2f2f2f"/><stop offset="0.83" stop-color="#212121"/><stop offset="0.98" stop-color="#1b1b1b"/></linearGradient><filter id="luminosity-noclip" x="24.33" y="-8693" width="79.69" height="32766" filterUnits="userSpaceOnUse" color-interpolation-filters="sRGB"><feFlood flood-color="#fff" result="bg"/><feBlend in="SourceGraphic" in2="bg"/></filter><mask id="mask" x="24.33" y="-8693" width="79.69" height="32766" maskUnits="userSpaceOnUse"><g style="filter:url(#luminosity-noclip)"/></mask><linearGradient id="linear-gradient-3" x1="64.17" y1="-5.52" x2="64.17" y2="75.03" gradientUnits="userSpaceOnUse"><stop offset="0" stop-color="#fff" stop-opacity="0.4"/><stop offset="0.01" stop-color="#fff" stop-opacity="0.39"/><stop offset="0.32" stop-color="#fff" stop-opacity="0.22"/><stop offset="0.6" stop-color="#fff" stop-opacity="0.1"/><stop offset="0.84" stop-color="#fff" stop-opacity="0.03"/><stop offset="1" stop-color="#fff" stop-opacity="0"/></linearGradient></defs><g style="isolation:isolate"><g id="design"><circle cx="63" cy="63" r="50" style="fill:url(#linear-gradient)"/><g style="clip-path:url(#clip-path)"><path d="M27.15,90.4C21.73,86,16,74.18,15.78,73.68l.57-.27c.06.12,5.88,12.23,11.2,16.5Z" style="fill:#a86612"/><path d="M84,15.41v2a36.39,36.39,0,0,1,4.64,14l-16.8,6.78C69,36.3,54.07,32.49,51.07,31.74L48.7,19c1.83-1,13.57-6.95,18.76-7.14,0,0-25.1-4.84-37.6,11.42,0,0,13.3-3.95,18.23-4.14l2.33,12.56c-1.11,1.1-10,9.93-13.85,16.7-4,.1-12.54,2.57-16,3.62-1.32-3.72-1-15.27-1.76-14.83-2.68,1.47-8.35,28.44-7.73,31.56s5,4.77,5,4.77c.27-5.91,3.87-18.66,4.5-20.85,3.32-1,11.94-3.49,15.85-3.64A70,70,0,0,0,48.33,67.38c-.72,2.35-4.74,15.45-5.6,20.62C38,89.19,27.35,90.15,27.35,90.15,27.14,93.27,35.08,108,35.08,108s16.29,7.47,19.24,5.32c2.56-1.86,6-8.7,6.87-10.49,4.13-1.15,16.3-4.65,20.89-7.09h0c.62.83,14.41,3.94,14.41,3.94,4.6-2.7,13.16-16.92,13.16-16.92.39-3.57-3.5-13.4-4.4-15.63,2-5.93,1.06-18.41.82-21.23,1.25-.79,5.68-3.79,6.39-6.63C113.31,36,84,15.41,84,15.41ZM82.1,95c-4.09,2.32-16.76,6-21,7.18-5.76-3.3-16.36-13-17.71-14.22.87-5.08,4.76-17.83,5.54-20.34C51.16,67,68.19,62.13,71,60.6L87.31,75.32C87.25,79.57,82.65,91.87,82.1,95Zm22.54-28c-4.4,3.11-14.74,7-16.92,7.83L71.25,60c.16-3,1-18.5,1.06-21.32v0l16.76-6.76c1.93,1.26,10.31,6.94,16.38,13.92C105.63,48.08,106.65,61.15,104.64,67Z" style="fill:url(#linear-gradient-2)"/></g><g style="mask:url(#mask)"><path d="M64.17,18.07c-22,0-39.84,15.66-39.84,35v0a8.62,8.62,0,0,0,4.47,7.27,69.18,69.18,0,0,0,35.37,9.51,69.19,69.19,0,0,0,35.38-9.51A8.62,8.62,0,0,0,104,53.09v0C104,33.73,86.18,18.07,64.17,18.07Z" style="fill:url(#linear-gradient-3)"/></g><path d="M113,62.72a49.13,49.13,0,0,1-.44,6.58c0,.35-.09.7-.14,1A49.18,49.18,0,0,1,105,89.78l-.65,1a50,50,0,0,1-16.92,15.4h0l-1.46.79a49.56,49.56,0,0,1-22.56,5.4c-.68,0-1.35,0-2,0a45.93,45.93,0,0,1-5-.45h0A49.27,49.27,0,0,1,31.23,100.5c-.52-.43-1-.89-1.53-1.36a48,48,0,0,1-5.87-6.47c-.27-.35-.53-.7-.77-1.06a49.15,49.15,0,0,1-6.3-11.88,47,47,0,0,0,9.94,2.5h0a43.37,43.37,0,0,0,5,.46c.68,0,1.35,0,2,0a49.43,49.43,0,0,0,22.55-5.41c.49-.25,1-.51,1.46-.78h0A49.91,49.91,0,0,0,74.73,61.14c.22-.31.44-.64.65-1A49.06,49.06,0,0,0,82.8,40.74c.06-.35.11-.69.16-1a49.14,49.14,0,0,0,.43-6.58,49.49,49.49,0,0,0-3-17A49.62,49.62,0,0,1,113,62.72Z" style="fill:#878787;opacity:0.2;mix-blend-mode:multiply"/><path d="M113,62.72a49.13,49.13,0,0,1-.44,6.58c0,.35-.09.7-.14,1A49.18,49.18,0,0,1,105,89.78l-.65,1a50,50,0,0,1-16.92,15.4h0l-1.46.79a49.56,49.56,0,0,1-22.56,5.4c-.68,0-1.35,0-2,0a45.93,45.93,0,0,1-5-.45h0A49.27,49.27,0,0,1,31.23,100.5c-.52-.43-1-.89-1.53-1.36a47.78,47.78,0,0,1-5.85-6.45,49.11,49.11,0,0,0,22.89,9.58h0a43.78,43.78,0,0,0,5,.46c.68,0,1.35,0,2,0a49.56,49.56,0,0,0,22.56-5.41l1.46-.78h0A50,50,0,0,0,94.77,81.18c.22-.32.44-.64.65-1a49,49,0,0,0,7.43-19.43c.06-.35.11-.69.15-1a49.75,49.75,0,0,0-9.65-36.55A49.49,49.49,0,0,1,113,62.72Z" style="fill:#878787;opacity:0.2;mix-blend-mode:multiply"/></g></g></svg>
