<svg class="S" xmlns="http://www.w3.org/2000/svg" xmlns:xlink="http://www.w3.org/1999/xlink" viewBox="0 0 126 126"><defs><radialGradient id="radial-gradient" cx="1166.31" cy="1077.83" r="48.6" gradientTransform="matrix(0, -0.9, -1, 0, 1132.23, 1124.95)" gradientUnits="userSpaceOnUse"><stop offset="0.25" stop-color="#231f20"/><stop offset="0.41" stop-color="#231f20" stop-opacity="0.69"/><stop offset="0.75" stop-color="#231f20" stop-opacity="0.18"/><stop offset="1" stop-color="#231f20" stop-opacity="0"/></radialGradient><radialGradient id="radial-gradient-2" cx="1181.24" cy="1070.28" r="48.6" gradientTransform="matrix(0, -0.9, -1, 0, 1132.23, 1124.95)" gradientUnits="userSpaceOnUse"><stop offset="0" stop-color="#fff"/><stop offset="0.12" stop-color="#fff" stop-opacity="0.82"/><stop offset="0.3" stop-color="#fff" stop-opacity="0.58"/><stop offset="0.48" stop-color="#fff" stop-opacity="0.37"/><stop offset="0.64" stop-color="#fff" stop-opacity="0.21"/><stop offset="0.78" stop-color="#fff" stop-opacity="0.09"/><stop offset="0.91" stop-color="#fff" stop-opacity="0.02"/><stop offset="1" stop-color="#fff" stop-opacity="0"/></radialGradient><radialGradient id="radial-gradient-3" cx="1161.65" cy="1085.63" r="48.6" gradientTransform="matrix(0.18, -0.88, -1.29, -0.22, 1229.67, 1343.61)" gradientUnits="userSpaceOnUse"><stop offset="0.14" stop-color="#231f20"/><stop offset="0.43" stop-color="#231f20" stop-opacity="0.88"/><stop offset="0.73" stop-color="#231f20" stop-opacity="0.51"/><stop offset="1" stop-color="#231f20" stop-opacity="0"/></radialGradient><radialGradient id="radial-gradient-4" cx="499.86" cy="242.24" r="19.14" gradientTransform="matrix(0, -1.8, -1.37, 0, 407.07, 944.86)" gradientUnits="userSpaceOnUse"><stop offset="0" stop-color="#fff"/><stop offset="0.06" stop-color="#fff" stop-opacity="0.88"/><stop offset="0.18" stop-color="#fff" stop-opacity="0.65"/><stop offset="0.31" stop-color="#fff" stop-opacity="0.45"/><stop offset="0.43" stop-color="#fff" stop-opacity="0.29"/><stop offset="0.54" stop-color="#fff" stop-opacity="0.16"/><stop offset="0.66" stop-color="#fff" stop-opacity="0.07"/><stop offset="0.76" stop-color="#fff" stop-opacity="0.02"/><stop offset="0.85" stop-color="#fff" stop-opacity="0"/></radialGradient><radialGradient id="radial-gradient-5" cx="1161.65" cy="1085.63" r="48.6" gradientTransform="matrix(0.18, -0.88, -1.29, -0.22, 1229.67, 1343.61)" gradientUnits="userSpaceOnUse"><stop offset="0" stop-color="#231f20"/><stop offset="0.33" stop-color="#231f20" stop-opacity="0.88"/><stop offset="0.69" stop-color="#231f20" stop-opacity="0.51"/><stop offset="1" stop-color="#231f20" stop-opacity="0"/></radialGradient><radialGradient id="radial-gradient-6" cx="34.3" cy="30.82" r="2.46" gradientUnits="userSpaceOnUse"><stop offset="0" stop-color="#a7a9ac"/><stop offset="0.11" stop-color="#8d8f91"/><stop offset="0.28" stop-color="#6b6c6e"/><stop offset="0.46" stop-color="#515153"/><stop offset="0.64" stop-color="#3e3e40"/><stop offset="0.82" stop-color="#333334"/><stop offset="1" stop-color="#2f2f30"/></radialGradient><radialGradient id="radial-gradient-7" cx="43.49" cy="30.82" r="2.46" xlink:href="#radial-gradient-6"/><radialGradient id="radial-gradient-8" cx="52.68" cy="30.82" r="2.46" xlink:href="#radial-gradient-6"/><radialGradient id="radial-gradient-9" cx="61.87" cy="30.82" r="2.46" xlink:href="#radial-gradient-6"/><radialGradient id="radial-gradient-10" cx="71.06" cy="30.82" r="2.46" xlink:href="#radial-gradient-6"/><radialGradient id="radial-gradient-11" cx="80.25" cy="30.82" r="2.46" xlink:href="#radial-gradient-6"/><radialGradient id="radial-gradient-12" cx="89.43" cy="30.82" r="2.46" xlink:href="#radial-gradient-6"/><radialGradient id="radial-gradient-13" cx="34.3" cy="93.88" r="2.46" xlink:href="#radial-gradient-6"/><radialGradient id="radial-gradient-14" cx="43.49" cy="93.88" r="2.46" xlink:href="#radial-gradient-6"/><radialGradient id="radial-gradient-15" cx="52.68" cy="93.88" r="2.46" xlink:href="#radial-gradient-6"/><radialGradient id="radial-gradient-16" cx="61.87" cy="93.88" r="2.46" xlink:href="#radial-gradient-6"/><radialGradient id="radial-gradient-17" cx="71.06" cy="93.88" r="2.46" xlink:href="#radial-gradient-6"/><radialGradient id="radial-gradient-18" cx="80.25" cy="93.88" r="2.46" xlink:href="#radial-gradient-6"/><radialGradient id="radial-gradient-19" cx="89.43" cy="93.88" r="2.46" xlink:href="#radial-gradient-6"/><radialGradient id="radial-gradient-20" cx="93.45" cy="82.44" r="23.99" gradientTransform="translate(17.64 -15.09) rotate(10.61)" gradientUnits="userSpaceOnUse"><stop offset="0" stop-color="#f9ec31"/><stop offset="0.44" stop-color="#f2c336"/><stop offset="0.54" stop-color="#ebbc35"/><stop offset="0.67" stop-color="#d9aa32"/><stop offset="0.83" stop-color="#ba8c2d"/><stop offset="1" stop-color="#926427"/></radialGradient><radialGradient id="radial-gradient-21" cx="-130.54" cy="249.88" r="8.76" gradientTransform="matrix(0, 1.8, -1.37, 0, 436.25, 314.61)" xlink:href="#radial-gradient-4"/></defs><g style="isolation:isolate"><g id="design"><ellipse cx="62.2" cy="62.36" rx="50" ry="45.32" style="fill:#3b3a3c"/><ellipse cx="61.96" cy="62.31" rx="48.6" ry="43.72" style="opacity:0.5;mix-blend-mode:multiply;fill:url(#radial-gradient)"/><ellipse cx="61.96" cy="62.31" rx="48.6" ry="43.72" style="opacity:0.5;fill:url(#radial-gradient-2)"/><ellipse cx="61.96" cy="62.31" rx="48.6" ry="43.72" style="opacity:0.5;mix-blend-mode:multiply;fill:url(#radial-gradient-3)"/><path d="M105.85,84.47H18.55c.18.29.36.58.55.87h86.2c.19-.29.37-.58.55-.87Zm-1.63,2.46h-84c.2.29.41.57.63.86h82.78l.63-.86Zm-1.88,2.45H22.06c.23.29.48.58.72.86h78.83c.25-.28.49-.57.73-.86ZM93,98.06H31.39l1.26.86H91.74c.43-.28.85-.57,1.26-.86ZM90.1,100H34.3c.48.3,1,.58,1.47.87H88.62c.5-.29,1-.57,1.48-.87Zm-3.44,1.92H37.73c.59.3,1.18.58,1.77.86H84.89c.6-.28,1.19-.56,1.77-.86ZM18.55,40.24h87.3l-.55-.86H19.1l-.55.86Zm1.63-2.45h84l-.63-.86H20.81c-.22.28-.43.57-.63.86Zm1.88-2.45h80.28l-.73-.87H22.78c-.24.29-.49.58-.72.87Zm9.33-8.68H93c-.41-.29-.83-.58-1.26-.86H32.65l-1.26.86Zm2.91-1.91H90.1c-.49-.3-1-.59-1.48-.87H35.77c-.49.28-1,.57-1.47.87Zm52.36-1.92c-.58-.3-1.17-.59-1.77-.86H39.5c-.59.27-1.18.56-1.77.86Z" style="fill:#a6a8ab;fill-rule:evenodd"/><path d="M104,37.47c.2.28.4.56.59.85H19.82l.6-.85Z" style="fill:#58595b"/><path d="M18.26,40.72c.17-.29.36-.57.53-.85H105.6c.18.28.37.56.54.85Z" style="fill:#58595b"/><path d="M102.11,35.07l.68.84H21.61l.67-.84Z" style="fill:#58595b"/><path d="M90,24.7l1.33.85H33.05l1.32-.85Z" style="fill:#58595b"/><path d="M86.65,22.83c.54.27,1.07.55,1.6.84H36.14c.53-.29,1.07-.57,1.61-.84Z" style="fill:#58595b"/><path d="M30.35,27.42c.38-.29.78-.56,1.18-.84H92.87c.39.28.79.55,1.18.84Z" style="fill:#58595b"/><path d="M106.14,84c-.17.29-.36.56-.54.85H18.79c-.17-.29-.36-.56-.53-.85Z" style="fill:#58595b"/><path d="M37.75,101.89c-.54-.28-1.08-.55-1.61-.85H88.25c-.53.3-1.06.57-1.6.85Z" style="fill:#58595b"/><path d="M94.05,97.29l-1.18.85H31.53c-.4-.28-.8-.56-1.18-.85Z" style="fill:#58595b"/><path d="M91.35,99.17c-.44.28-.88.57-1.33.84H34.37c-.45-.27-.88-.56-1.32-.84Z" style="fill:#58595b"/><path d="M104.57,86.4c-.19.29-.39.57-.59.85H20.42l-.6-.85Z" style="fill:#58595b"/><path d="M22.28,89.65c-.23-.28-.45-.56-.67-.85h81.18c-.22.29-.45.57-.68.85Z" style="fill:#58595b"/><ellipse cx="74.92" cy="46.9" rx="26.24" ry="34.38" transform="translate(-0.98 92.19) rotate(-62.87)" style="opacity:0.6000000000000001;fill:url(#radial-gradient-4)"/><ellipse cx="61.96" cy="62.31" rx="48.6" ry="43.72" style="opacity:0.5;mix-blend-mode:multiply;fill:url(#radial-gradient-5)"/><circle cx="34.3" cy="30.82" r="2.46" style="fill:url(#radial-gradient-6)"/><circle cx="43.49" cy="30.82" r="2.46" style="fill:url(#radial-gradient-7)"/><circle cx="52.68" cy="30.82" r="2.46" style="fill:url(#radial-gradient-8)"/><circle cx="61.87" cy="30.82" r="2.46" style="fill:url(#radial-gradient-9)"/><circle cx="71.06" cy="30.82" r="2.46" style="fill:url(#radial-gradient-10)"/><circle cx="80.25" cy="30.82" r="2.46" style="fill:url(#radial-gradient-11)"/><circle cx="89.43" cy="30.82" r="2.46" style="fill:url(#radial-gradient-12)"/><circle cx="34.3" cy="93.88" r="2.46" style="fill:url(#radial-gradient-13)"/><circle cx="43.49" cy="93.88" r="2.46" style="fill:url(#radial-gradient-14)"/><circle cx="52.68" cy="93.88" r="2.46" style="fill:url(#radial-gradient-15)"/><circle cx="61.87" cy="93.88" r="2.46" style="fill:url(#radial-gradient-16)"/><circle cx="71.06" cy="93.88" r="2.46" style="fill:url(#radial-gradient-17)"/><circle cx="80.25" cy="93.88" r="2.46" style="fill:url(#radial-gradient-18)"/><circle cx="89.43" cy="93.88" r="2.46" style="fill:url(#radial-gradient-19)"/><circle cx="90.1" cy="87.47" r="20.21" transform="translate(-14.56 18.08) rotate(-10.61)" style="fill:url(#radial-gradient-20)"/><ellipse cx="93.62" cy="80.09" rx="12" ry="15.73" transform="translate(-18.57 131.01) rotate(-64.96)" style="opacity:0.8;mix-blend-mode:overlay;fill:url(#radial-gradient-21)"/></g></g></svg>
