<svg class="S" xmlns="http://www.w3.org/2000/svg" viewBox="0 0 126 126"><path d="M91.19,61.47a2.65,2.65,0,0,1,1.56,3.43,10,10,0,0,0,.35,6.27,12.16,12.16,0,0,1,.77,6c-.08.45.11.63.46.79a11.39,11.39,0,0,1,3.79,3.35,55.81,55.81,0,0,0,6.74,6.75,14.24,14.24,0,0,0,4.51,2.25c.42.4.23.84.09,1.28l-.63,1.15c-2.13-1.52-4.24-3.08-6.41-4.53-5-3.32-10.19-6.1-16.17-7.12a16.31,16.31,0,0,1-2.15-.59,6.77,6.77,0,0,1-4.63-4.93c-1.46-5.21-2.85-10.44-4-15.73a41.36,41.36,0,0,0-4.08-12,8.75,8.75,0,0,0-3.15-3.59,4.08,4.08,0,0,1,.28-.44c2.5-3.28,4.61-6.76,5.24-10.94a.54.54,0,0,1,.39-.47c3.64,2.7,7.84,5.28,9.32,9.62.68,2,1,4.22-.23,8.54a13.13,13.13,0,0,0-.55,6.87A24,24,0,0,0,83.56,62l.58,3.19c.25,1.92-.43,3.8-.28,5.71-.4,1.22.09,2.4.15,3.59.08,1.71.22,1.75,2,1.44a38.06,38.06,0,0,1,6.56,1.19,12.31,12.31,0,0,0-.75-5.93L91.27,68a25.25,25.25,0,0,1,.22-4.51A3,3,0,0,0,91.19,61.47Z" style="fill:#822f20"/><path d="M10.94,110.56A2.92,2.92,0,0,1,8,107.4c.08-.81.38-1.28,1.25-1.37,1.17-.11,2.33-.3,3.49-.44.39,0,.79,0,1.1-.32,1.47,0,2.94,0,4.41,0,1.26,0,1.35-.1,1.36-1.32,0-1.49,0-3,0-4.46a1.6,1.6,0,0,1,1.72-1.82c.31,0,.61,0,.92,0-.41.3-.87.53-.86,1.19,0,1.83,0,3.66,0,5.49,0,.61.25.7.79.67,1-.07,2.09,0,3.14-.09.86,0,2,.15,2.5-.31s.14-1.73.21-2.63c0-.21,0-.43,0-.65l.23,0c0,.69,0,1.38,0,2.07,0,1.36,0,1.29,1.33,1.37,1,.07,1.41-.29,1.3-1.31a6.66,6.66,0,0,1,0-1.67c.06-.41-.18-.42-.41-.5l.85-.25c.34,0,.5-.27.74-.42,0,1,0,2.08,0,3.12,0,.71.16,1,.94,1,1.64-.11,3.29-.18,4.94-.2.67,0,.79-.27.78-.85,0-1.73,0-3.47,0-5.2.51,1.56.19,3.17.19,4.75,0,1,.3,1.45,1.32,1.29.34-.06.69-.09,1-.12.84-.07,1.15-.48,1.1-1.36-.09-1.43,0-2.87,0-4.3a1.91,1.91,0,0,1,1.25-1.92,3.79,3.79,0,0,1,1.67-.17,2.56,2.56,0,0,0-1.26,2c0,1.61,0,3.22,0,4.83,0,.61.21.84.84.82,2.18,0,4.35-.07,6.52-.08a.87.87,0,0,0,.69-.28c1,.68,2,.18,3,0,.72-.09,1.72.35,2.1-.24s-.28-1.46-.37-2.23a4.35,4.35,0,0,0-.26-.74,14.78,14.78,0,0,0-4.18-6.2c1.49-.09,2.43.85,3.26,1.87a14.06,14.06,0,0,1,3,6.73c.14.83.44.92,1.17.91,9.45-.07,18.89-.1,28.33-.16a5.19,5.19,0,0,1,4,1.42,1.75,1.75,0,0,1,.62,2c-.32.72-1,.84-1.78.88a24.29,24.29,0,0,0-4.43.24l-2.37,0H81.51c-5,.15-9.92.31-14.89.45-6.88.2-13.76.38-20.63.59a3.82,3.82,0,0,0-1.92.24H39.29c-6.16.19-12.32.36-18.48.57a8.8,8.8,0,0,0-3,.22l-2.38,0h-2.6A6.44,6.44,0,0,0,10.94,110.56Z" style="fill:#313131"/><path d="M39.39,33a36.1,36.1,0,0,1,11.5-13.68,27.34,27.34,0,0,0,4.65-4.22,7.09,7.09,0,0,1,2.83-1.82,28.64,28.64,0,0,1,6.39-2.16,42.23,42.23,0,0,1,9.53-.26c2.22.17,4.41.68,6.6.79,1.78.09,3.54.2,5.3.4.47.06.94.18,1.41.26a2.71,2.71,0,0,1,.28,1.26,16.86,16.86,0,0,1-.81,5.5c-.64-.08-1.29-.16-1.94-.22-.41,0-.4.21-.3.49l-.42.42-1.8.75a6.55,6.55,0,0,1-2.12-2.1c-.87-1.55-2.23-1.67-3.71-1.52a23.64,23.64,0,0,0-4.72,1,25.59,25.59,0,0,1-9.15,1.29c-1.83-.09-2.14.17-2.52,1.92A14.14,14.14,0,0,1,56.84,28c-.84.88-1,1.27-3.2,1.09-.43,0-1.23-.46-1.66-.39a31.58,31.58,0,0,0-12.12,4.41Z" style="fill:#822f20"/><path d="M39.86,33.15A31.58,31.58,0,0,1,52,28.74c.43-.07.87-.08,1.3-.11a29,29,0,0,1,.95,6.94,58.2,58.2,0,0,1-.48,9.87,43.32,43.32,0,0,1-1.33,4.43,12.92,12.92,0,0,1-5.31,1c-.91,0-1.28.26-1.26,1.26a17.66,17.66,0,0,1-.49,4.63l-2.37,1-2.18.44c-1.39.27-1.39.27-1.42-1.12A43.19,43.19,0,0,0,37.64,45.2a11.21,11.21,0,0,1-.28-5.14c.29-1.86,1-3.6,1.4-5.42C38.82,33.92,39.54,33.68,39.86,33.15Z" style="fill:#db9512"/><path d="M49.53,73.28c-1.44-2-1.43-4.31-.91-6.62a18.66,18.66,0,0,1,3.81-7.23,75.59,75.59,0,0,1,10.83-11c.27-.22.51-.48.76-.71.35,0,.66.31,1,.14,2.34,3.56,3,7.67,3.66,11.75a.63.63,0,0,0-.19.17c-1.82,2.93-4,5.33-7.66,5.93a7.75,7.75,0,0,0-4.65,3.8A18.18,18.18,0,0,1,64.44,66a8,8,0,0,0,5.06-2.71l2.86,6.55c-1.31-.17-2.58.29-3.88.28-1.52,0-3,.2-4.54.33a9.84,9.84,0,0,0-4,.79c-1.64.89-3.23,1.86-4.84,2.79l-1,.29a5.34,5.34,0,0,1-4.19-1.14C49.73,73.07,49.6,73.16,49.53,73.28Z" style="fill:#822f20"/><path d="M53.75,45.44a58.2,58.2,0,0,0,.48-9.87,29,29,0,0,0-.95-6.94c1.24-.19,3.63-.46,4.66-.48a28.1,28.1,0,0,1,12.93,2.5c1.13.52,2.2,1.2,3.29,1.81a.54.54,0,0,0-.39.47c-.63,4.18-2.74,7.66-5.24,10.94a4.08,4.08,0,0,0-.28.44,1.72,1.72,0,0,0-.65.81l-.45.33-.52,0c-.94,0-1.15-.37-.81-1.21.15-.38.44-.78.18-1.19-.56-.19-.78.52-1.33.47,0-.16.06-.28.07-.4s.06-.34-.19-.37c-.95,1.22-.95,1.22-2.47.86a10.49,10.49,0,0,1-1.39-.36,4.92,4.92,0,0,0-4.68.68A17.94,17.94,0,0,1,53.75,45.44Z" style="fill:#f6a714"/><path d="M38.76,34.64c-.4,1.82-1.11,3.56-1.4,5.42a11.21,11.21,0,0,0,.28,5.14,43.19,43.19,0,0,1,1.75,11.86c0,1.39,0,1.39,1.42,1.12L43,57.74a28,28,0,0,1-2,10.14,6.19,6.19,0,0,1-1.32,2.22A6.41,6.41,0,0,0,38,73.56a6.41,6.41,0,0,1-.16.76,90.34,90.34,0,0,1-5.24,10.8c-.61,1.08-1.23,2.17-.82,3.44a2.72,2.72,0,0,1-.64,2.75C29.8,93,28.6,94.83,28.56,97.14l-.09.21a10.51,10.51,0,0,0-1.88.2c-1.09.21-2.23-.13-3.27.35l-.3-.26a2.19,2.19,0,0,1-.12-1.77c.15-.43-.06-.55-.39-.63.23-.2.6-.06.79-.38a46.7,46.7,0,0,1,4-5c1.44-1.78,1.84-3.88,2.27-6,.64-3.2,1.37-6.37,2.15-9.54a12.88,12.88,0,0,1,1.94-3.82,12,12,0,0,0,1.84-7.7,36.87,36.87,0,0,1-.1-5.36,6.17,6.17,0,0,0,1.78.79c.7.16,1.15.12,1.1-.84a46.34,46.34,0,0,0-1.7-11.61A11.86,11.86,0,0,1,36.18,40c.1-.56.2-1.11.29-1.67.33-.53.28-1.18.54-1.71C37.4,35.81,37.53,34.72,38.76,34.64Z" style="fill:#822f20"/><path d="M67.15,45.45l.45-.33a19.89,19.89,0,0,1,5.29,9.18c.73,2.51,1.24,5.08,1.85,7.62a138,138,0,0,0,3.68,13.76c.73,2.07,1.52,4.1,3.63,5.24.78.41,1.63.62,2.41,1l-1.84,1.3c-.47.38-1.17.51-1.35,1.22-.65-.22-1.32-.42-2-.66a4.1,4.1,0,0,1-2.66-3.42c-.46-2.75-1.82-5.12-3-7.58a1.54,1.54,0,0,0-.5-.86c-.07-.77-.7-1.34-.81-2.1L69.5,63.28a14.31,14.31,0,0,0-.79-3.67c-.71-4.08-1.32-8.19-3.66-11.75A22.8,22.8,0,0,0,67.15,45.45Z" style="fill:#913524"/><path d="M20.42,22.6A7.52,7.52,0,0,1,27,21.07a13.08,13.08,0,0,0,2.74,2.18c2.53,2,4.19,4.29,4.4,7.62a7.87,7.87,0,0,0,1,4.09c-.22,2.74-1.12,5.34-1.58,8-.62,2.19-2.4,2.35-4.24,2.43A23.45,23.45,0,0,0,30.6,39.6a12.58,12.58,0,0,0-.81-6.66c-1.13-2.43-1.6-2.47-3.33-.37l-.28.26h-.25c0-.56,0-1.13,0-1.69A7.42,7.42,0,0,0,24.1,25.8,29.2,29.2,0,0,0,20.42,22.6Z" style="fill:#110d1b"/><path d="M45.37,96.61a3.79,3.79,0,0,0-1.67.17,1.91,1.91,0,0,0-1.25,1.92c.06,1.43-.05,2.87,0,4.3,0,.88-.26,1.29-1.1,1.36-.34,0-.69.06-1,.12-1,.16-1.32-.25-1.32-1.29,0-1.58.32-3.19-.19-4.75-.12-.36-.4-.68-.72-.69-1.79,0-3.6-.36-5.38.17-.44,0-.74-.07-.84-.54a1.73,1.73,0,0,0-.46-1.1c0-.07-.11-.09-.12-.15a.89.89,0,0,1,.38-1.29c.36,0,5.34-.13,7.51-.2,4.41-.13,8.81-.22,13.22-.09a14.78,14.78,0,0,1,4.18,6.2,4.35,4.35,0,0,1,.26.74c.09.77.76,1.62.37,2.23s-1.38.15-2.1.24c-1,.13-2,.63-3,0,0-1.79,0-3.58,0-5.37,0-1.29-.54-2.07-1.52-2.1A21.12,21.12,0,0,0,45.37,96.61Z" style="fill:#231f20"/><path d="M39.29,109.76h4.78c0,.88,0,1.75,0,2.63s.28,1,1,.94c3.74-.37,7.5-.18,11.26-.35,5.66-.24,11.33-.5,17-.9,2.58-.19,5.13-.49,7.1-2.47.34-.33.73-.62,1.1-.93l.89.06c-1.86,1.83-3.56,3.43-6.05,3.9a85.51,85.51,0,0,1-10.09,1c-3.77.27-7.56.45-11.33.51-4.58.07-9.15.34-13.73.33-6.16,0-12.32,0-18.48,0-1.61,0-3.2-.34-4.82-.28-.48,0-1-.53-1.44,0a5.06,5.06,0,0,1-2.41-2.44,3.73,3.73,0,0,0-.78-1.18h2.15a3.93,3.93,0,0,0,4.44,2.31,32.19,32.19,0,0,0,5.09.36c4.59.32,9.18.09,13.77.12.36,0,.76,0,.76-.51A7.34,7.34,0,0,0,39.29,109.76Z" style="fill:#3d3d3d"/><path d="M20.42,22.6a29.2,29.2,0,0,1,3.68,3.2,7.42,7.42,0,0,1,1.84,5.35c0,.56,0,1.13,0,1.69-.18.52-.74.65-1.05,1l-.52.27-.27.26-1,.53-.27.25c-.89-.58-.68-1.53-.78-2.37s-.45-1.21-1.35-.88a3.35,3.35,0,0,0-2.3,4c0,.35.43.77-.29.85H17.3c-2.41-5.42-1-10.64,2.69-13.9A3.87,3.87,0,0,1,20.42,22.6Z" style="fill:#231f20"/><path d="M24.88,33.88c.31-.39.87-.52,1.05-1h.25l.28-.26c1.73-2.1,2.2-2.06,3.33.37a12.58,12.58,0,0,1,.81,6.66,23.45,23.45,0,0,1-1.26,5.83A6.65,6.65,0,0,1,24,44.71a13.29,13.29,0,0,1-6.67-7.94h.76a9,9,0,0,0,1.31,3,1.57,1.57,0,0,0,2.36.9c1.5,1.21,3,2.47,5.17,2.59-1-1.46-2.21-2.61-2.81-4.17.17-1.45.93-2.74,1.18-4.17C25.36,34.5,25.64,34,24.88,33.88Z" style="fill:#313131"/><path d="M31.47,96.3s-1.18.73-1.33.78a4.42,4.42,0,0,1-1.58.06c0-2.31,1.24-4.12,2.59-5.83a2.72,2.72,0,0,0,.64-2.75c-.41-1.27.21-2.36.82-3.44a90.34,90.34,0,0,0,5.24-10.8,6.41,6.41,0,0,0,.16-.76,6.41,6.41,0,0,1,1.66-3.46A6.19,6.19,0,0,0,41,67.88a28,28,0,0,0,2-10.14l2.37-1A6.26,6.26,0,0,0,45.21,58c-.05.44-.12.88-.19,1.32-.15.87-.33,1.74-.54,2.6s-.43,1.69-.68,2.52-.56,1.39-.78,2.11A8.09,8.09,0,0,1,42.47,68c-.34.64-.81,1.21-1.16,1.85a6.94,6.94,0,0,0-.67,2.08c-.06.34-.09.68-.16,1a8.85,8.85,0,0,1-.17,1c-.11.29-.15.58-.24.88a2.3,2.3,0,0,1-.26.49l-1.12,1.88c-.35.57-.67,1.16-1,1.74-.18.3-.37.58-.56.87s-.26.52-.43.77a20.76,20.76,0,0,0-1.57,2.75c-.25.52-.46,1.06-.69,1.59s-.63,1-.61,1.52c0,.73.1,1.45.1,2.18a4.9,4.9,0,0,1-.07.94c-.06.27-.18.53-.24.81a5.93,5.93,0,0,1-.76,2.12A8.07,8.07,0,0,0,32,93.75c-.05.11-.34,1-.34,1l0,.08A1.49,1.49,0,0,0,31.47,96.3Z" style="fill:#662519"/><path d="M102.36,109.46a3.2,3.2,0,0,1,.57-4.12,4,4,0,0,1,.86-.79c2-1.13,2.52-3,2.44-5.07a6.79,6.79,0,0,1,0-.78,12.34,12.34,0,0,0,6.2,4.45,11.18,11.18,0,0,1-2,4.32,4.22,4.22,0,0,1-2.05,1.75A10.82,10.82,0,0,1,102.36,109.46Z" style="fill:#db9512"/><path d="M16.49,114.18c.48-.55,1,0,1.44,0,1.62-.06,3.21.27,4.82.28,6.16,0,12.32,0,18.48,0,4.58,0,9.15-.26,13.73-.33,3.77-.06,7.56-.24,11.33-.51a85.51,85.51,0,0,0,10.09-1c2.49-.47,4.19-2.07,6.05-3.9l-.89-.06a.64.64,0,0,1,0-.2H84.2A29.62,29.62,0,0,1,81.58,111c-1,.88-2.22,1.48-3.16,2.43a41.34,41.34,0,0,1-6.74.72c-5.09.3-10.19.52-15.29.69-4.63.15-9.25.07-13.87.27s-9.25.19-13.87.08a103.75,103.75,0,0,1-10.58-.45A3.18,3.18,0,0,1,16.49,114.18Z" style="fill:#575757"/><path d="M22.51,95.24c.33.08.54.2.39.63A2.19,2.19,0,0,0,23,97.64l-.74,0c-.31,0-.61,0-.92,0a1.6,1.6,0,0,0-1.72,1.82c0,1.49,0,3,0,4.46,0,1.22-.1,1.31-1.36,1.32-1.47,0-2.94,0-4.41,0q.88-3.18,1.76-6.38A4.66,4.66,0,0,1,20,95.28C20.85,95.23,21.68,95.25,22.51,95.24Z" style="fill:#231f20"/><path d="M112.47,103.15a12.34,12.34,0,0,1-6.2-4.45,14.9,14.9,0,0,0-.33-2.9,3.51,3.51,0,0,0,1.6-1.3h0a.27.27,0,0,0,.24-.26v0L108,94l.1-.27c.43-.17.51-.62.73-1l.63-1.15c.6.07.52.65.66,1a36.46,36.46,0,0,0,3.74,7.4Z" style="fill:#f6a714"/><path d="M67.15,45.45a22.8,22.8,0,0,1-2.1,2.41c-.37.17-.68-.14-1-.14-.4-.89-1.32-.81-2-.9a18.89,18.89,0,0,0-6.3.56,2.35,2.35,0,0,0-1.25.9,6.16,6.16,0,0,1-2,1.59,43.32,43.32,0,0,0,1.33-4.43A17.94,17.94,0,0,0,56,43.91a4.92,4.92,0,0,1,4.68-.68,10.49,10.49,0,0,0,1.39.36c1.52.36,1.52.36,2.47-.86.25,0,.2.21.19.37s0,.24-.07.4c.55,0,.77-.66,1.33-.47.26.41,0,.81-.18,1.19-.34.84-.13,1.26.81,1.21Z" style="fill:#db9512"/><path d="M113.86,100a36.46,36.46,0,0,1-3.74-7.4c-.14-.35-.06-.93-.66-1,.14-.44.33-.88-.09-1.28a23.43,23.43,0,0,1,7,2.61,3,3,0,0,1,1,1.46l0,.07a.27.27,0,0,1,.08.22,3.55,3.55,0,0,1-.73,1.51A22.46,22.46,0,0,0,113.86,100Z" style="fill:#db9512"/><path d="M107.54,94.5a3.51,3.51,0,0,1-1.6,1.3c-.91-.21-1.32-1.08-2.07-1.53A34.68,34.68,0,0,0,94,89.93a34.8,34.8,0,0,1-7.6-3.14,39.93,39.93,0,0,0-5.11-2.34c.18-.71.88-.84,1.35-1.22a2.19,2.19,0,0,0,.94.87,34.48,34.48,0,0,0,8.68,3.83,65.84,65.84,0,0,1,12.38,4.69A28.38,28.38,0,0,0,107.54,94.5Z" style="fill:#c0011b"/><path d="M91.19,61.47a3,3,0,0,1,.3,2A25.25,25.25,0,0,0,91.27,68a38.67,38.67,0,0,1-7-3.84l-.12,1L83.56,62c1.42-.43,2.83-.83,4.28-1.13A4.08,4.08,0,0,1,91.19,61.47Z" style="fill:#db9512"/><path d="M36.47,38.34c-.09.56-.19,1.11-.29,1.67a11.86,11.86,0,0,0,.42,5.78A46.34,46.34,0,0,1,38.3,57.4c.05,1-.4,1-1.1.84a6.17,6.17,0,0,1-1.78-.79c-.11-2.34.33-4.68,0-7A31.76,31.76,0,0,0,35,47.18a15.24,15.24,0,0,1,.1-4.67c.28-1.13.51-2.27.88-3.37C36.05,38.9,35.85,38.3,36.47,38.34Z" style="fill:#db9512"/><path d="M87.07,19.11a16.86,16.86,0,0,0,.81-5.5,2.71,2.71,0,0,0-.28-1.26,13,13,0,0,1,3.52.07,2.9,2.9,0,0,1,.87.25c.32.15.67.38.58.78a.67.67,0,0,1-1,.4,3.36,3.36,0,0,0-2.26,0,2.1,2.1,0,0,0,1.48.63,6.59,6.59,0,0,1,2.73,1.47c.42.34,1.1.91.06,1.38-.5.22-.1.36,0,.53s.34.47.15.71a.71.71,0,0,1-.85.14,2.69,2.69,0,0,1-.92-.48c-1.07-1-2.37-.76-3.83-.87a4.79,4.79,0,0,0,1.77,1.2,4.48,4.48,0,0,1,1.4,1.16.85.85,0,0,1,.11,1.18c-.37.44-.79.2-1.14-.09A9.77,9.77,0,0,0,87.07,19.11Z" style="fill:#913524"/><path d="M35.16,35a7.87,7.87,0,0,1-1-4.09c-.21-3.33-1.87-5.65-4.4-7.62A13.08,13.08,0,0,1,27,21.07a13.07,13.07,0,0,1,7.47,4.38,5.94,5.94,0,0,1,1.4,5.91,2.5,2.5,0,0,0-.16,1.27A10.36,10.36,0,0,1,35.16,35Z" style="fill:#231f20"/><path d="M113.86,100a22.46,22.46,0,0,1,2.91-3.81,3.55,3.55,0,0,0,.73-1.51,2.36,2.36,0,0,1-.51,3.38c-2.13,1.78-3.06,4.15-3.77,6.69a2.67,2.67,0,0,1-.14.36c-.61,1.59-1.08,3.38-2.67,4.2a12.65,12.65,0,0,1-6.85,1.17,1.31,1.31,0,0,1-1.2-1,10.82,10.82,0,0,0,6-.24,4.22,4.22,0,0,0,2.05-1.75,11.18,11.18,0,0,0,2-4.32Z" style="fill:#d40014"/><path d="M73.17,71.93a1.54,1.54,0,0,1,.5.86h-.09l-.1,0a.2.2,0,0,0-.26.12,53.26,53.26,0,0,1-18.85,2.46A3.8,3.8,0,0,1,53,75.09L54,74.31l1-.29c1.58.34,3,.92,4.8.61C64.32,73.85,68.76,73,73.17,71.93Z" style="fill:#822f20"/><path d="M35.16,35a10.36,10.36,0,0,0,.53-2.33c.61,1.14,1.53,1.11,2.57.7A10.39,10.39,0,0,1,39.39,33l.47.11c-.32.53-1,.77-1.1,1.49-1.23.08-1.36,1.17-1.75,2-.26.53-.21,1.18-.54,1.71-.62,0-.42.56-.5.8-.37,1.1-.6,2.24-.88,3.37-.38-.24-.64,0-.85.27a.51.51,0,0,1-.66.22C34,40.3,34.94,37.7,35.16,35Z" style="fill:#db9512"/><path d="M78.42,113.41c.94-1,2.15-1.55,3.16-2.43a29.62,29.62,0,0,0,2.62-2.51l2.37,0c-1.94,2-3.92,4-6.74,4.83A4.49,4.49,0,0,1,78.42,113.41Z" style="fill:#3d3d3d"/><path d="M82.61,20.55l1.8-.75a16.44,16.44,0,0,1,3,1.84c.57.44.5,0,.56-.36.39.67,0,1-.54.73C85.9,21.13,84.16,21.16,82.61,20.55Z" style="fill:#913524"/><path d="M87.93,21.28c-.06.32,0,.8-.56.36a16.44,16.44,0,0,0-3-1.84l.42-.42a6.79,6.79,0,0,0,1.64.63A1.81,1.81,0,0,1,87.93,21.28Z" style="fill:#913524"/><path d="M54,74.31,53,75.09a3.81,3.81,0,0,1-3.43-1.81c.07-.12.2-.21.3-.11A5.34,5.34,0,0,0,54,74.31Z" style="fill:#913524"/><path d="M37,80.07l.18-.25Z" style="fill:#002d70"/><path d="M34.33,85.05l.14-.23Z" style="fill:#002d70"/><path d="M37.74,78.75l.18-.24Z" style="fill:#002d70"/><path d="M33,92.19l.16-.29Z" style="fill:#002d70"/><path d="M32.51,93l.22-.3Z" style="fill:#002d70"/><polygon points="117.42 94.48 117.37 94.42 117.42 94.42 117.42 94.48" style="fill:#e04a03"/><path d="M38.53,77.44l.18-.24Z" style="fill:#002d70"/><path d="M39.32,76.12l.17-.23Z" style="fill:#002d70"/><path d="M73.22,72.9a.2.2,0,0,1,.26-.12A.2.2,0,0,1,73.22,72.9Z" style="fill:#e04b00"/><path d="M35.91,81.9l.17-.24Z" style="fill:#002d70"/><path d="M41.16,70.11l.17-.26Z" style="fill:#002d70"/><path d="M42.2,68.49l.16-.21Z" style="fill:#002d70"/><path d="M42.46,68l.15-.22Z" style="fill:#002d70"/><path d="M108.83,92.77c-.22.33-.3.78-.73,1l-.5-.28-.31-.24h0L107,93l-.46-.34-.33-.24h0l-.26-.21-.47-.33-.32-.24h0l-.25-.21-.49-.33-.3-.22c-5.94-4.33-12.29-7.79-19.68-8.93-.78-.39-1.63-.6-2.41-1-2.11-1.14-2.9-3.17-3.63-5.24a138,138,0,0,1-3.68-13.76c-.61-2.54-1.12-5.11-1.85-7.62a19.89,19.89,0,0,0-5.29-9.18,1.72,1.72,0,0,1,.65-.81A8.75,8.75,0,0,1,71.4,47.9a41.36,41.36,0,0,1,4.08,12c1.14,5.29,2.53,10.52,4,15.73a6.77,6.77,0,0,0,4.63,4.93,16.31,16.31,0,0,0,2.15.59c6,1,11.2,3.8,16.17,7.12C104.59,89.69,106.7,91.25,108.83,92.77Z" style="fill:#662519"/><path d="M84.14,65.16l.12-1a38.67,38.67,0,0,0,7,3.84l.56,3.17a10.1,10.1,0,0,1-7.6,0l-.37-.27C83.71,69,84.39,67.08,84.14,65.16Z" style="fill:#f6a714"/><path d="M84.23,71.14a10.1,10.1,0,0,0,7.6,0,12.31,12.31,0,0,1,.75,5.93A38.06,38.06,0,0,0,86,75.9a3.86,3.86,0,0,0-.51-2.64C85.1,72.55,84.66,71.85,84.23,71.14Z" style="fill:#db9512"/><path d="M28.06,101.34c-.63-.14-1.26-.27-1.88-.42-1.61-.39-2.77-1.2-2.86-3,1-.48,2.18-.14,3.27-.35a10.51,10.51,0,0,1,1.88-.2c1.53.18,2.09.62,1.88,1.87A1.43,1.43,0,0,0,31.43,101l-.85.25a3,3,0,0,1-1.75-.26c-.31-.2-.46,0-.54.3Z" style="fill:#913524"/><path d="M31.43,101a1.43,1.43,0,0,1-1.08-1.81c.21-1.25-.35-1.69-1.88-1.87l.09-.21a4.26,4.26,0,0,0,1.59-.09c.09-.09.1-.13.25-.17h0l.28-.25.51-.31.26,0a1.57,1.57,0,0,1,.49,1,.71.71,0,0,0,.81.63c.33.43.89.48,1.31.78s.91.5.74,1.08-.82.5-1.32.48a4.13,4.13,0,0,1-.75-.19c-.44-.09-.47.26-.56.54C31.93,100.76,31.77,101.05,31.43,101Z" style="fill:#822f20"/><path d="M28.29,101.32c.08-.28.23-.5.54-.3a3,3,0,0,0,1.75.26c.23.08.47.09.41.5a6.66,6.66,0,0,0,0,1.67c.11,1-.26,1.38-1.3,1.31-1.32-.08-1.32,0-1.33-1.37C28.3,102.7,28.3,102,28.29,101.32Z" style="fill:#231f20"/><path d="M17.83,110.55a5.94,5.94,0,0,0,2.06,2.33,3.93,3.93,0,0,1-4.44-2.31Z" style="fill:#575757"/><path d="M73.17,71.93c-4.41,1-8.85,1.92-13.31,2.7-1.77.31-3.22-.27-4.8-.61,1.61-.93,3.2-1.9,4.84-2.79a9.84,9.84,0,0,1,4-.79c1.5-.13,3-.35,4.54-.33,1.3,0,2.57-.45,3.88-.28C72.47,70.59,73.1,71.16,73.17,71.93Z" style="fill:#662519"/><path d="M68.71,59.61a14.31,14.31,0,0,1,.79,3.67A8,8,0,0,1,64.44,66a18.18,18.18,0,0,0-8.23,3.52,7.75,7.75,0,0,1,4.65-3.8c3.68-.6,5.84-3,7.66-5.93A.63.63,0,0,1,68.71,59.61Z" style="fill:#662519"/><path d="M104.44,91.08l.49.33.25.21h0l.32.24.47.33.26.21h0a.35.35,0,0,0,.33.24L107,93l.25.22h0l.31.24.5.28L108,94l-.2.23v0l-.24.26h0a28.38,28.38,0,0,1-2.92-1.88,65.84,65.84,0,0,0-12.38-4.69,34.48,34.48,0,0,1-8.68-3.83,2.19,2.19,0,0,1-.94-.87l1.84-1.3c7.39,1.14,13.74,4.6,19.68,8.93Z" style="fill:#d40014"/><path d="M26.46,32.57l-.28.26Z" style="fill:#222646"/><path d="M24.88,33.88c.76.14.48.62.39,1.08-.25,1.43-1,2.72-1.18,4.17A6.09,6.09,0,0,1,23,37.08c-.63-1.71-.63-1.71-2.26-1a3.45,3.45,0,0,1-1.1.39c-1,.07-.79.57-.4,1.09.8,1.07,1.65,2.11,2.47,3.17a1.57,1.57,0,0,1-2.36-.9,9,9,0,0,1-1.31-3c.72-.08.33-.5.29-.85a3.35,3.35,0,0,1,2.3-4c.9-.33,1.23-.09,1.35.88s-.11,1.79.78,2.37l.27-.25,1-.53.27-.26Z" style="fill:#3d3d3d"/><path d="M24.36,34.15l-.27.26Z" style="fill:#2a2e57"/><path d="M23.05,34.94l-.27.25Z" style="fill:#2a2e57"/><path d="M21.73,40.71c-.82-1.06-1.67-2.1-2.47-3.17-.39-.52-.6-1,.4-1.09a3.45,3.45,0,0,0,1.1-.39c1.63-.69,1.63-.69,2.26,1a6.09,6.09,0,0,0,1.07,2.05c.6,1.56,1.8,2.71,2.81,4.17C24.7,43.18,23.23,41.92,21.73,40.71Z" style="fill:#575757"/><path d="M30.68,96.62l-.28.25Z" style="fill:#002d70"/><path d="M107.55,94.5l.24-.26A.27.27,0,0,1,107.55,94.5Z" style="fill:#c0011b"/><path d="M107.8,94.22,108,94Z" style="fill:#c0011b"/><path d="M104.44,91.08l-.3-.22Z" style="fill:#c0011b"/><path d="M105.18,91.62l-.25-.21Z" style="fill:#c0011b"/><path d="M105.51,91.86l-.32-.24Z" style="fill:#c0011b"/><path d="M106.24,92.4l-.26-.21Z" style="fill:#c0011b"/><path d="M106.57,92.64a.35.35,0,0,1-.33-.24Z" style="fill:#c0011b"/><path d="M107.28,93.2,107,93Z" style="fill:#c0011b"/><path d="M107.6,93.44l-.31-.24Z" style="fill:#c0011b"/></svg>
