<svg class="S" xmlns="http://www.w3.org/2000/svg" viewBox="0 0 126 126"><path d="M59.34,78.69s2.32,5.63,1.94,6.71c-.61,1.73-4.06,1.81-4.06,1.81l10,.66-3.44-9.11Z" style="fill:#717171"/><path d="M96.56,79.28S98.88,84.91,98.5,86c-.61,1.73-4.65,2.14-4.65,2.14l10.57.32L101,79.35Z" style="fill:#717171"/><path d="M54.18,66.2,54,79.66S70,82,71.77,80.88l1.28-7.32S54.76,66.78,54.18,66.2Z" style="fill:#383838"/><path d="M40.83,91.47l75.54,1.2s10.47.62,9.43-5.15A54.24,54.24,0,0,0,123,79l-5.62.41s3.58,5.23,2.64,7.16c-1.66,3.42-72.37.29-72.81.28S41.56,87.07,40.83,91.47Z" style="fill:#717171"/><path d="M59,30.1s6.92,12,2.48,20.77-7.82,16-7.3,18.53c.39,1.9,15.29,3.25,21.19,6.37s14.89,7.33,20.29,7.42,23.83-.11,29.83-2.53c0,0,1.72-10.82-11.14-14.11s-21.83-8-22.41-20-.65-21.73-1.4-22.82c-1.69-2.45-6.41-1.79-16.34,2.9C64,31.4,58.78,26.45,59,30.1Z" style="fill:#383838"/><path d="M125.54,78.34c-6,2.42-24.43,2.62-29.83,2.53s-14.38-4.31-20.29-7.42-20.34-4.62-21.19-6.36c-2.19-4.47-2.59-10.63,1.85-19.4.29-.56.55-1.13.79-1.71C60.34,37.54,59,27.78,59,27.78c-.22-3.65,5,1.29,15.21-3.51,9.93-4.7,14.64-5.36,16.33-2.91.75,1.09.83,10.79,1.4,22.82s11.45,16.29,24.3,19.58a13.51,13.51,0,0,1,7.46,4.34C127.37,72.59,125.54,78.34,125.54,78.34Z" style="fill:#fff"/><path d="M83.37,27.54A1.35,1.35,0,1,1,82,26.16,1.35,1.35,0,0,1,83.37,27.54Z" style="fill:#ff9b48"/><path d="M84.18,32.42a1.35,1.35,0,1,1-1.33-1.37A1.35,1.35,0,0,1,84.18,32.42Z" style="fill:#ff9b48"/><path d="M85,37.31a1.35,1.35,0,1,1-1.33-1.37A1.35,1.35,0,0,1,85,37.31Z" style="fill:#ff9b48"/><path d="M84.15,20.42s3.06,18.95,3.5,19.06,3.74.84,3.74.84-2.8-1.1-3.11-2.37S84.15,20.42,84.15,20.42Z" style="fill:#ebebeb"/><path d="M76.6,23.19s3.73,26.11,4.85,28.55,3.86,9.88,17.81,14,16.74,1.59,17-1.94" style="fill:none;stroke:#ebebeb;stroke-miterlimit:10;stroke-width:1.51370475363677px"/><path d="M110.51,65.84a.86.86,0,0,1-.86.84.85.85,0,0,1-.83-.86.86.86,0,0,1,.86-.84A.85.85,0,0,1,110.51,65.84Z" style="fill:#ebebeb"/><path d="M106.48,64.93a.86.86,0,0,1-.86.84.85.85,0,1,1,.86-.84Z" style="fill:#ebebeb"/><path d="M102.42,63.84a.85.85,0,0,1-.86.83.85.85,0,1,1,.86-.83Z" style="fill:#ebebeb"/><path d="M98.1,62.3a.85.85,0,1,1-.83-.86A.84.84,0,0,1,98.1,62.3Z" style="fill:#ebebeb"/><path d="M110.2,65.76a.6.6,0,0,1-.69.45h0a.58.58,0,0,1-.45-.69l.76-3.58a.58.58,0,0,1,.69-.45h0a.6.6,0,0,1,.45.69Z" style="fill:#ff9b48"/><path d="M106.44,64.79a.62.62,0,0,1-.73.48h0a.62.62,0,0,1-.48-.74l.81-3.81a.62.62,0,0,1,.73-.48h0a.62.62,0,0,1,.48.74Z" style="fill:#ff9b48"/><path d="M102.51,63.47a.64.64,0,0,1-.82.4h0a.64.64,0,0,1-.4-.82l1.33-3.83a.64.64,0,0,1,.82-.4h0a.64.64,0,0,1,.4.82Z" style="fill:#ff9b48"/><path d="M98.08,62.22a.66.66,0,0,1-.82.4h0a.65.65,0,0,1-.4-.83l2.36-4.66a.64.64,0,0,1,.82-.4h0a.65.65,0,0,1,.4.82Z" style="fill:#ff9b48"/><path d="M93.68,60A.85.85,0,0,1,92,60a.85.85,0,0,1,1.69,0Z" style="fill:#ebebeb"/><path d="M93.65,59.86a.66.66,0,0,1-.81.43h0a.65.65,0,0,1-.45-.8,39.62,39.62,0,0,1,3.68-4.84.76.76,0,0,1,1-.36h0a.63.63,0,0,1,.42.85A40.69,40.69,0,0,0,93.65,59.86Z" style="fill:#ff9b48"/><path d="M89.83,56.63a.85.85,0,1,1-.83-.86A.84.84,0,0,1,89.83,56.63Z" style="fill:#ebebeb"/><path d="M89.8,56.48a.87.87,0,0,1-.81.44h0a.59.59,0,0,1-.27-1,46.65,46.65,0,0,1,5.12-4.64.77.77,0,0,1,.94-.22h0a.57.57,0,0,1,0,1A47.78,47.78,0,0,0,89.8,56.48Z" style="fill:#ff9b48"/><path d="M87,51.82a.85.85,0,1,1-.83-.86A.84.84,0,0,1,87,51.82Z" style="fill:#ebebeb"/><path d="M87.13,51.78a1.16,1.16,0,0,1-1,.31h0C85.8,52,85.49,51.51,86,51a26,26,0,0,1,6.2-3.34,1.24,1.24,0,0,1,1.17-.13h0a.62.62,0,0,1-.14,1.14A25.59,25.59,0,0,0,87.13,51.78Z" style="fill:#ff9b48"/><path d="M85.75,46a.85.85,0,1,1-1.64-.42.85.85,0,0,1,1.64.42Z" style="fill:#ebebeb"/><path d="M85.86,46a1.14,1.14,0,0,1-1,.08h0c-.33-.15-.51-.71.12-1a29.21,29.21,0,0,1,6.71-1.92,1.13,1.13,0,0,1,1.11.11h0a.64.64,0,0,1-.42,1.07A27.72,27.72,0,0,0,85.86,46Z" style="fill:#ff9b48"/><path d="M125.54,78.34c-6,2.42-24.43,2.62-29.83,2.53s-14.38-4.31-20.29-7.42-20.34-4.62-21.19-6.36c-2.19-4.47-2.59-10.63,1.85-19.4.29-.56.55-1.13.79-1.71,3.37-.31,8.52-.13,12.83,2.8,7.09,4.81,5.77,8.67,14.67,15.43,5.57,4.23,13.28,9.07,29.78,7.75,0,0,7.67-.7,9.59-3.86C127.37,72.59,125.54,78.34,125.54,78.34Z" style="fill:#ff9b48"/><path d="M91.28,91.52c-6.45.49-24.07-4.91-29.19-6.62S42.23,29.25,53.38,27.75c10.88-1.48,18.8-.7,19.67,2.15.38,1.26-.3,7.26-3.4,18.9s6,19,17.23,26a13.53,13.53,0,0,1,5.79,6.39C94.77,86.59,91.28,91.52,91.28,91.52Z" style="opacity:0.4"/><path d="M21.52,74.25s.5,6.06-.19,7c-1.1,1.47-4.41.5-4.41.5l9.3,3.65-.52-9.72Z" style="fill:#717171"/><path d="M56.81,86.08s.5,6.06-.19,7c-1.1,1.46-5.07.63-5.07.63l10,3.51L61,87.48Z" style="fill:#717171"/><path d="M20.38,60.78,16.1,73.54s14.56,7.09,16.6,6.55l3.43-6.58S20.76,61.5,20.38,60.78Z" style="fill:#383838"/><path d="M0,80.82l71.64,24s9.78,3.76,10.54-2a54.92,54.92,0,0,0-.1-9L76.6,92.48s1.83,6.07.35,7.63C74.33,102.87,7.89,78.46,7.47,78.32S2,76.85,0,80.82Z" style="fill:#717171"/><path d="M36.64,28.87S38.88,41.38,32,48.39,19.7,61.25,19.42,63.83c-.2,1.93,13.58,7.73,18.27,12.48s12,11.5,17.09,13.22S77.52,96.65,84,96.16c0,0,4.91-9.79-6.34-16.83S59.26,65.09,62.35,53.44s6-20.91,5.57-22.18c-.87-2.84-5.56-3.64-16.45-2.17C40.32,30.59,37.53,25.32,36.64,28.87Z" style="fill:#383838"/><path d="M84.71,94c-6.45.49-24.07-4.9-29.19-6.62S43.11,78.88,38.43,74.12s-18-10.56-18.27-12.48c-.74-4.92.76-10.92,7.64-17.93.44-.44.87-.91,1.27-1.39,5.86-7,7.58-16.69,7.58-16.69.89-3.55,4.41,2.76,15.56,1.27,10.88-1.48,15.58-.68,16.45,2.17.38,1.26-2.49,10.53-5.58,22.17s6,19,17.23,26a13.57,13.57,0,0,1,5.79,6.39C88.2,89,84.71,94,84.71,94Z" style="fill:#fff"/><path d="M59.91,32.77a1.35,1.35,0,1,1-.85-1.71A1.34,1.34,0,0,1,59.91,32.77Z" style="fill:#ff9b48"/><path d="M59.2,37.67A1.35,1.35,0,1,1,58.35,36,1.34,1.34,0,0,1,59.2,37.67Z" style="fill:#ff9b48"/><path d="M58.53,42.59a1.35,1.35,0,1,1-.85-1.71A1.35,1.35,0,0,1,58.53,42.59Z" style="fill:#ff9b48"/><path d="M62.81,26.23s-2.82,19-2.44,19.22,3.31,1.93,3.31,1.93-2.33-1.89-2.24-3.2S62.81,26.23,62.81,26.23Z" style="fill:#ebebeb"/><path d="M54.77,26.58s-4.34,26-4,28.68S51.44,65.84,63.5,74,79,80.54,80.3,77.26" style="fill:none;stroke:#ebebeb;stroke-miterlimit:10;stroke-width:1.51370475363677px"/><path d="M74.17,77.5a.84.84,0,1,1-.53-1.07A.84.84,0,0,1,74.17,77.5Z" style="fill:#ebebeb"/><path d="M70.61,75.41a.85.85,0,1,1-.54-1.07A.85.85,0,0,1,70.61,75.41Z" style="fill:#ebebeb"/><path d="M67.07,73.14a.85.85,0,1,1-.54-1.07A.85.85,0,0,1,67.07,73.14Z" style="fill:#ebebeb"/><path d="M63.42,70.36a.84.84,0,1,1-1.6-.54.84.84,0,0,1,1.6.54Z" style="fill:#ebebeb"/><path d="M73.9,77.32a.57.57,0,0,1-.79.22h0a.58.58,0,0,1-.22-.79l1.81-3.18a.58.58,0,0,1,.79-.22h0a.58.58,0,0,1,.22.79Z" style="fill:#ff9b48"/><path d="M70.62,75.26a.62.62,0,0,1-.85.24h0a.62.62,0,0,1-.23-.85l1.92-3.39a.62.62,0,0,1,.85-.24h0a.62.62,0,0,1,.23.85Z" style="fill:#ff9b48"/><path d="M67.27,72.82a.66.66,0,0,1-.91.13h0a.66.66,0,0,1-.13-.91l2.43-3.25a.66.66,0,0,1,.91-.13h0a.66.66,0,0,1,.13.91Z" style="fill:#ff9b48"/><path d="M63.43,70.28a.66.66,0,0,1-.91.13h0a.66.66,0,0,1-.13-.91l3.66-3.73a.66.66,0,0,1,.91-.13h0a.66.66,0,0,1,.13.91Z" style="fill:#ff9b48"/><path d="M59.91,66.83a.85.85,0,1,1-.54-1.07A.85.85,0,0,1,59.91,66.83Z" style="fill:#ebebeb"/><path d="M59.92,66.69a.68.68,0,0,1-.91.17h0a.66.66,0,0,1-.18-.9,40.17,40.17,0,0,1,5-3.51.77.77,0,0,1,1-.05h0a.64.64,0,0,1,.14.94A39.84,39.84,0,0,0,59.92,66.69Z" style="fill:#ff9b48"/><path d="M57.26,62.45a.84.84,0,1,1-.53-1.07A.85.85,0,0,1,57.26,62.45Z" style="fill:#ebebeb"/><path d="M57.27,62.3a.85.85,0,0,1-.9.17h0c-.3-.19-.44-.63,0-1a48,48,0,0,1,6.29-2.86.78.78,0,0,1,1,.07h0a.57.57,0,0,1-.33,1A47.42,47.42,0,0,0,57.27,62.3Z" style="fill:#ff9b48"/><path d="M56,57a.84.84,0,1,1-.53-1.07A.85.85,0,0,1,56,57Z" style="fill:#ebebeb"/><path d="M56.15,57a1.16,1.16,0,0,1-1,0h0c-.31-.18-.45-.75.2-1a26.3,26.3,0,0,1,6.92-1.31,1.26,1.26,0,0,1,1.15.24h0a.62.62,0,0,1-.48,1A25.64,25.64,0,0,0,56.15,57Z" style="fill:#ff9b48"/><path d="M56.58,51.08a.84.84,0,1,1-.27-1.16A.83.83,0,0,1,56.58,51.08Z" style="fill:#ebebeb"/><path d="M56.69,51.12a1.14,1.14,0,0,1-1-.24h0c-.26-.24-.26-.82.44-1a29.22,29.22,0,0,1,7,.2,1.12,1.12,0,0,1,1,.45h0a.64.64,0,0,1-.73.89A28.26,28.26,0,0,0,56.69,51.12Z" style="fill:#ff9b48"/><path d="M84.71,94c-6.45.49-24.07-4.9-29.19-6.62S43.11,78.88,38.43,74.12s-18-10.56-18.27-12.48c-.74-4.92.76-10.92,7.64-17.93.44-.44.87-.91,1.27-1.39,3.3.73,8.16,2.46,11.38,6.55,5.3,6.74,2.87,10,9.3,19.16,4,5.71,9.91,12.66,26,16.4,0,0,7.53,1.65,10.31-.78C88.2,89,84.71,94,84.71,94Z" style="fill:#ff9b48"/></svg>
