<svg class="S" xmlns="http://www.w3.org/2000/svg" viewBox="0 0 126 126"><path d="M76.83,22.64A18.57,18.57,0,0,1,75.46,19c-.46-1.92-.95-6.38-.95-6.38l-3.42,5L74.37,26l2.46-.21Z" style="fill:#565656"/><polygon points="96.75 20.3 106.46 16.57 105.53 20.56 97.75 23.21 96.75 20.3" style="fill:#565656"/><path d="M102.27,68.77a15.57,15.57,0,0,0,2.06-3.35,12.81,12.81,0,0,0,.64-6.75c-.4-2-6.72-6.61-6.72-6.61l-1.87,6.06Z" style="fill:#860e0a"/><path d="M61.15,83.2s4.42,1.68,11.76.74,10.68-3.38,10.68-3.38l-5.21,8.82,5.78,2.93,16.61-22.43V60.82L59.06,57.69l-22-3.93s-4.32-.23-6.81,3-4.51,5.31-3.37,10S31.63,91,31.63,91l4.18-5-.75-16.72,9.75,1.6Z" style="fill:#a16d0d"/><path d="M104.57,56.68l.4,3c-1.71-2.71-3.52-5.25-6.8-6.35L99.82,55c3.59,3.58,3.87,8.05,3.22,12.68-.11.75-1.14,1.36-1.74,2a3.49,3.49,0,0,1,0-.92,8.53,8.53,0,0,0-1-7.38c-1-1.66-2.55-2.55-4.91-3,1.22,1.06,2.11,1.78,2.93,2.56a3.86,3.86,0,0,1,1.21,4.22C99,67.08,98.42,69,97.89,71a2.19,2.19,0,0,0,.08.79c-.34.48-.73.93-1,1.43q-4.83,8-9.65,16l-3.87-.61,3.17,3.33c0,1.39,0,2.79-.16,4.17a7.41,7.41,0,0,1-3.38,5.55c-.44.32-.84.68-1.25,1l-6.31,0-.22-.9c.6-.81,1.21-1.61,1.78-2.44,1-1.54,2.08-3.08,3.08-4.65a1.33,1.33,0,0,0-.32-2c-.85-.57-1.48-.09-2,.53s-.84,1.12-1.26,1.67l-2.4,3.11c-1.3-6.33,3.19-8.42,7.91-10.45l-1.31-.74c.94-2,1.82-3.87,2.69-5.74,1-2.52,2.12-5,3-7.56.46-1.31,1-2.09,2.52-2.27a20.54,20.54,0,0,0,4.1-1.36A77,77,0,0,0,84,69.41c-3,0-5.71-1.39-8.76-2.27a6.35,6.35,0,0,0,.37,1.16,11.64,11.64,0,0,0,5.76,4.92,2.11,2.11,0,0,1,1.52,2.53c-.13.76-.23,1.52-.36,2.28-.21,1.18-.43,2.35-.65,3.53-.19.12-.36.32-.57.36a28.35,28.35,0,0,1-14.51-.66c-.65-.21-1.32-.35-2-.52l-.16.42L69.84,84c-4.65,0-8.83-.41-12.85-2a2.22,2.22,0,0,1,.54-.4c4.18-1.45,6.7-4.26,8.14-8.53.86-2.54.55-5.06,1.06-7.56.3-1.44-.47-3.1-.76-4.67l-.09-4.66.2-2.68c5.18-1.55,9.89.28,14.68,1.41a6.4,6.4,0,0,0-1.48-1.17,20.55,20.55,0,0,0-11.47-2.89,30.47,30.47,0,0,1-.4-5.1c.41-4.88,1-9.74,1.59-14.6.08-.69.25-1.37.38-2.06,1,2.27,2.2,4.28,5,4.52a12.87,12.87,0,0,1,.19,1.94c-.18,4-.55,8,.53,12.27l4-1a43,43,0,0,1,5.81.48,31.89,31.89,0,0,1,5.45,1.94,17.06,17.06,0,0,1,2.38,1.47c-.1-.88-.14-1.48-.23-2.08A13.88,13.88,0,0,1,94,40c.85-1.66,1.92-3.2,2.84-4.82.76-1.34,1.68-2.63,1.49-4.5l-2,1.57c-.24-1.67-.45-3.09-.66-4.52,3,.63,5.68.12,7.52-2.64l.91,0h0a6.24,6.24,0,0,0-.34,1.56c0,1.23.24,2.46.33,3.7.19,2.72.13,5.48.58,8.15.62,3.59-.11,7-1.06,10.31a18.19,18.19,0,0,1-1.18,2.61c-3-.87-5.59-2-8.4-.8,1.21.33,2.43.45,3.63.68C100.89,51.86,103,54,104.57,56.68Z" style="fill:#ec1b24"/><path d="M74.14,97.87l2.4-3.11c.42-.55.81-1.14,1.26-1.67s1.16-1.1,2-.53a1.33,1.33,0,0,1,.32,2c-1,1.57-2,3.11-3.08,4.65-.57.83-1.18,1.63-1.78,2.44l-.68.75.9.15,6.31,0c2.9.05,12.63-.21,13.63,0-3,2.55-4.48,4.64-6,6a3.61,3.61,0,0,0-1.53,2.45,4.33,4.33,0,0,1-1.69,2.64,49.54,49.54,0,0,1-6,3.71c-2,1.11-3.36.6-4.37-1.52a8.79,8.79,0,0,1-.56-1.78c-.15-.6-.23-1.22-.38-2H72.61c-9.26,0-18.52,0-27.78,0a8.43,8.43,0,0,0-4,1q-4.06,2.1-8.24,4c-2.65,1.19-3.64.68-4.47-2.12-.29-1-.5-2-.76-3a34.38,34.38,0,0,1-4.25-.75,26.4,26.4,0,0,1-4-1.7,1.1,1.1,0,0,1-.55-.88,1.14,1.14,0,0,1,.77-.69,9.83,9.83,0,0,1,1.88,0c11.83.42,23.67.91,35.51,1.22,7.37.2,14.75.17,22.13.1a12,12,0,0,0,6.51-1.56c-20.4.6-40.48,0-60.56-.82l13.08-2.63-2-4a10.5,10.5,0,0,0-.23-1.59A3,3,0,0,1,37,95.18c1.11-.84,1.65-.65,2.28.61.51,1,1.08,2,1.62,3,1.17,2.58,2.79,4.15,6,4,7.17-.24,14.36-.11,21.55-.18a3.32,3.32,0,0,0,2.12-.55C71.85,100.82,73,99.31,74.14,97.87ZM30.71,112c0,2.21.88,3.33,2.51,2.83,2-.6,3.91-1.55,5.85-2.34l-.13-.49Zm47.6.33c.41,2.1,1.13,2.76,2.83,2.21a13,13,0,0,0,5.5-3.63Z" style="fill:#010101"/><path d="M37.06,53.76c0,2.53.06,5.06.13,7.58a5.82,5.82,0,0,0,.36,1.31c.32,1.58,2.21,3.38,2.53,5-1.61-.31-4.79-.85-6.6-1.2a15.48,15.48,0,0,0,0,2c.47,3,.78,6,1.5,8.93.82,3.37,2,6.65,3,10,.07.2.44.3.68.44.36,1,.66,2,1.1,3a12.8,12.8,0,0,1,1,8.12c-.54-1-1.11-2-1.62-3-.63-1.26-1.17-1.45-2.28-.61a3,3,0,0,0-1.36,3.4,10.5,10.5,0,0,1,.23,1.59,33.68,33.68,0,0,1-4-1.19,4.23,4.23,0,0,1-2-6.58,26,26,0,0,1,2-2.55,5.54,5.54,0,0,0,1.5-4.15l-.9.8-.83.79c-.47-2.57-.79-5-1.36-7.28-1-4.09-2.26-8.11-3.22-12.21-.65-2.77-.74-5.59.87-8.18.12-.19.27-.37.62-.84.24,1.93-.72,3.6.22,5.29.62-1.91,1.16-3.64,1.76-5.36a6.49,6.49,0,0,1,4.93-4.52C36,54.08,36.54,53.91,37.06,53.76Z" style="fill:#ec1b23"/><path d="M74.39,33.57c-2.81-.24-4-2.25-5-4.52-1.33-2.9-2.52-5.88-4-8.67-1.24-2.26-2.13-4.49-1.72-7.1.15.24.43.49.42.73a7,7,0,0,0,1.79,4.93C68,21.58,70.34,24.1,71,27.63a2.38,2.38,0,0,0,.6,1c1.2,1.43,2,1.44,3.58.1-1.65,0-2.42-.34-3.1-1.75a9.84,9.84,0,0,1-.91-2.64,9.6,9.6,0,0,0-2.82-5.24c-1.9-2-3.73-4-3.44-7.12,0-.34-.26-.72-.4-1.08h0l.4-.56a5,5,0,0,1,5.5-2.23,4.66,4.66,0,0,1,4,4.06c.44,2.28.51,4.64.74,7,.18,1.76-.16,3.6.92,5.49.11-1,.19-1.76.33-3,1.37,3.61,3.58,6.6,1.09,10.11l-.19.35a.59.59,0,0,1-.07.45Z" style="fill:#020102"/><path d="M103.18,25.06c-1.84,2.76-4.48,3.27-7.52,2.64-.85-1.66-1.79-3.28-2.52-5-.51-1.19.33-2.91,1.19-3.84a12.23,12.23,0,0,1,9.31-3.45,18.92,18.92,0,0,1,2.5.43,1.42,1.42,0,0,1,0,1.82c-1.67.72-5.83,2.15-7.41,2.83l.06.35c1.7-.23,5.24-2.12,7.07-2.37.17,1.61-1.52,4.88-1.35,6.5a3,3,0,0,0-.42,0h0C103.76,24.43,103.46,24.47,103.18,25.06Z" style="fill:#020202"/><path d="M64.52,10.89c.14.36.44.74.4,1.08-.29,3.08,1.54,5.16,3.44,7.12a9.6,9.6,0,0,1,2.82,5.24A9.84,9.84,0,0,0,72.09,27c.68,1.41,1.45,1.78,3.1,1.75-1.58,1.34-2.38,1.33-3.58-.1a2.38,2.38,0,0,1-.6-1c-.67-3.53-3-6.05-5.18-8.69A7,7,0,0,1,64,14c0-.24-.27-.49-.42-.73Z" style="fill:#565656"/><path d="M64.92,10.33l-.4.56Z" style="fill:#565656"/><path d="M77.33,32.09l.19-.35Z" style="fill:#860f0d"/><path d="M103.18,25.06c.28-.59.58-.63.91,0Z" style="fill:#860e0a"/><path d="M104.09,25a3,3,0,0,1,.42,0c.7,3.91,1.49,7.8,2.08,11.73.44,2.85.69,5.73.89,8.61.22,3.17-.75,6.18-1.67,9.16a11.45,11.45,0,0,1-1.24,2.2c-1.6-2.71-3.68-4.82-6.92-5.45-1.2-.23-2.42-.35-3.63-.68,2.81-1.23,5.45-.07,8.4.8a18.19,18.19,0,0,0,1.18-2.61c1-3.36,1.68-6.72,1.06-10.31-.45-2.67-.39-5.43-.58-8.15-.09-1.24-.29-2.47-.33-3.7A6.24,6.24,0,0,1,104.09,25Z" style="fill:#860e0a"/><path d="M74.39,33.57l2.87-1c.13,1.62.38,3.24.36,4.86a28.24,28.24,0,0,0,1.53,9.35l-4,1c-1.08-4.24-.71-8.26-.53-12.27A12.87,12.87,0,0,0,74.39,33.57Z" style="fill:#860f0d"/><path d="M65.88,56.14c-.27-1.71-.55-3.42-.82-5.13l2.75-.2A20.55,20.55,0,0,1,79.28,53.7a6.4,6.4,0,0,1,1.48,1.17c-4.79-1.13-9.5-3-14.68-1.41Z" style="fill:#a16d0d"/><path d="M98,71.74c0-.27,1.28-4.59,1.6-6.57s0-3.06-1.21-4.22c-.82-.78-1.71-1.5-2.93-2.56,2.36.45,3.91,1.34,4.91,3a8.53,8.53,0,0,1,1,7.38,3.49,3.49,0,0,0,0,.92Z" style="fill:#8b0e0a"/><path d="M86.59,91.86l-3.17-3.33,3.87.61C87.05,90,86.82,91,86.59,91.86Z" style="fill:#a16d0d"/><path d="M83.43,80.94l-1.54.62c.22-1.18.44-2.35.65-3.53.13-.76.23-1.52.36-2.28a2.11,2.11,0,0,0-1.52-2.53,11.64,11.64,0,0,1-5.76-4.92,6.35,6.35,0,0,1-.37-1.16C78.3,68,81,69.43,84,69.41a77,77,0,0,1,9.06.34A20.54,20.54,0,0,1,89,71.11c-1.55.18-2.06,1-2.52,2.27C85.55,75.94,84.45,78.42,83.43,80.94Z" style="fill:#a16d0d"/><path d="M57,82l-4.28-1.81c6.61-.73,10.26-4.73,11.78-10.89.68-2.77,1-5.64,1.48-8.46.29,1.57,1.06,3.23.76,4.67-.51,2.5-.2,5-1.06,7.56-1.44,4.27-4,7.08-8.14,8.53A2.22,2.22,0,0,0,57,82Z" style="fill:#a16d0d"/><path d="M40.44,67.11c.21.32-.66.77-.45,1.09.12.58.36,1.3.48,1.88-.48-.15-1.83-.24-1.89.5-.1,1.39-.41,2.78-.38,4.16.11,4.33.34,8.65.52,13-.24-.14-.61-.24-.68-.44-1.06-3.31-2.23-6.59-3-10-.72-2.93-1-6-1.5-8.93a15.48,15.48,0,0,1,0-2C35.29,66.76,38.82,66.8,40.44,67.11Z" style="fill:#a16d0d"/><path d="M96.94,59.68a69,69,0,0,0-6.71-2.61A47.65,47.65,0,0,0,85,55.2c-1.6-.39-4.17-2.4-4.87-.91C76,51,71.26,51.91,66.08,53.46c-.06.87-.13,1.78-.2,2.68L66,60.8c.29,1.57,1.06,3.23.76,4.67-.51,2.5-.2,5-1.06,7.56-1.44,4.27-4,7.08-8.14,8.53A2.22,2.22,0,0,0,57,82c4,1.6,8.2,2,12.85,2l-5.18-2.81.16-.42c.67.17,1.34.31,2,.52a28.35,28.35,0,0,0,14.51.66c.21,0,.38-.24.57-.36.22-1.18.44-2.35.65-3.53.13-.76.23-1.52.36-2.28a2.11,2.11,0,0,0-1.52-2.53,11.64,11.64,0,0,1-5.76-4.92,6.35,6.35,0,0,1-.37-1.16C78.3,68,81,69.43,84,69.41a77,77,0,0,1,9.06.34A20.54,20.54,0,0,1,89,71.11c-1.55.18-2.06,1-2.52,2.27-.9,2.56-2,5-3,7.56-.87,1.87-1.75,3.75-2.69,5.74l1.31.74c-4.72,2-9.21,4.12-7.91,10.45l2.4-3.11c.42-.55.8-1.14,1.26-1.67s1.16-1.1,2-.53a1.33,1.33,0,0,1,.32,2c-1,1.57-2,3.11-3.08,4.65-.57.83-1.18,1.63-1.78,2.44.07.3.14.6.22.9l6.31,0c.41-.34.81-.7,1.25-1A7.41,7.41,0,0,0,86.43,96c.11-1.38.11-2.78.16-4.17l-3.17-3.33,3.87.61q4.81-8,9.65-16c.3-.5.69-1,1-1.43a2.19,2.19,0,0,1-.08-.79c.53-1.94,1.08-3.87,1.68-5.78A3.86,3.86,0,0,0,98.36,61C97.92,60.53,97.46,60.13,96.94,59.68Z" style="fill:#f6a714"/><path d="M37.06,53.76c0,2.53.06,5.06.13,7.58a5.82,5.82,0,0,0,.36,1.31c.32,1.58,2.21,3.38,2.53,5-1.61-.31-4.79-.85-6.6-1.2a15.48,15.48,0,0,0,0,2c.47,3,.78,6,1.5,8.93.82,3.37,2,6.65,3,10,.07.2.44.3.68.44.36,1,.66,2,1.1,3a12.8,12.8,0,0,1,1,8.12c-.54-1-1.11-2-1.62-3-.63-1.26-1.17-1.45-2.28-.61a3,3,0,0,0-1.36,3.4,10.5,10.5,0,0,1,.23,1.59,33.68,33.68,0,0,1-4-1.19,4.23,4.23,0,0,1-2-6.58,26,26,0,0,1,2-2.55,5.54,5.54,0,0,0,1.5-4.15l-.9.8-.83.79c-.47-2.57-.79-5-1.36-7.28-1-4.09-2.26-8.11-3.22-12.21-.65-2.77-.74-5.59.87-8.18.12-.19.27-.37.62-.84.24,1.93-.72,3.6.22,5.29.62-1.91,1.16-3.64,1.76-5.36a6.49,6.49,0,0,1,4.93-4.52C36,54.08,36.54,53.91,37.06,53.76Z" style="fill:#f6a714"/><path d="M64.5,49.94c1.66,4.93-8.17,8.52-13.59,8.52S37.45,56,38.6,51C40.09,44.37,44,40.84,51,40.16,57.18,39.56,62.26,43.31,64.5,49.94Z" style="fill:#393939"/><path d="M65.88,56.14,66,60.8c-.48,2.82-.8,5.69-1.48,8.46C63,75.42,59.32,79.42,52.71,80.15a13.35,13.35,0,0,1-9-4.43,5.91,5.91,0,0,1,1,.29c3.82,1.76,7.71,2.52,11.69.63a14.39,14.39,0,0,0,8-15.82l-.35-4.08c-1.79,1.81-3.17,3.71-5,4.94-6.94,4.65-14.18,5.46-21.6,1a9.13,9.13,0,0,1-.36-1.31,33.62,33.62,0,0,1-.13-7.58c.17-1.29,3.2-9.69,7.44-11.62a16.5,16.5,0,0,0-3.24,9.67c2-4.58,4.56-8.71,9.26-11.05a17.39,17.39,0,0,0-4,8.25c.68-.89,3.65-5.38,7.14-7.58a3.45,3.45,0,0,1,3.56-.11A14.76,14.76,0,0,1,65.06,51Z" style="fill:#010101"/><path d="M43.72,75.72a26.89,26.89,0,0,1-4.55-7.38c4.18,2.45,8.56,3.6,13.41,2.35s8.73-3.66,10.8-8.45a6.8,6.8,0,0,1,1.12-1.42,14.39,14.39,0,0,1-8,15.82c-4,1.89-7.87,1.13-11.69-.63A5.91,5.91,0,0,0,43.72,75.72Z" style="fill:#393939"/><path d="M64.5,60.82a6.8,6.8,0,0,0-1.12,1.42c-2.07,4.79-6,7.2-10.8,8.45s-9.23.1-13.41-2.35a47.61,47.61,0,0,1-1.62-5.69c7.42,4.49,14.66,3.68,21.6-1,1.83-1.23,3.21-3.13,5-4.94Z" style="fill:#4a4144"/><path d="M61.15,55.5A13.22,13.22,0,0,1,55,61.59a17.73,17.73,0,0,1-13.53,1c-1.47-.49-2.81-1.23-3-3.24C46.88,62.83,54.42,61.6,61.15,55.5Z" style="fill:#393939"/></svg>
