<svg class="S" xmlns="http://www.w3.org/2000/svg" viewBox="0 0 126 126"><path d="M115.71,102l-8.2-15.66L97,85.85a9.79,9.79,0,1,1-17.47-.78L68.1,84.55a6.19,6.19,0,0,1,.86,3.1v4.13A6.23,6.23,0,0,1,62.73,98h-13a6.23,6.23,0,0,1-6.23-6.23V87.65a6.2,6.2,0,0,1,1.6-4.13l-9-.41-3.16,7.63C30.35,96.94,29.8,101,23.08,101H19.25a11.33,11.33,0,0,0-10.7,7.59L8,110.16H110.77A5.58,5.58,0,0,0,115.71,102Z" style="fill:#a3e5ea"/><path d="M62.73,98H59.47l-6.26,12.15h24l6.07-11.79a9.74,9.74,0,0,1-3.78-13.3L68.1,84.55a6.19,6.19,0,0,1,.86,3.1v4.13A6.23,6.23,0,0,1,62.73,98Z" style="fill:#fff"/><path d="M88.05,99.61l-.49,0-5.44,10.57h9l12.36-24L97,85.85a9.77,9.77,0,0,1-8.93,13.76Z" style="fill:#fff"/><path d="M62.5,15.88c-4.62.84-14.7,4.53-14.7,20.81,0,21.11,17,0,17,0V17.75A1.9,1.9,0,0,0,62.5,15.88Z" style="fill:#183560"/><path d="M76.08,69.93l25.88,3,5.55-7.68c-7.84-2.2-28.21-8-30.25-9.35a21.05,21.05,0,0,1-8.64-12.1l-1.47-5.55a5,5,0,0,0-4.88-3.82H56.8L56,45.55A22.81,22.81,0,0,0,76.08,69.93Z" style="fill:#fd2437"/><path d="M111.41,66.4c-2.6,3.76-6.86,11.14-7.26,19.63h3.69A10.15,10.15,0,0,0,118,75.88h0A10.13,10.13,0,0,0,111.41,66.4Z" style="fill:#fe9e2b"/><path d="M67.89,39.23l-6.78,1.93A1.69,1.69,0,0,0,60,43.25h0A1.68,1.68,0,0,0,62,44.41l6.78-1.93A1.69,1.69,0,0,0,70,40.4h0A1.7,1.7,0,0,0,67.89,39.23Z" style="fill:#a3e5ea"/><path d="M70.63,49.15l-6.29,3.19a1.69,1.69,0,0,0-.74,2.27h0a1.69,1.69,0,0,0,2.27.74l6.29-3.19a1.69,1.69,0,0,0,.74-2.27h0A1.69,1.69,0,0,0,70.63,49.15Z" style="fill:#a3e5ea"/><path d="M77.46,55.61l-4,5.81a1.69,1.69,0,0,0,.44,2.35h0a1.69,1.69,0,0,0,2.35-.44l4-5.82a1.68,1.68,0,0,0-.44-2.34h0A1.69,1.69,0,0,0,77.46,55.61Z" style="fill:#a3e5ea"/><path d="M87.24,58.91,85,65.61a1.69,1.69,0,0,0,1.08,2.13h0a1.69,1.69,0,0,0,2.13-1.08L90.45,60a1.7,1.7,0,0,0-1.08-2.14h0A1.7,1.7,0,0,0,87.24,58.91Z" style="fill:#a3e5ea"/><path d="M37.5,86a8.81,8.81,0,0,1-8.79-8.2h0V83h0a8.83,8.83,0,0,0,8.8,8.26h5.68L43.66,86Z" style="fill:#183560"/><path d="M48.35,34.42l.55-6.1-7.83-2.87a2.25,2.25,0,0,0-3,2.11V35.4a5,5,0,0,1,3-1Z" style="fill:#fd2437"/><path d="M36.82,68.34H30.25l-1.41,7.18a9.07,9.07,0,0,0-.13,2.31A8.81,8.81,0,0,0,37.5,86h6.16l.89-9.81L45,70.86A14.62,14.62,0,0,0,36.82,68.34Z" style="fill:#fd2437"/><path d="M56.8,33.45a3.21,3.21,0,0,0-2.1-3l-5.8-2.12-.55,6.1H56.8Z" style="fill:#dd0e27"/><path d="M75.24,81.4h-14A14.68,14.68,0,0,1,50,76.22q-.54-.64-1-1.35a14.51,14.51,0,0,0-4-4l-.48,5.36L43.66,86H85.9A14.64,14.64,0,0,0,75.24,81.4Z" style="fill:#dd0e27"/><path d="M41,34.42a5,5,0,0,0-4.93,4.06L30.25,68.34h6.57A14.62,14.62,0,0,1,45,70.86l2.71-29.78.61-6.66Z" style="fill:#183560"/><path d="M106.25,76.22a45.38,45.38,0,0,1,5.16-9.82c-.28-.1-.55-.23-.84-.31l-3.06-.85L102,72.92l-25.88-3A22.81,22.81,0,0,1,56,45.55l.34-4.49.51-6.64H48.35l-.61,6.66L45,70.86a14.51,14.51,0,0,1,4,4q.48.7,1,1.35A14.68,14.68,0,0,0,61.22,81.4h14A14.64,14.64,0,0,1,85.9,86H43.66l-.48,5.25h64.66A10.16,10.16,0,0,0,118,81.12h0v-4.9Z" style="fill:#092444"/></svg>
