<svg class="S" xmlns="http://www.w3.org/2000/svg" viewBox="0 0 126 126"><path d="M20.63,8.07l-1.79,5.16s.67,24,0,32.08-4.15,22-3.71,30.17,5.95,11.89,16.72,13S55,95,63.25,97.69s31,4,40.16,2.47,9.54-11,8.75-15.26-18.28-9.08-29.28-15-22.43-8.86-23-23,3.36-21.09,4.82-25.35S69,14.12,63,14.68,46.09,21.41,42.84,33.19l-12-1.9A124.06,124.06,0,0,1,34.2,16.37C36.11,10.53,33.75,7.51,20.63,8.07Z" style="fill:#231f20"/><path d="M56.49,24.59c1.24-1.09,5.12-1,7.38-.83.32-.82.61-1.56.84-2.23C66.17,17.26,69,14.12,63,14.68S46.09,21.41,42.84,33.19l-12-1.9A124.06,124.06,0,0,1,34.2,16.37c1.91-5.84-.45-8.86-13.57-8.3l-1.79,5.16s.32,11.6.29,21.39l3.71,2.31,26.64,5.24C49.73,32.89,54.69,26.16,56.49,24.59Z" style="fill:#bbbdbf"/><path d="M60.26,37.07h0s-6.83,5.28-11,6.81v1.95s6.58-1.55,10.68-5.5C60,39.18,60.13,38.1,60.26,37.07Z" style="fill:#f6921e"/><path d="M50.11,50.09l.64,2.47a21.06,21.06,0,0,0,9.13-6c0-1.15-.05-2.26,0-3.32C58.25,44.74,53.85,48.63,50.11,50.09Z" style="fill:#f6921e"/><path d="M60.08,49.06A25.92,25.92,0,0,1,52,55.93L53.3,58.7s5-3.23,7.52-6.26A19.74,19.74,0,0,1,60.08,49.06Z" style="fill:#f6921e"/><path d="M61.53,54.31a70.35,70.35,0,0,1-7.42,6.23l1.68,2a17.67,17.67,0,0,0,6.76-6.33A15.11,15.11,0,0,1,61.53,54.31Z" style="fill:#f6921e"/><path d="M64.78,59.07a18.23,18.23,0,0,1-1.88-2.31c-1.34,1.57-5.53,6.53-5.57,7.64L59,66.27A50.48,50.48,0,0,1,64.78,59.07Z" style="fill:#f6921e"/><path d="M68.15,61.93c-.65-.45-1.26-.93-1.85-1.43-.9,1.12-3.81,5.06-3.19,8.69l2.06,1.24S65.92,64.85,68.15,61.93Z" style="fill:#f6921e"/><path d="M74.24,65.5c-.6-.3-1.18-.61-1.75-.92A19,19,0,0,0,68.7,72l1.61.9A45.42,45.42,0,0,1,74.24,65.5Z" style="fill:#f6921e"/><path d="M79.56,68.16c-.54-.28-1.09-.55-1.64-.82a16.59,16.59,0,0,0-2.49,7.93l2.15.68A18.34,18.34,0,0,1,79.56,68.16Z" style="fill:#f6921e"/><path d="M83.9,70.41A19,19,0,0,0,82.18,78l2.14.94A26.88,26.88,0,0,1,86,71.44C85.26,71.1,84.57,70.76,83.9,70.41Z" style="fill:#f6921e"/><path d="M91,73.72a15.18,15.18,0,0,0-2,7.23l1.72.74a33.75,33.75,0,0,1,2.53-7Z" style="fill:#f6921e"/><path d="M99.41,77.2C94,75,87.78,72.52,82.88,69.87c-11-5.94-22.43-8.86-23-23a51.54,51.54,0,0,1,4.19-23.65h0l-1.48.46s-4.54,13.47-3.72,22.14S62,59.41,70.62,64.58,98.15,77.52,98.15,77.52Z" style="fill:#231f20"/><path d="M112.16,84.9c-.44-2.39-6.12-5-13-7.79a11,11,0,0,0-6.66,6.18s1.5.3.75,4.64a72,72,0,0,0-.18,12.9,68.12,68.12,0,0,0,10.31-.67C112.61,98.59,113,89.16,112.16,84.9Z" style="fill:#404041"/><path d="M112.16,84.9a1.94,1.94,0,0,0-.21-.58c-1.76.83-8.19,3.39-17.4,1.23-.37-.09-.72-.15-1.07-.2a12,12,0,0,1-.2,2.58,72,72,0,0,0-.18,12.9,68.12,68.12,0,0,0,10.31-.67C112.61,98.59,113,89.16,112.16,84.9Z" style="fill:#353435"/><path d="M93.32,82.77s-13.8-5.83-27.26-12S49.12,50.13,49.46,43.4s-5.72-6.95-5.72-6.95L19.13,33.61c0,4.67-.07,9-.29,11.7-.68,8.07-4.15,22-3.71,30.17s5.95,11.89,16.72,13S55,95,63.25,97.69c6.06,2,19.77,3.21,30.31,3.13-.36-2.94.35-10,.88-13.67C95,83.22,93.32,82.77,93.32,82.77Z" style="fill:#2c292a"/><path d="M46.77,40.56A1.61,1.61,0,1,1,45.16,39,1.61,1.61,0,0,1,46.77,40.56Z" style="fill:#231f20"/><path d="M46.77,46.59A1.61,1.61,0,1,1,45.16,45,1.61,1.61,0,0,1,46.77,46.59Z" style="fill:#231f20"/><path d="M46.19,52.81a1.61,1.61,0,1,1-1.61-1.61A1.61,1.61,0,0,1,46.19,52.81Z" style="fill:#231f20"/><path d="M47.42,59.69a1.61,1.61,0,1,1-1.6-1.61A1.61,1.61,0,0,1,47.42,59.69Z" style="fill:#231f20"/><path d="M51.09,65.61A1.61,1.61,0,1,1,49.48,64,1.61,1.61,0,0,1,51.09,65.61Z" style="fill:#231f20"/><path d="M56.87,68.82a1.61,1.61,0,1,1-1.6-1.6A1.61,1.61,0,0,1,56.87,68.82Z" style="fill:#231f20"/><path d="M64.08,72.62A1.61,1.61,0,1,1,62.47,71,1.61,1.61,0,0,1,64.08,72.62Z" style="fill:#231f20"/><path d="M70.31,76.42a1.61,1.61,0,1,1-1.61-1.61A1.61,1.61,0,0,1,70.31,76.42Z" style="fill:#231f20"/><path d="M77.27,79.64A1.61,1.61,0,1,1,75.66,78,1.61,1.61,0,0,1,77.27,79.64Z" style="fill:#231f20"/><path d="M83.48,82.33a1.61,1.61,0,1,1-1.61-1.6A1.61,1.61,0,0,1,83.48,82.33Z" style="fill:#231f20"/><path d="M90.77,85.55a1.48,1.48,0,1,1-1.48-1.48A1.48,1.48,0,0,1,90.77,85.55Z" style="fill:#231f20"/><path d="M46.05,41.89H59.88c0-1,.1-2,.18-2.94h-14a1.47,1.47,0,0,0,0,2.94Z" style="fill:#faaf40"/><path d="M59.89,46.88c0-.51,0-1,0-1.5a1.54,1.54,0,0,0-.3,0H46.38a1.23,1.23,0,0,0,0,2.45H59.55a1.23,1.23,0,0,0,.39-.07C59.92,47.44,59.9,47.16,59.89,46.88Z" style="fill:#faaf40"/><path d="M60.48,51.24H45.53a1.32,1.32,0,0,0,0,2.64H61a1.27,1.27,0,0,0,.34-.05A17.85,17.85,0,0,1,60.48,51.24Z" style="fill:#faaf40"/><path d="M63.77,57.93a16.65,16.65,0,0,1-1.6-2.34h0c-9.3.6-15.38,2-16.35,3.26s.68,2.29.68,2.29l.06.16c6.13-3,17.2-3.37,17.2-3.37Z" style="fill:#faaf40"/><path d="M66.22,60.43h0a20,20,0,0,1-2-2h0c-10,.19-15.26,5.05-15.41,6.27a1.38,1.38,0,0,0,.85,1.56,3.21,3.21,0,0,0,1.45-.44C57.65,60.19,66.22,60.43,66.22,60.43Z" style="fill:#faaf40"/><path d="M69.85,63.06c-.65-.4-1.28-.83-1.89-1.26h0c-9.56.68-13.83,5.9-13.83,5.9-.1,1.35,1.76,1.76,1.76,1.76,6.9-6.42,14-6.4,14-6.4Z" style="fill:#faaf40"/><path d="M77.83,67.3l-2.16-1.07a20.64,20.64,0,0,0-7.4.52c-5.83,1.32-6.95,5.46-6.95,5.46a1.43,1.43,0,0,0,1.68,1A16.84,16.84,0,0,1,77.83,67.3Z" style="fill:#faaf40"/><path d="M82.46,69.64a17.24,17.24,0,0,0-8.92.79A9.17,9.17,0,0,0,68.16,76c0,1.26,1.34,1.15,1.34,1.15C74.06,69.62,85.1,71,85.1,71h0c-.76-.38-1.5-.76-2.22-1.15Z" style="fill:#faaf40"/><path d="M80,73c-4.23,1.67-5.3,6.27-5.3,6.27a1.87,1.87,0,0,0,2,1.43c2.39-9.15,14.79-6.84,14.79-6.84h0c-1.12-.48-2.23-1-3.32-1.46A15.94,15.94,0,0,0,80,73Z" style="fill:#faaf40"/><path d="M98.15,76.68l-3.41-1.4c-12.9-.23-13.85,6.87-13.85,6.87.19,1.53,2.15.9,2.15.9C86.82,75.7,98.13,76.68,98.15,76.68Z" style="fill:#faaf40"/><path d="M113.07,108.18c-.36-1-5.25-8.76-5.25-8.76s-19.66,3.09-35.52.76l5.94,7.47-33-6.83L45.72,92a44.83,44.83,0,0,0-8.29-1.4c-11.42-1-19-5.7-19.63-3.91,0,0-4.48,12.3-4.75,14.89s-1.79,7.77,9,9.65,36.61,2.68,50,4.82,30,2.86,35.54.45S113.43,109.16,113.07,108.18Zm-60.3,1.34c-4.38-.3-12.53-1.07-13.81-2s-3.9-5-2.69-4.77c0,0,16.16,2.38,18.55,3.72S57.15,109.83,52.77,109.52Zm13,.91c-2.63-.57-3.37-2.29-3-2.66,0,0,15.29,2.43,15.36,3.3S68.4,111,65.77,110.43Z" style="fill:#a6a8ab"/><path d="M98.3,76.75l-2.43-1c-7.74,1.9-7.74,9.8-7.74,9.8.52,2.17,2.37.17,2.37.17C90.93,80.7,96.31,77.69,98.3,76.75Z" style="fill:#faaf40"/><path d="M82.18,112.68c-8.86-.45-35.86-2.09-52.61-4.33-12.81-1.72-15.82-5.2-16.52-6.75-.28,2.6-1.75,7.75,9,9.62s36.61,2.68,50,4.82,30,2.86,35.54.45,5.81-7.33,5.45-8.31C107.14,116.39,91,113.13,82.18,112.68Z" style="fill:#bbbdbf"/><path d="M103.41,100.16c-9.2,1.57-31.85.22-40.16-2.47s-20.63-8.08-31.4-9.2c-8.75-.91-14-3.52-15.93-8.85h0s0,.1-.06.27c-.22.94-.79,4,.49,5.68,1.52,2,11.17,5.18,22.78,6.07s18.66,8.22,34.56,10.09,34.51,1.63,36-4.94h0A10.17,10.17,0,0,1,103.41,100.16Z" style="fill:#58595b"/></svg>
