<svg class="S" xmlns="http://www.w3.org/2000/svg" xmlns:xlink="http://www.w3.org/1999/xlink" viewBox="0 0 126 126"><defs><radialGradient id="radial-gradient" cx="42.27" cy="10.29" r="86.78" gradientUnits="userSpaceOnUse"><stop offset="0.24" stop-color="#fff"/><stop offset="0.48" stop-color="#edebe8"/><stop offset="0.7" stop-color="#b5b3a8"/><stop offset="0.89" stop-color="#6c6a5a"/></radialGradient></defs><path d="M63,42.3c-25.77,0-46.9,3.38-49,7.69a10.48,10.48,0,0,1,2.84-.39,9.7,9.7,0,0,1,4.36,1C21.82,48,40.28,45.91,63,45.91c23,0,41.75,2.13,41.9,4.77a9.4,9.4,0,0,1,5.28-1.5,11.28,11.28,0,0,1,1.32.08C107.46,45.31,87.29,42.3,63,42.3Z" style="fill:#2c2d2b"/><path d="M17.18,49.82a10.92,10.92,0,0,1,1.65.13,1.38,1.38,0,0,1,.39-1.11C20.57,46.66,30,45.61,30,45.61,46,42.75,72,42.83,72,42.83c-31.62-.53-46.2,2.33-52.88,4.5-2.68.88-3.41,1.79-3.36,2.58A12.48,12.48,0,0,1,17.18,49.82Z" style="fill:#505150"/><path d="M21.34,51.29h0a.79.79,0,0,1-.29-.56c0-2.66,18.77-4.81,41.92-4.81s41.92,2.15,41.92,4.81c3-3.2-18.77-7.29-42.09-6.95s-38.2,3-41.47,4.39S21.34,51.29,21.34,51.29Z" style="fill:#1d1d1b"/><path d="M72.94,42.5c.11,0,0-.21,0-.26-1.56-.92-2.53.5-3,1.95a17.69,17.69,0,0,0-.56,2.39,9.37,9.37,0,0,1-.45,1.48c-.26.59-.53,1.18-.83,1.76-.22.39-.44.77-.68,1.15a41,41,0,0,0-3,4.51.08.08,0,0,0,0,0h1.2a14.41,14.41,0,0,0,1.63-1.59c.7-.8,1.17-1.72,1.83-2.54S70.44,50,71.2,51a8.92,8.92,0,0,1,1,2.2,13.1,13.1,0,0,1,.67,2.21l1,0A19.76,19.76,0,0,0,72,49.7C71.19,47.84,70.36,43.52,72.94,42.5Z" style="fill:#b2b3b3"/><path d="M25.85,47.17a2.94,2.94,0,0,0-.8-1c-1.48-1.25-5.7-1.6-6.09.67-.1.56.22-.33,2.52-.41,3.56-.12,3.92,3,3.56,5.38a7.21,7.21,0,0,1-.25.91c.32.09.66.16,1,.24.24-.55.58-1,1.27-.67a3.55,3.55,0,0,1,1.35,1.17l1.7.27A51.69,51.69,0,0,1,27,49.53C26.63,48.91,26.34,47.92,25.85,47.17Z" style="fill:#b2b3b3"/><path d="M40,45a5.93,5.93,0,0,0-3.77-2.34c-.9.07-1.69.36-2,1.17,1.15.24,2.31,0,3.34.76,1.47,1.07,1.52,4.22.71,5.73A14.58,14.58,0,0,0,37,54.49l1.19.1c.36-1.4,1-2.74,1.44-4.12,1.26-1.41,2.48,1.08,3.07,1.94a15.84,15.84,0,0,0,2.19,2.64l1.54.08c-1.07-1.68-2.57-3.13-3.66-4.81S41.14,46.65,40,45Z" style="fill:#b2b3b3"/><path d="M56.32,49.93c-.3-.57-.57-1.16-.83-1.76A9.37,9.37,0,0,1,55,46.69a19.78,19.78,0,0,0-.56-2.39c-.42-1.45-1.39-2.87-3-1.94-.07,0-.14.21,0,.26,2.58,1,1.75,5.33.89,7.19a20.42,20.42,0,0,0-1.76,5.5l1,0a20.59,20.59,0,0,1,1.62-4.24h0A1.21,1.21,0,0,1,55,51l.15.13a17.64,17.64,0,0,0,3.56,4.4H60a44.07,44.07,0,0,0-3-4.42C56.76,50.71,56.53,50.32,56.32,49.93Z" style="fill:#b2b3b3"/><path d="M105.63,45.86a1.91,1.91,0,0,0-.78-.56,6,6,0,0,0-1.62-.51,4.22,4.22,0,0,0-3.55.9,2.94,2.94,0,0,0-.8,1c-.49.75-.79,1.74-1.18,2.36-1.1,1.74-2.4,3.26-3.63,4.86l1.68-.22a5.15,5.15,0,0,1,1.91-1.91c1-.41,1.24.54,1.5,1.34l.92-.19a.54.54,0,0,0,0-.11c-.06-.52-.32-1-.4-1.52-.41-2.69.08-5,3-5.27a5.07,5.07,0,0,1,1.65,0C104.83,46.22,106.38,47,105.63,45.86Z" style="fill:#b2b3b3"/><path d="M85.93,48.72c-.5-2.29.28-5,3-5.08.43,0,1.58.25,1.81-.26,0,0,0-.05,0-.07-.7-.36-1.26-1-2.21-.89a4.66,4.66,0,0,0-3.87,2.27C83.52,46.35,83,48.35,81.86,50S79,53.36,78,55.21l1.32-.06a18.66,18.66,0,0,0,3.82-4.9c1.4-1.12,2.05.07,2.43,1.32.33,1,.77,2,1,3.12l1.15-.09A16.73,16.73,0,0,0,87,51.8C86.69,50.76,86.17,49.79,85.93,48.72Z" style="fill:#b2b3b3"/><path d="M19.79,46.25s2.82-1,4.62,1.07C24.41,47.32,23.17,44.67,19.79,46.25Z" style="fill:#fff"/><path d="M35.12,43.49a2.5,2.5,0,0,1,.41-.06,4.47,4.47,0,0,1,1.09.07,3.65,3.65,0,0,1,1.45.63,3.28,3.28,0,0,1,.65.64,4.08,4.08,0,0,1,.47.81c0,.08.06.13.09.23l.07.22.12.42a4.25,4.25,0,0,1,.14.88,3.29,3.29,0,0,1,0,.83,3.18,3.18,0,0,1-.12.73,3.38,3.38,0,0,1-.2.59,4.37,4.37,0,0,1-.21.43,2.43,2.43,0,0,1-.24.34s.07-.14.16-.38.1-.27.13-.44.09-.37.11-.59a4.93,4.93,0,0,0,0-.69,5.09,5.09,0,0,0-.06-.77,4.35,4.35,0,0,0-.17-.81c0-.14-.09-.28-.13-.42l-.06-.21-.08-.18a4,4,0,0,0-.41-.73,3.38,3.38,0,0,0-.54-.59,4,4,0,0,0-1.27-.69,4.45,4.45,0,0,0-1-.23A4,4,0,0,0,35.12,43.49Z" style="fill:#fff"/><path d="M52.21,42.3a2.06,2.06,0,0,1,.34.22,3.6,3.6,0,0,1,.73.79,4.07,4.07,0,0,1,.58,1.42,4.93,4.93,0,0,1,.1.87,3.38,3.38,0,0,1,0,.45v.22c0,.1,0,.15,0,.23-.09.57-.19,1.15-.3,1.68-.06.27-.15.52-.23.77l-.22.67a6,6,0,0,1-.24.55c-.08.17-.14.31-.2.42s-.2.35-.2.35,0-.14.12-.38.07-.27.12-.44.11-.36.15-.57c.08-.43.2-.91.31-1.43s.16-1.12.25-1.69c0-.07,0-.16,0-.2l0-.21a2.84,2.84,0,0,0,0-.41,5.34,5.34,0,0,0-.05-.81,4.43,4.43,0,0,0-.42-1.36,3.3,3.3,0,0,0-.29-.5,2.87,2.87,0,0,0-.27-.35C52.32,42.4,52.21,42.3,52.21,42.3Z" style="fill:#fff"/><path d="M71.91,42.25a.26.26,0,0,0-.09,0,1.23,1.23,0,0,0-.25.17,3,3,0,0,0-.35.31l-.17.23a1.32,1.32,0,0,0-.18.26l-.17.29c0,.1-.09.22-.14.33a3.88,3.88,0,0,0-.24.75c-.09.25-.11.54-.18.83s-.1.59-.15.88-.11.6-.16.89-.13.58-.23.86a5.36,5.36,0,0,1-.3.77,4.54,4.54,0,0,1-.36.66l-.36.51-.33.35L68,50.7s.07-.14.21-.36l.26-.4c.09-.15.17-.34.27-.54a4.52,4.52,0,0,0,.28-.66,7.35,7.35,0,0,0,.23-.75c.08-.26.11-.55.18-.84l.15-.88c.06-.29.1-.6.17-.89a6.64,6.64,0,0,1,.22-.85,3.64,3.64,0,0,1,.32-.78,2.71,2.71,0,0,1,.18-.34l.22-.3a3.18,3.18,0,0,1,.45-.45,3,3,0,0,1,.41-.26,1.31,1.31,0,0,1,.29-.13Z" style="fill:#fff"/><path d="M87.63,43h-.11a1.49,1.49,0,0,0-.29.06,1.9,1.9,0,0,0-.42.19,6,6,0,0,0-.48.36c-.15.16-.33.31-.49.51a6.07,6.07,0,0,0-.47.63c-.15.24-.33.48-.46.73s-.29.5-.42.78c-.27.53-.53,1.07-.79,1.57s-.51,1-.75,1.37l-.36.51a3.17,3.17,0,0,1-.31.37l-.28.31s.07-.14.21-.36a4.5,4.5,0,0,0,.24-.41l.27-.55c.18-.41.4-.89.62-1.4s.48-1.07.75-1.62c.13-.27.31-.54.45-.8a8.46,8.46,0,0,1,.5-.73,5.82,5.82,0,0,1,.56-.63c.18-.19.4-.34.57-.49a4,4,0,0,1,.57-.3,2.11,2.11,0,0,1,.47-.13,1,1,0,0,1,.31,0Z" style="fill:#fff"/><path d="M100.93,45.57a1.59,1.59,0,0,0-.34.16,2.08,2.08,0,0,0-.34.25,4.75,4.75,0,0,0-.38.39,4.23,4.23,0,0,0-.38.51,5.3,5.3,0,0,0-.36.62,4.15,4.15,0,0,0-.32.71c-.11.24-.21.49-.32.75l-.32.75-.39.71c-.13.23-.28.43-.41.63a6.13,6.13,0,0,1-.42.53,3.93,3.93,0,0,1-.4.41,3.8,3.8,0,0,1-.33.29,3,3,0,0,1-.31.22s.1-.1.25-.28a3.67,3.67,0,0,0,.27-.34c.09-.14.21-.28.31-.46a5.74,5.74,0,0,0,.34-.55c.11-.21.24-.41.35-.64s.22-.46.34-.69.2-.51.31-.76l.33-.75a4.44,4.44,0,0,1,.37-.72,4.15,4.15,0,0,1,.44-.63,3.14,3.14,0,0,1,.47-.49,2,2,0,0,1,.47-.34,2.07,2.07,0,0,1,.39-.2,1.11,1.11,0,0,1,.28-.07Z" style="fill:#fff"/><path d="M21.34,51.29h0a.79.79,0,0,1-.29-.56c0-2.66,18.77-4.81,41.92-4.81s41.92,2.15,41.92,4.81c3-3.2-18.77-7.29-42.09-6.95s-38.2,3-41.47,4.39S21.34,51.29,21.34,51.29Z" style="fill:#1d1d1b"/><path d="M72.94,42.5c.11,0,0-.21,0-.26-1.56-.92-2.53.5-3,1.95a17.69,17.69,0,0,0-.56,2.39,9.37,9.37,0,0,1-.45,1.48c-.26.59-.53,1.18-.83,1.76-.22.39-.44.77-.68,1.15a41,41,0,0,0-3,4.51.08.08,0,0,0,0,0h1.2a14.41,14.41,0,0,0,1.63-1.59c.7-.8,1.17-1.72,1.83-2.54S70.44,50,71.2,51a8.92,8.92,0,0,1,1,2.2,13.1,13.1,0,0,1,.67,2.21l1,0A19.76,19.76,0,0,0,72,49.7C71.19,47.84,70.36,43.52,72.94,42.5Z" style="fill:#b2b3b3"/><path d="M25.85,47.17a2.94,2.94,0,0,0-.8-1c-1.48-1.25-5.7-1.6-6.09.67-.1.56.22-.33,2.52-.41,3.56-.12,3.92,3,3.56,5.38a7.21,7.21,0,0,1-.25.91c.32.09.66.16,1,.24.24-.55.58-1,1.27-.67a3.55,3.55,0,0,1,1.35,1.17l1.7.27A51.69,51.69,0,0,1,27,49.53C26.63,48.91,26.34,47.92,25.85,47.17Z" style="fill:#b2b3b3"/><path d="M40,45a5.93,5.93,0,0,0-3.77-2.34c-.9.07-1.69.36-2,1.17,1.15.24,2.31,0,3.34.76,1.47,1.07,1.52,4.22.71,5.73A14.58,14.58,0,0,0,37,54.49l1.19.1c.36-1.4,1-2.74,1.44-4.12,1.26-1.41,2.48,1.08,3.07,1.94a15.84,15.84,0,0,0,2.19,2.64l1.54.08c-1.07-1.68-2.57-3.13-3.66-4.81S41.14,46.65,40,45Z" style="fill:#b2b3b3"/><path d="M56.32,49.93c-.3-.57-.57-1.16-.83-1.76A9.37,9.37,0,0,1,55,46.69a19.78,19.78,0,0,0-.56-2.39c-.42-1.45-1.39-2.87-3-1.94-.07,0-.14.21,0,.26,2.58,1,1.75,5.33.89,7.19a20.42,20.42,0,0,0-1.76,5.5l1,0a20.59,20.59,0,0,1,1.62-4.24h0A1.21,1.21,0,0,1,55,51l.15.13a17.64,17.64,0,0,0,3.56,4.4H60a44.07,44.07,0,0,0-3-4.42C56.76,50.71,56.53,50.32,56.32,49.93Z" style="fill:#b2b3b3"/><path d="M105.63,45.86a1.91,1.91,0,0,0-.78-.56,6,6,0,0,0-1.62-.51,4.22,4.22,0,0,0-3.55.9,2.94,2.94,0,0,0-.8,1c-.49.75-.79,1.74-1.18,2.36-1.1,1.74-2.4,3.26-3.63,4.86l1.68-.22a5.15,5.15,0,0,1,1.91-1.91c1-.41,1.24.54,1.5,1.34l.92-.19a.54.54,0,0,0,0-.11c-.06-.52-.32-1-.4-1.52-.41-2.69.08-5,3-5.27a5.07,5.07,0,0,1,1.65,0C104.83,46.22,106.38,47,105.63,45.86Z" style="fill:#b2b3b3"/><path d="M85.93,48.72c-.5-2.29.28-5,3-5.08.43,0,1.58.25,1.81-.26,0,0,0-.05,0-.07-.7-.36-1.26-1-2.21-.89a4.66,4.66,0,0,0-3.87,2.27C83.52,46.35,83,48.35,81.86,50S79,53.36,78,55.21l1.32-.06a18.66,18.66,0,0,0,3.82-4.9c1.4-1.12,2.05.07,2.43,1.32.33,1,.77,2,1,3.12l1.15-.09A16.73,16.73,0,0,0,87,51.8C86.69,50.76,86.17,49.79,85.93,48.72Z" style="fill:#b2b3b3"/><path d="M19.79,46.25s2.82-1,4.62,1.07C24.41,47.32,23.17,44.67,19.79,46.25Z" style="fill:#fff"/><path d="M35.12,43.49a2.5,2.5,0,0,1,.41-.06,4.47,4.47,0,0,1,1.09.07,3.65,3.65,0,0,1,1.45.63,3.28,3.28,0,0,1,.65.64,4.08,4.08,0,0,1,.47.81c0,.08.06.13.09.23l.07.22.12.42a4.25,4.25,0,0,1,.14.88,3.29,3.29,0,0,1,0,.83,3.18,3.18,0,0,1-.12.73,3.38,3.38,0,0,1-.2.59,4.37,4.37,0,0,1-.21.43,2.43,2.43,0,0,1-.24.34s.07-.14.16-.38.1-.27.13-.44.09-.37.11-.59a4.93,4.93,0,0,0,0-.69,5.09,5.09,0,0,0-.06-.77,4.35,4.35,0,0,0-.17-.81c0-.14-.09-.28-.13-.42l-.06-.21-.08-.18a4,4,0,0,0-.41-.73,3.38,3.38,0,0,0-.54-.59,4,4,0,0,0-1.27-.69,4.45,4.45,0,0,0-1-.23A4,4,0,0,0,35.12,43.49Z" style="fill:#fff"/><path d="M52.21,42.3a2.06,2.06,0,0,1,.34.22,3.6,3.6,0,0,1,.73.79,4.07,4.07,0,0,1,.58,1.42,4.93,4.93,0,0,1,.1.87,3.38,3.38,0,0,1,0,.45v.22c0,.1,0,.15,0,.23-.09.57-.19,1.15-.3,1.68-.06.27-.15.52-.23.77l-.22.67a6,6,0,0,1-.24.55c-.08.17-.14.31-.2.42s-.2.35-.2.35,0-.14.12-.38.07-.27.12-.44.11-.36.15-.57c.08-.43.2-.91.31-1.43s.16-1.12.25-1.69c0-.07,0-.16,0-.2l0-.21a2.84,2.84,0,0,0,0-.41,5.34,5.34,0,0,0-.05-.81,4.43,4.43,0,0,0-.42-1.36,3.3,3.3,0,0,0-.29-.5,2.87,2.87,0,0,0-.27-.35C52.32,42.4,52.21,42.3,52.21,42.3Z" style="fill:#fff"/><path d="M71.91,42.25a.26.26,0,0,0-.09,0,1.23,1.23,0,0,0-.25.17,3,3,0,0,0-.35.31l-.17.23a1.32,1.32,0,0,0-.18.26l-.17.29c0,.1-.09.22-.14.33a3.88,3.88,0,0,0-.24.75c-.09.25-.11.54-.18.83s-.1.59-.15.88-.11.6-.16.89-.13.58-.23.86a5.36,5.36,0,0,1-.3.77,4.54,4.54,0,0,1-.36.66l-.36.51-.33.35L68,50.7s.07-.14.21-.36l.26-.4c.09-.15.17-.34.27-.54a4.52,4.52,0,0,0,.28-.66,7.35,7.35,0,0,0,.23-.75c.08-.26.11-.55.18-.84l.15-.88c.06-.29.1-.6.17-.89a6.64,6.64,0,0,1,.22-.85,3.64,3.64,0,0,1,.32-.78,2.71,2.71,0,0,1,.18-.34l.22-.3a3.18,3.18,0,0,1,.45-.45,3,3,0,0,1,.41-.26,1.31,1.31,0,0,1,.29-.13Z" style="fill:#fff"/><path d="M87.63,43h-.11a1.49,1.49,0,0,0-.29.06,1.9,1.9,0,0,0-.42.19,6,6,0,0,0-.48.36c-.15.16-.33.31-.49.51a6.07,6.07,0,0,0-.47.63c-.15.24-.33.48-.46.73s-.29.5-.42.78c-.27.53-.53,1.07-.79,1.57s-.51,1-.75,1.37l-.36.51a3.17,3.17,0,0,1-.31.37l-.28.31s.07-.14.21-.36a4.5,4.5,0,0,0,.24-.41l.27-.55c.18-.41.4-.89.62-1.4s.48-1.07.75-1.62c.13-.27.31-.54.45-.8a8.46,8.46,0,0,1,.5-.73,5.82,5.82,0,0,1,.56-.63c.18-.19.4-.34.57-.49a4,4,0,0,1,.57-.3,2.11,2.11,0,0,1,.47-.13,1,1,0,0,1,.31,0Z" style="fill:#fff"/><path d="M100.93,45.57a1.59,1.59,0,0,0-.34.16,2.08,2.08,0,0,0-.34.25,4.75,4.75,0,0,0-.38.39,4.23,4.23,0,0,0-.38.51,5.3,5.3,0,0,0-.36.62,4.15,4.15,0,0,0-.32.71c-.11.24-.21.49-.32.75l-.32.75-.39.71c-.13.23-.28.43-.41.63a6.13,6.13,0,0,1-.42.53,3.93,3.93,0,0,1-.4.41,3.8,3.8,0,0,1-.33.29,3,3,0,0,1-.31.22s.1-.1.25-.28a3.67,3.67,0,0,0,.27-.34c.09-.14.21-.28.31-.46a5.74,5.74,0,0,0,.34-.55c.11-.21.24-.41.35-.64s.22-.46.34-.69.2-.51.31-.76l.33-.75a4.44,4.44,0,0,1,.37-.72,4.15,4.15,0,0,1,.44-.63,3.14,3.14,0,0,1,.47-.49,2,2,0,0,1,.47-.34,2.07,2.07,0,0,1,.39-.2,1.11,1.11,0,0,1,.28-.07Z" style="fill:#fff"/><path d="M100.68,36.12a.92.92,0,0,1,.46-.79,39.66,39.66,0,0,0-7.83-15.77.81.81,0,0,1-.43.14.89.89,0,0,1-.87-.91,1,1,0,0,1,.18-.53,39.32,39.32,0,0,0-10.91-8.6.84.84,0,0,1-.55.22A.9.9,0,0,1,79.86,9v0A39.18,39.18,0,0,0,62.72,5,39.59,39.59,0,0,0,23.54,39.46a.89.89,0,0,1,.62.86.88.88,0,0,1-.81.89c-.1,1.16-.16,2.32-.16,3.5a40.1,40.1,0,0,0,1.14,9.49l.15,0a.91.91,0,0,1,.32,1.75,39.56,39.56,0,0,0,9.64,16.51.82.82,0,0,1,.62-.28.89.89,0,0,1,.87.91.92.92,0,0,1-.23.61,39.46,39.46,0,0,0,12.95,8.14.87.87,0,1,1,1.74,0,.94.94,0,0,1-.19.55,39.45,39.45,0,0,0,50.19-25.58.91.91,0,0,1,.29-1.76.78.78,0,0,1,.21,0,39.75,39.75,0,0,0,.62-18A.9.9,0,0,1,100.68,36.12Z" style="fill:url(#radial-gradient)"/><path d="M26.49,42.66c0-.15,6.75.43,13.08-1.4C39.7,41.48,33.19,43.75,26.49,42.66Z"/><path d="M27.25,42.63a55.45,55.45,0,0,1,9.22-18.69A41,41,0,0,1,53,10.64C60.22,7.51,68.86,7,77,8.45c.09.35-8.46-2.34-20.52,1.28C44.24,13.08,32,26.56,27.25,42.63Z"/><path d="M61.24,19.26A94.62,94.62,0,0,1,75.51,32.71c7.47,8.59,17.16,23,15,38.89a38.8,38.8,0,0,0-2.88-19C83.36,41.65,73.4,29.11,61.24,19.26Z" style="fill:#fff"/><path d="M61,19.26A97.46,97.46,0,0,1,75.19,32.79C82.6,41.41,92.35,55.71,90.32,71.6a38.73,38.73,0,0,0-3-19C83,41.74,73.08,29.21,61,19.26Z"/><path d="M50.38,26.05c-.47.23,13.14,27.1,29.57,51.81C80.27,77.73,62.24,53.66,50.38,26.05Z" style="fill:#fff"/><path d="M50.22,25.93c-.49.2,12.51,27.74,29.9,52.14C80.26,78.08,61.55,54.07,50.22,25.93Z"/><path d="M92.85,19.7c-.14-.21,1.34,7-2.77,12.27C90.32,32.1,93.17,26.27,92.85,19.7Z"/><path d="M100.61,36.92c0-.24-1.29,4.25-5.33,5.08C95.41,42.22,98.67,40.33,100.61,36.92Z"/><path d="M80.7,9.88c-.1-.15.83,4.06-1.72,7C79.16,17,80.58,13.63,80.7,9.88Z"/><path d="M38.69,74c0,.64,9.85,0,17.77-5.6C56.54,67.84,48.72,75.48,38.69,74Z"/><path d="M49.87,81.12a17.64,17.64,0,0,0,11.21-2C61.29,79.1,55.87,83.08,49.87,81.12Z"/><path d="M78.42,17.07c.33-.5,15,16.13,21.5,36.68C99.76,54,93,33.1,78.42,17.07Z"/><path d="M61.78,79.21c-.56.38-8-21.3-21.4-38.74C41.73,39.37,53.49,58.5,61.78,79.21Z"/><path d="M39.58,41.23a36.17,36.17,0,0,1,7.09-13.95c5.67-7.8,18.69-13.11,31.12-10.89,0,.26-6.35-1.25-15.48,1.06C53.13,19.6,43,29,39.58,41.23Z"/><path d="M25.5,55.17c-.28-.05,12.07,6,24.27,1.76C50.23,57.18,37,61.81,25.5,55.17Z"/><rect x="13.76" y="49.61" width="4.27" height="70.51" rx="1.1" style="fill:#2c2d2b"/><polygon points="14.86 118.34 13.76 116.4 13.76 50.64 14.86 49.77 14.86 118.34" style="fill:#1d1d1b"/><rect x="14.86" y="49.77" width="2.05" height="68.57" style="fill:#505150"/><path d="M109.18,47.79a9.16,9.16,0,0,1-5.42,1.82c.73.35,1.16.72,1.16,1.11,0,2.65-18.77,4.8-41.92,4.8s-41.92-2.15-41.92-4.8c0,0,0,0,0-.07a8.56,8.56,0,0,1-2.13-1c-.21,0-.41,0-.63,0a9.87,9.87,0,0,1-3.6-.64,2.32,2.32,0,0,0-1,1.7c0,4.64,22,8.41,49.24,8.41s49.24-3.77,49.24-8.41C112.24,49.69,111.16,48.7,109.18,47.79Z" style="fill:#2c2d2b"/><path d="M108.85,47.64a6.88,6.88,0,0,1,1.08,2.44c1,4.5-33.69,8.22-53.56,7.62a199.46,199.46,0,0,1-29.71-2.94h-.08a20,20,0,0,1-3.43-.69,37.59,37.59,0,0,1-5.39-1.73c-1.34-.56-3.15-1.58-3.52-2.81a1.85,1.85,0,0,0-.48,1.18c0,4.64,22,8.41,49.24,8.41s49.24-3.77,49.24-8.41C112.24,49.63,111,48.59,108.85,47.64Z" style="fill:#1d1d1b"/><path d="M48.52,55.82c-24.94-1.35-26.29-3.3-28.47-4.5-1.23-.68-1.33-1.37-1.19-1.85l-.54,0a8.75,8.75,0,0,1-2.34,1A4.61,4.61,0,0,0,17.79,52c4.29,2,14.8,4.5,29.75,4.74,23.82.37,37.56-1.58,37.56-1.58C72.93,56.2,48.52,55.82,48.52,55.82Z" style="fill:#505150"/><path d="M110.19,52.09A4.16,4.16,0,0,0,106.9,49l.25.06L106.9,49l-.06,0,.06,0a3.42,3.42,0,0,0-2.14.23,2.55,2.55,0,0,0-.87.6c-.07.08-.53.74-.14.63q0,.09.15.09a4.44,4.44,0,0,1,3.66,1.17,2.87,2.87,0,0,1,.6,3.15A12.72,12.72,0,0,1,106.34,58c-.82,1.15-1.38,1.72-2.14,2.9-.92,1.39-1.69-1.34-1.73-1.54a32.38,32.38,0,0,0-1.27-4.22c-.47-1.27-1.29-3-3.06-3.1-.74-.69-1.57.4-1.77,1-.26.75-.4,1.54-.64,2.3a12.88,12.88,0,0,1-2,3.86c-1.17,1.57-2,1.73-3-.08-.25-.5-.53-1-.8-1.48-.44-.78-.83-1.57-1.26-2.35A6.59,6.59,0,0,0,87.11,53a2.29,2.29,0,0,0-1.06-.27c-.87-.31-1.51.49-1.85,1.06s-.73,1.5-1.13,2.23c-.55,1-1.14,2-1.72,3S80,62.66,78.43,62.8c-2.3.2-4.17-5.07-4.89-6.41A19.71,19.71,0,0,0,72,53.84c-.41-.56-1.15-1.58-2-.92-1.08.36-2.9,3.82-4,5.81-.6,1.06-1.86,3.48-3,3.51-1.32,0-1.9-1.92-2.39-2.79a20.09,20.09,0,0,1-1.77-3.83c-.09-.25-.17-.51-.28-.77A1.9,1.9,0,0,0,56.23,54a3.74,3.74,0,0,0-1.28.77l-.43.47c-1.58,1.75-3.13,3.56-4.89,5.18-.56.52-1.91,2-2.72,2.17-1.35.27-2.38-2.59-2.73-3.46a13.42,13.42,0,0,1-1.12-3.67c-.12-.55,0-1.5-.37-1.92-1.3-1.62-3.59,1.07-4.52,1.81q-1,.78-1.92,1.65c-1,.9-1.88,2.43-3.38,2.69-.86.16-1.22-.42-1.6-1s-.79-1.21-1.21-1.8-.94-1.34-1.38-2l0,0A6.3,6.3,0,0,1,28,53.67l-.13-.2,0-.06a1.81,1.81,0,0,1-.07-.66c.06-.73-.61-1-1.16-.47a2.75,2.75,0,0,0-.61.8.17.17,0,0,1-.09.08,50.19,50.19,0,0,0-2.41,5c-.14.28-.29.56-.44.84s-2-1.34-2.12-1.48c-.74-.87-1.45-1.75-2.25-2.58A5.86,5.86,0,0,1,17,52.39c-.51-2.51,2.79-1.94,4.37-1.41-.41-1-1-2-2.41-2.09A4.4,4.4,0,0,0,15.14,51c-1.09,2,1,4,2.48,5.38a23.09,23.09,0,0,1,4.91,5.46c3.19,5.48,5.46,11.31,8.1,17,4.47,9.59,8.43,19.3,12,29.2,1.08,3,2.14,6.12,3.49,9.08a12.46,12.46,0,0,0,1.09,2.48,1.59,1.59,0,0,0,1.77.53,3.66,3.66,0,0,0,1.6-1.38,16.5,16.5,0,0,0,2-3.87c.3.47.61.93.94,1.38a7.58,7.58,0,0,0,3.23,4.18,3.76,3.76,0,0,0,2.71.38,5,5,0,0,0,2.46-1.93,2.65,2.65,0,0,0,.93-.89c.29-.36.55-.73.8-1.11A11.46,11.46,0,0,0,66.05,120a3.24,3.24,0,0,0,3.14.89,5.93,5.93,0,0,0,2.48-2A11.14,11.14,0,0,0,73.32,116c.39-.28.7,0,1,.27.41.7.87,1.38,1.34,2.05a3.94,3.94,0,0,0,1.48,1.47,1.81,1.81,0,0,0,2,.35,1.62,1.62,0,0,0,.62-1c.16-.63.31-1.26.47-1.89q.92-3.67,2-7.33A150.9,150.9,0,0,1,92.68,83.49a170.11,170.11,0,0,1,8.95-15.86c2.27-3.51,4.7-6.94,6.85-10.52a14.63,14.63,0,0,0,1.24-2.47A5.64,5.64,0,0,0,110.19,52.09ZM91,66.49c1.56.23,3.26,4.59,3.44,5.2.33,1.11-.22,2.12-.59,3.16-1.44,1.82-2.87,3.63-4.33,5.44-2.52,3.11-4.09-2-4.88-3.56a4.56,4.56,0,0,1,.09-3.29c1.77-2.16,3.61-4.28,5.31-6.47A1,1,0,0,1,91,66.49Zm-47.37,23s0,0,0-.06c.29-1.4,1.23-4.54,3.39-2.91a20.76,20.76,0,0,1,3.12,5l.24.41a17.56,17.56,0,0,1,1,3.66,5.39,5.39,0,0,1-1.09,3.28,8.25,8.25,0,0,1-1.22,1.36c-.83.82-1.47.79-2,.45-1-.69-1.57-2.92-2.07-4A11.6,11.6,0,0,1,43.66,89.53Zm-.59-1.63c-1.9,2.44-4.66-4.35-5.22-5.19a12.33,12.33,0,0,1-1.69-3.36,2.54,2.54,0,0,1,.62-2.87l1.64-2.06a1.61,1.61,0,0,1,1.8.72c1.12,1.81,2.19,3.64,3.36,5.42a5.47,5.47,0,0,1,1.2,3.68A8,8,0,0,1,43.07,87.9Zm7.77,2.42c-.38-.71-.74-1.42-1.06-2.15a38.85,38.85,0,0,1-1.18-4,1.75,1.75,0,0,1,0-.91v-.14l.05,0a9.35,9.35,0,0,1,2.69-3.63A4.48,4.48,0,0,1,53,78.26c.9-.25,1.33.67,1.6,1.25a31.26,31.26,0,0,1,2.19,3.79c1.43,2.76,1.71,5.38-.31,8a15.81,15.81,0,0,1-1.13,1.46,2.92,2.92,0,0,1-1.46.9,1.71,1.71,0,0,1-1.63-.74l-.18-.34C51.66,91.84,51.24,91.08,50.84,90.32Zm4.29,5a2.13,2.13,0,0,1,.21-.55,6.78,6.78,0,0,1,3.49-3.42C61.19,90.5,62.17,93.6,63,95a4.91,4.91,0,0,1-.39,3.22c-.32.57-.72,1.12-1.09,1.67a14.82,14.82,0,0,1-1.28,1.7c-.5.56-1.27,1.67-2.23,1.23a2.66,2.66,0,0,1-1.07-1.21c-.38-.63-.83-1.22-1.22-1.84l-.29-.57A6,6,0,0,1,55.13,95.34Zm6.54-6.58c0,.11,0,0-.08-.61a5.64,5.64,0,0,1,.5-1.09c2.18-2.5,4.33-5,6.4-7.59a1.34,1.34,0,0,1,1.7.35,8.35,8.35,0,0,1,1.6,3.12,5.57,5.57,0,0,1-1.07,5.82c-1.64,2-3.32,4-5,6-1.42.56-2.15-1.54-2.57-2.36A13.57,13.57,0,0,1,61.67,88.76ZM67.25,95c1.51-1.86,3-3.73,4.51-5.6a2.11,2.11,0,0,1,3.14.48c4.24,5.45.29,9-2.67,12.14-.47.5-1,1.66-2,1.54a2.62,2.62,0,0,1-1.54-1.2,23.1,23.1,0,0,1-1.35-2.17,5.25,5.25,0,0,1,0-5.32C67.29,95,67.22,95,67.25,95ZM76,86.17c0-.12,0-.32,0-.65a21.92,21.92,0,0,1,1.2-3q1.59-2.05,3.19-4.09a2,2,0,0,1,2.25-.52,3.57,3.57,0,0,1,1.25,1.68c.86,1.87,1.54,3.89.71,5.87a16.94,16.94,0,0,1-2.12,3.25l-1.56,2.17c-.37.51-.87,1.24-1.59,1.39-.91.18-1.48-1-1.81-1.53A10.94,10.94,0,0,1,76,86.17ZM80.9,63.63c.3-.61.16-.33,0,0,.73-1.52,1.89-2.87,2.56-4.4.31-.41.62-.8.94-1.2s.57-.82,1.06-1c.76-.22,1.37.74,1.72,1.16.62,1.08,1.19,2.17,1.8,3.25a3.7,3.7,0,0,1,.72,1.83,7.26,7.26,0,0,1-1.42,3.43,24.92,24.92,0,0,1-2.65,3.38c-.36.39-.74.78-1.14,1.14a2,2,0,0,1-1.06.61A1.85,1.85,0,0,1,81.9,71a7.65,7.65,0,0,1-1-1.76,6.92,6.92,0,0,1-.69-2.45,6.51,6.51,0,0,1,.72-3.16C80.72,64,80.51,64.45,80.9,63.63ZM76.47,69h0a1.38,1.38,0,0,1,2.13.3c.61,1.12,1.2,2.25,1.8,3.38a5.31,5.31,0,0,1,.17,2.79,7.43,7.43,0,0,1-1.4,2.28c-.61.76-1.15,1.55-1.78,2.3s-1.11,1.22-1.63,1.86c-.31.37-.74.94-1.3,1-.79.09-1.21-1.26-1.44-1.73-.91-1.88-1.85-3.72-1.37-5.81,1.53-2,3-4.06,4.53-6.1ZM65.06,64.74c.53-2,2.2-3.44,3.2-5.19.41-.71.82-2,2-1.62.83.25,1.39,1.24,1.79,1.87,1,1.59,2.48,3,3.33,4.64C77,67.62,73.92,71,71.48,73.18a2.4,2.4,0,0,1-2.56.39c-.3-.14-.62-1-.77-1.24L67.32,71c-.52-.81-1.08-1.62-1.56-2.45A5.29,5.29,0,0,1,65.06,64.74ZM63,67.24c1.42.4,1.85,2,2.45,3.06a16.44,16.44,0,0,1,2.15,4.42c0,.08.1.16.14.24a7.78,7.78,0,0,1,.15,1.59,3.67,3.67,0,0,1-.67,1.81,38.41,38.41,0,0,1-2.53,3.33,40,40,0,0,1-2.51,3.16c-.41.43-.9,1-1.62.92A2.7,2.7,0,0,1,59,84.68l-1.43-2.55c-.29-.58-.6-1.17-.92-1.75-.79-1.46-1.64-3.63-1-5.23.76-1.85,2.5-3.13,3.83-4.64C60.18,69.69,61.51,66.82,63,67.24ZM48.58,65a2.4,2.4,0,0,1,.28-.64l-.06.15a7.4,7.4,0,0,1,2-2.47c1.15-1.12,3.35-4.86,5.5-4.16,1.07.34,1.61,1.55,2.11,2.39a12.24,12.24,0,0,1,2.09,5.83c0,1.36-.91,2.37-1.81,3.36-1.09,1.21-2.07,2.5-3.14,3.71-.7.56-1.57,1.11-2.43.45a9,9,0,0,1-1.83-2.39C50.3,69.67,48.05,67.08,48.58,65Zm-2,1.79A6.59,6.59,0,0,1,47.67,68c1.09,1.62,2.07,3.31,3,5a23.32,23.32,0,0,1,.74,2.69A3.44,3.44,0,0,1,51,78.12,13.45,13.45,0,0,1,48.47,81a2.63,2.63,0,0,1-1.59.54,2.51,2.51,0,0,1-1.57-.86C44.14,78.79,43,77,41.78,75.1c-.47-1.15-1.23-2.63-.72-3.85,1.33-1.55,2.65-3.12,4-4.64A1.57,1.57,0,0,1,46.53,66.82ZM34.69,61.76a8.34,8.34,0,0,1,2.64-2.82c.71-.56,2.11-2.21,3.17-2,1.38.24,1.79,1.71,2.1,2.74.48,1.6,1.7,3.07,1.64,4.79a5.84,5.84,0,0,1-1.69,3.31c-.75.89-2.35,2.86-4,2.32-.75-1-1.52-2-2.27-3a11.77,11.77,0,0,1-1.85-4.32A3.8,3.8,0,0,1,34.69,61.76Zm-6.5,5.11A22.63,22.63,0,0,1,26.05,64a11.06,11.06,0,0,1-1.6-3.32,14.79,14.79,0,0,1,.63-2.28,12.45,12.45,0,0,1,1-2.31c.86-.44,1.61.61,2.07,1.11A23.71,23.71,0,0,1,30,59.61,4.19,4.19,0,0,1,31,62,4.68,4.68,0,0,1,30,64.26C29.72,64.62,28.83,66.65,28.19,66.87ZM33.63,79.1c-.17.35-.32.7-.46,1.05L33,80.4c-1.45-3.37-3-6.69-4.53-10l.08-.2c1.61,2.52,3.16,5.06,4.79,7.57l.16.28A1.7,1.7,0,0,1,33.63,79.1Zm-2.4-7c-.39-.64-.8-1.28-1.22-1.92a5.15,5.15,0,0,1-.32-2.29,5.59,5.59,0,0,1,.82-2.16l.74-1.08c.67-.82,1.34-.5,1.92,0,.7,1.15,1.41,2.29,2.16,3.41s1.59,2.2,2.38,3.3A3.71,3.71,0,0,1,37,74.23c-.31.37-.6.73-.89,1.1a1.65,1.65,0,0,1-2.47.29C32.74,74.53,32.07,73.23,31.23,72.09ZM39,93.35a1.55,1.55,0,0,1-.55-.76c-.59-1.3-1.1-2.62-1.67-3.93-.71-1.65-1.44-3.3-2.31-4.89a7.22,7.22,0,0,1-.37-2.89c.34-.51.62-.61.85-.3,1.4,2.52,2.87,5,4.26,7.52a12.6,12.6,0,0,1,.92,3C40.19,91.92,39.65,93.75,39,93.35Zm4.89,12.13a6.23,6.23,0,0,1-1.61-2.67c-.43-1-.75-2.07-1.15-3.1a13,13,0,0,1-1-3.12,3.39,3.39,0,0,1,.4-2.17c.68-.89,1.47,0,1.93.69a21.92,21.92,0,0,1,1.53,2.65A18.3,18.3,0,0,1,45.21,101a7.18,7.18,0,0,1,.36,2.15c0,.76,0,2.49-1.22,2.6.11,0,.25.09.36.11A2,2,0,0,1,43.84,105.48Zm7.1,8.86a8.66,8.66,0,0,0-.77,2.3,5.91,5.91,0,0,1-1.24,2c-.69.62-1.18-.6-1.42-1a35.49,35.49,0,0,1-2.32-6c-.79-1.89-.86-4.21,1-5.68.89-.72,1.63.11,2.06.81a20.37,20.37,0,0,1,1.37,3,15.67,15.67,0,0,1,1.34,4.63Zm2.39-3.82c-.68.49-1.41-.23-1.81-.67-.68-1.42-1.33-2.85-2-4.28a6.82,6.82,0,0,1-.55-2.15,10.45,10.45,0,0,1,2.36-3.72,3.3,3.3,0,0,1,1.25-1.12c.67-.26,1.23.49,1.68.81q1.15,2.34,2.34,4.67a5.29,5.29,0,0,1-.35,2.36A16.53,16.53,0,0,1,55,108.5c-.25.36-.52.71-.8,1.06A5.58,5.58,0,0,1,53.33,110.52Zm8.89,5.54-.21.41c-.69,1-1.26,2.37-2.51,2.9-1.6.68-2.9-.82-3.72-1.81A11.5,11.5,0,0,1,54,113a7.58,7.58,0,0,1,.24-1.33l.4-.54a7.89,7.89,0,0,1,1.5-2.49c.39-.48,1-1.26,1.76-1.19s1.38,1,1.69,1.53a20.46,20.46,0,0,1,1.12,2.76c.43.78.87,1.55,1.32,2.32a4.71,4.71,0,0,1,.26,1.76C62.26,115.77,62.27,115.76,62.22,116.06Zm.6-3.66h0a6.27,6.27,0,0,1-.88-.74c-.71-1.22-1.4-2.45-2.06-3.69a4.12,4.12,0,0,1-.28-2.49,6.3,6.3,0,0,1,.52-1.23l.33-.57c.08-.15.3-.39.28-.56.93-1.25,1.92-2.47,2.91-3.69a2.23,2.23,0,0,1,.39-.09c1.13-.18,1.75.63,2.3,1.35.27.52.55,1,.83,1.43l.61,1.1a10,10,0,0,1,.65,2.3,2.9,2.9,0,0,1-.13,1,6.26,6.26,0,0,0-.38,1.13c-1.07,1.45-2.08,2.92-3.09,4.4C64.25,112.57,63.73,113.05,62.82,112.4ZM73,114.1a6.71,6.71,0,0,1-.55,1.43,8.31,8.31,0,0,1-1.26,2.27,4.2,4.2,0,0,1-1.85,1.52,1.75,1.75,0,0,1-1.81.12c0-.13-.16-.22-.25-.31a6,6,0,0,1-1.88-1.84,3.18,3.18,0,0,1-.56-2.52,7.32,7.32,0,0,1,1.41-2.5c.63-.87,1.27-1.73,1.93-2.59a3.08,3.08,0,0,1,.82-1l.06-.08.18-.07c1.06-.59,2,.72,2.49,1.4C72.58,111.17,73.36,112.61,73,114.1Zm2-3.17c-1.49,1.6-3-3.15-3.17-3.86a4.73,4.73,0,0,1-.19-1,4.11,4.11,0,0,1,1.11-2.48c1.59-1.93,3.21-3.84,4.76-5.79,1.31-.77,2,.86,2.4,1.69a6.69,6.69,0,0,1,.63,4.11,7.64,7.64,0,0,1-2,3.28c-1,1.11-1.94,2.22-2.83,3.38l-.69.72C73.55,112.49,74.81,111.12,75,110.93Zm5.58-.25c-.37,1.25-.65,2.51-1,3.77s-.66,2.38-.93,3.57a1.32,1.32,0,0,1-1.84-.15,11.59,11.59,0,0,1-1.23-2.4,6.69,6.69,0,0,1-.07-2.71c1.84-2.64,3.91-5.13,5.85-7.72.56-.31.57.73.63,1C81.51,107.59,81,109.13,80.57,110.68Zm4-11.84c-.41.66-1.07,1.69-2.12,1.47a7.12,7.12,0,0,1-1.18-7.21,20.64,20.64,0,0,1,2.2-3.76c.63-.91,1.24-2.21,2.38-2.71a1.57,1.57,0,0,1,2,.82c1.09,1.74.13,3.24-.62,4.92C86.33,94.5,85.45,96.66,84.61,98.84Zm5-11.74c-.45.1-.8-1.25-.88-1.5a4.19,4.19,0,0,1,0-2.25c2.48-3.07,4.9-6.15,7.29-9.27a.42.42,0,0,0,.11.15C93.75,78.44,91.55,82.72,89.63,87.1Zm11-20.87c-.27.43-.11.17,0,0-.52.81-1.32,1.47-1.88,2.26-.36.53-.7,1.28-1.42,1.56C96,70.61,95.3,68.29,95,67.62c-.59-1.32-1.41-2.7-1.27-4.17s1.14-2.59,1.74-3.85c.43-.91,2.34-5.42,3.78-3a16.3,16.3,0,0,1,2.16,6.19A5.72,5.72,0,0,1,100.66,66.23Z" style="fill:#c7c8c8"/><path d="M107.29,49.05l.23.06Z" style="fill:#dedede"/><path d="M107.19,49l.1,0Z" style="fill:#dedede"/><path d="M107.15,49h0Z" style="fill:#dedede"/><path d="M107.52,49.11Z" style="fill:#dedede"/><path d="M106.84,48.94l-.18,0Z" style="fill:#dedede"/><path d="M25.24,68.22l.44.83c.28.54.68,1.3,1.12,2.23s1,2,1.5,3.18,1,2.44,1.58,3.71c.26.63.52,1.27.78,1.89.12.32.25.63.38.93s.22.62.33.92c.44,1.22.81,2.36,1.15,3.33s.59,1.79.78,2.36l.28.9-.37-.87c-.22-.56-.56-1.35-.93-2.3s-.82-2.07-1.27-3.27c-.12-.3-.23-.61-.35-.92l-.39-.92c-.27-.62-.54-1.25-.8-1.88l-1.53-3.73c-.52-1.17-1-2.28-1.37-3.23Z" style="fill:#fff"/></svg>
