<svg class="S" xmlns="http://www.w3.org/2000/svg" viewBox="0 0 126 126"><g id="Layer_4" data-name="Layer 4"><path d="M97.16,100.1l19.61,24.61s2.57,2.28,4.13.77-.77-4.15-.77-4.15L98.91,97.93Z" style="fill:#576266"/><path d="M120.13,121.3,103.52,103l14.61,17.43s2.33,2.64.77,4.16a1.89,1.89,0,0,1-1.6.5c.84.58,2.47,1.44,3.6.35C122.46,123.94,120.13,121.3,120.13,121.3Z" style="fill:#1a1a1a"/><path d="M99.68,103.25s1.53-.38,1.72-1.07l.82,1.07s-1.07,1.52-1.72,1A3.51,3.51,0,0,0,99.68,103.25Z" style="fill:#1a1a1a"/><path d="M97.6,100.37s2.14-.52,2.33-1.55l1.15,1.73s-1.37,2.37-2.3,1.49A5.75,5.75,0,0,0,97.6,100.37Z" style="fill:#1a1a1a"/><path d="M101.31,105.4s1.53-.37,1.72-1.07l.81,1.07s-1.07,1.52-1.71,1A3.51,3.51,0,0,0,101.31,105.4Z" style="fill:#1a1a1a"/><path d="M102.93,107.55s1.53-.37,1.72-1.07l.82,1.07s-1.07,1.52-1.71,1A3.3,3.3,0,0,0,102.93,107.55Z" style="fill:#1a1a1a"/><path d="M104.86,109.65s1.53-.38,1.72-1.07l.81,1.07s-1.07,1.52-1.71,1A3.38,3.38,0,0,0,104.86,109.65Z" style="fill:#1a1a1a"/><path d="M106.87,112s1.53-.37,1.72-1.07l.82,1.07s-1.07,1.52-1.72,1A3.24,3.24,0,0,0,106.87,112Z" style="fill:#1a1a1a"/><polygon points="13.99 3.24 91.68 94.52 94.62 92.13 84.9 80.92 84.41 80.99 83.49 79.29 14.66 1.88 13.99 3.24" style="fill:#91a2aa"/><polygon points="13.99 3.24 91.68 94.52 93.29 93.3 83.21 81.98 14.48 2.53 13.99 3.24" style="fill:#d1e1e8"/><path d="M12.6.39h0a1.43,1.43,0,0,1,2,.16l2.18,2.56a1.42,1.42,0,0,1-.15,2h0a1.43,1.43,0,0,1-2-.16L12.45,2.39A1.42,1.42,0,0,1,12.6.39Z" style="fill:#5a6569"/><path d="M16.17,4.79,13.78,2a1.29,1.29,0,0,1,.14-1.8l.13-.11a1.28,1.28,0,0,0-1.34.18L12.5.48a1.27,1.27,0,0,0-.14,1.79l2.37,2.78a1.28,1.28,0,0,0,1.8.13l.09-.07A1.12,1.12,0,0,1,16.17,4.79Z" style="fill:#838e91"/><path d="M89.21,110.17l21.4-18.4s-7.38-10-18.75-.2S89.21,110.17,89.21,110.17Z" style="fill:#576266"/><path d="M91.89,91.57c-5.28,4.53-6.24,8.85-5.75,12.19,1.88-3.67,6.8-10.7,15.24-9.82a6.52,6.52,0,0,0,.54,5.35l8.73-7.49S103.27,81.79,91.89,91.57Z" style="fill:#737d7f"/><path d="M102.44,96.67a5.42,5.42,0,0,0-.26.6c-.22.63-1,1.86-.94,2.52a6.77,6.77,0,0,0,1-.72c2.63-2.62,5.64-4.89,8.45-7.31a16.58,16.58,0,0,0-2.14-2.05,14.06,14.06,0,0,0-5.91-2.44,36,36,0,0,0,3.7,1.65c.64.29,1.38.65,1.5,1.35a2,2,0,0,1-.78,1.57C105.43,93.41,103.4,94.71,102.44,96.67Z" style="fill:#1a1a1a"/><path d="M92.86,92.29a16.75,16.75,0,0,1,8.66-3,2.52,2.52,0,0,0,.82-.14.76.76,0,0,0,.49-.63c0-.37-.35-.63-.68-.79-1.65-.81-3.43-.18-5,.49a19.48,19.48,0,0,0-5.22,3.33c-11.37,9.77-2.69,18.6-2.69,18.6l.22-.18a23.2,23.2,0,0,1-2-3.76,10.79,10.79,0,0,1-.19-6.09A13.9,13.9,0,0,1,92.86,92.29Z" style="fill:#d1e1e8;opacity:0.5;isolation:isolate"/><path d="M94,89.89l-4.36,3.62a.92.92,0,0,1-1.27-.08h0a.88.88,0,0,1,.09-1.23h0l4.35-3.63a.93.93,0,0,1,1.28.08h0a.88.88,0,0,1-.09,1.23Z" style="fill:#576266"/><path d="M93.08,89.51,91.34,91a.36.36,0,0,1-.51,0h0a.35.35,0,0,1,0-.49h0L92.56,89a.37.37,0,0,1,.52,0h0a.34.34,0,0,1,0,.48Z" style="fill:#d1e1e8"/><path d="M116.37,119.79a6.2,6.2,0,0,0,.55.6c.63.59,2.07,2.09,1.15,2.91s-1.46-.35-1.78-1.07c-.2-.42-.33-.88-.5-1.3a19.52,19.52,0,0,0-1.07-1.89.86.86,0,0,1-.12-.35.3.3,0,0,1,.16-.31.42.42,0,0,1,.41.11A6.72,6.72,0,0,1,116.37,119.79Z" style="fill:#d1e1e8"/><path d="M94.13,88.64a1,1,0,0,0-.36-.23.86.86,0,0,1-.08,1.22l0,0-4.36,3.63a.93.93,0,0,1-.92.15h0a.92.92,0,0,0,1.27.08L94,89.89a.87.87,0,0,0,.11-1.23Z" style="fill:#1a1a1a"/><polygon points="57.56 49.61 75.26 70.57 64.37 58.17 57.56 49.61" style="fill:#576266"/><polygon points="44.1 35.06 52.78 45.42 47.36 39.36 44.1 35.06" style="fill:#576266"/><polygon points="33.67 23.82 47.44 40.07 39.78 31.57 33.67 23.82" style="fill:#576266"/><polygon points="80.94 79.29 88.09 88.44 90.06 89.67 80.94 79.29" style="fill:#576266"/><path d="M107.5,110.12a.45.45,0,0,1,.43.47h0a.77.77,0,0,1-.39.58c-.24.15-1.33.29-1.37-.2A4.44,4.44,0,0,1,107.5,110.12Z" style="fill:#d1e1e8"/><path d="M108.87,114.74s1.53-.37,1.72-1.07l.82,1.07s-1.07,1.52-1.72,1A3.13,3.13,0,0,0,108.87,114.74Z" style="fill:#1a1a1a"/><path d="M109.53,112.82a.45.45,0,0,1,.43.46h0a.72.72,0,0,1-.38.57c-.25.15-1.34.29-1.37-.19A3.94,3.94,0,0,1,109.53,112.82Z" style="fill:#d1e1e8"/><path d="M105.87,108a.45.45,0,0,1,.43.47h0a.76.76,0,0,1-.38.58c-.25.15-1.34.29-1.37-.2A4.27,4.27,0,0,1,105.87,108Z" style="fill:#d1e1e8"/><path d="M103.9,105.56a.45.45,0,0,1,.42.47h0a.74.74,0,0,1-.38.58c-.25.15-1.34.29-1.37-.19A4.06,4.06,0,0,1,103.9,105.56Z" style="fill:#d1e1e8"/><path d="M28.84,100.1,9.23,124.71s-2.57,2.28-4.13.77.77-4.15.77-4.15l21.22-23.4Z" style="fill:#576266"/><path d="M5.87,121.3,22.48,103,7.87,120.44s-2.33,2.64-.77,4.16a1.89,1.89,0,0,0,1.6.5c-.84.58-2.47,1.44-3.6.35C3.54,123.94,5.87,121.3,5.87,121.3Z" style="fill:#1a1a1a"/><path d="M26.32,103.25s-1.53-.38-1.72-1.07l-.82,1.07s1.07,1.52,1.72,1A3.51,3.51,0,0,1,26.32,103.25Z" style="fill:#1a1a1a"/><path d="M28.4,100.37s-2.14-.52-2.33-1.55l-1.16,1.73s1.37,2.37,2.3,1.49A5.6,5.6,0,0,1,28.4,100.37Z" style="fill:#1a1a1a"/><path d="M24.69,105.4S23.16,105,23,104.33l-.81,1.07s1.07,1.52,1.71,1A3.51,3.51,0,0,1,24.69,105.4Z" style="fill:#1a1a1a"/><path d="M23.07,107.55s-1.53-.37-1.72-1.07l-.82,1.07s1.07,1.52,1.71,1A3.3,3.3,0,0,1,23.07,107.55Z" style="fill:#1a1a1a"/><path d="M21.14,109.65s-1.53-.38-1.72-1.07l-.81,1.07s1.07,1.52,1.71,1A3.38,3.38,0,0,1,21.14,109.65Z" style="fill:#1a1a1a"/><path d="M19.13,112s-1.53-.37-1.72-1.07L16.59,112s1.07,1.52,1.72,1A3.24,3.24,0,0,1,19.13,112Z" style="fill:#1a1a1a"/><polygon points="112.01 3.24 34.32 94.52 31.38 92.13 41.1 80.92 41.59 80.99 42.51 79.29 111.33 1.88 112.01 3.24" style="fill:#91a2aa"/><polygon points="112.01 3.24 34.32 94.52 32.71 93.3 42.79 81.98 111.52 2.53 112.01 3.24" style="fill:#d1e1e8"/><path d="M109.36,5.1h0a1.42,1.42,0,0,1-.15-2L111.39.55a1.41,1.41,0,0,1,2-.16h0a1.41,1.41,0,0,1,.16,2l-2.19,2.55A1.41,1.41,0,0,1,109.36,5.1Z" style="fill:#5a6569"/><path d="M109.83,4.79,112.22,2a1.29,1.29,0,0,0-.14-1.8L112,.11a1.28,1.28,0,0,1,1.35.2l.21.18a1.27,1.27,0,0,1,.14,1.79l-2.37,2.78a1.28,1.28,0,0,1-1.8.13l-.08-.07A1.37,1.37,0,0,0,109.83,4.79Z" style="fill:#838e91"/><path d="M36.79,110.17l-21.4-18.4s7.38-10,18.75-.2S36.79,110.17,36.79,110.17Z" style="fill:#576266"/><path d="M34.11,91.57c5.28,4.53,6.24,8.85,5.75,12.19-1.88-3.67-6.8-10.7-15.24-9.82a6.52,6.52,0,0,1-.54,5.35L15.35,91.8S22.73,81.79,34.11,91.57Z" style="fill:#737d7f"/><path d="M23.56,96.67a5.42,5.42,0,0,1,.26.6c.22.63,1,1.86.94,2.52a6.77,6.77,0,0,1-1-.72c-2.63-2.62-5.64-4.89-8.45-7.31a16.58,16.58,0,0,1,2.14-2.05,14.06,14.06,0,0,1,5.91-2.44,36,36,0,0,1-3.7,1.65c-.64.29-1.38.65-1.5,1.35A2,2,0,0,0,19,91.84C20.57,93.41,22.6,94.71,23.56,96.67Z" style="fill:#1a1a1a"/><path d="M33.14,92.29a16.75,16.75,0,0,0-8.66-3,2.52,2.52,0,0,1-.82-.14.76.76,0,0,1-.49-.63c0-.37.35-.63.68-.79,1.65-.81,3.43-.18,5,.49a19.48,19.48,0,0,1,5.22,3.33c11.37,9.77,2.69,18.6,2.69,18.6l-.22-.18a23.2,23.2,0,0,0,2-3.76,10.79,10.79,0,0,0,.19-6.09A13.9,13.9,0,0,0,33.14,92.29Z" style="fill:#d1e1e8;opacity:0.5;isolation:isolate"/><path d="M32,89.89l4.36,3.62a.92.92,0,0,0,1.27-.08h0a.88.88,0,0,0-.09-1.23h0l-4.34-3.63a.93.93,0,0,0-1.28.08h0A.88.88,0,0,0,32,89.87Z" style="fill:#576266"/><path d="M32.92,89.51,34.66,91a.36.36,0,0,0,.51,0h0a.35.35,0,0,0,0-.49h0L33.44,89a.37.37,0,0,0-.52,0h0a.34.34,0,0,0,0,.48Z" style="fill:#d1e1e8"/><path d="M9.63,119.79a6.2,6.2,0,0,1-.55.6c-.63.59-2.07,2.09-1.15,2.91s1.46-.35,1.78-1.07c.2-.42.33-.88.5-1.3A19.52,19.52,0,0,1,11.28,119a.86.86,0,0,0,.12-.35.3.3,0,0,0-.16-.31.42.42,0,0,0-.41.11A6.72,6.72,0,0,0,9.63,119.79Z" style="fill:#d1e1e8"/><path d="M31.87,88.64a1,1,0,0,1,.36-.23.86.86,0,0,0,.08,1.22l0,0,4.36,3.63a.93.93,0,0,0,.92.15h0a.92.92,0,0,1-1.27.08L32,89.89a.87.87,0,0,1-.11-1.23Z" style="fill:#1a1a1a"/><polygon points="68.44 49.61 50.74 70.57 61.63 58.17 68.44 49.61" style="fill:#576266"/><polygon points="81.9 35.06 73.22 45.42 78.63 39.36 81.9 35.06" style="fill:#576266"/><polygon points="92.33 23.82 78.56 40.07 86.22 31.57 92.33 23.82" style="fill:#576266"/><polygon points="45.06 79.29 37.91 88.44 35.94 89.67 45.06 79.29" style="fill:#576266"/><path d="M18.5,110.12a.45.45,0,0,0-.43.47h0a.77.77,0,0,0,.39.58c.24.15,1.33.29,1.37-.2A4.44,4.44,0,0,0,18.5,110.12Z" style="fill:#d1e1e8"/><path d="M17.13,114.74s-1.53-.37-1.72-1.07l-.82,1.07s1.07,1.52,1.72,1A3.13,3.13,0,0,1,17.13,114.74Z" style="fill:#1a1a1a"/><path d="M16.47,112.82a.45.45,0,0,0-.43.46h0a.72.72,0,0,0,.38.57c.25.15,1.34.29,1.37-.19A3.94,3.94,0,0,0,16.47,112.82Z" style="fill:#d1e1e8"/><path d="M20.13,108a.45.45,0,0,0-.43.47h0a.76.76,0,0,0,.38.58c.25.15,1.34.29,1.37-.2A4.27,4.27,0,0,0,20.13,108Z" style="fill:#d1e1e8"/><path d="M22.1,105.56a.45.45,0,0,0-.42.47h0a.74.74,0,0,0,.38.58c.25.15,1.34.29,1.37-.19A4.06,4.06,0,0,0,22.1,105.56Z" style="fill:#d1e1e8"/><path d="M95.56,59.24C90.4,86,77.86,106.68,62.72,106.86c-15.87.18-27.5-21.12-32.84-47.62C24.6,33,34.81,11.81,62.72,11.63,90.27,11.4,100.45,33.7,95.56,59.24Z" style="fill:#5b666a"/><path d="M94,58C90,81.69,73.12,97.9,62.72,97.73,51.6,97.55,35.91,81.86,31.53,58.48s4.38-45.08,31-45.24C88.83,13.11,98.31,33,94,58Z" style="fill:#91a2aa"/><path d="M33.29,72.67C39.46,92.58,49.66,107,62.73,106.86a19.26,19.26,0,0,0,11.17-4C44.49,109.05,34.11,73.84,33.29,72.67Z" style="fill:#737d7f"/><path d="M59.3,11.76c-12.08.88-20.48,6-25.41,13.86C42.67,15.27,50,13.46,59.3,11.76Z" style="fill:#d1e1e8"/><path d="M30.78,58.34c1.35,12,4.82,20.19,9.56,24.75C33.93,74.8,32.39,67.59,30.78,58.34Z" style="fill:#d1e1e8"/><path d="M64.55,90.81c-11.13-.23-26.81-15.88-31.19-39.23a54.89,54.89,0,0,1-.42-19.13c-2.79,7.57-3.21,16.69-1.4,26.06C35.92,81.86,51.6,97.56,62.73,97.74c10.12.16,26.39-15.17,31-37.85C87.61,78.69,73.59,90.94,64.55,90.81Z" style="fill:#737d7f"/><path d="M62.73,100.65c-8.35.08-15.64-4.82-21.6-12.84,5.76,9.78,13.06,15.89,21.59,15.79,8.26-.09,15.75-6.3,21.68-16.26C78.28,95.55,70.85,100.56,62.73,100.65Z" style="fill:#d1e1e8;opacity:0.5;isolation:isolate"/><path d="M89.16,55.07C86,73.77,72.63,86.56,64.46,86.42c-8.78-.14-21.15-12.51-24.61-30.92S43.31,20,64.32,19.83C85,19.71,92.5,35.37,89.16,55.07Z" style="fill:#d1e1e8"/><path d="M62.55,13.27c-26.63.16-35.38,22-31,45.24s20.08,39,31.2,39.22C73.12,97.9,90,81.68,94.06,58,98.31,33,88.83,13.11,62.55,13.27ZM92.26,57.65A58.28,58.28,0,0,1,79.49,85.47C74,91.93,67.63,95.93,62.88,95.93h-.13c-5.1-.11-11.34-4-16.76-10.3A59.64,59.64,0,0,1,33.33,58.17c-2.54-13.51-.34-25.68,6-33.37,5.27-6.42,13.08-9.63,23.23-9.72h.3c10.26,0,18.12,3.14,23.34,9.32C92.48,31.86,94.64,43.66,92.26,57.65Z" style="fill:#91a2aa"/><path d="M82.26,54.52C80,68,70.36,77.19,64.47,77.1c-6.32-.11-15.22-9-17.7-22.26s2.48-25.58,17.6-25.68C79.27,29.08,84.65,40.34,82.26,54.52Z" style="fill:#fff"/><path d="M62.75,95.93c-5.1-.11-11.34-4-16.76-10.3A59.64,59.64,0,0,1,33.33,58.17c-2.54-13.51-.34-25.68,6-33.37,5.27-6.42,13.08-9.63,23.23-9.72h.3c10.26,0,18.12,3.14,23.34,9.32,6.28,7.49,8.44,19.26,6.06,33.24A58.28,58.28,0,0,1,79.49,85.46C74,91.93,67.63,95.93,62.88,95.93Z" style="fill:none;stroke:#1a1a1a;stroke-miterlimit:10;stroke-width:2.13999124002043px"/><path d="M34.82,64.39c.43,1.49.92,3,1.45,4.38V68h4v4H37.59c.21.49.43,1,.66,1.45h2v4c.48.83,1,1.65,1.46,2.44v-.92h4v4H43.87l1.07,1.46h.77v.94l.22.27c.41.47.82.94,1.23,1.39V84.42h4.07v4H48.6c.52.51,1,1,1.57,1.46h1.07v.89a16.93,16.93,0,0,0,1.46,1.07v-2h4v4h-.84a19.19,19.19,0,0,0,3.52,1.45h2.79v.58h1.45v-.51h2.58A19.06,19.06,0,0,0,69.59,94h-.45V89.89h4v1.69c.49-.38,1-.76,1.46-1.17v-.52h.61c.53-.47,1-1,1.57-1.46H74.65v-4h4v2.14l.89-1,.57-.68v-.41h.34c.39-.48.77-1,1.14-1.45H80.06V78.94h4v.32c.5-.8,1-1.64,1.45-2.47V73.46h1.73L87.92,72H85.53V68h4c.54-1.52,1.07-3.07,1.46-4.63v-.83h.22c.12-.49.24-1,.35-1.46H91v-4h1.36c.08-.5.15-1,.23-1.46H91v-4h2c0-.49.08-1,.1-1.46H91v-4h2.14V44.66H91v-4h1.8c-.07-.49-.14-1-.23-1.45H91v-4h.69c-.14-.5-.29-1-.44-1.46H91V33a29.87,29.87,0,0,0-2.14-4.76H85.54v-4H86a23.13,23.13,0,0,0-2-2v.56h-4V19.23A26.52,26.52,0,0,0,76,17.29H74.59v-.54c-.48-.16-1-.3-1.46-.43v.93h-4V15.53l-1.46-.18v1.94h-4V15.15H62.18v2.14h-4V15.35l-1.45.18v1.76h-4v-.92c-.5.13-1,.28-1.46.43v.49H49.88a26.49,26.49,0,0,0-4.12,2v3.47h-4v-.49a25.31,25.31,0,0,0-1.9,2h.44v4H37a29.57,29.57,0,0,0-2.14,4.47v1h-.37c-.17.48-.32,1-.47,1.46h.85v4H33c-.09.48-.16,1-.24,1.46h2v4H32.38a14.08,14.08,0,0,1-.07,1.45h2.51v4H32.37a11.76,11.76,0,0,0,.09,1.45h2.37v4H32.9c.07.49.15,1,.23,1.46h1.69v4h-.88c.12.49.23,1,.36,1.45h.52Zm50.71-34.7h4v4h-4Zm0,5.46h4v4.07h-4Zm0,5.47h4v4h-4Zm0,5.47h4v4h-4Zm0,5.47h4v4h-4Zm0,5.47h4v4h-4Zm0,5.46h4v4h-4ZM80.06,24.24h4v4h-4Zm0,5.47h4v4h-4Zm0,5.47h4v4h-4Zm0,5.46h4v4h-4Zm0,5.47h4v4h-4Zm0,5.47h4v4h-4Zm0,5.47h4v4h-4Zm0,5.46h4v4h-4Zm0,5.47h4v4h-4Zm0,5.47h4v4h-4ZM74.59,18.74h4v4h-4Zm0,5.47h4v4h-4Zm0,5.47h4v4h-4Zm0,5.46h4v4.08h-4Zm0,5.47h4v4h-4Zm0,5.47h4v4h-4Zm0,5.47h4v4h-4Zm0,5.46h4v4h-4Zm0,5.47h4v4h-4Zm0,5.47h4v4h-4Zm0,5.47h4v4h-4Zm0,5.47h4v4h-4ZM69.11,18.74h4v4h-4Zm0,5.47h4v4h-4Zm0,5.47h4v4h-4Zm0,5.46h4v4.08h-4Zm0,5.47h4v4h-4Zm0,5.47h4v4h-4Zm0,5.47h4v4h-4Zm0,5.46h4v4h-4Zm0,5.47h4v4h-4Zm0,5.47h4v4h-4Zm0,5.47h4v4h-4Zm0,5.47h4v4h-4Zm0,5.46h4v4.09h-4ZM63.64,18.74h4v4h-4Zm0,5.47h4v4h-4Zm0,5.47h4v4h-4Zm0,5.46h4v4.08h-4Zm0,5.47h4v4h-4Zm0,5.47h4v4h-4Zm0,5.47h4v4h-4Zm0,5.46h4v4h-4Zm0,5.47h4v4h-4Zm0,5.47h4v4h-4Zm0,5.47h4v4h-4Zm0,5.47h4v4h-4Zm0,5.46h4v4.09h-4Zm0,5.47h4V93.9h-4ZM58.16,18.74h4v4h-4Zm0,5.47h4v4h-4Zm0,5.47h4v4h-4Zm0,5.46h4v4.08h-4Zm0,5.47h4v4h-4Zm0,5.47h4v4h-4Zm0,5.47h4v4h-4Zm0,5.46h4v4h-4Zm0,5.47h4v4h-4Zm0,5.47h4v4h-4Zm0,5.47h4v4h-4Zm0,5.47h4v4h-4Zm0,5.46h4v4.09h-4Zm0,5.47h4V93.9h-4ZM52.7,18.74h4v4h-4Zm0,5.47h4v4h-4Zm0,5.47h4v4h-4Zm0,5.46h4v4.08h-4Zm0,5.47h4v4h-4Zm0,5.47h4v4h-4Zm0,5.47h4v4h-4Zm0,5.46h4v4h-4Zm0,5.47h4v4h-4Zm0,5.47h4v4h-4Zm0,5.47h4v4h-4Zm0,5.47h4v4h-4Zm0,5.46h4v4.09h-4ZM47.22,18.74h4v4h-4Zm0,5.47h4v4h-4Zm0,5.47h4v4h-4Zm0,5.46h4v4.08h-4Zm0,5.47h4v4h-4Zm0,5.47h4v4h-4Zm0,5.47h4v4h-4Zm0,5.46h4v4h-4Zm0,5.47h4v4h-4Zm0,5.47h4v4h-4Zm0,5.47h4v4h-4Zm0,5.47h4v4h-4ZM41.75,24.24h4v4h-4Zm0,5.47h4v4h-4Zm0,5.47h4v4h-4Zm0,5.46h4v4h-4Zm0,5.47h4v4h-4Zm0,5.47h4v4h-4Zm0,5.47h4v4h-4Zm0,5.46h4v4h-4Zm0,5.47h4v4h-4Zm0,5.47h4v4h-4Zm-5.5-43.76h4v4h-4Zm0,5.46h4v4.07h-4Zm0,5.47h4v4h-4Zm0,5.47h4v4h-4Zm0,5.47h4v4h-4Zm0,5.47h4v4h-4Zm0,5.46h4v4h-4Z" style="fill:#1a1a1a"/></g></svg>
