<svg class="S" xmlns="http://www.w3.org/2000/svg" viewBox="0 0 126 126"><defs/><linearGradient id="a" gradientUnits="userSpaceOnUse" x1="988.357" y1="246.589" x2="997.047" y2="237.379" gradientTransform="matrix(.9978 .0661 .0661 -.9978 -943.036 206.133)"><stop offset=".01" stop-color="#1f2630"/><stop offset="1" stop-color="#1a1a1a"/></linearGradient><path d="M71.1 29.4c-.3 4.9-4.6 8.5-9.4 8.2s-8.5-4.6-8.2-9.4c.3-4.9 4.5-8.5 9.4-8.2 4.8.3 8.5 4.5 8.2 9.4z" fill="url(#a)"/><path d="M71.1 29.4c-.3 4.9-4.5 8.6-9.4 8.2-3.8-.2-6.9-2.8-7.9-6.5.9.4 1.9.6 2.9.7 4.9.3 9-3.4 9.4-8.2.1-1 0-2-.3-3 3.4 1.6 5.5 5.1 5.3 8.8z" opacity=".2" fill="#878787"/><path d="M71.1 29.4c-.3 4.9-4.5 8.6-9.4 8.2-3-.2-5.6-1.9-7.1-4.5 1.4 1 3 1.6 4.7 1.8 4.9.3 9.1-3.3 9.4-8.2.1-1.7-.3-3.4-1.1-4.9 2.4 1.8 3.7 4.6 3.5 7.6z" opacity=".2" fill="#878787"/><path d="M59.9 26.1c0 .4.3.7.6.7h.2c.3-.1.5-.3.5-.6s-.2-.6-.4-.7h-.2c-.3 0-.6.2-.7.6z" fill="#f59f2d"/><path d="M60.3 26.1c0 .3.1.6.4.7.3-.1.5-.3.5-.6s-.2-.6-.4-.7c-.2.1-.4.3-.5.6z" fill="#d68b27"/><path d="M58.8 23.4c0 .4.3.7.6.7h.2c.4-.1.6-.4.5-.8 0-.2-.2-.4-.4-.5h-.2c-.3 0-.6.2-.7.6z" fill="#f59f2d"/><path d="M59.2 23.4c0 .3.2.6.4.7.4-.1.6-.4.5-.8 0-.2-.2-.4-.4-.5-.3.1-.5.3-.5.6z" fill="#d68b27"/><g><linearGradient id="b" gradientUnits="userSpaceOnUse" x1="-437.706" y1="180.57" x2="-440.766" y2="242" gradientTransform="rotate(-180 -198.565 125.575)"><stop offset="0" stop-color="#577b04"/><stop offset="1" stop-color="#205703"/></linearGradient><path d="M14.6 57c.2.2.4.5.6.7l.3.3c.5.6 1.1 1.1 1.6 1.7l.3.3c.6.5 1.1 1.1 1.7 1.6l.3.3 1.8 1.5.3.3c.6.5 1.3 1 1.9 1.4l.3.2c.6.5 1.3.9 2 1.4l.2.2.1.1 1.1.7 1 .6.4.2 2.1 1.2.4.2 1.8 1c.1.1.3.1.4.2l.4.2.2.1c.7.3 1.4.7 2.1 1 .1.1.3.1.4.2l1.8.8.4.2.8.3c.5.2 1.1.4 1.6.6l.4.2c.7.2 1.3.5 2 .7h.1c.1.1.2.1.4.1l.4.1c.8.3 1.7.5 2.5.7.4.1.8.2 1.1.3.2.1.4.1.7.1.5.1 1.1.2 1.6.3l.8.4.3.2c.3.1.6.3 1 .5l.4.2.1.1 1 .5c1 .5 2.2 1.2 3.4 1.9.5.3 1 .6 1.5.8l.7.4 1.2.8.7.4c.4.3.9.6 1.3.9s.9.7 1.3 1l.4.4.3.3c.2.1.3.3.4.4l.1-.2c-.2.8.1 1.6.7 2.2L78 102.4l.5.6c-.1.5-.1 1.1.2 1.5.1.2.2.3.3.4v.1l.9 1 4.8-4.2-.9-1-.1-.1c-.1-.1-.2-.2-.4-.3-.4-.3-1-.4-1.5-.4l-.1-.1L69 85.3l-.2-.2V85l-.2-.1-.1-.1c-.1 0-.1-.1-.2-.1l-.3-.1h-.1l-.3-.1H67.3h-.5l-.1-.1c-1.2-1.5-2.2-3.2-3-5-.2-.4-.4-.8-.6-1.3-.9-2.1-1.7-4.2-2.3-5.9-.1-.3-.2-.7-.3-1-.5-1.6-.8-2.6-.8-2.6V67v-.7c-.1-1.2-.3-2.4-.5-3.7L59 62c0-.1 0-.2-.1-.4s0-.1 0-.1c-.1-.7-.3-1.4-.4-2 0-.1-.1-.3-.1-.4-.1-.6-.3-1.1-.4-1.7-.1-.3-.1-.6-.2-.8 0-.1-.1-.3-.1-.4-.2-.6-.4-1.3-.6-1.9 0-.1-.1-.3-.1-.4-.2-.7-.5-1.5-.7-2.2l-.1-.2c0-.1-.1-.3-.1-.4 0-.1-.1-.3-.2-.4-.2-.6-.5-1.3-.7-1.9l-.2-.5c-.3-.8-.6-1.5-1-2.3l-.2-.4c-.2-.4-.3-.7-.5-1.1s-.3-.8-.5-1.1c0-.1-.1-.1-.1-.2V43c-.3-.7-.7-1.4-1.1-2.1-.1-.1-.1-.2-.2-.4l-1.2-2.1c-.1-.1-.1-.2-.2-.3-.4-.7-.8-1.3-1.3-2-.1-.1-.1-.2-.2-.3-.4-.7-.9-1.3-1.3-1.9-.1-.1-.1-.2-.2-.3-.5-.6-.9-1.3-1.4-1.9l-.3-.3c-.2-.3-.4-.5-.6-.7s-.6-.7-.9-1l-.3-.3c-.6-.6-1.1-1.1-1.7-1.6l-.3-.3-1.8-1.5-.3-.3c-.6-.5-1.3-.9-2-1.3l-.4-.2c-.5-.3-1-.5-1.5-.7-.3-.1-.5-.2-.8-.3-.1-.1-.3-.1-.4-.1-.9-.3-1.8-.6-2.7-.7-.2 0-.3 0-.5-.1H31l-.5-.1c-.9-.1-1.9-.1-2.9 0h-.5c-.8.1-1.6.2-2.4.5l-.4.1c-.7.2-1.4.5-2.1.8l-.4.2c-.7.3-1.3.6-1.9 1l-.4.2-1.8 1.2c-.1.1-.2.2-.3.2-.5.4-1.1.9-1.6 1.3l-.2.1-.1.1c-.5.5-1.1 1-1.5 1.5l-.3.3c-.5.5-1 1-1.4 1.6l-.3.3c-.5.6-.9 1.2-1.3 1.8-.1.1-.1.2-.2.3-.4.6-.7 1.3-1.1 2-.1.1-.1.3-.2.4-.3.8-.6 1.5-.8 2.3 0 .2-.1.3-.1.5-.1.9-.3 1.9-.3 2.8v1.1c0 .9.2 1.9.4 2.8 0 .1.1.3.1.4.1.3.1.6.2.9.1.5.3 1 .5 1.6 0 .1.1.3.2.4.3.8.6 1.5 1 2.2.1.1.1.2.2.4.4.7.8 1.3 1.2 2l.2.3c.4.6.9 1.2 1.4 1.9.1.1.2.2.2.3.4.3.7.7 1 1zm42.5 14c0 .2 0 .3-.1.5-.1.8-.4 1.6-.9 2.2l-.1.1s-.1.1-.2.1c-.7.4-1.5.6-2.3.6H53c-1 0-2-.1-3-.3l-.6-.1c-1.2-.2-2.3-.5-3.4-.8h-.1c-.1 0-.2 0-.3-.1l-.4-.1c-.5-.2-1.1-.3-1.6-.5l-.6-.1c-.6-.2-1.3-.5-2-.7l-.5-.2-.3-.1h-.1l-1-.4-.9-.4-.4-.2c-.8-.3-1.5-.7-2.3-1.1l-.4-.2-.5-.2c-.6-.3-1.1-.6-1.7-.9-.1-.1-.3-.1-.4-.2l-2.1-1.2-.4-.2-1-.6c-.4-.2-.7-.4-1.1-.7 0 0-.1 0-.1-.1-.1 0-.2-.1-.3-.2-.7-.4-1.4-.9-2-1.3l-.3-.2c-.7-.5-1.3-.9-1.9-1.4l-.3-.3c-.6-.5-1.3-1-1.8-1.5l-.2-.3c-.6-.5-1.1-1-1.6-1.5l-.1-.1-.3-.2c-.6-.5-1.1-1.1-1.6-1.7l-.3-.3c-.2-.2-.4-.5-.6-.7s-.6-.7-.9-1l-.3-.3c-.4-.6-.9-1.2-1.3-1.8l-.1-.1c-.1-.1-.1-.2-.2-.3-.4-.6-.8-1.3-1.2-2-.1-.1-.1-.3-.2-.4-.4-.7-.7-1.5-1-2.3-.1-.1-.1-.3-.1-.4-.1-.4-.3-.8-.3-1.2-.1-.3-.1-.5-.2-.8s-.1-.4-.1-.6c0-.2-.1-.3-.1-.5-.1-.8-.1-1.6-.1-2.4v-.5c0-.1.1-.5.1-.8s.1-.4.1-.6l.3-1.2c0-.2.1-.3.1-.4.3-.7.6-1.4 1-2.1.1-.1.1-.3.2-.4.4-.6.8-1.3 1.2-1.8l.3-.5c.4-.5.9-1.1 1.4-1.6l.3-.3 1.5-1.5.3-.3c.5-.5 1.1-.9 1.6-1.3l.3-.2 1.8-1.2.4-.2c.6-.4 1.3-.7 2-1 .1-.1.3-.1.4-.2.7-.2 1.4-.4 2.2-.6l.5-.1c.4-.1.9-.1 1.3-.2H29.5c.5 0 1 .1 1.4.2.4.1.7.1 1 .2.2 0 .3.1.5.1l.5.1.8.3c.4.2.8.3 1.2.5.1.1.3.1.4.2.7.4 1.4.8 2.1 1.3l.3.2c.6.4 1.2.9 1.9 1.5l.3.3.2.2c.5.5 1 .9 1.5 1.4l.3.3c.3.3.6.6.9 1l.6.7.3.3c.5.6 1 1.2 1.4 1.8.1.1.2.2.2.3l.1.1 1.2 1.8c.1.1.2.2.2.3.4.7.8 1.3 1.2 2 .1.1.1.2.2.3.4.7.8 1.4 1.1 2.1.1.1.1.2.2.4.4.7.7 1.4 1.1 2.2l.2.3.2.3.5 1.2.5 1c0 .1.1.3.2.4.3.8.6 1.5.9 2.3 0 .1.1.3.2.4.2.6.4 1.2.6 1.7.1.2.2.4.2.7s.1.2.1.3v.1c.3.8.5 1.6.8 2.4 0 .1.1.3.1.4.2.6.4 1.3.5 1.9 0 0 .1.3.1.4l.1.4c.2.8.3 1.5.5 2.2l.1.4.3 1.5.1.5v.5c.2 1.2.3 2.3.3 3.4v.6c.1 1.2.1 2.3 0 3.3zm3.9 8.1l.1.3c.1.2.2.4.3.7-.2-.2-.5-.3-.7-.5-1.6-1.1-3.3-1.9-5.1-2.7l-.4-.2h.2c.7-.1 1.4-.5 2-.9.1 0 .1-.1.2-.1s.1-.1.2-.1c.5-.5.9-1.2 1.2-1.9v-.1c0 .1 0 .2.1.3.4 1.8 1.1 3.5 1.9 5.2z" fill="url(#b)"/><linearGradient id="c" gradientUnits="userSpaceOnUse" x1="-3.975" y1="-134.282" x2="-1.786" y2="-159.642" gradientTransform="rotate(138.6 -9.454 -10.948)"><stop offset="0" stop-color="#292929"/><stop offset="1" stop-color="#1f1f1f"/></linearGradient><path d="M79 105l.9 1 4.8-4.2-.9-1-.1-.1c-.1-.1-.2-.2-.4-.3-.4-.3-1-.4-1.5-.4l-.5-.6L69 85.3c-.5-.6-1.3-1-2.1-.9l-.1-.1-2 1.7.1.2c-.2.8.1 1.6.7 2.2l12.4 14 .5.6c-.1.5-.1 1.1.2 1.5.1.2.2.3.3.5z" fill="url(#c)"/><path d="M79 105l.9 1 4.8-4.2-.9-1-.1-.1c-.1-.1-.2-.2-.4-.3l-4.7 4.1c.1.2.2.3.4.5z" opacity=".5" fill="#141414"/><path d="M79 105l.9 1 3.7-3.2c-2.8.7-2.9-1.3-2.9-1.3L66.1 84.8l-1.3 1.1.1.2c-.2.8.1 1.6.7 2.2L78 102.4l.5.6c-.1.5-.1 1.1.2 1.5.1.2.2.3.3.5z" opacity=".4"/><path d="M46.7 76.1c.4.1.8.2 1.1.3.2.1.4.1.7.1.5.1 1.1.2 1.6.3l.8.4.3.2c.3.1.6.3 1 .5l.4.2.1.1 1 .5c1 .5 2.2 1.2 3.4 1.9.5.3 1 .6 1.5.8l.7.4 1.2.8.7.4c.4.3.9.6 1.3.9s.9.7 1.3 1l.4.4.3.3c.2.1.3.3.4.4h.1c-.2.8.1 1.6.7 2.2L78 102.4l.5.6c-.1.5-.1 1.1.2 1.5.1.2.2.3.3.4v.1l.9 1 .8-.7-.9-1-.1-.1c-.1-.1-.2-.3-.3-.4-.2-.5-.3-1-.2-1.5l-.5-.6-12.3-14.2c-.6-.6-.8-1.4-.7-2.2l-.1-.2c-2.3-2.5-5-4.5-8.1-6l-.9-.5c-1.4-.7-2.8-1.3-4.1-1.8l-.4-.2H52l-.6-.2-.8-.3s-1-.1-2.4-.2h-.5l-1 .2z" opacity=".4" fill="#5e5e5e"/><path d="M81.7 99.8c0 .1.1.1.1.1l-.1-.1z" opacity=".3" fill="#fff"/><path d="M14.6 57c.2.2.4.5.6.7l.3.3c.5.6 1.1 1.1 1.6 1.7l.3.3c.6.5 1.1 1.1 1.7 1.6l.3.3 1.8 1.5.3.3c.6.5 1.3 1 1.9 1.4l.3.2c.6.5 1.3.9 2 1.4l.2.2.1.1 1.1.7 1 .6.4.2 2.1 1.2.4.2 1.8 1c.1.1.3.1.4.2l.4.2.2.1c.7.3 1.4.7 2.1 1 .1.1.3.1.4.2l1.8.8.4.2.8.3c.5.2 1.1.4 1.6.6l.4.2c.7.2 1.3.5 2 .7h.1c.1.1.2.1.4.1l.4.1c.8.3 1.7.5 2.5.7.4.1.8.2 1.1.3.2.1.4.1.7.1.5.1 1.1.2 1.6.3l.8.4.3.2c.3.1.6.3 1 .5l.4.2.1.1 1 .5c1 .5 2.2 1.2 3.4 1.9.5.3 1 .6 1.5.8l.7.4 1.2.8.7.4c.4.3.9.6 1.3.9s.9.7 1.3 1l.4.4.3.3c.2.1.3.3.4.4l.1-.2c-.2.8.1 1.6.7 2.2L78 102.4l.5.6c-.1.5-.1 1.1.2 1.5.1.2.2.3.3.4v.1l.9 1 .8-.7-.9-1-.1-.1c-.1-.1-.2-.3-.3-.4-.2-.5-.3-1-.2-1.5l-.5-.6-12.3-14.2c-.6-.6-.8-1.4-.7-2.2l-.1-.1-.4-.4-.3-.3-.4-.4c-.4-.3-.8-.7-1.3-1s-.8-.6-1.3-.9c-.2-.2-.4-.3-.7-.4L60 81l-.7-.4c-.5-.3-1-.6-1.5-.8-1.2-.7-2.4-1.3-3.4-1.9l-1-.5s-.1 0-.1-.1l-.4-.3-1-.5-.3-.2-.8-.3c-.5-.1-1-.2-1.6-.3l-.7-.1-1.1-.3c-.8-.2-1.6-.4-2.5-.7l-.4-.1c-.1 0-.2-.1-.4-.1H44c-.7-.2-1.3-.4-2-.7-.2 0-.3-.1-.4-.2l-1.4-.5c-.3-.1-.5-.2-.8-.3-.1 0-.3-.1-.4-.2-.6-.3-1.2-.5-1.8-.8l-.4-.2c-.7-.3-1.4-.7-2.1-1l-.2-.1-.4-.2-.4-.2-1.8-1c-.1-.1-.3-.1-.4-.2l-2.1-1.2-.4-.2-1-.6-1.1-.7-.1-.1-.2-.2c-.7-.4-1.3-.9-2-1.4l-.3-.3c-.6-.5-1.3-.9-1.9-1.4l-.3-.3-1.8-1.5-.3-.3c-.6-.5-1.2-1-1.7-1.6h-.4c-.6-.5-1.1-1.1-1.6-1.7L16 57c-.2-.2-.4-.5-.6-.7s-.6-.7-.9-1l-.3-.3c-.5-.6-1-1.3-1.4-1.9-.1-.1-.2-.2-.2-.3-.4-.6-.9-1.3-1.2-2-.1-.1-.1-.2-.2-.4-.4-.7-.7-1.4-1-2.2-.1-.1-.1-.3-.1-.4-.2-.5-.4-1-.5-1.6-.1-.3-.2-.6-.2-.9 0-.1-.1-.3-.1-.4-.3-.9-.5-1.8-.5-2.8v-.5c0-.2 0 0 0 0v-.5c0-1 .1-1.9.3-2.8 0-.2.1-.3.1-.5.2-.8.4-1.6.8-2.4.1-.1.1-.3.2-.4.3-.7.6-1.4 1-2 .1-.1.1-.2.2-.4.4-.6.8-1.2 1.3-1.8l.3-.3c.4-.5.9-1.1 1.4-1.6l.3-.3c.4-.4.8-.8 1.2-1.1l-.1.1-.2.1-.1.1c-.5.5-1.1 1-1.5 1.5l-.3.3c-.5.5-1 1-1.4 1.6l-.3.3c-.5.6-.9 1.2-1.3 1.8-.1.1-.1.2-.2.3-.4.6-.7 1.3-1.1 2-.1.1-.1.3-.2.4-.3.8-.6 1.5-.8 2.3 0 .2-.1.3-.1.5-.2 1-.3 2-.3 2.9v1.1c0 .9.2 1.9.4 2.8 0 .1.1.3.1.4.1.3.1.6.2.9.1.5.3 1 .5 1.6 0 .1.1.3.2.4.3.8.6 1.5 1 2.2.1.1.1.2.2.4.4.7.8 1.3 1.2 2l.2.3c.4.6.9 1.2 1.4 1.9.1.1.2.2.2.3.4.3.7.7 1 1z" opacity=".4" fill="#fff"/><path d="M62.9 79.9c.8 1.8 1.8 3.5 3.1 5l.1.2H66.9c.1 0 .2.1.3.1h.1l.2.1.2.1.1.1.2.1h.1c.1 0 .1.1.2.2l13 14.9.1.1c.5-.1 1 .1 1.5.4.1.1.3.2.4.3l.1.1.9 1 .8-.7-.9-1-.1-.1c-.1-.1-.2-.2-.4-.3-.4-.3-.9-.4-1.5-.4h-.1L68.9 85.3c0-.1-.1-.1-.2-.2l-.1-.1-.1-.1-.2-.1c-.1 0-.1-.1-.2-.1H68c-.1 0-.2-.1-.3-.1h-.8l-.1-.2c-1.2-1.5-2.2-3.2-3.1-5-.2-.4-.4-.8-.6-1.3-1.1-2.3-1.9-4.4-2.5-6.1-.1-.3-.2-.7-.3-1-.5-1.6-.8-2.6-.8-2.6v-1.6-.7c-.1-1.2-.3-2.4-.5-3.7V62c0-.1 0-.2-.1-.4v-.1c-.1-.7-.3-1.4-.4-2 0-.1-.1-.3-.1-.4-.1-.6-.3-1.1-.4-1.7-.1-.3-.1-.5-.2-.8l-.1-.4c-.2-.6-.4-1.3-.6-1.9 0-.1-.1-.3-.1-.4-.2-.7-.5-1.5-.7-2.2 0 0 0-.1-.1-.2s-.1-.3-.1-.4-.1-.3-.2-.4c-.2-.6-.5-1.3-.7-1.9l-.2-.4c-.3-.8-.6-1.5-1-2.3 0-.1-.1-.3-.2-.4-.2-.4-.3-.7-.5-1.1-.2-.4-.3-.8-.5-1.1 0-.1-.1-.1-.1-.2V43c-.3-.7-.7-1.4-1.1-2.1-.1-.1-.1-.2-.2-.4l-1.2-2.1c-.1-.1-.1-.2-.2-.3-.4-.7-.8-1.3-1.2-2-.1-.1-.1-.2-.2-.3-.4-.7-.9-1.3-1.3-1.9-.1-.1-.2-.2-.2-.3-.5-.6-.9-1.3-1.4-1.9l-.3-.3c-.2-.3-.4-.5-.6-.7s-.6-.7-.9-1l-.3-.3c-.5-.6-1.1-1.1-1.7-1.6l-.3-.3-1.8-1.5-.3-.3c-.6-.5-1.3-.9-2-1.3l-.5-.2c-.5-.3-1-.5-1.5-.7-.3-.1-.5-.2-.8-.3-.1 0-.3-.1-.4-.1-.9-.3-1.8-.6-2.7-.7l-.6-.2-.5-.1c-1-.1-1.9-.1-2.9 0-.2 0-.3 0-.5.1-.8.1-1.6.2-2.4.5l-.4.1c-.7.2-1.4.5-2.1.8l-.4.2c-.7.3-1.3.6-1.9 1-.1.1-.2.1-.4.2-.6.3-1.2.7-1.8 1.1l-.3.2c-.6.4-1.1.9-1.6 1.3l-.2.1-.1.1-.4.3 1.5-1.2c.1-.1.2-.2.3-.2l1.8-1.2c.1-.1.2-.1.3-.2.6-.4 1.3-.7 1.9-1 .1-.1.3-.1.4-.2.7-.3 1.4-.6 2.1-.8l.4-.1c.8-.2 1.6-.4 2.4-.5h.5c.9-.1 1.9-.1 2.9 0l.5.1h.1l.5.1c.9.2 1.9.4 2.8.7.1 0 .3.1.4.2.3.1.5.2.8.3.5.2 1 .5 1.5.7l.4.2c.7.4 1.4.8 2 1.3.1.1.2.2.3.2l1.8 1.5.3.3c.6.5 1.1 1 1.7 1.6l.3.3c.3.3.6.7.9 1s.4.5.6.7l.3.3c.5.6 1 1.2 1.4 1.8.1.1.2.2.2.3.5.6.9 1.3 1.3 1.9l.2.3c.4.7.8 1.3 1.2 2l.2.3 1.2 2.1c.1.1.1.2.2.4.4.7.7 1.4 1.1 2.1l.1.2c0 .1.1.1.1.2.2.4.4.7.5 1.1s.3.7.5 1.1c.1.1.1.3.2.4.3.8.6 1.5 1 2.3 0 .1.1.3.1.4.3.6.5 1.3.7 1.9l.2.4.1.4c0 .1 0 .1.1.2.3.7.5 1.5.7 2.2 0 .1.1.3.1.4.2.6.4 1.3.5 1.9 0 .1.1.3.1.4.1.3.2.5.2.8.2.6.3 1.2.4 1.7 0 .2.1.3.1.4.2.7.3 1.4.4 2.1v.1c0 .1 0 .2.1.4l.1.4c.2 1.3.4 2.6.5 3.7v2.3s.3 1.1.8 2.6c.1.3.2.6.3 1 .6 1.7 1.4 3.8 2.3 5.9.5.7.7 1.2.9 1.6z" opacity=".4"/><linearGradient id="d" gradientUnits="userSpaceOnUse" x1="-35.77" y1="33.824" x2="-37.706" y2="72.687" gradientTransform="translate(70.7)"><stop offset="0" stop-color="#577b04"/><stop offset="1" stop-color="#205703"/></linearGradient><path d="M28.4 58.9l3.1 3.5-3.3 2.9c.2.1.3.2.5.3l3.2-2.8 3.4 3.8-1.9 1.7c.2.1.4.2.5.3l1.7-1.5 3.1 3.5-.3.2.6.3.1-.1.1.1.8.3h.1l.2.1-.8-.9 3.8-3.4 3.4 3.8-2.2 2c.2 0 .3.1.5.1l.2.1 1.9-1.7 2.4 2.7.4.1c.2 0 .4 0 .5.1l-2.9-3.3L51 68l3.1 3.5-3.1 2.9c.3 0 .5.1.8.1l2.9-2.6 1.5 1.7c.1-.2.2-.3.3-.5l-1.4-1.6 2.1-1.8v-.8l-2.4 2.2-3.1-3.5 3.3-2.9 2.2 2.4c0-.3 0-.6-.1-1l-1.7-1.9 1.4-1.2-.1-.3c0-.1 0-.2-.1-.3L55 63.8 51.6 60l3.4-3 .4.5c-.1-.4-.2-.9-.4-1.3l-3-3.6 1.6-1.4c-.1-.2-.1-.4-.2-.6l-1.8 1.6-3.4-3.8 3.1-2.7-.2-.5-3.3 2.8-3.1-3.5 3.3-2.9 2.9 3.3-.1-.2c-.3-.6-.6-1.2-.9-1.7l-1.5-1.7.4-.4c-.1-.2-.2-.3-.3-.5l-.5.3-2.9-3.3 1.1-.9c-.1-.2-.2-.3-.3-.5l-1.1 1-3.1-3.5 1.3-1.2-.1-.1-.3-.3-1.3 1.2-2.9-3.3 1.1-1c-.1-.1-.3-.2-.4-.4l-1 .9-3.1-3.5c-.4-.2-.7-.3-1.1-.5l-.2-.1.5.6-3.3 2.9-3.4-3.8.5-.5h-.1c-.4 0-.8.1-1.3.2h-.1l.2.2-3.7 3.1-1.4-1.6c-.1 0-.1.1-.2.1l-.4.2 1.5 1.7-3.3 2.9-1.8-2-.2.2-.3.2 1.8 2.1-3.5 3.1-1.4-1.8-.3.5v.1l1.4 1.6-3.8 3.4-.1-.2c-.1.4-.2.7-.3 1.1v.3l.4-.4 3.4 3.8-3.5 3c.1.2.1.4.2.6 0 .1.1.3.1.4.1.2.1.4.2.5l2.5 2.8-.7.6c.1.2.2.3.3.5l.8-.7 2.9 3.3-1 .9c0 .1.1.1.1.2.1.1.2.2.2.3l1-.9 3.1 3.5-.7.8.4.4.8-.7 2.9 3.3-.3.3c.2.1.3.2.5.3l.3-.2 1 1.2c.6.4 1.2.8 1.9 1.3L24.9 62l3.5-3.1zm-2.8-4.1l3.8-3.4 2.9 3.3-3.8 3.4-2.9-3.3zM43.9 59l-3.4-3.8 3.3-2.9 3.4 3.8-3.3 2.9zm3.7-2.5l3.1 3.5-3.3 2.9-3.1-3.5 3.3-2.9zM29.9 44l3.1 3.5-3.5 3.1-3.1-3.5 3.5-3.1zM26 46.7l-3-3.3 3.5-3.1 2.9 3.3-3.4 3.1zm7.4.4l-3.1-3.5 3.3-2.9 3.1 3.5-3.3 2.9zm3.7-2.5l2.9 3.3-3.3 2.9-2.9-3.3 3.3-2.9zm-3.8 3.3l2.9 3.3-3.5 3.1-2.9-3.3 3.5-3.1zm3.3 3.7l3.1 3.5-3.5 3.1-3.1-3.5 3.5-3.1zm3.5 4l3.4 3.8-3.5 3.1-3.4-3.8 3.5-3.1zm.1-.8l-3.1-3.5 3.3-2.9 3.1 3.5-3.3 2.9zm-2.7-10.6l3.5-3.1 2.9 3.3-3.5 3.1-2.9-3.3zm-.4-.4L34 40.3l3.5-3.1 3.1 3.5-3.5 3.1zm-3.5-3.9l-2.9-3.3 3.5-3.1 2.9 3.3-3.5 3.1zm-.4.4l-3.3 2.9-2.9-3.3 3.3-2.9 2.9 3.3zm-6.6-.8L23.5 36l3.3-2.9 3.1 3.5-3.3 2.9zm-.4.3L22.7 43l-3.1-3.5 3.5-3.1 3.1 3.4zm-4 3.5l-3.8 3.4-3.1-3.5 3.8-3.4 3.1 3.5zm.4.5l2.9 3.3-3.8 3.4-2.9-3.3 3.8-3.4zm3.3 3.7L29 51l-3.8 3.4-3.1-3.5 3.8-3.4zm2.9 11l3.8-3.4 3.1 3.5L32 62l-3.2-3.5zm3.5 4l3.8-3.4 3.4 3.8-3.8 3.4-3.4-3.8zm6.9 7.7l-3.1-3.5 3.8-3.4 3.1 3.5-3.8 3.4zm1.2-7.3l3.5-3.1 3.1 3.5-3.5 3.1-3.1-3.5zm6.9 7.8l-3.4-3.8 3.5-3.1 3.4 3.8-3.5 3.1zm7.2-6.4l-3.3 2.9-3.4-3.8 3.3-2.9 3.4 3.8zm.2-7.8l-3.5 3.1-3.2-3.5 3.5-3.1 3.2 3.5zm-3.5-3.9l-3.5 3.1-3.4-3.8 3.5-3.1 3.4 3.8zm-3.8-4.3l-3.5 3.1-3.1-3.5 3.5-3.1 3.1 3.5zm.2-7.2L44.3 44l-2.9-3.3 3.3-2.9 2.9 3.3zm-3.3-3.7L41 40.3l-3.1-3.5 3.3-2.9 3.1 3.5zm-3.5-3.9l-3.3 2.9-2.9-3.3 3.3-2.9 2.9 3.3zm-6.4-7.2l3.1 3.5-3.3 2.9-3.1-3.5 3.3-2.9zm-.6 6.7l-3.5 3.1-3.1-3.5 3.5-3.1 3.1 3.5zm-6.9-7.7l3.4 3.8-3.5 3.1-3.4-3.8 3.5-3.1zM23 28.8l3.4 3.8-3.3 2.9-3.4-3.8 3.3-2.9zm-3.7 3.3l3.4 3.8-3.5 3.1-3.4-3.8 3.5-3.1zM11.5 39l3.8-3.4 3.4 3.8-3.8 3.4-3.4-3.8zm-.2 7.7l3.5-3.1 3.1 3.5-3.5 3.1-3.1-3.5zm3.5 4l3.5-3.1 2.9 3.3-3.5 3.1-2.9-3.3zm3.3 3.7l3.5-3.1 3.1 3.5-3.5 3.1-3.1-3.5zm3.5 3.9l3.5-3.1 2.9 3.3-3.5 3.1-2.9-3.3z" fill="url(#d)"/></g><g><linearGradient id="e" gradientUnits="userSpaceOnUse" x1="-474.867" y1="183.171" x2="-477.927" y2="244.601" gradientTransform="matrix(1 -.07 -.07 -1 569.263 237.25)"><stop offset="0" stop-color="#577b04"/><stop offset="1" stop-color="#205703"/></linearGradient><path d="M112.3 56c.1-.1.2-.2.2-.3.5-.6 1-1.3 1.4-1.9l.2-.3c.4-.7.9-1.3 1.2-2 .1-.1.1-.3.2-.4.4-.7.7-1.4 1-2.2.1-.1.2-.3.2-.4.2-.6.4-1.1.5-1.6.1-.3.2-.6.2-.9 0-.1.1-.3.1-.4.2-.9.3-1.9.3-2.8v-.5-.6c0-.9-.2-1.9-.4-2.8 0-.2-.1-.3-.1-.5-.2-.8-.5-1.6-.8-2.3-.1-.1-.1-.3-.2-.4-.3-.7-.7-1.4-1.1-2-.1-.1-.1-.2-.2-.3-.4-.6-.8-1.2-1.3-1.8l-.3-.3c-.4-.6-.9-1.1-1.4-1.6l-.3-.3-1.5-1.5-.1-.1-.2-.1c-.5-.5-1.1-.9-1.6-1.3-.1-.1-.2-.2-.3-.2l-1.8-1.2-.3-.2c-.6-.4-1.3-.7-1.9-1l-.4-.2c-.7-.3-1.4-.6-2.1-.8l-.4-.1c-.8-.2-1.6-.4-2.4-.5h-.5c-.9-.1-1.9-.1-2.8 0h-.5c-.2 0-.3 0-.5.1-.9.2-1.8.4-2.7.7-.1 0-.3.1-.4.1-.3.1-.6.2-.8.3-.5.2-1 .4-1.5.7l-.4.2c-.7.4-1.4.8-2 1.3l-.3.3c-.6.5-1.2.9-1.8 1.5l-.3.3c-.6.5-1.1 1-1.7 1.6l-.3.3c-.3.3-.7.8-.9 1s-.4.5-.6.7l-.3.3c-.5.6-1 1.2-1.4 1.9-.1.1-.2.2-.2.3-.5.6-.9 1.3-1.3 1.9-.1.1-.1.2-.2.3-.4.7-.8 1.3-1.3 2-.1.1-.1.2-.2.3l-1.2 2.1c-.1.1-.1.2-.2.4-.4.7-.7 1.4-1.1 2.1v.2c0 .1-.1.1-.1.2-.2.4-.4.8-.5 1.1-.2.4-.3.7-.5 1.1l-.2.5c-.4.8-.7 1.5-1 2.3l-.2.4c-.3.6-.5 1.3-.7 1.9-.1.1-.1.2-.2.4 0 .1-.1.3-.1.4l-.1.2c-.3.8-.5 1.5-.7 2.2 0 .1-.1.3-.1.4-.2.6-.4 1.3-.6 1.9 0 .1-.1.3-.1.4-.1.3-.2.6-.2.8-.2.6-.3 1.1-.4 1.7 0 .1-.1.3-.1.4-.2.6-.3 1.3-.4 2 0 0 .1 0 0 .1s-.1.4-.1.5l-.2.5c-.2 1.3-.4 2.5-.5 3.7v2.3s-.3 1.1-.8 2.6c-.1.3-.2.7-.3 1-.6 1.7-1.4 3.8-2.3 5.9-.2.4-.4.9-.6 1.3-.8 1.8-1.8 3.5-3 5l-.1.1h-.3-.4-.1l-.3.1H58l-.4.1c-.1 0-.1.1-.2.1l-.1.1-.1.2v.1l-.2.2L44.2 100l-.1.1c-.5-.1-1 .1-1.5.4-.1.1-.3.2-.4.3l-.1.1-.9 1 4.8 4.2.9-1v-.1c.1-.1.2-.3.3-.4.2-.5.3-1 .2-1.5l.5-.6 12.3-14.2c.6-.6.8-1.4.7-2.2l.1-.2c.1-.1.2-.3.4-.4l.3-.3.4-.4c.4-.3.9-.7 1.3-1s.8-.6 1.3-.9l.7-.4 1.2-.8.7-.4c.4-.3 1-.6 1.4-.8 1.2-.7 2.4-1.3 3.4-1.9l1-.5.1-.1.4-.2c.4-.2.7-.3 1-.5l.3-.2.8-.4c.5-.1 1-.2 1.6-.3.2 0 .4-.1.7-.1.4-.1.7-.2 1.1-.3.8-.2 1.6-.4 2.5-.7l.4-.1c.1 0 .2-.1.4-.1h.1c.7-.2 1.3-.4 2-.7l.4-.2c.5-.2 1.1-.4 1.6-.6l.8-.3.4-.2 1.8-.8c.1-.1.3-.1.4-.2.7-.3 1.4-.7 2.1-1l.2-.1.4-.2c.1-.1.3-.1.4-.2l1.8-1 .4-.2 2.1-1.2.4-.2 1-.6 1.1-.7.1-.1.2-.2c.7-.4 1.3-.9 2-1.4l.3-.2c.6-.4 1.3-.9 1.9-1.4l.3-.3 1.8-1.5.3-.3c.6-.5 1.2-1 1.7-1.6l.3-.3c.6-.5 1.1-1.1 1.6-1.7l.3-.3c.2-.2.4-.5.6-.7.5 0 .8-.4 1.1-.7zM68.9 67.9v-.6c.1-1.1.2-2.2.3-3.4v-.5l.1-.5.3-1.5.1-.4c.2-.7.3-1.5.5-2.2l.1-.4c0-.2.1-.4.1-.4.2-.6.3-1.3.5-1.9 0-.1.1-.3.1-.4.2-.8.5-1.6.8-2.4v-.1c0-.1.1-.1.1-.3s.1-.4.2-.7c.2-.6.4-1.1.6-1.7.1-.1.2-.3.2-.4.3-.8.6-1.5.9-2.3.1-.1.2-.3.2-.4l.4-1L75 45l.1-.1.2-.3c.3-.7.7-1.4 1.1-2.2.1-.1.1-.2.2-.4.4-.7.8-1.4 1.1-2.1.1-.1.1-.2.2-.3.4-.7.8-1.3 1.2-2 .1-.1.1-.2.2-.3l1.2-1.8.1-.1c.1-.1.2-.2.2-.3.4-.6.9-1.3 1.4-1.8l.3-.3.6-.7c.3-.3.6-.7.9-1l.3-.3c.5-.5 1-1 1.5-1.4l.2-.2.3-.3c.6-.5 1.2-1 1.9-1.5l.3-.2c.7-.5 1.4-.9 2.1-1.3.1-.1.3-.1.4-.2.4-.2.8-.4 1.2-.5l.8-.3.5-.1c.2 0 .3-.1.5-.1.3-.1.7-.2 1-.2.5-.1 1-.1 1.4-.2h1.9c.4 0 .8.1 1.3.2l.4.1c.7.1 1.5.3 2.2.6.1 0 .3.1.4.2.7.3 1.4.6 2 1l.4.2c.6.4 1.2.7 1.8 1.2h.2c.6.4 1.1.8 1.7 1.3l.3.3c.5.5 1.1 1 1.5 1.5l.3.3c.5.5 1 1.1 1.4 1.6l.3.5 1.2 1.8c.1.1.1.2.2.4.4.7.7 1.4 1 2.1.1.1.1.3.1.4l.3 1.2c0 .2.1.4.1.6.1.3.1.6.1.8v.5c.1.8 0 1.6-.1 2.4 0 .2 0 .3-.1.5 0 .2-.1.3-.1.6s-.1.5-.2.8l-.3 1.2c0 .1-.1.3-.1.4-.3.8-.6 1.5-1 2.3-.1.1-.1.2-.2.4-.4.7-.8 1.4-1.2 2-.1.1-.1.2-.2.3l-.1.1c-.4.6-.9 1.2-1.3 1.8l-.3.3c-.3.3-.7.8-.9 1s-.4.5-.6.7l-.3.3c-.5.6-1.1 1.1-1.6 1.7l-.3.3-.1.1c-.5.5-1.1 1-1.6 1.5l-.1.3-1.8 1.5-.3.3c-.6.5-1.3 1-1.9 1.4l-.3.2c-.7.5-1.3.9-2 1.3-.1.1-.2.1-.3.2 0 0-.1 0-.1.1-.3.2-.7.5-1.1.7l-1 .6-.4.2c-.7.4-1.4.8-2.2 1.2-.1.1-.2.1-.4.2-.5.3-1.1.6-1.7.9l-.6.3-.4.2c-.8.4-1.5.7-2.3 1.1l-.4.2-.9.4-1 .4h-.1l-.3.1H85c-.7.3-1.4.5-2 .7l-.5.2c-.5.2-1.1.4-1.6.5l-.4.1c-.1 0-.2.1-.3.1H80c-1.1.3-2.3.6-3.4.8l-.6.1c-1 .2-2 .3-3 .3h-.5c-.8 0-1.6-.2-2.3-.6-.1 0-.1-.1-.2-.1l-.1-.1c-.5-.6-.8-1.4-.9-2.2 0-.2-.1-.3-.1-.5-.1-1.1-.1-2.2 0-3.2zM67 73.8c.1-.1.1-.2.1-.3v.1c.2.7.6 1.4 1.2 1.9 0 .1.1.1.2.1 0 0 .1.1.2.1.6.4 1.3.8 2 .9h.2l-.4.2c-1.8.7-3.5 1.6-5.1 2.7-.3.2-.5.3-.7.5.1-.2.2-.4.3-.7l.1-.3c.7-1.6 1.4-3.3 1.9-5.2z" fill="url(#e)"/><linearGradient id="f" gradientUnits="userSpaceOnUse" x1="-32.036" y1="-158.975" x2="-29.846" y2="-184.334" gradientTransform="matrix(.75 .66 .66 -.75 187.113 -12.92)"><stop offset="0" stop-color="#292929"/><stop offset="1" stop-color="#1f1f1f"/></linearGradient><path d="M47 104.9c.1-.1.2-.3.3-.4.2-.5.3-1 .2-1.5l.5-.6 12.4-14.2c.6-.6.8-1.4.7-2.2l.1-.2-2-1.7-.1.1c-.8-.1-1.6.3-2.1.9L44.7 99.4l-.5.6c-.5-.1-1 .1-1.5.4-.1.1-.3.2-.4.3l-.1.1-.9 1 4.8 4.2.9-1.1c0 .1 0 .1 0 0z" fill="url(#f)"/><path d="M47 104.9c.1-.1.2-.3.3-.4l-4.7-4.1c-.1.1-.3.2-.4.3l-.1.1-.9 1L46 106l1-1.1c0 .1 0 .1 0 0z" opacity=".5" fill="#141414"/><path d="M47 104.9c.1-.1.2-.3.3-.4.2-.5.3-1 .2-1.5l.5-.6 12.4-14.2c.6-.6.8-1.4.7-2.2l.1-.2-1.3-1.1-14.5 16.6s-.1 2.1-2.9 1.3l3.7 3.2.8-.9c0 .1 0 .1 0 0z" opacity=".4"/><path d="M78.3 76.1h-.6c-1.4.1-2.4.2-2.4.2l-.8.3-.5.2h-.1l-.4.2c-1.4.5-2.8 1.1-4.1 1.8l-.9.5c-3 1.5-5.7 3.5-8 6l-.1.2c.2.8-.1 1.6-.7 2.2l-12.4 14.2-.5.6c.1.5.1 1.1-.2 1.5-.1.2-.2.3-.3.4l-.1.1-.9 1 .8.7.9-1v-.1c.1-.1.2-.3.3-.4.2-.5.3-1 .2-1.5l.5-.6 12.4-14.2c.6-.6.8-1.4.7-2.2l.1-.2c.1-.1.2-.3.4-.4l.3-.3.4-.4c.4-.3.9-.7 1.3-1s.8-.6 1.3-.9l.7-.4 1.2-.8.7-.4c.4-.3 1-.6 1.4-.8 1.2-.7 2.4-1.3 3.4-1.9l1-.5.1-.1.4-.2c.4-.2.7-.3 1-.5l.3-.2.8-.4c.5-.1 1-.2 1.6-.3.2 0 .4-.1.7-.1.4-.1.7-.2 1.1-.3h-1z" opacity=".4" fill="#5e5e5e"/><path d="M44.2 99.9l.1-.1-.1.1z" opacity=".3" fill="#fff"/><path d="M112.3 56c.1-.1.2-.2.2-.3.5-.6 1-1.3 1.4-1.9l.2-.3c.4-.7.9-1.3 1.2-2 .1-.1.1-.3.2-.4.4-.7.7-1.4 1-2.2.1-.1.2-.3.2-.4.2-.6.4-1.1.5-1.6.1-.3.2-.6.2-.9 0-.1.1-.3.1-.4.2-.9.3-1.9.3-2.8v-.5-.6c0-.9-.1-1.9-.3-2.8 0-.2-.1-.3-.1-.5-.2-.8-.5-1.6-.8-2.3-.1-.1-.1-.3-.2-.4-.3-.7-.7-1.4-1.1-2-.1-.1-.1-.2-.2-.3-.4-.6-.8-1.2-1.3-1.8l-.3-.3c-.4-.6-.9-1.1-1.4-1.6l-.3-.3-1.5-1.5-.1-.1-.2-.1-.1-.1c.4.4.8.8 1.2 1.1l.3.3c.5.5 1 1.1 1.4 1.6l.3.3c.5.6.9 1.2 1.3 1.8.1.1.1.2.2.4.4.6.7 1.3 1 2 .1.1.1.3.2.4.3.8.6 1.6.8 2.4 0 .2.1.3.1.5.2.9.3 1.9.3 2.8v.5s0-.2 0 0v.5c0 1-.2 1.9-.4 2.9 0 .1-.1.3-.1.4-.1.3-.1.6-.2.9-.1.5-.3 1.1-.5 1.6 0 .1-.1.3-.2.4-.3.7-.6 1.5-1 2.2-.1.1-.1.2-.2.4-.4.7-.8 1.4-1.2 2-.1.1-.1.2-.2.3-.4.6-.9 1.3-1.4 1.9l-.2.3c-.3.3-.7.8-.9 1-.2.2-.4.5-.6.7l-.3.3c-.5.6-1.1 1.1-1.6 1.7l-.3.3c-.5.6-1.1 1.1-1.7 1.6l-.3.3-1.8 1.5-.3.3c-.6.5-1.3 1-1.9 1.4l-.3.3c-.7.5-1.3.9-2 1.4l-.2-.3s-.1 0-.1.1l-1.1.7-1 .6-.4.2-2.1 1.2c-.1.1-.2.1-.4.2l-1.8 1-.4.2-.4.2-.2.1c-.7.3-1.4.7-2.1 1l-.4.2c-.6.3-1.2.6-1.8.8-.1.1-.3.1-.4.2-.3.1-.5.2-.8.3l-1.5.6c-.1.1-.3.2-.4.2-.7.3-1.3.5-2 .7h-.1c-.1 0-.2.1-.4.1l-.4.1c-.8.3-1.7.5-2.5.7l-1.1.3-.7.1c-.6.1-1.1.2-1.6.3l-.8.4-.3.2-1 .5-.4.2s-.1 0-.1.1l-1 .5c-1 .5-2.2 1.2-3.4 1.9-.5.3-1 .6-1.5.8l-.6.3-1.2.8c-.2.2-.5.3-.7.4-.4.3-.8.6-1.3.9s-.9.7-1.3 1c-.2.1-.3.2-.4.4l-.3.3-.4.4-.1.1c.2.8-.1 1.6-.7 2.2l-12.4 14.2-.5.6c.1.5.1 1.1-.2 1.5-.1.2-.2.3-.3.4 0 0 0 .1-.1.1l-.9 1 .8.7.9-1v-.1c.1-.1.2-.3.3-.4.2-.5.3-1 .2-1.5l.5-.6 12.3-14.2c.6-.6.8-1.4.7-2.2l.1-.2c.1-.1.2-.3.4-.4l.3-.3.4-.4c.4-.3.9-.7 1.3-1s.8-.6 1.3-.9l.7-.4 1.2-.8.7-.4c.4-.3 1-.6 1.4-.8 1.2-.7 2.4-1.3 3.4-1.9l1-.5.1-.1.4-.2c.4-.2.7-.3 1-.5l.3-.2.8-.4c.5-.1 1-.2 1.6-.3.2 0 .4-.1.7-.1.4-.1.7-.2 1.1-.3.8-.2 1.6-.4 2.5-.7l.4-.1c.1 0 .2-.1.4-.1h.1c.7-.2 1.3-.4 2-.7l.4-.2c.5-.2 1.1-.4 1.6-.6l.8-.3.4-.2 1.8-.8c.1-.1.3-.1.4-.2.7-.3 1.4-.7 2.1-1l.2-.1.4-.2c.1-.1.3-.1.4-.2l1.8-1 .4-.2 2.1-1.2.4-.2 1-.6 1.1-.7.1-.1.2-.2c.7-.4 1.3-.9 2-1.4l.3-.2c.6-.4 1.3-.9 1.9-1.4l.3-.3 1.8-1.5.3-.3c.6-.5 1.2-1 1.7-1.6l.3-.3c.6-.5 1.1-1.1 1.6-1.7l.3-.3c.2-.2.4-.5.6-.7.5.1.8-.3 1.1-.6z" opacity=".4" fill="#fff"/><path d="M63.8 78.5c.9-2.1 1.7-4.2 2.3-5.9.1-.4.2-.7.3-1 .5-1.6.8-2.6.8-2.6v-1.6c.1-.2.1-.4.1-.7.1-1.2.3-2.4.5-3.7l.1-.4c.1-.1.1-.2.1-.4v-.1c.1-.7.3-1.4.4-2.1 0-.1.1-.3.1-.4.1-.5.3-1.1.4-1.7.1-.3.1-.6.2-.8 0 0 0 .1 0 0s.1-.3.1-.4c.2-.6.3-1.3.6-1.9 0-.1.1-.3.1-.4.2-.7.5-1.5.7-2.2 0-.1 0-.1.1-.2l.1-.4.2-.4c.2-.6.5-1.3.7-1.9 0-.1.1-.3.1-.4.3-.8.6-1.5.9-2.3.1-.1.1-.3.2-.4.2-.4.3-.7.5-1.1s.3-.8.5-1.1c0-.1.1-.1.1-.2l.1-.2c.3-.7.7-1.4 1.1-2.1.1-.1.1-.2.2-.4l1.2-2.1.2-.3c.4-.7.8-1.3 1.2-2l.2-.3c.4-.7.9-1.3 1.3-1.9.1-.1.2-.2.2-.3.4-.6.9-1.3 1.4-1.8l.3-.3c.2-.3.3-.4.6-.7s.6-.7.9-1l.3-.3c.6-.6 1.1-1.1 1.7-1.6l.3-.3 1.8-1.5c.1-.1.2-.2.3-.2.6-.5 1.3-.9 2-1.3l.4-.2c.5-.3 1-.5 1.5-.7.3-.1.5-.2.8-.3.1-.1.3-.1.4-.2.9-.3 1.8-.6 2.8-.7l.5-.1h.1l.5-.1c.9-.1 1.9-.1 2.8 0h.5c.8.1 1.6.2 2.4.5l.4.1c.7.2 1.4.5 2.1.8.1.1.3.1.4.2.7.3 1.3.6 1.9 1 .1.1.2.1.3.2l1.8 1.2c.1.1.2.2.3.2l1.5 1.2-.4-.3-.1-.1-.2-.1c-.5-.5-1.1-.9-1.6-1.3l-.3-.2c-.6-.4-1.2-.8-1.8-1.1-.1-.1-.2-.1-.3-.2-.6-.4-1.3-.7-1.9-1l-.4-.2c-.7-.3-1.4-.6-2.1-.8l-.4-.1c-.8-.2-1.6-.4-2.4-.5-.2 0-.3 0-.5-.1-1-.1-1.9-.1-2.9 0l-.4-.1-.6.1c-.9.2-1.8.4-2.7.7-.1 0-.3.1-.4.1-.3.1-.6.2-.8.3-.5.2-1 .4-1.5.7l-.4.2c-.7.4-1.4.8-2 1.3l-.3.3c-.6.5-1.2.9-1.8 1.5l-.3.3c-.6.5-1.1 1-1.7 1.6l-.3.3c-.3.3-.7.8-.9 1s-.4.5-.6.7l-.3.3c-.5.6-1 1.2-1.4 1.9-.1.1-.2.2-.2.3-.5.6-.9 1.3-1.3 1.9-.1.1-.1.2-.2.3-.4.7-.8 1.3-1.2 2-.1.1-.1.2-.2.3l-1.2 2.1c-.1.1-.1.2-.2.4-.4.7-.7 1.4-1.1 2.1l-.1.2c0 .1-.1.1-.1.2-.2.4-.4.8-.5 1.1-.2.4-.3.7-.5 1.1-.1.1-.2.3-.2.4-.4.8-.7 1.5-1 2.3l-.2.4c-.2.6-.5 1.3-.7 1.9-.1.1-.1.3-.2.4 0 .1-.1.3-.1.4-.1.1-.1.2-.1.2-.3.8-.5 1.5-.7 2.2 0 .1-.1.3-.1.4-.2.6-.4 1.3-.6 1.9l-.1.4c-.1.3-.1.6-.2.8-.1.6-.3 1.1-.4 1.7 0 .1-.1.3-.1.4-.2.7-.3 1.4-.4 2v.1c-.1.4-.1.5-.1.6l-.1.4c-.2 1.3-.4 2.5-.5 3.7v2.3s-.3 1.1-.8 2.6c-.1.3-.2.7-.3 1-.6 1.7-1.4 3.8-2.5 6.1-.2.4-.4.9-.6 1.3-.8 1.8-1.8 3.5-3 5l-.1.2H58.3c-.1 0-.2.1-.3.1h-.1c-.1 0-.1 0-.2.1l-.2.1-.1.1-.2.1-.2.2L44.2 100h-.1c-.5 0-1 .1-1.5.4-.1.1-.3.2-.4.3l-.1.1-.9 1 .8.7.9-1 .1-.1c.1-.1.2-.2.4-.3.4-.3.9-.4 1.5-.4l.1-.1 13-14.9c.1-.1.1-.2.2-.2h.1l.2-.1.1-.1.2-.1.2-.1h.1c.1 0 .2-.1.3-.1h.8l.1-.2c1.2-1.5 2.3-3.2 3.1-5-.1-.3.1-.8.4-1.3z" opacity=".4"/><linearGradient id="g" gradientUnits="userSpaceOnUse" x1="1.572" y1="33.824" x2="-.363" y2="72.687" gradientTransform="matrix(-1 0 0 1 92.642 0)"><stop offset="0" stop-color="#577b04"/><stop offset="1" stop-color="#205703"/></linearGradient><path d="M101.1 62l-2.5 2.9c.6-.4 1.3-.8 1.9-1.3l1-1.2.3.2c.2-.1.3-.2.5-.3l-.3-.3 2.9-3.3.8.7.4-.4-.8-.7 3.1-3.5 1 .9c.1-.1.2-.2.2-.3 0 0 .1-.1.1-.2l-1-.9 2.9-3.3.8.7c.1-.2.2-.3.3-.5l-.7-.6 2.5-2.8c.1-.2.2-.4.2-.5 0-.1.1-.3.1-.4.1-.2.1-.4.2-.6l-3.5-3.1 3.4-3.8.4.4v-.3c-.1-.3-.2-.7-.3-1.1l-.1.2-3.8-3.4 1.4-1.6v-.1l-.3-.5-1.6 1.8-3.5-3.1 1.8-2.1-.3-.2-.2-.2-1.8 2-3.3-2.9 1.5-1.7-.4-.2c-.1 0-.1-.1-.2-.1l-1.4 1.6-3.5-3.1.2-.2h-.1c-.4-.1-.9-.1-1.3-.2H98l.5.5-3.4 3.8-3.1-2.9.5-.6-.2.1c-.4.1-.8.3-1.1.5L88 29.4l-1-.9c-.1.1-.3.2-.4.4l1.1 1-2.9 3.3-1.3-1.2-.3.3H83l1.3 1.2-3.1 3.5-1.1-1c-.1.2-.2.3-.3.5l1.1.9-2.9 3.3-.5-.4c-.1.2-.2.3-.3.5l.4.4-1.5 1.7c-.3.6-.6 1.2-.9 1.7l-.1.2 2.9-3.3 3.3 2.9-3.1 3.6-3.2-2.9-.2.5 3.1 2.7-3.4 3.8-1.8-1.6c-.1.2-.1.4-.2.6l1.6 1.4L71 56c-.1.4-.2.9-.4 1.3l.4-.3 3.5 3.1-3.4 3.8-1.6-1.4c0 .1 0 .2-.1.3l-.1.3 1.4 1.2-1.7 1.9c0 .3-.1.6-.1 1l2.2-2.4 3.3 2.9-3.1 3.5-2.4-2.2v.8l2.1 1.8-1.4 1.6c.1.2.2.3.3.5l1.5-1.7 2.9 2.6c.3 0 .5 0 .8-.1l-3.3-2.9 3.1-3.5 3.5 3.1-2.9 3.3c.2 0 .4 0 .5-.1l.4-.1 2.4-2.7 1.9 1.7.2-.1c.1 0 .3-.1.5-.1l-2.2-2 3.4-3.8 3.8 3.4-.8.9.2-.1h.1l.8-.3.1-.1.1.1.6-.3-.3-.2 3.1-3.5 1.7 1.5c.2-.1.4-.2.5-.3l-1.9-1.7 3.4-3.8 3.2 2.8c.2-.1.3-.2.5-.3l-3.3-2.9 3.1-3.5 3.6 3zm-3.6-3.9l-3.8-3.4 2.9-3.3 3.8 3.4-2.9 3.3zm-18.7-2l3.4-3.8 3.3 2.9-3.4 3.8-3.3-2.9zm2.9 3.3l-3.1 3.5-3.3-2.9 3.1-3.5 3.3 2.9zm18-12.3l-3.1 3.5-3.6-3.1 3.1-3.5 3.6 3.1zm-3.2-3.5l2.9-3.3 3.5 3.1-2.9 3.3-3.5-3.1zm-7.2.6l3.1-3.5 3.3 2.9-3.1 3.5-3.3-2.9zm2.9 3.4l-2.9 3.3-3.3-3 2.9-3.3 3.3 3zm4 3.4l-2.9 3.3-3.5-3.1 2.9-3.3 3.5 3.1zm-3.3 3.7l-3.1 3.5-3.5-3.1 3.1-3.5 3.5 3.1zm-3.5 4L86 62.5l-3.5-3.1 3.4-3.8 3.5 3.1zm-6.9-6.9l3.1-3.5 3.3 2.9-3.1 3.5-3.3-2.9zm3.1-4.3l-3.5-3.1 2.9-3.3 3.5 3.1-2.9 3.3zm-.2-6.8l3.1-3.5 3.5 3.1-3.1 3.5-3.5-3.1zm3.5-3.9l2.9-3.3 3.5 3.1-2.9 3.3-3.5-3.1zm6.8.2l3.3 2.9-2.9 3.3-3.3-2.9 2.9-3.3zm.4-.5l3.1-3.5 3.3 2.9-3.1 3.5-3.3-2.9zm6.8-.2l3.5 3.1-3.1 3.5-3.5-3.1 3.1-3.5zm4 3.5l3.8 3.4-3.1 3.5-3.8-3.4 3.1-3.5zm.3 7.4l-2.9 3.3-3.8-3.4 2.9-3.3 3.8 3.4zm-3.3 3.7l-3.1 3.5L97 51l3.1-3.5 3.8 3.4zM94 62l-3.8-3.4 3.1-3.5 3.8 3.4L94 62zm-3.7 4.3l-3.8-3.4 3.4-3.8 3.8 3.4-3.4 3.8zm-7.4.5l3.1-3.5 3.8 3.4-3.1 3.5-3.8-3.4zm-.4-.4L79 63.3l3.1-3.5 3.5 3.1-3.1 3.5zm-7.3 1.2l3.4-3.8 3.5 3.1-3.4 3.8-3.5-3.1zm-.3-7.2l3.3 2.9-3.4 3.8-3.3-2.9 3.4-3.8zm-.4-7.4l3.5 3.1-3.1 3.5-3.5-3.1 3.1-3.5zm3.7-4.2l3.5 3.1-3.4 3.8-3.5-3.1 3.4-3.8zm3.5-4l3.5 3.1-3.1 3.5-3.5-3.1 3.1-3.5zm-.4-6.9l3.3 2.9-2.9 3.2-3.3-2.9 2.9-3.2zm3.5-4l3.3 2.9-3.1 3.5-3.3-2.9 3.1-3.5zm3.3-3.7l3.3 2.9-2.9 3.3-3.3-2.9 2.9-3.3zm6.7-1.1l-3.1 3.5-3.3-2.9 3.1-3.5 3.3 2.9zm.5.4l3.5 3.1-3.1 3.5-3.5-3.1 3.1-3.5zm7.3-1.1l-3.4 3.8-3.5-3.1 3.4-3.8 3.5 3.1zm3.7 3.3l-3.4 3.8-3.3-2.9 3.4-3.8 3.3 2.9zm3.9 3.5l-3.4 3.8-3.5-3.1 3.4-3.8 3.5 3.1zm.9 7.6l-3.8-3.4 3.4-3.8 3.8 3.4-3.4 3.8zm.5 7.4l-3.5-3.1 3.1-3.5 3.5 3.1-3.1 3.5zm-3.3 3.8l-3.5-3.1 2.9-3.3 3.5 3.1-2.9 3.3zm-3.5 3.9l-3.5-3.1 3.1-3.5 3.5 3.1-3.1 3.5zm-3.3 3.7L98 58.5l2.9-3.3 3.5 3.1-2.9 3.3z" fill="url(#g)"/></g></svg>
