<svg class="S" xmlns="http://www.w3.org/2000/svg" xmlns:xlink="http://www.w3.org/1999/xlink" viewBox="0 0 126 126"><defs><radialGradient id="radial-gradient" cx="48.87" cy="58.48" r="39.58" gradientUnits="userSpaceOnUse"><stop offset="0" stop-color="#f1f1f2"/><stop offset="0.43" stop-color="#efeff0"/><stop offset="0.58" stop-color="#e8e9ea"/><stop offset="0.69" stop-color="#dddedf"/><stop offset="0.76" stop-color="#d0d2d3"/><stop offset="0.82" stop-color="#c9cbcd"/><stop offset="1" stop-color="#bbbdbf"/></radialGradient><radialGradient id="radial-gradient-2" cx="56.13" cy="86.32" r="36.56" xlink:href="#radial-gradient"/><radialGradient id="radial-gradient-3" cx="82.42" cy="54.59" r="36.96" xlink:href="#radial-gradient"/></defs><path d="M19.49,102.44c5.76,9.46,18.64,11.2,29.21,8.07a18.83,18.83,0,0,1,17.58,3.38L60.66,116S30,127.22,19.49,102.44Z" style="fill:#191417"/><path d="M90.85,109.42c-3.44,5.63-13.42,7-19.72,5.16a11.23,11.23,0,0,0-10.47,2L64,117.83S84.56,124.17,90.85,109.42Z" style="fill:#191417"/><path d="M6.9,56.59C8,47.16,15.82,41.07,22.46,42.5S31.58,37,31.58,37L28,35.87S7.33,32.49,6.9,56.59Z" style="fill:#191417"/><path d="M119.87,70.18c.14-11.07-3.64-16.46-14.26-19.42s-.18-10.16-.18-10.16S125,47.59,119.87,70.18Z" style="fill:#191417"/><path d="M62.54,11.12C51.45,11,46.05,14.83,43.06,25.51s-10.18.21-10.18.21S39.91,6,62.54,11.12Z" style="fill:#191417"/><path d="M96.31,74.61v1.87l-.83.48c.19-.15.38-.31.56-.48C96,76.48,96.16,75.79,96.31,74.61Z" style="fill:#f05a28"/><path d="M96.31,55.22v1.53Q96.19,56,96,55.22l-.52-.48Z" style="fill:#f05a28"/><path d="M24.29,33.5l.35-.31L24,34Z" style="fill:#faaf40"/><path d="M96.31,76.48l-.83.48c.19-.15.38-.31.56-.48,0,0,.12-.69.27-1.87V56.75Q96.19,56,96,55.22l-.52-.48.79.48,10.1-5.35s3.39,3.77,5.85,12.91A49.77,49.77,0,0,0,98.9,31.87l0,0c-9.33-7.5-17.83-9.52-17.83-9.52C79,19.67,75,17.89,73.13,17.17q-2.32-.51-4.74-.81h-.14c-2.32-.22-4.47-.32-6.41-.34h-.12a50,50,0,0,0-15.27,2.58C42,20.78,40.81,23.1,40.81,23.1c.67.17,1.34.38,2,.61-.64-.23-1.31-.44-2-.61,0,0-7.45,2.52-16.17,10.09L24,34h0c-.08.11-.16.25-.25.4.09-.15.17-.29.25-.4A49.76,49.76,0,0,0,12.47,62.78c2.46-9.14,5.85-12.91,5.85-12.91l10.11,5.35V76.48l-9.8,6.12a35.6,35.6,0,0,1-6.11-12.78A49.7,49.7,0,0,0,25,99.2l.08-.08s8,7,17,9.64c0,0,.67,2.82,8.39,5.8a48.77,48.77,0,0,0,9.17,1.37h0l.49,0,.54,0,.54,0c.46,0,.92,0,1.4,0a49.67,49.67,0,0,0,14.2-2.11,17.65,17.65,0,0,0,6.55-5.13,39.28,39.28,0,0,0,16.36-9.51,49.81,49.81,0,0,0,12.51-29.43,35.77,35.77,0,0,1-6.11,12.78Z" style="fill:#d0d2d3"/><path d="M112.22,69.82a35.77,35.77,0,0,1-6.11,12.78l-9.8-6.12V55.22l10.1-5.35s3.39,3.77,5.85,12.91c0-.74-.11-1.49-.19-2.22-2.18-7-4.75-10.31-5.25-10.9l-.09-.4-.09-.4c0-.16-.08-.32-.11-.47s-.07-.25-.1-.38-.08-.33-.13-.5l-.09-.34-.15-.52-.09-.31c0-.18-.1-.35-.16-.53l-.09-.29c0-.18-.11-.36-.17-.53l-.09-.28-.18-.55-.09-.24c-.06-.19-.13-.38-.2-.57l-.08-.21c-.07-.2-.14-.4-.22-.59l-.06-.17-.24-.61a.58.58,0,0,1,0-.14l-.26-.62a.42.42,0,0,0,0-.1l-.27-.64,0-.07c-.2-.47-.4-.92-.6-1.36h0c-1-2.12-1.92-3.9-2.64-5.16-.52-.61-1-1.22-1.6-1.81l0,0c-9.33-7.5-17.83-9.52-17.83-9.52C79,19.67,75,17.89,73.13,17.17l-.16.41c1.93.76,5.34,2.32,7.36,4.58l-.35.17-.45.21-.63.3-.37.18-.74.39-.17.09-.83.47-.25.15-.52.32-.27.17c-.14.09-.29.18-.42.28l-.25.16-.39.27-.21.15-.36.27-.16.12-.42.34,0,0c-.15.12-.28.24-.4.35l-.08.06-.26.24-.1.09-.18.18-.09.09-.14.15a.46.46,0,0,0-.07.07l-.11.12,0,.05,0,0a50.49,50.49,0,0,0-20.85,0l-.07-.05L51,27.56l-.17-.12-.12-.08a2.71,2.71,0,0,0-.25-.17l-.11-.08-.44-.29-.11-.07-.39-.25-.2-.12-.38-.23L48.6,26l-.4-.23-.26-.15-.44-.24-.28-.16L46.73,25l-.27-.13c-.21-.11-.42-.22-.64-.32l-.16-.08-.83-.38L44.6,24,44,23.68l-.33-.13-.57-.21-.36-.13L42.13,23l-.38-.12-.23-.07A14.53,14.53,0,0,1,46.64,19l-.19-.4C42,20.78,40.81,23.1,40.81,23.1s-7.45,2.52-16.17,10.09L24,34h0c-.67.8-1.31,1.62-1.93,2.46a.91.91,0,0,1-.07.14l-.2.39-.24.48-.21.42c-.08.17-.17.35-.25.53s-.14.29-.21.45-.17.37-.25.57l-.21.47-.25.61c-.06.16-.13.32-.2.49l-.24.64c-.06.17-.12.34-.19.51s-.15.45-.22.68l-.18.52-.21.71-.15.52c-.06.25-.12.5-.19.75l-.12.52c-.06.25-.11.51-.16.76s-.07.35-.1.53-.09.52-.12.79-.06.34-.08.52-.05.54-.07.81,0,.3-.05.45c-.54.66-3.07,4-5.22,10.84-.08.75-.15,1.5-.2,2.25h0c2.46-9.14,5.85-12.91,5.85-12.91l10.11,5.35V76.48l-9.8,6.12a35.6,35.6,0,0,1-6.11-12.78c.06.81.14,1.62.24,2.42A35.48,35.48,0,0,0,18.2,82.77c0,.17.06.51.13,1h0a2.23,2.23,0,0,0,0,.23v.09c0,.07,0,.15,0,.22s0,.09,0,.14a1.43,1.43,0,0,1,0,.22l0,.16c0,.08,0,.15,0,.23a1.29,1.29,0,0,0,0,.19c0,.08,0,.16,0,.24s0,.14.05.21a2.21,2.21,0,0,1,0,.25l.06.23.06.26.06.24L19,87a2.68,2.68,0,0,1,.07.27,2.68,2.68,0,0,1,.07.27,2.45,2.45,0,0,1,.08.29c0,.09.05.18.08.27l.09.32c0,.09.05.18.08.27l.12.38.07.22c.07.2.13.41.2.62a2,2,0,0,1,.08.22l.15.42.1.27.14.39.12.29.15.38.12.31c.05.13.11.25.16.38s.09.21.14.31.11.26.17.39.09.21.14.32l.18.39c.06.11.11.22.16.33s.13.25.2.39.11.21.16.32l.21.4.18.33.22.41a3.37,3.37,0,0,0,.19.32l.24.42.05.09c.61.77,1.23,1.52,1.88,2.26l.08-.08s8,7,17,9.64c0,0,.67,2.82,8.39,5.8a48.77,48.77,0,0,0,9.17,1.37h0l.49,0,.54,0,.54,0c.46,0,.92,0,1.4,0a49.67,49.67,0,0,0,14.2-2.11,17.65,17.65,0,0,0,6.55-5.13,39.28,39.28,0,0,0,16.36-9.51c.54-.61,1.06-1.24,1.58-1.87l.32-.62h0c.08-.14.15-.29.23-.44v0c.07-.15.15-.3.22-.46l.05-.09.2-.41a.42.42,0,0,1,0-.1l.21-.44a.61.61,0,0,1,.05-.12l.2-.45.06-.14c.07-.15.14-.3.2-.45a1.11,1.11,0,0,0,.07-.16c.07-.15.13-.31.2-.46a1.08,1.08,0,0,1,.08-.19l.18-.46.09-.22.18-.45c0-.09.07-.18.1-.26l.17-.44c0-.1.07-.19.1-.29s.11-.29.16-.44l.11-.3c0-.15.1-.29.16-.44s.07-.23.11-.35.1-.28.14-.43l.12-.37.14-.42.12-.41.12-.4c0-.15.09-.3.13-.44s.07-.27.11-.4.09-.32.13-.48.07-.25.1-.38.09-.33.13-.5l.09-.37c0-.18.08-.36.13-.54s0-.24.08-.36l.12-.57c0-.1,0-.2.07-.31A35.46,35.46,0,0,0,112,72.25c.1-.81.19-1.62.25-2.43ZM95.63,55.44c.09.45.17.9.24,1.34V74.55c-.1.85-.2,1.45-.24,1.71l-.43.37-.67.56-.22.17-.46.37-.26.2-.42.32-.28.21-.4.3L92.2,79l-.39.28-.3.2-.38.27-.3.2-.38.26-.3.19-.38.25-.3.19L89.1,81l-.3.18-.37.23-.29.17-.36.22-.29.16-.36.21-.65.36-.23.13-.39.21-.21.11-.38.21-.21.11-.37.19-.21.1-.36.18-.19.1-.35.17-.19.09-.34.16-.17.09-.33.15-.16.08-.31.14-.17.07-.28.13-.19.09-.22.09-.32.14-.06,0c-.92.39-1.57.64-1.88.75L62.67,75.63V55.47l16.72-9.88.23-.14.61.22.69.25c.23.08.46.18.68.28l.67.27.67.31.65.3.65.33.63.32.62.34.61.34.58.34.61.37c.18.1.35.21.52.32l.61.39.45.3.63.42.34.24c.22.16.45.31.66.47l.23.16.71.53a.18.18,0,0,1,.07,0c1.75,1.32,3,2.46,3.72,3.07Zm-33.4,21,16.2,10.4c-.89,6.8-4.86,14.23-5.63,15.61a45.51,45.51,0,0,1-10.1,1.1h0a46,46,0,0,1-10.29-1.1A42.94,42.94,0,0,1,46,86.8ZM45.51,86.09l-.79-.3-.06,0-.21-.08-.1,0-.21-.09L44,85.49l-.23-.1-.15-.06-.24-.11-.18-.08L43,85l-.2-.09-.25-.12-.22-.1L42,84.61l-.23-.11-.28-.13-.25-.12L41,84.11,40.7,84l-.3-.15-.28-.14-.61-.31-.27-.14-.32-.17-.3-.16-.32-.18a3.07,3.07,0,0,1-.31-.17l-.33-.18-.32-.18L37,82l-.33-.19-.34-.2-.33-.2a3.13,3.13,0,0,1-.34-.21l-.34-.2L35,80.79l-.34-.21-.35-.23L34,80.13l-.36-.24-.34-.23-.35-.24-.35-.25-.35-.24-.35-.26-.34-.25-.4-.3-.55-.43-.41-.33-.32-.26-.36-.3-.33-.28-.28-.24V55.41l.25-.24.06-.05L29.3,55c.35-.31.85-.75,1.48-1.28h0l.39-.32h0l.41-.34h0l.44-.35,0,0c1.1-.87,2.44-1.85,3.95-2.84l0,0,.6-.38.11-.07.54-.34.16-.09.51-.31.19-.11.5-.28.21-.12.5-.27.22-.12.5-.26.23-.12.51-.25L41.1,47l.54-.25.21-.09q.38-.18.75-.33h0l.77-.31.24-.09.53-.2.31-.11.38-.13,16.95,10V75.63Zm27.27-58,.06-.06.13-.14.07-.07.25-.24,0,0,.26-.24.12-.1L74,27l.16-.13.27-.22.18-.14.34-.25.18-.13.55-.39,0,0,.66-.43.2-.13.53-.32.27-.16.54-.3a3.07,3.07,0,0,1,.31-.17l.62-.33.29-.15L80,23.3l.11-.05,1-.45a50.77,50.77,0,0,1,17.46,9.35l.12.19,0,0a1,1,0,0,1,.09.15l0,0c0,.05.07.11.11.17l0,.05.11.19,0,.07.12.2.06.1.11.2.08.13.13.22.08.13c0,.08.08.16.13.24l.09.16.14.24a1.62,1.62,0,0,0,.1.18,1.82,1.82,0,0,0,.15.27l.09.18.16.3.1.18.17.32.1.19c0,.1.11.21.16.32a1.51,1.51,0,0,1,.11.22c.07.12.13.25.19.38l.09.17c.19.39.39.78.58,1.2,0,0,0,.1.07.16s.15.31.22.47a2,2,0,0,0,.1.21l.2.44.1.24c.06.15.13.29.19.43l.11.27.18.42.12.29.17.42.12.3c0,.14.11.29.17.43s.07.2.11.31.11.29.17.44.07.2.11.31l.16.45c0,.1.07.21.11.31l.15.46c0,.11.07.22.11.32l.15.47c0,.11.07.22.1.32l.15.48.09.33c0,.16.09.32.14.48l.09.34.13.49c0,.11,0,.22.08.33l.12.5c0,.11,0,.22.08.33s0,.22.07.32l-9.58,5.08-.54-.32c-.58-.53-1.61-1.44-3-2.51l-.13-.1-.74-.57L91.68,51l-.7-.52-.33-.23L90,49.8l-.39-.26-.7-.47-.44-.28-.7-.44-.49-.29-.72-.43L86,47.34l-.73-.4-.56-.29L84,46.28l-.6-.28-.74-.34L82,45.4c-.25-.1-.49-.21-.74-.3s-.44-.16-.66-.24L80,44.63c-1.26-7.07-6.1-14.73-7.24-16.46Zm-21.44.42a49.62,49.62,0,0,1,20.57,0c.91,1.37,5.91,9.12,7.18,16.22l-16.86,10L45.51,44.82l-.12-.07C45.84,42.88,48.27,33.19,51.34,28.53ZM28.4,54.64l0,0-9.56-5.07c0-.2,0-.41.05-.61s0-.35.05-.52l.12-.76c0-.17,0-.34.08-.51s.09-.51.15-.76.06-.33.1-.5.12-.5.19-.75l.12-.48c.07-.25.15-.5.22-.75s.09-.31.14-.46l.24-.73.15-.44.27-.72.15-.4.3-.73c.05-.11.09-.23.14-.34s.23-.51.34-.77l.11-.24q.2-.44.39-.84l.06-.11c.3-.62.59-1.18.87-1.69a.31.31,0,0,1,0-.1l.34-.62.12-.2.24-.42.14-.24.17-.28.15-.24.1-.16.09-.1v0l.46-.54L25,33.5a55.13,55.13,0,0,1,15.87-9.94c.28.07.56.15.83.24l.14,0,.75.25.31.12.56.21.34.14.52.22.33.14.52.24.29.14.63.32.15.07.7.37.26.14.42.24.28.16.36.21.25.15.33.2.22.14.33.21.16.1.39.26.16.11.19.12.14.11.07,0c-3.16,5-5.54,14.67-5.94,16.38l-.14,0q-.66.23-1.32.48l-.09,0c-.43.17-.86.36-1.28.54l-.14.06-1.24.59-.22.11c-.39.2-.79.4-1.17.61l-.22.12c-.38.21-.76.42-1.13.64l-.17.1-1.13.68,0,0-1.08.7-.15.1-1,.66-.18.13-.89.64-.16.12c-.29.21-.57.42-.83.63l-.11.08-.74.58-.07.05-.67.55-.12.1-.56.47-.12.11-.46.39-.1.09-.35.32-.08.07ZM42,108.3c-8.44-2.49-16-9-16.62-9.47q-.26-.35-.48-.69L24.8,98l-.36-.55-.17-.26L24,96.73c-.06-.1-.12-.2-.17-.3s-.17-.27-.25-.41-.11-.2-.17-.3-.15-.27-.22-.4L23,95c-.06-.13-.13-.26-.2-.39l-.16-.31-.19-.39-.15-.3c-.06-.13-.12-.27-.19-.4L22,92.94l-.21-.46-.09-.21-.27-.64-.09-.23L21.19,91c0-.09-.07-.18-.11-.28s-.09-.24-.13-.35-.07-.19-.1-.28l-.12-.35-.09-.27c0-.11-.08-.22-.11-.33l-.09-.27c0-.11-.07-.21-.1-.32s-.05-.17-.08-.25L20.17,88c0-.08-.05-.16-.07-.24L20,87.4,20,87.18c0-.13-.06-.25-.1-.38l0-.13q-.06-.26-.12-.48c0-.06,0-.1,0-.15s-.05-.22-.08-.32l0-.17c0-.09,0-.19-.06-.27a.85.85,0,0,0,0-.17c0-.08,0-.17,0-.25l0-.15c0-.08,0-.16-.05-.24s0-.09,0-.13a1.85,1.85,0,0,1,0-.23l0-.11,0-.22,0-.09,0-.24v0c0-.25-.06-.44-.07-.59L28.38,77l.27.23.29.24.42.35.27.22.46.37.24.18c.18.15.37.29.56.43l.14.1.71.52a1.09,1.09,0,0,1,.17.13l.54.37a2.2,2.2,0,0,0,.25.17l.45.31.28.19.43.28.29.18.41.26.29.19.4.24.3.18.39.24.29.17.39.22.28.16.39.22.26.15.42.23.22.12.46.24.17.09,1.21.62.12.06.45.22.18.09.37.18.18.08.35.16.16.08.34.15.14.07.34.15.11,0,.37.16,0,0c1,.41,1.66.68,2,.81a44.09,44.09,0,0,0,6.37,15.8l-.28.23-.34.26-.47.35c-.11.08-.21.17-.32.24l-.5.35-.3.21-.55.36-.24.16c-.23.15-.45.29-.68.42l-.1.07c-.53.32-1,.62-1.54.89l-.09,0-.62.34-.12.06-.56.29-.1.05-.54.27-.06,0-.53.26h0C42.83,108,42.27,108.19,42,108.3Zm34.63,5.18a49.51,49.51,0,0,1-14,2.08H61.53l-1.41,0-.49,0a48.66,48.66,0,0,1-9-1.34c-5.78-2.23-7.49-4.35-8-5.15l.35-.16.08,0,.33-.15.13-.06.35-.16.17-.08.38-.18.19-.09.45-.23.17-.08,1.37-.73.2-.11.53-.3.26-.16.5-.29.29-.18.49-.31.3-.19.53-.35L50,105l.64-.45.16-.11c.26-.19.53-.39.79-.6l.18-.13.51-.41A46.17,46.17,0,0,0,62.7,104.4h0A46.54,46.54,0,0,0,73,103.28l0,0,0,0a.79.79,0,0,1,.15.12l.09.07.19.14.11.09.25.18L74,104l.35.25.09.06c.16.12.33.24.52.36l0,0,.54.36.17.11.47.3.23.14.49.3.26.16.54.31.27.16.66.36.21.12c.61.33,1.26.67,2,1l.26.13.81.38.36.16.46.22A17.52,17.52,0,0,1,76.64,113.48Zm28.89-30.27c0,.1,0,.2-.07.3s-.09.39-.14.59l-.06.28-.15.6-.06.24c-.06.22-.12.43-.17.64a1.21,1.21,0,0,0,0,.18c-.07.26-.14.5-.21.75l0,.06c-.24.81-.49,1.59-.74,2.34l0,0-.24.67,0,.13-.21.57-.06.16c-.07.17-.13.35-.2.51s0,.13-.07.19-.12.31-.19.47,0,.12-.07.19l-.18.43a1.67,1.67,0,0,0-.08.2l-.18.41c0,.06,0,.13-.08.19s-.11.26-.17.38-.06.13-.08.19-.11.25-.17.37l-.08.18-.16.34-.08.17-.16.33a1.19,1.19,0,0,1-.08.16l-.15.31-.07.15-.15.29-.07.14-.14.26-.07.14-.12.23a.64.64,0,0,1-.08.14l-.1.2-.08.14-.09.17-.08.13,0,.09c-.34.6-.58,1-.65,1.1a39.55,39.55,0,0,1-16,9.33l-1-.46-.27-.13-.78-.37-.37-.18-.62-.31-.37-.19-.58-.31-.33-.18-.59-.33-.24-.13-.77-.45-.11-.07-.59-.36-.22-.14-.43-.27-.21-.14-.37-.25-.19-.12-.35-.25-.13-.09-.41-.29,0,0-.31-.23-.1-.08-.17-.13-.1-.08,0,0c.94-1.73,4.77-9,5.65-15.79h0l.06,0,.12,0,.08,0,.14-.06.1,0,.15-.06.13,0,.18-.07.13-.05.21-.09.14-.06.33-.14.19-.08.25-.11.19-.08.25-.11.21-.1.25-.11.23-.11.26-.12.25-.11.27-.13.25-.13.29-.13.26-.13.3-.15.28-.14.29-.15.3-.15.3-.16.3-.16.33-.18.29-.16.42-.23.36-.2.49-.28.27-.16.39-.23.29-.17.37-.23.32-.19.36-.23.32-.2.36-.24a3.53,3.53,0,0,0,.32-.21l.37-.24.32-.22.38-.26.31-.22.38-.27.32-.22.38-.29.31-.23.42-.32.26-.21c.17-.13.34-.26.5-.4l.19-.14.66-.55L96.3,77l9.31,5.81C105.58,83,105.55,83.08,105.53,83.21Z" style="fill:#a6a8ab"/><path d="M79.37,45.09l-.2.11Z" style="fill:#19191b"/><path d="M73.09,102.8h0Z" style="fill:#19191b"/><path d="M62.23,55.22c4.77-3,14.8-8.79,16.94-10Z" style="fill:#19191b"/><path d="M62.6,116h-.23l-1.17,0C61.66,116,62.12,116,62.6,116Z" style="fill:#f05a28"/><path d="M45.29,45.2c2.14,1.23,12.17,7,16.94,10Z" style="fill:#19191b"/><path d="M60.66,116l.54,0Z" style="fill:#f05a28"/><path d="M59.63,115.93l.49,0Z" style="fill:#f05a28"/><path d="M45.29,45.2l-.19-.11Z" style="fill:#19191b"/><path d="M112.26,62.78c-2.46-9.14-5.85-12.91-5.85-12.91l-10.1,5.35V76.48l9.8,6.12a35.77,35.77,0,0,0,6.11-12.78q.15-1.89.15-3.81C112.37,64.92,112.33,63.85,112.26,62.78Z" style="fill:#ccc"/><path d="M73.13,17.17A49.88,49.88,0,0,1,98.88,31.85c-9.33-7.5-17.83-9.52-17.83-9.52C79,19.67,75,17.89,73.13,17.17Z" style="fill:#ccc"/><path d="M99.71,99.25A49.9,49.9,0,0,1,76.8,113.89a17.65,17.65,0,0,0,6.55-5.13A39.28,39.28,0,0,0,99.71,99.25Z" style="fill:#ccc"/><path d="M72.18,28.15h0a49.57,49.57,0,0,0-21.12,0C47.55,33.34,44.89,45,44.89,45l.21.12.19.11c2.14,1.23,12.17,7,16.94,10,4.77-3,14.8-8.79,16.94-10l.2-.11.21-.12C78.28,37.14,72.36,28.42,72.18,28.15Z" style="fill:#ccc"/><path d="M62.23,75.87,45.56,86.58a42.84,42.84,0,0,0,6.58,16.22,48,48,0,0,0,21,0h0c.29-.52,4.92-8.79,5.81-16.2Z" style="fill:#ccc"/><path d="M24.64,33.19a50.12,50.12,0,0,1,21.81-14.6C42,20.78,40.81,23.1,40.81,23.1S33.36,25.62,24.64,33.19Z" style="fill:#ccc"/><path d="M18.32,49.87s-3.39,3.77-5.85,12.91c-.07,1.07-.1,2.14-.1,3.23q0,1.92.15,3.81A35.6,35.6,0,0,0,18.63,82.6l9.8-6.12V55.22Z" style="fill:#ccc"/><path d="M25.06,99.12s8,7,17,9.64c0,0,.67,2.82,8.39,5.8A49.86,49.86,0,0,1,25,99.2Z" style="fill:#ccc"/><path d="M34.41,64.72A61,61,0,0,0,61,115.15c1.06.06,2.13.11,3.2.11a49.46,49.46,0,0,0,7.65-.59A58.06,58.06,0,0,1,68.63,17c-1.46-.13-2.93-.21-4.43-.21a50.32,50.32,0,0,0-7.2.53A61,61,0,0,0,34.41,64.72Z" style="fill:#bababa"/><path d="M32.58,64.72a61,61,0,0,0,26.59,50.43c1.06.06,2.12.11,3.2.11a49.33,49.33,0,0,0,7.64-.59A58.05,58.05,0,0,1,66.8,17c-1.46-.13-2.94-.21-4.43-.21a50.21,50.21,0,0,0-7.2.53A61,61,0,0,0,32.58,64.72Z" style="fill:url(#radial-gradient)"/><path d="M101.36,94.05A64.19,64.19,0,0,0,71.25,17.87a49.53,49.53,0,0,0-8.49-1.07A64.22,64.22,0,0,1,98.07,74.15,63.85,63.85,0,0,1,89.59,106,49.56,49.56,0,0,0,101.36,94.05Z" style="fill:#bababa"/><path d="M62.37,99C80,99,95.93,93.64,107.46,85.09a48.87,48.87,0,0,0,3-9.3c-11.68,9.95-28.9,16.26-48.12,16.26S25.93,85.74,14.25,75.79a48.87,48.87,0,0,0,3,9.3C28.81,93.64,44.74,99,62.37,99Z" style="fill:#bababa"/><path d="M62.37,99.68c17.63,0,33.56-5.32,45.09-13.87a48.87,48.87,0,0,0,3-9.3c-11.68,9.95-28.9,16.26-48.12,16.26S25.93,86.46,14.25,76.51a48.87,48.87,0,0,0,3,9.3C28.81,94.36,44.74,99.68,62.37,99.68Z" style="fill:url(#radial-gradient-2)"/><path d="M102.85,94.05A64.23,64.23,0,0,0,72.73,17.87a49.28,49.28,0,0,0-8.49-1.07A64.22,64.22,0,0,1,91.08,106,49.92,49.92,0,0,0,102.85,94.05Z" style="fill:url(#radial-gradient-3)"/><path d="M21.42,36.6C14.5,37.51,11,43.39,9.58,47.42c-10.91,29.93,16.54,37,16.54,37l.81,7-.8.88S-7.42,79.54,6.51,45.93C9.7,38.25,19.39,36.05,21.86,36Z" style="fill:#433e40"/><path d="M21.86,36c-8.2,1-11.94,8.4-13.41,12.42C-2.46,78.36,25,85.4,25,85.4l1.14,6.89S-9.16,80.34,5.38,47C10.05,36.24,21.86,36,21.86,36Z" style="fill:#237a33"/><path d="M24.73,90.64c-4.11-1.79-14.25-7-19.07-16.77-3.81-7.72-3.55-16.65.76-26.56a16.29,16.29,0,0,1,5-6.43,25.23,25.23,0,0,0-4,7.24C3.69,58.28,3.91,67,8,74c4.83,8.18,13.44,11.39,16,12.18Z" style="fill:none;stroke:#fff;stroke-width:0.4px;stroke-dasharray:2"/><path d="M62.22,116c3.87,2.1,11.85,1.16,16,.43C98.53,112.86,98.74,87,98.74,87l6.3-3.65s4.48,36.44-31.38,35.61c-6.8-.16-11.88-1.74-13.67-2.85A8.31,8.31,0,0,1,62.22,116Z" style="fill:#433e40"/><path d="M59.88,115.93c5.15,2.88,14.19,2.27,18.36,1.54,20.29-3.58,21.59-30.32,21.59-30.32L106,83.83s3.57,37-32.29,36.13C62.16,119.69,59.88,115.93,59.88,115.93Z" style="fill:#237a33"/><path d="M88.05,115.59c10.88-7.56,13.23-22.89,13.68-27.2L104,87.14c-.08,5.11-1.14,15.43-7.71,22.65A23.22,23.22,0,0,1,88.05,115.59Z" style="fill:none;stroke:#fff;stroke-width:0.4px;stroke-dasharray:2"/><path d="M60.66,116a16.11,16.11,0,0,1-2.92.19c-7.15,2.69-24.28,3.87-34.78-8.8C2.46,82.61,28.9,58.09,37.91,48c2.51-2.8,16.93-17.5,16.93-17.5l-.9-1.23S31.77,44.4,28.81,46.71c-5,3.89-32.41,34.85-9.5,63.34C32.27,126.15,60.66,116,60.66,116Z" style="fill:#433e40"/><path d="M60.66,116c-11.71,3.64-28.08,4.58-39-9.47C2,81.1,27.61,57.22,36.62,47.14c2.51-2.8,17.32-17.86,17.32-17.86l-10.28,0S30.48,43.54,27.52,45.85c-5,3.89-31.67,34.27-9.5,63.33C32.74,128.49,60.66,116,60.66,116Z" style="fill:#2a933d"/><path d="M20.61,57.06a47.89,47.89,0,0,1,8.14-9.63c2.71-2.12,12.76-12.91,15.7-16.09l4.78.54C44.79,36.16,37,43.77,35.13,45.81c-.67.75-1.43,1.57-2.25,2.47A120.13,120.13,0,0,0,21,62.82h0C10.18,78.92,9.88,94,20.07,107.69a31.62,31.62,0,0,0,6.44,6.55,24.05,24.05,0,0,1-6.9-6.27c-15.32-20.09-5.95-40.52,1-50.91Z" style="fill:none;stroke:#fff;stroke-width:0.4px;stroke-dasharray:2"/><path d="M32.35,26c.12-.41.83-.45,1.14-.84,4.13-8.43,11.43-14.34,27.88-14,32.13.7,34.08,29.58,35.81,43,.48,3.72,1,22.58,1,22.58l2,.88s3.72-25.75,3.91-29.5c.32-6.31-4.38-40-40.93-39.57C37.21,8.88,32.35,26,32.35,26Z" style="fill:#433e40"/><path d="M32.35,26c3.2-7.43,12.33-16.78,31.23-15.4C95.64,13,97,40.36,98.68,53.77c.47,3.72,1.52,23.87,1.52,23.87l6.61-4.35s-1-21.81-1.2-25.56c-.43-7.56-5.19-39.37-41.67-41.63C39.71,4.6,32.35,26,32.35,26Z" style="fill:#2a933d"/><path d="M102,74.05c-.32-6-1-17.71-1.35-20.54q-.15-1.15-.3-2.46C98.68,37,95.56,11,63.73,8.62c-1.29-.09-2.58-.14-3.81-.14a45.51,45.51,0,0,0-5.52.33A31.68,31.68,0,0,1,61.54,8c.74,0,1.51,0,2.28.07C100.43,10.37,103.4,44,103.61,47.84c.19,3.21.94,19.87,1.15,24.4Z" style="fill:none;stroke:#fff;stroke-width:0.4px;stroke-dasharray:2"/><path d="M105.43,40.6c.37.21.48.92.77,1.33,7.47,4.6,16.83,13.24,12.14,29-9.16,30.81-44.25,22.47-57.64,20.59-3.72-.52-24-4.34-24-4.34l-.51,1.44s24.89,10,28.46,11.18c6,2,47,7.55,57.92-27.33C128.78,52.76,105.43,40.6,105.43,40.6Z" style="fill:#433e40"/><path d="M105.43,40.6c7.47,4.49,19.24,14,12.91,31.89C107.61,102.79,74.09,95,60.7,93.08c-3.72-.52-24.47-4.45-24.47-4.45l5.68,8.56s19.21,3,22.78,4.18c6,2,46.09,7.25,57.92-27.34C130.46,51.06,105.43,40.6,105.43,40.6Z" style="fill:#2a933d"/><path d="M77.85,100.87a47.85,47.85,0,0,1-12.53-1.4c-3.27-1.08-17.83-3.43-22.1-4.1L41,91.1c6,1.3,16.7,3.58,19.41,4,1,.14,2.11.31,3.31.5a120.36,120.36,0,0,0,18.71,1.82h0c19.37,0,32.09-8.15,37.78-24.22a31.7,31.7,0,0,0,1.86-9,24.06,24.06,0,0,1-1.38,9.22c-8.17,23.91-30.36,27.48-42.86,27.48Z" style="fill:none;stroke:#fff;stroke-width:0.4px;stroke-dasharray:2"/></svg>
