<svg class="S" xmlns="http://www.w3.org/2000/svg" xmlns:xlink="http://www.w3.org/1999/xlink" viewBox="0 0 126 126"><defs><linearGradient id="linear-gradient" x1="36.96" y1="116.3" x2="57.77" y2="116.3" gradientUnits="userSpaceOnUse"><stop offset="0" stop-color="#ffc4a0"/><stop offset="1" stop-color="#ed9277"/></linearGradient><linearGradient id="linear-gradient-2" x1="91.56" y1="111.71" x2="104.36" y2="111.71" gradientUnits="userSpaceOnUse"><stop offset="0" stop-color="#ed9277"/><stop offset="1" stop-color="#ffc4a0"/></linearGradient><linearGradient id="linear-gradient-3" x1="47.88" y1="71.55" x2="65.44" y2="71.55" xlink:href="#linear-gradient"/><linearGradient id="linear-gradient-4" x1="20.73" y1="49.88" x2="39.58" y2="49.88" xlink:href="#linear-gradient"/><linearGradient id="linear-gradient-5" x1="661.45" y1="24.48" x2="657.55" y2="35.98" gradientTransform="matrix(-1, 0, 0, 1, 728.61, 0)" xlink:href="#linear-gradient-2"/></defs><path d="M42.4,115A20.27,20.27,0,0,0,37,117.44s14.64,1.1,20.81-1.8Z" style="fill:url(#linear-gradient)"/><path d="M103.93,115.42a.62.62,0,0,0,.4-.3.65.65,0,0,0,0-.41q-.8-2.49-1.63-4.95a10.63,10.63,0,0,0-1.6-3.34.67.67,0,0,0-.39-.29.8.8,0,0,0-.52.18,33.6,33.6,0,0,0-5.49,4.21c-1.35,1.36-5.36,6.19-1.43,6.68C96.69,117.63,100.73,116.63,103.93,115.42Z" style="fill:url(#linear-gradient-2)"/><path d="M105.27,107.18A44,44,0,0,0,99,112.91a20.07,20.07,0,0,1-3.15,3.1c-2.47,1.76-5.7,2-8.73,2a56.85,56.85,0,0,1-10.35-1.61c0-1.53.18-3.11.18-4.65-1-1.31-2.1-2.4-3.16-3.64-1.79,3.78-5.64,6.25-9.66,7.37s-8.27,1-12.45,1-8.5-.48-12.73-.55C44.05,104.18,45,77.62,45,77.62A119.11,119.11,0,0,1,61.8,59.42a31.12,31.12,0,0,1-.15-5.79,90.3,90.3,0,0,1,18.49-1.45,6.7,6.7,0,0,1,3.9,1c3.3,2.56,3.94,7.4,6.66,10.57a2.06,2.06,0,0,1,.45.69,2,2,0,0,1,0,.88l-1.56,8.11C88.45,79.24,93.05,85,94.72,90.68a20,20,0,0,0,1.49,4,29.19,29.19,0,0,0,3.54,4.56A35.75,35.75,0,0,1,105.27,107.18Z" style="fill:#822f20"/><path d="M84.16,56.85a40.86,40.86,0,0,0,5.46,8.75C89.73,68.74,88,71.85,88.1,75L80.37,62.41a1.56,1.56,0,0,1-.28-.71,1.45,1.45,0,0,1,.36-.82C81.51,59.42,83.05,58.27,84.16,56.85Z" style="fill:#f6a714"/><path d="M53.57,69.82a13.76,13.76,0,0,0-2.23,1.05,7.65,7.65,0,0,0-1.78,1.72,6.84,6.84,0,0,0-1.66,4.65c.29.11.58-.15.76-.4.53-.74.86-1.61,1.34-2.38a3.2,3.2,0,0,1,2.11-1.62A8.94,8.94,0,0,0,49,78.3a.66.66,0,0,0,0,.44.48.48,0,0,0,.65.1,1.3,1.3,0,0,0,.42-.58,18.41,18.41,0,0,1,1.3-2.68,3.13,3.13,0,0,1,2.43-1.51c-1.43,1.2-3,2.56-3.25,4.41,0,.27,0,.63.26.7a.57.57,0,0,0,.51-.2c1.23-1.14,1.63-3.28,3.27-3.67.27,1.43-1.17,2.89-.64,4.24a.79.79,0,0,0,.9-.57,6.24,6.24,0,0,0,.19-1.16c.32-1.6,2.15-2.34,3.27-3.54s1.5-2.85,2.59-4c.93-1,2.24-1.54,3.26-2.44s1.67-2.53.83-3.6a1.88,1.88,0,0,0-1.89-.65c-.92.22-1,.89-1.49,1.47a13.72,13.72,0,0,1-2.52,1.73A35.21,35.21,0,0,1,53.57,69.82Z" style="fill:url(#linear-gradient-3)"/><path d="M29.91,48.81c-.39-.65-.58-1.41-.94-2.08a2.24,2.24,0,0,0-1.75-1.32.93.93,0,0,0-.06,1,6.2,6.2,0,0,0,.57.87,2.89,2.89,0,0,1,.39,2.2A8.56,8.56,0,0,1,23,44.74c-.08-.19-.18-.42-.39-.47a.54.54,0,0,0-.53.25c-.62.8-.11,2,.62,2.7a11.8,11.8,0,0,1,2.22,2.06,2.24,2.24,0,0,1-2.1-.71A6.61,6.61,0,0,0,21,47.11a1.21,1.21,0,0,0-.06,1.44,3.57,3.57,0,0,0,1.12,1l2.93,2a4.28,4.28,0,0,1-3.44-1,.66.66,0,0,0-.08.82,1.66,1.66,0,0,0,.69.56,10.68,10.68,0,0,0,3.94,1.2c-.42.73-1.48.6-2.31.5a.36.36,0,0,0-.27,0c-.27.17.11.54.42.6a52.38,52.38,0,0,0,10.21,1.24,7.21,7.21,0,0,0,4.63-1,1.86,1.86,0,0,0,.79-1.17,1.62,1.62,0,0,0-.66-1.39,3.56,3.56,0,0,0-1.49-.57c-1.41-.24-2.92.38-4.22-.08A6.38,6.38,0,0,1,29.91,48.81Z" style="fill:url(#linear-gradient-4)"/><path d="M66.46,29.1c-2.21.64-4.24,3-5.51,4.82a41.84,41.84,0,0,1-9,9.3,43.47,43.47,0,0,1-10.79,5.94,18,18,0,0,1-6.77,1.41c.52,4.71.75,9.44,1.28,14.15A28.4,28.4,0,0,0,57.1,52.24c2.27-3.41,3.8-7.33,6.53-10.38a22.41,22.41,0,0,0,2.89-3.36,13.46,13.46,0,0,0,1.41-4.89C68.18,32,67.83,30.05,66.46,29.1Z" style="fill:#f6a714"/><path d="M82,58.82c-2.1.12-4-1.23-5.89-2a12,12,0,0,0-7.83-.44,16,16,0,0,1-3.16.83,4.93,4.93,0,0,1-5-3.89c-.3-1.62,1.17-3.08,1-4.73A27.6,27.6,0,0,1,67,29a13,13,0,0,1,3-2.29,5,5,0,0,1,3.22-1.2,11.14,11.14,0,0,1,2.09.56,5.08,5.08,0,0,0,1.23.18c.15.64.19,1.29.34,1.92,1.9,1.13,3.79,2.21,5.59,3.48a7.2,7.2,0,0,1,1.76,1.58,6.85,6.85,0,0,1,1,2.69,41.34,41.34,0,0,1,.14,14.92A17.76,17.76,0,0,1,82,58.82Z" style="fill:#f6a714"/><path d="M76.48,26.24a5.08,5.08,0,0,1-1.23-.18,11.14,11.14,0,0,0-2.09-.56,5,5,0,0,0-3.22,1.2c-.42.29-.85.55-1.27.83a23.17,23.17,0,0,0,3.7,4.36l2.19-3.23Z" style="fill:#d49011"/><path d="M68.67,27.53A7.29,7.29,0,0,0,67,29a27.6,27.6,0,0,0-5.82,19.56,3.21,3.21,0,0,1-.05.82l5.5-9,5.79-8.52A23.17,23.17,0,0,1,68.67,27.53Z" style="fill:#f6a714"/><path d="M71.84,22.54V27c.7.59,2.14,1,2.72,1.67-1.58,2.6-3.78,5.16-5.43,7.72-.87,1.34-1.71,2.68-2.55,4a19.21,19.21,0,0,0-.34-3.2,59.59,59.59,0,0,1-1.13-6.89,3.42,3.42,0,0,1,.58-1.93c.93-2,2-4.36,4-5.33C70.27,22.82,71.46,23,71.84,22.54Z" style="fill:url(#linear-gradient-5)"/><path d="M71,23.57v3.87c-1.35,1.24-3.56,3.33-5,4.4-2,1.42-3,.77-5.12-.09-.56-.23-1.41-.45-1.63-1.09-.15-.42.15-1.23.17-1.69a48.31,48.31,0,0,0-1.65-14.06c-.27-1.06-.4-1.86.77-2.5a12.39,12.39,0,0,1,5.92-1c2,.13,5,.82,6.3,2.49,1,1.35.69,3.7.61,5.28C71.28,20.51,71,22.2,71,23.57Z" style="fill:#ffc4a0"/><path d="M73,18.3c.28-1.1,1.14-2.76.66-3.81-.56-1.24-.59-2.43-1.46-3.6-3.62-4.79-10.52-3-14,.93a6.22,6.22,0,0,0-1.4,2.62,2.27,2.27,0,0,0,1.31.6c1.84.28,3.61-.66,5.27-1.5s3.56-1.63,5.32-1a2.17,2.17,0,0,1,1,.65,2.57,2.57,0,0,1,.49,1.12,18.72,18.72,0,0,1,.12,3.18,4.32,4.32,0,0,0,1,2.94,4.21,4.21,0,0,0,1.48.89l.11,0a7.55,7.55,0,0,0,.12-1.21C73.12,19,72.79,19.33,73,18.3Z" style="fill:#3b605f"/><path d="M70.44,21.26c0,.34.06-.3.08-.39.07-.36.15-.71.23-1.07a6.41,6.41,0,0,1,.37-1.51,1.45,1.45,0,0,1,2.33-.2c1.21,1.23-.61,5.43-2.23,5.85C70,24.27,70.27,22.42,70.44,21.26Z" style="fill:#ffc4a0"/><path d="M73.51,20.25c.25-.62-.28-1.65-.87-1.11a4.46,4.46,0,0,0-.85,1.61c0,.28.31.54.23.83s-1,.38-1,.9.43.49.72.4c1.46-.44.57-1.73.58-2.69,0-.31.2-1,.62-.92.59.17.29,1.33.25,1.71C73.15,20.82,73.21,20.71,73.51,20.25Z" style="fill:#f86"/><path d="M65.93,80.53a48.46,48.46,0,0,0-5.8-15.24,71,71,0,0,0,9.4-7.42A26.15,26.15,0,0,0,76.14,48C77,45.61,77.33,43.1,78,40.68a13.55,13.55,0,0,1,3.56-6.55c.4-.36,1.14,0,1.55.4a3.16,3.16,0,0,1,.78,1.41c1.34,3.93,1.56,8.13,1.67,12.28a42.5,42.5,0,0,1-.21,6.58,29.8,29.8,0,0,1-6.94,14.7A79.84,79.84,0,0,1,66.35,80.67C66.43,80.46,66,80.74,65.93,80.53Z" style="fill:#f6a714"/><path d="M76.48,26.24l-1.92,2.42-8,11.75-5.5,9c-.25,1.32-1.22,2.56-1,3.91a3.88,3.88,0,0,0,.18.69c5.65-10.68,16.53-25.81,16.53-25.81C76.67,27.53,76.63,26.88,76.48,26.24Z" style="fill:#d49011"/></svg>
