<svg class="S" xmlns="http://www.w3.org/2000/svg" xmlns:xlink="http://www.w3.org/1999/xlink" viewBox="0 0 126 126"><defs><radialGradient id="radial-gradient" cx="70.26" cy="114.35" r="0.02" gradientUnits="userSpaceOnUse"><stop offset="0" stop-color="#808184"/><stop offset="0.31" stop-color="#7d7e81"/><stop offset="0.53" stop-color="#747578"/><stop offset="0.72" stop-color="#656668"/><stop offset="0.89" stop-color="#505152"/><stop offset="1" stop-color="#404041"/></radialGradient><radialGradient id="radial-gradient-2" cx="101.23" cy="33.11" r="0.11" xlink:href="#radial-gradient"/><radialGradient id="radial-gradient-3" cx="104.76" cy="37.95" r="0.04" xlink:href="#radial-gradient"/><radialGradient id="radial-gradient-4" cx="103.44" cy="36" r="0.05" xlink:href="#radial-gradient"/><radialGradient id="radial-gradient-5" cx="66.5" cy="114.77" r="0.11" xlink:href="#radial-gradient"/><radialGradient id="radial-gradient-6" cx="39.89" cy="109.45" r="0" xlink:href="#radial-gradient"/><radialGradient id="radial-gradient-7" cx="72.74" cy="15.94" r="0.1" xlink:href="#radial-gradient"/><radialGradient id="radial-gradient-8" cx="76.32" cy="16.81" r="0.07" xlink:href="#radial-gradient"/><radialGradient id="radial-gradient-9" cx="106.62" cy="41.08" r="0.02" xlink:href="#radial-gradient"/><filter id="luminosity-noclip" x="23.36" y="-8109" width="80.05" height="32766" filterUnits="userSpaceOnUse" color-interpolation-filters="sRGB"><feFlood flood-color="#fff" result="bg"/><feBlend in="SourceGraphic" in2="bg"/></filter><mask id="mask" x="23.36" y="-8109" width="80.05" height="32766" maskUnits="userSpaceOnUse"><g style="filter:url(#luminosity-noclip)"/></mask><linearGradient id="linear-gradient" x1="63.38" y1="-4.04" x2="63.38" y2="76.86" gradientUnits="userSpaceOnUse"><stop offset="0" stop-color="#fff" stop-opacity="0.4"/><stop offset="0.01" stop-color="#fff" stop-opacity="0.39"/><stop offset="0.32" stop-color="#fff" stop-opacity="0.22"/><stop offset="0.6" stop-color="#fff" stop-opacity="0.1"/><stop offset="0.84" stop-color="#fff" stop-opacity="0.03"/><stop offset="1" stop-color="#fff" stop-opacity="0"/></linearGradient><radialGradient id="radial-gradient-10" cx="90.01" cy="-255.08" r="30.05" gradientTransform="matrix(1, 0, 0, -1, 0, -164)" gradientUnits="userSpaceOnUse"><stop offset="0.08" stop-color="#ffe100"/><stop offset="0.18" stop-color="#ffda00"/><stop offset="0.34" stop-color="#ffc700"/><stop offset="0.43" stop-color="#ffb800"/><stop offset="0.51" stop-color="#f3a700"/><stop offset="0.67" stop-color="#d47b00"/><stop offset="0.68" stop-color="#d27800"/><stop offset="0.87" stop-color="#f08500"/></radialGradient><radialGradient id="radial-gradient-11" cx="92.29" cy="-256.86" r="26.9" gradientTransform="matrix(1, 0, 0, -1, 0, -164)" gradientUnits="userSpaceOnUse"><stop offset="0" stop-color="#ffe81a"/><stop offset="0.14" stop-color="#ffe115"/><stop offset="0.34" stop-color="#ffce08"/><stop offset="0.43" stop-color="#ffc200"/><stop offset="0.51" stop-color="#f9b300"/><stop offset="0.65" stop-color="#eb8f00"/><stop offset="0.87" stop-color="#fd9200"/></radialGradient><radialGradient id="radial-gradient-12" cx="91.75" cy="-256.72" r="28.37" gradientTransform="matrix(1, 0, 0, -1, 0, -164)" gradientUnits="userSpaceOnUse"><stop offset="0.01" stop-color="#ffcc12"/><stop offset="0.13" stop-color="#ffc512"/><stop offset="0.29" stop-color="#feb212"/><stop offset="0.38" stop-color="#fda412"/><stop offset="0.47" stop-color="#ee9612"/><stop offset="0.64" stop-color="#c87112"/><stop offset="0.65" stop-color="#c56e12"/><stop offset="0.87" stop-color="#e37b12"/></radialGradient></defs><g style="isolation:isolate"><g id="design"><circle cx="62.66" cy="64.92" r="50" style="fill:#58595b"/><path d="M59.93,111.16c.56-.15,1.11-.32,1.66-.5,1.38-.45,2.74-1,4.07-1.52a38.87,38.87,0,0,0,7.19,4.74c1.36-.28,2.7-.62,4-1a35.44,35.44,0,0,1-8.58-4.94A56.58,56.58,0,0,0,84.22,96a72.3,72.3,0,0,0,14.64-23.3,65.19,65.19,0,0,0,4.47-19.49,36.49,36.49,0,0,1,9.31,10.37c0-1.75-.18-3.48-.4-5.19a38.82,38.82,0,0,0-4.93-5.25,41.46,41.46,0,0,0-3.86-3c0-1.81,0-3.63-.21-5.44a36.93,36.93,0,0,1,7.35,5.95,52.33,52.33,0,0,0-1.89-5.27q-1.08-.86-2.19-1.65a42.09,42.09,0,0,0-3.66-2.28,53.52,53.52,0,0,0-2.17-9,50.47,50.47,0,0,0-4.81-4.89A49.08,49.08,0,0,1,100,40c-1-.49-2.12-.93-3.2-1.35A41.39,41.39,0,0,0,91.34,24a49.75,49.75,0,0,0-6.08-3.66A34.55,34.55,0,0,1,94,37.69,74.3,74.3,0,0,0,80.5,34.83a114.85,114.85,0,0,0-23.11-.71l.69-1.26A65.65,65.65,0,0,1,72,15.79c-1.08-.2-2.17-.37-3.28-.51A68.73,68.73,0,0,0,54.34,34.4c-1.6.17-3.2.39-4.78.65a71.21,71.21,0,0,1,3.73-7A73.21,73.21,0,0,1,63.43,14.93h-.77c-.95,0-1.89,0-2.82.08a75.81,75.81,0,0,0-13.4,20.62,67.87,67.87,0,0,0-21,7.9,55.93,55.93,0,0,0-11.06,8.54,50.94,50.94,0,0,0-1.06,5c8-9.61,19.74-15.68,32-18.48Q44.28,41,43.5,43.5A54,54,0,0,0,23.25,53,40.78,40.78,0,0,0,12.66,65.35,53,53,0,0,0,13,70.73,36.75,36.75,0,0,1,23.07,56.55a48.89,48.89,0,0,1,19.6-10.14l-.18.68a75.08,75.08,0,0,0,6.19,52.44c.91,1.77,1.94,3.64,3.09,5.49a39,39,0,0,1-23.87-4.16,50.34,50.34,0,0,0,6.91,5.6,42.24,42.24,0,0,0,15.66,1.33c1-.1,1.92-.23,2.87-.4.53.77,1.09,1.52,1.67,2.24a42.33,42.33,0,0,1-14.29.23,48.86,48.86,0,0,0,8,3.08,46.41,46.41,0,0,0,8.3-1,25.26,25.26,0,0,0,3.34,3c.77,0,1.55,0,2.33,0,1,0,2,0,3-.09A17.27,17.27,0,0,1,59.93,111.16Zm40.54-68a50.06,50.06,0,0,1,.37,5.34c-1.08-.64-2.18-1.24-3.31-1.79,0-.81,0-1.62-.09-2.44s-.13-1.75-.23-2.63C98.32,42.09,99.41,42.6,100.47,43.15Zm-3,6.44c1.13.58,2.23,1.22,3.3,1.91a61.69,61.69,0,0,1-3.18,17c-5.21,15.65-16.25,30.57-31.5,37.59q-.85-.78-1.65-1.59l-.38-.4a51.38,51.38,0,0,0,11.42-7A58,58,0,0,0,92.15,74.24,70.1,70.1,0,0,0,97.51,49.59ZM56,36.89A114.92,114.92,0,0,1,76.15,37a74.91,74.91,0,0,1,18.33,3.61c.22,1.63.36,3.28.43,5a58.34,58.34,0,0,0-13.69-3.74A100.85,100.85,0,0,0,54,41.6C54.6,40,55.27,38.43,56,36.89Zm6.06,6.67a104.86,104.86,0,0,1,14.83.3,58.85,58.85,0,0,1,18,4.49,69.06,69.06,0,0,1-4,21.86A57,57,0,0,1,76.38,92.88a48.4,48.4,0,0,1-14.09,9.21A53.44,53.44,0,0,1,52.44,83,65.4,65.4,0,0,1,53,44.34C56,43.94,59.05,43.7,62.06,43.56ZM48.3,37.94c1.56-.29,3.12-.53,4.7-.73Q51.94,39.57,51.07,42l-.69.11c-1.3.2-2.59.43-3.88.7C47,41.17,47.64,39.54,48.3,37.94Zm6.27,66.59c-1-1.52-1.88-3.06-2.68-4.5a73,73,0,0,1-8.2-24.26,71,71,0,0,1,1.93-30.11c.71-.16,1.41-.31,2.12-.45s1.6-.31,2.4-.44a64.92,64.92,0,0,0-2,8.29,68.38,68.38,0,0,0,1,27.91,57.53,57.53,0,0,0,10.55,22.1A40.53,40.53,0,0,1,54.57,104.53Zm1.57,2.29a45.19,45.19,0,0,0,5.38-1.65c.64.71,1.31,1.39,2,2A48.44,48.44,0,0,1,57.88,109C57.27,108.31,56.69,107.57,56.14,106.82Z" style="fill:#3e3e40"/><path d="M70.24,114.35h0Z" style="fill:url(#radial-gradient)"/><path d="M101.15,33c.07.07.13.15.19.22S101.22,33.09,101.15,33Z" style="fill:url(#radial-gradient-2)"/><path d="M104.74,37.92l.05.08Z" style="fill:url(#radial-gradient-3)"/><path d="M103.41,36l.08.11Z" style="fill:url(#radial-gradient-4)"/><path d="M66.37,114.79l.29,0Z" style="fill:url(#radial-gradient-5)"/><path d="M39.9,109.46h0Z" style="fill:url(#radial-gradient-6)"/><path d="M72.88,16l-.25-.05Z" style="fill:url(#radial-gradient-7)"/><path d="M76.42,16.84l-.18-.05Z" style="fill:url(#radial-gradient-8)"/><path d="M106.6,41.06l0,.06Z" style="fill:url(#radial-gradient-9)"/><g style="mask:url(#mask)"><path d="M63.38,19.65c-22.1,0-40,15.73-40,35.13v0a8.67,8.67,0,0,0,4.49,7.3,69.48,69.48,0,0,0,35.53,9.55,69.49,69.49,0,0,0,35.54-9.55,8.67,8.67,0,0,0,4.49-7.3v0C103.41,35.38,85.49,19.65,63.38,19.65Z" style="fill:url(#linear-gradient)"/></g><path d="M112.43,64.5a49.58,49.58,0,0,1-.44,6.61q-.06.52-.15,1a49.28,49.28,0,0,1-7.46,19.52l-.65,1a50.25,50.25,0,0,1-17,15.47h0c-.48.27-1,.53-1.46.79a49.71,49.71,0,0,1-22.66,5.43c-.69,0-1.36,0-2,0a46.08,46.08,0,0,1-5-.45h0A49.54,49.54,0,0,1,30.3,102.45c-.53-.44-1-.89-1.55-1.37a49.11,49.11,0,0,1-5.89-6.5c-.27-.35-.53-.7-.77-1.06a49.22,49.22,0,0,1-6.33-11.93,48,48,0,0,0,10,2.51h0a44.1,44.1,0,0,0,5,.46c.68,0,1.35,0,2,0A49.67,49.67,0,0,0,55.5,79.18L57,78.39h0A50.25,50.25,0,0,0,74,62.92c.22-.32.44-.65.65-1A49.37,49.37,0,0,0,82.1,42.42c.06-.35.11-.69.15-1a50,50,0,0,0-2.57-23.71A49.86,49.86,0,0,1,112.43,64.5Z" style="fill:#878787;opacity:0.2;mix-blend-mode:multiply"/><path d="M112.43,64.5a49.58,49.58,0,0,1-.44,6.61q-.06.52-.15,1a49.28,49.28,0,0,1-7.46,19.52l-.65,1a50.25,50.25,0,0,1-17,15.47h0c-.48.27-1,.53-1.46.79a49.71,49.71,0,0,1-22.66,5.43c-.69,0-1.36,0-2,0a46.08,46.08,0,0,1-5-.45h0A49.54,49.54,0,0,1,30.3,102.45c-.53-.44-1-.89-1.55-1.37a48.71,48.71,0,0,1-5.87-6.47,49.53,49.53,0,0,0,23,9.62h0a43.92,43.92,0,0,0,5,.46c.68,0,1.36,0,2,0a49.83,49.83,0,0,0,22.66-5.42l1.47-.79h0A50.25,50.25,0,0,0,94.12,83l.65-1a49.28,49.28,0,0,0,7.46-19.52q.09-.52.15-1a49.8,49.8,0,0,0-9.69-36.71A49.73,49.73,0,0,1,112.43,64.5Z" style="fill:#878787;opacity:0.2;mix-blend-mode:multiply"/><circle cx="92.87" cy="95.14" r="19.78" style="fill:url(#radial-gradient-10)"/><path d="M96.82,100.38c-8.57,6.4-17.41,9-20.17,5.94a.27.27,0,0,0,.12.21c2.49,3.33,11.6.75,20.32-5.8s13.81-14.5,11.33-17.83l-.15-.17C110.41,86.19,105.44,94,96.82,100.38Z" style="fill:url(#radial-gradient-11)"/><path d="M96.43,99.84c-8.57,6.4-17.4,9-20.17,5.94a.27.27,0,0,0,.12.21c2.49,3.32,11.6.75,20.32-5.8S110.51,85.68,108,82.36l-.15-.18C110,85.65,105,93.44,96.43,99.84Z" style="fill:url(#radial-gradient-12)"/></g></g></svg>
