<svg class="S" xmlns="http://www.w3.org/2000/svg" xmlns:xlink="http://www.w3.org/1999/xlink" viewBox="0 0 126 126"><defs><radialGradient id="radial-gradient" cx="60.53" cy="1217.62" r="37.45" gradientTransform="matrix(1, 0, 0, -1, 0, 1296)" gradientUnits="userSpaceOnUse"><stop offset="0" stop-color="#fff"/><stop offset="0.43" stop-color="#d6d6e0"/><stop offset="0.5" stop-color="#c8c8d1"/><stop offset="0.62" stop-color="#a3a3ab"/><stop offset="0.65" stop-color="#9a9aa2"/><stop offset="0.89" stop-color="#d1d1d1"/></radialGradient><radialGradient id="radial-gradient-2" cx="59.09" cy="1218.15" r="36.51" gradientTransform="matrix(1, 0, 0, -1, 0, 1296)" gradientUnits="userSpaceOnUse"><stop offset="0" stop-color="#d6483d"/><stop offset="1" stop-color="#b0333d"/></radialGradient></defs><path d="M35.93,56.69,52.86,39.76l-2.37-2.37a1.06,1.06,0,0,0-1-.27l-3.55,1a8,8,0,0,1-7.81-2l-23-23a4.15,4.15,0,0,0-5.87,0h0a4.16,4.16,0,0,0,0,5.86l23,23a8,8,0,0,1,2,7.81l-1,3.55a1.06,1.06,0,0,0,.27,1Z" style="fill:#735443"/><path d="M33.55,54.3c3.13-9.63,7.29-13.8,16.92-16.93l59.87,59.87c-3.12,9.64-7.29,13.8-16.92,16.93Q63.48,84.25,33.55,54.3Z" style="fill:#eac694"/><path d="M102.31,109.88c-.51.38-1,.73-1.6,1.08C101.27,110.61,101.8,110.26,102.31,109.88Z" style="fill:#de3e3f"/><path d="M104.32,108.15l0,0Z" style="fill:#de3e3f"/><path d="M110.34,97.24l-1.3-1.3a26.58,26.58,0,0,1-6.35,10.58l1.63,1.63C107,105.51,108.78,102.06,110.34,97.24Z" style="fill:#de3e3f"/><path d="M96.78,112.94q-1.56.65-3.36,1.23Q95.22,113.59,96.78,112.94Z" style="fill:#de3e3f"/><path d="M39.57,43.4c-2.63,2.64-4.46,6.09-6,10.9l58.56,58.56a26.56,26.56,0,0,0,10.58-6.34Z" style="fill:#e7b87f"/><path d="M100.71,111a25,25,0,0,1-2.42,1.31A25,25,0,0,0,100.71,111Z" style="fill:#e7b87f"/><path d="M104.28,108.18a18.93,18.93,0,0,1-2,1.7A18.93,18.93,0,0,0,104.28,108.18Z" style="fill:#e7b87f"/><path d="M96.78,112.94c.52-.21,1-.44,1.51-.67a25,25,0,0,0,2.42-1.31c.56-.35,1.09-.7,1.6-1.08a18.93,18.93,0,0,0,2-1.7l0,0h0l-1.63-1.63a26.56,26.56,0,0,1-10.58,6.34l1.31,1.31Q95.22,113.59,96.78,112.94Z" style="fill:#cc2530"/><path d="M90.07,56.69,73.14,39.76l2.37-2.37a1.06,1.06,0,0,1,1-.27l3.55,1a8,8,0,0,0,7.81-2l23-23a4.15,4.15,0,0,1,5.87,0h0a4.16,4.16,0,0,1,0,5.86l-23,23a8,8,0,0,0-2.05,7.81l1,3.55a1.06,1.06,0,0,1-.27,1Z" style="fill:#735443"/><path d="M92.45,54.3c-3.13-9.63-7.29-13.8-16.92-16.93L15.66,97.24c3.13,9.64,7.29,13.8,16.92,16.93Z" style="fill:#eac694"/><path d="M23.69,109.88c.51.38,1,.73,1.6,1.08C24.73,110.61,24.2,110.26,23.69,109.88Z" style="fill:#de3e3f"/><path d="M21.68,108.15l0,0Z" style="fill:#de3e3f"/><path d="M15.66,97.24l1.3-1.3a26.58,26.58,0,0,0,6.35,10.58l-1.63,1.63C19,105.51,17.22,102.06,15.66,97.24Z" style="fill:#de3e3f"/><path d="M29.22,112.94q1.56.65,3.36,1.23Q30.78,113.59,29.22,112.94Z" style="fill:#de3e3f"/><polygon points="21.68 108.15 21.68 108.15 21.68 108.15 21.68 108.15" style="fill:#e7b87f"/><path d="M86.43,43.4c2.63,2.64,4.46,6.09,6,10.9L33.89,112.86a26.56,26.56,0,0,1-10.58-6.34Z" style="fill:#e7b87f"/><path d="M25.29,111a25,25,0,0,0,2.42,1.31A25,25,0,0,1,25.29,111Z" style="fill:#e7b87f"/><path d="M21.72,108.18a18.93,18.93,0,0,0,2,1.7A18.93,18.93,0,0,1,21.72,108.18Z" style="fill:#e7b87f"/><path d="M29.22,112.94c-.52-.21-1-.44-1.51-.67A25,25,0,0,1,25.29,111c-.56-.35-1.09-.7-1.6-1.08a18.93,18.93,0,0,1-2-1.7l0,0h0l1.63-1.63a26.56,26.56,0,0,0,10.58,6.34c-.43.44-.87.88-1.31,1.31Q30.78,113.59,29.22,112.94Z" style="fill:#cc2530"/><g id="Layer_2" data-name="Layer 2"><circle cx="64.1" cy="83.45" r="24.64" style="fill:url(#radial-gradient)"/><path d="M72.66,65.15c4.52-1.86,8.88,1.16,11.33,3.79a25.89,25.89,0,0,0-2-2.42A11.51,11.51,0,0,0,76.49,64c-4.86-.52-9,2.68-10.39,7.91a14.92,14.92,0,0,0,1.16,11.29c1.65,3.37,5.44,7.43,7.49,11.8,2.38,5.06.58,9.07-.79,10.28a13.58,13.58,0,0,1-3,1.88c.84-.24,1.66-.53,2.47-.85a6.84,6.84,0,0,0,2.51-2.5,8.37,8.37,0,0,0,.84-4.15c-.14-5.69-4.45-9.76-8.23-16.12C64.64,76.9,66.38,67.73,72.66,65.15Zm-25.4.35a6.8,6.8,0,0,0-1.33,2c-.84,2,.23,5,.45,7.75.35,4.52-.58,7.21-3.11,12.29a10.31,10.31,0,0,0-.61,7.8A6.36,6.36,0,0,0,43,96a24.11,24.11,0,0,0,2.64,3.64c-3.91-4.65-2.91-9.15-1-13,3-5.68,3.34-9.9,1.92-16.11-.68-2.94,1-5.12,2.46-6.61a18.58,18.58,0,0,0-1.76,1.51Z" style="fill:#4d4d4d"/><path d="M73.87,104.77c-.82.38-1.22.65-1.05.8s1.06-.36,2-.83c.59-.3.56-.21,1.25-.16.51,0,.74,0,.91-.2s-.13-.25-.78-.36S75.31,104.11,73.87,104.77Zm.89-2.75c-.85.48-1.22.89-1,1.19s1.14-.42,2.08-1.06c.59-.41.6-.25,1.45,0,.63.17.88.07,1-.17.24-.42-.25-.49-1.06-.8s-1,0-2.52.84ZM46.59,70.07c.75,0,1.46,0,1.55-.25s-.12-.52-.71-.48c-1.13,0-1.23-.23-2,.67s-1.3,1.32-1.07,1.61.38.09,1-.59S46.1,70.06,46.59,70.07ZM74.43,98.45c-.65.59-.88,1-.56,1.36s1-.49,1.74-1.26c.51-.52.58-.33,1.65-.1.88.19,1.17,0,1.25-.28.14-.58-.54-.61-1.68-.93S75.64,97.34,74.43,98.45Zm1.84-3.39c-1.27-.24-1.23.22-2.39,1.54-.62.71-.82,1.2-.44,1.53s1-.62,1.7-1.54c.48-.61.57-.4,1.73-.27,1,.12,1.24-.06,1.29-.43.08-.63-.65-.6-1.89-.82Zm1,4.24c-1-.38-1.12,0-2.5,1-.75.53-1.06.93-.78,1.26s1.06-.43,1.94-1.12c.57-.44.61-.27,1.56,0,.76.21,1,.09,1.15-.19.22-.5-.37-.57-1.35-.91ZM67.45,77.83c1,.77,1.4.69,1.53.21.24-.85-.58-1.25-1.89-2.32s-1.37-.43-2.9.67c-.81.58-1.14,1.13-.83,1.82.19.43,1.16-.26,2.16-1.07C66.15,76.59,66.21,76.93,67.45,77.83Zm-1.79-4c.71-.48.73-.14,1.86.89,1,.87,1.32.83,1.5.36.32-.82-.45-1.3-1.64-2.5s-1.33-.57-3,.38c-.87.48-1.25,1-1,1.72C63.58,75.18,64.59,74.59,65.66,73.88ZM77.25,63.33c-.62-.63-1-.94-1.33-.86s.57.81,1.4,1.62c.56.53.39.52.33,1.21s.14.88.48,1c.59.3.49-.21.61-1S78.45,64.53,77.25,63.33Zm-10.83,7.6c.8-.37.76-.06,1.74,1,.83.89,1.21.89,1.45.48.45-.71-.25-1.23-1.27-2.42s-1.25-.65-3,0c-1,.37-1.42.81-1.29,1.46C64.09,71.89,65.23,71.47,66.42,70.93ZM75.2,93c-1.4-.18-1.27.28-2.26,1.7-.52.74-.64,1.26-.18,1.58.29.2.91-.68,1.52-1.65.4-.65.54-.45,1.8-.35,1,.08,1.31-.13,1.29-.49C77.33,93.06,76.56,93.13,75.2,93ZM71.45,64.86c.84.17.68.32,1,1.33s.65,1.07,1.07,1c.72-.18.33-.8,0-1.94s-.78-.9-2.61-1.34c-1-.23-1.53-.21-1.73.19s1,.56,2.25.79Zm4.06-1c.65.48.49.48.54,1.33s.29,1,.66,1.09c.63.18.48-.4.43-1.31s-.43-.94-1.83-2c-.72-.55-1.2-.78-1.45-.6s.68.8,1.65,1.48Zm-2,.18c.76.35.59.43.78,1.34s.49,1,.88,1c.7,0,.42-.56.25-1.55s-.61-.92-2.26-1.75c-.86-.43-1.4-.56-1.66-.3s.87.69,2,1.22Zm5.25-.35c-.3-.22-.58-.46-.89-.66h-.15c-.16,0,.56.82,1.35,1.64.54.55.38.53.37,1.2a1,1,0,0,0,.48,1c.55.32.44-.19.49-.91s-.3-.85-1.46-2.08Zm-9.37,2.47c.87.05.73.24,1.28,1.32s.85,1.08,1.25.89c.69-.33.19-1-.37-2.16s-1-.87-2.86-1.05c-1-.09-1.58,0-1.72.48C66.86,65.94,68.06,66.08,69.36,66.13ZM67.53,68.3c.86-.21.77.06,1.57,1.15s1.08,1,1.45.66c.59-.61,0-1.19-.88-2.43s-1.14-.73-3.06-.34c-1,.2-1.53.52-1.55,1.13C65,68.87,66.24,68.63,67.53,68.3Zm5.76,24.18c.35-.68.48-.48,1.79-.43,1.06,0,1.32-.18,1.27-.57-.09-.68-.86-.58-2.26-.71s-1.26.34-2.15,1.83c-.48.79-.54,1.33,0,1.65C72.2,94.44,72.78,93.51,73.29,92.48Zm.4-2.42c1.08,0,1.32-.21,1.25-.62-.13-.69-.91-.58-2.34-.68s-1.27.37-2.06,1.93c-.42.83-.49,1.39.06,1.7.33.2.83-.78,1.3-1.85.31-.72.48-.5,1.79-.49ZM72.2,87.88c1.17.06,1.45-.18,1.36-.6-.14-.73-1-.63-2.49-.77s-1.32.35-2.16,1.9c-.45.82-.49,1.38,0,1.73.33.22.87-.76,1.38-1.83C70.64,87.59,70.81,87.8,72.2,87.88Zm-1.45-2.22c1.18.1,1.45-.12,1.39-.56-.12-.74-1-.67-2.51-.88s-1.34.31-2.24,1.85c-.48.82-.54,1.39,0,1.77.33.23.91-.74,1.45-1.82.31-.73.49-.5,1.89-.37Zm-1.54-2.29c1.21.32,1.52.13,1.49-.35,0-.82-.93-.89-2.49-1.37s-1.42.09-2.51,1.59c-.58.79-.71,1.39-.21,1.88.32.32,1-.63,1.69-1.68C67.62,82.73,67.78,83,69.21,83.37Zm5.33,20.14c-.85.43-1.26.76-1.07,1s1.1-.38,2.06-.92c.6-.35.58-.22,1.31-.08.54.11.78,0,1-.17s-.15-.37-.83-.59-1,0-2.43.79Zm-32-9.88c.6,1,1.26,2,1.41,1.94s0-.68-.6-1.54c-1-1.4-1-1.74-1.62-1.81a2.79,2.79,0,0,0-.64-.07c.09.24.17.49.26.71l.25.11C42.15,93.16,42.17,93,42.53,93.63ZM42.36,95a24.45,24.45,0,0,0,1.75,2.78,6.53,6.53,0,0,0-.67-1.18A16,16,0,0,0,42.36,95Zm0-6.41c-.88.1-1.36,0-1.32.64,0,.36.2.59.85.6.84,0,.91-.18,1.25.53.51,1.1,1,2.12,1.24,1.94s.2-.85-.26-1.73c-.85-1.6-.79-2.09-1.76-2Zm-.82,2.8c.62.11.66,0,1,.6.54,1.06,1.14,2.14,1.32,2s.1-.77-.44-1.68c-.9-1.52-.9-1.94-1.63-1.89s-.93-.09-.87.39C41,91.16,41.13,91.34,41.58,91.42Zm2.81-6.82c-1.09.17-1.71.09-1.77.8,0,.42.18.64,1,.55,1-.09,1.12-.31,1.41.38.43,1,.88,2,1.11,1.75s.29-.9-.08-1.69c-.72-1.48-.6-2-1.69-1.79Zm-1.16,2c-1,.1-1.64,0-1.65.7,0,.41.2.65,1,.62,1,0,1-.25,1.37.48.48,1.08,1,2,1.17,1.84s.22-.89-.18-1.71C44.2,87,44.29,86.51,43.23,86.62ZM82.44,67.05a24.77,24.77,0,0,0-2.7-2.62l.64.77c.48.58.36.54.42,1.17a1.32,1.32,0,0,0,.49,1c.48.37.32-.11.28-.78a1.29,1.29,0,0,0-.16-.57l0,.06a1.67,1.67,0,0,1,.49,1.14,1.75,1.75,0,0,0,.53,1c.42.39.25-.08.15-.72A1.88,1.88,0,0,0,82.44,67.05Zm.92,1.21c0-.1-.06-.18-.09-.26-.19-.24-.4-.48-.6-.7.06.14.09.27.18.56a2.87,2.87,0,0,0,.54,1c.34.41.15,0,0-.63ZM73,105.85c-.78.36-1.18.6-1.12.73s1-.34,1.94-.8a1.57,1.57,0,0,1,1.1-.21l1-.49a4.89,4.89,0,0,1-.61,0C74.66,105,74.45,105.18,73,105.85Zm-7-25.44c.52-.67.64-.37,2,.21,1.18.49,1.51.33,1.53-.16,0-.86-.84-1.06-2.36-1.77S65.81,78.6,64.59,80c-.65.74-.85,1.34-.4,1.94C64.48,82.3,65.26,81.42,66.05,80.41ZM45.46,82.22c-1.16.48-1.83.56-1.84,1.36,0,.46.24.65,1.15.33s1.17-.64,1.53,0c.55,1,1.11,1.94,1.34,1.63.35-.49.23-1.07-.23-1.83-.88-1.45-.79-2-1.95-1.53Zm3-7.27c-1.28-.67-1.36-1.11-2.36-.27s-1.63,1.18-1.41,1.76c.12.33.41.36,1.21-.25s1-1,1.52-.62c.84.48,1.64.92,1.78.6.21-.52-.07-.88-.74-1.24Zm-.26-8.56c.25-.28.06-.35-.46-.3a4.24,4.24,0,0,0-1.18.14c-.32.32-.62.67-.92,1,.69-.48.78-.56,1.16-.58.62-.05,1.24-.08,1.4-.28Zm.18-1c.24-.23.08-.24-.4-.11l-.58.15c-.16.15-.33.29-.48.44l.16,0a4.41,4.41,0,0,0,1.3-.47ZM41.9,93.65l-.25-.09c.12.27.26.55.4.82.29.14.37.17.66.65a8.84,8.84,0,0,0,1.37,2c.2-.07,0-.59-.62-1.46C42.54,94.18,42.49,93.87,41.9,93.65ZM46,79.5c-1.11.79-1.77,1-1.67,1.88.06.49.33.63,1.2.07,1-.66,1.1-1,1.56-.33.7,1,1.39,1.77,1.58,1.38.3-.59.09-1.17-.49-1.87C47.11,79.33,47.11,78.71,46,79.5Zm-.17-6.64c-1,.93-1.57,1.35-1.32,1.83.15.28.44.26,1.2-.44s.91-1,1.48-.82c.85.31,1.68.54,1.79.23.2-.49-.11-.77-.8-1C46.88,72.32,46.78,71.93,45.83,72.86Zm-.28-.3c.83-.83.84-1,1.38-.92.81.14,1.6.22,1.7-.06.17-.45-.13-.64-.78-.72-1.24-.13-1.35-.45-2.22.49s-1.46,1.38-1.2,1.76S44.85,73.27,45.55,72.56Zm2.69-7.88-.11,0-.4.36a4.63,4.63,0,0,0,.9-.42c.24-.2.07-.17-.39,0Zm-3,3.73c.82-.65.86-.76,1.29-.81.64-.07,1.27-.16,1.41-.35s0-.35-.51-.28c-1,.15-1,0-1.91.7-.42.34-.75.59-1,.79l-.31.41v.06C44.34,69,44.58,69,45.28,68.41Zm3.14,9c-1.21-1-1.25-1.53-2.32-.56s-1.74,1.34-1.57,2.1c.1.43.39.49,1.24-.2s1-1.13,1.57-.66c.78.72,1.55,1.32,1.71.93C49.31,78.41,49.05,77.92,48.42,77.41Zm-3.21-7.89c.77-.7.78-.84,1.26-.83.72,0,1.41,0,1.51-.24s-.09-.45-.67-.43c-1.1,0-1.19-.18-2,.6S44,69.8,44.2,70,44.56,70.11,45.21,69.52Z" style="fill:url(#radial-gradient-2)"/><circle cx="64.06" cy="83.52" r="24.46" style="fill:none"/></g></svg>
