<svg class="S" xmlns="http://www.w3.org/2000/svg" xmlns:xlink="http://www.w3.org/1999/xlink" viewBox="0 0 126 126"><defs><linearGradient id="linear-gradient" x1="6.12" y1="648.52" x2="44.12" y2="643.62" gradientTransform="matrix(1, 0, 0, -1, 0, 712)" gradientUnits="userSpaceOnUse"><stop offset="0"/><stop offset="0.19" stop-color="#333"/><stop offset="0.36" stop-color="#0d0d0d"/><stop offset="0.63" stop-color="#0d0d0d"/><stop offset="0.81" stop-color="#333"/><stop offset="1"/></linearGradient><linearGradient id="linear-gradient-2" x1="34.16" y1="6.24" x2="41.66" y2="11.74" gradientUnits="userSpaceOnUse"><stop offset="0" stop-color="#ffe14e"/><stop offset="0.05" stop-color="#ffed95"/><stop offset="0.15" stop-color="#ffe14e"/><stop offset="0.19" stop-color="#f9d644"/><stop offset="0.25" stop-color="#f1c937"/><stop offset="0.32" stop-color="#eec433"/><stop offset="0.36" stop-color="#f0c83c"/><stop offset="0.45" stop-color="#f4d255"/><stop offset="0.55" stop-color="#fbe37c"/><stop offset="0.6" stop-color="#ffed95"/><stop offset="0.97" stop-color="#ffe14e"/></linearGradient><linearGradient id="linear-gradient-3" x1="128.68" y1="1032.39" x2="130.92" y2="1032.39" gradientTransform="matrix(1, 0, 0, -1, -110.2, 1098.32)" gradientUnits="userSpaceOnUse"><stop offset="0" stop-color="#3b3b3b"/><stop offset="0.06" stop-color="#363636"/><stop offset="0.13" stop-color="#282828"/><stop offset="0.14" stop-color="#262626"/><stop offset="0.28" stop-color="#404040"/><stop offset="0.5" stop-color="#212121"/><stop offset="0.88" stop-color="#080808"/><stop offset="1" stop-color="#262626"/></linearGradient><linearGradient id="linear-gradient-4" x1="128.51" y1="259.7" x2="130.41" y2="259.7" gradientTransform="translate(-110.2 -190.15)" gradientUnits="userSpaceOnUse"><stop offset="0"/><stop offset="0.08" stop-color="#050505"/><stop offset="0.18" stop-color="#131313"/><stop offset="0.27" stop-color="#262626"/><stop offset="0.34" stop-color="#404040"/><stop offset="0.5" stop-color="#212121"/><stop offset="0.88" stop-color="#080808"/><stop offset="1" stop-color="#262626"/></linearGradient><linearGradient id="linear-gradient-5" x1="-591.09" y1="433.23" x2="-591.06" y2="424.51" gradientTransform="translate(443.2 658.37) rotate(90)" gradientUnits="userSpaceOnUse"><stop offset="0" stop-color="#333"/><stop offset="0.01" stop-color="#313131"/><stop offset="0.13" stop-color="#1a1a1a"/><stop offset="0.28" stop-color="#404040"/><stop offset="0.5" stop-color="#212121"/><stop offset="0.75" stop-color="#0d0d0d"/><stop offset="0.88" stop-color="#080808"/><stop offset="1" stop-color="#262626"/></linearGradient><linearGradient id="linear-gradient-6" x1="-586.4" y1="433.3" x2="-586.41" y2="424.46" gradientTransform="translate(443.2 658.37) rotate(90)" gradientUnits="userSpaceOnUse"><stop offset="0" stop-color="#1a1a1a"/><stop offset="0.01" stop-color="#171717"/><stop offset="0.13"/><stop offset="0.28" stop-color="#262626"/><stop offset="0.5"/><stop offset="0.75"/><stop offset="0.89"/><stop offset="1" stop-color="#0d0d0d"/></linearGradient><linearGradient id="linear-gradient-7" x1="-595.7" y1="433.31" x2="-595.73" y2="424.6" gradientTransform="translate(443.2 658.37) rotate(90)" gradientUnits="userSpaceOnUse"><stop offset="0" stop-color="#404040"/><stop offset="0.01" stop-color="#3d3d3d"/><stop offset="0.13" stop-color="#262626"/><stop offset="0.28" stop-color="#4d4d4d"/><stop offset="0.51" stop-color="#262626"/><stop offset="0.75" stop-color="#262626"/><stop offset="0.89" stop-color="#262626"/><stop offset="1" stop-color="#404040"/></linearGradient><linearGradient id="linear-gradient-8" x1="-595.12" y1="433.31" x2="-595.14" y2="424.6" xlink:href="#linear-gradient-7"/><linearGradient id="linear-gradient-9" x1="-586.96" y1="433.31" x2="-587" y2="424.6" xlink:href="#linear-gradient-7"/><linearGradient id="linear-gradient-10" x1="-587.08" y1="433.31" x2="-587.11" y2="424.6" xlink:href="#linear-gradient-6"/><linearGradient id="linear-gradient-11" x1="-595.2" y1="433.31" x2="-595.24" y2="424.6" xlink:href="#linear-gradient-6"/><linearGradient id="linear-gradient-12" x1="154.05" y1="972.18" x2="154.12" y2="984.09" gradientTransform="matrix(1, 0, 0, -1, -110.2, 1098.32)" xlink:href="#linear-gradient-2"/><linearGradient id="linear-gradient-13" x1="150.04" y1="981.39" x2="163.87" y2="981.39" gradientTransform="matrix(1, 0, 0, -1, -110.2, 1098.32)" gradientUnits="userSpaceOnUse"><stop offset="0.49" stop-color="#ffe14e"/><stop offset="0.99" stop-color="#fbb040"/></linearGradient><linearGradient id="linear-gradient-14" x1="138.04" y1="976.04" x2="145.67" y2="981.45" gradientTransform="matrix(1, 0, 0, -1, -110.2, 1098.32)" gradientUnits="userSpaceOnUse"><stop offset="0" stop-color="#ffe14e"/><stop offset="0.19" stop-color="#ffed95"/><stop offset="0.48" stop-color="#ffe14e"/><stop offset="0.53" stop-color="#f9d644"/><stop offset="0.63" stop-color="#f1c937"/><stop offset="0.72" stop-color="#eec433"/><stop offset="0.77" stop-color="#efc637"/><stop offset="0.83" stop-color="#f1cb44"/><stop offset="0.89" stop-color="#f5d459"/><stop offset="0.95" stop-color="#fae076"/><stop offset="1" stop-color="#ffed95"/></linearGradient><linearGradient id="linear-gradient-15" x1="229.55" y1="425.2" x2="233.91" y2="418.07" gradientTransform="matrix(0, -1, -1, 0, 450.41, 346.91)" gradientUnits="userSpaceOnUse"><stop offset="0" stop-color="#ffed95"/><stop offset="0.19" stop-color="#fff5c6"/><stop offset="0.48" stop-color="#ffed95"/><stop offset="0.55" stop-color="#ffea83"/><stop offset="0.64" stop-color="#ffe876"/><stop offset="0.72" stop-color="#ffe771"/><stop offset="0.77" stop-color="#ffe875"/><stop offset="0.82" stop-color="#ffea82"/><stop offset="0.88" stop-color="#ffed97"/><stop offset="0.94" stop-color="#fff2b4"/><stop offset="1" stop-color="#fff9d9"/><stop offset="1" stop-color="#fff9dc"/></linearGradient><linearGradient id="linear-gradient-16" x1="18.5" y1="663.65" x2="107.42" y2="663.65" xlink:href="#linear-gradient"/><linearGradient id="linear-gradient-17" x1="44.45" y1="625.66" x2="82.33" y2="625.66" xlink:href="#linear-gradient"/><linearGradient id="linear-gradient-18" x1="44.46" y1="628.11" x2="82.34" y2="628.11" xlink:href="#linear-gradient"/><linearGradient id="linear-gradient-19" x1="63.96" y1="664.44" x2="63.78" y2="617.13" gradientTransform="matrix(1, 0, 0, -1, 1.95, 711.31)" gradientUnits="userSpaceOnUse"><stop offset="0" stop-color="#ffe771"/><stop offset="0.54" stop-color="#ffe14e"/><stop offset="1" stop-color="#ffcf17"/></linearGradient><linearGradient id="linear-gradient-20" x1="63.18" y1="622.98" x2="62.93" y2="661.44" gradientTransform="matrix(1, 0, 0, -1, 0, 712)" gradientUnits="userSpaceOnUse"><stop offset="0" stop-color="#706f6f"/><stop offset="1"/></linearGradient></defs><g id="Layer_4" data-name="Layer 4"><path d="M34.93,17.84s-37,42.38-2,96.64c-4.87,1.67-6.26,4.4-6.26,4.4s-38-49.28,1.62-105.28C31.62,15.47,34.93,17.84,34.93,17.84Z" style="fill:url(#linear-gradient)"/><path d="M45.94.91c-4.18-3.05-11.13,2.2-14.25,6.81C30.13,10,27.12,15,27.12,15S45.64,2.2,45.94.91Z" style="fill:#fff9dc"/><path d="M43.39,5.65l1.67-.23A34.94,34.94,0,0,0,46.16,1C42-2,35,3.31,31.91,7.92l-4.85,7.14a10.26,10.26,0,0,1,3.46,1.54,8.27,8.27,0,0,1,3.07,2.92A15.57,15.57,0,0,0,38,16.59l-1.5.21a.4.4,0,0,1-.11-.78l2.66-.39c.27-.27.55-.57.83-.89l-2.2.3a.4.4,0,1,1-.18-.77h.07l3-.42c.22-.28.44-.57.65-.87l-2.4.34a.39.39,0,0,1-.48-.3.39.39,0,0,1,.3-.47h.07l3.11-.44c.18-.28.36-.56.53-.85L40,11.57a.4.4,0,0,1-.18-.77h.07l3-.42c.15-.28.3-.55.44-.84l-2.2.31a.39.39,0,0,1-.48-.3.39.39,0,0,1,.29-.47H41l2.75-.32c.12-.27.25-.55.36-.83l-1.79.26a.4.4,0,0,1-.18-.78h.07l2.2-.32c.1-.26.21-.53.31-.81l-1.29.17A.39.39,0,0,1,43,6.05a.42.42,0,0,1,.31-.41Z" style="fill:url(#linear-gradient-2)"/><path d="M18.23,62.24l.44.79c1.1,0,1.56.69,1.56,1.81v4.29c0,.23.47.73.47.39V64.67a2.45,2.45,0,0,0-2.46-2.43Z" style="fill:url(#linear-gradient-3)"/><path d="M18.09,72.39l.47-.76c1.1,0,1.16-.66,1.16-1.76V67.2c0-.23.46-.72.46-.38V70a2.11,2.11,0,0,1-1.84,2.35Z" style="fill:url(#linear-gradient-4)"/><path d="M10,71.63a.3.3,0,0,0,.07-.24.29.29,0,0,0-.07-.24V63.44a.44.44,0,0,0,.07-.23c0-.14,0-.21-.07-.24,0-.61.22-.79.48-.79h7.71c.27,0,.48.18.49.79a.42.42,0,0,0,0,.48v7.71a.4.4,0,0,0,0,.48c0,.6-.23.76-.49.76H10.44C10.19,72.39,10,72.23,10,71.63Z" style="fill:url(#linear-gradient-5)"/><path d="M10,71.63v-.09h8.6a.19.19,0,0,0,.05.09c0,.6-.23.76-.48.76H10.42C10.19,72.39,10,72.23,10,71.63Z" style="fill:url(#linear-gradient-6)"/><path d="M18.63,63.07H10c0-.61.22-.79.49-.79H18.2c.26,0,.47.18.48.79Z" style="fill:url(#linear-gradient-7)"/><path d="M18.59,63.26a.39.39,0,0,0,.07.23H10a.44.44,0,0,0,.07-.23c0-.13,0-.2-.07-.23h8.69A.32.32,0,0,0,18.59,63.26Z" style="fill:url(#linear-gradient-8)"/><path d="M18.58,71.39a.39.39,0,0,0,.07.23H10a.32.32,0,0,0,.06-.23.31.31,0,0,0-.06-.23h8.68A.39.39,0,0,0,18.58,71.39Z" style="fill:url(#linear-gradient-9)"/><path d="M18.58,71.39H10a.31.31,0,0,0-.06-.23h8.68A.39.39,0,0,0,18.58,71.39Z" style="fill:url(#linear-gradient-10)"/><path d="M18.59,63.26H10c0-.12,0-.2-.07-.22h8.69A.43.43,0,0,0,18.59,63.26Z" style="fill:url(#linear-gradient-11)"/><path d="M32,125.9,52,126c2.21,0,3.94-1.44,3.94-3.22V114l-5.28,1.17L45.37,114v.81c-.08,4.49-5.14,4.4-7.1,4.4h-1.8C34.48,119.17,30.76,124.48,32,125.9Z" style="fill:url(#linear-gradient-12)"/><path d="M55.18,121.8c0,1.78-1.76,3.22-3.93,3.22l-19.42.76.38.14L52,126c2.21,0,3.94-1.44,3.94-3.22v-8.3Z" style="fill:#f8c735"/><path d="M40.63,119.06c7.78-.29,9.7.14,12.84-1.32-8,.65-8.12-2.53-8.11-2.94C45.28,117.92,42.79,118.81,40.63,119.06Z" style="fill:url(#linear-gradient-13)"/><path d="M25.15,117c1.25,1.79,4.58,6.61,5.37,7.92,2.91,3.79,6.8-4.06,6-5.75-.82-1.32-3.44-5-4.41-6.23C31.62,114.32,26.18,117.6,25.15,117Z" style="fill:url(#linear-gradient-14)"/><path d="M32.13,113c-.08-.1-.26-.14-.31-.07-.81,1.37-5.1,4-6.61,3.91-.13,0-.16.1-.1.2C26.22,117.57,31.62,114.36,32.13,113Z" style="fill:url(#linear-gradient-15)"/><path d="M42.76,104.43A4.57,4.57,0,0,0,41,106.38c-.9,2.51,2.62,6.17,2.62,6.17a4.83,4.83,0,0,1,.74-2.39c.66-.74,2.46-1.55.75-2.42S44.5,103.52,42.76,104.43Z" style="fill:#ffe771"/><path d="M45.16,107.75c-1.7-.87-.66-4.23-2.4-3.31a4.57,4.57,0,0,0-1.72,2,2.79,2.79,0,0,0-.14,1.11,2.07,2.07,0,0,1,.12-.61,3.92,3.92,0,0,1,1.5-1.7c1.52-.79.6,2.13,2.09,2.89s-.08,1.46-.65,2.11a4.08,4.08,0,0,0-.64,2l.35.4a4.8,4.8,0,0,1,.74-2.39C45.06,109.43,46.86,108.62,45.16,107.75Z" style="fill:#fad23a"/><path d="M58.74,104.43a4.57,4.57,0,0,1,1.72,1.95c.9,2.51-2.62,6.17-2.62,6.17a4.83,4.83,0,0,0-.74-2.39c-.66-.74-2.46-1.55-.75-2.42S57,103.52,58.74,104.43Z" style="fill:#ffe771"/><path d="M56.34,107.75c1.7-.87.66-4.23,2.4-3.31a4.57,4.57,0,0,1,1.72,2,2.79,2.79,0,0,1,.14,1.11,2.07,2.07,0,0,0-.12-.61,3.92,3.92,0,0,0-1.5-1.7c-1.52-.79-.6,2.13-2.09,2.89s.08,1.46.65,2.11a4.08,4.08,0,0,1,.64,2l-.35.4a4.8,4.8,0,0,0-.74-2.39C56.43,109.43,54.63,108.62,56.34,107.75Z" style="fill:#fad23a"/><path d="M60.45,106.1a9.83,9.83,0,0,1-19.52,0h-.8a10.62,10.62,0,0,0,21.12,0Z" style="fill:#fbb040"/><path d="M60.45,106a9.83,9.83,0,0,1-19.52,0,.38.38,0,0,0-.43-.28c-.37,0-.4.28-.4.28a10.64,10.64,0,0,0,21.17,0,.42.42,0,0,0-.42-.28A.39.39,0,0,0,60.45,106Z" style="fill:#ffe14e"/><path d="M40.5,105.81a.4.4,0,0,1,.43.29,9.83,9.83,0,0,0,19.52,0,.39.39,0,0,1,.4-.29.42.42,0,0,1,.4.24v-.14a.45.45,0,0,0-.43-.29.4.4,0,0,0-.39.29,9.83,9.83,0,0,1-19.52,0,.4.4,0,0,0-.43-.29c-.38,0-.4.29-.4.29V106A.36.36,0,0,1,40.5,105.81Z" style="fill:#fff3b8"/><path d="M63,23.18c-30.47,0-44.49,18.43-44.49,41.17a38,38,0,0,0,1,8.5c3.32-19.64,13.47-34.33,44-34.7,29.3.37,39.27,14,43.52,32.61a38.39,38.39,0,0,0,.48-6.42C107.42,41.61,93.24,23.18,63,23.18ZM82.84,37c-4.85-2.2-10.35-3.38-20.2-3.47S47.32,34.83,42.48,37c-6,2.64-10.45-1.36-4.21-4.73,5.3-3.08,13.31-5,24.21-5h.36c10.91,0,18.91,1.94,24.2,5C93.3,35.62,88.75,39.62,82.84,37Z" style="fill:#b3b3b3"/><path d="M63,24C32.52,24,18.5,42.4,18.5,65.15a38,38,0,0,0,1,8.56C22.79,54,32.9,39.27,63.42,39c29.31.32,39.27,14,43.52,32.61a38.25,38.25,0,0,0,.54-6.41C107.42,42.4,93.24,24,63,24ZM82.84,37.79c-4.85-2.15-10.35-3.33-20.2-3.42s-15.32,1.27-20.18,3.42c-6,2.64-10.44-1.36-4.2-4.73,5.31-3.06,13.31-5,24.2-5h.36c10.91,0,18.91,1.94,24.21,5C93.3,36.43,88.75,40.43,82.84,37.79Z"/><path d="M63,23.48c-30.47,0-44.49,18.43-44.49,41.17a38,38,0,0,0,1,8.57c3.32-19.78,13.47-34.46,44-34.7,29.31.31,39.27,14,43.52,32.61a39.23,39.23,0,0,0,.48-6.49C107.42,41.91,93.24,23.48,63,23.48ZM82.84,37.3C78,35.13,72.49,34,62.64,33.86s-15.32,1.27-20.18,3.42c-6,2.64-10.44-1.36-4.2-4.73,5.29-3.07,13.31-5,24.2-5h.36c10.91,0,18.91,1.94,24.21,5C93.3,35.92,88.75,39.92,82.84,37.3Z" style="fill:url(#linear-gradient-16)"/><path d="M69.75,81.92c-3-5.85-3.64-7.33-6.76-7.36s-3.78,1.5-6.76,7.36A18.24,18.24,0,0,1,44.45,91.4a18.74,18.74,0,0,0,12.92,3.34,7.3,7.3,0,0,0,12.3,0,18.51,18.51,0,0,0,12.66-3.12A18.33,18.33,0,0,1,69.75,81.92Z" style="fill:url(#linear-gradient-17)"/><path d="M56.49,84.59c4-8.53,3.39-9.28,6.51-9.24s3.4,1.5,7,9.24a17.89,17.89,0,0,0,9.3,8.63,25.12,25.12,0,0,0,3-1.61A18.39,18.39,0,0,1,69.7,81.92c-3-5.85-3.64-7.33-6.76-7.36s-3.77,1.5-6.76,7.36A18.22,18.22,0,0,1,44.4,91.4a25.11,25.11,0,0,0,3,1.68A17.89,17.89,0,0,0,56.49,84.59Z" style="fill:url(#linear-gradient-18)"/><path d="M57.37,94.74a7.3,7.3,0,0,0,12.3,0c.67-5.73-4.15-22.39-6.61-22.39S56.46,88.86,57.37,94.74Z"/><path d="M81.21,91.32a17.9,17.9,0,0,1-11.57,2.42,7.3,7.3,0,0,1-12.3,0A18.19,18.19,0,0,1,45.4,91l-1,.31A18.71,18.71,0,0,0,57.3,94.68a7.3,7.3,0,0,0,12.3,0,18.49,18.49,0,0,0,12.65-3.13Z"/><path d="M86.52,47.24c-7.27,0-39.23-.17-46.77.2C29.3,47.44,17.36,54.91,17.63,68s7,24,18,24.4S53.15,88.13,56.28,82c3-5.86,3.62-7.46,6.72-7.46s3.79,1.49,6.79,7.33C73,88,79.42,92.61,90.51,92.14s17.8-11.43,17.91-24.56S99.13,47.13,86.52,47.24Z" style="fill:url(#linear-gradient-19)"/><path d="M84.84,51.33c-6.74,0-36.32-.3-43.29,0-9.71,0-20.4,5.2-20.26,16.89S27.41,88.1,37.7,88.46s13.73-5.17,16.66-10.72C57.12,72.53,60.17,71,63.05,71s6,1.79,8.67,7c3,5.55,6.73,10.81,17,10.45s16-8.55,16.1-20.24S96.58,51.27,84.84,51.33Z" style="fill:url(#linear-gradient-20)"/><path d="M90.42,92.11c-11.09.41-16.7-4.59-19.87-10.82-3-5.85-4.36-7.09-7.46-7.13s-4.67,1.28-7.64,7.13c-3.16,6.23-8.78,11.23-19.87,10.82S17.87,80.92,17.57,68v.49c.15,13.12,6.91,24.08,18,24.48s17.91-4.19,21.07-10.45c3-5.85,3.24-7.46,6.36-7.36s3.37,1.5,6.36,7.36c3.16,6.23,10,10.82,21.07,10.45s17.91-11.36,18-24.48v-.56C108.18,80.89,101.45,91.71,90.42,92.11Z" style="fill:#fbb040"/><path d="M84.84,52.1c-6.74,0-36.32-.31-43.29,0C31.84,52.1,21.7,57.47,22,68.41S27.41,86.83,37.66,87.2s12.66-4.82,15.6-10.53c2.76-5.38,6.91-7,9.79-6.94s7,1.83,9.77,7.22c3,5.72,5.63,10.64,15.88,10.27s14.93-7.72,15.42-18.79C104.43,57.38,96.58,52,84.84,52.1Z" style="fill:#27c6ff;isolation:isolate"/><path d="M83.63,55.55c-6.42,0-34.11-.3-40.75,0-9.25,0-15.56,4.07-15.56,13.43v1.11c.65-8.27,6.76-11.94,15.5-11.94,6.66-.3,14.78,3.55,20.23,3.56s14.1-3.58,20.52-3.56c9.19,0,14.64,2.59,15,11.68v-.89C98.92,58.46,93.39,55.53,83.63,55.55Z" style="fill:#ddf8ff;opacity:0.300000011920929;isolation:isolate"/></g></svg>
