<svg class="S" xmlns="http://www.w3.org/2000/svg" id="design" x="0" y="0" version="1.1" viewBox="0 0 126 126" xml:space="preserve"><defs/><style>.st0{fill:#6f2200}.st1{fill:#303030}.st2{fill:#330e01}.st3{fill:#191919}.st4{fill:#97380e}.st9{fill:#dedede}.st10{fill:#c90000}.st11{fill:#ffbd95}.st15{fill:#c2c2c2}</style><path d="M46.9 57.7c5 1.1 7.8 7.6 8.1 11.2.3 3.6-3 8.2-4.8 9.5-5.1 3.6-10.8 6.5-10.9 6.9-.2.8 1.7 15.3 1.4 16.9-.2.7-.6 2.6-.6 2.9-.1.3-3.7-1.3-3.7-1.3s.1-2.7.5-3.5c1.5-3.4-3.7-15.2-3.7-16.2s3.6-4.2 3.9-5.9c.3-1.7-3.3-8.7-3.3-12-.1-3.4 3.5-10.7 13.1-8.5z" class="st0"/><path d="M36.2 103.2s-1 1.4-.9 1.7c.1.3 3.3 4.6 4 4.7.8.1.5-2.4.7-3.1.2-.7.1-2.1.1-2.1l-3.9-1.2z" class="st1"/><path d="M39.5 63.4s.1-4.4-4.4-5.2c-4.4-.8-10.2 5.5-18.4 5.1-3.1-.2-6.7-5.6-6.7-5.6s-.7 2 0 3.9c.6 1.9 1.5 2.7 1.5 2.7.1.2-1.4-.2-2.2-1-.6-.5-1.3-1.8-1.3-1.8s-.6 3.4 3 5.8c.2.2-2.1.9-2.1.9s1.4 1.9 4 3.1c2.3 1.1 5.2 1.5 5.2 1.5L14.5 75s4 .2 5.1 0c.8-.1 2.8-1.2 2.8-1.2L21 76.1s2.4.5 7.4-3.1 11.1-9.6 11.1-9.6zM106.8 28.8c.2.5-3.7 5-8.2 2.9-4.5-2-8-5.8-10.8-5.5-2.8.2-4.8.8-6.6-1-1.2-1.2-1.7-2.5-1.7-2.5s2.1 2.1 3.2 2.2c1.3.1 2.7-.5 4.5-1.1.8-.3 2.2.1 2.2.1s-1.3-1.5-2.7-1.7c-1.4-.3-2.7-.7-3.3-1.4-.7-.8-.5-2.4-.5-2.4s.6 1.5 1.7 1.6c1.1.1 3.7 0 5.3 1.4 1.7 1.4 1.8-.6.4-2-.6-.6-2.4-.5-2.4-.5s1.9-1.6 3.7.3c4.9 5.2 4.9 4 6.9 4 6.5.2 8.3 5.6 8.3 5.6z" class="st2"/><path d="M89.9 26.1c.4.3-.1 6.2-5 7.1-4.9.9-9.9-.1-12 1.7-2.1 1.8-3.4 3.4-6 3-1.7-.2-2.9-1.1-2.9-1.1s2.9.5 3.9-.1c1.1-.7 1.9-2 3.1-3.5.5-.7 1.9-1.2 1.9-1.2s-1.9-.4-3.2.1c-1.3.6-2.6 1-3.5.8-1-.2-1.8-1.7-1.8-1.7s1.4.8 2.3.3c1-.5 3-2.1 5.2-1.9 2.2.2 1.1-1.5-.8-1.9-.8-.1-2.2 1-2.2 1s.6-2.4 3.2-1.8c7 1.4 8-.7 8-.7l9.8-.1z" class="st2"/><path d="M99 26.7c.3.4-2.1 5.8-7 5.1-4.9-.7-9.3-3.3-11.9-2.3-2.6 1-4.3 2.1-6.6 1-1.5-.8-2.4-1.9-2.4-1.9s2.6 1.4 3.7 1.2c1.3-.3 2.4-1.3 4.1-2.3.7-.5 2.2-.5 2.2-.5s-1.7-1-3.1-.9c-1.4.1-2.8.1-3.6-.4-.9-.5-1.2-2.2-1.2-2.2s1 1.2 2.1 1.1c1.1-.2 3.5-1.1 5.5-.2 2 .9 1.5-1.1-.2-2.1-.7-.4-2.4.2-2.4.2s1.4-2 3.6-.7c6.2 3.6 7.8 1.9 7.8 1.9l9.4 3z" class="st2"/><path d="M95.4 65.2c-1.4.9 1.4 6 1.7 5.3.1-.3.7-1.4 1.3-2.5-.7-1.3-.5-3-1.5-4-.2.2-.6.6-1.5 1.2z" class="st3"/><path d="M98.8 58.5c-.7-2.6-.4-5-1.9-5.6-1.4-.6-3.6-2-5.6-2.8-2-.8-6.4-4.2-6.4-4.2l-3.2 6.8s2.3 3 5.1 2.9c2.8 0 6.9-.2 7.3.2.3.4 3 7.9 3 7.9s0 .1-.2.2c1 1 .7 2.7 1.5 4 .8-1.4 1.8-3 2-3.5.2-.3-.8-3-1.6-5.9z" class="st0"/><path d="M31.4 112.3c.8.8 3.8.5 4.5.4.5-.1-.7-2.6-1.4-3.9-1.1.1-2.4.2-3.2.3-.1 0-.5 2.6.1 3.2z" class="st1"/><path d="M101.7 26.7c-2-.7-13.5 1-17.6 1.5-4.1.5-19.4 3.9-20.9 5.7-1.5 1.8-6.3 9.4-9.4 13.2-1.6 2-11.8 8-13.9 9.1-2.2 1.1-5.3 5.9-6.1 8.2-.8 2.3 1.1 17.7.7 19.8-.4 2.1-3.6 5.8-3.8 8.3-.1 2.5-.2 16-.2 16l.8.6c.9-.1 2.1-.2 3.2-.3-.3-.5-.4-.8-.4-.8s1-14.7 1.7-15.2 5.2-5 6.8-7.8c1.6-2.8 8.2-13.1 8.2-13.1s11.4-1.6 16.8-4.7 16.5-9.4 19.1-13.6c2.6-4.1.3-10.8 1.7-11.4 1.3-.7 3.8-1.8 4.6-2.2 1.6-.8 4.4-1 8.6-2.4 3.5-1.2 2.2-10.2.1-10.9z" class="st4"/><path d="M86.9 73c-.6.8.4 4.2.8 4.5.3.2 1.5-1.1 2.5-2.1-.6-1.3-.8-2.4-1-3.9-.8.3-1.9.9-2.3 1.5z" class="st1"/><path d="M93 60.3c-.7-.6-7.8-3.6-9.2-4.3-1.4-.7-1.3-4.1-1.3-4.1l-7.3 5.2s2.3 2.8 4 4.3c1.7 1.5 10.6 1.5 11.2 2.9.6 1.3-.1 6.7-.6 6.8-.1 0-.4.1-.6.3.1 1.5.3 2.6 1 3.9l.6-.6c1.3-1.3 1.9-1.5 2.4-2.4.5-.8.5-1.9.6-4 .1-1.7 1.2-4 1-4.9-.3-.9-1.1-2.5-1.8-3.1zM98.4 28.2c-.7 2-.3 8.8 1.4 10.8s5.7 2.4 7.5 2.9c1.8.5 3.3.7 4 1.4.7.7.8 1.2 1.2 1.5.4.2 3.6-.2 4.1-.6.5-.4.6-1.5 1-2.1s.6-1.7.3-2.1c-.3-.4-1.2-1.9-2.2-2.4-1-.5-4-3.4-5.1-4.4-1.1-1-2.9-4.4-5.1-5.2-2.2-.9-6.2-2.4-7.1.2z" class="st4"/><path d="M101.3 28.7c-.6.4-1.8-1.1-1.8-2.2s.5-3.2 1.2-3.8c.7-.6.5.8 1.1 1.5.5.8 1.5 3.3-.5 4.5z" class="st0"/><path d="M111.2 42.6c-.1 0-10.4-2.4-15.7-4.2-9-3.1-13.2-4.9-13.2-4.9l.3-.6s4.2 1.8 13.2 4.9c5.3 1.8 15.5 4.2 15.6 4.2l-.2.6zM111.4 40.1s-.1-1.1.8-2.5c.8-1.2 1.6-1.5 1.6-1.5l1.1.9s-.9.5-1.4 1.3c-.5.9-.7 2.2-.7 2.2l-1.4-.4zM111.1 40.5c-.1-.1-8.9-6.1-8.9-6.1l-.4.6 8.9 6 .4-.5z" class="st3"/><path d="M104.5 41.2c-.1-.1-1-1.6-1.7-4.2-.6-2.2-.3-3.7.1-5.2.4-1.4 2.1-4.2 2.1-4.2l-1-.4s-2.5 3.9-2.5 7.3 1.7 6.3 1.7 6.3l1.3.4z" class="st3"/><path d="M101.4 34.6c-.1 0-1.7-1.2-2.7-2.8-1.3-2-2.1-5-2.1-5l.8-.1s.7 3.3 1.9 5.1c1 1.5 2.2 2.1 2.2 2.1l-.1.7z" class="st3"/><path fill="#e8a900" d="M112 42.8c-.5 0-1-.2-1.3-.5-.2-.3-.4-.7-.3-1.1 0-.4.2-.7.5-1 .6-.5 1.6-.4 2 .2.2.3.4.7.3 1.1 0 .4-.2.7-.5 1-.2.1-.5.3-.7.3zm-.3-2.4c-.2 0-.3.1-.5.2-.2.2-.3.4-.3.6 0 .2 0 .5.2.7.3.4.9.4 1.3.1.2-.2.3-.4.3-.6 0-.2 0-.5-.2-.7-.2-.2-.5-.3-.8-.3z"/><path fill="#ababab" d="M54.7 61.8c1.5-.2 4.6-1.5 9.9-5.6 1.9-1.4 6-4.6 9.4-9 1.6-2.1-12-11.8-12.3-11.5-.2.3-.4 3.4-5.3 8.1-6.3 6.2-10.7 8.6-10.7 8.6s7.4 9.6 9 9.4z"/><path d="M57.8 42.5s5.2 4.1 9.3 8.8c5.3 6.2 8.2 11.2 8.2 11.2l2.7-1.7s-2.4-5.9-8.3-12.4c-4.5-5-9.3-8.5-9.3-8.5l-2.6 2.6z"/><path d="M67.6 52.5s.5.9.5 1.6c0 .7.2 2.1.4 2.6s1.3.8 1.3.8l1.5-.6s-1.3-2.4-1.8-3.1c-.5-.7-.4-1.8-.4-1.8l-1.5.5z"/><path d="M58.3 44.5s1 2.6 2.5 5.1c1.5 2.5 2.7 3.6 3.5 3.3.8-.3 1.9-1 2.6-.8s1.6.7 2.1.3c.5-.4-2.4-4.5-4.3-7-2-2.6-3.2-3-3.2-3l-3.2 2.1z" class="st3"/><path d="M54.7 39.7c.2-.5 1.3-1.3 1.7-1.2.7.2 2.2 1.8 2.4 2.2.2.4 1.4 1.8.4 2.8-1 1-1.8.3-2.4-.3-.5-.5-2.4-2.4-2.1-3.5z" class="st1"/><path d="M58.1 39.9s1.9 2.2.7 3.3c-.9.8-1.7 0-1.9.2-.2.2-.6 1-.9 1.2-.3.2-1.7.5-2 .9-.3.4-2.9 3.9-2.4 4.4.5.5 4.5 1.2 6.5-.9 2.1-2.1 1.5-4 1.9-4.4.5-.4 2.6-.6 2.4-1.9-.1-.7-2.4-4.4-4.3-2.8z" class="st3"/><path d="M55 41s-1.7 4.9-3.5 6.1c-3.5 2.2-4.7 1.5-5.1 2.9-.2.7 2.2 2 4 .9 1.8-1.1 8.3-7.5 8.3-7.5s-1 .3-2.1-.8C55.5 41.7 55 41 55 41z" class="st1"/><g><path fill="#ffa47c" d="M63.8 26.1s.8-1 1.4-1.5c1.4-1.3 3.3-2.5 3.3-2.5l-2-4.8s-.9 2.4-3.8 3.4c-.2 1.8-.1 4 1.1 5.4z"/><path fill="#bd0000" d="M61.9 19.8c-1 0-4.9 2-3.3 1.2.1 0-2.5 1.2-3 1.4-.4.2-5.8 2.2-7.9 5.5-.3.6-1.4 1.4-.8 2.3 2 2.1 5 3.1 7.9 3.4 1 .3 1.4-1 2.2-1.5 1.6-.9 4.8-1.6 6.9-2.6 2.1-1.1 3.1-2.9 2.9-4.6 0-1.6-1.9-5-4.9-5.1z"/><path d="M47 30.3c-1.4 2.6-2.5 4.8-.7 7.2 1.5 1.9 6 .2 7.5-1.2.7-.7.9-1.7 1.2-2.6-3.1-.4-6-1.4-8-3.4z" class="st9"/><path d="M61.7 22.9c1.1-1 2.8-.2 4.4 1.4 1.6 1.5 5.6 5.1 6.2 6.2.6 1.1 0 3.1-1.7 2.6s-6.6-3.5-7.9-4.8c-1.3-1.4-3.4-3.2-1-5.4z" class="st10"/><path d="M85.4 34.7c.1-.2 0-.4-.2-.4l-1.4-.4c-.2-.1-.4 0-.4.2-.1.2 0 .4.2.4l1.4.4c.2.1.4 0 .4-.2z" class="st9"/><path d="M85.7 34.1c.1-.2 0-.4-.2-.4l-1.4-.4c-.2-.1-.4 0-.4.2-.1.2 0 .4.2.4l1.4.4c.1.1.3 0 .4-.2z" class="st9"/><path d="M85.9 33.5c.1-.2 0-.4-.2-.4l-1.4-.4c-.2-.1-.4 0-.4.2-.1.2 0 .4.2.4l1.4.4c.1.1.3 0 .4-.2z" class="st9"/><path d="M86 32.9c.1-.2 0-.4-.2-.4l-1.4-.4c-.2-.1-.4 0-.4.2-.1.2 0 .4.2.4l1.4.4c.2.1.4 0 .4-.2z" class="st9"/><path d="M81.1 31.6s2.3-.1 2.8 0 2.1 1 2.1 1-.7.4-.8.8c-.1.4-.2 1.5-.2 1.5s-1.6-.1-2.3-.4c-.7-.3-1.8-.6-1.8-.6l.2-2.3z" class="st9"/><path d="M69.4 14.8c-1.1-.7-4.1-1.1-5.2 1-1.1 2.1-.2 3.9.7 4.9.7.8 1.4 1.2 2.6 1.6.2.1 2.4.1 2.8-.1.3-.1.2-2.3.3-2.3.1 0 .3-.2.3-.3 0-.3-.5-1.7-.5-1.9 0-.2.2-2-1-2.9z" class="st11"/><path fill="#8d3b26" d="M70.1 15.7s-1.7-.7-3.5 1.5c-.4.5.7 2 .6 2.2-.1.2-1.8-1-1.7-.8.9 1.8.4 3 .2 3-.5.1-2.6-2.4-2.1-4.7.5-2.3 2.8-2.9 3.4-2.9.6 0 2.4-.1 3.1 1.7z"/><path d="M66.5 18.8c.3.6.5 1.4.2 1.6-.3.1-.8-.2-1.1-.8-.3-.6-.3-1.2.1-1.3s.6-.1.8.5z" class="st11"/><path fill="#383838" d="M64.8 19.3c.1 0 .8 1.4 1.4 1.9.7.6 1.7 1.1 2.9 1.1.2 0 .5-.1.5-.1s-.4-.2-.5-.2c-1.4-.2-2.2-.8-2.3-.9-.1-.1.3-1.3.4-2.2 0-.4-.1-1.2-.1-1.2l-.4.1s.1.6.1.9c-.1 1.1-.4 2-.4 2s-.4-.4-.6-.8c-.3-.4-.7-1.2-.7-1.2l-.3.6z"/><path fill="#002d56" d="M71.5 16c0-.3-.9-.3-1-.5-.3-1-1.3-2.7-4-2.3-3.8.6-4.5 4.5-3.1 6.4.3.4.7.8.8.9.2.1.3-.6 1.2-1.3.7-.6 1.5-1.1 2.2-1.4 1.7-.6 4-1.5 3.9-1.8z"/><path d="M46 35c.3-1.2 1.8-2 3.2-2.2 1.4-.2 5.5 1 7.3 1.6 1.9.7 7.1 3.3 7.6 4.5.6 1.2.1 3.2-2.4 3-2.4-.3-8-1.3-10.4-2-2.3-.7-6.1-1.2-5.3-4.9z" class="st9"/><path d="M63 38.7c-1.4.1-3.8 3.9-3.2 7.6.6 3.7 2.2 7.4 2.3 8.1.1.6-.2 2.2.4 2.4.6.3 3.1-1.2 2.9-1.7-.2-.5-.3-.3-.6-1.6s-.5-8-.5-9.5c.1-1.5 1-5.5-1.3-5.3z" class="st9"/><path d="M63.6 56.2c-.6-.3-.4-1.8-.4-2.4-.1-.6-1.8-4.3-2.3-8.1-.2-1.6.1-3.2.6-4.6-2.8-.4-7.1-1.2-9.1-1.8-1.6-.5-3.9-.9-4.9-2.3-.1-.1-.2-.1-.2-.2-1.5-2-.9-4 .2-6.1-.1-.1-.3-.2-.4-.4-1.4 2.6-2.5 4.8-.7 7.2.1.1.1.2.2.2 1 1.4 3.3 1.8 4.9 2.3 2 .6 6.3 1.4 9.1 1.8-.5 1.3-.9 2.9-.6 4.6.6 3.7 2.2 7.4 2.3 8.1.1.6-.2 2.2.4 2.4.4.2 1.8-.5 2.5-1.1-.7.3-1.3.5-1.6.4z" class="st15"/><path d="M59.6 44.1s-.2 2.3.3 4.3 2 5.4 2 5.8c-.1.5 0 2.3.2 2.7.2.4.8 1 .9 1.1.1.1.3.7.3.7l2.6-.6v-.6s2.4-.1 4-.6c1.6-.6 2.7-1.2 2.7-1.5 0-.3-.3-.8-1.7-.5-1.4.3-4.5-.5-5.3-.7-.8-.2-1.2-9.6-1.2-9.6s-.8-1.6-1.9-1.8c-1.3-.1-2.9 1.3-2.9 1.3z"/><path d="M67.7 52.9l1.7-.4c.2 0 .3-.2.3-.5 0-.2-.2-.3-.4-.3l-1.7.4c-.2 0-.3.2-.3.5 0 .2.2.3.4.3z" class="st1"/><path d="M69.3 52.1l-1.4.4s.3 1 .5 1.4c.2.4 1 2.2 1 2.9v.8l1.7-.6s-.1-.8-.4-1.6c-.3-.7-1-1.7-1.2-2.1-.1-.5-.2-1.2-.2-1.2z" class="st1"/><path d="M64.8 25.2c.6.6.8 1.4.4 1.9s-1.3.4-1.9-.2c-.6-.6-.8-1.4-.4-1.9s1.2-.4 1.9.2z" class="st9"/><path d="M60.2 36.2c-1.4-.8-2.9-1.4-3.7-1.7-.4-.2-1-.4-1.7-.5 0-.1 0-.2.1-.2l-2.1-.3c-.1 0-.2-.1-.3-.1-.8-.2-1.6-.5-2.3-.8-.1.4 0 .8.7 1.2 1.7.8 9.6 2.8 9.7 2.8-.2-.3-.3-.4-.4-.4z" class="st15"/><path d="M81.4 31.6s-2.4-1-5-1.5-5.3-.3-6.1.7c-.8 1-.3 2.2 1.2 2.7s9.2.7 9.4.7c.3-.1.5-2.6.5-2.6z" class="st10"/></g></svg>
