<svg class="S" xmlns="http://www.w3.org/2000/svg" viewBox="0 0 126 126"><defs/><path fill="red" d="M106.3 21L63.6 8.1c-.4-.1-.9-.1-1.4 0L19.6 21c-.9.3-1.5 1.1-1.5 2v56.4c0 7.9 3.9 15.3 10.5 19.7l30.7 17.8c1.1.7 2.3 1.1 3.6 1.1 1.3 0 2.5-.4 3.6-1.1l30.7-17.8c6.6-4.4 10.5-11.7 10.5-19.7V23c.1-.9-.5-1.7-1.4-2z"/><path fill="#fcdd00" d="M103.5 79.4c0 6.5-3.2 12.5-8.6 16.1l-30.7 17.8c-.7.5-1.7.5-2.4 0L31.1 95.5c-5.4-3.6-8.6-9.6-8.6-16.1V24.6L63 12.4l40.6 12.2-.1 54.8z"/><path fill="red" d="M28.4 37L63 97l8.8-15.3L46 37H28.4zm47.5 37.5L97.6 37H67.2v22.3l8.7 15.2z"/><path d="M63 12.4v101.3c.4 0 .8-.1 1.2-.4l30.7-17.8c5.4-3.6 8.6-9.6 8.6-16.1V24.6L63 12.4z" opacity=".1"/></svg>
