<svg class="S" xmlns="http://www.w3.org/2000/svg" xmlns:xlink="http://www.w3.org/1999/xlink" viewBox="0 0 126 126"><defs><filter id="luminosity-noclip" x="23.34" y="-7963" width="79.85" height="32766" filterUnits="userSpaceOnUse" color-interpolation-filters="sRGB"><feFlood flood-color="#fff" result="bg"/><feBlend in="SourceGraphic" in2="bg"/></filter><mask id="mask" x="23.34" y="-7963" width="79.85" height="32766" maskUnits="userSpaceOnUse"><g style="filter:url(#luminosity-noclip)"/></mask><linearGradient id="linear-gradient" x1="63.27" y1="-5.75" x2="63.27" y2="74.95" gradientUnits="userSpaceOnUse"><stop offset="0" stop-color="#fff" stop-opacity="0.4"/><stop offset="0.01" stop-color="#fff" stop-opacity="0.39"/><stop offset="0.32" stop-color="#fff" stop-opacity="0.22"/><stop offset="0.6" stop-color="#fff" stop-opacity="0.1"/><stop offset="0.84" stop-color="#fff" stop-opacity="0.03"/><stop offset="1" stop-color="#fff" stop-opacity="0"/></linearGradient></defs><g style="isolation:isolate"><g id="design"><path d="M66.74,107.61S75,109,79.61,108.77l-2.31.84s-7.31.11-11.87-1Z" style="fill:#3b2314"/><circle cx="63" cy="63" r="50" style="fill:#a16532"/><path d="M87.24,98.06c.75-.75,1.18-1.24,1.25-1.31h0c.94-1.1-.15-7.13-1.24-12.06-2.38-10.71-9-21-9-21.06L77.84,63l-.55.43s-3,2.34-8.77,7.18C63.21,75.06,54,80.4,52.5,81.28a65.86,65.86,0,0,1-9.38-3.67,59.38,59.38,0,0,1-12.5-8.43c1.22-2.36,7.31-13.71,13.93-19.64a37.08,37.08,0,0,1,14.9-8.29l1.43-.32-3.4-2.31.86-16.44c1.08-.41,5.26-1.6,14.77,0C83.93,24,91.74,32.89,92.51,33.8c.3.78,2.47,7.05,1.28,17.93-1.52,13.8-4.11,20.32-4.13,20.39l1.17.47c.11-.27,2.68-6.75,4.21-20.72,1.31-12-1.28-18.38-1.39-18.64l0-.09-.06-.07c-.34-.41-8.41-10.12-20.23-12.13s-15.75.19-15.91.28l-.3.17-.93,17.88,1.65,1.12A39.34,39.34,0,0,0,43.7,48.6C36.16,55.35,29.54,68.49,29.26,69l-.21.43.35.32a61.27,61.27,0,0,0,13.2,9,59,59,0,0,0,9.85,3.81l.24.06.21-.12c.11-.06,10.56-6,16.42-10.89,4.37-3.63,7.11-5.84,8.2-6.72,1.41,2.31,6.48,11,8.48,20,2,8.87,1.58,10.75,1.5,11-.5.55-5.89,6.45-12.42,8.91a39.32,39.32,0,0,1-21.63,1.83L51.7,104a1.24,1.24,0,0,0-1.91-.19L44.1,109.3l1.41.59,5.15-5.14,2,3,.23.06a39.44,39.44,0,0,0,22.63-1.8C80.76,104.08,85.18,100.12,87.24,98.06Z" style="fill:#3b2314"/><path d="M112.85,66.85l.1-1.5c-.08,0-8.26,4.48-14.93,5.74a115.44,115.44,0,0,1-15.43,1.48l0,1.27a119.23,119.23,0,0,0,15.63-1.51C105.12,71,112.55,67,112.85,66.85Z" style="fill:#3b2314"/><path d="M100.58,96l1.59-1.91c-6,2.37-13.94,1.65-14,1.64l-.34,1.22A22.59,22.59,0,0,0,100.58,96Z" style="fill:#3b2314"/><path d="M105.14,36.07,104,34.36c-7.54-2.52-11-1.54-11.09-1.5l.35,1.22-.18-.61.17.61S98,33.7,105.14,36.07Z" style="fill:#3b2314"/><path d="M63,108.46l.88-.91c-9.11-8.86-7.6-27.19-7.58-27.37l-1.26-.11C55,80.84,53.49,99.18,63,108.46Z" style="fill:#3b2314"/><path d="M92.65,62l.72-1c-29-20.39-33.81-21-34-21l-.09,1.26C59.45,41.29,64.48,42.19,92.65,62Z" style="fill:#3b2314"/><polygon points="58.36 21.78 58.59 13.19 57.32 13.32 57.1 21.75 58.36 21.78" style="fill:#3b2314"/><path d="M35.4,60.38c0-.11-5.12-11-4.54-21.8.56-10.59,2-15.42,2-15.5L31.22,24.4c-.12.21-1,3.16-1.63,14.11-.59,11.15,4.46,22,4.67,22.41Z" style="fill:#3b2314"/><path d="M31.65,52.09l.05-1.26A37.11,37.11,0,0,0,13.48,56l-.22,1.81A45.58,45.58,0,0,1,31.65,52.09Z" style="fill:#3b2314"/><path d="M60.45,104.69l-.17-1.26c-17,2.23-31.16-11.85-32.21-12.93a41,41,0,0,1-3.9-25.58,31.72,31.72,0,0,0,5.28,4.91l.75-1s-4.37-3.22-5.78-5.75l-.73-1.31-.42,1.44c-.16.53-3.76,13.12,3.71,28l0,.09.07.06C27.24,91.46,42.23,107.07,60.45,104.69Z" style="fill:#3b2314"/><path d="M27.36,91.47l.37-1.2c-2.59-.81-9-4-9.67-5.32l1.29,2.43C20.48,89.62,26.62,91.24,27.36,91.47Z" style="fill:#3b2314"/><path d="M80.91,16.3,79,15.62c-8.17,2.46-10.25,4.86-10.34,5l1,.83S73.17,18.63,80.91,16.3Z" style="fill:#3b2314"/><path d="M65.06,43.28S58.82,49.71,51.6,58.87A83,83,0,0,0,40.72,77.11l4.87,2.29s5.83-11.47,10.95-17.52S70.31,46.35,70.31,46.35Z" style="fill:#3b2314"/><path d="M23.61,79.25s6.83,6.58,13.72,8.4S56,90.51,56,90.51l.7,4s-11.84.23-19.29-2.6a42.24,42.24,0,0,1-12.57-7.63Z" style="fill:#3b2314"/><path d="M38.12,19.61A43.1,43.1,0,0,0,40.4,36.06c3,8.37,5.14,11.81,5.14,11.81l4.55-3.22S42,25.45,43.17,17.09Z" style="fill:#3b2314"/><path d="M30.48,34.67A42.63,42.63,0,0,0,16.75,44l-1.06,2.82s10-7.42,14.54-8.23Z" style="fill:#3b2314"/><path d="M92.9,22.92s-4.46-1-9.44,2.55L88,28.65a19.41,19.41,0,0,1,6.7-4.31Z" style="fill:#3b2314"/><path d="M96.05,33.31s5.81,4.94,7.82,14.84-1.09,22.33-1.09,22.33l2-.71s3.85-11.23,1-21.94-8.09-14.36-8.09-14.36Z" style="fill:#3b2314"/><path d="M87.17,87.42a21.59,21.59,0,0,0,14.34-4.59,53.1,53.1,0,0,0,10.64-10.62l-1.47,6a37,37,0,0,1-11.05,9.46A56.93,56.93,0,0,1,88,92.35Z" style="fill:#3b2314"/><path d="M65.46,73.78s4.23,9.59,7.36,15S81.63,102,81.63,102L77,104.76a150.4,150.4,0,0,1-9.2-12.6C63.36,85.38,59.21,78,59.21,78Z" style="fill:#3b2314"/><path d="M57.3,29.94a87.93,87.93,0,0,1,18.15,1.8c8.61,2,19.2,10.09,19.2,10.09l.12,3.34s-10.51-7.79-19.47-9.7a74.42,74.42,0,0,0-18.22-1.25Z" style="fill:#3b2314"/><polygon points="32.25 94.98 31.19 101.58 35.86 104.93 36.97 98.24 32.25 94.98" style="fill:#3b2314"/><path d="M23.69,61.75,26,52.05l5.71-.55,2.59,9.42L30.2,68.81S25,66.18,23.69,61.75Z" style="fill:#3b2314"/><polygon points="51.09 104.08 53.1 107.29 62.61 108.03 60.38 104.14 51.09 104.08" style="fill:#3b2314"/><polygon points="77.84 63.03 84.84 56.03 92.94 61.61 90.2 72.7 82.61 73.4 77.84 63.03" style="fill:#3b2314"/><path d="M57.83,18s4.86-.2,7.39,0a12.81,12.81,0,0,1,5.32,2l-1.11,1.11s-7.67-.23-9.37.23a10,10,0,0,1-2.24.45Z" style="fill:#3b2314"/><path d="M112.66,63.23a49.4,49.4,0,0,1-.43,6.59c0,.35-.09.69-.15,1a49.08,49.08,0,0,1-7.44,19.46c-.21.33-.43.66-.65,1a50.12,50.12,0,0,1-16.94,15.42h0l-1.46.78A49.57,49.57,0,0,1,63,112.92c-.69,0-1.36,0-2,0a43.75,43.75,0,0,1-5-.46h0a49.38,49.38,0,0,1-25.11-11.35c-.52-.44-1-.89-1.54-1.37a48.18,48.18,0,0,1-5.87-6.48c-.27-.35-.53-.69-.77-1a49,49,0,0,1-6.31-11.9,47.89,47.89,0,0,0,10,2.51h0a46.12,46.12,0,0,0,5,.46c.68,0,1.35,0,2,0a49.49,49.49,0,0,0,22.58-5.41l1.47-.79h0A50,50,0,0,0,74.34,61.65l.65-1a49.34,49.34,0,0,0,7.44-19.46c.06-.35.11-.7.15-1A49.73,49.73,0,0,0,80,16.54,49.69,49.69,0,0,1,112.66,63.23Z" style="fill:#878787;opacity:0.2;mix-blend-mode:multiply"/><path d="M112.66,63.23a49.4,49.4,0,0,1-.43,6.59c0,.35-.09.69-.15,1a49.08,49.08,0,0,1-7.44,19.46c-.21.33-.43.66-.65,1a50.12,50.12,0,0,1-16.94,15.42h0l-1.46.78A49.57,49.57,0,0,1,63,112.92c-.69,0-1.36,0-2,0a43.75,43.75,0,0,1-5-.46h0a49.38,49.38,0,0,1-25.11-11.35c-.52-.44-1-.89-1.54-1.37a48.46,48.46,0,0,1-5.85-6.45,49.23,49.23,0,0,0,22.93,9.59h0a43.37,43.37,0,0,0,5,.46c.68,0,1.35,0,2,0A49.69,49.69,0,0,0,76,97.93l1.46-.79h0A50,50,0,0,0,94.41,81.71c.22-.32.44-.64.65-1a49.13,49.13,0,0,0,7.44-19.46c.06-.35.11-.69.15-1A49.62,49.62,0,0,0,93,23.64,49.57,49.57,0,0,1,112.66,63.23Z" style="fill:#878787;opacity:0.2;mix-blend-mode:multiply"/><g style="mask:url(#mask)"><path d="M63.27,17.89c-22.05,0-39.93,15.69-39.93,35v0a8.66,8.66,0,0,0,4.48,7.28,69.34,69.34,0,0,0,35.45,9.53,69.33,69.33,0,0,0,35.44-9.53A8.62,8.62,0,0,0,103.19,53v0C103.19,33.58,85.32,17.89,63.27,17.89Z" style="fill:url(#linear-gradient)"/></g></g></g></svg>
