<svg class="S" xmlns="http://www.w3.org/2000/svg" xmlns:xlink="http://www.w3.org/1999/xlink" viewBox="0 0 126 126"><defs><linearGradient id="linear-gradient" x1="293.48" y1="676.04" x2="293.48" y2="558.73" gradientTransform="matrix(0.84, -0.54, -0.54, -0.84, 147.19, 740.76)" gradientUnits="userSpaceOnUse"><stop offset="0" stop-color="#d9dbdc"/><stop offset="0.05" stop-color="#cccecf"/><stop offset="0.23" stop-color="#9ea0a1"/><stop offset="0.41" stop-color="#7a7b7d"/><stop offset="0.57" stop-color="#606162"/><stop offset="0.72" stop-color="#515153"/><stop offset="0.83" stop-color="#4b4b4d"/></linearGradient><linearGradient id="linear-gradient-2" x1="293.47" y1="674.48" x2="293.47" y2="560.26" gradientTransform="matrix(0.84, -0.54, -0.54, -0.84, 147.19, 740.76)" gradientUnits="userSpaceOnUse"><stop offset="0" stop-color="#fff"/><stop offset="1" stop-color="#c0c1c3"/></linearGradient><linearGradient id="linear-gradient-3" x1="31.12" y1="1264.87" x2="97.98" y2="1198.01" gradientTransform="matrix(1, 0, 0, -1, 0, 1296)" xlink:href="#linear-gradient-2"/><linearGradient id="linear-gradient-4" x1="31.12" y1="1264.86" x2="97.97" y2="1198" gradientTransform="matrix(1, 0, 0, -1, 0, 1296)" xlink:href="#linear-gradient-2"/><linearGradient id="linear-gradient-5" x1="24.83" y1="1271.13" x2="101.27" y2="1194.7" gradientTransform="matrix(1, 0, 0, -1, 0, 1296)" gradientUnits="userSpaceOnUse"><stop offset="0" stop-color="#c1c3c5"/><stop offset="0.26" stop-color="#bec0c2"/><stop offset="0.46" stop-color="#b5b7b9"/><stop offset="0.63" stop-color="#a5a6a8"/><stop offset="0.79" stop-color="#8e9092"/><stop offset="0.94" stop-color="#727375"/><stop offset="1" stop-color="#656668"/></linearGradient><linearGradient id="linear-gradient-6" x1="31.11" y1="1264.85" x2="97.96" y2="1198" gradientTransform="matrix(1, 0, 0, -1, 0, 1296)" gradientUnits="userSpaceOnUse"><stop offset="0" stop-color="#c4d6ee"/><stop offset="0.37" stop-color="#52a2d4"/><stop offset="0.56" stop-color="#3c8dc1"/><stop offset="0.97" stop-color="#055890"/><stop offset="1" stop-color="#00538c"/></linearGradient><linearGradient id="linear-gradient-7" x1="31.11" y1="1264.86" x2="97.97" y2="1198" xlink:href="#linear-gradient-6"/><linearGradient id="linear-gradient-8" x1="31.12" y1="1264.86" x2="97.98" y2="1198.01" xlink:href="#linear-gradient-6"/><linearGradient id="linear-gradient-9" x1="24.84" y1="1271.13" x2="101.27" y2="1194.7" gradientTransform="matrix(1, 0, 0, -1, 0, 1296)" gradientUnits="userSpaceOnUse"><stop offset="0" stop-color="#197eb4"/><stop offset="1" stop-color="#00538c"/></linearGradient><linearGradient id="linear-gradient-10" x1="24.84" y1="1271.14" x2="101.27" y2="1194.7" xlink:href="#linear-gradient-9"/><linearGradient id="linear-gradient-12" x1="31.12" y1="1264.86" x2="97.98" y2="1198.01" gradientTransform="matrix(1, 0, 0, -1, 0, 1296)" gradientUnits="userSpaceOnUse"><stop offset="0" stop-color="#fffdf8"/><stop offset="0.18" stop-color="#f48264"/><stop offset="0.48" stop-color="#e01d24"/><stop offset="1" stop-color="#961b1e"/></linearGradient><linearGradient id="linear-gradient-13" x1="31.11" y1="1264.87" x2="97.98" y2="1198.01" xlink:href="#linear-gradient-12"/><linearGradient id="linear-gradient-14" x1="31.11" y1="1264.85" x2="97.97" y2="1198" xlink:href="#linear-gradient-12"/><linearGradient id="linear-gradient-15" x1="24.85" y1="1271.14" x2="101.28" y2="1194.71" gradientTransform="matrix(1, 0, 0, -1, 0, 1296)" gradientUnits="userSpaceOnUse"><stop offset="0" stop-color="#c61d23"/><stop offset="1" stop-color="#961b1e"/></linearGradient><linearGradient id="linear-gradient-16" x1="24.84" y1="1271.14" x2="101.27" y2="1194.71" xlink:href="#linear-gradient-15"/><linearGradient id="linear-gradient-17" x1="24.84" y1="1271.14" x2="101.28" y2="1194.71" xlink:href="#linear-gradient-15"/><linearGradient id="linear-gradient-18" x1="31.12" y1="1264.87" x2="97.98" y2="1198.01" gradientTransform="matrix(1, 0, 0, -1, 0, 1296)" gradientUnits="userSpaceOnUse"><stop offset="0" stop-color="#fff100"/><stop offset="0.15" stop-color="#fcec00"/><stop offset="0.33" stop-color="#f4df02"/><stop offset="0.51" stop-color="#e6c903"/><stop offset="0.69" stop-color="#d3aa06"/><stop offset="0.88" stop-color="#ba820a"/><stop offset="1" stop-color="#a8650c"/></linearGradient><linearGradient id="linear-gradient-19" x1="31.12" y1="1264.86" x2="97.97" y2="1198.01" xlink:href="#linear-gradient-18"/><linearGradient id="linear-gradient-20" x1="31.11" y1="1264.88" x2="97.99" y2="1198" xlink:href="#linear-gradient-18"/><linearGradient id="linear-gradient-21" x1="24.84" y1="1271.14" x2="101.28" y2="1194.71" gradientTransform="matrix(1, 0, 0, -1, 0, 1296)" gradientUnits="userSpaceOnUse"><stop offset="0" stop-color="#e2b807"/><stop offset="1" stop-color="#a8650c"/></linearGradient><linearGradient id="linear-gradient-22" x1="24.84" y1="1271.13" x2="101.26" y2="1194.7" xlink:href="#linear-gradient-21"/><linearGradient id="linear-gradient-23" x1="24.86" y1="1271.11" x2="101.25" y2="1194.73" xlink:href="#linear-gradient-21"/></defs><g id="Layer_4" data-name="Layer 4"><path d="M105.15,36.12a50,50,0,1,1-69-15.27A50,50,0,0,1,105.15,36.12Z" style="fill:url(#linear-gradient)"/><path d="M104.05,36.83A48.69,48.69,0,1,1,36.81,22h0A48.68,48.68,0,0,1,104,36.83Z" style="fill:url(#linear-gradient-2)"/><path d="M99.84,36a45.71,45.71,0,1,0-9.79,63.91A45.71,45.71,0,0,0,99.84,36ZM63,105.41A42.41,42.41,0,1,1,105.4,63h0A42.45,42.45,0,0,1,63,105.41Z" style="fill:url(#linear-gradient-3)"/><path d="M63,20.85A42.16,42.16,0,1,0,105.15,63,42.17,42.17,0,0,0,63,20.85Zm0,80A37.87,37.87,0,1,1,100.87,63h0A37.91,37.91,0,0,1,63,100.88Z" style="fill:url(#linear-gradient-4)"/><path d="M63,20.61A42.41,42.41,0,1,0,105.4,63,42.41,42.41,0,0,0,63,20.61Zm0,84.56A42.16,42.16,0,1,1,105.15,63h0A42.19,42.19,0,0,1,63,105.17Z" style="fill:url(#linear-gradient-5)"/><path d="M63,25.41A37.61,37.61,0,1,0,100.6,63,37.61,37.61,0,0,0,63,25.41Zm0,71A33.34,33.34,0,1,1,96.34,63,33.34,33.34,0,0,1,63,96.38Z" style="fill:url(#linear-gradient-6)"/><path d="M63,29.92A33.1,33.1,0,1,0,96.1,63h0A33.13,33.13,0,0,0,63,29.92Zm0,61.9A28.81,28.81,0,1,1,91.8,63h0A28.83,28.83,0,0,1,63,91.82Z" style="fill:url(#linear-gradient-7)"/><path d="M63,34.44A28.57,28.57,0,1,0,91.57,63,28.57,28.57,0,0,0,63,34.44Zm0,52.84A24.28,24.28,0,1,1,87.28,63,24.28,24.28,0,0,1,63,87.28Z" style="fill:url(#linear-gradient-8)"/><path d="M63,25.15A37.87,37.87,0,1,0,100.87,63h0A37.91,37.91,0,0,0,63,25.15Zm0,75.47A37.61,37.61,0,1,1,100.6,63,37.6,37.6,0,0,1,63,100.62Z" style="fill:url(#linear-gradient-9)"/><path d="M63,29.67A33.34,33.34,0,1,0,96.34,63,33.34,33.34,0,0,0,63,29.67Zm0,66.44A33.1,33.1,0,1,1,96.1,63h0A33.13,33.13,0,0,1,63,96.11Z" style="fill:url(#linear-gradient-10)"/><path d="M63,34.2A28.81,28.81,0,1,0,91.8,63,28.81,28.81,0,0,0,63,34.2Zm0,57.4A28.57,28.57,0,1,1,91.57,63,28.57,28.57,0,0,1,63,91.6Z" style="fill:url(#linear-gradient-10)"/><path d="M63,39A24,24,0,1,0,87,63,24,24,0,0,0,63,39Zm0,43.84A19.79,19.79,0,1,1,82.79,63,19.79,19.79,0,0,1,63,82.81Z" style="fill:url(#linear-gradient-12)"/><path d="M63,43.5A19.51,19.51,0,1,0,82.5,63,19.52,19.52,0,0,0,63,43.5Zm0,34.73A15.22,15.22,0,1,1,78.22,63h0A15.24,15.24,0,0,1,63,78.23Z" style="fill:url(#linear-gradient-13)"/><path d="M63,48A15,15,0,1,0,78,63h0A15,15,0,0,0,63,48ZM63,73.7A10.69,10.69,0,1,1,73.69,63,10.69,10.69,0,0,1,63,73.7Z" style="fill:url(#linear-gradient-14)"/><path d="M63,38.73A24.28,24.28,0,1,0,87.28,63,24.29,24.29,0,0,0,63,38.73ZM63,87A24,24,0,1,1,87,63h0A24.06,24.06,0,0,1,63,87Z" style="fill:url(#linear-gradient-15)"/><path d="M63,43.23A19.79,19.79,0,1,0,82.79,63,19.79,19.79,0,0,0,63,43.23Zm0,39.25A19.51,19.51,0,1,1,82.5,63v0A19.51,19.51,0,0,1,63,82.52Z" style="fill:url(#linear-gradient-16)"/><path d="M63,47.79A15.22,15.22,0,1,0,78.22,63,15.21,15.21,0,0,0,63,47.79ZM63,78A15,15,0,1,1,78,63v0A15,15,0,0,1,63,78Z" style="fill:url(#linear-gradient-17)"/><path d="M63,52.56A10.45,10.45,0,1,0,73.45,63,10.45,10.45,0,0,0,63,52.56Zm0,16.61A6.17,6.17,0,1,1,69.15,63v0A6.15,6.15,0,0,1,63,69.17Z" style="fill:url(#linear-gradient-18)"/><path d="M63,57.08A5.94,5.94,0,1,0,68.94,63,5.94,5.94,0,0,0,63,57.08Zm0,8.15A2.24,2.24,0,1,1,65.22,63v0A2.22,2.22,0,0,1,63,65.24Z" style="fill:url(#linear-gradient-19)"/><circle cx="63" cy="63.01" r="1.99" style="fill:url(#linear-gradient-20)"/><path d="M63,52.32A10.69,10.69,0,1,0,73.69,63,10.7,10.7,0,0,0,63,52.32Zm0,21.14A10.45,10.45,0,1,1,73.45,63h0A10.47,10.47,0,0,1,63,73.46Z" style="fill:url(#linear-gradient-21)"/><path d="M63,56.85A6.17,6.17,0,1,0,69.15,63h0A6.17,6.17,0,0,0,63,56.85ZM63,69A5.94,5.94,0,1,1,68.94,63h0A5.93,5.93,0,0,1,63,69Z" style="fill:url(#linear-gradient-22)"/><path d="M63,60.78A2.24,2.24,0,1,0,65.22,63h0A2.24,2.24,0,0,0,63,60.78ZM63,65a2,2,0,1,1,2-2A2,2,0,0,1,63,65Z" style="fill:url(#linear-gradient-23)"/></g></svg>
