<svg class="S" xmlns="http://www.w3.org/2000/svg" viewBox="0 0 126 126"><defs/><style>.st1{fill:#f59374}.st4{fill:#c6ac87}</style><path fill="#6e3e25" d="M0 56.1s3-2.4 15.1-1.2c1.8.1 3.7-.2 5.3-1.1 0 0-9.8 1.9-14.7-5.8 0 0 10.4 2.1 14.3 0 0 0-9.6-2.1-9.6-7.1 0 0 7.4 3.4 13.2.9 1.3-.5 4-1.9 5.5-1.9 0 0-9.4-1.4-12.2-6.9 0 0 11.6 3.9 14.9.9 0 0-8.1-.5-8.5-2.6 0 0 6 .9 12.2-4.6 2.6-2.3 6.8-4.5 14.7-2.2 0 0-6.1-4.6-12.9-3.8 0 0 5.4-3.9 17.7-.1 0 0-6.1-2.5-5.3-10.2 0 0 3.3 7.7 13.6 6.9 4.2-.3 10.9 1.4 14.4 7.1 0 0-3.9-7.3-8.7-9 3.9.4 7.6 1.8 10.7 4 1.3.9 8.4 5.1 9.4 10.2-.4-3.3-1.1-6.6-2-9.8 7.1 4.7 8.7 11.1 10 18.1l8.4 6.3s7.7 20.5 16.2 20.3l3.4 3.2s-1.1 4.2 1.1 6.3c0 0-2.2 4.1-10.1 4.9l-1.9 3.7c-4.1 1.3-8.5.9-12.5-.8 0 0 1.4-5.5-.7-8.1l-3-2.2s-9-.6-13.5-2.1l-10.7-4.9s-4.5 9.7-10.5 22.7c-1.6 3.4-7.4 12.8-10.3 17.7 0 0-4.6 8.1-8.3 10.7 0 0-.2-.9-.4-2.4 0-.3-.1-.6-.2-.9-1.9-6.3-8-15.6-11.2-20.2C21.4 75.9 9.5 70.4 9.5 70.4l13.2-5.7c-2.2-1.3-16.5-9-22.7-8.6z"/><path d="M28.4 44.1c2.9-1.7 6.1-2.8 9.3-3.3-3.8 0-7.6.9-11 2.6-3.6 1.6-7.6 2-11.4 1 0 0 8.2 5.4 14.8 1.9-2.7.7-5.5.7-8.3-.3 2.3-.1 4.7-.7 6.6-1.9zm-8.5 13.1s-7.8-.5-9-.4l11.8 4.6-4.4-3.3s8.6 1.5 11.8-3.4c-.2.2-3.2 3.2-10.2 2.5zm10.5-19.5c1.7-1.1 1.5-1.3 1.7-1.9-1.1.8-4.8 1.5-8.6.6 0 0 5.1 2.7 8.3 2.5-.6-.4-1.5-.8-1.4-1.2zM21.8 51c1.4-1.4 1.2-1.6 1.3-2.2-.8 1.1-4.4 2.5-8.2 2.5 0 0 5.7 1.5 8.6.6-.8-.3-1.7-.5-1.7-.9zm13-18.7c-1.1.1-2.2.1-3.3-.1 2.4-.8 4.8-2.1 6.9-3.7 2.2-1.8 4.9-2.7 7.7-2.8-2.1-.4-4.7-.7-8.5 1.7-2.9 1.8-6 3.4-9.2 4.5 0 .2 3.5 1.6 6.4.4z" class="st1"/><path fill="#102740" d="M116 72.6s-.9-4.8-3.9-4.3c0 0-1.4 1.3 3.9 4.3z"/><path fill="#fff" d="M95.1 49.4l-5.7-2.7s.8 3.5 5.7 2.7z"/><path d="M75.7 18.7s2.2 4.4 3.4 4.9c-.6-.8-1.2-1.8-1.5-2.8 0 0 6.5 4.5 8.1 6.7-.1 0-2.7-5.4-10-8.8zm19.1 17.5c0-.3-1.3-9.1-4.8-12.1 0 0 .5 6 1.7 8.2-.3-1.5-.5-2.9-.5-4.5 1.7 2.2 3.6 8.4 3.6 8.4zM45 20.6s3.3 1.2 6 2.4c-1.8-1.1-3-1.8-3-1.8s5.3.8 8.6 1.5c-.1.1-7.5-2.6-11.6-2.1zm7.5-5.1c.9 2.9 3.5 5.1 6.5 5.7 0 0-3-.9-3.6-2.5 0 0 2 2 9.7 1.6 2.2-.1 6 0 8.5 1.8 0 0-3-3.2-10.5-3-3.9.3-7.7-1-10.6-3.6z" class="st1"/><path d="M70.2 41.1c-4.3-2.5-4.6-5.8-4.6-5.8l-41.1 29c-1.8 2.7-.8 8.7-.8 8.7 1.5-3.8 16.4-15.8 16.4-15.8-4.8 5.8-11.5 19.6-11.5 19.6.6 7.1 11.4 14.4 11.4 14.4 2.8-1.4 9.7-10.2 9.7-10.2 2.6-3.9 10.8-14.2 14.9-19.4C58.8 73.7 44.9 95.4 45 95.4l1.9 10.3c9-10 22.8-44 22.8-44L66.5 57v.1L64.7 53C58.5 54.8 48 66.6 48 66.6c4.1-16 22.2-25.5 22.2-25.5z" class="st4"/><path d="M122.1 68.3c-1.1.3-5.8-2.8-5.8-2.8-4-2.4-12.7-15.9-12.7-15.9l-.9-3.9c-1.9-.7-11.3-8.7-13.8-10.8-2.2-2.5-5.7-6.2-8.1-6.6 0 0 .3 1.1 1.1 2.3 1.6.8 4.3 2.5 5.4 4h-6.4l1.8 2.9c-1.7-1.6-17-10.1-17-10.1.1 4.5 8.3 11.7 9.1 11.7.8 0 4.3.7 4.3.7l1.2 3.9 7.7.9 9.9 4.4s7.9 9.4 8.5 10.1c.6.7-9.2-7.7-9.2-7.7-5.8.8-11.7-4.7-11.7-4.7h-2.7c4.5 6.8 10.4 6.7 10.4 6.7-7.4.9-11.8-4.7-13.1-6.7h-5c2.4 5.3 5.6 10.1 9.5 14.3-4.5-1.5-4-1.5-9.5-5 1.4 3.9 4.8 7.1 7.6 7.7 2.7.5 6.5-.6 6.5-.6 5.3-.9 10.6 1.1 13.9 5.1h-3.3c2.2.8 4.6 4.2 4.6 4.2l2.3 8.5c1.6 1.2 6 0 6 0l1.3-3.5-2-.7c0 3.6-2.4 1-2.4 1l-1.2-3.6-1.6-2.4s1.8 1.2 2.2 1.4l3.5 2.3c2.1.6 4.4.7 6.6.2-.2-1.1-.1-2.1.2-3l.9 2.6c.7-.2 1.5-.5 2.2-.9-.8-2.1-.8-4-.3-6zm-11.2.7l6.2 1.3c-4.6 1.8-6.2-1.3-6.2-1.3z" class="st4"/><path d="M50.3 121.7h-42c-2.2 0-4-1.8-4-4v-42c0-2.2 1.8-4 4-4h42c2.2 0 4 1.8 4 4v42c0 2.2-1.8 4-4 4z" opacity=".3"/><path fill="#273445" d="M46 126H4c-2.2 0-4-1.8-4-4V80c0-2.2 1.8-4 4-4h42c2.2 0 4 1.8 4 4v42c0 2.2-1.8 4-4 4z"/><linearGradient id="SVGID_1_" x1="25" x2="25" y1="12.441" y2="41.541" gradientTransform="matrix(1 0 0 -1 0 128)" gradientUnits="userSpaceOnUse"><stop offset="0" stop-color="#e6a500"/><stop offset="1" stop-color="#d4ff47"/></linearGradient><path fill="url(#SVGID_1_)" d="M16.7 86.4l12.5 21.7-4.3 7.4L8.2 86.4h8.5zm14.6 18.3l10.5-18.2H27v10.8l4.3 7.4z"/></svg>
