<svg class="S" xmlns="http://www.w3.org/2000/svg" id="design" x="0" y="0" version="1.1" viewBox="0 0 126 126" xml:space="preserve"><defs/><style>.st0{fill:#38332d}.st2{fill:#5c534a}.st3{fill:#807468}.st4{fill:#6b6156}.st5{fill:#fff}</style><g id="Layer_4_1_"><path d="M79.3 108.1c-1.9 0-3.1-1.8-4-3s-.8-2.4-.7-3.3c.1-.7.1-1.1-.1-1.4-.6-.9-5.1-4.4-6.8-5.7l-.3-.3 2.8-5.5.5.7c1 1.3 2.1 2.4 3.2 3.5l.5.4c1.6 1.3 5 3.9 6.8 7.2 1.2 2.3 1.9 3.9 1.5 5.3-.2.7-.8 1.3-1.7 1.8-.7.1-1.2.3-1.7.3z" class="st0"/><path d="M100.9 42.8l-4.4 8.5c-1.1 2.2-1.3 4-1.4 5.9-.1 1.4-.3 2.9-.8 4.5-1.1 4-9.2 10.7-9.6 11l-1.7.4c-1.8.2-3.1.4-3.6.6-1.1 2.1-7.7 12-7.7 12.1-1.1 1.6-4.6 8.7-4.6 8.7l-.1.2-.3.5-17.2 9.6c-2.4.5-5.6.5-8 .5h-.3l-.1-.3c-.3-.6-.4-1.2-.2-1.8.3-.9 1.2-1.8 2.1-2.4l-2 .6c-.1 0-.3.1-.4.1-1.8.4-6.8 1.5-8.2-3.2-.1-.3-.2-.6-.2-.8v-.2c-.1-.2-.1-.4-.1-.6v-1.1c-.1-.2 0-.4.1-.5v-.2l.1-.2c0-.1.1-.2.1-.2l.4-.5.7-.4 2 .1.7.4c1 .8 3.7 1 4.8 1l12.7-6.5 1-1.4-.8-.8-2-2.4c-.1-.3-.1-.5-.1-.8l-.1-1.3c-.1-.2-.1-.4-.1-.6 0-.4-.1-.8-.2-1.2-.1-.2-.1-.4-.1-.6-.1-.4-.1-.8-.2-1.2V78c-.1-.5-.2-.9-.2-1.3l-.4-1.7c-.1-.4-.2-.8-.3-1.1l-.1-.2c-.1-.4-.2-.8-.3-1.1v-.2c-.1-.3-.2-.7-.3-1l-.1-.2c-.1-.4-.2-.7-.3-1V70c-.1-.3-.2-.6-.3-.8V69c-.1-.3-.2-.5-.4-.8V68c-.1-.3-.3-.5-.4-.8-.1-.3-.3-.5-.4-.8-.2-.3-.3-.5-.5-.8-2.3-3.6-5.1-5.3-7.7-6.8-.4-.2-.8-.5-1.2-.7L38 58v.3c-.1.2-.1.4-.2.6l-.1.3c-.1.2-.2.4-.3.7l-.2.1c-.2.3-.3.6-.5.9l-.1.2c-.2.3-.3.5-.5.8l-.9 1.1c-.4.6-.9 1.1-1.5 1.8-.8.9-1.6 1.7-2.6 2.5 4.8 1 14.4 7.4 18.8 11l.2.2v.3l1.2 4.9c0 .1.1.3.1.5v.1c0 .1.1.3.1.5.1.2.1.4.1.5v2.2l-.2.4-.2.2c-.7.8-1.6 1.2-5.4-.6-3.9-1.8-4.4-7.4-4.4-8.9-.9-.6-3.3-1.6-4.4-2-1.6-.7-8.8-3.3-10.9-3.5-.5-.1-1-.1-1.5-.1-1.7-.1-3.3-.2-4.3-1.4-1.2-1.5.8-3.7 2.6-5.6.3-.4.7-.7 1-1.1 1.4-1.6.3-7.3-1.2-10.2-1.2-2.6-2.3-5.2-3.2-7.9-.5.4-1.5 2-2.8 4.8-.2.5-.4.9-.6 1.2-.8 1.7-2.8 5.6-5.6 7.9C7.6 63 2.1 62 1.8 61.9L0 61.4l1.8-.6c3.1-1.1 5.9-2.7 8.4-4.9 2.3-2.1 3.8-6 5-9.1.6-1.6 1.2-3 1.8-4 1.3-2.2 2.3-2.9 2.8-3.1.3-.8.7-1.6 1.2-2.3l.3-.5c.3-.4.5-.7.9-1.1l.6-.6L24 34l1.5-1.2 1.9-1.2 2.1-1 1.3-.6 2.6-.9c.4-.1.9-.2 1.4-.4 5-1.2 11.9-1 20.5.5l7.6 1.5 5.2 1.3 1 .3 4 1c.6.1 1.2.3 1.8.4l.4.1 1.8.3 1.1.1c1 .2 2 .1 2.9-.1.5-.3 1-.7 1.5-1.1l3.3-3.2c.7-.7 2-1.7 3.4-2.7 1.6-1.2 3.4-2.5 4.2-3.4l-1.6-.7-1.6-.6-2.4-.6-1.6-.4 9.1-3.4 4.1 1.3c.4-.4 1.3-.8 3.8-1.3 4.1-.8 9.8 3.1 10.5 3.6l12.2 3.8v1.9l-.2.6-.2.2v.1l-.3.3-.1.1-.3.3c.2 1.8-.8 3.4-2.5 4 .1 1.4-.7 2.6-2 3.1l-.2.1h-.2s-4-1.1-7.7-2.1c-2.8 2-6.1 1.4-7.3 1.1m-58.4 65.2c-.5 0-.9.1-1.3.2-1.5.7-3.1 1.9-3.5 3-.1.2-.1.5 0 .7 2.2-.1 4.5-.3 6.6-.8l17.7-9.5c.5-1.1 3.6-7.2 4.6-8.7C72 83.3 77.8 74 78.3 73c0-.4.4-.7 5-1.2 1-.8 8.9-7 9.9-10.4.4-1.5.6-2.9.7-4.2.2-1.9.4-4 1.5-6.3l1.9-3.7 2.5-4.7c2.2-4.1 4.3-8.1 4.3-8.1l.2-.4.4.1s3.9 1.3 7-1l.2-.2.2.1c3.4 1 7 1.9 7.8 2.2.9-.4 1.4-1.4 1.2-2.4l-.1-.5.5-.1c1.4-.3 2.4-1.7 2.1-3.1l-.1-.4.3-.3.3-.3.1-.1c0-.1.1-.1.1-.1v-.2l.2-.2.1-.1.1-.5v-.7l-11.6-3.5c-.1 0-5.9-4.3-9.8-3.5-1.8.4-2.6.7-3 .8l1.2 1.2-6.2-2-5.7 2.1 4.7 1.7.3.2.3.3.1.2-.2.3c-.7 1-2.7 2.6-4.7 4-1.4 1-2.6 2-3.3 2.6l-3.3 3.2c-.5.5-1.1.9-1.7 1.3l-.1.1c-1.1.3-2.3.3-3.4.1l-1.1-.1c-.6-.1-1.2-.2-1.9-.3l-.5-.1c-.6-.1-1.3-.3-1.9-.4l-4.4-1.1-1-.3-1.1-.2-8.4-1.9-2.8-.6c-8.5-1.5-15.2-1.7-20.1-.5-.5.1-.9.2-1.3.3l-1.7.5-1.1.4-2.4 1.1-1.9 1.1-1.5 1.1-1.9 1.7-.5.5c-.3.3-.5.7-.8 1l-.3.5c-.5.7-.9 1.5-1.2 2.3l-.1.3-.3.1s-1 .4-2.4 2.8c-.5.9-1.1 2.3-1.7 3.8-1.3 3.2-2.8 7.2-5.3 9.5-2 1.6-4.2 3.1-6.7 4.2 1.8.1 4.3 0 5.9-1.2 2.7-2.1 4.5-5.9 5.4-7.5.2-.3.3-.7.5-1.2 1.5-3.3 2.7-5.7 4.2-5.5l.3.1.1.3c.9 2.8 2 5.5 3.3 8.2 1.4 2.7 2.9 9.1 1 11.3-.3.3-.6.7-1 1.1-1.3 1.4-3.2 3.5-2.6 4.3.7.9 2 1 3.6 1 .5 0 1.1.1 1.6.1 2.3.3 9.8 3.1 11.1 3.6 1.4.6 4.7 1.9 4.7 1.9l.3.1v.4c0 .1.1 6.6 3.8 8.3 3.5 1.6 3.9 1.2 4.2.8l.1-.1v-1.8-.5-.7-.2c0-.1 0-.1-.1-.2l-.7-2.6-.6-2.1c-5.5-4.5-15.9-11-19.3-10.7l-1.8.1 1.4-1.1c1.2-.9 2.4-2 3.4-3.1.6-.6 1.1-1.2 1.5-1.7l.9-1.1c.2-.2.3-.5.5-.7l.1-.2c.2-.3.3-.6.5-.8l.1-.2.3-.6.1-.3c.1-.2.1-.3.2-.5l.1-.2c.1-.2.1-.4.1-.6l.1-.8 1.4.9c.4.2.8.5 1.2.7 2.6 1.6 5.6 3.3 8 7.2.2.3.3.5.5.8.2.3.3.6.5.8.2.3.3.6.4.9v.2c.1.3.2.5.4.8v.2l.3.9v.2c.1.3.2.6.3 1v.1c.1.3.2.7.3 1l.1.2c.1.4.2.8.3 1.1l.1.2.3 1.2.4 1.8c.1.4.1.8.2 1.2l.1.4c.1.4.1.9.2 1.3v.4c.1.4.1.9.2 1.3v.5l.1 1.4v.4l2.7 2.9.6.5-1.7 2.4L41 96h-.1c-.4 0-4.1 0-5.6-1.2l-.4-.2h-1.7v.6c0 .1 0 .2-.1.3v1.4c.1.2.1.3.1.5s.1.4.2.6c1 3.4 4.1 3.2 6.9 2.5.2 0 .3-.1.4-.1l1.9-.6 3.5-1.4c3.5-1.4 8.3-3.4 11.1-4.8l1.8-.9c.5-1.2.9-2.5 1.1-3.8.1-.6.2-1.1.4-1.7v-.1l.4-1.8c.4-2.4.8-4.6.9-5.8v-.3c0-.2 0-.4.1-.6l.1-.1.3-.5v-2.4l.1-.4v-.7l.1-.4V74l.1-.4v-2.5l5 1.1-.1.5c-.1.4-2.2 9.4-3 11.8-.8 2.4-2.4 9.2-2.5 9.3l-.1.3-.3.1c-1.4.4-2.7 1-4 1.6-1.3.8-7.6 5.2-7.6 5.2l-.2.2-.3-.1c-.7-.5-1.8-.8-2.9-.8zm.2-1.1c1.1 0 2.1.4 2.6.5.9-.6 4.3-3 6.3-4.3-2.6 1.2-6.1 2.7-8.9 3.8zM32.2 97s0 .1 0 0zm.8-1.4zm27.1-2.5c-.1.1-.1.2-.2.3.3-.1.7-.2 1-.3.3-1.3 1.7-6.9 2.4-9.1.7-2.1 2.4-9.3 2.8-11.2l-1.7-.5c.1-.1-2.9 18.2-4.3 20.8zm34.1-69.5z" class="st0"/><path fill="#948678" d="M125.8 26L114 22.4s-6.1-4.4-10.2-3.6c-4.1.8-3.6 1.4-3.6 1.4l-4.7-1.4-7.4 2.8s5.8 1.7 6.3 2.5c-1.1 1.7-6.3 5-8 6.6-1.7 1.7-3.8 3.8-5 4.4-1.1.6-5.2 0-8.5-.8s-25.3-7.7-38-4.7-14.8 10.7-14.8 10.7-1.1.3-2.8 3-3.3 9.9-6.9 13.2c-2.5 2.2-5.4 3.8-8.5 5 0 0 5.5 1.1 8.3-1.1s4.7-6.1 5.5-7.7 2.8-6.6 4.1-6.3c.9 2.8 2 5.6 3.3 8.3 1.4 2.8 2.8 8.8 1.1 10.7s-4.7 4.7-3.6 6.1c1.1 1.4 3.3 1.1 5.5 1.4s9.6 3 11 3.6 4.7 1.9 4.7 1.9 0 6.9 4.1 8.8 4.4 1.1 5 .5c.5-.6.5-2.5-1.4-8.8-5-4.1-16-11.3-19.8-11 2.8-1.9 7.7-7.4 8-10.5 5.5 3.6 12.9 5.5 14.9 26.7.9 1.2 1.9 2.3 3 3.3l-1.4 1.9-12.9 6.6s-3.8 0-5.2-1.1-4.4-1.1-3 3.6c1.4 4.7 6.6 3 8 2.8 1.4-.3 17.9-7.2 18.7-8 .8-.8 2.8-11.3 3-14 .3-2.8 1.1-7.4 1.1-7.4l3.8.8s-3 9.4-3.8 11.8c-.8 2.5-2.5 9.4-2.5 9.4-1.4.4-2.8 1-4.1 1.7-1.4.8-7.7 5.2-7.7 5.2s-2.8-1.1-4.4-.3c-1.7.8-4.7 2.8-3.6 4.7 2.4-.1 4.8-.3 7.2-.8l17.9-9.6s3.6-7.2 4.7-8.8c1.1-1.7 7.7-12.1 7.7-12.4s4.7-.8 4.7-.8S92.9 65.8 94 62c1.1-3.8.3-6.6 2.2-10.5C98.1 47.7 105 35 105 35s4.1 1.4 7.4-1.1c3.8 1.1 8 2.2 8 2.2 1.2-.5 1.9-1.7 1.7-3 1.7-.3 2.8-2 2.5-3.7v-.1c1.2-1.1 1.2-3.3 1.2-3.3z"/><path d="M68 94.3s6.1 4.7 6.9 5.8c.8 1.1-.5 2.8.8 4.7 1.4 1.9 2.8 3.6 5 2.5s1.9-2.8 0-6.3c-1.9-3.6-5.8-6.3-7.2-7.4-1.2-1.1-2.3-2.3-3.3-3.6L68 94.3zM95.6 24.2c1.4-.8 2.8 1.7 2.8 1.7v-3L94.3 21l-6.1.5c.8.2 5.7 1.7 6.2 2.4-1.1 1.7-6.3 5-8 6.6l-.9.8-.6.6c-.6.6-1.3 1.2-1.9 1.8-2.1 2.5-4 5.1-5.6 8 0 .3 3.6-3.6 5.5-5 2-1.5 11.3-11.6 12.7-12.5z" class="st2"/><path d="M77.1 34.8c-1.4-.2-2.8-.5-4.2-.8-3.3-.8-25.3-7.7-38-4.7-8.2 2-12 5.8-13.7 8.4 4.8-3.8 10.5-6.2 16.5-7.1 14.9-2.2 36 6.4 36 6.4l3.4-2.2z" class="st3"/><path d="M37.1 76.1c1.4.5 4.7 1.9 4.7 1.9s0 6.9 4.1 8.8 4.4 1.1 5 .5c.5-.6.5-2.4-1.3-8.7h-2.4c-1.4 0-2.5-1.1-5.2-2.8-2.8-1.7-9.9-3.6-13.2-4.4-3.3-.8-5-.8-5.8-1.7-.8-.8.3-1.4 2.2-4.7 1.9-3.3 1.4-8.8.5-12.1s-2.8-5.5-1.9-12.4c.6-4.7 6.8-9.1 10.7-11.4C22.2 32.5 20.1 40 20.1 40s-1.1.3-2.8 3-3.3 9.9-6.9 13.2c-2.5 2.2-5.4 3.9-8.5 5 0 0 5.5 1.1 8.3-1.1 2.8-2.2 4.7-6.1 5.5-7.7.8-1.7 2.8-6.6 4.1-6.3.9 2.8 2 5.6 3.3 8.3 1.4 2.8 2.8 8.8 1.1 10.7-1.7 1.9-4.7 4.7-3.6 6.1s3.3 1.1 5.5 1.4c2.2.2 9.7 3 11 3.5z" class="st4"/><path d="M41.7 47.4c-3-2.5-9.3-4.4-9.3-4.4s2.8 8.3 3 11.3c.2 2.1-1.3 7.3-2.1 10.2 2.2-2.4 4.3-5.3 4.5-7.2 5.5 3.6 12.9 5.5 14.8 26.6l.1.2c.8 1.1 1.7 2.1 2.7 3 .5-.4.9-.8 1.2-1.3 1.1-2.5-1.1-16.8-3-23.7 3.6.5 11.6-3.8 11.6-3.8-3.5-.3-7-.8-10.5-1.7-3.7-1.3-10-6.8-13-9.2z" class="st4"/><path d="M39.8 55.3s8 3.8 10.2 9.6c-1.1-3.8-1.4-5-1.4-5 1.3.1 2.5-.1 3.6-.8-1.8-.2-3.4-.7-5-1.7-2.3-1.1-4.8-1.8-7.4-2.1zM45.8 80.6l1.1 3.6-1.1.5c.2-1.3.2-2.7 0-4.1zM47.3 82.2l1.1 3.6-1.1.5c.2-1.4.2-2.8 0-4.1zM49 82.2l1.1 3.6-1.1.5c.1-1.4.1-2.8 0-4.1zM103.7 18.6c-4.1.8-3.6 1.4-3.6 1.4l-4.7-1.4-3.2 1.2c1 0 1.9.2 2.8.6 1.2.6 2.5 1 3.8 1.4v3s1.9-.8 2.2-2.2 5-2.8 6.9-2.2 4.1.3 4.4 3.3c3.2 1.2 9.5 3.2 12.8 4.3.4-.7.6-1.4.6-2.2l-11.8-3.6s-6-4.4-10.2-3.6z" class="st3"/><path d="M98.1 40.5S87.9 55.1 76.6 54.8c.8 5.8 1.4 6.9 1.4 6.9s-18.4 6.6-19.8 6c1.4 3.4 3.6 8.3 4.6 10.7.3-2.8 1-7 1-7l3.8.8s-3 9.4-3.8 11.8c-.8 2.5-2.5 9.4-2.5 9.4-1.4.4-2.8 1-4.1 1.7-1.4.8-7.7 5.2-7.7 5.2s-2.8-1.1-4.4-.3c-1.7.8-4.7 2.8-3.6 4.7 2.4-.1 4.8-.3 7.2-.8l17.9-9.6s3.6-7.2 4.7-8.8c1.1-1.7 7.7-12.1 7.7-12.4s4.7-.8 4.7-.8 9.1-6.9 10.2-10.7c1.1-3.8.3-6.6 2.2-10.5.9-1.7 2.7-5.2 4.5-8.5l-2.5-2.1z" class="st3"/><circle cx="120.3" cy="28" r=".4" class="st2"/><circle cx="121.5" cy="28.1" r=".4" class="st2"/><circle cx="120.9" cy="28.9" r=".4" class="st2"/><path d="M64.7 58.8c-.3-.3-8.3 3.6-11.3 3 1.1 4.4 3.1 16.3 3.1 16.3l-2.1-15.2 10.3-4.1zM92.7 53.5s-4.8 2.6-7.3 1.8c1.7-2.8 8.8-8.7 8.8-8.7l-7.4 7.6 5.9-.7z" class="st5"/><path d="M104.2 22s4.3 0 5.2 1.9c-1.5-.1-2 .3-3.1 0-1.1-.2-2.1-1.9-2.1-1.9zM39.8 99.9c-2.5-.3-5.5-.3-5.8-5.2.6 0 1.2-.1 1.8-.3-1.5-.9-4-.6-2.8 3.8 1.4 4.7 6.6 3 8 2.8.5-.1 2.8-1 5.6-2.1-2.5.5-5.5 1.2-6.8 1z" class="st2"/><path d="M125.8 25.8l-5.4.4 2.2 2.2s.5 3.3-1.1 3c-1.7-.3-5.5-.8-6.6-.8s-2.8.3-2.5.8 3.6 0 3.6 0l4.1 1.9v.8c-1.4 0-2.8-.2-4.1-.5-1.2-.4-2.4-.7-3.6-.8-1.6.6-3.3 1-5 1.1 2.5-1.4 2.8-2.5 2.8-2.5-.9 0-1.8.1-2.8.3-1.4.3-1.9.8-2.8.3-.8-.5-3-1.7-3-1.7.6 1.1 1.3 2.2 2.2 3-1.4-.2-2.6-.9-3.6-1.9 0 0-3.3 11.6-5.8 14.9-2.4 2.8-4.9 5.5-7.7 8 0 0 3.8.5 5.5-.8-1.1 1.9-.8 3-3.3 3.3s-6.1 0-7.4 1.7c1.6 1 3.4 1.5 5.2 1.4 0 0-2.5 6.6-7.7 7.7-4.5.8-9 1.4-13.5 1.7h-5l2.1 10.1V79c.3-2.8 1.1-7.4 1.1-7.4l3.4.7s-2.6 9.5-3.4 11.9c-.8 2.5-2.5 9.4-2.5 9.4-1.4.4-2.8 1-4.1 1.7-1.4.8-7.7 5.2-7.7 5.2s-2.8-1.1-4.4-.3c-1.7.8-4.7 2.8-3.6 4.7 2.4-.1 4.8-.3 7.2-.8l17.9-9.6s3.6-7.2 4.7-8.8c1.1-1.7 7.7-12.1 7.7-12.4s4.7-.8 4.7-.8 9.1-6.9 10.2-10.7c1.1-3.8.3-6.6 2.2-10.5 1.9-3.8 8.8-16.5 8.8-16.5s4.1 1.4 7.4-1.1c3.8 1.1 8 2.2 8 2.2 1.2-.5 1.9-1.7 1.7-3 1.7-.3 2.8-2 2.5-3.7v-.1c1.3-1.1 1.4-3.1 1.4-3.3z" class="st4"/><path d="M71.1 73.2l-3.5 11 8.2-11z" class="st3"/><path d="M78.3 35c-1.8-.2-3.6-.5-5.4-1s-9.2-2.7-17.6-4.1l18.1 7.3c-.1 0 3.2-1.4 4.9-2.2z" class="st2"/><path d="M65.6 69.1s11.6-1.7 13.5-2.5c1.9-.8 6.8-4.7 6.8-4.7s-2.3 5.2-7.3 5.9c-5 .7-13 1.3-13 1.3zM62.9 30.9l5.2 1.3 2.3.6s-9.8 4.4-13.1 13.5-2.8 18.1-2.8 18.1L35.7 54.2s-2.3-11-1.2-15.7c1.3-5.2 5-9 6.9-10.5 7.3 0 21.5 2.9 21.5 2.9z" class="st5"/><path fill="#005ca0" d="M62.9 30.9l5.2 1.3 1 .3s-9.6 4.2-12.9 13.3c-3.3 9-2.8 16.6-2.8 16.6l-16.8-8.6s-2.1-9.8-.9-14.5c1.3-5.2 6-9.7 7.5-11.1 8.6-.1 19.7 2.7 19.7 2.7z"/><path d="M48.7 34.8l.8 4.7 4.3 1.9-4.2 2.2-.5 4.7-3.4-3.3-4.6 1 2.1-4.3-2.4-4.1 4.7.7z" class="st5"/></g><path d="M50.3 121.7h-42c-2.2 0-4-1.8-4-4v-42c0-2.2 1.8-4 4-4h42c2.2 0 4 1.8 4 4v42c0 2.2-1.8 4-4 4z" opacity=".3"/><path fill="#273445" d="M46 126H4c-2.2 0-4-1.8-4-4V80c0-2.2 1.8-4 4-4h42c2.2 0 4 1.8 4 4v42c0 2.2-1.8 4-4 4z"/><linearGradient id="SVGID_1_" x1="25" x2="25" y1="12.441" y2="41.541" gradientTransform="matrix(1 0 0 -1 0 128)" gradientUnits="userSpaceOnUse"><stop offset="0" stop-color="#e6a500"/><stop offset="1" stop-color="#d4ff47"/></linearGradient><path fill="url(#SVGID_1_)" d="M16.7 86.4l12.5 21.7-4.3 7.4L8.2 86.4h8.5zm14.6 18.3l10.5-18.2H27v10.8l4.3 7.4z"/></svg>
