<svg class="S" xmlns="http://www.w3.org/2000/svg" xmlns:xlink="http://www.w3.org/1999/xlink" viewBox="0 0 126 126"><defs><filter id="luminosity-noclip" x="23.34" y="-8109" width="79.85" height="32766" filterUnits="userSpaceOnUse" color-interpolation-filters="sRGB"><feFlood flood-color="#fff" result="bg"/><feBlend in="SourceGraphic" in2="bg"/></filter><mask id="mask" x="23.34" y="-8109" width="79.85" height="32766" maskUnits="userSpaceOnUse"><g style="filter:url(#luminosity-noclip)"/></mask><linearGradient id="linear-gradient" x1="63.27" y1="-5.75" x2="63.27" y2="74.95" gradientUnits="userSpaceOnUse"><stop offset="0" stop-color="#fff" stop-opacity="0.4"/><stop offset="0.01" stop-color="#fff" stop-opacity="0.39"/><stop offset="0.32" stop-color="#fff" stop-opacity="0.22"/><stop offset="0.6" stop-color="#fff" stop-opacity="0.1"/><stop offset="0.84" stop-color="#fff" stop-opacity="0.03"/><stop offset="1" stop-color="#fff" stop-opacity="0"/></linearGradient></defs><g style="isolation:isolate"><g id="design"><g id="Layer_4" data-name="Layer 4"><circle cx="62.96" cy="63" r="49.95" style="fill:#919932"/><path d="M56.08,24.39c.43-1.65,2.52-2.7,3.61-4.51-12.6,3.48-31.38,11.27-46.45,38.27A49.08,49.08,0,0,0,13,63.43C17.62,55.21,32.89,32.36,56.08,24.39Z" style="fill:#4d4d4d"/><path d="M56.08,24.4c.44-1.65,2.53-2.7,3.62-4.51l-2.11.61a3.84,3.84,0,0,0-1,1.51C34.35,28.92,18.86,49.46,13.21,58.42a46.92,46.92,0,0,0-.2,5C17.62,55.22,32.89,32.37,56.08,24.4Z" style="fill:#747a28"/><path d="M111,64.63l1.85-5.27a50,50,0,0,0-42-46l-6.9,1.21-6,8-2,17,1,26s-1,15-18,22c-9.7,4-17.45-1.1-22.32-6.23a50,50,0,0,0,57.73,30l5.64-4.62s3-10,4-11,5-10,7-12,9-8,13-12Z" style="fill:#adadad"/><path d="M30.07,87.28c-9.88-1-14.79-10.61-16.64-17.66a50.56,50.56,0,0,0,3,11.38,18.55,18.55,0,0,0,5.82,7.06c8.9,6.12,21.21,3.15,28.66-4.91,8-8.7,8.45-16.43,8.88-21.43.88-10.21-2.57-18.78-2.11-28.57.55-11.91,6.51-16.64,9.7-17.76,4.1-1.44,8.81-.71,12.25.25A49.78,49.78,0,0,0,68.41,13a13.33,13.33,0,0,0-7.14,2,16.92,16.92,0,0,0-5.47,6.65C50.6,32,54.41,43.43,55.05,58.44,55.67,73.93,43.79,88.68,30.07,87.28Zm44.37,24.16a14.16,14.16,0,0,0,5.71-2.68c3.4-2.75,4.23-9.18,6.65-14.32,3-6.32,8.2-12.72,17.62-19.38A20,20,0,0,0,113,62.2a50.17,50.17,0,0,0-1.5-11.38c2.89,12.45-6.12,18.66-13.43,23.68C87.34,81.87,83.36,89.22,80,101.7c-2,7.39-6.12,9-9.48,10.55,1.34-.24,2.66-.49,4-.8Z" style="fill:#f2f2f2"/><path d="M16.35,81.07a18.55,18.55,0,0,0,5.82,7.06c8.91,6.13,21.22,3.15,28.63-4.91,8.08-8.7,8.54-16.5,9-21.5.88-10.21-2.57-18.78-2.11-28.57.55-11.91,6.51-16.64,9.7-17.76a19.47,19.47,0,0,1,10.3-.22l-.47-.12C66,12.22,62,18.05,60.59,20.15a25,25,0,0,0-3.35,12.14c-.45,9.79,3,18.36,2.11,28.57-.42,5-.78,13.33-9,21.87S30.64,93.38,21.77,87.26a18.13,18.13,0,0,1-5.46-6.43A.61.61,0,0,0,16.35,81.07Zm63.76,27.69c3.4-2.75,4.23-9.18,6.65-14.32,3-6.32,8.2-12.72,17.62-19.38A20,20,0,0,0,113,62.2c0-.68,0-1.35-.09-2v.07c0,1.34-.5,7.76-8.74,14.19-9.08,7.11-14.85,13.28-17.82,19.62-1.6,3.4-3,9-3.76,10.66-1.18,2.54-3,4.69-7.43,6.57A13.83,13.83,0,0,0,80.11,108.76Z" style="fill:#4d4d4d"/><g style="mask:url(#mask)"><path d="M63.27,17.89c-22.05,0-39.93,15.69-39.93,35v0a8.66,8.66,0,0,0,4.48,7.28,69.34,69.34,0,0,0,35.45,9.53,69.33,69.33,0,0,0,35.44-9.53A8.62,8.62,0,0,0,103.19,53v0C103.19,33.58,85.32,17.89,63.27,17.89Z" style="fill:url(#linear-gradient)"/></g><path d="M112.19,62.63a49.51,49.51,0,0,1-.44,6.59c0,.35-.09.69-.15,1a49.06,49.06,0,0,1-7.44,19.47c-.21.33-.43.66-.65,1a50.08,50.08,0,0,1-17,15.43h0l-1.46.78a49.61,49.61,0,0,1-22.6,5.42c-.69,0-1.36,0-2,0a46.12,46.12,0,0,1-5-.45h0a49.51,49.51,0,0,1-25.13-11.36c-.52-.44-1-.89-1.54-1.37a48.19,48.19,0,0,1-5.88-6.48c-.26-.35-.52-.7-.77-1.06a49.13,49.13,0,0,1-6.31-11.9,48,48,0,0,0,10,2.5h0a41.62,41.62,0,0,0,5,.46c.68,0,1.35.05,2,.05a49.61,49.61,0,0,0,22.6-5.42l1.46-.78h0A50,50,0,0,0,73.84,61c.22-.31.44-.64.65-1A49.12,49.12,0,0,0,81.93,40.6c.06-.35.11-.69.16-1A51.13,51.13,0,0,0,82.52,33a49.72,49.72,0,0,0-3-17.06A49.72,49.72,0,0,1,112.19,62.63Z" style="fill:#878787;opacity:0.2;mix-blend-mode:multiply"/><path d="M112.19,62.63a49.51,49.51,0,0,1-.44,6.59c0,.35-.09.69-.15,1a49.06,49.06,0,0,1-7.44,19.47c-.21.33-.43.66-.65,1a50.08,50.08,0,0,1-17,15.43h0l-1.46.78a49.61,49.61,0,0,1-22.6,5.42c-.69,0-1.36,0-2,0a46.12,46.12,0,0,1-5-.45h0a49.51,49.51,0,0,1-25.13-11.36c-.52-.44-1-.89-1.54-1.37a48.47,48.47,0,0,1-5.86-6.45,49.26,49.26,0,0,0,22.94,9.59h0a43.75,43.75,0,0,0,5,.46c.68,0,1.36.05,2,.05a49.61,49.61,0,0,0,22.6-5.42L77,96.56h0a50,50,0,0,0,17-15.44l.65-1A49.19,49.19,0,0,0,102,60.68q.09-.52.15-1A49.83,49.83,0,0,0,92.5,23,49.58,49.58,0,0,1,112.19,62.63Z" style="fill:#878787;opacity:0.2;mix-blend-mode:multiply"/></g></g></g></svg>
