<svg class="S" xmlns="http://www.w3.org/2000/svg" id="design" x="0" y="0" version="1.1" viewBox="0 0 126 126" xml:space="preserve"><defs/><style>.st0{fill:#2f303d}.st2{fill:#fff}.st4{fill:#d7d8dd}.st5{fill:#97989c}</style><path d="M31.3 41.4L63 23.1l31.7 18.3v43.2L63 102.9 31.3 84.6z" class="st0"/><path fill="#ffa430" d="M33.5 83.4V42.6l29.5-17 29.5 17v40.8l-29.5 17z"/><path d="M55.8 91.7c.3-.5.9-.6 1.3-.4.5.3.6.9.4 1.3-.3.5-.9.6-1.3.4-.5-.2-.7-.8-.4-1.3zM51.8 89.5c.2-.4.8-.6 1.2-.3.4.2.6.8.3 1.2-.2.4-.8.6-1.2.3-.4-.3-.6-.8-.3-1.2zM47.7 87.2c.2-.4.7-.5 1-.3.4.2.5.7.3 1-.2.4-.7.5-1 .3-.3-.2-.5-.6-.3-1zM43.7 84.9c.2-.3.6-.4.9-.2.3.2.4.6.2.9-.2.3-.6.4-.9.2-.3-.2-.4-.6-.2-.9zM39.7 82.7c.1-.3.5-.4.7-.2.3.1.4.5.2.7-.1.3-.5.4-.7.2-.3-.1-.4-.5-.2-.7z" class="st2"/><g><path d="M70.6 91.7c-.3-.5-.9-.6-1.3-.4-.5.3-.6.9-.4 1.3.3.5.9.6 1.3.4.5-.2.7-.8.4-1.3zM74.7 89.5c-.2-.4-.8-.6-1.2-.3-.4.2-.6.8-.3 1.2.2.4.8.6 1.2.3.3-.3.5-.8.3-1.2zM78.7 87.2c-.2-.4-.7-.5-1-.3-.4.2-.5.7-.3 1 .2.4.7.5 1 .3.4-.2.5-.6.3-1zM82.7 84.9c-.2-.3-.6-.4-.9-.2-.3.2-.4.6-.2.9.2.3.6.4.9.2.3-.2.4-.6.2-.9zM86.7 82.7c-.1-.3-.5-.4-.7-.2-.3.1-.4.5-.2.7.1.3.5.4.7.2.3-.1.4-.5.2-.7z" class="st2"/></g><g><path d="M70.4 35.3c-.3.5-.9.6-1.3.4-.5-.3-.6-.9-.4-1.3.3-.5.9-.6 1.3-.4.5.2.7.8.4 1.3zM74.4 37.6c-.2.4-.8.6-1.2.3-.4-.2-.6-.8-.3-1.2.2-.4.8-.6 1.2-.3.4.2.6.8.3 1.2zM78.5 39.8c-.2.4-.7.5-1 .3-.4-.2-.5-.7-.3-1 .2-.4.7-.5 1-.3.3.2.5.7.3 1zM82.5 42.1c-.2.3-.6.4-.9.2-.3-.2-.4-.6-.2-.9.2-.3.6-.4.9-.2.3.2.4.6.2.9zM86.5 44.4c-.1.3-.5.4-.7.2-.3-.1-.4-.5-.2-.7.1-.3.5-.4.7-.2.3.1.4.4.2.7z" class="st2"/><g><path d="M55.6 35.3c.3.5.9.6 1.3.4.5-.3.6-.9.4-1.3-.3-.5-.9-.7-1.3-.4-.5.2-.7.8-.4 1.3zM51.6 37.6c.2.4.8.6 1.2.3.4-.2.6-.8.3-1.2-.2-.4-.8-.6-1.2-.3-.4.2-.6.8-.3 1.2zM47.5 39.8c.2.4.7.5 1 .3.4-.2.5-.7.3-1-.2-.4-.7-.5-1-.3-.3.2-.5.7-.3 1zM43.5 42.1c.2.3.6.4.9.2.3-.2.4-.6.2-.9-.2-.3-.6-.4-.9-.2-.3.2-.4.6-.2.9zM39.5 44.4c.1.3.5.4.7.2.3-.1.4-.5.2-.7-.1-.3-.5-.4-.7-.2-.3.1-.4.4-.2.7z" class="st2"/></g></g><g><path fill="#959599" d="M114 96.2c-.7-5.1-1.4-12.5-2.4-20.3-.8-7-1.8-14.3-3-20.7-1.1.9-2.2 1.8-3.4 2.8-2.4 2-4.9 4-7.3 6-2.7 2.2-5.3 4.4-8 6.6-1.6 1.3-10.8 2.6-18.2 3.9H53.2C45.8 73 36.6 71.7 35 70.4c-2.7-2.2-5.3-4.4-8-6.6-2.4-2-4.9-4-7.3-6-1.1-.9-2.2-1.8-3.4-2.8-1.2 6.4-2.1 13.8-3 20.7-.9 7.9-1.7 15.2-2.4 20.3-.2 1.7-.2 3.2.2 4.6.8 3 2 6.4 4.5 7.8 2.8 1.6 6.9 1.3 9.9.4 3.3-.9 6.5-3.8 7.7-6 4.5-9.8 9.3-15.1 12.4-17.5h33.6c3 2.4 7.8 7.7 12.4 17.5 1.2 2.2 4.4 5 7.7 6 3 .9 7.1 1.2 9.9-.4 2.5-1.5 3.8-4.8 4.5-7.8.5-1.2.6-2.8.3-4.4z"/><path d="M87.7 38.4H102.8c-.4-.7-.8-1.4-1.3-2.1-.1-.1-.2-.3-.4-.4-.3-.3-.6-.5-1-.7-1.1-.6-2.7-.9-4.9-.9-1.5 0-2.8.2-3.7.5-1 .3-1.7.7-2.2 1.2l-.4.4c-.4.6-.8 1.3-1.2 2z" class="st0"/><path id="path3234_2_" d="M22.8 38.4h15.1l-1.2-1.9c-.8-1.3-2.8-2.2-6.4-2.2-3.6 0-5.6.9-6.4 2.2l-1.1 1.9z" class="st0"/><path d="M20.8 48.5h19c-.6-3.6-.9-5.9-1.2-7.6-.1-.7-.2-1.2-.3-1.7-.1-.4-.2-.7-.5-1-1.1-1.1-3.6-1.8-7-1.8h-.6c-3.6 0-6.4.6-7.5 1.8-.3.3-.4.6-.5 1-.1.5-.2 1.1-.3 1.7-.2 1.7-.5 4-1.1 7.6zM85.7 48.5h19c-.5-3.4-.9-5.7-1.1-7.4-.1-.8-.2-1.4-.4-2-.1-.4-.2-.7-.5-1-.9-1-2.8-1.6-5.4-1.8-.7-.1-1.4-.1-2.1-.1-3.6 0-6.4.6-7.5 1.8-.3.3-.4.6-.5 1-.1.6-.2 1.2-.4 2-.2 1.8-.6 4-1.1 7.5z" class="st4"/><path d="M117.9 96.1c-.7-5.1-1.4-12.5-2.4-20.3-.8-7-1.8-14.3-3-20.7-.7.6-1.5 1.2-2.2 1.8-3.2-5.2-8.3-12.8-8.3-14.3H24.1c0 1.7-6.5 9.3-9.3 13.6-.4-.3-.8-.7-1.2-1-1.2 6.4-2.1 13.8-3 20.7-.9 7.9-1.7 15.2-2.4 20.3-.2 1.7-.2 3.2.2 4.6.8 3 2.8 5.4 5.3 6.9 2.8 1.6 6.1 2.3 9.1 1.4 3.3-.9 6.5-3.8 7.7-6 4.5-9.8 6.2-14.3 8.4-17.5 1.1-1.7 3-3.4 4.9-4.9H82.4c1.9 1.4 3.7 3.1 4.9 4.8 2.1 3.2 3.8 7.7 8.4 17.5 1.2 2.2 4.4 5 7.7 6 3 .9 6.4.2 9.1-1.4 2.5-1.5 4.5-3.8 5.3-6.9.2-1.4.3-2.9.1-4.6z" class="st4"/><path id="path3221_1_" d="M74.4 57.4c0 10.6 8.6 19.1 19.1 19.1 10.6 0 19.1-8.6 19.1-19.1 0-10.6-8.6-19.1-19.1-19.1-10.5 0-19.1 8.6-19.1 19.1z" class="st5"/><path id="path3244_1_" d="M98.2 47.5c0 2.6-2.1 4.6-4.6 4.6-2.6 0-4.6-2.1-4.6-4.6 0-2.6 2.1-4.6 4.6-4.6 2.5-.1 4.6 2 4.6 4.6z" class="st0"/><path id="path3246_1_" d="M98.2 67.5c0 2.6-2.1 4.6-4.6 4.6-2.6 0-4.6-2.1-4.6-4.6 0-2.6 2.1-4.6 4.6-4.6 2.5-.1 4.6 2 4.6 4.6z" class="st0"/><path id="path3248_1_" d="M98.9 57.5c0-2.6 2.1-4.6 4.6-4.6 2.6 0 4.6 2.1 4.6 4.6 0 2.6-2.1 4.6-4.6 4.6-2.5 0-4.6-2-4.6-4.6z" class="st0"/><path id="path3250_1_" d="M78.9 57.5c0-2.6 2.1-4.6 4.6-4.6 2.6 0 4.6 2.1 4.6 4.6 0 2.6-2.1 4.6-4.6 4.6-2.5 0-4.6-2-4.6-4.6z" class="st0"/><path id="path2416_1_" d="M51.6 57.4c0 10.6-8.6 19.1-19.1 19.1-10.5.1-19.1-8.5-19.1-19.1 0-10.6 8.6-19.1 19.1-19.1 10.6 0 19.1 8.6 19.1 19.1z" class="st5"/><g id="g3289_1_"><path id="path3273_1_" d="M32.4 42.4l-2.2 2.1h4.5l-2.3-2.1z" class="st0"/><path id="path3295_1_" d="M32.4 72l-2.2-2.1h4.5L32.4 72z" class="st0"/><path id="path3303_1_" d="M47.2 57.2L45.1 55v4.5l2.1-2.3z" class="st0"/><path id="path3305_1_" d="M17.6 57.2l2.1-2.2v4.5l-2.1-2.3z" class="st0"/></g><path id="path3324_8_" d="M26.9 53.8c.2 0 .4.1.5.3l2.1 2.6c.2.3.2.6 0 .8l-2.1 2.6c-.1.2-.3.3-.6.3H22c-.2 0-.4-.1-.5-.2-.1-.1-.2-.3-.2-.5v-5.2c0-.4.3-.8.7-.8h4.9v.1z" class="st0"/><path id="path3324_7_" d="M35.8 51.7c0 .2-.1.4-.3.5l-2.6 2.1c-.3.2-.6.2-.8 0l-2.6-2.1c-.2-.1-.3-.3-.3-.6v-4.8c0-.2.1-.4.2-.5.1-.1.3-.2.5-.2H35c.4 0 .8.3.8.7v4.9z" class="st0"/><path id="path3324_6_" d="M37.9 60.6c-.2 0-.4-.1-.5-.3l-2.1-2.6c-.2-.3-.2-.6 0-.8l2.1-2.6c.1-.2.3-.3.6-.3h4.8c.2 0 .4.1.5.2.1.1.2.3.2.5v5.2c0 .4-.3.8-.7.8h-4.9c.1-.1.1-.1 0-.1z" class="st0"/><path id="path3324_5_" d="M29.1 62.7c0-.2.1-.4.3-.5l2.6-2.1c.3-.2.6-.2.8 0l2.6 2.1c.2.1.3.3.3.6v4.8c0 .2-.1.4-.2.5-.1.1-.3.2-.5.2h-5.2c-.4 0-.8-.3-.8-.7v-4.9c.1.1.1 0 .1 0z" class="st0"/><path d="M46.4 85.5c-5.1 0-9.2-4.1-9.2-9.2s4.1-9.2 9.2-9.2 9.2 4.1 9.2 9.2-4.1 9.2-9.2 9.2z" class="st4"/><path d="M46.4 81.5c-2.9 0-5.2-2.3-5.2-5.2s2.3-5.2 5.2-5.2c2.9 0 5.2 2.3 5.2 5.2s-2.3 5.2-5.2 5.2z" class="st0"/><path d="M79.6 85.5c-5.1 0-9.2-4.1-9.2-9.2s4.1-9.2 9.2-9.2 9.2 4.1 9.2 9.2-4.2 9.2-9.2 9.2z" class="st4"/><path d="M79.6 81.5c-2.9 0-5.2-2.3-5.2-5.2s2.3-5.2 5.2-5.2c2.9 0 5.2 2.3 5.2 5.2s-2.4 5.2-5.2 5.2z" class="st0"/></g></svg>
