<svg class="S" xmlns="http://www.w3.org/2000/svg" viewBox="0 0 126 126"><defs/><radialGradient id="a" cx="49.847" cy="34.743" r="79.461" gradientTransform="matrix(1 0 0 1.0037 0 -.093)" gradientUnits="userSpaceOnUse"><stop offset="0" stop-color="#ffb854"/><stop offset=".434" stop-color="#ff5900"/><stop offset=".819" stop-color="#a33800"/><stop offset="1" stop-color="#421200"/></radialGradient><path fill="url(#a)" d="M109.8 79c0-.7.4-1.2 1.1-1.4 1.4-4.6 2.2-9.5 2.2-14.5 0-5.6-.9-11-2.7-16.1-.6-.2-1.1-.8-1.1-1.4 0-.3.1-.6.3-.8-4.8-12.1-14.2-22-26.1-27.3-.2.1-.4.2-.7.2-.7 0-1.2-.5-1.4-1.1C75.7 14.2 69.5 13 63 13c-7.9 0-15.3 1.8-22 5.1-.1.8-.7 1.4-1.5 1.4-.3 0-.5-.1-.8-.2-11.1 6.1-19.5 16.3-23.4 28.6.4.3.7.7.7 1.3 0 .8-.7 1.5-1.5 1.5-1 4-1.5 8.1-1.5 12.4 0 8.9 2.4 17.3 6.5 24.6.8 0 1.5.7 1.5 1.5 0 .2-.1.4-.2.6 7.2 11.4 18.9 19.6 32.5 22.3.3-.3.7-.4 1.1-.4.6 0 1.1.4 1.4.9 2.4.3 4.8.5 7.3.5 10.1 0 19.5-3 27.4-8.2 0-.8.7-1.5 1.5-1.5.2 0 .3 0 .5.1 8.1-5.9 14.3-14.1 17.8-23.6-.4-.3-.5-.6-.5-.9z"/><path d="M109.8 79c0 .2.1.4.1.5-2.1.1-4.4-.1-6.7-1.1-3.8-1.9-6.2-6-8.3-10.2 0-.1-.1-.1-.1-.2-2.7 2.2-5.6 4.2-8.7 6.1.8 1.7 1.5 3.4 2.2 5.2 2.8 7.1 4 15.3 4 23.5 0 .3 0 .4.1.6-.1 0-.4-.2-1.2.1-.5.2-.6.4-.8 1.3-.1-4.8-.3-13-1.3-17.5-.9-4.1-2.7-8.1-4.5-12.3-3.4 2-7 3.9-10.8 5.7.6 1.3 1.1 2.8 1.3 4.3 1.9 8.4-2.5 17.3-9.2 22.4-2.7 2.2-7.1 3.7-10.2 5-.4-.8-1.4-1-2.4-.4 0 0 .7-.7 1.1-.9 6.3-2.8 17.2-7.4 19.4-18.8.8-3.9.1-7.6-1.5-10.9-4.5 2.1-9.3 4.1-14.1 5.9-11.2 4.3-24.7 6-37 2.9-.1-.2-.2-.4-.4-.5.4-.7-.1-1.2 0-1.3 7.4 1.7 17.5 3.3 29.4-.2 6.7-2 13.9-4.8 21.2-8.3-4.6-7.6-14.3-13.4-24-17-10.2-3.4-21.5-7-31.7-12.9.2-.2.5-.6.4-1.1 6.2 3.4 14.5 7.4 24.9 10 6.2 1.9 12.8 4.4 19.3 8.2 4.7 2.8 9.8 6.6 12.8 11.9l3.6-1.8c2.4-1.2 4.8-2.6 7.2-4-4.1-8.9-9.7-18-16.1-27.2-7.2-9.6-16.3-20.4-27.6-26.8.5-.2.9-1.1.9-1.3 0 0 .1 0 .1-.1 7 3.7 15.3 10.9 23.1 20.8 7.2 9.3 15 20.4 21 33.6 2.3-1.4 4.5-2.8 6.8-4.3.7-.5 1.7-1.3 2.4-1.8-3.9-8.4-5.5-19.4-6.1-30.6-.4-6.5-5.7-16.2-7.1-19 .1 0 .7 1 1.5 1.1.2 0 .5-.1.7-.2.1.1.3 1.2.9 2.2 2.1 3.7 4.1 8.1 5 12.8 1.1 9.6 1.2 19 5 30.2.4 1 .7 1.9 1.1 2.9 6-5 11-11.6 14.2-19.1.2.2.4.4.7.5 0 .1.1.3.1.4-2.3 5.6-5.9 11.6-11.4 16.9l-3 2.7c1.7 4 3.9 8 7.5 10.4 2 1 4.1 1.3 6.3 1.3-.1.2-.1.3-.1.4z"/><path fill="#878787" d="M111.5 62.5c0 2.2-.1 4.4-.4 6.5 0 .3-.1.7-.1 1-1.1 7-3.6 13.5-7.3 19.2-.2.3-.4.6-.6 1-4.3 6.3-10 11.5-16.7 15.2-.5.3-1 .5-1.4.8-6.7 3.4-14.2 5.3-22.2 5.3h-2c-1.7-.1-3.3-.2-4.9-.4-9.4-1.3-17.8-5.3-24.7-11.2-.5-.4-1-.9-1.5-1.3-2.1-1.9-4-4.1-5.8-6.4-.3-.3-.5-.7-.8-1-2.6-3.6-4.7-7.5-6.2-11.7 3.1 1.2 6.4 2 9.8 2.5 1.6.2 3.3.4 4.9.5h2c8 0 15.5-1.9 22.2-5.3.5-.3 1-.5 1.4-.8 6.7-3.7 12.4-8.9 16.7-15.2.2-.3.4-.6.6-1 3.7-5.7 6.3-12.2 7.3-19.2.1-.3.1-.7.2-1 .3-2.1.4-4.3.4-6.5 0-5.9-1-11.6-3-16.8 18.7 6.6 32.1 24.6 32.1 45.8z" opacity=".2"/><g><path d="M50.3 121.7h-42c-2.2 0-4-1.8-4-4v-42c0-2.2 1.8-4 4-4h42c2.2 0 4 1.8 4 4v42c0 2.2-1.8 4-4 4z" opacity=".3"/><path fill="#273445" d="M46 126H4c-2.2 0-4-1.8-4-4V80c0-2.2 1.8-4 4-4h42c2.2 0 4 1.8 4 4v42c0 2.2-1.8 4-4 4z"/><linearGradient id="b" x1="25" x2="25" y1="115.559" y2="86.441" gradientUnits="userSpaceOnUse"><stop offset="0" stop-color="#e6a500"/><stop offset="1" stop-color="#d4ff47"/></linearGradient><path fill="url(#b)" d="M16.7 86.4l12.5 21.7-4.3 7.4L8.2 86.4h8.5zm14.6 18.3l10.5-18.2H27v10.8l4.3 7.4z"/></g></svg>
