<svg class="S" xmlns="http://www.w3.org/2000/svg" id="Layer_1" x="0" y="0" version="1.1" viewBox="0 0 126 126" xml:space="preserve"><defs/><style>.st0{fill:#292929}.st1{fill:#ff456d}</style><path d="M63 126L11.7 95.3V8.6l1.7-.4C14.1 8 35.4 4 62.1 4c26.7 0 49.7 4 50.4 4.2l1.8.4v86.7L63 126z" class="st0"/><path d="M16.1 13.2v78.4l19.1 10.7L50 80.6v-71c-10.3.5-25.1 1.8-33.9 3.6zM109.9 13.2v78.4l-19.1 10.7-14.9-21.6V9.6c10.4.5 25.2 1.8 34 3.6zM49.2 100.1l1.2 3.7h3.9l-3.1 2.3 1.2 3.6-3.2-2.2-3.1 2.2 1.2-3.6-3.1-2.3H48zM76.8 100.1l1.2 3.7h3.8l-3.1 2.3 1.2 3.6-3.1-2.2-3.2 2.2 1.2-3.6-3.1-2.3h3.9z" class="st1"/><g><path d="M63 104.6l1.6 4.8h5l-4.1 3 1.6 4.8-4.1-2.9-4.1 2.9 1.6-4.8-4.1-3h5z" class="st1"/></g><g><circle cx="63" cy="54" r="44.4" class="st0"/><radialGradient id="SVGID_1_" cx="63" cy="53.971" r="41.532" gradientUnits="userSpaceOnUse"><stop offset="0" stop-color="#f1f1f2"/><stop offset=".427" stop-color="#efeff0"/><stop offset=".58" stop-color="#e8e9ea"/><stop offset=".69" stop-color="#dddedf"/><stop offset=".759" stop-color="#d0d2d3"/><stop offset=".824" stop-color="#c9cbcd"/><stop offset="1" stop-color="#bbbdbf"/></radialGradient><circle cx="63" cy="54" r="41.5" fill="url(#SVGID_1_)"/><path d="M98.1 57.4c1.7-4.9.9-15.3.7-17.6.5-.3 1.5-1 2.5-1.9-4-9.5-11.4-17.2-20.7-21.6.7 1.2 3.2 5.9 3.7 11.3l-14 5.6C68 31.8 55.6 28.6 53.1 28l-2-10.6c1.1-.6 6.8-3.5 11.4-5-8.7.1-16.7 2.9-23.3 7.5 3.6-1 8.9-2.3 11.4-2.4l2 10.5c-.9.9-8.3 8.3-11.5 13.9-3.3.1-10.4 2.1-13.3 3-.8-2.3-.9-8.2-1.1-10.9-3.3 5.9-5.2 12.8-5.2 20.1 0 2.7.3 5.3.7 7.8.9.6 1.8 1 1.8 1 .2-4.9 3.2-15.5 3.7-17.3 2.8-.8 9.9-2.9 13.2-3 .5 1.2 4 8.9 9.9 15.2-.6 1.9-3.9 12.8-4.7 17.1-3.9 1-12.8 1.8-12.8 1.8-.1 1.5 2.1 6.4 4 10.1 5.5 4.3 12 7.3 19.2 8.4 2-2.1 4.2-6.7 4.9-8 3.4-1 13.5-3.9 17.4-5.9.5.7 12 3.3 12 3.3 2.2-1.3 5.6-5.8 8-9.4 1.1-1.9 2.1-3.9 2.9-6-.4-3.8-2.9-10.2-3.6-11.8zM78.9 80.6c-3.4 1.9-13.9 5-17.5 6-4.8-2.7-13.6-10.8-14.7-11.8.7-4.2 4-14.8 4.6-16.9 1.9-.5 16-4.6 18.4-5.9l13.6 12.2c-.2 3.5-4 13.8-4.4 16.4zm4.6-16.8L69.9 51.5c.1-2.5.9-15.4.9-17.7l13.9-5.6c1.6 1 8.6 5.8 13.6 11.6.2 1.9 1 12.8-.7 17.6-3.7 2.5-12.3 5.7-14.1 6.4z"/><path fill="#333" d="M33.2 76.7c-4.5-3.6-9.2-13.5-9.4-13.9l.5-.2c0 .1 4.9 10.2 9.3 13.7l-.4.4z"/><path fill="#878787" d="M104.1 53.8c0 1.9-.1 3.7-.4 5.5 0 .3-.1.6-.1.9-.9 5.9-3 11.3-6.2 16.1-.2.3-.4.5-.5.8-3.6 5.3-8.4 9.6-14 12.8-.4.2-.8.4-1.2.7C76 93.3 69.6 95 62.9 95h-1.7c-1.4 0-2.8-.2-4.2-.4-7.9-1.1-15-4.5-20.8-9.4-.4-.4-.9-.7-1.3-1.1-1.8-1.6-3.4-3.4-4.8-5.3 5.4 4.1 11.9 6.9 19 7.9 1.4.2 2.7.3 4.2.4H55c6.7 0 13.1-1.6 18.7-4.5.4-.2.8-.4 1.2-.7a40.9 40.9 0 0014-12.8c.2-.3.4-.5.5-.8 3.1-4.8 5.3-10.2 6.2-16.1.1-.3.1-.6.1-.9.2-1.8.4-3.6.4-5.5 0-9.3-3.1-18-8.4-24.9 10 7.6 16.4 19.5 16.4 32.9z" opacity=".2"/></g></svg>
