<svg class="S" xmlns="http://www.w3.org/2000/svg" viewBox="0 0 126 126"><defs/><path fill="#fff" d="M13 16.2h100v93.6H13z"/><path fill="#1d2c49" d="M19.1 21.8h42.7s-2.4 1.7-2.9 3.9-.4 3.7 0 4.8c0 0 0 .5-.3.9s-.3-.8-1.7-.7c-1.4.1-3.3-.4-5.9 4.3 0 0-.8 2.2-1 4-.1 1.9-.3 4.4-.1 5.1.2.7-2.7.5-2.7.5s-.7.2-.8.5 0 1.9 0 2.8c0 .9-.2 1.4-.3 2.3-.1.8-.6 1.6-.5 2.6.1 1 1.6 1 2.5 1.1.9.1.8.3.3.4-.5.1-1.9.2-1.9 1.9.1 1.8.6 5.9.7 7 .1 1.1-.8.1-.7.4.1.3-.4-.2-.7 1.1-.3 1.3.1 1 .2 1.2.1.2.3.2.3.2l-.3.5-.1.7.2.5.2.2s-.5.6 0 1.3c.6.7.3.4.2 1-.1.6-1.2 5.3-.9 7.4.3 2.1-.7 2.7-1.1 3.6-.4.9-3 4.9-2.9 5.8.1.9-.2 1.9-.5 2.4s-1.5 1.8-1.4 3 .1 1.5.7 2c0 0-.5 1.8-.7 2.5s-.9 3.6-1.1 4.2c-.1.5-.4 1.5-.3 2l-.1.2H19.1V21.8zm25.8 81.5h22.8s.2-2.7.8-3.9c.6-1.2.5-2.7.4-3.7s.1-2.7-.7-3.1l-.1-1.2s-.8-1.8-.6-2.3c-.1-.5-.2-4.9-.2-4.9s.2-.8.7-1.1c.1-.4.2-2.8-.2-3.3s-.8-.5-1.8-.6c-1-.1-.4 1-3.8-4.2-.6-1-1.2-1.9-1.4-2.3s-.7-.4-1.3-.4c-.6-.1-.7-.1-1.3-1.1l-.5-1s-.1-.3-.7 1.4-1.1 0-2.2 4.3c-.7 1.4-.7 1.6-.8 3.6-.3 1-.8 1.2-1.4 1.6-.6.4-.7 1.4-.9 1.7-.4.2-1.2.2-1.7 1.8s-.5.7-.1 2.2c0 0-.7 2.6-1.1 3.2-.4.6-1.1 2.3-1.3 3-.2.8-1 1.9-1.7 2-.6.1-1.3 2.4-1.4 3-.1.6-.3 4 0 4.5.3.6.5.8.5.8z"/><path fill="orange" d="M67.9 21.8H107v81.5H81.1s-.2-.2-.4-.7c-.2-.5-2.5-1.4-3.2-1.6-.7-.2-2-2.4-2.5-2.9-.3-.4-.3-.8-.3-.8l-.3-4.4s0-.3.2-.6c.2-.2.6-.8.5-1.3s-.2-2.4-.3-2.7-.1-.7-.1-.9c0-.2.3-.9.3-1.1s.7-5.1.6-5.4c-.1-.3 0-2.8-.4-3.1s-.1-1.4-.2-1.6c-.1-.2-.6.1-.8-.6-.2-.6-2.1-5-2.1-5L71 68.2s-3.4-4.8-3.8-5.2c-.4-.4-.5-2.7-.1-3.3.4-.6.5.1.6.1 0 0 1 .6 1.4.2.4-.4 1.4-2 1.4-2.6 0-.6.3-6.7.1-7-.1-.3-.2-1.3-1.3-1.7-1.1-.4 0-.8 0-1.4 0-.6-.2-1 .2-.7.4.3 4.9 2.8 5.5 2.8.6.1.7.1 1.1.1.4 0 .9.5 1.1.4.2 0 .9 0 2.4-1.2s1.7-1.1 2.1-2.4.2-3.1 1-3.2 1.4.5.6-2.1c-.4-2.5-.3-2.6.1-2.6.3-.2.2-.1.9-.9s.7-.8.8-.9v-.4s.2-.1.3-.2c.1-.1.4-.2.5-.2s-.1-.2.2-.2h7.4v-.7s0-.2.2-.2.3 0 .3.1c.1.1 1.5 0 1.5 0s.3-.2.7-.2h4.6s.1.4.3.4c.2 0 .5.1.5-.2h2.5s.1 0 .1-.6c0-.5 0-.4-1.7-.4h-.8s.1-.2-.3-.2-.6.2-.6.3c0 .1-.2.1-.2.1h-4.7s-.2 0-.2-.7c.1-.7-.2-1-.4-.8-.2.2-.4.2-.4.3 0 0-.2-.2-.3-.5v-2.5s-.1-.4-.3-.3c-.2.1-.4 0-.5.1v3.2s-.2.2-.4 0c-.1-.2-.3-.1-.2-.4 0-.3-.2-.5-.2-.5H75.4s-.1-.8-.2-.8c-.1.1-1.1.1-1.1.1v-1.4s-.1-.4-.4-.2c-.3 0-.2 1.2-.3 1.4 0 .1-.2.1-.2.1v.5l-1 .1s-1.3.2-1.5.4c-.2.1-.9.2-.9.2l-.3.1s-.2-.6-.2-.7V31l-.1-.2c-.1-.4-.1-.7-.1-.7s1.7-.6 2-1.2c.3-.5.3-2.6 0-3.5-.3-.8-.4-1.1-.4-1.3 0-.2-.1-.9-.1-.9s-1.1-.2-1.6-.4-1.3-.7-1.3-.7l.2-.3z"/></svg>
