<svg class="S" xmlns="http://www.w3.org/2000/svg" viewBox="0 0 126 126"><defs/><path fill="#fff" d="M65.8 112.8c-.4 0-.4 0-21.2-3.4l-2.1.2c-12.8 1.4-12.8 1.4-13 1.4h-6.7c-2 0-2.9-.1-5.1-.7-2-.5-3.4-2.3-3.3-4.3.1-3.2.2-6.1.4-8.8 1-25.2 1-25.2-.9-62.2-.2-4.5-.5-9.4-.8-15.1-.1-2.3 1.7-4.4 4-4.5 9.7-.6 16.5-1 21.6-1.3 12.4-.8 14.7-.9 21.7-.9h19.9c1.2 0 1.9.1 6.2.4 3.8.3 10.4.8 22.5 1.6 2.4.2 4.1 2.2 4 4.6 0 .7-.1 1.3-.1 1.7-.2 2.2-.2 2.2 0 9.2 0 1.9.2 7.6.2 7.6 0 .5-.3 51-.1 69.5 0 1.1-.4 2.2-1.2 3.1-.8.8-1.9 1.3-3 1.3-.3 0-.6 0-.8-.1l-8.8-1.8-4.9.3c-7.2.4-7.2.4-17.5 1.3l-10.5.9h-.5z"/><path fill="#fd0200" d="M107.1 39.5c-.3-16.3-.4-12.8 0-17.9 0-.3-.2-.6-.5-.6-24.3-1.7-25.2-1.9-27.1-1.9-33.2 0-15.8-.5-60.1 2.1-.3 0-.5.3-.5.6 2.9 54.8 2.8 45.8 1.3 82.3 0 .3.2.5.4.6 3.3.8 2.7.5 10.5.5l14.5-1.6c.1 0 20 3.3 20.1 3.3 23.4-2 16.7-1.5 31.8-2.3l8.9 1.8c.3.1.7-.2.7-.5-.3-17.9 0-66.4 0-66.4zm-35.9-1.3c.1 0 .2 0 .3-.1l6.3-1.4c3.2-.8 3.7-1 6.5-2.3 1.3.4 4.8 2.4 5.7 3.5.6.7.5.9.4 1.7 0 .2-.1.3-.1.5L88.7 51c-1.4.1-1.5-.1-1.9-.4-.2-.1-.4-.3-.7-.6-2.1-1.4-8.9-6.5-11.1-8.2l-4.2-3.4s.1-.1.1-.2h.3zM81 92.8c-.1-.1-53-56.2-53-56.2l4.6-3.5 64.5 42.7c-.5 1.5-.7 3.3-1.1 4.7-1.1 5.1-2.6 7.4-4.9 12.3-3.2.1-9.9.1-10.1 0zM32.9 77.7c.6-1.4 1.4-3.7 2.1-4.9 3.4 2.1 16.6 15.4 17.7 17.1-.6.2-3.4.6-7.9 2.5-2.9 1.1-5.6 2.2-8.2 1.3-.3-.1-1-.7-2-1.6-1.9-1.6-3.6-2.8-4.6-3.4-1.7-.9-1.4-.7 2.9-11z"/></svg>
